<?xml version="1.0" encoding="UTF-8" standalone="no"?><svg xmlns="http://www.w3.org/2000/svg" xmlns:xlink="http://www.w3.org/1999/xlink" contentScriptType="application/ecmascript" contentStyleType="text/css" height="197px" preserveAspectRatio="none" style="width:227px;height:197px;" version="1.1" viewBox="0 0 227 197" width="227px" zoomAndPan="magnify"><defs><filter height="300%" id="fc7wj73hexaml" width="300%" x="-1" y="-1"><feGaussianBlur result="blurOut" stdDeviation="2.0"/><feColorMatrix in="blurOut" result="blurOut2" type="matrix" values="0 0 0 0 0 0 0 0 0 0 0 0 0 0 0 0 0 0 .4 0"/><feOffset dx="4.0" dy="4.0" in="blurOut2" result="blurOut3"/><feBlend in="SourceGraphic" in2="blurOut3" mode="normal"/></filter></defs><g><!--MD5=[0b70d51bdd028022f5101c089cfdd98e]
entity node--><polygon fill="#DDDDDD" filter="url(#fc7wj73hexaml)" points="16,16,26,6,210,6,210,66.5938,200,76.5938,16,76.5938,16,16" style="stroke:#000000;stroke-width:1.5;"/><line style="stroke:#000000;stroke-width:1.5;" x1="200" x2="210" y1="16" y2="6"/><line style="stroke:#000000;stroke-width:1.5;" x1="16" x2="200" y1="16" y2="16"/><line style="stroke:#000000;stroke-width:1.5;" x1="200" x2="200" y1="16" y2="76.5938"/><text fill="#000000" font-family="sans-serif" font-size="14" font-weight="bold" lengthAdjust="spacing" textLength="154" x="31" y="38.9951">Personal Computer</text><line style="stroke:#000000;stroke-width:1.0;" x1="16" x2="200" y1="42.2969" y2="42.2969"/><line style="stroke:#000000;stroke-width:1.0;" x1="200" x2="210" y1="42.2969" y2="32.2969"/><text fill="#000000" font-family="sans-serif" font-size="14" lengthAdjust="spacing" textLength="0" x="35" y="59.292"/><!--MD5=[5f175ec018c225c86e8e77149e6345d4]
entity component--><rect fill="#FEFECE" filter="url(#fc7wj73hexaml)" height="46.2969" style="stroke:#A80036;stroke-width:1.5;" width="158" x="34" y="137"/><rect fill="#FEFECE" height="10" style="stroke:#A80036;stroke-width:1.5;" width="15" x="172" y="142"/><rect fill="#FEFECE" height="2" style="stroke:#A80036;stroke-width:1.5;" width="4" x="170" y="144"/><rect fill="#FEFECE" height="2" style="stroke:#A80036;stroke-width:1.5;" width="4" x="170" y="148"/><text fill="#000000" font-family="sans-serif" font-size="14" lengthAdjust="spacing" textLength="110" x="53" y="169.9951">mastermind.jar</text><!--MD5=[99109aa5fd687c77c25e258721407e9a]
link node to component--><path d="M113,89.138 C113,89.138 113,113.2406 113,123.7786 " fill="none" id="node-component" style="stroke:#A80036;stroke-width:1.0;"/><polygon fill="#A80036" points="113,136.7958,117,127.7958,113,131.7958,109,127.7958,113,136.7958" style="stroke:#A80036;stroke-width:1.0;"/><line style="stroke:#A80036;stroke-width:1.0;" x1="113" x2="113.0001" y1="131.7958" y2="123.7959"/><polygon fill="#A80036" points="113,77.138,109,83.138,113,89.138,117,83.138,113,77.138" style="stroke:#A80036;stroke-width:1.0;"/><!--MD5=[55fe69a1a0644ddfdf699a92601bd0d5]
@startuml
node node #DDDDDD [
<b>Personal Computer</b>
- - - -

]

[ mastermind.jar ] as component

node *- -> component
@enduml

PlantUML version 1.2021.4beta3(Unknown compile time)
(GPL source distribution)
Java Runtime: Java(TM) SE Runtime Environment
JVM: Java HotSpot(TM) 64-Bit Server VM
Default Encoding: UTF-8
Language: en
Country: US
--></g></svg>