<?xml version="1.0" encoding="UTF-8" standalone="no"?><svg xmlns="http://www.w3.org/2000/svg" xmlns:xlink="http://www.w3.org/1999/xlink" contentScriptType="application/ecmascript" contentStyleType="text/css" height="801px" preserveAspectRatio="none" style="width:298px;height:801px;background:#FFFFFF;" version="1.1" viewBox="0 0 298 801" width="298px" zoomAndPan="magnify"><defs><filter height="300%" id="f1ot0qksxp6bjd" width="300%" x="-1" y="-1"><feGaussianBlur result="blurOut" stdDeviation="2.0"/><feColorMatrix in="blurOut" result="blurOut2" type="matrix" values="0 0 0 0 0 0 0 0 0 0 0 0 0 0 0 0 0 0 .4 0"/><feOffset dx="4.0" dy="4.0" in="blurOut2" result="blurOut3"/><feBlend in="SourceGraphic" in2="blurOut3" mode="normal"/></filter></defs><g><g id="INITIAL"><rect fill="#FEFECE" filter="url(#f1ot0qksxp6bjd)" height="50" rx="12.5" ry="12.5" style="stroke:#A80036;stroke-width:1.5;" width="152" x="102.64" y="87"/><line style="stroke:#A80036;stroke-width:1.5;" x1="102.64" x2="254.64" y1="114.6094" y2="114.6094"/><text fill="#000000" font-family="sans-serif" font-size="14" lengthAdjust="spacing" textLength="132" x="112.64" y="106.5332">INITIALXXXXXXXXXXX</text></g><g id="IN_GAME"><rect fill="#FEFECE" filter="url(#f1ot0qksxp6bjd)" height="50" rx="12.5" ry="12.5" style="stroke:#A80036;stroke-width:1.5;" width="80" x="92.64" y="215"/><line style="stroke:#A80036;stroke-width:1.5;" x1="92.64" x2="172.64" y1="242.6094" y2="242.6094"/><text fill="#000000" font-family="sans-serif" font-size="14" lengthAdjust="spacing" textLength="60" x="102.64" y="234.5332">IN_GAME</text></g><g id="OUT_GAME"><rect fill="#FEFECE" filter="url(#f1ot0qksxp6bjd)" height="50" rx="12.5" ry="12.5" style="stroke:#A80036;stroke-width:1.5;" width="97" x="75.14" y="445"/><line style="stroke:#A80036;stroke-width:1.5;" x1="75.14" x2="172.14" y1="472.6094" y2="472.6094"/><text fill="#000000" font-family="sans-serif" font-size="14" lengthAdjust="spacing" textLength="77" x="85.14" y="464.5332">OUT_GAME</text></g><g id="EXIT"><rect fill="#FEFECE" filter="url(#f1ot0qksxp6bjd)" height="50" rx="12.5" ry="12.5" style="stroke:#A80036;stroke-width:1.5;" width="50" x="149.64" y="658"/><line style="stroke:#A80036;stroke-width:1.5;" x1="149.64" x2="199.64" y1="685.6094" y2="685.6094"/><text fill="#000000" font-family="sans-serif" font-size="14" lengthAdjust="spacing" textLength="29" x="160.14" y="677.5332">EXIT</text></g><polygon fill="#FEFECE" filter="url(#f1ot0qksxp6bjd)" points="123.64,343,135.64,355,123.64,367,111.64,355,123.64,343" style="stroke:#A80036;stroke-width:1.5;"/><polygon fill="#FEFECE" filter="url(#f1ot0qksxp6bjd)" points="174.64,573,186.64,585,174.64,597,162.64,585,174.64,573" style="stroke:#A80036;stroke-width:1.5;"/><ellipse cx="178.64" cy="16" fill="#000000" filter="url(#f1ot0qksxp6bjd)" rx="10" ry="10" style="stroke:none;stroke-width:1.0;"/><ellipse cx="174.64" cy="779" filter="url(#f1ot0qksxp6bjd)" rx="10" ry="10" style="stroke:#000000;stroke-width:1.0;fill:none;"/><ellipse cx="175.14" cy="779.5" fill="#000000" rx="6" ry="6" style="stroke:none;stroke-width:1.0;"/><!--MD5=[06c3f2024f4ea60966e79307ee69ec5f]
link *start to INITIAL--><path d="M178.64,26.01 C178.64,38.7 178.64,62.41 178.64,81.57 " fill="none" id="*start-to-INITIAL" style="stroke:#A80036;stroke-width:1.0;"/><polygon fill="#A80036" points="178.64,86.84,182.64,77.84,178.64,81.84,174.64,77.84,178.64,86.84" style="stroke:#A80036;stroke-width:1.0;"/><!--MD5=[c6210ae09f2e397a3dfeeac0c7e340d4]
link INITIAL to IN_GAME--><path d="M169.77,137.29 C162.19,158.04 151.28,187.92 143.25,209.93 " fill="none" id="INITIAL-to-IN_GAME" style="stroke:#A80036;stroke-width:1.0;"/><polygon fill="#A80036" points="141.48,214.78,148.3218,207.6955,143.1933,210.0827,140.8061,204.9542,141.48,214.78" style="stroke:#A80036;stroke-width:1.0;"/><text fill="#000000" font-family="sans-serif" font-size="13" lengthAdjust="spacing" textLength="28" x="159.64" y="181.4951">Start</text><!--MD5=[200846c1dd6de3f2a37d61d02f348d5e]
link IN_GAME to if_finished--><path d="M92.41,250.29 C68.83,258.02 40.94,271.67 26.64,295 C6,328.68 77.12,345.79 108.98,351.63 " fill="none" id="IN_GAME-to-if_finished" style="stroke:#A80036;stroke-width:1.0;"/><polygon fill="#A80036" points="114.09,352.53,105.9267,347.02,109.1668,351.657,104.5298,354.8971,114.09,352.53" style="stroke:#A80036;stroke-width:1.0;"/><text fill="#000000" font-family="sans-serif" font-size="13" lengthAdjust="spacing" textLength="104" x="27.64" y="309.4951">Move combination</text><!--MD5=[5848ef64f427518330d05d0e49dfaccc]
link if_finished to IN_GAME--><path d="M126.98,346.01 C130.19,337.87 134.81,324.81 136.64,313 C138.8,299.02 138.27,283.35 137.01,270.21 " fill="none" id="if_finished-to-IN_GAME" style="stroke:#A80036;stroke-width:1.0;"/><polygon fill="#A80036" points="136.47,265.12,133.444,274.4925,136.9986,270.092,141.3991,273.6467,136.47,265.12" style="stroke:#A80036;stroke-width:1.0;"/><!--MD5=[fb580c452284ecb35857e88f372e8dbe]
link if_finished to OUT_GAME--><path d="M123.64,367.25 C123.64,383.96 123.64,415.91 123.64,439.57 " fill="none" id="if_finished-to-OUT_GAME" style="stroke:#A80036;stroke-width:1.0;"/><polygon fill="#A80036" points="123.64,444.79,127.64,435.79,123.64,439.79,119.64,435.79,123.64,444.79" style="stroke:#A80036;stroke-width:1.0;"/><text fill="#000000" font-family="sans-serif" font-size="13" lengthAdjust="spacing" textLength="52" x="124.64" y="411.4951">[finished]</text><!--MD5=[636b806927507f296b22f82987e0fbb2]
link OUT_GAME to if_resumed--><path d="M131.01,495.16 C135.68,509.38 142.22,527.54 149.64,543 C154.65,553.46 161.6,564.66 166.9,572.71 " fill="none" id="OUT_GAME-to-if_resumed" style="stroke:#A80036;stroke-width:1.0;"/><polygon fill="#A80036" points="169.95,577.27,168.2628,567.5667,167.1666,573.1163,161.617,572.0201,169.95,577.27" style="stroke:#A80036;stroke-width:1.0;"/><text fill="#000000" font-family="sans-serif" font-size="13" lengthAdjust="spacing" textLength="48" x="150.64" y="539.4951">Resume</text><!--MD5=[36553ab13ef484d8e624246e921f8591]
link if_resumed to INITIAL--><path d="M179.82,578 C186.21,570.34 197.03,556.46 203.64,543 C218.37,512.96 225.64,504.46 225.64,471 C225.64,239 225.64,239 225.64,239 C225.64,203.83 209.37,166.43 195.97,141.6 " fill="none" id="if_resumed-to-INITIAL" style="stroke:#A80036;stroke-width:1.0;"/><polygon fill="#A80036" points="193.51,137.11,194.3215,146.9254,195.9103,141.4962,201.3394,143.0849,193.51,137.11" style="stroke:#A80036;stroke-width:1.0;"/><text fill="#000000" font-family="sans-serif" font-size="13" lengthAdjust="spacing" textLength="64" x="226.64" y="360.4951">[continued]</text><!--MD5=[00ace724ee34ef802585e1261ed65fdc]
link if_resumed to EXIT--><path d="M174.64,597.01 C174.64,610.52 174.64,633.94 174.64,652.77 " fill="none" id="if_resumed-to-EXIT" style="stroke:#A80036;stroke-width:1.0;"/><polygon fill="#A80036" points="174.64,657.95,178.64,648.95,174.64,652.95,170.64,648.95,174.64,657.95" style="stroke:#A80036;stroke-width:1.0;"/><!--MD5=[bd19b40b84bbe903342104a02ae53ed4]
link EXIT to *end--><path d="M174.64,708.21 C174.64,725.84 174.64,749.13 174.64,763.84 " fill="none" id="EXIT-to-*end" style="stroke:#A80036;stroke-width:1.0;"/><polygon fill="#A80036" points="174.64,768.84,178.64,759.84,174.64,763.84,170.64,759.84,174.64,768.84" style="stroke:#A80036;stroke-width:1.0;"/><!--MD5=[bfecb35e27f9f0cfcd6f2e0046926cdc]
@startuml klondike_states
state INITIAL as "INITIALXXXXXXXXXXX"
state IN_GAME
state OUT_GAME
state EXIT
state if_finished <<choice>>
state if_resumed <<choice>>

[*] - -> INITIAL
INITIAL - -> IN_GAME: Start
IN_GAME - -> if_finished: Move combination
if_finished - -> IN_GAME
if_finished - -> OUT_GAME: [finished]
OUT_GAME - -> if_resumed: Resume
if_resumed - -> INITIAL: [continued]
if_resumed - -> EXIT
EXIT - -> [*]
@enduml

PlantUML version 1.2021.7(Sun May 23 14:40:07 CEST 2021)
(GPL source distribution)
Java Runtime: Java(TM) SE Runtime Environment
JVM: Java HotSpot(TM) Client VM
Default Encoding: Cp1252
Language: es
Country: ES
--></g></svg>