<?xml version="1.0" encoding="UTF-8" standalone="no"?><svg xmlns="http://www.w3.org/2000/svg" xmlns:xlink="http://www.w3.org/1999/xlink" contentScriptType="application/ecmascript" contentStyleType="text/css" height="1404px" preserveAspectRatio="none" style="width:841px;height:1404px;background:#FFFFFF;" version="1.1" viewBox="0 0 841 1404" width="841px" zoomAndPan="magnify"><defs><filter height="300%" id="f1fyfwm5hl3cwd" width="300%" x="-1" y="-1"><feGaussianBlur result="blurOut" stdDeviation="2.0"/><feColorMatrix in="blurOut" result="blurOut2" type="matrix" values="0 0 0 0 0 0 0 0 0 0 0 0 0 0 0 0 0 0 .4 0"/><feOffset dx="4.0" dy="4.0" in="blurOut2" result="blurOut3"/><feBlend in="SourceGraphic" in2="blurOut3" mode="normal"/></filter></defs><g><g id="IN_GAME"><rect fill="#FEFECE" filter="url(#f1fyfwm5hl3cwd)" height="50" rx="12.5" ry="12.5" style="stroke:#A80036;stroke-width:1.5;" width="80" x="203.11" y="87"/><line style="stroke:#A80036;stroke-width:1.5;" x1="203.11" x2="283.11" y1="114.6094" y2="114.6094"/><text fill="#000000" font-family="sans-serif" font-size="14" lengthAdjust="spacing" textLength="60" x="213.11" y="106.5332">IN_GAME</text></g><g id="requested"><rect fill="#FEFECE" filter="url(#f1fyfwm5hl3cwd)" height="50" rx="12.5" ry="12.5" style="stroke:#A80036;stroke-width:1.5;" width="50" x="218.11" y="215"/><line style="stroke:#A80036;stroke-width:1.5;" x1="218.11" x2="268.11" y1="242.6094" y2="242.6094"/><text fill="#000000" font-family="sans-serif" font-size="14" lengthAdjust="spacing" textLength="0" x="245.11" y="234.5332"/></g><g id="allowed"><rect fill="#FEFECE" filter="url(#f1fyfwm5hl3cwd)" height="50" rx="12.5" ry="12.5" style="stroke:#A80036;stroke-width:1.5;" width="50" x="218.11" y="343"/><line style="stroke:#A80036;stroke-width:1.5;" x1="218.11" x2="268.11" y1="370.6094" y2="370.6094"/><text fill="#000000" font-family="sans-serif" font-size="14" lengthAdjust="spacing" textLength="0" x="245.11" y="362.5332"/></g><g id="error"><rect fill="#FEFECE" filter="url(#f1fyfwm5hl3cwd)" height="50" rx="12.5" ry="12.5" style="stroke:#A80036;stroke-width:1.5;" width="50" x="88.11" y="726"/><line style="stroke:#A80036;stroke-width:1.5;" x1="88.11" x2="138.11" y1="753.6094" y2="753.6094"/><text fill="#000000" font-family="sans-serif" font-size="14" lengthAdjust="spacing" textLength="0" x="115.11" y="745.5332"/></g><g id="ShowBoard"><rect fill="#FEFECE" filter="url(#f1fyfwm5hl3cwd)" height="50" rx="12.5" ry="12.5" style="stroke:#A80036;stroke-width:1.5;" width="95" x="378.61" y="646"/><line style="stroke:#A80036;stroke-width:1.5;" x1="378.61" x2="473.61" y1="673.6094" y2="673.6094"/><text fill="#000000" font-family="sans-serif" font-size="14" lengthAdjust="spacing" textLength="75" x="388.61" y="665.5332">Show board</text></g><g id="winner"><rect fill="#FEFECE" filter="url(#f1fyfwm5hl3cwd)" height="50" rx="12.5" ry="12.5" style="stroke:#A80036;stroke-width:1.5;" width="50" x="390.11" y="1116"/><line style="stroke:#A80036;stroke-width:1.5;" x1="390.11" x2="440.11" y1="1143.6094" y2="1143.6094"/><text fill="#000000" font-family="sans-serif" font-size="14" lengthAdjust="spacing" textLength="0" x="417.11" y="1135.5332"/></g><g id="looser"><rect fill="#FEFECE" filter="url(#f1fyfwm5hl3cwd)" height="50" rx="12.5" ry="12.5" style="stroke:#A80036;stroke-width:1.5;" width="50" x="602.11" y="1116"/><line style="stroke:#A80036;stroke-width:1.5;" x1="602.11" x2="652.11" y1="1143.6094" y2="1143.6094"/><text fill="#000000" font-family="sans-serif" font-size="14" lengthAdjust="spacing" textLength="0" x="629.11" y="1135.5332"/></g><g id="finished"><rect fill="#FEFECE" filter="url(#f1fyfwm5hl3cwd)" height="50" rx="12.5" ry="12.5" style="stroke:#A80036;stroke-width:1.5;" width="50" x="388.11" y="1244"/><line style="stroke:#A80036;stroke-width:1.5;" x1="388.11" x2="438.11" y1="1271.6094" y2="1271.6094"/><text fill="#000000" font-family="sans-serif" font-size="14" lengthAdjust="spacing" textLength="0" x="415.11" y="1263.5332"/></g><g id="last"><rect fill="#FEFECE" filter="url(#f1fyfwm5hl3cwd)" height="50" rx="12.5" ry="12.5" style="stroke:#A80036;stroke-width:1.5;" width="50" x="127.11" y="948"/><line style="stroke:#A80036;stroke-width:1.5;" x1="127.11" x2="177.11" y1="975.6094" y2="975.6094"/><text fill="#000000" font-family="sans-serif" font-size="14" lengthAdjust="spacing" textLength="0" x="154.11" y="967.5332"/></g><polygon fill="#FEFECE" filter="url(#f1fyfwm5hl3cwd)" points="243.11,471,255.11,483,243.11,495,231.11,483,243.11,471" style="stroke:#A80036;stroke-width:1.5;"/><polygon fill="#FEFECE" filter="url(#f1fyfwm5hl3cwd)" points="423.11,806,435.11,818,423.11,830,411.11,818,423.11,806" style="stroke:#A80036;stroke-width:1.5;"/><polygon fill="#FEFECE" filter="url(#f1fyfwm5hl3cwd)" points="423.11,961,435.11,973,423.11,985,411.11,973,423.11,961" style="stroke:#A80036;stroke-width:1.5;"/><ellipse cx="243.11" cy="16" fill="#000000" filter="url(#f1fyfwm5hl3cwd)" rx="10" ry="10" style="stroke:none;stroke-width:1.0;"/><ellipse cx="181.11" cy="1382" filter="url(#f1fyfwm5hl3cwd)" rx="10" ry="10" style="stroke:#000000;stroke-width:1.0;fill:none;"/><ellipse cx="181.61" cy="1382.5" fill="#000000" rx="6" ry="6" style="stroke:none;stroke-width:1.0;"/><!--MD5=[bc741243a5bb3318d84c2be45b028a19]
link *start to IN_GAME--><path d="M243.11,26.01 C243.11,38.7 243.11,62.41 243.11,81.57 " fill="none" id="*start-to-IN_GAME" style="stroke:#A80036;stroke-width:1.0;"/><polygon fill="#A80036" points="243.11,86.84,247.11,77.84,243.11,81.84,239.11,77.84,243.11,86.84" style="stroke:#A80036;stroke-width:1.0;"/><!--MD5=[cb6173ff77cdc04f8d8e07efcd41f8ff]
link IN_GAME to requested--><path d="M243.11,137.29 C243.11,157.95 243.11,187.67 243.11,209.65 " fill="none" id="IN_GAME-to-requested" style="stroke:#A80036;stroke-width:1.0;"/><polygon fill="#A80036" points="243.11,214.78,247.11,205.78,243.11,209.78,239.11,205.78,243.11,214.78" style="stroke:#A80036;stroke-width:1.0;"/><text fill="#000000" font-family="sans-serif" font-size="13" lengthAdjust="spacing" textLength="210" x="244.11" y="181.4951">Player requests Move a combination</text><!--MD5=[88d5e542042b4fb9fa98fbbb3d94e471]
link requested to allowed--><path d="M243.11,265.29 C243.11,285.95 243.11,315.67 243.11,337.65 " fill="none" id="requested-to-allowed" style="stroke:#A80036;stroke-width:1.0;"/><polygon fill="#A80036" points="243.11,342.78,247.11,333.78,243.11,337.78,239.11,333.78,243.11,342.78" style="stroke:#A80036;stroke-width:1.0;"/><text fill="#000000" font-family="sans-serif" font-size="13" lengthAdjust="spacing" textLength="225" x="244.11" y="309.4951">System requests a Moved combination</text><!--MD5=[e5cc7d208b298153099280e3951d184e]
link allowed to is_correct--><path d="M243.11,393.24 C243.11,414.99 243.11,446.32 243.11,465.35 " fill="none" id="allowed-to-is_correct" style="stroke:#A80036;stroke-width:1.0;"/><polygon fill="#A80036" points="243.11,470.84,247.11,461.84,243.11,465.84,239.11,461.84,243.11,470.84" style="stroke:#A80036;stroke-width:1.0;"/><text fill="#000000" font-family="sans-serif" font-size="13" lengthAdjust="spacing" textLength="227" x="244.11" y="437.4951">Player introduces a Moved combination</text><!--MD5=[322e35916e3fe5ed92d20e54a8addb28]
link is_correct to ShowBoard--><path d="M253.09,485.09 C285.09,488.78 384.33,501.94 405.11,525 C433.48,556.48 433.82,608.39 430.6,640.81 " fill="none" id="is_correct-to-ShowBoard" style="stroke:#A80036;stroke-width:1.0;"/><polygon fill="#A80036" points="430.05,645.84,435.0033,637.3274,430.5928,640.8695,427.0506,636.459,430.05,645.84" style="stroke:#A80036;stroke-width:1.0;"/><!--MD5=[08af5ad016320016223ca6c53ecc136d]
link is_correct to error--><path d="M232.32,484.61 C195.53,486.95 76.01,496.64 53.11,525 C6,583.36 58.68,675.29 91.26,721.49 " fill="none" id="is_correct-to-error" style="stroke:#A80036;stroke-width:1.0;"/><polygon fill="#A80036" points="94.35,725.82,92.3642,716.1734,91.4398,721.7542,85.859,720.8298,94.35,725.82" style="stroke:#A80036;stroke-width:1.0;"/><text fill="#000000" font-family="sans-serif" font-size="13" lengthAdjust="spacing" textLength="173" x="138.61" y="539.4951">[incorrect Moved combination]</text><path d="M58.11,548.3516 L58.11,607.3516 L388.11,607.3516 L388.11,558.3516 L378.11,548.3516 L58.11,548.3516 " fill="#FBFB77" filter="url(#f1fyfwm5hl3cwd)" style="stroke:#A80036;stroke-width:1.0;"/><path d="M378.11,548.3516 L378.11,558.3516 L388.11,558.3516 L378.11,548.3516 " fill="#FBFB77" style="stroke:#A80036;stroke-width:1.0;"/><text fill="#000000" font-family="sans-serif" font-size="13" lengthAdjust="spacing" textLength="213" x="64.11" y="566.8467">MovedCombination.colors.length != 4</text><text fill="#000000" font-family="sans-serif" font-size="13" lengthAdjust="spacing" textLength="274" x="64.11" y="583.1982">MovedCombination.colors at least one repeated</text><text fill="#000000" font-family="sans-serif" font-size="13" lengthAdjust="spacing" textLength="309" x="64.11" y="599.5498">MovedCombination.colors at least one != Color.values</text><!--MD5=[8861f036e8dce612437ba5673f8e2184]
link error to last--><path d="M117.44,776.38 C124.66,817.13 139.15,898.89 146.92,942.69 " fill="none" id="error-to-last" style="stroke:#A80036;stroke-width:1.0;"/><polygon fill="#A80036" points="147.83,947.84,150.2019,938.281,146.9594,942.9164,142.3241,939.6739,147.83,947.84" style="stroke:#A80036;stroke-width:1.0;"/><text fill="#000000" font-family="sans-serif" font-size="13" lengthAdjust="spacing" textLength="116" x="128.11" y="823.4951">System shows error</text><!--MD5=[4eba416b40db52bd3d240c8af95f74c8]
link ShowBoard to is_finished--><path d="M425.61,696.27 C424.99,726.08 423.97,775.79 423.44,801.11 " fill="none" id="ShowBoard-to-is_finished" style="stroke:#A80036;stroke-width:1.0;"/><polygon fill="#A80036" points="423.34,806.13,427.5192,797.2118,423.44,801.131,419.5208,797.0518,423.34,806.13" style="stroke:#A80036;stroke-width:1.0;"/><!--MD5=[bafe74a506a7eedf19f245ac5d89b009]
link is_finished to is_winner--><path d="M423.11,830 C423.11,856.56 423.11,924.28 423.11,955.62 " fill="none" id="is_finished-to-is_winner" style="stroke:#A80036;stroke-width:1.0;"/><polygon fill="#A80036" points="423.11,960.68,427.11,951.68,423.11,955.68,419.11,951.68,423.11,960.68" style="stroke:#A80036;stroke-width:1.0;"/><text fill="#000000" font-family="sans-serif" font-size="13" lengthAdjust="spacing" textLength="52" x="454.11" y="874.4951">[finished]</text><path d="M428.11,883.3516 L428.11,909.3516 L528.11,909.3516 L528.11,893.3516 L518.11,883.3516 L428.11,883.3516 " fill="#FBFB77" filter="url(#f1fyfwm5hl3cwd)" style="stroke:#A80036;stroke-width:1.0;"/><path d="M518.11,883.3516 L518.11,893.3516 L528.11,893.3516 L518.11,883.3516 " fill="#FBFB77" style="stroke:#A80036;stroke-width:1.0;"/><text fill="#000000" font-family="sans-serif" font-size="13" lengthAdjust="spacing" textLength="79" x="434.11" y="901.8467">winner || loser</text><!--MD5=[a9edb36823706432e4cf5dbd7f7fd8ac]
link is_winner to winner--><path d="M422.59,984.89 C421.38,1010.05 418.35,1072.93 416.54,1110.45 " fill="none" id="is_winner-to-winner" style="stroke:#A80036;stroke-width:1.0;"/><polygon fill="#A80036" points="416.28,1115.8,420.7119,1107.0047,416.5226,1110.8059,412.7213,1106.6165,416.28,1115.8" style="stroke:#A80036;stroke-width:1.0;"/><text fill="#000000" font-family="sans-serif" font-size="13" lengthAdjust="spacing" textLength="45" x="463.61" y="1042.4951">[winner]</text><path d="M425.11,1051.3516 L425.11,1077.3516 L543.11,1077.3516 L543.11,1061.3516 L533.11,1051.3516 L425.11,1051.3516 " fill="#FBFB77" filter="url(#f1fyfwm5hl3cwd)" style="stroke:#A80036;stroke-width:1.0;"/><path d="M533.11,1051.3516 L533.11,1061.3516 L543.11,1061.3516 L533.11,1051.3516 " fill="#FBFB77" style="stroke:#A80036;stroke-width:1.0;"/><text fill="#000000" font-family="sans-serif" font-size="13" lengthAdjust="spacing" textLength="97" x="431.11" y="1069.8467">result.blacks = 4</text><!--MD5=[110b45469edeaa4781f2fa19a67a7221]
link is_winner to looser--><path d="M432.85,975.6 C456.96,980 520.34,994.26 560.11,1028 C586.52,1050.4 605.27,1085.97 616.1,1111 " fill="none" id="is_winner-to-looser" style="stroke:#A80036;stroke-width:1.0;"/><polygon fill="#A80036" points="618.16,1115.86,618.3172,1106.0124,616.2025,1111.2591,610.9558,1109.1444,618.16,1115.86" style="stroke:#A80036;stroke-width:1.0;"/><text fill="#000000" font-family="sans-serif" font-size="13" lengthAdjust="spacing" textLength="36" x="703.61" y="1042.4951">[loser]</text><path d="M607.11,1051.3516 L607.11,1077.3516 L832.11,1077.3516 L832.11,1061.3516 L822.11,1051.3516 L607.11,1051.3516 " fill="#FBFB77" filter="url(#f1fyfwm5hl3cwd)" style="stroke:#A80036;stroke-width:1.0;"/><path d="M822.11,1051.3516 L822.11,1061.3516 L832.11,1061.3516 L822.11,1051.3516 " fill="#FBFB77" style="stroke:#A80036;stroke-width:1.0;"/><text fill="#000000" font-family="sans-serif" font-size="13" lengthAdjust="spacing" textLength="204" x="613.11" y="1069.8467">result.blacks &lt; 4 &amp;&amp; attempts = 10</text><!--MD5=[6a9906541693f74107af026827f0d8df]
link is_finished to last--><path d="M415.86,823.09 C382.64,841.85 243.89,920.19 182.06,955.09 " fill="none" id="is_finished-to-last" style="stroke:#A80036;stroke-width:1.0;"/><polygon fill="#A80036" points="177.39,957.73,187.1942,956.7933,181.7452,955.2739,183.2645,949.8249,177.39,957.73" style="stroke:#A80036;stroke-width:1.0;"/><!--MD5=[ff0ac845adfb42913b3584196bbdcdc5]
link winner to finished--><path d="M412.4,1166.16 C411.48,1175.47 410.57,1186.22 410.11,1196 C409.46,1210.12 409.97,1225.81 410.74,1238.92 " fill="none" id="winner-to-finished" style="stroke:#A80036;stroke-width:1.0;"/><polygon fill="#A80036" points="411.06,1244,414.4859,1234.7662,410.7454,1239.0099,406.5017,1235.2695,411.06,1244" style="stroke:#A80036;stroke-width:1.0;"/><text fill="#000000" font-family="sans-serif" font-size="13" lengthAdjust="spacing" textLength="184" x="411.11" y="1210.4951">System shows winner message</text><!--MD5=[86935a91d5f22b7ec58c171ad0db4001]
link looser to finished--><path d="M623.74,1166.16 C620.33,1181.83 613.54,1201.58 600.11,1214 C556.44,1254.41 484.37,1264.78 443.63,1267.31 " fill="none" id="looser-to-finished" style="stroke:#A80036;stroke-width:1.0;"/><polygon fill="#A80036" points="438.34,1267.61,447.5535,1271.09,443.3319,1267.3248,447.0971,1263.1031,438.34,1267.61" style="stroke:#A80036;stroke-width:1.0;"/><text fill="#000000" font-family="sans-serif" font-size="13" lengthAdjust="spacing" textLength="175" x="613.11" y="1210.4951">System shows loser message</text><!--MD5=[62f5431c62ca06a9e4048299cbf52b51]
link last to *end--><path d="M153.84,998.24 C159.25,1074.17 175.77,1305.94 180.08,1366.43 " fill="none" id="last-to-*end" style="stroke:#A80036;stroke-width:1.0;"/><polygon fill="#A80036" points="180.45,1371.74,183.7967,1362.4772,180.0927,1366.7528,175.8172,1363.0488,180.45,1371.74" style="stroke:#A80036;stroke-width:1.0;"/><text fill="#000000" font-family="sans-serif" font-size="13" lengthAdjust="spacing" textLength="219" x="170.11" y="1210.4951">System allows to Move a combination</text><!--MD5=[f20ab7065c26ebabf49f7b8c32a28769]
link finished to *end--><path d="M387.84,1282.09 C338.84,1305.54 232.4,1356.46 194.69,1374.5 " fill="none" id="finished-to-*end" style="stroke:#A80036;stroke-width:1.0;"/><polygon fill="#A80036" points="190.04,1376.73,199.8851,1376.4587,194.5514,1374.5742,196.4359,1369.2405,190.04,1376.73" style="stroke:#A80036;stroke-width:1.0;"/><text fill="#000000" font-family="sans-serif" font-size="13" lengthAdjust="spacing" textLength="221" x="298.11" y="1338.4951">System allows to resume a new game</text><!--MD5=[a4f8127edb0fecdb0ce36ef2be62aa09]
@startuml Move_usecase
state IN_GAME
state requested as " "
state allowed as " "
state error as " "
state ShowBoard as "Show board"
state winner as " "
state looser as " "
state finished as " "
state last as " "
state is_correct <<choice>>
state is_finished <<choice>>
state is_winner <<choice>>

[*] - -> IN_GAME
IN_GAME - -> requested: Player requests Move a combination
requested - -> allowed: System requests a Moved combination
allowed - -> is_correct: Player introduces a Moved combination
is_correct - -> ShowBoard
is_correct - -> error: [incorrect Moved combination]
note on link 
  MovedCombination.colors.length != 4
  MovedCombination.colors at least one repeated
  MovedCombination.colors at least one != Color.values
end note
error - -> last: System shows error
ShowBoard - -> is_finished
is_finished - -> is_winner: [finished]
note on link
  winner || loser
end note
is_winner - -> winner: [winner]
note on link
  result.blacks = 4
end note
is_winner - -> looser: [loser]
note on link
  result.blacks < 4 && attempts = 10
end note
is_finished - -> last
winner - -> finished: System shows winner message
looser - -> finished: System shows loser message
last - -> [*]: System allows to Move a combination
finished - -> [*]: System allows to resume a new game
@enduml

PlantUML version 1.2021.7(Sun May 23 14:40:07 CEST 2021)
(GPL source distribution)
Java Runtime: Java(TM) SE Runtime Environment
JVM: Java HotSpot(TM) Client VM
Default Encoding: Cp1252
Language: es
Country: ES
--></g></svg>