<?xml version="1.0" encoding="UTF-8" standalone="no"?><svg xmlns="http://www.w3.org/2000/svg" xmlns:xlink="http://www.w3.org/1999/xlink" contentScriptType="application/ecmascript" contentStyleType="text/css" height="585px" preserveAspectRatio="none" style="width:2891px;height:585px;" version="1.1" viewBox="0 0 2891 585" width="2891px" zoomAndPan="magnify"><defs><filter height="300%" id="f6l1hbako41rl" width="300%" x="-1" y="-1"><feGaussianBlur result="blurOut" stdDeviation="2.0"/><feColorMatrix in="blurOut" result="blurOut2" type="matrix" values="0 0 0 0 0 0 0 0 0 0 0 0 0 0 0 0 0 0 .4 0"/><feOffset dx="4.0" dy="4.0" in="blurOut2" result="blurOut3"/><feBlend in="SourceGraphic" in2="blurOut3" mode="normal"/></filter></defs><g><!--MD5=[e2a75efa8a0f57c2afae8bf75386f79c]
cluster views--><polygon fill="#FFFFFF" filter="url(#f6l1hbako41rl)" points="16,6,63,6,70,29.6094,929,29.6094,929,578,16,578,16,6" style="stroke:#000000;stroke-width:1.5;"/><line style="stroke:#000000;stroke-width:1.5;" x1="16" x2="70" y1="29.6094" y2="29.6094"/><text fill="#000000" font-family="sans-serif" font-size="14" font-weight="bold" lengthAdjust="spacing" textLength="41" x="20" y="22.5332">views</text><!--MD5=[f4e70ef68289585296b9045165e58692]
cluster controllers--><polygon fill="#FFFFFF" filter="url(#f6l1hbako41rl)" points="969,122,1052,122,1059,145.6094,2253,145.6094,2253,470,969,470,969,122" style="stroke:#000000;stroke-width:1.5;"/><line style="stroke:#000000;stroke-width:1.5;" x1="969" x2="1059" y1="145.6094" y2="145.6094"/><text fill="#000000" font-family="sans-serif" font-size="14" font-weight="bold" lengthAdjust="spacing" textLength="77" x="973" y="138.5332">controllers</text><!--MD5=[a60570e4b426f702ccbb0d459e3b9417]
cluster models--><polygon fill="#FFFFFF" filter="url(#f6l1hbako41rl)" points="2293,238,2350,238,2357,261.6094,2610,261.6094,2610,578,2293,578,2293,238" style="stroke:#000000;stroke-width:1.5;"/><line style="stroke:#000000;stroke-width:1.5;" x1="2293" x2="2357" y1="261.6094" y2="261.6094"/><text fill="#000000" font-family="sans-serif" font-size="14" font-weight="bold" lengthAdjust="spacing" textLength="51" x="2297" y="254.5332">models</text><!--MD5=[67cd15ce44b6dd54f77054b62c31bf42]
cluster types--><polygon fill="#FFFFFF" filter="url(#f6l1hbako41rl)" points="2650,354,2694,354,2701,377.6094,2874,377.6094,2874,470,2650,470,2650,354" style="stroke:#000000;stroke-width:1.5;"/><line style="stroke:#000000;stroke-width:1.5;" x1="2650" x2="2701" y1="377.6094" y2="377.6094"/><text fill="#000000" font-family="sans-serif" font-size="14" font-weight="bold" lengthAdjust="spacing" textLength="38" x="2654" y="370.5332">types</text><!--MD5=[af194e474b2c37e443a340884399de77]
class PlayerView--><rect codeLine="2" fill="#FEFECE" filter="url(#f6l1hbako41rl)" height="48" id="PlayerView" style="stroke:#A80036;stroke-width:1.5;" width="92" x="680" y="50"/><ellipse cx="695" cy="66" fill="#ADD1B2" rx="11" ry="11" style="stroke:#A80036;stroke-width:1.0;"/><path d="M697.7656,61.875 Q697.9219,61.6563 698.1094,61.5469 Q698.2969,61.4375 698.5156,61.4375 Q698.8906,61.4375 699.125,61.6953 Q699.3594,61.9531 699.3594,62.5625 L699.3594,64.0156 Q699.3594,64.625 699.125,64.8906 Q698.8906,65.1563 698.5156,65.1563 Q698.1719,65.1563 697.9688,64.9531 Q697.7656,64.7656 697.6563,64.25 Q697.6094,63.8906 697.4219,63.7031 Q697.0938,63.3281 696.4844,63.1094 Q695.875,62.8906 695.25,62.8906 Q694.4844,62.8906 693.8516,63.2188 Q693.2188,63.5469 692.7266,64.2969 Q692.2344,65.0469 692.2344,66.0781 L692.2344,67.1719 Q692.2344,68.4063 693.125,69.2266 Q694.0156,70.0469 695.6094,70.0469 Q696.5469,70.0469 697.2031,69.7969 Q697.5938,69.6406 698.0156,69.2031 Q698.2813,68.9375 698.4297,68.8594 Q698.5781,68.7813 698.7813,68.7813 Q699.1094,68.7813 699.3672,69.0391 Q699.625,69.2969 699.625,69.6406 Q699.625,69.9844 699.2813,70.3906 Q698.7813,70.9688 697.9844,71.2969 Q696.9063,71.75 695.6094,71.75 Q694.0938,71.75 692.8906,71.125 Q691.9063,70.625 691.2188,69.5547 Q690.5313,68.4844 690.5313,67.2031 L690.5313,66.0469 Q690.5313,64.7188 691.1484,63.5703 Q691.7656,62.4219 692.8594,61.8047 Q693.9531,61.1875 695.1875,61.1875 Q695.9219,61.1875 696.5703,61.3516 Q697.2188,61.5156 697.7656,61.875 Z " fill="#000000"/><text fill="#000000" font-family="sans-serif" font-size="12" lengthAdjust="spacing" textLength="60" x="709" y="70.9102">PlayerView</text><line style="stroke:#A80036;stroke-width:1.5;" x1="681" x2="771" y1="82" y2="82"/><line style="stroke:#A80036;stroke-width:1.5;" x1="681" x2="771" y1="90" y2="90"/><!--MD5=[443c52daef265809fdf31be84fc8ae4a]
class StartView--><rect codeLine="3" fill="#FEFECE" filter="url(#f6l1hbako41rl)" height="48" id="StartView" style="stroke:#A80036;stroke-width:1.5;" width="83" x="641.5" y="166"/><ellipse cx="656.5" cy="182" fill="#ADD1B2" rx="11" ry="11" style="stroke:#A80036;stroke-width:1.0;"/><path d="M659.2656,177.875 Q659.4219,177.6563 659.6094,177.5469 Q659.7969,177.4375 660.0156,177.4375 Q660.3906,177.4375 660.625,177.6953 Q660.8594,177.9531 660.8594,178.5625 L660.8594,180.0156 Q660.8594,180.625 660.625,180.8906 Q660.3906,181.1563 660.0156,181.1563 Q659.6719,181.1563 659.4688,180.9531 Q659.2656,180.7656 659.1563,180.25 Q659.1094,179.8906 658.9219,179.7031 Q658.5938,179.3281 657.9844,179.1094 Q657.375,178.8906 656.75,178.8906 Q655.9844,178.8906 655.3516,179.2188 Q654.7188,179.5469 654.2266,180.2969 Q653.7344,181.0469 653.7344,182.0781 L653.7344,183.1719 Q653.7344,184.4063 654.625,185.2266 Q655.5156,186.0469 657.1094,186.0469 Q658.0469,186.0469 658.7031,185.7969 Q659.0938,185.6406 659.5156,185.2031 Q659.7813,184.9375 659.9297,184.8594 Q660.0781,184.7813 660.2813,184.7813 Q660.6094,184.7813 660.8672,185.0391 Q661.125,185.2969 661.125,185.6406 Q661.125,185.9844 660.7813,186.3906 Q660.2813,186.9688 659.4844,187.2969 Q658.4063,187.75 657.1094,187.75 Q655.5938,187.75 654.3906,187.125 Q653.4063,186.625 652.7188,185.5547 Q652.0313,184.4844 652.0313,183.2031 L652.0313,182.0469 Q652.0313,180.7188 652.6484,179.5703 Q653.2656,178.4219 654.3594,177.8047 Q655.4531,177.1875 656.6875,177.1875 Q657.4219,177.1875 658.0703,177.3516 Q658.7188,177.5156 659.2656,177.875 Z " fill="#000000"/><text fill="#000000" font-family="sans-serif" font-size="12" lengthAdjust="spacing" textLength="51" x="670.5" y="186.9102">StartView</text><line style="stroke:#A80036;stroke-width:1.5;" x1="642.5" x2="723.5" y1="198" y2="198"/><line style="stroke:#A80036;stroke-width:1.5;" x1="642.5" x2="723.5" y1="206" y2="206"/><!--MD5=[af548d7eeba3607a103157b84173e841]
class ProposeView--><rect codeLine="4" fill="#FEFECE" filter="url(#f6l1hbako41rl)" height="48" id="ProposeView" style="stroke:#A80036;stroke-width:1.5;" width="105" x="307.5" y="166"/><ellipse cx="322.5" cy="182" fill="#ADD1B2" rx="11" ry="11" style="stroke:#A80036;stroke-width:1.0;"/><path d="M325.2656,177.875 Q325.4219,177.6563 325.6094,177.5469 Q325.7969,177.4375 326.0156,177.4375 Q326.3906,177.4375 326.625,177.6953 Q326.8594,177.9531 326.8594,178.5625 L326.8594,180.0156 Q326.8594,180.625 326.625,180.8906 Q326.3906,181.1563 326.0156,181.1563 Q325.6719,181.1563 325.4688,180.9531 Q325.2656,180.7656 325.1563,180.25 Q325.1094,179.8906 324.9219,179.7031 Q324.5938,179.3281 323.9844,179.1094 Q323.375,178.8906 322.75,178.8906 Q321.9844,178.8906 321.3516,179.2188 Q320.7188,179.5469 320.2266,180.2969 Q319.7344,181.0469 319.7344,182.0781 L319.7344,183.1719 Q319.7344,184.4063 320.625,185.2266 Q321.5156,186.0469 323.1094,186.0469 Q324.0469,186.0469 324.7031,185.7969 Q325.0938,185.6406 325.5156,185.2031 Q325.7813,184.9375 325.9297,184.8594 Q326.0781,184.7813 326.2813,184.7813 Q326.6094,184.7813 326.8672,185.0391 Q327.125,185.2969 327.125,185.6406 Q327.125,185.9844 326.7813,186.3906 Q326.2813,186.9688 325.4844,187.2969 Q324.4063,187.75 323.1094,187.75 Q321.5938,187.75 320.3906,187.125 Q319.4063,186.625 318.7188,185.5547 Q318.0313,184.4844 318.0313,183.2031 L318.0313,182.0469 Q318.0313,180.7188 318.6484,179.5703 Q319.2656,178.4219 320.3594,177.8047 Q321.4531,177.1875 322.6875,177.1875 Q323.4219,177.1875 324.0703,177.3516 Q324.7188,177.5156 325.2656,177.875 Z " fill="#000000"/><text fill="#000000" font-family="sans-serif" font-size="12" lengthAdjust="spacing" textLength="73" x="336.5" y="186.9102">ProposeView</text><line style="stroke:#A80036;stroke-width:1.5;" x1="308.5" x2="411.5" y1="198" y2="198"/><line style="stroke:#A80036;stroke-width:1.5;" x1="308.5" x2="411.5" y1="206" y2="206"/><!--MD5=[19088a99a8c1f36e582d33ac2f8fc6dd]
class ResumeView--><rect codeLine="5" fill="#FEFECE" filter="url(#f6l1hbako41rl)" height="48" id="ResumeView" style="stroke:#A80036;stroke-width:1.5;" width="106" x="754" y="282"/><ellipse cx="769" cy="298" fill="#ADD1B2" rx="11" ry="11" style="stroke:#A80036;stroke-width:1.0;"/><path d="M771.7656,293.875 Q771.9219,293.6563 772.1094,293.5469 Q772.2969,293.4375 772.5156,293.4375 Q772.8906,293.4375 773.125,293.6953 Q773.3594,293.9531 773.3594,294.5625 L773.3594,296.0156 Q773.3594,296.625 773.125,296.8906 Q772.8906,297.1563 772.5156,297.1563 Q772.1719,297.1563 771.9688,296.9531 Q771.7656,296.7656 771.6563,296.25 Q771.6094,295.8906 771.4219,295.7031 Q771.0938,295.3281 770.4844,295.1094 Q769.875,294.8906 769.25,294.8906 Q768.4844,294.8906 767.8516,295.2188 Q767.2188,295.5469 766.7266,296.2969 Q766.2344,297.0469 766.2344,298.0781 L766.2344,299.1719 Q766.2344,300.4063 767.125,301.2266 Q768.0156,302.0469 769.6094,302.0469 Q770.5469,302.0469 771.2031,301.7969 Q771.5938,301.6406 772.0156,301.2031 Q772.2813,300.9375 772.4297,300.8594 Q772.5781,300.7813 772.7813,300.7813 Q773.1094,300.7813 773.3672,301.0391 Q773.625,301.2969 773.625,301.6406 Q773.625,301.9844 773.2813,302.3906 Q772.7813,302.9688 771.9844,303.2969 Q770.9063,303.75 769.6094,303.75 Q768.0938,303.75 766.8906,303.125 Q765.9063,302.625 765.2188,301.5547 Q764.5313,300.4844 764.5313,299.2031 L764.5313,298.0469 Q764.5313,296.7188 765.1484,295.5703 Q765.7656,294.4219 766.8594,293.8047 Q767.9531,293.1875 769.1875,293.1875 Q769.9219,293.1875 770.5703,293.3516 Q771.2188,293.5156 771.7656,293.875 Z " fill="#000000"/><text fill="#000000" font-family="sans-serif" font-size="12" lengthAdjust="spacing" textLength="74" x="783" y="302.9102">ResumeView</text><line style="stroke:#A80036;stroke-width:1.5;" x1="755" x2="859" y1="314" y2="314"/><line style="stroke:#A80036;stroke-width:1.5;" x1="755" x2="859" y1="322" y2="322"/><!--MD5=[9b237e88d697a058bd530d6510c96c00]
class BoardView--><rect codeLine="6" fill="#FEFECE" filter="url(#f6l1hbako41rl)" height="48" id="BoardView" style="stroke:#A80036;stroke-width:1.5;" width="91" x="376.5" y="282"/><ellipse cx="391.5" cy="298" fill="#ADD1B2" rx="11" ry="11" style="stroke:#A80036;stroke-width:1.0;"/><path d="M394.2656,293.875 Q394.4219,293.6563 394.6094,293.5469 Q394.7969,293.4375 395.0156,293.4375 Q395.3906,293.4375 395.625,293.6953 Q395.8594,293.9531 395.8594,294.5625 L395.8594,296.0156 Q395.8594,296.625 395.625,296.8906 Q395.3906,297.1563 395.0156,297.1563 Q394.6719,297.1563 394.4688,296.9531 Q394.2656,296.7656 394.1563,296.25 Q394.1094,295.8906 393.9219,295.7031 Q393.5938,295.3281 392.9844,295.1094 Q392.375,294.8906 391.75,294.8906 Q390.9844,294.8906 390.3516,295.2188 Q389.7188,295.5469 389.2266,296.2969 Q388.7344,297.0469 388.7344,298.0781 L388.7344,299.1719 Q388.7344,300.4063 389.625,301.2266 Q390.5156,302.0469 392.1094,302.0469 Q393.0469,302.0469 393.7031,301.7969 Q394.0938,301.6406 394.5156,301.2031 Q394.7813,300.9375 394.9297,300.8594 Q395.0781,300.7813 395.2813,300.7813 Q395.6094,300.7813 395.8672,301.0391 Q396.125,301.2969 396.125,301.6406 Q396.125,301.9844 395.7813,302.3906 Q395.2813,302.9688 394.4844,303.2969 Q393.4063,303.75 392.1094,303.75 Q390.5938,303.75 389.3906,303.125 Q388.4063,302.625 387.7188,301.5547 Q387.0313,300.4844 387.0313,299.2031 L387.0313,298.0469 Q387.0313,296.7188 387.6484,295.5703 Q388.2656,294.4219 389.3594,293.8047 Q390.4531,293.1875 391.6875,293.1875 Q392.4219,293.1875 393.0703,293.3516 Q393.7188,293.5156 394.2656,293.875 Z " fill="#000000"/><text fill="#000000" font-family="sans-serif" font-size="12" lengthAdjust="spacing" textLength="59" x="405.5" y="302.9102">BoardView</text><line style="stroke:#A80036;stroke-width:1.5;" x1="377.5" x2="466.5" y1="314" y2="314"/><line style="stroke:#A80036;stroke-width:1.5;" x1="377.5" x2="466.5" y1="322" y2="322"/><!--MD5=[0523615cfa2fa70c8ab764401f29a299]
class ProposedCombinationView--><rect codeLine="7" fill="#FEFECE" filter="url(#f6l1hbako41rl)" height="48" id="ProposedCombinationView" style="stroke:#A80036;stroke-width:1.5;" width="183" x="40.5" y="398"/><ellipse cx="55.5" cy="414" fill="#ADD1B2" rx="11" ry="11" style="stroke:#A80036;stroke-width:1.0;"/><path d="M58.2656,409.875 Q58.4219,409.6563 58.6094,409.5469 Q58.7969,409.4375 59.0156,409.4375 Q59.3906,409.4375 59.625,409.6953 Q59.8594,409.9531 59.8594,410.5625 L59.8594,412.0156 Q59.8594,412.625 59.625,412.8906 Q59.3906,413.1563 59.0156,413.1563 Q58.6719,413.1563 58.4688,412.9531 Q58.2656,412.7656 58.1563,412.25 Q58.1094,411.8906 57.9219,411.7031 Q57.5938,411.3281 56.9844,411.1094 Q56.375,410.8906 55.75,410.8906 Q54.9844,410.8906 54.3516,411.2188 Q53.7188,411.5469 53.2266,412.2969 Q52.7344,413.0469 52.7344,414.0781 L52.7344,415.1719 Q52.7344,416.4063 53.625,417.2266 Q54.5156,418.0469 56.1094,418.0469 Q57.0469,418.0469 57.7031,417.7969 Q58.0938,417.6406 58.5156,417.2031 Q58.7813,416.9375 58.9297,416.8594 Q59.0781,416.7813 59.2813,416.7813 Q59.6094,416.7813 59.8672,417.0391 Q60.125,417.2969 60.125,417.6406 Q60.125,417.9844 59.7813,418.3906 Q59.2813,418.9688 58.4844,419.2969 Q57.4063,419.75 56.1094,419.75 Q54.5938,419.75 53.3906,419.125 Q52.4063,418.625 51.7188,417.5547 Q51.0313,416.4844 51.0313,415.2031 L51.0313,414.0469 Q51.0313,412.7188 51.6484,411.5703 Q52.2656,410.4219 53.3594,409.8047 Q54.4531,409.1875 55.6875,409.1875 Q56.4219,409.1875 57.0703,409.3516 Q57.7188,409.5156 58.2656,409.875 Z " fill="#000000"/><text fill="#000000" font-family="sans-serif" font-size="12" lengthAdjust="spacing" textLength="151" x="69.5" y="418.9102">ProposedCombinationView</text><line style="stroke:#A80036;stroke-width:1.5;" x1="41.5" x2="222.5" y1="430" y2="430"/><line style="stroke:#A80036;stroke-width:1.5;" x1="41.5" x2="222.5" y1="438" y2="438"/><!--MD5=[94936c1138d9bd95716606726ba703b1]
class SecretCombinationView--><rect codeLine="8" fill="#FEFECE" filter="url(#f6l1hbako41rl)" height="48" id="SecretCombinationView" style="stroke:#A80036;stroke-width:1.5;" width="164" x="499" y="398"/><ellipse cx="514" cy="414" fill="#ADD1B2" rx="11" ry="11" style="stroke:#A80036;stroke-width:1.0;"/><path d="M516.7656,409.875 Q516.9219,409.6563 517.1094,409.5469 Q517.2969,409.4375 517.5156,409.4375 Q517.8906,409.4375 518.125,409.6953 Q518.3594,409.9531 518.3594,410.5625 L518.3594,412.0156 Q518.3594,412.625 518.125,412.8906 Q517.8906,413.1563 517.5156,413.1563 Q517.1719,413.1563 516.9688,412.9531 Q516.7656,412.7656 516.6563,412.25 Q516.6094,411.8906 516.4219,411.7031 Q516.0938,411.3281 515.4844,411.1094 Q514.875,410.8906 514.25,410.8906 Q513.4844,410.8906 512.8516,411.2188 Q512.2188,411.5469 511.7266,412.2969 Q511.2344,413.0469 511.2344,414.0781 L511.2344,415.1719 Q511.2344,416.4063 512.125,417.2266 Q513.0156,418.0469 514.6094,418.0469 Q515.5469,418.0469 516.2031,417.7969 Q516.5938,417.6406 517.0156,417.2031 Q517.2813,416.9375 517.4297,416.8594 Q517.5781,416.7813 517.7813,416.7813 Q518.1094,416.7813 518.3672,417.0391 Q518.625,417.2969 518.625,417.6406 Q518.625,417.9844 518.2813,418.3906 Q517.7813,418.9688 516.9844,419.2969 Q515.9063,419.75 514.6094,419.75 Q513.0938,419.75 511.8906,419.125 Q510.9063,418.625 510.2188,417.5547 Q509.5313,416.4844 509.5313,415.2031 L509.5313,414.0469 Q509.5313,412.7188 510.1484,411.5703 Q510.7656,410.4219 511.8594,409.8047 Q512.9531,409.1875 514.1875,409.1875 Q514.9219,409.1875 515.5703,409.3516 Q516.2188,409.5156 516.7656,409.875 Z " fill="#000000"/><text fill="#000000" font-family="sans-serif" font-size="12" lengthAdjust="spacing" textLength="132" x="528" y="418.9102">SecretCombinationView</text><line style="stroke:#A80036;stroke-width:1.5;" x1="500" x2="662" y1="430" y2="430"/><line style="stroke:#A80036;stroke-width:1.5;" x1="500" x2="662" y1="438" y2="438"/><!--MD5=[a40873b740e53ca026148d30ccb3c321]
class ResultView--><rect codeLine="9" fill="#FEFECE" filter="url(#f6l1hbako41rl)" height="48" id="ResultView" style="stroke:#A80036;stroke-width:1.5;" width="94" x="333" y="398"/><ellipse cx="348" cy="414" fill="#ADD1B2" rx="11" ry="11" style="stroke:#A80036;stroke-width:1.0;"/><path d="M350.7656,409.875 Q350.9219,409.6563 351.1094,409.5469 Q351.2969,409.4375 351.5156,409.4375 Q351.8906,409.4375 352.125,409.6953 Q352.3594,409.9531 352.3594,410.5625 L352.3594,412.0156 Q352.3594,412.625 352.125,412.8906 Q351.8906,413.1563 351.5156,413.1563 Q351.1719,413.1563 350.9688,412.9531 Q350.7656,412.7656 350.6563,412.25 Q350.6094,411.8906 350.4219,411.7031 Q350.0938,411.3281 349.4844,411.1094 Q348.875,410.8906 348.25,410.8906 Q347.4844,410.8906 346.8516,411.2188 Q346.2188,411.5469 345.7266,412.2969 Q345.2344,413.0469 345.2344,414.0781 L345.2344,415.1719 Q345.2344,416.4063 346.125,417.2266 Q347.0156,418.0469 348.6094,418.0469 Q349.5469,418.0469 350.2031,417.7969 Q350.5938,417.6406 351.0156,417.2031 Q351.2813,416.9375 351.4297,416.8594 Q351.5781,416.7813 351.7813,416.7813 Q352.1094,416.7813 352.3672,417.0391 Q352.625,417.2969 352.625,417.6406 Q352.625,417.9844 352.2813,418.3906 Q351.7813,418.9688 350.9844,419.2969 Q349.9063,419.75 348.6094,419.75 Q347.0938,419.75 345.8906,419.125 Q344.9063,418.625 344.2188,417.5547 Q343.5313,416.4844 343.5313,415.2031 L343.5313,414.0469 Q343.5313,412.7188 344.1484,411.5703 Q344.7656,410.4219 345.8594,409.8047 Q346.9531,409.1875 348.1875,409.1875 Q348.9219,409.1875 349.5703,409.3516 Q350.2188,409.5156 350.7656,409.875 Z " fill="#000000"/><text fill="#000000" font-family="sans-serif" font-size="12" lengthAdjust="spacing" textLength="62" x="362" y="418.9102">ResultView</text><line style="stroke:#A80036;stroke-width:1.5;" x1="334" x2="426" y1="430" y2="430"/><line style="stroke:#A80036;stroke-width:1.5;" x1="334" x2="426" y1="438" y2="438"/><!--MD5=[5c0d2bf114541dffca76af5edd55a1b5]
class ColorView--><rect codeLine="10" fill="#FEFECE" filter="url(#f6l1hbako41rl)" height="48" id="ColorView" style="stroke:#A80036;stroke-width:1.5;" width="88" x="186" y="506"/><ellipse cx="201" cy="522" fill="#ADD1B2" rx="11" ry="11" style="stroke:#A80036;stroke-width:1.0;"/><path d="M203.7656,517.875 Q203.9219,517.6563 204.1094,517.5469 Q204.2969,517.4375 204.5156,517.4375 Q204.8906,517.4375 205.125,517.6953 Q205.3594,517.9531 205.3594,518.5625 L205.3594,520.0156 Q205.3594,520.625 205.125,520.8906 Q204.8906,521.1563 204.5156,521.1563 Q204.1719,521.1563 203.9688,520.9531 Q203.7656,520.7656 203.6563,520.25 Q203.6094,519.8906 203.4219,519.7031 Q203.0938,519.3281 202.4844,519.1094 Q201.875,518.8906 201.25,518.8906 Q200.4844,518.8906 199.8516,519.2188 Q199.2188,519.5469 198.7266,520.2969 Q198.2344,521.0469 198.2344,522.0781 L198.2344,523.1719 Q198.2344,524.4063 199.125,525.2266 Q200.0156,526.0469 201.6094,526.0469 Q202.5469,526.0469 203.2031,525.7969 Q203.5938,525.6406 204.0156,525.2031 Q204.2813,524.9375 204.4297,524.8594 Q204.5781,524.7813 204.7813,524.7813 Q205.1094,524.7813 205.3672,525.0391 Q205.625,525.2969 205.625,525.6406 Q205.625,525.9844 205.2813,526.3906 Q204.7813,526.9688 203.9844,527.2969 Q202.9063,527.75 201.6094,527.75 Q200.0938,527.75 198.8906,527.125 Q197.9063,526.625 197.2188,525.5547 Q196.5313,524.4844 196.5313,523.2031 L196.5313,522.0469 Q196.5313,520.7188 197.1484,519.5703 Q197.7656,518.4219 198.8594,517.8047 Q199.9531,517.1875 201.1875,517.1875 Q201.9219,517.1875 202.5703,517.3516 Q203.2188,517.5156 203.7656,517.875 Z " fill="#000000"/><text fill="#000000" font-family="sans-serif" font-size="12" lengthAdjust="spacing" textLength="56" x="215" y="526.9102">ColorView</text><line style="stroke:#A80036;stroke-width:1.5;" x1="187" x2="273" y1="538" y2="538"/><line style="stroke:#A80036;stroke-width:1.5;" x1="187" x2="273" y1="546" y2="546"/><!--MD5=[bea5b0d46523efab5ea1c1d339f396f0]
class Message--><rect codeLine="11" fill="#FEFECE" filter="url(#f6l1hbako41rl)" height="48" id="Message" style="stroke:#A80036;stroke-width:1.5;" width="83" x="421.5" y="506"/><ellipse cx="436.5" cy="522" fill="#EB937F" rx="11" ry="11" style="stroke:#A80036;stroke-width:1.0;"/><path d="M435.3594,522.7969 L435.3594,525.2969 L439.6875,525.2969 L439.6875,524.375 Q439.6875,523.7656 439.9297,523.5 Q440.1719,523.2344 440.5469,523.2344 Q440.9219,523.2344 441.1563,523.5 Q441.3906,523.7656 441.3906,524.375 L441.3906,527 L433.3906,527 Q432.7656,527 432.5078,526.7656 Q432.25,526.5313 432.25,526.1406 Q432.25,525.7656 432.5156,525.5313 Q432.7813,525.2969 433.3906,525.2969 L433.6563,525.2969 L433.6563,518.6406 L433.3906,518.6406 Q432.7656,518.6406 432.5078,518.4063 Q432.25,518.1719 432.25,517.7813 Q432.25,517.4063 432.5078,517.1719 Q432.7656,516.9375 433.3906,516.9375 L441.0156,516.9375 L441.0156,519.5313 Q441.0156,520.1406 440.7891,520.3984 Q440.5625,520.6563 440.1719,520.6563 Q439.7969,520.6563 439.5625,520.3984 Q439.3281,520.1406 439.3281,519.5313 L439.3281,518.6406 L435.3594,518.6406 L435.3594,521.0938 L436.8438,521.0938 Q436.8438,520.4375 436.9688,520.25 Q437.2344,519.8438 437.7031,519.8438 Q438.0781,519.8438 438.3125,520.1016 Q438.5469,520.3594 438.5469,520.9688 L438.5469,522.9375 Q438.5469,523.4844 438.4219,523.6719 Q438.1563,524.0625 437.7031,524.0625 Q437.2344,524.0625 436.9688,523.6563 Q436.8438,523.4688 436.8438,522.7969 L435.3594,522.7969 Z " fill="#000000"/><text fill="#000000" font-family="sans-serif" font-size="12" lengthAdjust="spacing" textLength="51" x="450.5" y="526.9102">Message</text><line style="stroke:#A80036;stroke-width:1.5;" x1="422.5" x2="503.5" y1="538" y2="538"/><line style="stroke:#A80036;stroke-width:1.5;" x1="422.5" x2="503.5" y1="546" y2="546"/><!--MD5=[86cec68673cafdfc1c204348d5b2cca6]
class ErrorView--><rect codeLine="12" fill="#FEFECE" filter="url(#f6l1hbako41rl)" height="48" id="ErrorView" style="stroke:#A80036;stroke-width:1.5;" width="85" x="65.5" y="506"/><ellipse cx="80.5" cy="522" fill="#ADD1B2" rx="11" ry="11" style="stroke:#A80036;stroke-width:1.0;"/><path d="M83.2656,517.875 Q83.4219,517.6563 83.6094,517.5469 Q83.7969,517.4375 84.0156,517.4375 Q84.3906,517.4375 84.625,517.6953 Q84.8594,517.9531 84.8594,518.5625 L84.8594,520.0156 Q84.8594,520.625 84.625,520.8906 Q84.3906,521.1563 84.0156,521.1563 Q83.6719,521.1563 83.4688,520.9531 Q83.2656,520.7656 83.1563,520.25 Q83.1094,519.8906 82.9219,519.7031 Q82.5938,519.3281 81.9844,519.1094 Q81.375,518.8906 80.75,518.8906 Q79.9844,518.8906 79.3516,519.2188 Q78.7188,519.5469 78.2266,520.2969 Q77.7344,521.0469 77.7344,522.0781 L77.7344,523.1719 Q77.7344,524.4063 78.625,525.2266 Q79.5156,526.0469 81.1094,526.0469 Q82.0469,526.0469 82.7031,525.7969 Q83.0938,525.6406 83.5156,525.2031 Q83.7813,524.9375 83.9297,524.8594 Q84.0781,524.7813 84.2813,524.7813 Q84.6094,524.7813 84.8672,525.0391 Q85.125,525.2969 85.125,525.6406 Q85.125,525.9844 84.7813,526.3906 Q84.2813,526.9688 83.4844,527.2969 Q82.4063,527.75 81.1094,527.75 Q79.5938,527.75 78.3906,527.125 Q77.4063,526.625 76.7188,525.5547 Q76.0313,524.4844 76.0313,523.2031 L76.0313,522.0469 Q76.0313,520.7188 76.6484,519.5703 Q77.2656,518.4219 78.3594,517.8047 Q79.4531,517.1875 80.6875,517.1875 Q81.4219,517.1875 82.0703,517.3516 Q82.7188,517.5156 83.2656,517.875 Z " fill="#000000"/><text fill="#000000" font-family="sans-serif" font-size="12" lengthAdjust="spacing" textLength="53" x="94.5" y="526.9102">ErrorView</text><line style="stroke:#A80036;stroke-width:1.5;" x1="66.5" x2="149.5" y1="538" y2="538"/><line style="stroke:#A80036;stroke-width:1.5;" x1="66.5" x2="149.5" y1="546" y2="546"/><!--MD5=[f6bfa8e6ad2e37edcd578b647fafadda]
class MenuView--><rect codeLine="13" fill="#FEFECE" filter="url(#f6l1hbako41rl)" height="48" id="MenuView" style="stroke:#A80036;stroke-width:1.5;" width="88" x="173" y="282"/><ellipse cx="188" cy="298" fill="#ADD1B2" rx="11" ry="11" style="stroke:#A80036;stroke-width:1.0;"/><path d="M190.7656,293.875 Q190.9219,293.6563 191.1094,293.5469 Q191.2969,293.4375 191.5156,293.4375 Q191.8906,293.4375 192.125,293.6953 Q192.3594,293.9531 192.3594,294.5625 L192.3594,296.0156 Q192.3594,296.625 192.125,296.8906 Q191.8906,297.1563 191.5156,297.1563 Q191.1719,297.1563 190.9688,296.9531 Q190.7656,296.7656 190.6563,296.25 Q190.6094,295.8906 190.4219,295.7031 Q190.0938,295.3281 189.4844,295.1094 Q188.875,294.8906 188.25,294.8906 Q187.4844,294.8906 186.8516,295.2188 Q186.2188,295.5469 185.7266,296.2969 Q185.2344,297.0469 185.2344,298.0781 L185.2344,299.1719 Q185.2344,300.4063 186.125,301.2266 Q187.0156,302.0469 188.6094,302.0469 Q189.5469,302.0469 190.2031,301.7969 Q190.5938,301.6406 191.0156,301.2031 Q191.2813,300.9375 191.4297,300.8594 Q191.5781,300.7813 191.7813,300.7813 Q192.1094,300.7813 192.3672,301.0391 Q192.625,301.2969 192.625,301.6406 Q192.625,301.9844 192.2813,302.3906 Q191.7813,302.9688 190.9844,303.2969 Q189.9063,303.75 188.6094,303.75 Q187.0938,303.75 185.8906,303.125 Q184.9063,302.625 184.2188,301.5547 Q183.5313,300.4844 183.5313,299.2031 L183.5313,298.0469 Q183.5313,296.7188 184.1484,295.5703 Q184.7656,294.4219 185.8594,293.8047 Q186.9531,293.1875 188.1875,293.1875 Q188.9219,293.1875 189.5703,293.3516 Q190.2188,293.5156 190.7656,293.875 Z " fill="#000000"/><text fill="#000000" font-family="sans-serif" font-size="12" lengthAdjust="spacing" textLength="56" x="202" y="302.9102">MenuView</text><line style="stroke:#A80036;stroke-width:1.5;" x1="174" x2="260" y1="314" y2="314"/><line style="stroke:#A80036;stroke-width:1.5;" x1="174" x2="260" y1="322" y2="322"/><!--MD5=[3d7aa35fb7ed95ad4af92255c5d10a84]
class SaveView--><rect codeLine="14" fill="#FEFECE" filter="url(#f6l1hbako41rl)" height="48" id="SaveView" style="stroke:#A80036;stroke-width:1.5;" width="85" x="809.5" y="166"/><ellipse cx="824.5" cy="182" fill="#ADD1B2" rx="11" ry="11" style="stroke:#A80036;stroke-width:1.0;"/><path d="M827.2656,177.875 Q827.4219,177.6563 827.6094,177.5469 Q827.7969,177.4375 828.0156,177.4375 Q828.3906,177.4375 828.625,177.6953 Q828.8594,177.9531 828.8594,178.5625 L828.8594,180.0156 Q828.8594,180.625 828.625,180.8906 Q828.3906,181.1563 828.0156,181.1563 Q827.6719,181.1563 827.4688,180.9531 Q827.2656,180.7656 827.1563,180.25 Q827.1094,179.8906 826.9219,179.7031 Q826.5938,179.3281 825.9844,179.1094 Q825.375,178.8906 824.75,178.8906 Q823.9844,178.8906 823.3516,179.2188 Q822.7188,179.5469 822.2266,180.2969 Q821.7344,181.0469 821.7344,182.0781 L821.7344,183.1719 Q821.7344,184.4063 822.625,185.2266 Q823.5156,186.0469 825.1094,186.0469 Q826.0469,186.0469 826.7031,185.7969 Q827.0938,185.6406 827.5156,185.2031 Q827.7813,184.9375 827.9297,184.8594 Q828.0781,184.7813 828.2813,184.7813 Q828.6094,184.7813 828.8672,185.0391 Q829.125,185.2969 829.125,185.6406 Q829.125,185.9844 828.7813,186.3906 Q828.2813,186.9688 827.4844,187.2969 Q826.4063,187.75 825.1094,187.75 Q823.5938,187.75 822.3906,187.125 Q821.4063,186.625 820.7188,185.5547 Q820.0313,184.4844 820.0313,183.2031 L820.0313,182.0469 Q820.0313,180.7188 820.6484,179.5703 Q821.2656,178.4219 822.3594,177.8047 Q823.4531,177.1875 824.6875,177.1875 Q825.4219,177.1875 826.0703,177.3516 Q826.7188,177.5156 827.2656,177.875 Z " fill="#000000"/><text fill="#000000" font-family="sans-serif" font-size="12" lengthAdjust="spacing" textLength="53" x="838.5" y="186.9102">SaveView</text><line style="stroke:#A80036;stroke-width:1.5;" x1="810.5" x2="893.5" y1="198" y2="198"/><line style="stroke:#A80036;stroke-width:1.5;" x1="810.5" x2="893.5" y1="206" y2="206"/><!--MD5=[7b032604b870e7ed66a9503ed2c49241]
class OpenView--><rect codeLine="15" fill="#FEFECE" filter="url(#f6l1hbako41rl)" height="48" id="OpenView" style="stroke:#A80036;stroke-width:1.5;" width="88" x="735" y="398"/><ellipse cx="750" cy="414" fill="#ADD1B2" rx="11" ry="11" style="stroke:#A80036;stroke-width:1.0;"/><path d="M752.7656,409.875 Q752.9219,409.6563 753.1094,409.5469 Q753.2969,409.4375 753.5156,409.4375 Q753.8906,409.4375 754.125,409.6953 Q754.3594,409.9531 754.3594,410.5625 L754.3594,412.0156 Q754.3594,412.625 754.125,412.8906 Q753.8906,413.1563 753.5156,413.1563 Q753.1719,413.1563 752.9688,412.9531 Q752.7656,412.7656 752.6563,412.25 Q752.6094,411.8906 752.4219,411.7031 Q752.0938,411.3281 751.4844,411.1094 Q750.875,410.8906 750.25,410.8906 Q749.4844,410.8906 748.8516,411.2188 Q748.2188,411.5469 747.7266,412.2969 Q747.2344,413.0469 747.2344,414.0781 L747.2344,415.1719 Q747.2344,416.4063 748.125,417.2266 Q749.0156,418.0469 750.6094,418.0469 Q751.5469,418.0469 752.2031,417.7969 Q752.5938,417.6406 753.0156,417.2031 Q753.2813,416.9375 753.4297,416.8594 Q753.5781,416.7813 753.7813,416.7813 Q754.1094,416.7813 754.3672,417.0391 Q754.625,417.2969 754.625,417.6406 Q754.625,417.9844 754.2813,418.3906 Q753.7813,418.9688 752.9844,419.2969 Q751.9063,419.75 750.6094,419.75 Q749.0938,419.75 747.8906,419.125 Q746.9063,418.625 746.2188,417.5547 Q745.5313,416.4844 745.5313,415.2031 L745.5313,414.0469 Q745.5313,412.7188 746.1484,411.5703 Q746.7656,410.4219 747.8594,409.8047 Q748.9531,409.1875 750.1875,409.1875 Q750.9219,409.1875 751.5703,409.3516 Q752.2188,409.5156 752.7656,409.875 Z " fill="#000000"/><text fill="#000000" font-family="sans-serif" font-size="12" lengthAdjust="spacing" textLength="56" x="764" y="418.9102">OpenView</text><line style="stroke:#A80036;stroke-width:1.5;" x1="736" x2="822" y1="430" y2="430"/><line style="stroke:#A80036;stroke-width:1.5;" x1="736" x2="822" y1="438" y2="438"/><!--MD5=[1d7ba1c7002d54515419844fbd155368]
class Controller--><rect codeLine="43" fill="#FEFECE" filter="url(#f6l1hbako41rl)" height="48" id="Controller" style="stroke:#A80036;stroke-width:1.5;" width="86" x="1529" y="166"/><ellipse cx="1544" cy="182" fill="#A9DCDF" rx="11" ry="11" style="stroke:#A80036;stroke-width:1.0;"/><path d="M1546.1875,183.7656 L1542.0469,183.7656 L1541.625,184.7969 L1542.0469,184.7969 Q1542.6563,184.7969 1542.9219,185.0313 Q1543.1875,185.2656 1543.1875,185.6563 Q1543.1875,186.0313 1542.9219,186.2656 Q1542.6563,186.5 1542.0469,186.5 L1539.75,186.5 Q1539.1406,186.5 1538.8828,186.2656 Q1538.625,186.0313 1538.625,185.6406 Q1538.625,185.2656 1538.8984,185.0234 Q1539.1719,184.7813 1539.7969,184.7969 L1542.4688,178.1406 L1541.3594,178.1406 Q1540.75,178.1406 1540.4844,177.9063 Q1540.2188,177.6719 1540.2188,177.2813 Q1540.2188,176.9063 1540.4844,176.6719 Q1540.75,176.4375 1541.3594,176.4375 L1545.0313,176.4375 L1548.4219,184.7969 Q1549.0156,184.7969 1549.2031,184.9375 Q1549.5938,185.2031 1549.5938,185.6563 Q1549.5938,186.0313 1549.3359,186.2656 Q1549.0781,186.5 1548.4688,186.5 L1546.1719,186.5 Q1545.5625,186.5 1545.2969,186.2656 Q1545.0313,186.0313 1545.0313,185.6406 Q1545.0313,185.2656 1545.2969,185.0313 Q1545.5625,184.7969 1546.1719,184.7969 L1546.5938,184.7969 L1546.1875,183.7656 Z M1545.4688,182.0625 L1544.1094,178.6875 L1542.7344,182.0625 L1545.4688,182.0625 Z " fill="#000000"/><text fill="#000000" font-family="sans-serif" font-size="12" font-style="italic" lengthAdjust="spacing" textLength="54" x="1558" y="186.9102">Controller</text><line style="stroke:#A80036;stroke-width:1.5;" x1="1530" x2="1614" y1="198" y2="198"/><line style="stroke:#A80036;stroke-width:1.5;" x1="1530" x2="1614" y1="206" y2="206"/><!--MD5=[47c371471411cfedeee61b1a5bdaee47]
class StartController--><rect codeLine="44" fill="#FEFECE" filter="url(#f6l1hbako41rl)" height="48" id="StartController" style="stroke:#A80036;stroke-width:1.5;" width="111" x="993.5" y="282"/><ellipse cx="1008.5" cy="298" fill="#ADD1B2" rx="11" ry="11" style="stroke:#A80036;stroke-width:1.0;"/><path d="M1011.2656,293.875 Q1011.4219,293.6563 1011.6094,293.5469 Q1011.7969,293.4375 1012.0156,293.4375 Q1012.3906,293.4375 1012.625,293.6953 Q1012.8594,293.9531 1012.8594,294.5625 L1012.8594,296.0156 Q1012.8594,296.625 1012.625,296.8906 Q1012.3906,297.1563 1012.0156,297.1563 Q1011.6719,297.1563 1011.4688,296.9531 Q1011.2656,296.7656 1011.1563,296.25 Q1011.1094,295.8906 1010.9219,295.7031 Q1010.5938,295.3281 1009.9844,295.1094 Q1009.375,294.8906 1008.75,294.8906 Q1007.9844,294.8906 1007.3516,295.2188 Q1006.7188,295.5469 1006.2266,296.2969 Q1005.7344,297.0469 1005.7344,298.0781 L1005.7344,299.1719 Q1005.7344,300.4063 1006.625,301.2266 Q1007.5156,302.0469 1009.1094,302.0469 Q1010.0469,302.0469 1010.7031,301.7969 Q1011.0938,301.6406 1011.5156,301.2031 Q1011.7813,300.9375 1011.9297,300.8594 Q1012.0781,300.7813 1012.2813,300.7813 Q1012.6094,300.7813 1012.8672,301.0391 Q1013.125,301.2969 1013.125,301.6406 Q1013.125,301.9844 1012.7813,302.3906 Q1012.2813,302.9688 1011.4844,303.2969 Q1010.4063,303.75 1009.1094,303.75 Q1007.5938,303.75 1006.3906,303.125 Q1005.4063,302.625 1004.7188,301.5547 Q1004.0313,300.4844 1004.0313,299.2031 L1004.0313,298.0469 Q1004.0313,296.7188 1004.6484,295.5703 Q1005.2656,294.4219 1006.3594,293.8047 Q1007.4531,293.1875 1008.6875,293.1875 Q1009.4219,293.1875 1010.0703,293.3516 Q1010.7188,293.5156 1011.2656,293.875 Z " fill="#000000"/><text fill="#000000" font-family="sans-serif" font-size="12" lengthAdjust="spacing" textLength="79" x="1022.5" y="302.9102">StartController</text><line style="stroke:#A80036;stroke-width:1.5;" x1="994.5" x2="1103.5" y1="314" y2="314"/><line style="stroke:#A80036;stroke-width:1.5;" x1="994.5" x2="1103.5" y1="322" y2="322"/><!--MD5=[0b95e4ee8b160a2b3b0650a9b235c496]
class ProposeController--><rect codeLine="45" fill="#FEFECE" filter="url(#f6l1hbako41rl)" height="48" id="ProposeController" style="stroke:#A80036;stroke-width:1.5;" width="133" x="1139.5" y="282"/><ellipse cx="1154.5" cy="298" fill="#ADD1B2" rx="11" ry="11" style="stroke:#A80036;stroke-width:1.0;"/><path d="M1157.2656,293.875 Q1157.4219,293.6563 1157.6094,293.5469 Q1157.7969,293.4375 1158.0156,293.4375 Q1158.3906,293.4375 1158.625,293.6953 Q1158.8594,293.9531 1158.8594,294.5625 L1158.8594,296.0156 Q1158.8594,296.625 1158.625,296.8906 Q1158.3906,297.1563 1158.0156,297.1563 Q1157.6719,297.1563 1157.4688,296.9531 Q1157.2656,296.7656 1157.1563,296.25 Q1157.1094,295.8906 1156.9219,295.7031 Q1156.5938,295.3281 1155.9844,295.1094 Q1155.375,294.8906 1154.75,294.8906 Q1153.9844,294.8906 1153.3516,295.2188 Q1152.7188,295.5469 1152.2266,296.2969 Q1151.7344,297.0469 1151.7344,298.0781 L1151.7344,299.1719 Q1151.7344,300.4063 1152.625,301.2266 Q1153.5156,302.0469 1155.1094,302.0469 Q1156.0469,302.0469 1156.7031,301.7969 Q1157.0938,301.6406 1157.5156,301.2031 Q1157.7813,300.9375 1157.9297,300.8594 Q1158.0781,300.7813 1158.2813,300.7813 Q1158.6094,300.7813 1158.8672,301.0391 Q1159.125,301.2969 1159.125,301.6406 Q1159.125,301.9844 1158.7813,302.3906 Q1158.2813,302.9688 1157.4844,303.2969 Q1156.4063,303.75 1155.1094,303.75 Q1153.5938,303.75 1152.3906,303.125 Q1151.4063,302.625 1150.7188,301.5547 Q1150.0313,300.4844 1150.0313,299.2031 L1150.0313,298.0469 Q1150.0313,296.7188 1150.6484,295.5703 Q1151.2656,294.4219 1152.3594,293.8047 Q1153.4531,293.1875 1154.6875,293.1875 Q1155.4219,293.1875 1156.0703,293.3516 Q1156.7188,293.5156 1157.2656,293.875 Z " fill="#000000"/><text fill="#000000" font-family="sans-serif" font-size="12" lengthAdjust="spacing" textLength="101" x="1168.5" y="302.9102">ProposeController</text><line style="stroke:#A80036;stroke-width:1.5;" x1="1140.5" x2="1271.5" y1="314" y2="314"/><line style="stroke:#A80036;stroke-width:1.5;" x1="1140.5" x2="1271.5" y1="322" y2="322"/><!--MD5=[1a47bbf44ccee225df9b18c5b6629853]
class ResumeController--><rect codeLine="46" fill="#FEFECE" filter="url(#f6l1hbako41rl)" height="48" id="ResumeController" style="stroke:#A80036;stroke-width:1.5;" width="134" x="1308" y="282"/><ellipse cx="1323" cy="298" fill="#ADD1B2" rx="11" ry="11" style="stroke:#A80036;stroke-width:1.0;"/><path d="M1325.7656,293.875 Q1325.9219,293.6563 1326.1094,293.5469 Q1326.2969,293.4375 1326.5156,293.4375 Q1326.8906,293.4375 1327.125,293.6953 Q1327.3594,293.9531 1327.3594,294.5625 L1327.3594,296.0156 Q1327.3594,296.625 1327.125,296.8906 Q1326.8906,297.1563 1326.5156,297.1563 Q1326.1719,297.1563 1325.9688,296.9531 Q1325.7656,296.7656 1325.6563,296.25 Q1325.6094,295.8906 1325.4219,295.7031 Q1325.0938,295.3281 1324.4844,295.1094 Q1323.875,294.8906 1323.25,294.8906 Q1322.4844,294.8906 1321.8516,295.2188 Q1321.2188,295.5469 1320.7266,296.2969 Q1320.2344,297.0469 1320.2344,298.0781 L1320.2344,299.1719 Q1320.2344,300.4063 1321.125,301.2266 Q1322.0156,302.0469 1323.6094,302.0469 Q1324.5469,302.0469 1325.2031,301.7969 Q1325.5938,301.6406 1326.0156,301.2031 Q1326.2813,300.9375 1326.4297,300.8594 Q1326.5781,300.7813 1326.7813,300.7813 Q1327.1094,300.7813 1327.3672,301.0391 Q1327.625,301.2969 1327.625,301.6406 Q1327.625,301.9844 1327.2813,302.3906 Q1326.7813,302.9688 1325.9844,303.2969 Q1324.9063,303.75 1323.6094,303.75 Q1322.0938,303.75 1320.8906,303.125 Q1319.9063,302.625 1319.2188,301.5547 Q1318.5313,300.4844 1318.5313,299.2031 L1318.5313,298.0469 Q1318.5313,296.7188 1319.1484,295.5703 Q1319.7656,294.4219 1320.8594,293.8047 Q1321.9531,293.1875 1323.1875,293.1875 Q1323.9219,293.1875 1324.5703,293.3516 Q1325.2188,293.5156 1325.7656,293.875 Z " fill="#000000"/><text fill="#000000" font-family="sans-serif" font-size="12" lengthAdjust="spacing" textLength="102" x="1337" y="302.9102">ResumeController</text><line style="stroke:#A80036;stroke-width:1.5;" x1="1309" x2="1441" y1="314" y2="314"/><line style="stroke:#A80036;stroke-width:1.5;" x1="1309" x2="1441" y1="322" y2="322"/><!--MD5=[ad55c02b6d743eec4828d3c9f4ddad4a]
class ShowBoardController--><rect codeLine="47" fill="#FEFECE" filter="url(#f6l1hbako41rl)" height="48" id="ShowBoardController" style="stroke:#A80036;stroke-width:1.5;" width="150" x="1450" y="398"/><ellipse cx="1465" cy="414" fill="#ADD1B2" rx="11" ry="11" style="stroke:#A80036;stroke-width:1.0;"/><path d="M1467.7656,409.875 Q1467.9219,409.6563 1468.1094,409.5469 Q1468.2969,409.4375 1468.5156,409.4375 Q1468.8906,409.4375 1469.125,409.6953 Q1469.3594,409.9531 1469.3594,410.5625 L1469.3594,412.0156 Q1469.3594,412.625 1469.125,412.8906 Q1468.8906,413.1563 1468.5156,413.1563 Q1468.1719,413.1563 1467.9688,412.9531 Q1467.7656,412.7656 1467.6563,412.25 Q1467.6094,411.8906 1467.4219,411.7031 Q1467.0938,411.3281 1466.4844,411.1094 Q1465.875,410.8906 1465.25,410.8906 Q1464.4844,410.8906 1463.8516,411.2188 Q1463.2188,411.5469 1462.7266,412.2969 Q1462.2344,413.0469 1462.2344,414.0781 L1462.2344,415.1719 Q1462.2344,416.4063 1463.125,417.2266 Q1464.0156,418.0469 1465.6094,418.0469 Q1466.5469,418.0469 1467.2031,417.7969 Q1467.5938,417.6406 1468.0156,417.2031 Q1468.2813,416.9375 1468.4297,416.8594 Q1468.5781,416.7813 1468.7813,416.7813 Q1469.1094,416.7813 1469.3672,417.0391 Q1469.625,417.2969 1469.625,417.6406 Q1469.625,417.9844 1469.2813,418.3906 Q1468.7813,418.9688 1467.9844,419.2969 Q1466.9063,419.75 1465.6094,419.75 Q1464.0938,419.75 1462.8906,419.125 Q1461.9063,418.625 1461.2188,417.5547 Q1460.5313,416.4844 1460.5313,415.2031 L1460.5313,414.0469 Q1460.5313,412.7188 1461.1484,411.5703 Q1461.7656,410.4219 1462.8594,409.8047 Q1463.9531,409.1875 1465.1875,409.1875 Q1465.9219,409.1875 1466.5703,409.3516 Q1467.2188,409.5156 1467.7656,409.875 Z " fill="#000000"/><text fill="#000000" font-family="sans-serif" font-size="12" lengthAdjust="spacing" textLength="118" x="1479" y="418.9102">ShowBoardController</text><line style="stroke:#A80036;stroke-width:1.5;" x1="1451" x2="1599" y1="430" y2="430"/><line style="stroke:#A80036;stroke-width:1.5;" x1="1451" x2="1599" y1="438" y2="438"/><!--MD5=[aab9612c5d46aa221e996c7d0ed5d7ab]
class UndoController--><rect codeLine="48" fill="#FEFECE" filter="url(#f6l1hbako41rl)" height="48" id="UndoController" style="stroke:#A80036;stroke-width:1.5;" width="116" x="1514" y="282"/><ellipse cx="1529" cy="298" fill="#ADD1B2" rx="11" ry="11" style="stroke:#A80036;stroke-width:1.0;"/><path d="M1531.7656,293.875 Q1531.9219,293.6563 1532.1094,293.5469 Q1532.2969,293.4375 1532.5156,293.4375 Q1532.8906,293.4375 1533.125,293.6953 Q1533.3594,293.9531 1533.3594,294.5625 L1533.3594,296.0156 Q1533.3594,296.625 1533.125,296.8906 Q1532.8906,297.1563 1532.5156,297.1563 Q1532.1719,297.1563 1531.9688,296.9531 Q1531.7656,296.7656 1531.6563,296.25 Q1531.6094,295.8906 1531.4219,295.7031 Q1531.0938,295.3281 1530.4844,295.1094 Q1529.875,294.8906 1529.25,294.8906 Q1528.4844,294.8906 1527.8516,295.2188 Q1527.2188,295.5469 1526.7266,296.2969 Q1526.2344,297.0469 1526.2344,298.0781 L1526.2344,299.1719 Q1526.2344,300.4063 1527.125,301.2266 Q1528.0156,302.0469 1529.6094,302.0469 Q1530.5469,302.0469 1531.2031,301.7969 Q1531.5938,301.6406 1532.0156,301.2031 Q1532.2813,300.9375 1532.4297,300.8594 Q1532.5781,300.7813 1532.7813,300.7813 Q1533.1094,300.7813 1533.3672,301.0391 Q1533.625,301.2969 1533.625,301.6406 Q1533.625,301.9844 1533.2813,302.3906 Q1532.7813,302.9688 1531.9844,303.2969 Q1530.9063,303.75 1529.6094,303.75 Q1528.0938,303.75 1526.8906,303.125 Q1525.9063,302.625 1525.2188,301.5547 Q1524.5313,300.4844 1524.5313,299.2031 L1524.5313,298.0469 Q1524.5313,296.7188 1525.1484,295.5703 Q1525.7656,294.4219 1526.8594,293.8047 Q1527.9531,293.1875 1529.1875,293.1875 Q1529.9219,293.1875 1530.5703,293.3516 Q1531.2188,293.5156 1531.7656,293.875 Z " fill="#000000"/><text fill="#000000" font-family="sans-serif" font-size="12" lengthAdjust="spacing" textLength="84" x="1543" y="302.9102">UndoController</text><line style="stroke:#A80036;stroke-width:1.5;" x1="1515" x2="1629" y1="314" y2="314"/><line style="stroke:#A80036;stroke-width:1.5;" x1="1515" x2="1629" y1="322" y2="322"/><!--MD5=[09632e2f294dd01282ddf91519a686d7]
class RedoController--><rect codeLine="49" fill="#FEFECE" filter="url(#f6l1hbako41rl)" height="48" id="RedoController" style="stroke:#A80036;stroke-width:1.5;" width="116" x="1665" y="282"/><ellipse cx="1680" cy="298" fill="#ADD1B2" rx="11" ry="11" style="stroke:#A80036;stroke-width:1.0;"/><path d="M1682.7656,293.875 Q1682.9219,293.6563 1683.1094,293.5469 Q1683.2969,293.4375 1683.5156,293.4375 Q1683.8906,293.4375 1684.125,293.6953 Q1684.3594,293.9531 1684.3594,294.5625 L1684.3594,296.0156 Q1684.3594,296.625 1684.125,296.8906 Q1683.8906,297.1563 1683.5156,297.1563 Q1683.1719,297.1563 1682.9688,296.9531 Q1682.7656,296.7656 1682.6563,296.25 Q1682.6094,295.8906 1682.4219,295.7031 Q1682.0938,295.3281 1681.4844,295.1094 Q1680.875,294.8906 1680.25,294.8906 Q1679.4844,294.8906 1678.8516,295.2188 Q1678.2188,295.5469 1677.7266,296.2969 Q1677.2344,297.0469 1677.2344,298.0781 L1677.2344,299.1719 Q1677.2344,300.4063 1678.125,301.2266 Q1679.0156,302.0469 1680.6094,302.0469 Q1681.5469,302.0469 1682.2031,301.7969 Q1682.5938,301.6406 1683.0156,301.2031 Q1683.2813,300.9375 1683.4297,300.8594 Q1683.5781,300.7813 1683.7813,300.7813 Q1684.1094,300.7813 1684.3672,301.0391 Q1684.625,301.2969 1684.625,301.6406 Q1684.625,301.9844 1684.2813,302.3906 Q1683.7813,302.9688 1682.9844,303.2969 Q1681.9063,303.75 1680.6094,303.75 Q1679.0938,303.75 1677.8906,303.125 Q1676.9063,302.625 1676.2188,301.5547 Q1675.5313,300.4844 1675.5313,299.2031 L1675.5313,298.0469 Q1675.5313,296.7188 1676.1484,295.5703 Q1676.7656,294.4219 1677.8594,293.8047 Q1678.9531,293.1875 1680.1875,293.1875 Q1680.9219,293.1875 1681.5703,293.3516 Q1682.2188,293.5156 1682.7656,293.875 Z " fill="#000000"/><text fill="#000000" font-family="sans-serif" font-size="12" lengthAdjust="spacing" textLength="84" x="1694" y="302.9102">RedoController</text><line style="stroke:#A80036;stroke-width:1.5;" x1="1666" x2="1780" y1="314" y2="314"/><line style="stroke:#A80036;stroke-width:1.5;" x1="1666" x2="1780" y1="322" y2="322"/><!--MD5=[20f01773b9667c744e5118bba2278641]
class ExitController--><rect codeLine="50" fill="#FEFECE" filter="url(#f6l1hbako41rl)" height="48" id="ExitController" style="stroke:#A80036;stroke-width:1.5;" width="105" x="1816.5" y="282"/><ellipse cx="1831.5" cy="298" fill="#ADD1B2" rx="11" ry="11" style="stroke:#A80036;stroke-width:1.0;"/><path d="M1834.2656,293.875 Q1834.4219,293.6563 1834.6094,293.5469 Q1834.7969,293.4375 1835.0156,293.4375 Q1835.3906,293.4375 1835.625,293.6953 Q1835.8594,293.9531 1835.8594,294.5625 L1835.8594,296.0156 Q1835.8594,296.625 1835.625,296.8906 Q1835.3906,297.1563 1835.0156,297.1563 Q1834.6719,297.1563 1834.4688,296.9531 Q1834.2656,296.7656 1834.1563,296.25 Q1834.1094,295.8906 1833.9219,295.7031 Q1833.5938,295.3281 1832.9844,295.1094 Q1832.375,294.8906 1831.75,294.8906 Q1830.9844,294.8906 1830.3516,295.2188 Q1829.7188,295.5469 1829.2266,296.2969 Q1828.7344,297.0469 1828.7344,298.0781 L1828.7344,299.1719 Q1828.7344,300.4063 1829.625,301.2266 Q1830.5156,302.0469 1832.1094,302.0469 Q1833.0469,302.0469 1833.7031,301.7969 Q1834.0938,301.6406 1834.5156,301.2031 Q1834.7813,300.9375 1834.9297,300.8594 Q1835.0781,300.7813 1835.2813,300.7813 Q1835.6094,300.7813 1835.8672,301.0391 Q1836.125,301.2969 1836.125,301.6406 Q1836.125,301.9844 1835.7813,302.3906 Q1835.2813,302.9688 1834.4844,303.2969 Q1833.4063,303.75 1832.1094,303.75 Q1830.5938,303.75 1829.3906,303.125 Q1828.4063,302.625 1827.7188,301.5547 Q1827.0313,300.4844 1827.0313,299.2031 L1827.0313,298.0469 Q1827.0313,296.7188 1827.6484,295.5703 Q1828.2656,294.4219 1829.3594,293.8047 Q1830.4531,293.1875 1831.6875,293.1875 Q1832.4219,293.1875 1833.0703,293.3516 Q1833.7188,293.5156 1834.2656,293.875 Z " fill="#000000"/><text fill="#000000" font-family="sans-serif" font-size="12" lengthAdjust="spacing" textLength="73" x="1845.5" y="302.9102">ExitController</text><line style="stroke:#A80036;stroke-width:1.5;" x1="1817.5" x2="1920.5" y1="314" y2="314"/><line style="stroke:#A80036;stroke-width:1.5;" x1="1817.5" x2="1920.5" y1="322" y2="322"/><!--MD5=[f85404c7f6f4e11de0322e40335fa6aa]
class SaveController--><rect codeLine="51" fill="#FEFECE" filter="url(#f6l1hbako41rl)" height="48" id="SaveController" style="stroke:#A80036;stroke-width:1.5;" width="113" x="1956.5" y="282"/><ellipse cx="1971.5" cy="298" fill="#ADD1B2" rx="11" ry="11" style="stroke:#A80036;stroke-width:1.0;"/><path d="M1974.2656,293.875 Q1974.4219,293.6563 1974.6094,293.5469 Q1974.7969,293.4375 1975.0156,293.4375 Q1975.3906,293.4375 1975.625,293.6953 Q1975.8594,293.9531 1975.8594,294.5625 L1975.8594,296.0156 Q1975.8594,296.625 1975.625,296.8906 Q1975.3906,297.1563 1975.0156,297.1563 Q1974.6719,297.1563 1974.4688,296.9531 Q1974.2656,296.7656 1974.1563,296.25 Q1974.1094,295.8906 1973.9219,295.7031 Q1973.5938,295.3281 1972.9844,295.1094 Q1972.375,294.8906 1971.75,294.8906 Q1970.9844,294.8906 1970.3516,295.2188 Q1969.7188,295.5469 1969.2266,296.2969 Q1968.7344,297.0469 1968.7344,298.0781 L1968.7344,299.1719 Q1968.7344,300.4063 1969.625,301.2266 Q1970.5156,302.0469 1972.1094,302.0469 Q1973.0469,302.0469 1973.7031,301.7969 Q1974.0938,301.6406 1974.5156,301.2031 Q1974.7813,300.9375 1974.9297,300.8594 Q1975.0781,300.7813 1975.2813,300.7813 Q1975.6094,300.7813 1975.8672,301.0391 Q1976.125,301.2969 1976.125,301.6406 Q1976.125,301.9844 1975.7813,302.3906 Q1975.2813,302.9688 1974.4844,303.2969 Q1973.4063,303.75 1972.1094,303.75 Q1970.5938,303.75 1969.3906,303.125 Q1968.4063,302.625 1967.7188,301.5547 Q1967.0313,300.4844 1967.0313,299.2031 L1967.0313,298.0469 Q1967.0313,296.7188 1967.6484,295.5703 Q1968.2656,294.4219 1969.3594,293.8047 Q1970.4531,293.1875 1971.6875,293.1875 Q1972.4219,293.1875 1973.0703,293.3516 Q1973.7188,293.5156 1974.2656,293.875 Z " fill="#000000"/><text fill="#000000" font-family="sans-serif" font-size="12" lengthAdjust="spacing" textLength="81" x="1985.5" y="302.9102">SaveController</text><line style="stroke:#A80036;stroke-width:1.5;" x1="1957.5" x2="2068.5" y1="314" y2="314"/><line style="stroke:#A80036;stroke-width:1.5;" x1="1957.5" x2="2068.5" y1="322" y2="322"/><!--MD5=[d3858c961aee0496f0645a7642abb006]
class OpenController--><rect codeLine="52" fill="#FEFECE" filter="url(#f6l1hbako41rl)" height="48" id="OpenController" style="stroke:#A80036;stroke-width:1.5;" width="116" x="2105" y="282"/><ellipse cx="2120" cy="298" fill="#ADD1B2" rx="11" ry="11" style="stroke:#A80036;stroke-width:1.0;"/><path d="M2122.7656,293.875 Q2122.9219,293.6563 2123.1094,293.5469 Q2123.2969,293.4375 2123.5156,293.4375 Q2123.8906,293.4375 2124.125,293.6953 Q2124.3594,293.9531 2124.3594,294.5625 L2124.3594,296.0156 Q2124.3594,296.625 2124.125,296.8906 Q2123.8906,297.1563 2123.5156,297.1563 Q2123.1719,297.1563 2122.9688,296.9531 Q2122.7656,296.7656 2122.6563,296.25 Q2122.6094,295.8906 2122.4219,295.7031 Q2122.0938,295.3281 2121.4844,295.1094 Q2120.875,294.8906 2120.25,294.8906 Q2119.4844,294.8906 2118.8516,295.2188 Q2118.2188,295.5469 2117.7266,296.2969 Q2117.2344,297.0469 2117.2344,298.0781 L2117.2344,299.1719 Q2117.2344,300.4063 2118.125,301.2266 Q2119.0156,302.0469 2120.6094,302.0469 Q2121.5469,302.0469 2122.2031,301.7969 Q2122.5938,301.6406 2123.0156,301.2031 Q2123.2813,300.9375 2123.4297,300.8594 Q2123.5781,300.7813 2123.7813,300.7813 Q2124.1094,300.7813 2124.3672,301.0391 Q2124.625,301.2969 2124.625,301.6406 Q2124.625,301.9844 2124.2813,302.3906 Q2123.7813,302.9688 2122.9844,303.2969 Q2121.9063,303.75 2120.6094,303.75 Q2119.0938,303.75 2117.8906,303.125 Q2116.9063,302.625 2116.2188,301.5547 Q2115.5313,300.4844 2115.5313,299.2031 L2115.5313,298.0469 Q2115.5313,296.7188 2116.1484,295.5703 Q2116.7656,294.4219 2117.8594,293.8047 Q2118.9531,293.1875 2120.1875,293.1875 Q2120.9219,293.1875 2121.5703,293.3516 Q2122.2188,293.5156 2122.7656,293.875 Z " fill="#000000"/><text fill="#000000" font-family="sans-serif" font-size="12" lengthAdjust="spacing" textLength="84" x="2134" y="302.9102">OpenController</text><line style="stroke:#A80036;stroke-width:1.5;" x1="2106" x2="2220" y1="314" y2="314"/><line style="stroke:#A80036;stroke-width:1.5;" x1="2106" x2="2220" y1="322" y2="322"/><!--MD5=[9563755d011c5cec7ec66dc53565a59e]
class Board--><rect codeLine="71" fill="#FEFECE" filter="url(#f6l1hbako41rl)" height="48" id="Board" style="stroke:#A80036;stroke-width:1.5;" width="65" x="2495.5" y="282"/><ellipse cx="2510.5" cy="298" fill="#ADD1B2" rx="11" ry="11" style="stroke:#A80036;stroke-width:1.0;"/><path d="M2513.2656,293.875 Q2513.4219,293.6563 2513.6094,293.5469 Q2513.7969,293.4375 2514.0156,293.4375 Q2514.3906,293.4375 2514.625,293.6953 Q2514.8594,293.9531 2514.8594,294.5625 L2514.8594,296.0156 Q2514.8594,296.625 2514.625,296.8906 Q2514.3906,297.1563 2514.0156,297.1563 Q2513.6719,297.1563 2513.4688,296.9531 Q2513.2656,296.7656 2513.1563,296.25 Q2513.1094,295.8906 2512.9219,295.7031 Q2512.5938,295.3281 2511.9844,295.1094 Q2511.375,294.8906 2510.75,294.8906 Q2509.9844,294.8906 2509.3516,295.2188 Q2508.7188,295.5469 2508.2266,296.2969 Q2507.7344,297.0469 2507.7344,298.0781 L2507.7344,299.1719 Q2507.7344,300.4063 2508.625,301.2266 Q2509.5156,302.0469 2511.1094,302.0469 Q2512.0469,302.0469 2512.7031,301.7969 Q2513.0938,301.6406 2513.5156,301.2031 Q2513.7813,300.9375 2513.9297,300.8594 Q2514.0781,300.7813 2514.2813,300.7813 Q2514.6094,300.7813 2514.8672,301.0391 Q2515.125,301.2969 2515.125,301.6406 Q2515.125,301.9844 2514.7813,302.3906 Q2514.2813,302.9688 2513.4844,303.2969 Q2512.4063,303.75 2511.1094,303.75 Q2509.5938,303.75 2508.3906,303.125 Q2507.4063,302.625 2506.7188,301.5547 Q2506.0313,300.4844 2506.0313,299.2031 L2506.0313,298.0469 Q2506.0313,296.7188 2506.6484,295.5703 Q2507.2656,294.4219 2508.3594,293.8047 Q2509.4531,293.1875 2510.6875,293.1875 Q2511.4219,293.1875 2512.0703,293.3516 Q2512.7188,293.5156 2513.2656,293.875 Z " fill="#000000"/><text fill="#000000" font-family="sans-serif" font-size="12" lengthAdjust="spacing" textLength="33" x="2524.5" y="302.9102">Board</text><line style="stroke:#A80036;stroke-width:1.5;" x1="2496.5" x2="2559.5" y1="314" y2="314"/><line style="stroke:#A80036;stroke-width:1.5;" x1="2496.5" x2="2559.5" y1="322" y2="322"/><!--MD5=[28491d17d5ee38c9c116625a5ffc259a]
class Combination--><rect codeLine="72" fill="#FEFECE" filter="url(#f6l1hbako41rl)" height="48" id="Combination" style="stroke:#A80036;stroke-width:1.5;" width="103" x="2337.5" y="282"/><ellipse cx="2352.5" cy="298" fill="#ADD1B2" rx="11" ry="11" style="stroke:#A80036;stroke-width:1.0;"/><path d="M2355.2656,293.875 Q2355.4219,293.6563 2355.6094,293.5469 Q2355.7969,293.4375 2356.0156,293.4375 Q2356.3906,293.4375 2356.625,293.6953 Q2356.8594,293.9531 2356.8594,294.5625 L2356.8594,296.0156 Q2356.8594,296.625 2356.625,296.8906 Q2356.3906,297.1563 2356.0156,297.1563 Q2355.6719,297.1563 2355.4688,296.9531 Q2355.2656,296.7656 2355.1563,296.25 Q2355.1094,295.8906 2354.9219,295.7031 Q2354.5938,295.3281 2353.9844,295.1094 Q2353.375,294.8906 2352.75,294.8906 Q2351.9844,294.8906 2351.3516,295.2188 Q2350.7188,295.5469 2350.2266,296.2969 Q2349.7344,297.0469 2349.7344,298.0781 L2349.7344,299.1719 Q2349.7344,300.4063 2350.625,301.2266 Q2351.5156,302.0469 2353.1094,302.0469 Q2354.0469,302.0469 2354.7031,301.7969 Q2355.0938,301.6406 2355.5156,301.2031 Q2355.7813,300.9375 2355.9297,300.8594 Q2356.0781,300.7813 2356.2813,300.7813 Q2356.6094,300.7813 2356.8672,301.0391 Q2357.125,301.2969 2357.125,301.6406 Q2357.125,301.9844 2356.7813,302.3906 Q2356.2813,302.9688 2355.4844,303.2969 Q2354.4063,303.75 2353.1094,303.75 Q2351.5938,303.75 2350.3906,303.125 Q2349.4063,302.625 2348.7188,301.5547 Q2348.0313,300.4844 2348.0313,299.2031 L2348.0313,298.0469 Q2348.0313,296.7188 2348.6484,295.5703 Q2349.2656,294.4219 2350.3594,293.8047 Q2351.4531,293.1875 2352.6875,293.1875 Q2353.4219,293.1875 2354.0703,293.3516 Q2354.7188,293.5156 2355.2656,293.875 Z " fill="#000000"/><text fill="#000000" font-family="sans-serif" font-size="12" lengthAdjust="spacing" textLength="71" x="2366.5" y="302.9102">Combination</text><line style="stroke:#A80036;stroke-width:1.5;" x1="2338.5" x2="2439.5" y1="314" y2="314"/><line style="stroke:#A80036;stroke-width:1.5;" x1="2338.5" x2="2439.5" y1="322" y2="322"/><!--MD5=[cf489b19c51ee25e76ddca093e62e620]
class ProposedCombination--><rect codeLine="73" fill="#FEFECE" filter="url(#f6l1hbako41rl)" height="48" id="ProposedCombination" style="stroke:#A80036;stroke-width:1.5;" width="157" x="2317.5" y="506"/><ellipse cx="2332.5" cy="522" fill="#ADD1B2" rx="11" ry="11" style="stroke:#A80036;stroke-width:1.0;"/><path d="M2335.2656,517.875 Q2335.4219,517.6563 2335.6094,517.5469 Q2335.7969,517.4375 2336.0156,517.4375 Q2336.3906,517.4375 2336.625,517.6953 Q2336.8594,517.9531 2336.8594,518.5625 L2336.8594,520.0156 Q2336.8594,520.625 2336.625,520.8906 Q2336.3906,521.1563 2336.0156,521.1563 Q2335.6719,521.1563 2335.4688,520.9531 Q2335.2656,520.7656 2335.1563,520.25 Q2335.1094,519.8906 2334.9219,519.7031 Q2334.5938,519.3281 2333.9844,519.1094 Q2333.375,518.8906 2332.75,518.8906 Q2331.9844,518.8906 2331.3516,519.2188 Q2330.7188,519.5469 2330.2266,520.2969 Q2329.7344,521.0469 2329.7344,522.0781 L2329.7344,523.1719 Q2329.7344,524.4063 2330.625,525.2266 Q2331.5156,526.0469 2333.1094,526.0469 Q2334.0469,526.0469 2334.7031,525.7969 Q2335.0938,525.6406 2335.5156,525.2031 Q2335.7813,524.9375 2335.9297,524.8594 Q2336.0781,524.7813 2336.2813,524.7813 Q2336.6094,524.7813 2336.8672,525.0391 Q2337.125,525.2969 2337.125,525.6406 Q2337.125,525.9844 2336.7813,526.3906 Q2336.2813,526.9688 2335.4844,527.2969 Q2334.4063,527.75 2333.1094,527.75 Q2331.5938,527.75 2330.3906,527.125 Q2329.4063,526.625 2328.7188,525.5547 Q2328.0313,524.4844 2328.0313,523.2031 L2328.0313,522.0469 Q2328.0313,520.7188 2328.6484,519.5703 Q2329.2656,518.4219 2330.3594,517.8047 Q2331.4531,517.1875 2332.6875,517.1875 Q2333.4219,517.1875 2334.0703,517.3516 Q2334.7188,517.5156 2335.2656,517.875 Z " fill="#000000"/><text fill="#000000" font-family="sans-serif" font-size="12" lengthAdjust="spacing" textLength="125" x="2346.5" y="526.9102">ProposedCombination</text><line style="stroke:#A80036;stroke-width:1.5;" x1="2318.5" x2="2473.5" y1="538" y2="538"/><line style="stroke:#A80036;stroke-width:1.5;" x1="2318.5" x2="2473.5" y1="546" y2="546"/><!--MD5=[e370ee5c0c15ce04544d5f5a73174d72]
class SecretCombination--><rect codeLine="74" fill="#FEFECE" filter="url(#f6l1hbako41rl)" height="48" id="SecretCombination" style="stroke:#A80036;stroke-width:1.5;" width="138" x="2354" y="398"/><ellipse cx="2369" cy="414" fill="#ADD1B2" rx="11" ry="11" style="stroke:#A80036;stroke-width:1.0;"/><path d="M2371.7656,409.875 Q2371.9219,409.6563 2372.1094,409.5469 Q2372.2969,409.4375 2372.5156,409.4375 Q2372.8906,409.4375 2373.125,409.6953 Q2373.3594,409.9531 2373.3594,410.5625 L2373.3594,412.0156 Q2373.3594,412.625 2373.125,412.8906 Q2372.8906,413.1563 2372.5156,413.1563 Q2372.1719,413.1563 2371.9688,412.9531 Q2371.7656,412.7656 2371.6563,412.25 Q2371.6094,411.8906 2371.4219,411.7031 Q2371.0938,411.3281 2370.4844,411.1094 Q2369.875,410.8906 2369.25,410.8906 Q2368.4844,410.8906 2367.8516,411.2188 Q2367.2188,411.5469 2366.7266,412.2969 Q2366.2344,413.0469 2366.2344,414.0781 L2366.2344,415.1719 Q2366.2344,416.4063 2367.125,417.2266 Q2368.0156,418.0469 2369.6094,418.0469 Q2370.5469,418.0469 2371.2031,417.7969 Q2371.5938,417.6406 2372.0156,417.2031 Q2372.2813,416.9375 2372.4297,416.8594 Q2372.5781,416.7813 2372.7813,416.7813 Q2373.1094,416.7813 2373.3672,417.0391 Q2373.625,417.2969 2373.625,417.6406 Q2373.625,417.9844 2373.2813,418.3906 Q2372.7813,418.9688 2371.9844,419.2969 Q2370.9063,419.75 2369.6094,419.75 Q2368.0938,419.75 2366.8906,419.125 Q2365.9063,418.625 2365.2188,417.5547 Q2364.5313,416.4844 2364.5313,415.2031 L2364.5313,414.0469 Q2364.5313,412.7188 2365.1484,411.5703 Q2365.7656,410.4219 2366.8594,409.8047 Q2367.9531,409.1875 2369.1875,409.1875 Q2369.9219,409.1875 2370.5703,409.3516 Q2371.2188,409.5156 2371.7656,409.875 Z " fill="#000000"/><text fill="#000000" font-family="sans-serif" font-size="12" lengthAdjust="spacing" textLength="106" x="2383" y="418.9102">SecretCombination</text><line style="stroke:#A80036;stroke-width:1.5;" x1="2355" x2="2491" y1="430" y2="430"/><line style="stroke:#A80036;stroke-width:1.5;" x1="2355" x2="2491" y1="438" y2="438"/><!--MD5=[2741598bdf59a7d7e0d5c97658fd3022]
class Result--><rect codeLine="77" fill="#FEFECE" filter="url(#f6l1hbako41rl)" height="48" id="Result" style="stroke:#A80036;stroke-width:1.5;" width="68" x="2510" y="506"/><ellipse cx="2525" cy="522" fill="#ADD1B2" rx="11" ry="11" style="stroke:#A80036;stroke-width:1.0;"/><path d="M2527.7656,517.875 Q2527.9219,517.6563 2528.1094,517.5469 Q2528.2969,517.4375 2528.5156,517.4375 Q2528.8906,517.4375 2529.125,517.6953 Q2529.3594,517.9531 2529.3594,518.5625 L2529.3594,520.0156 Q2529.3594,520.625 2529.125,520.8906 Q2528.8906,521.1563 2528.5156,521.1563 Q2528.1719,521.1563 2527.9688,520.9531 Q2527.7656,520.7656 2527.6563,520.25 Q2527.6094,519.8906 2527.4219,519.7031 Q2527.0938,519.3281 2526.4844,519.1094 Q2525.875,518.8906 2525.25,518.8906 Q2524.4844,518.8906 2523.8516,519.2188 Q2523.2188,519.5469 2522.7266,520.2969 Q2522.2344,521.0469 2522.2344,522.0781 L2522.2344,523.1719 Q2522.2344,524.4063 2523.125,525.2266 Q2524.0156,526.0469 2525.6094,526.0469 Q2526.5469,526.0469 2527.2031,525.7969 Q2527.5938,525.6406 2528.0156,525.2031 Q2528.2813,524.9375 2528.4297,524.8594 Q2528.5781,524.7813 2528.7813,524.7813 Q2529.1094,524.7813 2529.3672,525.0391 Q2529.625,525.2969 2529.625,525.6406 Q2529.625,525.9844 2529.2813,526.3906 Q2528.7813,526.9688 2527.9844,527.2969 Q2526.9063,527.75 2525.6094,527.75 Q2524.0938,527.75 2522.8906,527.125 Q2521.9063,526.625 2521.2188,525.5547 Q2520.5313,524.4844 2520.5313,523.2031 L2520.5313,522.0469 Q2520.5313,520.7188 2521.1484,519.5703 Q2521.7656,518.4219 2522.8594,517.8047 Q2523.9531,517.1875 2525.1875,517.1875 Q2525.9219,517.1875 2526.5703,517.3516 Q2527.2188,517.5156 2527.7656,517.875 Z " fill="#000000"/><text fill="#000000" font-family="sans-serif" font-size="12" lengthAdjust="spacing" textLength="36" x="2539" y="526.9102">Result</text><line style="stroke:#A80036;stroke-width:1.5;" x1="2511" x2="2577" y1="538" y2="538"/><line style="stroke:#A80036;stroke-width:1.5;" x1="2511" x2="2577" y1="546" y2="546"/><!--MD5=[18eee71c88ab61f27581b8cbdd3ef5ee]
class Color--><rect codeLine="81" fill="#FEFECE" filter="url(#f6l1hbako41rl)" height="48" id="Color" style="stroke:#A80036;stroke-width:1.5;" width="62" x="2788" y="398"/><ellipse cx="2803" cy="414" fill="#EB937F" rx="11" ry="11" style="stroke:#A80036;stroke-width:1.0;"/><path d="M2801.8594,414.7969 L2801.8594,417.2969 L2806.1875,417.2969 L2806.1875,416.375 Q2806.1875,415.7656 2806.4297,415.5 Q2806.6719,415.2344 2807.0469,415.2344 Q2807.4219,415.2344 2807.6563,415.5 Q2807.8906,415.7656 2807.8906,416.375 L2807.8906,419 L2799.8906,419 Q2799.2656,419 2799.0078,418.7656 Q2798.75,418.5313 2798.75,418.1406 Q2798.75,417.7656 2799.0156,417.5313 Q2799.2813,417.2969 2799.8906,417.2969 L2800.1563,417.2969 L2800.1563,410.6406 L2799.8906,410.6406 Q2799.2656,410.6406 2799.0078,410.4063 Q2798.75,410.1719 2798.75,409.7813 Q2798.75,409.4063 2799.0078,409.1719 Q2799.2656,408.9375 2799.8906,408.9375 L2807.5156,408.9375 L2807.5156,411.5313 Q2807.5156,412.1406 2807.2891,412.3984 Q2807.0625,412.6563 2806.6719,412.6563 Q2806.2969,412.6563 2806.0625,412.3984 Q2805.8281,412.1406 2805.8281,411.5313 L2805.8281,410.6406 L2801.8594,410.6406 L2801.8594,413.0938 L2803.3438,413.0938 Q2803.3438,412.4375 2803.4688,412.25 Q2803.7344,411.8438 2804.2031,411.8438 Q2804.5781,411.8438 2804.8125,412.1016 Q2805.0469,412.3594 2805.0469,412.9688 L2805.0469,414.9375 Q2805.0469,415.4844 2804.9219,415.6719 Q2804.6563,416.0625 2804.2031,416.0625 Q2803.7344,416.0625 2803.4688,415.6563 Q2803.3438,415.4688 2803.3438,414.7969 L2801.8594,414.7969 Z " fill="#000000"/><text fill="#000000" font-family="sans-serif" font-size="12" lengthAdjust="spacing" textLength="30" x="2817" y="418.9102">Color</text><line style="stroke:#A80036;stroke-width:1.5;" x1="2789" x2="2849" y1="430" y2="430"/><line style="stroke:#A80036;stroke-width:1.5;" x1="2789" x2="2849" y1="438" y2="438"/><!--MD5=[b8cfd8c4119a3b0a7a46bfc5fc780f85]
class Error--><rect codeLine="82" fill="#FEFECE" filter="url(#f6l1hbako41rl)" height="48" id="Error" style="stroke:#A80036;stroke-width:1.5;" width="59" x="2693.5" y="398"/><ellipse cx="2708.5" cy="414" fill="#EB937F" rx="11" ry="11" style="stroke:#A80036;stroke-width:1.0;"/><path d="M2707.3594,414.7969 L2707.3594,417.2969 L2711.6875,417.2969 L2711.6875,416.375 Q2711.6875,415.7656 2711.9297,415.5 Q2712.1719,415.2344 2712.5469,415.2344 Q2712.9219,415.2344 2713.1563,415.5 Q2713.3906,415.7656 2713.3906,416.375 L2713.3906,419 L2705.3906,419 Q2704.7656,419 2704.5078,418.7656 Q2704.25,418.5313 2704.25,418.1406 Q2704.25,417.7656 2704.5156,417.5313 Q2704.7813,417.2969 2705.3906,417.2969 L2705.6563,417.2969 L2705.6563,410.6406 L2705.3906,410.6406 Q2704.7656,410.6406 2704.5078,410.4063 Q2704.25,410.1719 2704.25,409.7813 Q2704.25,409.4063 2704.5078,409.1719 Q2704.7656,408.9375 2705.3906,408.9375 L2713.0156,408.9375 L2713.0156,411.5313 Q2713.0156,412.1406 2712.7891,412.3984 Q2712.5625,412.6563 2712.1719,412.6563 Q2711.7969,412.6563 2711.5625,412.3984 Q2711.3281,412.1406 2711.3281,411.5313 L2711.3281,410.6406 L2707.3594,410.6406 L2707.3594,413.0938 L2708.8438,413.0938 Q2708.8438,412.4375 2708.9688,412.25 Q2709.2344,411.8438 2709.7031,411.8438 Q2710.0781,411.8438 2710.3125,412.1016 Q2710.5469,412.3594 2710.5469,412.9688 L2710.5469,414.9375 Q2710.5469,415.4844 2710.4219,415.6719 Q2710.1563,416.0625 2709.7031,416.0625 Q2709.2344,416.0625 2708.9688,415.6563 Q2708.8438,415.4688 2708.8438,414.7969 L2707.3594,414.7969 Z " fill="#000000"/><text fill="#000000" font-family="sans-serif" font-size="12" lengthAdjust="spacing" textLength="27" x="2722.5" y="418.9102">Error</text><line style="stroke:#A80036;stroke-width:1.5;" x1="2694.5" x2="2751.5" y1="430" y2="430"/><line style="stroke:#A80036;stroke-width:1.5;" x1="2694.5" x2="2751.5" y1="438" y2="438"/><!--MD5=[dc0500422e092c4f25e7b64adb8c025b]
link PlayerView to StartView--><path codeLine="18" d="M713.0692,109.2994 C713.0692,109.2994 701.59,139.72 696.39,153.49 " fill="none" id="PlayerView-StartView" style="stroke:#A80036;stroke-width:1.0;"/><polygon fill="#A80036" points="691.69,165.96,698.609,158.9509,693.4547,161.2818,691.1238,156.1274,691.69,165.96" style="stroke:#A80036;stroke-width:1.0;"/><line style="stroke:#A80036;stroke-width:1.0;" x1="693.4547" x2="696.275" y1="161.2818" y2="153.805"/><polygon fill="#A80036" points="717.3,98.07,711.4414,102.2744,713.0692,109.2994,718.9277,105.095,717.3,98.07" style="stroke:#A80036;stroke-width:1.0;"/><!--MD5=[6aa5591338f4cd689301f7e2cc176561]
link PlayerView to ProposeView--><path codeLine="19" d="M668.2896,92.4429 C668.2896,92.4429 637.94,101.69 624,106 C556.15,126.98 478.64,151.4 425.24,168.3 " fill="none" id="PlayerView-ProposeView" style="stroke:#A80036;stroke-width:1.0;"/><polygon fill="#A80036" points="412.55,172.32,422.337,173.422,417.3176,170.8133,419.9263,165.7939,412.55,172.32" style="stroke:#A80036;stroke-width:1.0;"/><line style="stroke:#A80036;stroke-width:1.0;" x1="417.3176" x2="424.94" y1="170.8133" y2="168.395"/><polygon fill="#A80036" points="679.77,88.95,672.8655,86.8696,668.2896,92.4429,675.1941,94.5232,679.77,88.95" style="stroke:#A80036;stroke-width:1.0;"/><!--MD5=[b95630b4bb6f21f358e9b1d68800b78a]
link PlayerView to ResumeView--><path codeLine="20" d="M743.0582,109.2582 C743.0582,109.2582 786.4,231.33 797.16,269.1 " fill="none" id="PlayerView-ResumeView" style="stroke:#A80036;stroke-width:1.0;"/><polygon fill="#A80036" points="800.76,281.88,802.1778,272.1337,799.4082,277.0662,794.4757,274.2966,800.76,281.88" style="stroke:#A80036;stroke-width:1.0;"/><line style="stroke:#A80036;stroke-width:1.0;" x1="799.4082" x2="797.24" y1="277.0662" y2="269.37"/><polygon fill="#A80036" points="738.47,98.17,737.068,105.2435,743.0582,109.2582,744.4602,102.1847,738.47,98.17" style="stroke:#A80036;stroke-width:1.0;"/><!--MD5=[80a2790aa98245834e446108b2f24065]
link PlayerView to SaveView--><path codeLine="21" d="M777.0074,105.2368 C777.0074,105.2368 777.9,105.91 778,106 C795.71,120.62 812.94,139.57 826.31,155.67 " fill="none" id="PlayerView-SaveView" style="stroke:#A80036;stroke-width:1.0;"/><polygon fill="#A80036" points="834.5,165.77,831.9342,156.2612,831.3491,161.8877,825.7226,161.3027,834.5,165.77" style="stroke:#A80036;stroke-width:1.0;"/><line style="stroke:#A80036;stroke-width:1.0;" x1="831.3491" x2="826.31" y1="161.8877" y2="155.675"/><polygon fill="#A80036" points="767.39,98.06,769.8064,104.8542,777.0074,105.2368,774.5909,98.4426,767.39,98.06" style="stroke:#A80036;stroke-width:1.0;"/><!--MD5=[2b5890793a76472eff4c2a6a4af43287]
link StartView to BoardView--><path codeLine="22" d="M641.36,209.19 C595.48,229.22 521.72,261.44 472.57,282.91 " fill="none" id="StartView-to-BoardView" style="stroke:#A80036;stroke-width:1.0;stroke-dasharray:7.0,7.0;"/><polygon fill="#A80036" points="467.89,284.96,477.7386,285.0285,472.4731,282.9612,474.5405,277.6956,467.89,284.96" style="stroke:#A80036;stroke-width:1.0;"/><!--MD5=[4a38f4f2d325dcf949b76ae414e31a86]
link StartView to OpenView--><path codeLine="23" d="M691.27,214.34 C701.27,242.13 718.89,289.85 736,330 C745.08,351.31 756.28,374.94 764.98,392.79 " fill="none" id="StartView-to-OpenView" style="stroke:#A80036;stroke-width:1.0;stroke-dasharray:7.0,7.0;"/><polygon fill="#A80036" points="767.36,397.66,767.0259,387.8168,765.1755,393.1625,759.8298,391.312,767.36,397.66" style="stroke:#A80036;stroke-width:1.0;"/><!--MD5=[29c306805319960c0560bedfd82b8e40]
link ProposeView to BoardView--><path codeLine="24" d="M372.55,214.07 C382.46,232.3 396.34,257.82 406.87,277.18 " fill="none" id="ProposeView-to-BoardView" style="stroke:#A80036;stroke-width:1.0;stroke-dasharray:7.0,7.0;"/><polygon fill="#A80036" points="409.47,281.96,408.6831,272.1426,407.0808,277.5678,401.6556,275.9654,409.47,281.96" style="stroke:#A80036;stroke-width:1.0;"/><!--MD5=[b92bc89b5449472b10f1cf1477809057]
link BoardView to ProposedCombinationView--><path codeLine="25" d="M376.5,318.63 C357.31,323.93 334.87,330.66 315,338 C269.28,354.89 218.95,378.07 182.66,395.64 " fill="none" id="BoardView-to-ProposedCombinationView" style="stroke:#A80036;stroke-width:1.0;stroke-dasharray:7.0,7.0;"/><polygon fill="#A80036" points="177.86,397.97,187.7032,397.6359,182.3575,395.7855,184.208,390.4398,177.86,397.97" style="stroke:#A80036;stroke-width:1.0;"/><!--MD5=[15f682a315f16673a58b132a229e1ff0]
link BoardView to ResultView--><path codeLine="26" d="M413.5,330.07 C406.78,348.3 397.38,373.82 390.25,393.18 " fill="none" id="BoardView-to-ResultView" style="stroke:#A80036;stroke-width:1.0;stroke-dasharray:7.0,7.0;"/><polygon fill="#A80036" points="388.49,397.96,395.3507,390.8939,390.2159,393.2673,387.8424,388.1325,388.49,397.96" style="stroke:#A80036;stroke-width:1.0;"/><!--MD5=[02a16ebf8539d2e5d44c3be387606aac]
link BoardView to Message--><path codeLine="27" d="M440.38,330.33 C441.78,332.83 443.03,335.4 444,338 C464.49,392.73 465.82,462.11 464.63,500.38 " fill="none" id="BoardView-to-Message" style="stroke:#A80036;stroke-width:1.0;stroke-dasharray:7.0,7.0;"/><polygon fill="#A80036" points="464.44,505.8,468.7722,496.9551,464.6261,500.8035,460.7778,496.6573,464.44,505.8" style="stroke:#A80036;stroke-width:1.0;"/><!--MD5=[5418e21908cb409c36d98acf7a0f9cb6]
link BoardView to SecretCombinationView--><path codeLine="28" d="M460.19,330.15 C464.21,332.75 468.21,335.39 472,338 C498.08,355.95 526.51,377.68 547.8,394.4 " fill="none" id="BoardView-to-SecretCombinationView" style="stroke:#A80036;stroke-width:1.0;stroke-dasharray:7.0,7.0;"/><polygon fill="#A80036" points="551.96,397.67,547.353,388.9651,548.0279,394.5815,542.4115,395.2564,551.96,397.67" style="stroke:#A80036;stroke-width:1.0;"/><!--MD5=[54923e7f1f8105ab44ef05f41a7d666e]
link ProposedCombinationView to ColorView--><path codeLine="29" d="M153.26,446 C168.44,462.42 188.91,484.56 204.89,501.84 " fill="none" id="ProposedCombinationView-to-ColorView" style="stroke:#A80036;stroke-width:1.0;stroke-dasharray:7.0,7.0;"/><polygon fill="#A80036" points="208.44,505.68,205.2596,496.3588,205.0427,502.0115,199.39,501.7945,208.44,505.68" style="stroke:#A80036;stroke-width:1.0;"/><!--MD5=[058408ce5819f71d62d41402f2a6cc02]
link ProposedCombinationView to ErrorView--><path codeLine="30" d="M126.79,446 C123.17,462 118.31,483.45 114.45,500.53 " fill="none" id="ProposedCombinationView-to-ErrorView" style="stroke:#A80036;stroke-width:1.0;stroke-dasharray:7.0,7.0;"/><polygon fill="#A80036" points="113.28,505.68,119.1641,497.7821,114.3813,500.8028,111.3606,496.02,113.28,505.68" style="stroke:#A80036;stroke-width:1.0;"/><!--MD5=[7bf6310e2078d439bcd0e6b6dd4bf7dc]
link ProposedCombinationView to Message--><path codeLine="31" d="M168.78,446.02 C191.68,459.43 222.17,475.69 251,486 C306.05,505.69 372.54,517.33 416.2,523.44 " fill="none" id="ProposedCombinationView-to-Message" style="stroke:#A80036;stroke-width:1.0;stroke-dasharray:7.0,7.0;"/><polygon fill="#A80036" points="421.41,524.15,413.045,518.9512,416.4574,523.4629,411.9457,526.8753,421.41,524.15" style="stroke:#A80036;stroke-width:1.0;"/><!--MD5=[0e5df9184d8007a1cb9785d3f6966635]
link ResultView to Message--><path codeLine="32" d="M398.01,446 C410.76,462.28 427.91,484.19 441.39,501.41 " fill="none" id="ResultView-to-Message" style="stroke:#A80036;stroke-width:1.0;stroke-dasharray:7.0,7.0;"/><polygon fill="#A80036" points="444.74,505.68,442.3264,496.1315,441.6515,501.7479,436.0351,501.073,444.74,505.68" style="stroke:#A80036;stroke-width:1.0;"/><!--MD5=[97e9ace985d716348ec86012fc7f7728]
link StartView to Message--><path codeLine="33" d="M683.55,214.18 C685.07,281.94 688.63,475.6 680,486 C658.75,511.61 566.86,522.25 509.68,526.45 " fill="none" id="StartView-to-Message" style="stroke:#A80036;stroke-width:1.0;stroke-dasharray:7.0,7.0;"/><polygon fill="#A80036" points="504.6,526.82,513.8628,530.1667,509.5872,526.4627,513.2912,522.1872,504.6,526.82" style="stroke:#A80036;stroke-width:1.0;"/><!--MD5=[91198d1c12ec6e73a40fb6837ae56756]
link ResumeView to Message--><path codeLine="34" d="M835.45,330.19 C837.25,332.65 838.81,335.26 840,338 C866.12,398.37 883.8,436.92 840,486 C818.35,510.26 605.79,522.68 509.72,527.09 " fill="none" id="ResumeView-to-Message" style="stroke:#A80036;stroke-width:1.0;stroke-dasharray:7.0,7.0;"/><polygon fill="#A80036" points="504.68,527.32,513.8533,530.9048,509.6748,527.0917,513.4879,522.9132,504.68,527.32" style="stroke:#A80036;stroke-width:1.0;"/><!--MD5=[2af68b46eeb5c2e46543eeb7557d9936]
link ProposeView to Message--><path codeLine="35" d="M346.23,214.07 C316.19,267.69 252.32,402.52 315,486 C327.26,502.33 377.52,514.47 416.1,521.62 " fill="none" id="ProposeView-to-Message" style="stroke:#A80036;stroke-width:1.0;stroke-dasharray:7.0,7.0;"/><polygon fill="#A80036" points="421.23,522.55,413.095,516.9983,416.3113,521.6518,411.6579,524.8682,421.23,522.55" style="stroke:#A80036;stroke-width:1.0;"/><!--MD5=[9c3c49d2c46e41492ade90d337e2ed2e]
link ProposeView to MenuView--><path codeLine="36" d="M307.31,210.3 C300.54,213.74 293.92,217.64 288,222 C267.31,237.24 248.63,259.6 235.63,277.28 " fill="none" id="ProposeView-to-MenuView" style="stroke:#A80036;stroke-width:1.0;stroke-dasharray:7.0,7.0;"/><polygon fill="#A80036" points="232.45,281.66,240.9691,276.7179,235.3832,277.6108,234.4904,272.0248,232.45,281.66" style="stroke:#A80036;stroke-width:1.0;"/><!--MD5=[5edb36716a4c6fb9b73ccdfe060f2d05]
link MenuView to ProposedCombinationView--><path codeLine="37" d="M199.8,330.07 C186.09,348.46 166.86,374.25 152.38,393.67 " fill="none" id="MenuView-to-ProposedCombinationView" style="stroke:#A80036;stroke-width:1.0;stroke-dasharray:7.0,7.0;"/><polygon fill="#A80036" points="149.18,397.96,157.7607,393.1257,152.164,393.948,151.3416,388.3513,149.18,397.96" style="stroke:#A80036;stroke-width:1.0;"/><!--MD5=[846c85d35f4a93f43b9e7108f510cad0]
link MenuView to Message--><path codeLine="38" d="M236.25,330.11 C237.99,332.69 239.61,335.35 241,338 C273.06,399.12 237.6,438.85 288,486 C306.37,503.19 370.71,515.75 416.02,522.71 " fill="none" id="MenuView-to-Message" style="stroke:#A80036;stroke-width:1.0;stroke-dasharray:7.0,7.0;"/><polygon fill="#A80036" points="421.17,523.49,412.8794,518.1734,416.2276,522.7329,411.6681,526.0812,421.17,523.49" style="stroke:#A80036;stroke-width:1.0;"/><!--MD5=[03d51df82c773ffb87e719fb137cf12c]
link SaveView to Message--><path codeLine="39" d="M873.18,214.03 C874.71,216.59 876.03,219.26 877,222 C916.11,332.8 945.35,402.19 863,486 C838.62,510.81 610.02,523.04 509.76,527.25 " fill="none" id="SaveView-to-Message" style="stroke:#A80036;stroke-width:1.0;stroke-dasharray:7.0,7.0;"/><polygon fill="#A80036" points="504.5,527.47,513.663,531.081,509.4954,527.2559,513.3205,523.0883,504.5,527.47" style="stroke:#A80036;stroke-width:1.0;"/><!--MD5=[180b52c490093b4c0d241db72898955b]
link OpenView to Message--><path codeLine="40" d="M759.25,446.06 C746.13,459.84 727.74,476.47 708,486 C643.89,516.95 560.76,525.87 509.69,528.3 " fill="none" id="OpenView-to-Message" style="stroke:#A80036;stroke-width:1.0;stroke-dasharray:7.0,7.0;"/><polygon fill="#A80036" points="504.54,528.53,513.7035,532.1398,509.5354,528.3153,513.3599,524.1472,504.54,528.53" style="stroke:#A80036;stroke-width:1.0;"/><!--MD5=[354d6deacb49030493b7fd8cb23ebdce]
reverse link Controller to StartController--><path codeLine="55" d="M1508.52,192.71 C1392.67,196.21 1155.75,205.32 1122,222 C1095.68,235.01 1074.75,262.12 1062.16,281.82 " fill="none" id="Controller-backto-StartController" style="stroke:#A80036;stroke-width:1.0;"/><polygon fill="none" points="1508.47,185.7,1528.66,192.12,1508.88,199.7,1508.47,185.7" style="stroke:#A80036;stroke-width:1.0;"/><!--MD5=[f447e35400d120693a19fd34f2d8422e]
reverse link Controller to ProposeController--><path codeLine="56" d="M1508.49,193.15 C1437.45,196.4 1327.41,204.19 1290,222 C1261.87,235.4 1237.53,262.15 1222.4,281.67 " fill="none" id="Controller-backto-ProposeController" style="stroke:#A80036;stroke-width:1.0;"/><polygon fill="none" points="1508.45,186.15,1528.73,192.3,1509.04,200.13,1508.45,186.15" style="stroke:#A80036;stroke-width:1.0;"/><!--MD5=[dfabfd7c269c7ef3ab5bdd4c723fcdb8]
reverse link Controller to ResumeController--><path codeLine="57" d="M1509.19,205.2 C1495.49,209.57 1481.39,215.11 1469,222 C1440.66,237.77 1413.46,263.3 1395.68,281.89 " fill="none" id="Controller-backto-ResumeController" style="stroke:#A80036;stroke-width:1.0;"/><polygon fill="none" points="1507.59,198.38,1528.75,199.61,1511.45,211.84,1507.59,198.38" style="stroke:#A80036;stroke-width:1.0;"/><!--MD5=[c8984a8af7c12f8533ff397092c16636]
reverse link Controller to ShowBoardController--><path codeLine="58" d="M1510.84,207.72 C1505.03,211.54 1499.88,216.23 1496,222 C1459.39,276.48 1492.19,358.26 1512.2,397.87 " fill="none" id="Controller-backto-ShowBoardController" style="stroke:#A80036;stroke-width:1.0;"/><polygon fill="none" points="1507.94,201.34,1528.99,198.89,1514.07,213.93,1507.94,201.34" style="stroke:#A80036;stroke-width:1.0;"/><!--MD5=[30206d8ab718dc22cce9998c8e604def]
reverse link Controller to RedoController--><path codeLine="59" d="M1634.62,217.29 C1638.54,218.01 1642.18,219.02 1647,222 C1671.76,237.31 1693.44,262.92 1707.24,281.65 " fill="none" id="Controller-backto-RedoController" style="stroke:#A80036;stroke-width:1.0;"/><polygon fill="none" points="1632.89,224.07,1615.15,212.47,1636.25,210.48,1632.89,224.07" style="stroke:#A80036;stroke-width:1.0;"/><!--MD5=[5344b5a2a57f55ab983fda367ecdb5ef]
reverse link Controller to UndoController--><path codeLine="60" d="M1572,234.32 C1572,250.53 1572,268.3 1572,281.96 " fill="none" id="Controller-backto-UndoController" style="stroke:#A80036;stroke-width:1.0;"/><polygon fill="none" points="1565,234.07,1572,214.07,1579,234.07,1565,234.07" style="stroke:#A80036;stroke-width:1.0;"/><!--MD5=[acdb7a82aeb9ae5bd312a5c0d10b7c22]
reverse link Controller to ExitController--><path codeLine="61" d="M1634.96,215.8 C1684.16,219.37 1766.97,206.86 1798,222 C1824.07,234.72 1844.34,261.88 1856.43,281.68 " fill="none" id="Controller-backto-ExitController" style="stroke:#A80036;stroke-width:1.0;"/><polygon fill="none" points="1633.8,222.71,1615.02,212.88,1635.83,208.86,1633.8,222.71" style="stroke:#A80036;stroke-width:1.0;"/><!--MD5=[aa8a1d262900dd6e2eb2fd4249a86c78]
reverse link Controller to SaveController--><path codeLine="62" d="M1635.26,215.25 C1707.18,219.4 1910.32,208.71 1939,222 C1965.98,234.5 1987.28,261.99 1999.97,281.92 " fill="none" id="Controller-backto-SaveController" style="stroke:#A80036;stroke-width:1.0;"/><polygon fill="none" points="1634.08,222.16,1615.02,212.91,1635.69,208.25,1634.08,222.16" style="stroke:#A80036;stroke-width:1.0;"/><!--MD5=[7c6495643f70fd20c9342503f9a5965c]
reverse link Controller to OpenController--><path codeLine="63" d="M1635.17,214.65 C1725.32,218.5 2065.7,212.4 2087,222 C2114.43,234.36 2136.36,261.88 2149.48,281.86 " fill="none" id="Controller-backto-OpenController" style="stroke:#A80036;stroke-width:1.0;"/><polygon fill="none" points="1634.34,221.61,1615.01,212.92,1635.54,207.66,1634.34,221.61" style="stroke:#A80036;stroke-width:1.0;"/><!--MD5=[b4660ff7e828b23e4b17a715c63b2df8]
link StartController to ShowBoardController--><path codeLine="64" d="M1116.1903,328.3845 C1116.1903,328.3845 1120.41,329.57 1122,330 C1229.64,359.05 1355.13,386.37 1437.12,403.36 " fill="none" id="StartController-ShowBoardController" style="stroke:#A80036;stroke-width:1.0;"/><polygon fill="#A80036" points="1449.9,405.99,1441.8888,400.2611,1445.0022,404.9841,1440.2793,408.0975,1449.9,405.99" style="stroke:#A80036;stroke-width:1.0;"/><line style="stroke:#A80036;stroke-width:1.0;" x1="1445.0022" x2="1437.165" y1="404.9841" y2="403.365"/><polygon fill="#A80036" points="1104.66,325.06,1109.317,330.5657,1116.1903,328.3845,1111.5333,322.8788,1104.66,325.06" style="stroke:#A80036;stroke-width:1.0;"/><!--MD5=[217660a01a015992a9b7449ecc5eb003]
link ProposeController to ShowBoardController--><path codeLine="65" d="M1281.847,334.1169 C1281.847,334.1169 1398.08,375.64 1448.15,393.54 " fill="none" id="ProposeController-ShowBoardController" style="stroke:#A80036;stroke-width:1.0;"/><polygon fill="#A80036" points="1460.54,397.96,1453.4117,391.1639,1455.8318,396.2769,1450.7188,398.697,1460.54,397.96" style="stroke:#A80036;stroke-width:1.0;"/><line style="stroke:#A80036;stroke-width:1.0;" x1="1455.8318" x2="1448.3" y1="396.2769" y2="393.59"/><polygon fill="#A80036" points="1270.55,330.07,1274.8495,335.8591,1281.847,334.1169,1277.5475,328.3278,1270.55,330.07" style="stroke:#A80036;stroke-width:1.0;"/><!--MD5=[2c52910148e9819c620d9e17d1681542]
link UndoController to ShowBoardController--><path codeLine="66" d="M1557.913,341.1629 C1557.913,341.1629 1545.18,372.05 1539.46,385.92 " fill="none" id="UndoController-ShowBoardController" style="stroke:#A80036;stroke-width:1.0;"/><polygon fill="#A80036" points="1534.5,397.96,1541.6303,391.166,1536.4071,393.338,1534.2351,388.1147,1534.5,397.96" style="stroke:#A80036;stroke-width:1.0;"/><line style="stroke:#A80036;stroke-width:1.0;" x1="1536.4071" x2="1539.455" y1="393.338" y2="385.945"/><polygon fill="#A80036" points="1562.49,330.07,1556.5039,334.0908,1557.913,341.1629,1563.8991,337.1421,1562.49,330.07" style="stroke:#A80036;stroke-width:1.0;"/><!--MD5=[da400dee44fe4cb18fcfe5f548bf9ae9]
link RedoController to ShowBoardController--><path codeLine="67" d="M1672.529,336.0549 C1672.529,336.0549 1605.91,374.42 1576.65,391.26 " fill="none" id="RedoController-ShowBoardController" style="stroke:#A80036;stroke-width:1.0;"/><polygon fill="#A80036" points="1565.01,397.96,1574.8047,396.929,1569.3414,395.4622,1570.8082,389.9988,1565.01,397.96" style="stroke:#A80036;stroke-width:1.0;"/><line style="stroke:#A80036;stroke-width:1.0;" x1="1569.3414" x2="1576.275" y1="395.4622" y2="391.475"/><polygon fill="#A80036" points="1682.93,330.07,1675.7345,329.5954,1672.529,336.0549,1679.7244,336.5294,1682.93,330.07" style="stroke:#A80036;stroke-width:1.0;"/><!--MD5=[7a31d241c7229341dd1effe4f81546a8]
link OpenController to ShowBoardController--><path codeLine="68" d="M2093.0959,328.5189 C2093.0959,328.5189 2088.62,329.62 2087,330 C1921.36,368.3 1724.59,396.21 1613.3,410.41 " fill="none" id="OpenController-ShowBoardController" style="stroke:#A80036;stroke-width:1.0;"/><polygon fill="#A80036" points="1600.16,412.07,1609.5901,414.9112,1605.1206,411.4437,1608.5881,406.9742,1600.16,412.07" style="stroke:#A80036;stroke-width:1.0;"/><line style="stroke:#A80036;stroke-width:1.0;" x1="1605.1206" x2="1613.06" y1="411.4437" y2="410.435"/><polygon fill="#A80036" points="2104.71,325.5,2097.8967,323.1381,2093.0959,328.5189,2099.9093,330.8808,2104.71,325.5" style="stroke:#A80036;stroke-width:1.0;"/><!--MD5=[2f10888865b2f559cc24db01ac34cee3]
reverse link Combination to ProposedCombination--><path codeLine="75" d="M2332.78,348.17 C2305.27,401.59 2310.03,432.98 2337,486 C2340.91,493.68 2346.9,500.32 2353.6,505.92 " fill="none" id="Combination-backto-ProposedCombination" style="stroke:#A80036;stroke-width:1.0;"/><polygon fill="none" points="2326.8,344.52,2342.62,330.41,2339.05,351.3,2326.8,344.52" style="stroke:#A80036;stroke-width:1.0;"/><!--MD5=[ed81d3472c9069d2de3c2f5cd308846f]
reverse link Combination to SecretCombination--><path codeLine="76" d="M2401.68,349.5 C2406.57,365.92 2411.98,384.06 2416.13,397.96 " fill="none" id="Combination-backto-SecretCombination" style="stroke:#A80036;stroke-width:1.0;"/><polygon fill="none" points="2394.89,351.24,2395.88,330.07,2408.3,347.23,2394.89,351.24" style="stroke:#A80036;stroke-width:1.0;"/><!--MD5=[e0b5d9907fda64872c10fd6493e0c51f]
link Board to ProposedCombination--><path codeLine="85" d="M2528.7287,342.1794 C2528.7287,342.1794 2526.6,464.4 2510,486 C2503.54,494.41 2495.24,501.17 2486.07,506.61 " fill="none" id="Board-ProposedCombination" style="stroke:#A80036;stroke-width:1.0;"/><polygon fill="#A80036" points="2474.51,512.61,2484.3405,512.0082,2478.9464,510.3039,2480.6507,504.9099,2474.51,512.61" style="stroke:#A80036;stroke-width:1.0;"/><line style="stroke:#A80036;stroke-width:1.0;" x1="2478.9464" x2="2486.05" y1="510.3039" y2="506.62"/><polygon fill="#A80036" points="2528.61,330.18,2524.6695,336.2193,2528.7287,342.1794,2532.6691,336.1401,2528.61,330.18" style="stroke:#A80036;stroke-width:1.0;"/><!--MD5=[5e915b8ab835b2366405aaf6901e131b]
link Board to SecretCombination--><path codeLine="86" d="M2498.6216,338.8978 C2498.6216,338.8978 2467.11,373.11 2453.03,388.4 " fill="none" id="Board-SecretCombination" style="stroke:#A80036;stroke-width:1.0;"/><polygon fill="#A80036" points="2444.22,397.96,2453.262,394.056,2447.6098,394.2845,2447.3813,388.6323,2444.22,397.96" style="stroke:#A80036;stroke-width:1.0;"/><line style="stroke:#A80036;stroke-width:1.0;" x1="2447.6098" x2="2453.025" y1="394.2845" y2="388.405"/><polygon fill="#A80036" points="2506.75,330.07,2499.7432,331.7744,2498.6216,338.8978,2505.6284,337.1933,2506.75,330.07" style="stroke:#A80036;stroke-width:1.0;"/><!--MD5=[8dd95aff79c51151a18c835e3410b3cd]
link Board to Result--><path codeLine="87" d="M2537.2416,342.0794 C2537.2416,342.0794 2546.01,456.89 2545.3,492.78 " fill="none" id="Board-Result" style="stroke:#A80036;stroke-width:1.0;"/><polygon fill="#A80036" points="2544.97,505.89,2549.1961,496.9939,2545.0963,500.8916,2541.1987,496.7918,2544.97,505.89" style="stroke:#A80036;stroke-width:1.0;"/><line style="stroke:#A80036;stroke-width:1.0;" x1="2545.0963" x2="2545.3" y1="500.8916" y2="492.895"/><polygon fill="#A80036" points="2535.41,330.22,2532.3727,336.7602,2537.2416,342.0794,2540.2789,335.5392,2535.41,330.22" style="stroke:#A80036;stroke-width:1.0;"/><!--MD5=[f874647c3c9f57491b6e7b7bf233051a]
link SecretCombination to Result--><path codeLine="88" d="M2449.26,446 C2468.15,462.55 2493.7,484.93 2513.5,502.28 " fill="none" id="SecretCombination-to-Result" style="stroke:#A80036;stroke-width:1.0;stroke-dasharray:7.0,7.0;"/><polygon fill="#A80036" points="2517.38,505.68,2513.2576,496.7354,2513.6233,502.3804,2507.9783,502.7461,2517.38,505.68" style="stroke:#A80036;stroke-width:1.0;"/><!--MD5=[324ce3fbc91b6fad145775bb65621994]
link SecretCombination to ProposedCombination--><path codeLine="89" d="M2417.14,446 C2413.07,462 2407.6,483.45 2403.25,500.53 " fill="none" id="SecretCombination-to-ProposedCombination" style="stroke:#A80036;stroke-width:1.0;stroke-dasharray:7.0,7.0;"/><polygon fill="#A80036" points="2401.94,505.68,2408.0517,497.9568,2403.1829,500.8369,2400.3028,495.9682,2401.94,505.68" style="stroke:#A80036;stroke-width:1.0;"/><!--MD5=[fd4dadafb7dfafd89665a9151015bafc]
link views to controllers--><path d="M929.1782,75.0412 C929.6252,75.0436 930.0898,75.046 930.572,75.0485 C932.5008,75.0587 934.7107,75.0705 937.1919,75.0839 C947.1169,75.1378 961.3844,75.2185 979.3786,75.3292 C1015.3671,75.5506 1066.2627,75.8918 1127.1397,76.3773 C1248.8938,77.3484 1410.5738,78.8969 1572.775,81.2188 C1897.1775,85.8625 2223.665,93.6 2237,106 C2240.2863,109.0563 2242.8939,112.5894 2244.9391,116.4391 C2245.4504,117.4015 2245.9266,118.3837 2246.3694,119.3832 C2246.5908,119.8829 2246.8039,120.387 2247.0088,120.8951 C2247.1113,121.1491 2247.2118,121.4041 2247.3102,121.6601 " fill="none" id="views-to-controllers" style="stroke:#A80036;stroke-width:1.0;stroke-dasharray:7.0,7.0;"/><polygon fill="#A80036" points="2247.3102,121.6601,2247.8129,111.8241,2245.5154,116.9934,2240.3461,114.6958,2247.3102,121.6601" style="stroke:#A80036;stroke-width:1.0;"/><!--MD5=[6bfde5656e7ece32836aeea1e9e8a819]
link controllers to models--><path d="M2253.5024,191.1194 C2253.7215,191.1228 2253.9445,191.1264 2254.1714,191.13 C2255.9868,191.1588 2258.0515,191.193 2260.3472,191.2332 C2269.53,191.3941 2282.4087,191.651 2297.81,192.0427 C2328.6125,192.8259 2369.505,194.1481 2411.1,196.3188 C2494.29,200.66 2580.29,208.395 2594,222 C2597.185,225.1613 2599.7159,228.7739 2601.7045,232.6823 C2602.2017,233.6594 2602.6649,234.655 2603.096,235.6666 C2603.3115,236.1724 2603.519,236.6823 2603.7187,237.1958 C2603.8186,237.4526 2603.9165,237.7103 2604.0124,237.9689 " fill="none" id="controllers-to-models" style="stroke:#A80036;stroke-width:1.0;stroke-dasharray:7.0,7.0;"/><polygon fill="#A80036" points="2604.0124,237.9689,2604.6313,228.1395,2602.2728,233.2812,2597.1311,230.9228,2604.0124,237.9689" style="stroke:#A80036;stroke-width:1.0;"/><!--MD5=[a47103ae2ffafd08434d69e1e4d1349a]
link views to types--><path d="M929.8708,75.0479 C931.661,75.0579 933.7127,75.0695 936.0176,75.0828 C945.2372,75.136 958.5069,75.2157 975.2865,75.3251 C1008.8456,75.5439 1056.4441,75.8816 1113.7588,76.3633 C1228.3881,77.3266 1381.8825,78.8656 1539.6575,81.1812 C1855.2075,85.8125 2187.88,93.55 2261,106 C2425.47,134 2507.06,97.4 2618,222 C2647.525,255.16 2657.6775,303.885 2660.3737,344.82 C2660.5423,347.3784 2660.6817,349.9064 2660.7948,352.3983 C2660.809,352.7098 2660.8227,353.0207 2660.836,353.3311 " fill="none" id="views-to-types" style="stroke:#A80036;stroke-width:1.0;stroke-dasharray:7.0,7.0;"/><polygon fill="#A80036" points="2660.836,353.3311,2664.4461,344.1677,2660.6214,348.3357,2656.4534,344.5111,2660.836,353.3311" style="stroke:#A80036;stroke-width:1.0;"/><!--MD5=[9da2d375dc0417b2d3724b966d4c0d45]
link models to types--><path d="M2610.0643,323.4143 C2610.1414,323.5712 2610.2189,323.729 2610.2968,323.8876 C2610.6085,324.5222 2610.9269,325.1701 2611.2514,325.8308 C2616.4441,336.4009 2623.2281,350.2106 2630.0113,364.0187 C2636.7944,377.8269 2643.5766,391.6334 2648.7655,402.1973 C2649.0898,402.8576 2649.4079,403.5052 2649.7193,404.1393 C2649.7972,404.2978 2649.8747,404.4555 2649.9517,404.6123 " fill="none" id="models-to-types" style="stroke:#A80036;stroke-width:1.0;stroke-dasharray:7.0,7.0;"/><polygon fill="#A80036" points="2649.9517,404.6123,2649.5741,394.7707,2647.7473,400.1245,2642.3936,398.2977,2649.9517,404.6123" style="stroke:#A80036;stroke-width:1.0;"/><!--MD5=[37a8da7143f9c6fcac2a4888fabc7d39]
@startuml mastermind_analisis
package views {
    class PlayerView
    class StartView
    class ProposeView
    class ResumeView
    class BoardView
    class ProposedCombinationView
    class SecretCombinationView
    class ResultView
    class ColorView
    enum Message
    class ErrorView
    class MenuView
    class SaveView
    class OpenView
}

PlayerView *-down-> StartView
PlayerView *-down-> ProposeView
PlayerView *-down-> ResumeView
PlayerView *-down-> SaveView
StartView .down.> BoardView
StartView .down.> OpenView
ProposeView .down.> BoardView
BoardView .down.> ProposedCombinationView
BoardView .down.> ResultView
BoardView .down.> Message
BoardView .down.> SecretCombinationView
ProposedCombinationView .down.> ColorView
ProposedCombinationView .down.> ErrorView
ProposedCombinationView .down.> Message
ResultView .down.> Message
StartView .down.> Message
ResumeView .down.> Message
ProposeView .down.> Message
ProposeView .down.> MenuView
MenuView .down.> ProposedCombinationView
MenuView .down.> Message
SaveView .down.> Message
OpenView .down.> Message

package controllers {
    abstract class Controller
    class StartController
    class ProposeController
    class ResumeController
    class ShowBoardController
    class UndoController
    class RedoController
    class ExitController
    class SaveController
    class OpenController
}

Controller <|- - StartController
Controller <|- - ProposeController
Controller <|- - ResumeController
Controller <|- - ShowBoardController
Controller <|- - RedoController
Controller <|- - UndoController
Controller <|- - ExitController
Controller <|- - SaveController
Controller <|- - OpenController
StartController *-down-> ShowBoardController
ProposeController *-down-> ShowBoardController
UndoController *-down-> ShowBoardController
RedoController *-down-> ShowBoardController
OpenController *-down-> ShowBoardController

package models {
    class Board
    class Combination
    class ProposedCombination
    class SecretCombination
    Combination <|- - ProposedCombination
    Combination <|- - SecretCombination
    class Result
}

package types {
    enum Color
    enum Error
}

Board *-down-> ProposedCombination
Board *-down-> SecretCombination
Board *-down-> Result
SecretCombination .down.> Result
SecretCombination .down.> ProposedCombination

views .down.> controllers
controllers .down.> models
views .down.> types
models .down.> types
@enduml

PlantUML version 1.2021.00(Sun Jan 10 11:25:05 CET 2021)
(GPL source distribution)
Java Runtime: Java(TM) SE Runtime Environment
JVM: Java HotSpot(TM) 64-Bit Server VM
Default Encoding: Cp1252
Language: es
Country: ES
--></g></svg>