<?xml version="1.0" encoding="UTF-8" standalone="no"?><svg xmlns="http://www.w3.org/2000/svg" xmlns:xlink="http://www.w3.org/1999/xlink" contentScriptType="application/ecmascript" contentStyleType="text/css" height="1203px" preserveAspectRatio="none" style="width:1410px;height:1203px;" version="1.1" viewBox="0 0 1410 1203" width="1410px" zoomAndPan="magnify"><defs><filter height="300%" id="f1j2w4j5hbjo7u" width="300%" x="-1" y="-1"><feGaussianBlur result="blurOut" stdDeviation="2.0"/><feColorMatrix in="blurOut" result="blurOut2" type="matrix" values="0 0 0 0 0 0 0 0 0 0 0 0 0 0 0 0 0 0 .4 0"/><feOffset dx="4.0" dy="4.0" in="blurOut2" result="blurOut3"/><feBlend in="SourceGraphic" in2="blurOut3" mode="normal"/></filter></defs><g><!--MD5=[e2a75efa8a0f57c2afae8bf75386f79c]
cluster views--><polygon fill="#FFFFFF" filter="url(#f1j2w4j5hbjo7u)" points="29.25,173.5,76.25,173.5,83.25,197.1094,887.25,197.1094,887.25,788.5,29.25,788.5,29.25,173.5" style="stroke:#000000;stroke-width:1.5;"/><line style="stroke:#000000;stroke-width:1.5;" x1="29.25" x2="83.25" y1="197.1094" y2="197.1094"/><text fill="#000000" font-family="sans-serif" font-size="14" font-weight="bold" lengthAdjust="spacing" textLength="41" x="33.25" y="190.0332">views</text><!--MD5=[f4e70ef68289585296b9045165e58692]
cluster controllers--><polygon fill="#FFFFFF" filter="url(#f1j2w4j5hbjo7u)" points="962.25,584.5,1045.25,584.5,1052.25,608.1094,1096.25,608.1094,1096.25,686.5,962.25,686.5,962.25,584.5" style="stroke:#000000;stroke-width:1.5;"/><line style="stroke:#000000;stroke-width:1.5;" x1="962.25" x2="1052.25" y1="608.1094" y2="608.1094"/><text fill="#000000" font-family="sans-serif" font-size="14" font-weight="bold" lengthAdjust="spacing" textLength="77" x="966.25" y="601.0332">controllers</text><!--MD5=[a60570e4b426f702ccbb0d459e3b9417]
cluster models--><polygon fill="#FFFFFF" filter="url(#f1j2w4j5hbjo7u)" points="958.25,823.5,1015.25,823.5,1022.25,847.1094,1295.25,847.1094,1295.25,1061.5,958.25,1061.5,958.25,823.5" style="stroke:#000000;stroke-width:1.5;"/><line style="stroke:#000000;stroke-width:1.5;" x1="958.25" x2="1022.25" y1="847.1094" y2="847.1094"/><text fill="#000000" font-family="sans-serif" font-size="14" font-weight="bold" lengthAdjust="spacing" textLength="51" x="962.25" y="840.0332">models</text><!--MD5=[67cd15ce44b6dd54f77054b62c31bf42]
cluster types--><polygon fill="#FFFFFF" filter="url(#f1j2w4j5hbjo7u)" points="946.25,1094.5,990.25,1094.5,997.25,1118.1094,1026.25,1118.1094,1026.25,1196.5,946.25,1196.5,946.25,1094.5" style="stroke:#000000;stroke-width:1.5;"/><line style="stroke:#000000;stroke-width:1.5;" x1="946.25" x2="997.25" y1="1118.1094" y2="1118.1094"/><text fill="#000000" font-family="sans-serif" font-size="14" font-weight="bold" lengthAdjust="spacing" textLength="38" x="950.25" y="1111.0332">types</text><rect fill="#FEFECE" filter="url(#f1j2w4j5hbjo7u)" height="35.0938" style="stroke:#A80036;stroke-width:1.5;" width="65" x="424.75" y="209.5"/><text fill="#000000" font-family="sans-serif" font-size="12" lengthAdjust="spacing" textLength="51" x="431.75" y="223.957">StartView</text><line style="stroke:#A80036;stroke-width:1.5;" x1="425.75" x2="488.75" y1="228.5938" y2="228.5938"/><rect fill="#FEFECE" filter="url(#f1j2w4j5hbjo7u)" height="35.0938" style="stroke:#A80036;stroke-width:1.5;" width="70" x="613.25" y="436.5"/><text fill="#000000" font-family="sans-serif" font-size="12" lengthAdjust="spacing" textLength="56" x="620.25" y="450.957">OpenView</text><line style="stroke:#A80036;stroke-width:1.5;" x1="614.25" x2="682.25" y1="455.5938" y2="455.5938"/><rect fill="#FEFECE" filter="url(#f1j2w4j5hbjo7u)" height="35.0938" style="stroke:#A80036;stroke-width:1.5;" width="65" x="217.75" y="737.5"/><text fill="#000000" font-family="sans-serif" font-size="12" lengthAdjust="spacing" textLength="51" x="224.75" y="751.957">Message</text><line style="stroke:#A80036;stroke-width:1.5;" x1="218.75" x2="281.75" y1="756.5938" y2="756.5938"/><rect fill="#FEFECE" filter="url(#f1j2w4j5hbjo7u)" height="35.0938" style="stroke:#A80036;stroke-width:1.5;" width="73" x="422.75" y="344.5"/><text fill="#000000" font-family="sans-serif" font-size="12" lengthAdjust="spacing" textLength="59" x="429.75" y="358.957">BoardView</text><line style="stroke:#A80036;stroke-width:1.5;" x1="423.75" x2="494.75" y1="363.5938" y2="363.5938"/><rect fill="#FEFECE" filter="url(#f1j2w4j5hbjo7u)" height="35.0938" style="stroke:#A80036;stroke-width:1.5;" width="146" x="82.25" y="531"/><text fill="#000000" font-family="sans-serif" font-size="12" lengthAdjust="spacing" textLength="132" x="89.25" y="545.457">SecretCombinationView</text><line style="stroke:#A80036;stroke-width:1.5;" x1="83.25" x2="227.25" y1="550.0938" y2="550.0938"/><rect fill="#FEFECE" filter="url(#f1j2w4j5hbjo7u)" height="35.0938" style="stroke:#A80036;stroke-width:1.5;" width="165" x="705.75" y="531"/><text fill="#000000" font-family="sans-serif" font-size="12" lengthAdjust="spacing" textLength="151" x="712.75" y="545.457">ProposedCombinationView</text><line style="stroke:#A80036;stroke-width:1.5;" x1="706.75" x2="869.75" y1="550.0938" y2="550.0938"/><rect fill="#FEFECE" filter="url(#f1j2w4j5hbjo7u)" height="35.0938" style="stroke:#A80036;stroke-width:1.5;" width="76" x="263.25" y="531"/><text fill="#000000" font-family="sans-serif" font-size="12" lengthAdjust="spacing" textLength="62" x="270.25" y="545.457">ResultView</text><line style="stroke:#A80036;stroke-width:1.5;" x1="264.25" x2="338.25" y1="550.0938" y2="550.0938"/><rect fill="#FEFECE" filter="url(#f1j2w4j5hbjo7u)" height="35.0938" style="stroke:#A80036;stroke-width:1.5;" width="70" x="706.25" y="737.5"/><text fill="#000000" font-family="sans-serif" font-size="12" lengthAdjust="spacing" textLength="56" x="713.25" y="751.957">ColorView</text><line style="stroke:#A80036;stroke-width:1.5;" x1="707.25" x2="775.25" y1="756.5938" y2="756.5938"/><rect fill="#FEFECE" filter="url(#f1j2w4j5hbjo7u)" height="50.1875" style="stroke:#A80036;stroke-width:1.5;" width="101" x="978.75" y="620.5"/><text fill="#000000" font-family="sans-serif" font-size="12" lengthAdjust="spacing" textLength="82" x="988.25" y="634.957">openController</text><text fill="#000000" font-family="sans-serif" font-size="12" lengthAdjust="spacing" textLength="87" x="985.75" y="650.0508">:OpenController</text><line style="stroke:#A80036;stroke-width:1.5;" x1="979.75" x2="1078.75" y1="654.6875" y2="654.6875"/><rect fill="#FEFECE" filter="url(#f1j2w4j5hbjo7u)" height="35.0938" style="stroke:#A80036;stroke-width:1.5;" width="47" x="1088.75" y="859.5"/><text fill="#000000" font-family="sans-serif" font-size="12" lengthAdjust="spacing" textLength="33" x="1095.75" y="873.957">Board</text><line style="stroke:#A80036;stroke-width:1.5;" x1="1089.75" x2="1134.75" y1="878.5938" y2="878.5938"/><rect fill="#FEFECE" filter="url(#f1j2w4j5hbjo7u)" height="35.0938" style="stroke:#A80036;stroke-width:1.5;" width="50" x="984.25" y="1010.5"/><text fill="#000000" font-family="sans-serif" font-size="12" lengthAdjust="spacing" textLength="36" x="991.25" y="1024.957">Result</text><line style="stroke:#A80036;stroke-width:1.5;" x1="985.25" x2="1033.25" y1="1029.5938" y2="1029.5938"/><rect fill="#FEFECE" filter="url(#f1j2w4j5hbjo7u)" height="35.0938" style="stroke:#A80036;stroke-width:1.5;" width="139" x="1075.75" y="1010.5"/><text fill="#000000" font-family="sans-serif" font-size="12" lengthAdjust="spacing" textLength="125" x="1082.75" y="1024.957">ProposedCombination</text><line style="stroke:#A80036;stroke-width:1.5;" x1="1076.75" x2="1213.75" y1="1029.5938" y2="1029.5938"/><rect fill="#FEFECE" filter="url(#f1j2w4j5hbjo7u)" height="50.1875" style="stroke:#A80036;stroke-width:1.5;" width="47" x="962.75" y="1130.5"/><text fill="#000000" font-family="sans-serif" font-size="12" lengthAdjust="spacing" textLength="27" x="972.75" y="1144.957">color</text><text fill="#000000" font-family="sans-serif" font-size="12" lengthAdjust="spacing" textLength="33" x="969.75" y="1160.0508">:Color</text><line style="stroke:#A80036;stroke-width:1.5;" x1="963.75" x2="1008.75" y1="1164.6875" y2="1164.6875"/><!--MD5=[de2effd8dc5bf946a609466312d0f75f]
entity Player--><ellipse cx="457.25" cy="14" fill="#FEFECE" filter="url(#f1j2w4j5hbjo7u)" rx="8" ry="8" style="stroke:#A80036;stroke-width:1.5;"/><path d="M457.25,22 L457.25,49 M444.25,30 L470.25,30 M457.25,49 L444.25,64 M457.25,49 L470.25,64 " fill="none" filter="url(#f1j2w4j5hbjo7u)" style="stroke:#A80036;stroke-width:1.5;"/><text fill="#000000" font-family="sans-serif" font-size="14" lengthAdjust="spacing" textLength="40" x="437.25" y="84.0332">Player</text><!--MD5=[eeb6915416cd4d75847d2a39a6e2e3ff]
link Player to StartView--><path codeLine="30" d="M457.25,87.62 C457.25,123.74 457.25,175.19 457.25,204.1 " fill="none" id="Player-to-StartView" style="stroke:#A80036;stroke-width:1.0;"/><polygon fill="#A80036" points="457.25,209.23,461.25,200.23,457.25,204.23,453.25,200.23,457.25,209.23" style="stroke:#A80036;stroke-width:1.0;"/><path d="M462.25,122.5 L462.25,148.5 L519.25,148.5 L519.25,132.5 L509.25,122.5 L462.25,122.5 " fill="#FBFB77" filter="url(#f1j2w4j5hbjo7u)" style="stroke:#A80036;stroke-width:1.0;"/><path d="M509.25,122.5 L509.25,132.5 L519.25,132.5 L509.25,122.5 " fill="#FBFB77" style="stroke:#A80036;stroke-width:1.0;"/><text fill="#000000" font-family="sans-serif" font-size="13" lengthAdjust="spacing" textLength="36" x="468.25" y="140.9951">open()</text><!--MD5=[4a38f4f2d325dcf949b76ae414e31a86]
link StartView to OpenView--><path codeLine="34" d="M489.83,228.78 C524.5,231.43 578.49,241.12 609.25,274.5 C649.61,318.3 651.75,393.88 650.02,431.05 " fill="none" id="StartView-to-OpenView" style="stroke:#A80036;stroke-width:1.0;stroke-dasharray:7.0,7.0;"/><polygon fill="#A80036" points="649.74,436.25,654.2233,427.4808,650.0118,431.2574,646.2352,427.0459,649.74,436.25" style="stroke:#A80036;stroke-width:1.0;"/><path d="M637.25,279.5 L637.25,305.5 L792.25,305.5 L792.25,289.5 L782.25,279.5 L637.25,279.5 " fill="#FBFB77" filter="url(#f1j2w4j5hbjo7u)" style="stroke:#A80036;stroke-width:1.0;"/><path d="M782.25,279.5 L782.25,289.5 L792.25,289.5 L782.25,279.5 " fill="#FBFB77" style="stroke:#A80036;stroke-width:1.0;"/><text fill="#000000" font-family="sans-serif" font-size="13" lengthAdjust="spacing" textLength="134" x="643.25" y="297.9951">interact(openController)</text><!--MD5=[180b52c490093b4c0d241db72898955b]
link OpenView to Message--><path codeLine="38" d="M636.55,471.78 C605.73,514.83 517.8,630.27 418.25,694.5 C377.49,720.8 323.64,737.21 288.02,745.97 " fill="none" id="OpenView-to-Message" style="stroke:#A80036;stroke-width:1.0;stroke-dasharray:7.0,7.0;"/><polygon fill="#A80036" points="282.9,747.21,292.587,748.9884,287.7606,746.0377,290.7113,741.2114,282.9,747.21" style="stroke:#A80036;stroke-width:1.0;"/><path d="M594.25,533.5 L594.25,559.5 L650.25,559.5 L650.25,543.5 L640.25,533.5 L594.25,533.5 " fill="#FBFB77" filter="url(#f1j2w4j5hbjo7u)" style="stroke:#A80036;stroke-width:1.0;"/><path d="M640.25,533.5 L640.25,543.5 L650.25,543.5 L640.25,533.5 " fill="#FBFB77" style="stroke:#A80036;stroke-width:1.0;"/><text fill="#000000" font-family="sans-serif" font-size="13" lengthAdjust="spacing" textLength="35" x="600.25" y="551.9951">write()</text><!--MD5=[c28bfbb7d004595976dc4ffd1e61d7e5]
link OpenView to OpenController--><path codeLine="42" d="M683.3,461.25 C731.58,470.84 820.3,492.01 888.25,528.5 C932.17,552.08 975.34,590.47 1002.11,616.57 " fill="none" id="OpenView-to-OpenController" style="stroke:#A80036;stroke-width:1.0;stroke-dasharray:7.0,7.0;"/><polygon fill="#A80036" points="1005.93,620.33,1002.3202,611.1665,1002.366,616.8232,996.7093,616.869,1005.93,620.33" style="stroke:#A80036;stroke-width:1.0;"/><path d="M951.25,533.5 L951.25,559.5 L1040.25,559.5 L1040.25,543.5 L1030.25,533.5 L951.25,533.5 " fill="#FBFB77" filter="url(#f1j2w4j5hbjo7u)" style="stroke:#A80036;stroke-width:1.0;"/><path d="M1030.25,533.5 L1030.25,543.5 L1040.25,543.5 L1030.25,533.5 " fill="#FBFB77" style="stroke:#A80036;stroke-width:1.0;"/><text fill="#000000" font-family="sans-serif" font-size="13" lengthAdjust="spacing" textLength="68" x="957.25" y="551.9951">open(name)</text><!--MD5=[97e9ace985d716348ec86012fc7f7728]
link StartView to Message--><path codeLine="46" d="M424.7,233.33 C350.49,247.32 168.5,292.46 82.25,409.5 C6,512.97 39.24,604.77 131.25,694.5 C154.19,716.88 187.22,732.48 212.67,742.07 " fill="none" id="StartView-to-Message" style="stroke:#A80036;stroke-width:1.0;stroke-dasharray:7.0,7.0;"/><polygon fill="#A80036" points="217.65,743.91,210.5906,737.0423,212.959,742.1795,207.8218,744.5479,217.65,743.91" style="stroke:#A80036;stroke-width:1.0;"/><path d="M87.25,439 L87.25,465 L143.25,465 L143.25,449 L133.25,439 L87.25,439 " fill="#FBFB77" filter="url(#f1j2w4j5hbjo7u)" style="stroke:#A80036;stroke-width:1.0;"/><path d="M133.25,439 L133.25,449 L143.25,449 L133.25,439 " fill="#FBFB77" style="stroke:#A80036;stroke-width:1.0;"/><text fill="#000000" font-family="sans-serif" font-size="13" lengthAdjust="spacing" textLength="35" x="93.25" y="457.4951">write()</text><!--MD5=[2b5890793a76472eff4c2a6a4af43287]
link StartView to BoardView--><path codeLine="50" d="M455.81,244.59 C454.49,262.01 452.95,290.19 454.25,314.5 C454.68,322.54 455.53,331.32 456.4,339.07 " fill="none" id="StartView-to-BoardView" style="stroke:#A80036;stroke-width:1.0;stroke-dasharray:7.0,7.0;"/><polygon fill="#A80036" points="457.01,344.25,459.9561,334.8521,456.439,339.2827,452.0084,335.7656,457.01,344.25" style="stroke:#A80036;stroke-width:1.0;"/><path d="M459.25,279.5 L459.25,305.5 L596.25,305.5 L596.25,289.5 L586.25,279.5 L459.25,279.5 " fill="#FBFB77" filter="url(#f1j2w4j5hbjo7u)" style="stroke:#A80036;stroke-width:1.0;"/><path d="M586.25,279.5 L586.25,289.5 L596.25,289.5 L586.25,279.5 " fill="#FBFB77" style="stroke:#A80036;stroke-width:1.0;"/><text fill="#000000" font-family="sans-serif" font-size="13" lengthAdjust="spacing" textLength="116" x="465.25" y="297.9951">write(startController)</text><!--MD5=[c982daa33a00a6d93d219a699729ec5a]
link BoardView to OpenController--><path codeLine="54" d="M495.98,367.25 C615.53,381.91 989.74,434.75 1057.25,528.5 C1075.71,554.14 1062.24,590.4 1048.33,615.52 " fill="none" id="BoardView-to-OpenController" style="stroke:#A80036;stroke-width:1.0;stroke-dasharray:7.0,7.0;"/><polygon fill="#A80036" points="1045.74,620.08,1053.6679,614.2363,1048.213,615.7344,1046.7149,610.2795,1045.74,620.08" style="stroke:#A80036;stroke-width:1.0;"/><path d="M1025.25,414.5 L1025.25,489.5 L1281.25,489.5 L1281.25,424.5 L1271.25,414.5 L1025.25,414.5 " fill="#FBFB77" filter="url(#f1j2w4j5hbjo7u)" style="stroke:#A80036;stroke-width:1.0;"/><path d="M1271.25,414.5 L1271.25,424.5 L1281.25,424.5 L1271.25,414.5 " fill="#FBFB77" style="stroke:#A80036;stroke-width:1.0;"/><text fill="#000000" font-family="sans-serif" font-size="13" lengthAdjust="spacing" textLength="79" x="1031.25" y="432.9951">getAttempts()</text><text fill="#000000" font-family="sans-serif" font-size="13" lengthAdjust="spacing" textLength="235" x="1031.25" y="449.3467">getProposedCombinationColors(position)</text><text fill="#000000" font-family="sans-serif" font-size="13" lengthAdjust="spacing" textLength="111" x="1031.25" y="465.6982">getBlacks(position)</text><text fill="#000000" font-family="sans-serif" font-size="13" lengthAdjust="spacing" textLength="112" x="1031.25" y="482.0498">getWhites(position)</text><!--MD5=[02a16ebf8539d2e5d44c3be387606aac]
link BoardView to Message--><path codeLine="61" d="M459.89,379.7 C460.88,410.97 461.94,477.13 454.25,498.5 C448.56,514.31 439.26,513.73 431.25,528.5 C420.45,548.39 419.02,554.38 414.25,576.5 C408.7,602.22 420.04,673.44 404.25,694.5 C376.97,730.89 324.33,745.03 288.26,750.52 " fill="none" id="BoardView-to-Message" style="stroke:#A80036;stroke-width:1.0;stroke-dasharray:7.0,7.0;"/><polygon fill="#A80036" points="283.06,751.27,292.5385,753.9455,288.0089,750.5569,291.3975,746.0273,283.06,751.27" style="stroke:#A80036;stroke-width:1.0;"/><path d="M436.25,533.5 L436.25,559.5 L543.25,559.5 L543.25,543.5 L533.25,533.5 L436.25,533.5 " fill="#FBFB77" filter="url(#f1j2w4j5hbjo7u)" style="stroke:#A80036;stroke-width:1.0;"/><path d="M533.25,533.5 L533.25,543.5 L543.25,543.5 L533.25,533.5 " fill="#FBFB77" style="stroke:#A80036;stroke-width:1.0;"/><text fill="#000000" font-family="sans-serif" font-size="13" lengthAdjust="spacing" textLength="86" x="442.25" y="551.9951">write(attempts)</text><!--MD5=[5418e21908cb409c36d98acf7a0f9cb6]
link BoardView to SecretCombinationView--><path codeLine="65" d="M422.49,365.18 C359.76,369.63 235.68,381.74 203.25,409.5 C168.64,439.12 158.96,495.11 156.27,525.88 " fill="none" id="BoardView-to-SecretCombinationView" style="stroke:#A80036;stroke-width:1.0;stroke-dasharray:7.0,7.0;"/><polygon fill="#A80036" points="155.87,530.96,160.5523,522.2953,156.2557,525.9749,152.5761,521.6783,155.87,530.96" style="stroke:#A80036;stroke-width:1.0;"/><path d="M208.25,439 L208.25,465 L264.25,465 L264.25,449 L254.25,439 L208.25,439 " fill="#FBFB77" filter="url(#f1j2w4j5hbjo7u)" style="stroke:#A80036;stroke-width:1.0;"/><path d="M254.25,439 L254.25,449 L264.25,449 L254.25,439 " fill="#FBFB77" style="stroke:#A80036;stroke-width:1.0;"/><text fill="#000000" font-family="sans-serif" font-size="13" lengthAdjust="spacing" textLength="35" x="214.25" y="457.4951">write()</text><!--MD5=[d0c6e2bebacb85fe1d099bc6a8097bbc]
link SecretCombinationView to Message--><path codeLine="69" d="M149.81,566.03 C141.54,594.38 129.04,653.25 152.25,694.5 C165.14,717.4 190.79,732.5 212.62,741.76 " fill="none" id="SecretCombinationView-to-Message" style="stroke:#A80036;stroke-width:1.0;stroke-dasharray:7.0,7.0;"/><polygon fill="#A80036" points="217.5,743.77,210.6932,736.6519,212.8745,741.8713,207.6552,744.0527,217.5,743.77" style="stroke:#A80036;stroke-width:1.0;"/><path d="M157.25,630.5 L157.25,656.5 L213.25,656.5 L213.25,640.5 L203.25,630.5 L157.25,630.5 " fill="#FBFB77" filter="url(#f1j2w4j5hbjo7u)" style="stroke:#A80036;stroke-width:1.0;"/><path d="M203.25,630.5 L203.25,640.5 L213.25,640.5 L203.25,630.5 " fill="#FBFB77" style="stroke:#A80036;stroke-width:1.0;"/><text fill="#000000" font-family="sans-serif" font-size="13" lengthAdjust="spacing" textLength="35" x="163.25" y="648.9951">write()</text><!--MD5=[b92bc89b5449472b10f1cf1477809057]
link BoardView to ProposedCombinationView--><path codeLine="73" d="M460.89,379.68 C464.46,412.23 473.99,482.45 491.25,498.5 C522.07,527.16 636.74,521.58 678.25,528.5 C685.47,529.7 692.96,530.96 700.47,532.24 " fill="none" id="BoardView-to-ProposedCombinationView" style="stroke:#A80036;stroke-width:1.0;stroke-dasharray:7.0,7.0;"/><polygon fill="#A80036" points="705.68,533.13,697.4677,527.6933,700.7492,532.3011,696.1414,535.5825,705.68,533.13" style="stroke:#A80036;stroke-width:1.0;"/><path d="M496.25,439 L496.25,465 L587.25,465 L587.25,449 L577.25,439 L496.25,439 " fill="#FBFB77" filter="url(#f1j2w4j5hbjo7u)" style="stroke:#A80036;stroke-width:1.0;"/><path d="M577.25,439 L577.25,449 L587.25,449 L577.25,439 " fill="#FBFB77" style="stroke:#A80036;stroke-width:1.0;"/><text fill="#000000" font-family="sans-serif" font-size="13" lengthAdjust="spacing" textLength="70" x="502.25" y="457.4951">write(colors)</text><!--MD5=[54923e7f1f8105ab44ef05f41a7d666e]
link ProposedCombinationView to ColorView--><path codeLine="77" d="M736.09,566.12 C732.27,569.04 728.89,572.47 726.25,576.5 C694.67,624.7 717.01,696.77 731.51,732.43 " fill="none" id="ProposedCombinationView-to-ColorView" style="stroke:#A80036;stroke-width:1.0;stroke-dasharray:7.0,7.0;"/><polygon fill="#A80036" points="733.58,737.42,733.8367,727.5745,731.6691,732.7996,726.444,730.632,733.58,737.42" style="stroke:#A80036;stroke-width:1.0;"/><path d="M731.25,630.5 L731.25,656.5 L815.25,656.5 L815.25,640.5 L805.25,630.5 L731.25,630.5 " fill="#FBFB77" filter="url(#f1j2w4j5hbjo7u)" style="stroke:#A80036;stroke-width:1.0;"/><path d="M805.25,630.5 L805.25,640.5 L815.25,640.5 L805.25,630.5 " fill="#FBFB77" style="stroke:#A80036;stroke-width:1.0;"/><text fill="#000000" font-family="sans-serif" font-size="13" lengthAdjust="spacing" textLength="63" x="737.25" y="648.9951">write(color)</text><!--MD5=[3c978e882819d5791a3d8cfa6d73d565]
link ColorView to Color--><path codeLine="81" d="M740.83,772.58 C740.42,824.14 745.86,983.91 824.25,1078.5 C858.64,1119.99 920.81,1140.15 957.32,1148.83 " fill="none" id="ColorView-to-Color" style="stroke:#A80036;stroke-width:1.0;stroke-dasharray:7.0,7.0;"/><polygon fill="#A80036" points="962.51,1150.03,954.6285,1144.1239,957.6359,1148.9151,952.8447,1151.9225,962.51,1150.03" style="stroke:#A80036;stroke-width:1.0;"/><!--MD5=[15f682a315f16673a58b132a229e1ff0]
link BoardView to ResultView--><path codeLine="82" d="M422.51,368.37 C379.53,375.48 312.3,389.52 297.25,409.5 C271.76,443.34 283.38,496.25 293.01,525.75 " fill="none" id="BoardView-to-ResultView" style="stroke:#A80036;stroke-width:1.0;stroke-dasharray:7.0,7.0;"/><polygon fill="#A80036" points="294.66,530.63,295.5733,520.8236,293.0617,525.8923,287.993,523.3808,294.66,530.63" style="stroke:#A80036;stroke-width:1.0;"/><path d="M302.25,439 L302.25,465 L441.25,465 L441.25,449 L431.25,439 L302.25,439 " fill="#FBFB77" filter="url(#f1j2w4j5hbjo7u)" style="stroke:#A80036;stroke-width:1.0;"/><path d="M431.25,439 L431.25,449 L441.25,449 L431.25,439 " fill="#FBFB77" style="stroke:#A80036;stroke-width:1.0;"/><text fill="#000000" font-family="sans-serif" font-size="13" lengthAdjust="spacing" textLength="118" x="308.25" y="457.4951">write(blacks, whites)</text><!--MD5=[0e5df9184d8007a1cb9785d3f6966635]
link ResultView to Message--><path codeLine="86" d="M262.99,561.82 C256.73,565.55 251.05,570.35 247.25,576.5 C217.13,625.23 232.33,696.76 242.92,732.3 " fill="none" id="ResultView-to-Message" style="stroke:#A80036;stroke-width:1.0;stroke-dasharray:7.0,7.0;"/><polygon fill="#A80036" points="244.44,737.28,245.6184,727.5019,242.9706,732.5008,237.9717,729.853,244.44,737.28" style="stroke:#A80036;stroke-width:1.0;"/><path d="M252.25,630.5 L252.25,656.5 L391.25,656.5 L391.25,640.5 L381.25,630.5 L252.25,630.5 " fill="#FBFB77" filter="url(#f1j2w4j5hbjo7u)" style="stroke:#A80036;stroke-width:1.0;"/><path d="M381.25,630.5 L381.25,640.5 L391.25,640.5 L381.25,630.5 " fill="#FBFB77" style="stroke:#A80036;stroke-width:1.0;"/><text fill="#000000" font-family="sans-serif" font-size="13" lengthAdjust="spacing" textLength="118" x="258.25" y="648.9951">write(blacks, whites)</text><!--MD5=[f75f812270ab549777be30fa14d87b55]
link OpenController to Board--><path codeLine="90" d="M1037.98,670.63 C1054.25,715.62 1088.97,811.64 1104.48,854.53 " fill="none" id="OpenController-to-Board" style="stroke:#A80036;stroke-width:1.0;"/><polygon fill="#A80036" points="1106.19,859.24,1106.8998,849.4168,1104.4939,854.5365,1099.3742,852.1305,1106.19,859.24" style="stroke:#A80036;stroke-width:1.0;"/><path d="M1090.25,707.5 L1090.25,798.5 L1346.25,798.5 L1346.25,717.5 L1336.25,707.5 L1090.25,707.5 " fill="#FBFB77" filter="url(#f1j2w4j5hbjo7u)" style="stroke:#A80036;stroke-width:1.0;"/><path d="M1336.25,707.5 L1336.25,717.5 L1346.25,717.5 L1336.25,707.5 " fill="#FBFB77" style="stroke:#A80036;stroke-width:1.0;"/><text fill="#000000" font-family="sans-serif" font-size="13" lengthAdjust="spacing" textLength="68" x="1096.25" y="725.9951">open(name)</text><text fill="#000000" font-family="sans-serif" font-size="13" lengthAdjust="spacing" textLength="79" x="1096.25" y="742.3467">getAttempts()</text><text fill="#000000" font-family="sans-serif" font-size="13" lengthAdjust="spacing" textLength="235" x="1096.25" y="758.6982">getProposedCombinationColors(position)</text><text fill="#000000" font-family="sans-serif" font-size="13" lengthAdjust="spacing" textLength="111" x="1096.25" y="775.0498">getBlacks(position)</text><text fill="#000000" font-family="sans-serif" font-size="13" lengthAdjust="spacing" textLength="112" x="1096.25" y="791.4014">getWhites(position)</text><!--MD5=[8dd95aff79c51151a18c835e3410b3cd]
link Board to Result--><path codeLine="98" d="M1076.9529,884.6187 C1076.9529,884.6187 1026.44,902.95 1012.25,924.5 C998.21,945.82 998.96,975.42 1002.33,997.34 " fill="none" id="Board-Result" style="stroke:#A80036;stroke-width:1.0;"/><polygon fill="#A80036" points="1004.73,1010.15,1007.0094,1000.5685,1003.8119,1005.235,999.1454,1002.0375,1004.73,1010.15" style="stroke:#A80036;stroke-width:1.0;"/><line style="stroke:#A80036;stroke-width:1.0;" x1="1003.8119" x2="1002.34" y1="1005.235" y2="997.375"/><polygon fill="#A80036" points="1088.6,881.73,1081.8135,879.292,1076.9529,884.6187,1083.7393,887.0567,1088.6,881.73" style="stroke:#A80036;stroke-width:1.0;"/><path d="M1017.25,929.5 L1017.25,971.5 L1105.25,971.5 L1105.25,939.5 L1095.25,929.5 L1017.25,929.5 " fill="#FBFB77" filter="url(#f1j2w4j5hbjo7u)" style="stroke:#A80036;stroke-width:1.0;"/><path d="M1095.25,929.5 L1095.25,939.5 L1105.25,939.5 L1095.25,929.5 " fill="#FBFB77" style="stroke:#A80036;stroke-width:1.0;"/><text fill="#000000" font-family="sans-serif" font-size="13" lengthAdjust="spacing" textLength="66" x="1023.25" y="947.9951">getBlacks()</text><text fill="#000000" font-family="sans-serif" font-size="13" lengthAdjust="spacing" textLength="67" x="1023.25" y="964.3467">getWhites()</text><!--MD5=[e0b5d9907fda64872c10fd6493e0c51f]
link Board to ProposedCombination--><path codeLine="103" d="M1118.509,906.2252 C1118.509,906.2252 1132.96,971.49 1138.74,997.61 " fill="none" id="Board-ProposedCombination" style="stroke:#A80036;stroke-width:1.0;"/><polygon fill="#A80036" points="1141.58,1010.41,1143.5381,1000.7578,1140.4983,1005.5284,1135.7276,1002.4886,1141.58,1010.41" style="stroke:#A80036;stroke-width:1.0;"/><line style="stroke:#A80036;stroke-width:1.0;" x1="1140.4983" x2="1138.765" y1="1005.5284" y2="997.715"/><polygon fill="#A80036" points="1115.91,894.51,1113.3044,901.2339,1118.509,906.2252,1121.1145,899.5013,1115.91,894.51" style="stroke:#A80036;stroke-width:1.0;"/><path d="M1139.25,937.5 L1139.25,963.5 L1223.25,963.5 L1223.25,947.5 L1213.25,937.5 L1139.25,937.5 " fill="#FBFB77" filter="url(#f1j2w4j5hbjo7u)" style="stroke:#A80036;stroke-width:1.0;"/><path d="M1213.25,937.5 L1213.25,947.5 L1223.25,947.5 L1213.25,937.5 " fill="#FBFB77" style="stroke:#A80036;stroke-width:1.0;"/><text fill="#000000" font-family="sans-serif" font-size="13" lengthAdjust="spacing" textLength="63" x="1145.25" y="955.9951">getColors()</text><!--MD5=[2d4500cc75f159eca4a02f9c13f05618]
link ProposedCombination to Color--><path codeLine="107" d="M1114.7234,1053.1083 C1114.7234,1053.1083 1047.81,1105.91 1020.15,1127.74 " fill="none" id="ProposedCombination-Color" style="stroke:#A80036;stroke-width:1.0;"/><polygon fill="#A80036" points="1009.78,1135.93,1019.3219,1133.4901,1013.7036,1132.8307,1014.363,1127.2124,1009.78,1135.93" style="stroke:#A80036;stroke-width:1.0;"/><line style="stroke:#A80036;stroke-width:1.0;" x1="1013.7036" x2="1019.99" y1="1132.8307" y2="1127.87"/><polygon fill="#A80036" points="1124.14,1045.67,1116.9523,1046.2503,1114.7234,1053.1083,1121.9111,1052.528,1124.14,1045.67" style="stroke:#A80036;stroke-width:1.0;"/><!--MD5=[e8e56f95b2bfb8e03c3cdf9f0e0c50ee]
link Board to Color--><path codeLine="108" d="M1135.97,878.89 C1165.99,881.43 1216.64,890.81 1240.25,924.5 C1253.12,942.86 1239.89,1059.74 1232.25,1069.5 C1178.95,1137.63 1067.81,1151.4 1015.14,1154.01 " fill="none" id="Board-to-Color" style="stroke:#A80036;stroke-width:1.0;stroke-dasharray:7.0,7.0;"/><polygon fill="#A80036" points="1009.92,1154.24,1019.083,1157.851,1014.9154,1154.0259,1018.7405,1149.8583,1009.92,1154.24" style="stroke:#A80036;stroke-width:1.0;"/><!--MD5=[8e6e00161e347ec77dc3498d8e5db6df]
link OpenController to Color--><path codeLine="109" d="M1015.43,670.7 C998.06,702.65 969.19,761.22 958.25,815.5 C935.95,926.16 940.36,958.04 958.25,1069.5 C961.33,1088.69 968.08,1109.41 974.18,1125.59 " fill="none" id="OpenController-to-Color" style="stroke:#A80036;stroke-width:1.0;stroke-dasharray:7.0,7.0;"/><polygon fill="#A80036" points="976.05,1130.46,976.5727,1120.625,974.2647,1125.7896,969.1001,1123.4815,976.05,1130.46" style="stroke:#A80036;stroke-width:1.0;"/><!--MD5=[12f03c7f5abb6c3e068862197d6139ed]
link BoardView to Color--><path codeLine="110" d="M495.93,363.23 C648.31,364.45 1226.73,371.55 1298.25,409.5 C1366.33,445.63 1403.25,470.43 1403.25,547.5 C1403.25,547.5 1403.25,547.5 1403.25,1029 C1403.25,1110.25 1109.3,1143.53 1015,1152.12 " fill="none" id="BoardView-to-Color" style="stroke:#A80036;stroke-width:1.0;stroke-dasharray:7.0,7.0;"/><polygon fill="#A80036" points="1009.86,1152.58,1019.1786,1155.768,1014.8404,1152.1376,1018.4708,1147.7994,1009.86,1152.58" style="stroke:#A80036;stroke-width:1.0;"/><!--MD5=[644d3bda32b13afd96f2f5d418a902c1]
link ProposedCombinationView to Color--><path codeLine="111" d="M819.24,566.2 C822.74,569.21 825.88,572.64 828.25,576.5 C869.81,644.26 850.25,674.51 850.25,754 C850.25,754 850.25,754 850.25,1029 C850.25,1087.04 917.98,1125.66 957.84,1143.37 " fill="none" id="ProposedCombinationView-to-Color" style="stroke:#A80036;stroke-width:1.0;stroke-dasharray:7.0,7.0;"/><polygon fill="#A80036" points="962.56,1145.42,955.9095,1138.1556,957.9769,1143.4212,952.7114,1145.4885,962.56,1145.42" style="stroke:#A80036;stroke-width:1.0;"/><!--MD5=[6050ecef9cd475528c74081cd1da6b2d]
@startuml mastermind_analisis_usecase_open
allow_mixing

actor Player

package views {
    object StartView
    object OpenView
    object Message
    object BoardView
    object SecretCombinationView
    object ProposedCombinationView
    object ResultView
    object ColorView
}

package controllers {
    object "openController\n:OpenController" as OpenController
}

package models {
    object Board
    object Result
    object ProposedCombination
}

package types {
    object "color\n:Color" as Color
}

Player -down-> StartView
note on link
    open()
end note
StartView .down.> OpenView
note on link
    interact(openController)
end note
OpenView .down.> Message
note on link
    write()
end note
OpenView .down.> OpenController
note on link
    open(name)
end note
StartView .down.> Message
note on link
    write()
end note
StartView .down.> BoardView
note on link
    write(startController)
end note
BoardView .down.> OpenController
note on link
    getAttempts()
    getProposedCombinationColors(position)
    getBlacks(position)
    getWhites(position)
end note
BoardView .down.> Message
note on link
    write(attempts)
end note
BoardView .down.> SecretCombinationView
note on link
    write()
end note
SecretCombinationView .down.> Message
note on link
    write()
end note
BoardView .down.> ProposedCombinationView
note on link
    write(colors)
end note
ProposedCombinationView .down.> ColorView
note on link
    write(color)
end note
ColorView .down.> Color
BoardView .down.> ResultView
note on link
    write(blacks, whites)
end note
ResultView .down.> Message
note on link
    write(blacks, whites)
end note
OpenController -down-> Board
note on link
    open(name)
    getAttempts()
    getProposedCombinationColors(position)
    getBlacks(position)
    getWhites(position)
end note
Board *-down-> Result
note on link
    getBlacks()
    getWhites()
end note
Board *-down-> ProposedCombination
note on link
    getColors()
end note
ProposedCombination *-down-> Color
Board .down.> Color
OpenController .down.> Color
BoardView .down.> Color
ProposedCombinationView .down.> Color
@enduml

PlantUML version 1.2021.00(Sun Jan 10 11:25:05 CET 2021)
(GPL source distribution)
Java Runtime: Java(TM) SE Runtime Environment
JVM: Java HotSpot(TM) 64-Bit Server VM
Default Encoding: Cp1252
Language: es
Country: ES
--></g></svg>