<?xml version="1.0" encoding="UTF-8" standalone="no"?><svg xmlns="http://www.w3.org/2000/svg" xmlns:xlink="http://www.w3.org/1999/xlink" contentScriptType="application/ecmascript" contentStyleType="text/css" height="576px" preserveAspectRatio="none" style="width:250px;height:576px;" version="1.1" viewBox="0 0 250 576" width="250px" zoomAndPan="magnify"><defs><filter height="300%" id="f13a6ulzkg3mj1" width="300%" x="-1" y="-1"><feGaussianBlur result="blurOut" stdDeviation="2.0"/><feColorMatrix in="blurOut" result="blurOut2" type="matrix" values="0 0 0 0 0 0 0 0 0 0 0 0 0 0 0 0 0 0 .4 0"/><feOffset dx="4.0" dy="4.0" in="blurOut2" result="blurOut3"/><feBlend in="SourceGraphic" in2="blurOut3" mode="normal"/></filter></defs><g><!--MD5=[f4e70ef68289585296b9045165e58692]
cluster controllers--><polygon fill="#FFFFFF" filter="url(#f13a6ulzkg3mj1)" points="16,467.5,99,467.5,106,491.1094,138,491.1094,138,569.5,16,569.5,16,467.5" style="stroke:#000000;stroke-width:1.5;"/><line style="stroke:#000000;stroke-width:1.5;" x1="16" x2="106" y1="491.1094" y2="491.1094"/><text fill="#000000" font-family="sans-serif" font-size="14" font-weight="bold" lengthAdjust="spacing" textLength="77" x="20" y="484.0332">controllers</text><!--MD5=[e2a75efa8a0f57c2afae8bf75386f79c]
cluster views--><polygon fill="#FFFFFF" filter="url(#f13a6ulzkg3mj1)" points="26,173.5,73,173.5,80,197.1094,233,197.1094,233,395.5,26,395.5,26,173.5" style="stroke:#000000;stroke-width:1.5;"/><line style="stroke:#000000;stroke-width:1.5;" x1="26" x2="80" y1="197.1094" y2="197.1094"/><text fill="#000000" font-family="sans-serif" font-size="14" font-weight="bold" lengthAdjust="spacing" textLength="41" x="30" y="190.0332">views</text><rect fill="#FEFECE" filter="url(#f13a6ulzkg3mj1)" height="50.1875" style="stroke:#A80036;stroke-width:1.5;" width="90" x="32" y="503.5"/><text fill="#000000" font-family="sans-serif" font-size="12" lengthAdjust="spacing" textLength="72" x="41" y="517.957">exitController</text><text fill="#000000" font-family="sans-serif" font-size="12" lengthAdjust="spacing" textLength="76" x="39" y="533.0508">:ExitController</text><line style="stroke:#A80036;stroke-width:1.5;" x1="33" x2="121" y1="537.6875" y2="537.6875"/><rect fill="#FEFECE" filter="url(#f13a6ulzkg3mj1)" height="35.0938" style="stroke:#A80036;stroke-width:1.5;" width="87" x="42.5" y="209.5"/><text fill="#000000" font-family="sans-serif" font-size="12" lengthAdjust="spacing" textLength="73" x="49.5" y="223.957">ProposeView</text><line style="stroke:#A80036;stroke-width:1.5;" x1="43.5" x2="128.5" y1="228.5938" y2="228.5938"/><rect fill="#FEFECE" filter="url(#f13a6ulzkg3mj1)" height="35.0938" style="stroke:#A80036;stroke-width:1.5;" width="70" x="42" y="344.5"/><text fill="#000000" font-family="sans-serif" font-size="12" lengthAdjust="spacing" textLength="56" x="49" y="358.957">MenuView</text><line style="stroke:#A80036;stroke-width:1.5;" x1="43" x2="111" y1="363.5938" y2="363.5938"/><!--MD5=[fb2f237e4154b78a31e896754c8f6e24]
entity Playerr--><ellipse cx="86" cy="14" fill="#FEFECE" filter="url(#f13a6ulzkg3mj1)" rx="8" ry="8" style="stroke:#A80036;stroke-width:1.5;"/><path d="M86,22 L86,49 M73,30 L99,30 M86,49 L73,64 M86,49 L99,64 " fill="none" filter="url(#f13a6ulzkg3mj1)" style="stroke:#A80036;stroke-width:1.5;"/><text fill="#000000" font-family="sans-serif" font-size="14" lengthAdjust="spacing" textLength="40" x="66" y="84.0332">Player</text><!--MD5=[e3696d9236ab81b9c531042c396ead94]
link Playerr to ProposeView--><path codeLine="14" d="M86,87.62 C86,123.74 86,175.19 86,204.1 " fill="none" id="Playerr-to-ProposeView" style="stroke:#A80036;stroke-width:1.0;"/><polygon fill="#A80036" points="86,209.23,90,200.23,86,204.23,82,200.23,86,209.23" style="stroke:#A80036;stroke-width:1.0;"/><path d="M91,122.5 L91,148.5 L141,148.5 L141,132.5 L131,122.5 L91,122.5 " fill="#FBFB77" filter="url(#f13a6ulzkg3mj1)" style="stroke:#A80036;stroke-width:1.0;"/><path d="M131,122.5 L131,132.5 L141,132.5 L131,122.5 " fill="#FBFB77" style="stroke:#A80036;stroke-width:1.0;"/><text fill="#000000" font-family="sans-serif" font-size="13" lengthAdjust="spacing" textLength="29" x="97" y="140.9951">exit()</text><!--MD5=[9c3c49d2c46e41492ade90d337e2ed2e]
link ProposeView to MenuView--><path codeLine="18" d="M84.88,244.58 C83.26,268.47 80.27,312.63 78.48,339.16 " fill="none" id="ProposeView-to-MenuView" style="stroke:#A80036;stroke-width:1.0;stroke-dasharray:7.0,7.0;"/><polygon fill="#A80036" points="78.14,344.22,82.748,335.5156,78.483,339.2318,74.7669,334.9668,78.14,344.22" style="stroke:#A80036;stroke-width:1.0;"/><path d="M87,279.5 L87,305.5 L213,305.5 L213,289.5 L203,279.5 L87,279.5 " fill="#FBFB77" filter="url(#f13a6ulzkg3mj1)" style="stroke:#A80036;stroke-width:1.0;"/><path d="M203,279.5 L203,289.5 L213,289.5 L203,279.5 " fill="#FBFB77" style="stroke:#A80036;stroke-width:1.0;"/><text fill="#000000" font-family="sans-serif" font-size="13" lengthAdjust="spacing" textLength="105" x="93" y="297.9951">exit(exitController)</text><!--MD5=[e067ccc00e917b2dc2de08ea966bf1ed]
link MenuView to ExitController--><path codeLine="22" d="M77,379.68 C77,407.44 77,463.46 77,498.01 " fill="none" id="MenuView-to-ExitController" style="stroke:#A80036;stroke-width:1.0;stroke-dasharray:7.0,7.0;"/><polygon fill="#A80036" points="77,503.36,81,494.36,77,498.36,73,494.36,77,503.36" style="stroke:#A80036;stroke-width:1.0;"/><path d="M82,416.5 L82,442.5 L132,442.5 L132,426.5 L122,416.5 L82,416.5 " fill="#FBFB77" filter="url(#f13a6ulzkg3mj1)" style="stroke:#A80036;stroke-width:1.0;"/><path d="M122,416.5 L122,426.5 L132,426.5 L122,416.5 " fill="#FBFB77" style="stroke:#A80036;stroke-width:1.0;"/><text fill="#000000" font-family="sans-serif" font-size="13" lengthAdjust="spacing" textLength="29" x="88" y="434.9951">exit()</text><!--MD5=[5a8cd7d4faf1984890793ca087d3d1ed]
@startuml mastermind_analisis_usecase_exit
allow_mixing

actor :Player: as Playerr

package controllers  {
    object "exitController\n:ExitController" as ExitController
}

package views {
    object ProposeView
    object MenuView
}

Playerr - -> ProposeView
note on link
    exit()
end note
ProposeView ..> MenuView
note on link
    exit(exitController)
end note
MenuView ..> ExitController
note on link
    exit()
end note
@enduml

PlantUML version 1.2021.00(Sun Jan 10 11:25:05 CET 2021)
(GPL source distribution)
Java Runtime: Java(TM) SE Runtime Environment
JVM: Java HotSpot(TM) 64-Bit Server VM
Default Encoding: Cp1252
Language: es
Country: ES
--></g></svg>