<?xml version="1.0" encoding="UTF-8" standalone="no"?><svg xmlns="http://www.w3.org/2000/svg" xmlns:xlink="http://www.w3.org/1999/xlink" contentScriptType="application/ecmascript" contentStyleType="text/css" height="1420px" preserveAspectRatio="none" style="width:875px;height:1420px;" version="1.1" viewBox="0 0 875 1420" width="875px" zoomAndPan="magnify"><defs><filter height="300%" id="fiuiz9nd2m1fl" width="300%" x="-1" y="-1"><feGaussianBlur result="blurOut" stdDeviation="2.0"/><feColorMatrix in="blurOut" result="blurOut2" type="matrix" values="0 0 0 0 0 0 0 0 0 0 0 0 0 0 0 0 0 0 .4 0"/><feOffset dx="4.0" dy="4.0" in="blurOut2" result="blurOut3"/><feBlend in="SourceGraphic" in2="blurOut3" mode="normal"/></filter></defs><g><g id="IN_GAME"><rect fill="#FEFECE" filter="url(#fiuiz9nd2m1fl)" height="50" rx="12.5" ry="12.5" style="stroke:#A80036;stroke-width:1.5;" width="83" x="231.8432" y="87"/><line style="stroke:#A80036;stroke-width:1.5;" x1="231.8432" x2="314.8432" y1="113.2969" y2="113.2969"/><text fill="#000000" font-family="sans-serif" font-size="14" lengthAdjust="spacing" textLength="63" x="241.8432" y="104.9951">IN_GAME</text></g><g id="requested"><rect fill="#FEFECE" filter="url(#fiuiz9nd2m1fl)" height="50" rx="12.5" ry="12.5" style="stroke:#A80036;stroke-width:1.5;" width="50" x="248.3432" y="214"/><line style="stroke:#A80036;stroke-width:1.5;" x1="248.3432" x2="298.3432" y1="240.2969" y2="240.2969"/><text fill="#000000" font-family="sans-serif" font-size="14" lengthAdjust="spacing" textLength="0" x="275.3432" y="231.9951"/></g><g id="allowed"><rect fill="#FEFECE" filter="url(#fiuiz9nd2m1fl)" height="50" rx="12.5" ry="12.5" style="stroke:#A80036;stroke-width:1.5;" width="50" x="248.3432" y="341"/><line style="stroke:#A80036;stroke-width:1.5;" x1="248.3432" x2="298.3432" y1="367.2969" y2="367.2969"/><text fill="#000000" font-family="sans-serif" font-size="14" lengthAdjust="spacing" textLength="0" x="275.3432" y="358.9951"/></g><g id="error"><rect fill="#FEFECE" filter="url(#fiuiz9nd2m1fl)" height="50" rx="12.5" ry="12.5" style="stroke:#A80036;stroke-width:1.5;" width="50" x="125.3434" y="718"/><line style="stroke:#A80036;stroke-width:1.5;" x1="125.3434" x2="175.3434" y1="744.2969" y2="744.2969"/><text fill="#000000" font-family="sans-serif" font-size="14" lengthAdjust="spacing" textLength="0" x="152.3434" y="735.9951"/></g><g id="ShowBoard"><rect fill="#FEFECE" filter="url(#fiuiz9nd2m1fl)" height="50" rx="12.5" ry="12.5" style="stroke:#A80036;stroke-width:1.5;" width="104" x="432.3432" y="638"/><line style="stroke:#A80036;stroke-width:1.5;" x1="432.3432" x2="536.3432" y1="664.2969" y2="664.2969"/><text fill="#000000" font-family="sans-serif" font-size="14" lengthAdjust="spacing" textLength="84" x="442.3432" y="655.9951">Show board</text></g><g id="winner"><rect fill="#FEFECE" filter="url(#fiuiz9nd2m1fl)" height="50" rx="12.5" ry="12.5" style="stroke:#A80036;stroke-width:1.5;" width="50" x="389.3432" y="1104"/><line style="stroke:#A80036;stroke-width:1.5;" x1="389.3432" x2="439.3432" y1="1130.2969" y2="1130.2969"/><text fill="#000000" font-family="sans-serif" font-size="14" lengthAdjust="spacing" textLength="0" x="416.3432" y="1121.9951"/></g><g id="looser"><rect fill="#FEFECE" filter="url(#fiuiz9nd2m1fl)" height="50" rx="12.5" ry="12.5" style="stroke:#A80036;stroke-width:1.5;" width="50" x="619.3432" y="1104"/><line style="stroke:#A80036;stroke-width:1.5;" x1="619.3432" x2="669.3432" y1="1130.2969" y2="1130.2969"/><text fill="#000000" font-family="sans-serif" font-size="14" lengthAdjust="spacing" textLength="0" x="646.3432" y="1121.9951"/></g><g id="finished"><rect fill="#FEFECE" filter="url(#fiuiz9nd2m1fl)" height="50" rx="12.5" ry="12.5" style="stroke:#A80036;stroke-width:1.5;" width="50" x="388.3432" y="1261"/><line style="stroke:#A80036;stroke-width:1.5;" x1="388.3432" x2="438.3432" y1="1287.2969" y2="1287.2969"/><text fill="#000000" font-family="sans-serif" font-size="14" lengthAdjust="spacing" textLength="0" x="415.3432" y="1278.9951"/></g><g id="last"><rect fill="#FEFECE" filter="url(#fiuiz9nd2m1fl)" height="50" rx="12.5" ry="12.5" style="stroke:#A80036;stroke-width:1.5;" width="50" x="141.3432" y="938"/><line style="stroke:#A80036;stroke-width:1.5;" x1="141.3432" x2="191.3432" y1="964.2969" y2="964.2969"/><text fill="#000000" font-family="sans-serif" font-size="14" lengthAdjust="spacing" textLength="0" x="168.3432" y="955.9951"/></g><polygon fill="#FEFECE" filter="url(#fiuiz9nd2m1fl)" points="273.3432,468,285.3432,480,273.3432,492,261.3432,480,273.3432,468" style="stroke:#A80036;stroke-width:1.5;"/><polygon fill="#FEFECE" filter="url(#fiuiz9nd2m1fl)" points="418.3432,798,430.3432,810,418.3432,822,406.3432,810,418.3432,798" style="stroke:#A80036;stroke-width:1.5;"/><polygon fill="#FEFECE" filter="url(#fiuiz9nd2m1fl)" points="418.3432,951,430.3432,963,418.3432,975,406.3432,963,418.3432,951" style="stroke:#A80036;stroke-width:1.5;"/><ellipse cx="273.3432" cy="16" fill="#000000" filter="url(#fiuiz9nd2m1fl)" rx="10" ry="10" style="stroke:none;stroke-width:1.0;"/><ellipse cx="242.3432" cy="1398" filter="url(#fiuiz9nd2m1fl)" rx="10" ry="10" style="stroke:#000000;stroke-width:1.0;fill:none;"/><ellipse cx="242.8432" cy="1398.5" fill="#000000" rx="6" ry="6" style="stroke:none;stroke-width:1.0;"/><!--MD5=[bc741243a5bb3318d84c2be45b028a19]
link *start to IN_GAME--><path d="M273.3432,26.01 C273.3432,38.7 273.3432,62.41 273.3432,81.57 " fill="none" id="*start-to-IN_GAME" style="stroke:#A80036;stroke-width:1.0;"/><polygon fill="#A80036" points="273.3432,86.84,277.3432,77.84,273.3432,81.84,269.3432,77.84,273.3432,86.84" style="stroke:#A80036;stroke-width:1.0;"/><!--MD5=[cb6173ff77cdc04f8d8e07efcd41f8ff]
link IN_GAME to requested--><path d="M273.3432,137.1 C273.3432,157.59 273.3432,187.08 273.3432,208.88 " fill="none" id="IN_GAME-to-requested" style="stroke:#A80036;stroke-width:1.0;"/><polygon fill="#A80036" points="273.3432,213.97,277.3432,204.97,273.3432,208.97,269.3432,204.97,273.3432,213.97" style="stroke:#A80036;stroke-width:1.0;"/><text fill="#000000" font-family="sans-serif" font-size="13" lengthAdjust="spacing" textLength="251" x="274.3432" y="180.0669">Player requests propose a combination</text><!--MD5=[88d5e542042b4fb9fa98fbbb3d94e471]
link requested to allowed--><path d="M273.3432,264.1 C273.3432,284.59 273.3432,314.08 273.3432,335.88 " fill="none" id="requested-to-allowed" style="stroke:#A80036;stroke-width:1.0;"/><polygon fill="#A80036" points="273.3432,340.97,277.3432,331.97,273.3432,335.97,269.3432,331.97,273.3432,340.97" style="stroke:#A80036;stroke-width:1.0;"/><text fill="#000000" font-family="sans-serif" font-size="13" lengthAdjust="spacing" textLength="268" x="274.3432" y="307.0669">System requests a proposed combination</text><!--MD5=[e5cc7d208b298153099280e3951d184e]
link allowed to is_correct--><path d="M273.3432,391.03 C273.3432,412.579 273.3432,443.634 273.3432,462.501 " fill="none" id="allowed-to-is_correct" style="stroke:#A80036;stroke-width:1.0;"/><polygon fill="#A80036" points="273.3432,467.941,277.3432,458.941,273.3432,462.941,269.3432,458.941,273.3432,467.941" style="stroke:#A80036;stroke-width:1.0;"/><text fill="#000000" font-family="sans-serif" font-size="13" lengthAdjust="spacing" textLength="270" x="274.3432" y="434.0669">Player introduces a proposed combination</text><!--MD5=[322e35916e3fe5ed92d20e54a8addb28]
link is_correct to ShowBoard--><path d="M283.9832,481.744 C320.2872,484.506 438.4062,495.423 463.3432,522 C491.0842,551.565 491.7942,601.158 488.7902,632.692 " fill="none" id="is_correct-to-ShowBoard" style="stroke:#A80036;stroke-width:1.0;"/><polygon fill="#A80036" points="488.2362,637.976,493.1529,629.4422,488.7576,633.0033,485.1966,628.6079,488.2362,637.976" style="stroke:#A80036;stroke-width:1.0;"/><!--MD5=[08af5ad016320016223ca6c53ecc136d]
link is_correct to error--><path d="M262.4092,481.297 C222.0232,482.645 82.2037,489.617 55.3434,522 C6,581.489 78.3027,670.495 121.6819,714.849 " fill="none" id="is_correct-to-error" style="stroke:#A80036;stroke-width:1.0;"/><polygon fill="#A80036" points="125.2684,718.482,121.792,709.2671,121.7557,714.9238,116.0989,714.8875,125.2684,718.482" style="stroke:#A80036;stroke-width:1.0;"/><text fill="#000000" font-family="sans-serif" font-size="13" lengthAdjust="spacing" textLength="213" x="148.8434" y="535.0669">[incorrect proposed combination]</text><path d="M60.3434,544.1328 L60.3434,599.1328 L446.3434,599.1328 L446.3434,554.1328 L436.3434,544.1328 L60.3434,544.1328 " fill="#FBFB77" filter="url(#fiuiz9nd2m1fl)" style="stroke:#A80036;stroke-width:1.0;"/><path d="M436.3434,544.1328 L436.3434,554.1328 L446.3434,554.1328 L436.3434,544.1328 " fill="#FBFB77" style="stroke:#A80036;stroke-width:1.0;"/><text fill="#000000" font-family="sans-serif" font-size="13" lengthAdjust="spacing" textLength="258" x="66.3434" y="561.1997">proposedCombination.colors.length != 4</text><text fill="#000000" font-family="sans-serif" font-size="13" lengthAdjust="spacing" textLength="325" x="66.3434" y="576.3325">proposedCombination.colors at least one repeated</text><text fill="#000000" font-family="sans-serif" font-size="13" lengthAdjust="spacing" textLength="365" x="66.3434" y="591.4653">proposedCombination.colors at least one != Color.values</text><!--MD5=[8861f036e8dce612437ba5673f8e2184]
link error to last--><path d="M152.1172,768.163 C155.0722,808.43 160.9942,889.123 164.1862,932.615 " fill="none" id="error-to-last" style="stroke:#A80036;stroke-width:1.0;"/><polygon fill="#A80036" points="164.5622,937.729,167.8906,928.4596,164.1951,932.7425,159.9122,929.047,164.5622,937.729" style="stroke:#A80036;stroke-width:1.0;"/><text fill="#000000" font-family="sans-serif" font-size="13" lengthAdjust="spacing" textLength="129" x="157.3432" y="814.5669">System shows error</text><!--MD5=[4eba416b40db52bd3d240c8af95f74c8]
link ShowBoard to is_finished--><path d="M473.2962,688.27 C459.0442,719.581 434.7942,772.857 423.9152,796.759 " fill="none" id="ShowBoard-to-is_finished" style="stroke:#A80036;stroke-width:1.0;"/><polygon fill="#A80036" points="421.8042,801.396,429.173,794.8614,423.8754,796.8451,421.8916,791.5475,421.8042,801.396" style="stroke:#A80036;stroke-width:1.0;"/><!--MD5=[bafe74a506a7eedf19f245ac5d89b009]
link is_finished to is_winner--><path d="M418.3432,822.35 C418.3432,848.823 418.3432,914.746 418.3432,945.595 " fill="none" id="is_finished-to-is_winner" style="stroke:#A80036;stroke-width:1.0;"/><polygon fill="#A80036" points="418.3432,950.929,422.3432,941.929,418.3432,945.929,414.3432,941.929,418.3432,950.929" style="stroke:#A80036;stroke-width:1.0;"/><text fill="#000000" font-family="sans-serif" font-size="13" lengthAdjust="spacing" textLength="60" x="451.8432" y="865.0669">[finished]</text><path d="M423.3432,874.1328 L423.3432,899.1328 L536.3432,899.1328 L536.3432,884.1328 L526.3432,874.1328 L423.3432,874.1328 " fill="#FBFB77" filter="url(#fiuiz9nd2m1fl)" style="stroke:#A80036;stroke-width:1.0;"/><path d="M526.3432,874.1328 L526.3432,884.1328 L536.3432,884.1328 L526.3432,874.1328 " fill="#FBFB77" style="stroke:#A80036;stroke-width:1.0;"/><text fill="#000000" font-family="sans-serif" font-size="13" lengthAdjust="spacing" textLength="92" x="429.3432" y="891.1997">winner || loser</text><!--MD5=[a9edb36823706432e4cf5dbd7f7fd8ac]
link is_winner to winner--><path d="M418.0812,974.76 C417.4762,999.552 415.9682,1061.401 415.0632,1098.503 " fill="none" id="is_winner-to-winner" style="stroke:#A80036;stroke-width:1.0;"/><polygon fill="#A80036" points="414.9342,1103.79,419.1516,1094.8898,415.0556,1098.7915,411.1539,1094.6955,414.9342,1103.79" style="stroke:#A80036;stroke-width:1.0;"/><text fill="#000000" font-family="sans-serif" font-size="13" lengthAdjust="spacing" textLength="53" x="460.3432" y="1031.0669">[winner]</text><path d="M421.3432,1040.1328 L421.3432,1065.1328 L548.3432,1065.1328 L548.3432,1050.1328 L538.3432,1040.1328 L421.3432,1040.1328 " fill="#FBFB77" filter="url(#fiuiz9nd2m1fl)" style="stroke:#A80036;stroke-width:1.0;"/><path d="M538.3432,1040.1328 L538.3432,1050.1328 L548.3432,1050.1328 L538.3432,1040.1328 " fill="#FBFB77" style="stroke:#A80036;stroke-width:1.0;"/><text fill="#000000" font-family="sans-serif" font-size="13" lengthAdjust="spacing" textLength="106" x="427.3432" y="1057.1997">result.blacks = 4</text><!--MD5=[110b45469edeaa4781f2fa19a67a7221]
link is_winner to looser--><path d="M427.8732,965.496 C452.7412,969.793 520.7562,984.104 565.3432,1018 C593.8892,1039.701 616.4602,1074.585 630.0452,1099.243 " fill="none" id="is_winner-to-looser" style="stroke:#A80036;stroke-width:1.0;"/><polygon fill="#A80036" points="632.4762,1103.723,631.6974,1093.905,630.0906,1099.3288,624.6667,1097.722,632.4762,1103.723" style="stroke:#A80036;stroke-width:1.0;"/><text fill="#000000" font-family="sans-serif" font-size="13" lengthAdjust="spacing" textLength="41" x="723.8432" y="1031.0669">[loser]</text><path d="M618.3432,1040.1328 L618.3432,1065.1328 L866.3432,1065.1328 L866.3432,1050.1328 L856.3432,1040.1328 L618.3432,1040.1328 " fill="#FBFB77" filter="url(#fiuiz9nd2m1fl)" style="stroke:#A80036;stroke-width:1.0;"/><path d="M856.3432,1040.1328 L856.3432,1050.1328 L866.3432,1050.1328 L856.3432,1040.1328 " fill="#FBFB77" style="stroke:#A80036;stroke-width:1.0;"/><text fill="#000000" font-family="sans-serif" font-size="13" lengthAdjust="spacing" textLength="227" x="624.3432" y="1057.1997">result.blacks &lt; 4 &amp;&amp; attempts = 10</text><!--MD5=[6a9906541693f74107af026827f0d8df]
link is_finished to last--><path d="M411.3402,815.196 C380.2732,833.812 253.8862,909.544 195.7992,944.35 " fill="none" id="is_finished-to-last" style="stroke:#A80036;stroke-width:1.0;"/><polygon fill="#A80036" points="191.4012,946.985,201.1773,945.7898,195.6901,944.4148,197.065,938.9276,191.4012,946.985" style="stroke:#A80036;stroke-width:1.0;"/><!--MD5=[ff0ac845adfb42913b3584196bbdcdc5]
link winner to finished--><path d="M412.1692,1154.172 C411.4322,1163.486 410.7052,1174.23 410.3432,1184 C409.5712,1204.875 409.7642,1210.119 410.3432,1231 C410.5632,1238.931 410.9652,1247.51 411.4042,1255.444 " fill="none" id="winner-to-finished" style="stroke:#A80036;stroke-width:1.0;"/><polygon fill="#A80036" points="411.7132,1260.819,415.1923,1251.6051,411.4275,1255.8272,407.2054,1252.0623,411.7132,1260.819" style="stroke:#A80036;stroke-width:1.0;"/><text fill="#000000" font-family="sans-serif" font-size="13" lengthAdjust="spacing" textLength="204" x="411.3432" y="1212.0669">System shows winner message</text><!--MD5=[86935a91d5f22b7ec58c171ad0db4001]
link looser to finished--><path d="M645.2402,1154.122 C644.7322,1176.943 640.2572,1210.645 620.3432,1231 C595.8602,1256.025 495.1762,1273.477 443.8012,1280.939 " fill="none" id="looser-to-finished" style="stroke:#A80036;stroke-width:1.0;"/><polygon fill="#A80036" points="438.6882,1281.672,448.1649,1284.3536,443.6375,1280.9621,447.0291,1276.4347,438.6882,1281.672" style="stroke:#A80036;stroke-width:1.0;"/><text fill="#000000" font-family="sans-serif" font-size="13" lengthAdjust="spacing" textLength="192" x="642.3432" y="1212.0669">System shows loser message</text><!--MD5=[62f5431c62ca06a9e4048299cbf52b51]
link last to *end--><path d="M167.4422,988.145 C169.9002,1035.237 177.0462,1142.487 194.3432,1231 C205.6102,1288.653 227.7242,1355.2296 237.4992,1383.3478 " fill="none" id="last-to-*end" style="stroke:#A80036;stroke-width:1.0;"/><polygon fill="#A80036" points="239.1762,1388.1398,239.9791,1378.3237,237.5248,1383.4204,232.4281,1380.966,239.1762,1388.1398" style="stroke:#A80036;stroke-width:1.0;"/><text fill="#000000" font-family="sans-serif" font-size="13" lengthAdjust="spacing" textLength="149" x="223.3432" y="1197.0669">System allows Propose</text><text fill="#000000" font-family="sans-serif" font-size="13" lengthAdjust="spacing" textLength="205" x="195.3432" y="1212.1997">System allows Undo if undoable</text><text fill="#000000" font-family="sans-serif" font-size="13" lengthAdjust="spacing" textLength="202" x="196.8432" y="1227.3325">System allows Redo if redoable</text><!--MD5=[f20ab7065c26ebabf49f7b8c32a28769]
link finished to *end--><path d="M388.1122,1303.231 C350.8752,1327.1844 282.6072,1371.0994 254.7122,1389.0432 " fill="none" id="finished-to-*end" style="stroke:#A80036;stroke-width:1.0;"/><polygon fill="#A80036" points="250.2902,1391.8877,260.0236,1390.3838,254.4956,1389.1832,255.6963,1383.6552,250.2902,1391.8877" style="stroke:#A80036;stroke-width:1.0;"/><text fill="#000000" font-family="sans-serif" font-size="13" lengthAdjust="spacing" textLength="247" x="328.3432" y="1354.0669">System allows to resume a new game</text><!--MD5=[fb2748e20572b925e72bbe976ff14c5f]
@startuml
state IN_GAME
state requested as " "
state allowed as " "
state error as " "
state ShowBoard as "Show board"
state winner as " "
state looser as " "
state finished as " "
state last as " "
state is_correct <<choice>>
state is_finished <<choice>>
state is_winner <<choice>>

[*] - -> IN_GAME
IN_GAME - -> requested: Player requests propose a combination
requested - -> allowed: System requests a proposed combination
allowed - -> is_correct: Player introduces a proposed combination
is_correct - -> ShowBoard
is_correct - -> error: [incorrect proposed combination]
note on link
  proposedCombination.colors.length != 4
  proposedCombination.colors at least one repeated
  proposedCombination.colors at least one != Color.values
end note
error - -> last: System shows error
ShowBoard - -> is_finished
is_finished - -> is_winner: [finished]
note on link
  winner || loser
end note
is_winner - -> winner: [winner]
note on link
  result.blacks = 4
end note
is_winner - -> looser: [loser]
note on link
  result.blacks < 4 && attempts = 10
end note
is_finished - -> last
winner - -> finished: System shows winner message
looser - -> finished: System shows loser message
last - -> [*]: System allows Propose\nSystem allows Undo if undoable\nSystem allows Redo if redoable
finished - -> [*]: System allows to resume a new game
@enduml

PlantUML version 1.2021.4beta3(Unknown compile time)
(GPL source distribution)
Java Runtime: Java(TM) SE Runtime Environment
JVM: Java HotSpot(TM) 64-Bit Server VM
Default Encoding: UTF-8
Language: en
Country: US
--></g></svg>