<?xml version="1.0" encoding="UTF-8" standalone="no"?><svg xmlns="http://www.w3.org/2000/svg" xmlns:xlink="http://www.w3.org/1999/xlink" contentScriptType="application/ecmascript" contentStyleType="text/css" height="687px" preserveAspectRatio="none" style="width:953px;height:687px;" version="1.1" viewBox="0 0 953 687" width="953px" zoomAndPan="magnify"><defs><filter height="300%" id="f17qv0g4hme258" width="300%" x="-1" y="-1"><feGaussianBlur result="blurOut" stdDeviation="2.0"/><feColorMatrix in="blurOut" result="blurOut2" type="matrix" values="0 0 0 0 0 0 0 0 0 0 0 0 0 0 0 0 0 0 .4 0"/><feOffset dx="4.0" dy="4.0" in="blurOut2" result="blurOut3"/><feBlend in="SourceGraphic" in2="blurOut3" mode="normal"/></filter></defs><g><rect fill="#FFFFFF" filter="url(#f17qv0g4hme258)" height="21.1328" style="stroke:#A80036;stroke-width:1.0;" width="10" x="23" y="98.2969"/><rect fill="#FFFFFF" filter="url(#f17qv0g4hme258)" height="29.1328" style="stroke:#A80036;stroke-width:1.0;" width="10" x="99" y="119.4297"/><rect fill="#FFFFFF" filter="url(#f17qv0g4hme258)" height="58.2656" style="stroke:#A80036;stroke-width:1.0;" width="10" x="203" y="148.5625"/><rect fill="#FFFFFF" filter="url(#f17qv0g4hme258)" height="29.1328" style="stroke:#A80036;stroke-width:1.0;" width="10" x="203" y="556.4219"/><rect fill="#FFFFFF" filter="url(#f17qv0g4hme258)" height="29.1328" style="stroke:#A80036;stroke-width:1.0;" width="10" x="389.5" y="206.8281"/><rect fill="#FFFFFF" filter="url(#f17qv0g4hme258)" height="29.1328" style="stroke:#A80036;stroke-width:1.0;" width="10" x="389.5" y="527.2891"/><rect fill="#FFFFFF" filter="url(#f17qv0g4hme258)" height="29.1328" style="stroke:#A80036;stroke-width:1.0;" width="10" x="507.5" y="235.9609"/><rect fill="#FFFFFF" filter="url(#f17qv0g4hme258)" height="29.1328" style="stroke:#A80036;stroke-width:1.0;" width="10" x="507.5" y="498.1563"/><rect fill="#FFFFFF" filter="url(#f17qv0g4hme258)" height="29.1328" style="stroke:#A80036;stroke-width:1.0;" width="10" x="610.5" y="265.0938"/><rect fill="#FFFFFF" filter="url(#f17qv0g4hme258)" height="58.2656" style="stroke:#A80036;stroke-width:1.0;" width="10" x="610.5" y="352.4922"/><rect fill="#FFFFFF" filter="url(#f17qv0g4hme258)" height="29.1328" style="stroke:#A80036;stroke-width:1.0;" width="10" x="610.5" y="469.0234"/><rect fill="#FFFFFF" filter="url(#f17qv0g4hme258)" height="58.2656" style="stroke:#A80036;stroke-width:1.0;" width="10" x="719.5" y="294.2266"/><rect fill="#FFFFFF" filter="url(#f17qv0g4hme258)" height="29.1328" style="stroke:#A80036;stroke-width:1.0;" width="10" x="807" y="439.8906"/><rect fill="#FFFFFF" filter="url(#f17qv0g4hme258)" height="29.1328" style="stroke:#A80036;stroke-width:1.0;" width="10" x="914" y="410.7578"/><line style="stroke:#A80036;stroke-width:1.0;stroke-dasharray:5.0,5.0;" x1="28" x2="28" y1="88.2969" y2="603.5547"/><line style="stroke:#A80036;stroke-width:1.0;stroke-dasharray:5.0,5.0;" x1="104" x2="104" y1="88.2969" y2="603.5547"/><line style="stroke:#A80036;stroke-width:1.0;stroke-dasharray:5.0,5.0;" x1="208" x2="208" y1="88.2969" y2="603.5547"/><line style="stroke:#A80036;stroke-width:1.0;stroke-dasharray:5.0,5.0;" x1="309" x2="309" y1="88.2969" y2="603.5547"/><line style="stroke:#A80036;stroke-width:1.0;stroke-dasharray:5.0,5.0;" x1="394" x2="394" y1="88.2969" y2="603.5547"/><line style="stroke:#A80036;stroke-width:1.0;stroke-dasharray:5.0,5.0;" x1="512.5" x2="512.5" y1="88.2969" y2="603.5547"/><line style="stroke:#A80036;stroke-width:1.0;stroke-dasharray:5.0,5.0;" x1="615" x2="615" y1="88.2969" y2="603.5547"/><line style="stroke:#A80036;stroke-width:1.0;stroke-dasharray:5.0,5.0;" x1="724" x2="724" y1="88.2969" y2="603.5547"/><line style="stroke:#A80036;stroke-width:1.0;stroke-dasharray:5.0,5.0;" x1="812" x2="812" y1="88.2969" y2="603.5547"/><line style="stroke:#A80036;stroke-width:1.0;stroke-dasharray:5.0,5.0;" x1="918.5" x2="918.5" y1="88.2969" y2="603.5547"/><text fill="#000000" font-family="sans-serif" font-size="14" lengthAdjust="spacing" textLength="40" x="5" y="84.9951">Actor</text><ellipse cx="28" cy="15" fill="#FEFECE" filter="url(#f17qv0g4hme258)" rx="8" ry="8" style="stroke:#A80036;stroke-width:2.0;"/><path d="M28,23 L28,50 M15,31 L41,31 M28,50 L15,65 M28,50 L41,65 " fill="none" filter="url(#f17qv0g4hme258)" style="stroke:#A80036;stroke-width:2.0;"/><text fill="#000000" font-family="sans-serif" font-size="14" lengthAdjust="spacing" textLength="40" x="5" y="615.5498">Actor</text><ellipse cx="28" cy="628.8516" fill="#FEFECE" filter="url(#f17qv0g4hme258)" rx="8" ry="8" style="stroke:#A80036;stroke-width:2.0;"/><path d="M28,636.8516 L28,663.8516 M15,644.8516 L41,644.8516 M28,663.8516 L15,678.8516 M28,663.8516 L41,678.8516 " fill="none" filter="url(#f17qv0g4hme258)" style="stroke:#A80036;stroke-width:2.0;"/><text fill="#000000" font-family="sans-serif" font-size="14" lengthAdjust="spacing" textLength="80" x="61" y="84.9951">XTemplate</text><path d="M83.5,44 L83.5,68 M83.5,56 L100.5,56 " fill="none" filter="url(#f17qv0g4hme258)" style="stroke:#A80036;stroke-width:2.0;"/><ellipse cx="112.5" cy="56" fill="#FEFECE" filter="url(#f17qv0g4hme258)" rx="12" ry="12" style="stroke:#A80036;stroke-width:2.0;"/><text fill="#000000" font-family="sans-serif" font-size="14" lengthAdjust="spacing" textLength="80" x="61" y="615.5498">XTemplate</text><path d="M83.5,622.8516 L83.5,646.8516 M83.5,634.8516 L100.5,634.8516 " fill="none" filter="url(#f17qv0g4hme258)" style="stroke:#A80036;stroke-width:2.0;"/><ellipse cx="112.5" cy="634.8516" fill="#FEFECE" filter="url(#f17qv0g4hme258)" rx="12" ry="12" style="stroke:#A80036;stroke-width:2.0;"/><text fill="#000000" font-family="sans-serif" font-size="14" lengthAdjust="spacing" textLength="96" x="157" y="84.9951">XComponent</text><path d="M187.5,44 L187.5,68 M187.5,56 L204.5,56 " fill="none" filter="url(#f17qv0g4hme258)" style="stroke:#A80036;stroke-width:2.0;"/><ellipse cx="216.5" cy="56" fill="#FEFECE" filter="url(#f17qv0g4hme258)" rx="12" ry="12" style="stroke:#A80036;stroke-width:2.0;"/><text fill="#000000" font-family="sans-serif" font-size="14" lengthAdjust="spacing" textLength="96" x="157" y="615.5498">XComponent</text><path d="M187.5,622.8516 L187.5,646.8516 M187.5,634.8516 L204.5,634.8516 " fill="none" filter="url(#f17qv0g4hme258)" style="stroke:#A80036;stroke-width:2.0;"/><ellipse cx="216.5" cy="634.8516" fill="#FEFECE" filter="url(#f17qv0g4hme258)" rx="12" ry="12" style="stroke:#A80036;stroke-width:2.0;"/><text fill="#000000" font-family="sans-serif" font-size="14" lengthAdjust="spacing" textLength="75" x="269" y="84.9951">XValidator</text><ellipse cx="309.5" cy="56" fill="#FEFECE" filter="url(#f17qv0g4hme258)" rx="12" ry="12" style="stroke:#A80036;stroke-width:2.0;"/><polygon fill="#A80036" points="305.5,44,311.5,39,309.5,44,311.5,49,305.5,44" style="stroke:#A80036;stroke-width:1.0;"/><text fill="#000000" font-family="sans-serif" font-size="14" lengthAdjust="spacing" textLength="75" x="269" y="615.5498">XValidator</text><ellipse cx="309.5" cy="634.8516" fill="#FEFECE" filter="url(#f17qv0g4hme258)" rx="12" ry="12" style="stroke:#A80036;stroke-width:2.0;"/><polygon fill="#A80036" points="305.5,622.8516,311.5,617.8516,309.5,622.8516,311.5,627.8516,305.5,622.8516" style="stroke:#A80036;stroke-width:1.0;"/><text fill="#000000" font-family="sans-serif" font-size="14" lengthAdjust="spacing" textLength="63" x="360" y="84.9951">XService</text><ellipse cx="394.5" cy="56" fill="#FEFECE" filter="url(#f17qv0g4hme258)" rx="12" ry="12" style="stroke:#A80036;stroke-width:2.0;"/><polygon fill="#A80036" points="390.5,44,396.5,39,394.5,44,396.5,49,390.5,44" style="stroke:#A80036;stroke-width:1.0;"/><text fill="#000000" font-family="sans-serif" font-size="14" lengthAdjust="spacing" textLength="63" x="360" y="615.5498">XService</text><ellipse cx="394.5" cy="634.8516" fill="#FEFECE" filter="url(#f17qv0g4hme258)" rx="12" ry="12" style="stroke:#A80036;stroke-width:2.0;"/><polygon fill="#A80036" points="390.5,622.8516,396.5,617.8516,394.5,622.8516,396.5,627.8516,390.5,622.8516" style="stroke:#A80036;stroke-width:1.0;"/><text fill="#000000" font-family="sans-serif" font-size="14" lengthAdjust="spacing" textLength="76" x="471.5" y="84.9951">XResource</text><ellipse cx="512.5" cy="56" fill="#FEFECE" filter="url(#f17qv0g4hme258)" rx="12" ry="12" style="stroke:#A80036;stroke-width:2.0;"/><polygon fill="#A80036" points="508.5,44,514.5,39,512.5,44,514.5,49,508.5,44" style="stroke:#A80036;stroke-width:1.0;"/><text fill="#000000" font-family="sans-serif" font-size="14" lengthAdjust="spacing" textLength="76" x="471.5" y="615.5498">XResource</text><ellipse cx="512.5" cy="634.8516" fill="#FEFECE" filter="url(#f17qv0g4hme258)" rx="12" ry="12" style="stroke:#A80036;stroke-width:2.0;"/><polygon fill="#A80036" points="508.5,622.8516,514.5,617.8516,512.5,622.8516,514.5,627.8516,508.5,622.8516" style="stroke:#A80036;stroke-width:1.0;"/><text fill="#000000" font-family="sans-serif" font-size="14" lengthAdjust="spacing" textLength="83" x="571" y="84.9951">XController</text><ellipse cx="615.5" cy="56" fill="#FEFECE" filter="url(#f17qv0g4hme258)" rx="12" ry="12" style="stroke:#A80036;stroke-width:2.0;"/><polygon fill="#A80036" points="611.5,44,617.5,39,615.5,44,617.5,49,611.5,44" style="stroke:#A80036;stroke-width:1.0;"/><text fill="#000000" font-family="sans-serif" font-size="14" lengthAdjust="spacing" textLength="83" x="571" y="615.5498">XController</text><ellipse cx="615.5" cy="634.8516" fill="#FEFECE" filter="url(#f17qv0g4hme258)" rx="12" ry="12" style="stroke:#A80036;stroke-width:2.0;"/><polygon fill="#A80036" points="611.5,622.8516,617.5,617.8516,615.5,622.8516,617.5,627.8516,611.5,622.8516" style="stroke:#A80036;stroke-width:1.0;"/><text fill="#000000" font-family="sans-serif" font-size="14" lengthAdjust="spacing" textLength="89" x="677" y="84.9951">XRepository</text><ellipse cx="724.5" cy="56" fill="#FEFECE" filter="url(#f17qv0g4hme258)" rx="12" ry="12" style="stroke:#A80036;stroke-width:2.0;"/><line style="stroke:#A80036;stroke-width:2.0;" x1="712.5" x2="736.5" y1="70" y2="70"/><text fill="#000000" font-family="sans-serif" font-size="14" lengthAdjust="spacing" textLength="89" x="677" y="615.5498">XRepository</text><ellipse cx="724.5" cy="634.8516" fill="#FEFECE" filter="url(#f17qv0g4hme258)" rx="12" ry="12" style="stroke:#A80036;stroke-width:2.0;"/><line style="stroke:#A80036;stroke-width:2.0;" x1="712.5" x2="736.5" y1="648.8516" y2="648.8516"/><text fill="#000000" font-family="sans-serif" font-size="14" lengthAdjust="spacing" textLength="54" x="782" y="84.9951">XEntity</text><ellipse cx="812" cy="56" fill="#FEFECE" filter="url(#f17qv0g4hme258)" rx="12" ry="12" style="stroke:#A80036;stroke-width:2.0;"/><line style="stroke:#A80036;stroke-width:2.0;" x1="800" x2="824" y1="70" y2="70"/><text fill="#000000" font-family="sans-serif" font-size="14" lengthAdjust="spacing" textLength="54" x="782" y="615.5498">XEntity</text><ellipse cx="812" cy="634.8516" fill="#FEFECE" filter="url(#f17qv0g4hme258)" rx="12" ry="12" style="stroke:#A80036;stroke-width:2.0;"/><line style="stroke:#A80036;stroke-width:2.0;" x1="800" x2="824" y1="648.8516" y2="648.8516"/><text fill="#000000" font-family="sans-serif" font-size="14" lengthAdjust="spacing" textLength="37" x="897.5" y="84.9951">XDto</text><path d="M898.5,44 L898.5,68 M898.5,56 L915.5,56 " fill="none" filter="url(#f17qv0g4hme258)" style="stroke:#A80036;stroke-width:2.0;"/><ellipse cx="927.5" cy="56" fill="#FEFECE" filter="url(#f17qv0g4hme258)" rx="12" ry="12" style="stroke:#A80036;stroke-width:2.0;"/><text fill="#000000" font-family="sans-serif" font-size="14" lengthAdjust="spacing" textLength="37" x="897.5" y="615.5498">XDto</text><path d="M898.5,622.8516 L898.5,646.8516 M898.5,634.8516 L915.5,634.8516 " fill="none" filter="url(#f17qv0g4hme258)" style="stroke:#A80036;stroke-width:2.0;"/><ellipse cx="927.5" cy="634.8516" fill="#FEFECE" filter="url(#f17qv0g4hme258)" rx="12" ry="12" style="stroke:#A80036;stroke-width:2.0;"/><rect fill="#FFFFFF" filter="url(#f17qv0g4hme258)" height="21.1328" style="stroke:#A80036;stroke-width:1.0;" width="10" x="23" y="98.2969"/><rect fill="#FFFFFF" filter="url(#f17qv0g4hme258)" height="29.1328" style="stroke:#A80036;stroke-width:1.0;" width="10" x="99" y="119.4297"/><rect fill="#FFFFFF" filter="url(#f17qv0g4hme258)" height="58.2656" style="stroke:#A80036;stroke-width:1.0;" width="10" x="203" y="148.5625"/><rect fill="#FFFFFF" filter="url(#f17qv0g4hme258)" height="29.1328" style="stroke:#A80036;stroke-width:1.0;" width="10" x="203" y="556.4219"/><rect fill="#FFFFFF" filter="url(#f17qv0g4hme258)" height="29.1328" style="stroke:#A80036;stroke-width:1.0;" width="10" x="389.5" y="206.8281"/><rect fill="#FFFFFF" filter="url(#f17qv0g4hme258)" height="29.1328" style="stroke:#A80036;stroke-width:1.0;" width="10" x="389.5" y="527.2891"/><rect fill="#FFFFFF" filter="url(#f17qv0g4hme258)" height="29.1328" style="stroke:#A80036;stroke-width:1.0;" width="10" x="507.5" y="235.9609"/><rect fill="#FFFFFF" filter="url(#f17qv0g4hme258)" height="29.1328" style="stroke:#A80036;stroke-width:1.0;" width="10" x="507.5" y="498.1563"/><rect fill="#FFFFFF" filter="url(#f17qv0g4hme258)" height="29.1328" style="stroke:#A80036;stroke-width:1.0;" width="10" x="610.5" y="265.0938"/><rect fill="#FFFFFF" filter="url(#f17qv0g4hme258)" height="58.2656" style="stroke:#A80036;stroke-width:1.0;" width="10" x="610.5" y="352.4922"/><rect fill="#FFFFFF" filter="url(#f17qv0g4hme258)" height="29.1328" style="stroke:#A80036;stroke-width:1.0;" width="10" x="610.5" y="469.0234"/><rect fill="#FFFFFF" filter="url(#f17qv0g4hme258)" height="58.2656" style="stroke:#A80036;stroke-width:1.0;" width="10" x="719.5" y="294.2266"/><rect fill="#FFFFFF" filter="url(#f17qv0g4hme258)" height="29.1328" style="stroke:#A80036;stroke-width:1.0;" width="10" x="807" y="439.8906"/><rect fill="#FFFFFF" filter="url(#f17qv0g4hme258)" height="29.1328" style="stroke:#A80036;stroke-width:1.0;" width="10" x="914" y="410.7578"/><polygon fill="#A80036" points="87,115.4297,97,119.4297,87,123.4297,91,119.4297" style="stroke:#A80036;stroke-width:1.0;"/><line style="stroke:#A80036;stroke-width:1.0;" x1="28" x2="93" y1="119.4297" y2="119.4297"/><text fill="#000000" font-family="sans-serif" font-size="13" lengthAdjust="spacing" textLength="20" x="35" y="114.3638">set</text><polygon fill="#A80036" points="191,144.5625,201,148.5625,191,152.5625,195,148.5625" style="stroke:#A80036;stroke-width:1.0;"/><line style="stroke:#A80036;stroke-width:1.0;" x1="104" x2="197" y1="148.5625" y2="148.5625"/><text fill="#000000" font-family="sans-serif" font-size="13" lengthAdjust="spacing" textLength="20" x="111" y="143.4966">set</text><polygon fill="#A80036" points="297.5,173.6953,307.5,177.6953,297.5,181.6953,301.5,177.6953" style="stroke:#A80036;stroke-width:1.0;"/><line style="stroke:#A80036;stroke-width:1.0;" x1="213" x2="303.5" y1="177.6953" y2="177.6953"/><text fill="#000000" font-family="sans-serif" font-size="13" lengthAdjust="spacing" textLength="37" x="220" y="172.6294">check</text><polygon fill="#A80036" points="377.5,202.8281,387.5,206.8281,377.5,210.8281,381.5,206.8281" style="stroke:#A80036;stroke-width:1.0;"/><line style="stroke:#A80036;stroke-width:1.0;" x1="208" x2="383.5" y1="206.8281" y2="206.8281"/><text fill="#000000" font-family="sans-serif" font-size="13" lengthAdjust="spacing" textLength="20" x="215" y="201.7622">set</text><polygon fill="#A80036" points="495.5,231.9609,505.5,235.9609,495.5,239.9609,499.5,235.9609" style="stroke:#A80036;stroke-width:1.0;"/><line style="stroke:#A80036;stroke-width:1.0;" x1="394.5" x2="501.5" y1="235.9609" y2="235.9609"/><text fill="#000000" font-family="sans-serif" font-size="13" lengthAdjust="spacing" textLength="79" x="401.5" y="230.895">http request</text><polygon fill="#A80036" points="598.5,261.0938,608.5,265.0938,598.5,269.0938,602.5,265.0938" style="stroke:#A80036;stroke-width:1.0;"/><line style="stroke:#A80036;stroke-width:1.0;" x1="512.5" x2="604.5" y1="265.0938" y2="265.0938"/><text fill="#000000" font-family="sans-serif" font-size="13" lengthAdjust="spacing" textLength="20" x="519.5" y="260.0278">set</text><polygon fill="#A80036" points="707.5,290.2266,717.5,294.2266,707.5,298.2266,711.5,294.2266" style="stroke:#A80036;stroke-width:1.0;"/><line style="stroke:#A80036;stroke-width:1.0;" x1="615.5" x2="713.5" y1="294.2266" y2="294.2266"/><text fill="#000000" font-family="sans-serif" font-size="13" lengthAdjust="spacing" textLength="20" x="622.5" y="289.1606">set</text><polygon fill="#A80036" points="800,319.3594,810,323.3594,800,327.3594,804,323.3594" style="stroke:#A80036;stroke-width:1.0;"/><line style="stroke:#A80036;stroke-width:1.0;" x1="729.5" x2="806" y1="323.3594" y2="323.3594"/><text fill="#000000" font-family="sans-serif" font-size="13" lengthAdjust="spacing" textLength="27" x="736.5" y="318.2935">new</text><polygon fill="#A80036" points="631.5,348.4922,621.5,352.4922,631.5,356.4922,627.5,352.4922" style="stroke:#A80036;stroke-width:1.0;"/><line style="stroke:#A80036;stroke-width:1.0;" x1="625.5" x2="723.5" y1="352.4922" y2="352.4922"/><text fill="#000000" font-family="sans-serif" font-size="13" lengthAdjust="spacing" textLength="80" x="637.5" y="347.4263">return entity</text><polygon fill="#A80036" points="800,377.625,810,381.625,800,385.625,804,381.625" style="stroke:#A80036;stroke-width:1.0;"/><line style="stroke:#A80036;stroke-width:1.0;" x1="620.5" x2="806" y1="381.625" y2="381.625"/><text fill="#000000" font-family="sans-serif" font-size="13" lengthAdjust="spacing" textLength="20" x="627.5" y="376.5591">set</text><polygon fill="#A80036" points="902,406.7578,912,410.7578,902,414.7578,906,410.7578" style="stroke:#A80036;stroke-width:1.0;"/><line style="stroke:#A80036;stroke-width:1.0;" x1="615.5" x2="908" y1="410.7578" y2="410.7578"/><text fill="#000000" font-family="sans-serif" font-size="13" lengthAdjust="spacing" textLength="78" x="622.5" y="405.6919">new (entity)</text><polygon fill="#A80036" points="828,435.8906,818,439.8906,828,443.8906,824,439.8906" style="stroke:#A80036;stroke-width:1.0;"/><line style="stroke:#A80036;stroke-width:1.0;" x1="822" x2="918" y1="439.8906" y2="439.8906"/><text fill="#000000" font-family="sans-serif" font-size="13" lengthAdjust="spacing" textLength="40" x="834" y="434.8247">getX()</text><polygon fill="#A80036" points="907,465.0234,917,469.0234,907,473.0234,911,469.0234" style="stroke:#A80036;stroke-width:1.0;"/><line style="stroke:#A80036;stroke-width:1.0;" x1="812" x2="913" y1="469.0234" y2="469.0234"/><text fill="#000000" font-family="sans-serif" font-size="13" lengthAdjust="spacing" textLength="78" x="819" y="463.9575">return value</text><polygon fill="#A80036" points="528.5,494.1563,518.5,498.1563,528.5,502.1563,524.5,498.1563" style="stroke:#A80036;stroke-width:1.0;"/><line style="stroke:#A80036;stroke-width:1.0;" x1="522.5" x2="614.5" y1="498.1563" y2="498.1563"/><text fill="#000000" font-family="sans-serif" font-size="13" lengthAdjust="spacing" textLength="74" x="534.5" y="493.0903">return xDto</text><polygon fill="#A80036" points="410.5,523.2891,400.5,527.2891,410.5,531.2891,406.5,527.2891" style="stroke:#A80036;stroke-width:1.0;"/><line style="stroke:#A80036;stroke-width:1.0;" x1="404.5" x2="511.5" y1="527.2891" y2="527.2891"/><text fill="#000000" font-family="sans-serif" font-size="13" lengthAdjust="spacing" textLength="89" x="416.5" y="522.2231">http response</text><polygon fill="#A80036" points="224,552.4219,214,556.4219,224,560.4219,220,556.4219" style="stroke:#A80036;stroke-width:1.0;"/><line style="stroke:#A80036;stroke-width:1.0;" x1="218" x2="393.5" y1="556.4219" y2="556.4219"/><text fill="#000000" font-family="sans-serif" font-size="13" lengthAdjust="spacing" textLength="74" x="230" y="551.356">return xDto</text><polygon fill="#A80036" points="115,581.5547,105,585.5547,115,589.5547,111,585.5547" style="stroke:#A80036;stroke-width:1.0;"/><line style="stroke:#A80036;stroke-width:1.0;" x1="109" x2="207" y1="585.5547" y2="585.5547"/><text fill="#000000" font-family="sans-serif" font-size="13" lengthAdjust="spacing" textLength="20" x="121" y="580.4888">set</text><!--MD5=[52dea8f238f8bd82c0b75662e7bed4f4]
@startuml
actor Actor
boundary XTemplate
boundary XComponent
control XValidator
control XService
control XResource
control XController
entity XRepository
entity XEntity
boundary XDto

activate Actor
Actor -> XTemplate: set
deactivate Actor
activate XTemplate

XTemplate -> XComponent: set
deactivate XTemplate
activate XComponent

XComponent -> XValidator: check
XComponent -> XService: set
deactivate XComponent
activate XService

XService -> XResource: http request
deactivate XService
activate XResource

XResource -> XController: set
deactivate XResource
activate XController

XController -> XRepository: set
deactivate XController
activate XRepository

XRepository -> XEntity: new

XRepository -> XController: return entity
deactivate XRepository
activate XController

XController -> XEntity: set

XController -> XDto: new (entity)
deactivate XController
activate XDto

XDto -> XEntity: getX()
deactivate XDto
activate XEntity

XEntity -> XDto: return value
deactivate XEntity
activate XController

XController -> XResource: return xDto
deactivate XController
activate XResource

XResource -> XService: http response
deactivate XResource
activate XService

XService -> XComponent: return xDto
deactivate XService
activate XComponent

XComponent -> XTemplate: set
deactivate XComponent
@enduml

PlantUML version 1.2021.4beta3(Unknown compile time)
(GPL source distribution)
Java Runtime: Java(TM) SE Runtime Environment
JVM: Java HotSpot(TM) 64-Bit Server VM
Default Encoding: UTF-8
Language: en
Country: US
--></g></svg>