<?xml version="1.0" encoding="UTF-8" standalone="no"?><svg xmlns="http://www.w3.org/2000/svg" xmlns:xlink="http://www.w3.org/1999/xlink" contentScriptType="application/ecmascript" contentStyleType="text/css" height="1091px" preserveAspectRatio="none" style="width:1276px;height:1091px;" version="1.1" viewBox="0 0 1276 1091" width="1276px" zoomAndPan="magnify"><defs><filter height="300%" id="f1xumtu44jyv0m" width="300%" x="-1" y="-1"><feGaussianBlur result="blurOut" stdDeviation="2.0"/><feColorMatrix in="blurOut" result="blurOut2" type="matrix" values="0 0 0 0 0 0 0 0 0 0 0 0 0 0 0 0 0 0 .4 0"/><feOffset dx="4.0" dy="4.0" in="blurOut2" result="blurOut3"/><feBlend in="SourceGraphic" in2="blurOut3" mode="normal"/></filter></defs><g><!--MD5=[e2a75efa8a0f57c2afae8bf75386f79c]
cluster views--><polygon fill="#FFFFFF" filter="url(#f1xumtu44jyv0m)" points="16,170.5,67,170.5,74,192.7969,774,192.7969,774,802.5,16,802.5,16,170.5" style="stroke:#000000;stroke-width:1.5;"/><line style="stroke:#000000;stroke-width:1.5;" x1="16" x2="74" y1="192.7969" y2="192.7969"/><text fill="#000000" font-family="sans-serif" font-size="14" font-weight="bold" lengthAdjust="spacing" textLength="45" x="20" y="185.4951">views</text><!--MD5=[f4e70ef68289585296b9045165e58692]
cluster controllers--><polygon fill="#FFFFFF" filter="url(#f1xumtu44jyv0m)" points="809,502.5,904,502.5,911,524.7969,947,524.7969,947,601.5,809,601.5,809,502.5" style="stroke:#000000;stroke-width:1.5;"/><line style="stroke:#000000;stroke-width:1.5;" x1="809" x2="911" y1="524.7969" y2="524.7969"/><text fill="#000000" font-family="sans-serif" font-size="14" font-weight="bold" lengthAdjust="spacing" textLength="89" x="813" y="517.4951">controllers</text><!--MD5=[a60570e4b426f702ccbb0d459e3b9417]
cluster models--><polygon fill="#FFFFFF" filter="url(#f1xumtu44jyv0m)" points="798,717.5,862,717.5,869,739.7969,1121,739.7969,1121,952.5,798,952.5,798,717.5" style="stroke:#000000;stroke-width:1.5;"/><line style="stroke:#000000;stroke-width:1.5;" x1="798" x2="869" y1="739.7969" y2="739.7969"/><text fill="#000000" font-family="sans-serif" font-size="14" font-weight="bold" lengthAdjust="spacing" textLength="58" x="802" y="732.4951">models</text><!--MD5=[67cd15ce44b6dd54f77054b62c31bf42]
cluster types--><polygon fill="#FFFFFF" filter="url(#f1xumtu44jyv0m)" points="1019,985.5,1070,985.5,1077,1007.7969,1101,1007.7969,1101,1084.5,1019,1084.5,1019,985.5" style="stroke:#000000;stroke-width:1.5;"/><line style="stroke:#000000;stroke-width:1.5;" x1="1019" x2="1077" y1="1007.7969" y2="1007.7969"/><text fill="#000000" font-family="sans-serif" font-size="14" font-weight="bold" lengthAdjust="spacing" textLength="45" x="1023" y="1000.4951">types</text><rect fill="#FEFECE" filter="url(#f1xumtu44jyv0m)" height="33.9688" style="stroke:#A80036;stroke-width:1.5;" width="71" x="52.5" y="205.5"/><text fill="#000000" font-family="sans-serif" font-size="12" lengthAdjust="spacing" textLength="57" x="59.5" y="218.6387">StartView</text><line style="stroke:#A80036;stroke-width:1.5;" x1="53.5" x2="122.5" y1="223.4688" y2="223.4688"/><rect fill="#FEFECE" filter="url(#f1xumtu44jyv0m)" height="33.9688" style="stroke:#A80036;stroke-width:1.5;" width="69" x="144.5" y="752.5"/><text fill="#000000" font-family="sans-serif" font-size="12" lengthAdjust="spacing" textLength="55" x="151.5" y="765.6387">Message</text><line style="stroke:#A80036;stroke-width:1.5;" x1="145.5" x2="212.5" y1="770.4688" y2="770.4688"/><rect fill="#FEFECE" filter="url(#f1xumtu44jyv0m)" height="33.9688" style="stroke:#A80036;stroke-width:1.5;" width="79" x="434.5" y="338.5"/><text fill="#000000" font-family="sans-serif" font-size="12" lengthAdjust="spacing" textLength="65" x="441.5" y="351.6387">BoardView</text><line style="stroke:#A80036;stroke-width:1.5;" x1="435.5" x2="512.5" y1="356.4688" y2="356.4688"/><rect fill="#FEFECE" filter="url(#f1xumtu44jyv0m)" height="33.9688" style="stroke:#A80036;stroke-width:1.5;" width="157" x="69.5" y="544.5"/><text fill="#000000" font-family="sans-serif" font-size="12" lengthAdjust="spacing" textLength="143" x="76.5" y="557.6387">SecretCombinationView</text><line style="stroke:#A80036;stroke-width:1.5;" x1="70.5" x2="225.5" y1="562.4688" y2="562.4688"/><rect fill="#FEFECE" filter="url(#f1xumtu44jyv0m)" height="33.9688" style="stroke:#A80036;stroke-width:1.5;" width="175" x="582.5" y="544.5"/><text fill="#000000" font-family="sans-serif" font-size="12" lengthAdjust="spacing" textLength="161" x="589.5" y="557.6387">ProposedCombinationView</text><line style="stroke:#A80036;stroke-width:1.5;" x1="583.5" x2="756.5" y1="562.4688" y2="562.4688"/><rect fill="#FEFECE" filter="url(#f1xumtu44jyv0m)" height="33.9688" style="stroke:#A80036;stroke-width:1.5;" width="79" x="261.5" y="544.5"/><text fill="#000000" font-family="sans-serif" font-size="12" lengthAdjust="spacing" textLength="65" x="268.5" y="557.6387">ResultView</text><line style="stroke:#A80036;stroke-width:1.5;" x1="262.5" x2="339.5" y1="562.4688" y2="562.4688"/><rect fill="#FEFECE" filter="url(#f1xumtu44jyv0m)" height="33.9688" style="stroke:#A80036;stroke-width:1.5;" width="75" x="615.5" y="752.5"/><text fill="#000000" font-family="sans-serif" font-size="12" lengthAdjust="spacing" textLength="61" x="622.5" y="765.6387">ColorView</text><line style="stroke:#A80036;stroke-width:1.5;" x1="616.5" x2="689.5" y1="770.4688" y2="770.4688"/><rect fill="#FEFECE" filter="url(#f1xumtu44jyv0m)" height="47.9375" style="stroke:#A80036;stroke-width:1.5;" width="105" x="825.5" y="537.5"/><text fill="#000000" font-family="sans-serif" font-size="12" lengthAdjust="spacing" textLength="86" x="835" y="550.6387">startController</text><text fill="#000000" font-family="sans-serif" font-size="12" lengthAdjust="spacing" textLength="91" x="832.5" y="564.6074">:StartController</text><line style="stroke:#A80036;stroke-width:1.5;" x1="826.5" x2="929.5" y1="569.4375" y2="569.4375"/><rect fill="#FEFECE" filter="url(#f1xumtu44jyv0m)" height="33.9688" style="stroke:#A80036;stroke-width:1.5;" width="50" x="914" y="752.5"/><text fill="#000000" font-family="sans-serif" font-size="12" lengthAdjust="spacing" textLength="36" x="921" y="765.6387">Board</text><line style="stroke:#A80036;stroke-width:1.5;" x1="915" x2="963" y1="770.4688" y2="770.4688"/><rect fill="#FEFECE" filter="url(#f1xumtu44jyv0m)" height="33.9688" style="stroke:#A80036;stroke-width:1.5;" width="50" x="824" y="902.5"/><text fill="#000000" font-family="sans-serif" font-size="12" lengthAdjust="spacing" textLength="36" x="831" y="915.6387">Result</text><line style="stroke:#A80036;stroke-width:1.5;" x1="825" x2="873" y1="920.4688" y2="920.4688"/><rect fill="#FEFECE" filter="url(#f1xumtu44jyv0m)" height="33.9688" style="stroke:#A80036;stroke-width:1.5;" width="146" x="927" y="902.5"/><text fill="#000000" font-family="sans-serif" font-size="12" lengthAdjust="spacing" textLength="132" x="934" y="915.6387">ProposedCombination</text><line style="stroke:#A80036;stroke-width:1.5;" x1="928" x2="1072" y1="920.4688" y2="920.4688"/><rect fill="#FEFECE" filter="url(#f1xumtu44jyv0m)" height="47.9375" style="stroke:#A80036;stroke-width:1.5;" width="50" x="1035" y="1020.5"/><text fill="#000000" font-family="sans-serif" font-size="12" lengthAdjust="spacing" textLength="31" x="1044.5" y="1033.6387">color</text><text fill="#000000" font-family="sans-serif" font-size="12" lengthAdjust="spacing" textLength="36" x="1042" y="1047.6074">:Color</text><line style="stroke:#A80036;stroke-width:1.5;" x1="1036" x2="1084" y1="1052.4375" y2="1052.4375"/><!--MD5=[de2effd8dc5bf946a609466312d0f75f]
entity Player--><ellipse cx="88" cy="14" fill="#FEFECE" filter="url(#f1xumtu44jyv0m)" rx="8" ry="8" style="stroke:#A80036;stroke-width:1.5;"/><path d="M88,22 L88,49 M75,30 L101,30 M88,49 L75,64 M88,49 L101,64 " fill="none" filter="url(#f1xumtu44jyv0m)" style="stroke:#A80036;stroke-width:1.5;"/><text fill="#000000" font-family="sans-serif" font-size="14" lengthAdjust="spacing" textLength="44" x="66" y="82.4951">Player</text><!--MD5=[eeb6915416cd4d75847d2a39a6e2e3ff]
link Player to StartView--><path codeLine="29" d="M88,85.82 C88,121.431 88,172.226 88,200.482 " fill="none" id="Player-to-StartView" style="stroke:#A80036;stroke-width:1.0;"/><polygon fill="#A80036" points="88,205.487,92,196.487,88,200.487,84,196.487,88,205.487" style="stroke:#A80036;stroke-width:1.0;"/><path d="M93,120.5 L93,145.5 L154,145.5 L154,130.5 L144,120.5 L93,120.5 " fill="#FBFB77" filter="url(#f1xumtu44jyv0m)" style="stroke:#A80036;stroke-width:1.0;"/><path d="M144,120.5 L144,130.5 L154,130.5 L144,120.5 " fill="#FBFB77" style="stroke:#A80036;stroke-width:1.0;"/><text fill="#000000" font-family="sans-serif" font-size="13" lengthAdjust="spacing" textLength="40" x="99" y="137.5669">start()</text><!--MD5=[97e9ace985d716348ec86012fc7f7728]
link StartView to Message--><path codeLine="33" d="M82.6647,239.612 C65.7433,293.14 16.435,469.581 52,609.5 C63.4644,654.603 72.8725,665.205 102,701.5 C116.621,719.719 136.602,736.941 152.546,749.361 " fill="none" id="StartView-to-Message" style="stroke:#A80036;stroke-width:1.0;stroke-dasharray:7.0,7.0;"/><polygon fill="#A80036" points="156.507,752.413,151.8199,743.7509,152.5466,749.3609,146.9366,750.0876,156.507,752.413" style="stroke:#A80036;stroke-width:1.0;"/><path d="M51,430 L51,455 L114,455 L114,440 L104,430 L51,430 " fill="#FBFB77" filter="url(#f1xumtu44jyv0m)" style="stroke:#A80036;stroke-width:1.0;"/><path d="M104,430 L104,440 L114,440 L104,430 " fill="#FBFB77" style="stroke:#A80036;stroke-width:1.0;"/><text fill="#000000" font-family="sans-serif" font-size="13" lengthAdjust="spacing" textLength="42" x="57" y="447.0669">write()</text><!--MD5=[2b5890793a76472eff4c2a6a4af43287]
link StartView to BoardView--><path codeLine="37" d="M123.622,235.589 C194.298,259.575 352.098,313.129 429.481,339.391 " fill="none" id="StartView-to-BoardView" style="stroke:#A80036;stroke-width:1.0;stroke-dasharray:7.0,7.0;"/><polygon fill="#A80036" points="434.46,341.081,427.2235,334.4002,429.7254,339.4737,424.6519,341.9756,434.46,341.081" style="stroke:#A80036;stroke-width:1.0;"/><path d="M344,274.5 L344,299.5 L499,299.5 L499,284.5 L489,274.5 L344,274.5 " fill="#FBFB77" filter="url(#f1xumtu44jyv0m)" style="stroke:#A80036;stroke-width:1.0;"/><path d="M489,274.5 L489,284.5 L499,284.5 L489,274.5 " fill="#FBFB77" style="stroke:#A80036;stroke-width:1.0;"/><text fill="#000000" font-family="sans-serif" font-size="13" lengthAdjust="spacing" textLength="134" x="350" y="291.5669">write(startController)</text><!--MD5=[a9ba683329f11892f43ef8c9dac7d5e3]
link BoardView to StartController--><path codeLine="41" d="M513.662,356.886 C564.139,358.905 652.726,367.666 719,402.5 C779.576,434.339 831.956,496.99 858.816,533.099 " fill="none" id="BoardView-to-StartController" style="stroke:#A80036;stroke-width:1.0;stroke-dasharray:7.0,7.0;"/><polygon fill="#A80036" points="861.964,537.367,859.8403,527.7498,858.9959,533.3433,853.4024,532.4989,861.964,537.367" style="stroke:#A80036;stroke-width:1.0;"/><path d="M822,407.5 L822,477.5 L1105,477.5 L1105,417.5 L1095,407.5 L822,407.5 " fill="#FBFB77" filter="url(#f1xumtu44jyv0m)" style="stroke:#A80036;stroke-width:1.0;"/><path d="M1095,407.5 L1095,417.5 L1105,417.5 L1095,407.5 " fill="#FBFB77" style="stroke:#A80036;stroke-width:1.0;"/><text fill="#000000" font-family="sans-serif" font-size="13" lengthAdjust="spacing" textLength="91" x="828" y="424.5669">getAttempts()</text><text fill="#000000" font-family="sans-serif" font-size="13" lengthAdjust="spacing" textLength="262" x="828" y="439.6997">getProposedCombinationColors(position)</text><text fill="#000000" font-family="sans-serif" font-size="13" lengthAdjust="spacing" textLength="121" x="828" y="454.8325">getBlacks(position)</text><text fill="#000000" font-family="sans-serif" font-size="13" lengthAdjust="spacing" textLength="125" x="828" y="469.9653">getWhites(position)</text><!--MD5=[02a16ebf8539d2e5d44c3be387606aac]
link BoardView to Message--><path codeLine="48" d="M479.078,372.736 C486.438,399.807 496.4,454.358 469,486.5 C457.239,500.297 441.252,481.137 429,494.5 C366.445,562.73 465.436,630.536 406,701.5 C359.831,756.624 270.715,767.693 218.937,769.178 " fill="none" id="BoardView-to-Message" style="stroke:#A80036;stroke-width:1.0;stroke-dasharray:7.0,7.0;"/><polygon fill="#A80036" points="213.738,769.299,222.8281,773.0897,218.7367,769.1833,222.643,765.0918,213.738,769.299" style="stroke:#A80036;stroke-width:1.0;"/><path d="M434,547 L434,572 L556,572 L556,557 L546,547 L434,547 " fill="#FBFB77" filter="url(#f1xumtu44jyv0m)" style="stroke:#A80036;stroke-width:1.0;"/><path d="M546,547 L546,557 L556,557 L546,547 " fill="#FBFB77" style="stroke:#A80036;stroke-width:1.0;"/><text fill="#000000" font-family="sans-serif" font-size="13" lengthAdjust="spacing" textLength="101" x="440" y="564.0669">write(attempts)</text><!--MD5=[5418e21908cb409c36d98acf7a0f9cb6]
link BoardView to SecretCombinationView--><path codeLine="52" d="M434.365,357.973 C366.005,361.314 229.892,371.741 195,402.5 C155.162,437.62 148.383,504.847 147.669,539.179 " fill="none" id="BoardView-to-SecretCombinationView" style="stroke:#A80036;stroke-width:1.0;stroke-dasharray:7.0,7.0;"/><polygon fill="#A80036" points="147.602,544.397,151.7174,535.4492,147.6663,539.3974,143.718,535.3463,147.602,544.397" style="stroke:#A80036;stroke-width:1.0;"/><path d="M200,430 L200,455 L263,455 L263,440 L253,430 L200,430 " fill="#FBFB77" filter="url(#f1xumtu44jyv0m)" style="stroke:#A80036;stroke-width:1.0;"/><path d="M253,430 L253,440 L263,440 L253,430 " fill="#FBFB77" style="stroke:#A80036;stroke-width:1.0;"/><text fill="#000000" font-family="sans-serif" font-size="13" lengthAdjust="spacing" textLength="42" x="206" y="447.0669">write()</text><!--MD5=[d0c6e2bebacb85fe1d099bc6a8097bbc]
link SecretCombinationView to Message--><path codeLine="56" d="M136.2,578.919 C129.413,589.4 121.547,603.588 118,617.5 C108.775,653.676 104.525,666.683 118,701.5 C125.204,720.113 140.25,736.733 153.596,748.765 " fill="none" id="SecretCombinationView-to-Message" style="stroke:#A80036;stroke-width:1.0;stroke-dasharray:7.0,7.0;"/><polygon fill="#A80036" points="157.673,752.348,153.5559,743.4009,153.9183,749.0462,148.273,749.4085,157.673,752.348" style="stroke:#A80036;stroke-width:1.0;"/><path d="M123,645 L123,670 L186,670 L186,655 L176,645 L123,645 " fill="#FBFB77" filter="url(#f1xumtu44jyv0m)" style="stroke:#A80036;stroke-width:1.0;"/><path d="M176,645 L176,655 L186,655 L176,645 " fill="#FBFB77" style="stroke:#A80036;stroke-width:1.0;"/><text fill="#000000" font-family="sans-serif" font-size="13" lengthAdjust="spacing" textLength="42" x="129" y="662.0669">write()</text><!--MD5=[b92bc89b5449472b10f1cf1477809057]
link BoardView to ProposedCombinationView--><path codeLine="60" d="M489.38,372.508 C524.787,409.36 611.991,500.124 650.817,540.534 " fill="none" id="BoardView-to-ProposedCombinationView" style="stroke:#A80036;stroke-width:1.0;stroke-dasharray:7.0,7.0;"/><polygon fill="#A80036" points="654.42,544.285,651.0709,535.023,650.9566,540.6787,645.3009,540.5644,654.42,544.285" style="stroke:#A80036;stroke-width:1.0;"/><path d="M601,430 L601,455 L702,455 L702,440 L692,430 L601,430 " fill="#FBFB77" filter="url(#f1xumtu44jyv0m)" style="stroke:#A80036;stroke-width:1.0;"/><path d="M692,430 L692,440 L702,440 L692,430 " fill="#FBFB77" style="stroke:#A80036;stroke-width:1.0;"/><text fill="#000000" font-family="sans-serif" font-size="13" lengthAdjust="spacing" textLength="80" x="607" y="447.0669">write(colors)</text><!--MD5=[54923e7f1f8105ab44ef05f41a7d666e]
link ProposedCombinationView to ColorView--><path codeLine="64" d="M653.918,578.748 C644.987,588.949 634.747,602.903 630,617.5 C615.426,662.317 632.172,717.681 643.775,747.349 " fill="none" id="ProposedCombinationView-to-ColorView" style="stroke:#A80036;stroke-width:1.0;stroke-dasharray:7.0,7.0;"/><polygon fill="#A80036" points="645.73,752.233,646.1014,742.3911,643.873,747.5906,638.6736,745.3623,645.73,752.233" style="stroke:#A80036;stroke-width:1.0;"/><path d="M635,645 L635,670 L729,670 L729,655 L719,645 L635,645 " fill="#FBFB77" filter="url(#f1xumtu44jyv0m)" style="stroke:#A80036;stroke-width:1.0;"/><path d="M719,645 L719,655 L729,655 L719,645 " fill="#FBFB77" style="stroke:#A80036;stroke-width:1.0;"/><text fill="#000000" font-family="sans-serif" font-size="13" lengthAdjust="spacing" textLength="73" x="641" y="662.0669">write(color)</text><!--MD5=[3c978e882819d5791a3d8cfa6d73d565]
link ColorView to Color--><path codeLine="68" d="M654.939,786.546 C660.424,824.585 679.643,920.694 738,969.5 C782.491,1006.7093 957.632,1031.3099 1029.24,1040.0023 " fill="none" id="ColorView-to-Color" style="stroke:#A80036;stroke-width:1.0;stroke-dasharray:7.0,7.0;"/><polygon fill="#A80036" points="1034.62,1040.6492,1026.165,1035.5982,1029.6561,1040.0492,1025.2051,1043.5404,1034.62,1040.6492" style="stroke:#A80036;stroke-width:1.0;"/><!--MD5=[15f682a315f16673a58b132a229e1ff0]
link BoardView to ResultView--><path codeLine="69" d="M434.134,361.278 C387.488,367.783 314.504,381.128 298,402.5 C267.28,442.281 282.064,506.04 292.957,539.086 " fill="none" id="BoardView-to-ResultView" style="stroke:#A80036;stroke-width:1.0;stroke-dasharray:7.0,7.0;"/><polygon fill="#A80036" points="294.664,544.118,295.5586,534.3099,293.0567,539.3834,287.9832,536.8815,294.664,544.118" style="stroke:#A80036;stroke-width:1.0;"/><path d="M303,430 L303,455 L456,455 L456,440 L446,430 L303,430 " fill="#FBFB77" filter="url(#f1xumtu44jyv0m)" style="stroke:#A80036;stroke-width:1.0;"/><path d="M446,430 L446,440 L456,440 L446,430 " fill="#FBFB77" style="stroke:#A80036;stroke-width:1.0;"/><text fill="#000000" font-family="sans-serif" font-size="13" lengthAdjust="spacing" textLength="132" x="309" y="447.0669">write(blacks, whites)</text><!--MD5=[0e5df9184d8007a1cb9785d3f6966635]
link ResultView to Message--><path codeLine="73" d="M281.545,578.511 C262.395,594.301 235.877,616.259 235,617.5 C219.727,639.094 196.442,711.244 185.33,747.43 " fill="none" id="ResultView-to-Message" style="stroke:#A80036;stroke-width:1.0;stroke-dasharray:7.0,7.0;"/><polygon fill="#A80036" points="183.781,752.497,190.237,745.0592,185.2425,747.7154,182.5864,742.7209,183.781,752.497" style="stroke:#A80036;stroke-width:1.0;"/><path d="M240,645 L240,670 L393,670 L393,655 L383,645 L240,645 " fill="#FBFB77" filter="url(#f1xumtu44jyv0m)" style="stroke:#A80036;stroke-width:1.0;"/><path d="M383,645 L383,655 L393,655 L383,645 " fill="#FBFB77" style="stroke:#A80036;stroke-width:1.0;"/><text fill="#000000" font-family="sans-serif" font-size="13" lengthAdjust="spacing" textLength="132" x="246" y="662.0669">write(blacks, whites)</text><!--MD5=[7e78854ab8a5a21afc179f6b3c443ded]
link StartController to Board--><path codeLine="77" d="M872.148,585.625 C866.14,614.039 859.642,663.188 875,701.5 C882.605,720.471 898.425,737.114 912.434,749.068 " fill="none" id="StartController-to-Board" style="stroke:#A80036;stroke-width:1.0;"/><polygon fill="#A80036" points="916.328,752.313,911.9731,743.4793,912.4863,749.1128,906.8528,749.626,916.328,752.313" style="stroke:#A80036;stroke-width:1.0;"/><path d="M880,622.5 L880,692.5 L1163,692.5 L1163,632.5 L1153,622.5 L880,622.5 " fill="#FBFB77" filter="url(#f1xumtu44jyv0m)" style="stroke:#A80036;stroke-width:1.0;"/><path d="M1153,622.5 L1153,632.5 L1163,632.5 L1153,622.5 " fill="#FBFB77" style="stroke:#A80036;stroke-width:1.0;"/><text fill="#000000" font-family="sans-serif" font-size="13" lengthAdjust="spacing" textLength="91" x="886" y="639.5669">getAttempts()</text><text fill="#000000" font-family="sans-serif" font-size="13" lengthAdjust="spacing" textLength="262" x="886" y="654.6997">getProposedCombinationColors(position)</text><text fill="#000000" font-family="sans-serif" font-size="13" lengthAdjust="spacing" textLength="121" x="886" y="669.8325">getBlacks(position)</text><text fill="#000000" font-family="sans-serif" font-size="13" lengthAdjust="spacing" textLength="125" x="886" y="684.9653">getWhites(position)</text><!--MD5=[8dd95aff79c51151a18c835e3410b3cd]
link Board to Result--><path codeLine="84" d="M902.1422,778.5304 C902.1422,778.5304 854.886,797.746 842,818.5 C828.834,839.704 832.617,868.535 838.49,889.792 " fill="none" id="Board-Result" style="stroke:#A80036;stroke-width:1.0;"/><polygon fill="#A80036" points="842.389,902.211,843.5092,892.4261,840.8912,897.4406,835.8766,894.8226,842.389,902.211" style="stroke:#A80036;stroke-width:1.0;"/><line style="stroke:#A80036;stroke-width:1.0;" x1="840.8912" x2="838.495" y1="897.4406" y2="889.808"/><polygon fill="#A80036" points="913.682,775.239,906.815,773.0381,902.1422,778.5304,909.0093,780.7313,913.682,775.239" style="stroke:#A80036;stroke-width:1.0;"/><path d="M847,823.5 L847,863.5 L943,863.5 L943,833.5 L933,823.5 L847,823.5 " fill="#FBFB77" filter="url(#f1xumtu44jyv0m)" style="stroke:#A80036;stroke-width:1.0;"/><path d="M933,823.5 L933,833.5 L943,833.5 L933,823.5 " fill="#FBFB77" style="stroke:#A80036;stroke-width:1.0;"/><text fill="#000000" font-family="sans-serif" font-size="13" lengthAdjust="spacing" textLength="71" x="853" y="840.5669">getBlacks()</text><text fill="#000000" font-family="sans-serif" font-size="13" lengthAdjust="spacing" textLength="75" x="853" y="855.6997">getWhites()</text><!--MD5=[e0b5d9907fda64872c10fd6493e0c51f]
link Board to ProposedCombination--><path codeLine="89" d="M951.1513,797.8693 C951.1513,797.8693 957.338,812.14 960,818.5 C970.021,842.439 980.933,869.813 988.825,889.862 " fill="none" id="Board-ProposedCombination" style="stroke:#A80036;stroke-width:1.0;"/><polygon fill="#A80036" points="993.646,902.153,994.0835,892.3139,991.8203,897.4983,986.6359,895.2351,993.646,902.153" style="stroke:#A80036;stroke-width:1.0;"/><line style="stroke:#A80036;stroke-width:1.0;" x1="991.8203" x2="988.899" y1="897.4983" y2="890.0515"/><polygon fill="#A80036" points="946.322,786.884,945.0749,793.9864,951.1513,797.8693,952.3984,790.7669,946.322,786.884" style="stroke:#A80036;stroke-width:1.0;"/><path d="M987,831 L987,856 L1079,856 L1079,841 L1069,831 L987,831 " fill="#FBFB77" filter="url(#f1xumtu44jyv0m)" style="stroke:#A80036;stroke-width:1.0;"/><path d="M1069,831 L1069,841 L1079,841 L1069,831 " fill="#FBFB77" style="stroke:#A80036;stroke-width:1.0;"/><text fill="#000000" font-family="sans-serif" font-size="13" lengthAdjust="spacing" textLength="71" x="993" y="848.0669">getColors()</text><!--MD5=[2d4500cc75f159eca4a02f9c13f05618]
link ProposedCombination to Color--><path codeLine="93" d="M1013.1008,947.3653 C1013.1008,947.3653 1033.6,989.37 1042.9,1008.4446 " fill="none" id="ProposedCombination-Color" style="stroke:#A80036;stroke-width:1.0;"/><polygon fill="#A80036" points="1048.67,1020.2743,1048.3199,1010.4317,1046.4782,1015.7803,1041.1295,1013.9386,1048.67,1020.2743" style="stroke:#A80036;stroke-width:1.0;"/><line style="stroke:#A80036;stroke-width:1.0;" x1="1046.4782" x2="1042.97" y1="1015.7803" y2="1008.5903"/><polygon fill="#A80036" points="1007.84,936.58,1006.8753,943.7263,1013.1008,947.3653,1014.0655,940.2191,1007.84,936.58" style="stroke:#A80036;stroke-width:1.0;"/><!--MD5=[e8e56f95b2bfb8e03c3cdf9f0e0c50ee]
link Board to Color--><path codeLine="94" d="M964.227,769.775 C1000.26,770.282 1065.48,777.259 1096,818.5 C1139.91,877.836 1100.68,970.208 1076.19,1015.9352 " fill="none" id="Board-to-Color" style="stroke:#A80036;stroke-width:1.0;stroke-dasharray:7.0,7.0;"/><polygon fill="#A80036" points="1073.72,1020.4782,1081.5355,1014.485,1076.11,1016.0864,1074.5086,1010.661,1073.72,1020.4782" style="stroke:#A80036;stroke-width:1.0;"/><!--MD5=[69a1b9a8422e14e14037057a3d2e1465]
link StartController to Color--><path codeLine="95" d="M930.627,564.406 C1007.68,568.428 1145.37,580.703 1176,617.5 C1225.25,676.668 1207.61,797.453 1124,969.5 C1115.38,987.235 1101.42,1004.1017 1088.73,1017.2413 " fill="none" id="StartController-to-Color" style="stroke:#A80036;stroke-width:1.0;stroke-dasharray:7.0,7.0;"/><polygon fill="#A80036" points="1085.19,1020.8461,1094.355,1017.2402,1088.6983,1017.2836,1088.6549,1011.6269,1085.19,1020.8461" style="stroke:#A80036;stroke-width:1.0;"/><!--MD5=[12f03c7f5abb6c3e068862197d6139ed]
link BoardView to Color--><path codeLine="96" d="M513.868,357.635 C646.447,361.642 1067.25,376.311 1122,402.5 C1208.53,443.887 1269,464.585 1269,560.5 C1269,560.5 1269,560.5 1269,920.5 C1269,1002.4415 1148.2,1030.8827 1090.28,1039.8101 " fill="none" id="BoardView-to-Color" style="stroke:#A80036;stroke-width:1.0;stroke-dasharray:7.0,7.0;"/><polygon fill="#A80036" points="1085.21,1040.566,1094.6969,1043.2115,1090.1566,1039.8372,1093.5309,1035.2969,1085.21,1040.566" style="stroke:#A80036;stroke-width:1.0;"/><!--MD5=[644d3bda32b13afd96f2f5d418a902c1]
link ProposedCombinationView to Color--><path codeLine="97" d="M700.784,578.635 C715.592,587.997 732.212,601.177 742,617.5 C821.435,749.972 696.974,843.656 798,960.5 C857.708,1029.557 974.513,1041.7523 1029.72,1043.5068 " fill="none" id="ProposedCombinationView-to-Color" style="stroke:#A80036;stroke-width:1.0;stroke-dasharray:7.0,7.0;"/><polygon fill="#A80036" points="1034.86,1043.6456,1025.9658,1039.4155,1029.8617,1043.517,1025.7601,1047.4128,1034.86,1043.6456" style="stroke:#A80036;stroke-width:1.0;"/><!--MD5=[464b3bef553ec76b9a20ce71ce5cd3cb]
@startuml
allow_mixing

actor Player

package views {
    object StartView
    object Message
    object BoardView
    object SecretCombinationView
    object ProposedCombinationView
    object ResultView
    object ColorView
}

package controllers {
    object "startController\n:StartController" as StartController
}

package models {
    object Board
    object Result
    object ProposedCombination
}

package types {
    object "color\n:Color" as Color
}

Player -down-> StartView
note on link
    start()
end note
StartView .down.> Message
note on link
    write()
end note
StartView .down.> BoardView
note on link
    write(startController)
end note
BoardView .down.> StartController
note on link
    getAttempts()
    getProposedCombinationColors(position)
    getBlacks(position)
    getWhites(position)
end note
BoardView .down.> Message
note on link
    write(attempts)
end note
BoardView .down.> SecretCombinationView
note on link
    write()
end note
SecretCombinationView .down.> Message
note on link
    write()
end note
BoardView .down.> ProposedCombinationView
note on link
    write(colors)
end note
ProposedCombinationView .down.> ColorView
note on link
    write(color)
end note
ColorView .down.> Color
BoardView .down.> ResultView
note on link
    write(blacks, whites)
end note
ResultView .down.> Message
note on link
    write(blacks, whites)
end note
StartController -down-> Board
note on link
    getAttempts()
    getProposedCombinationColors(position)
    getBlacks(position)
    getWhites(position)
end note
Board *-down-> Result
note on link
    getBlacks()
    getWhites()
end note
Board *-down-> ProposedCombination
note on link
    getColors()
end note
ProposedCombination *-down-> Color
Board .down.> Color
StartController .down.> Color
BoardView .down.> Color
ProposedCombinationView .down.> Color
@enduml

PlantUML version 1.2021.4beta2(Unknown compile time)
(GPL source distribution)
Java Runtime: Java(TM) SE Runtime Environment
JVM: Java HotSpot(TM) 64-Bit Server VM
Default Encoding: UTF-8
Language: en
Country: US
--></g></svg>