<?xml version="1.0" encoding="UTF-8" standalone="no"?><svg xmlns="http://www.w3.org/2000/svg" xmlns:xlink="http://www.w3.org/1999/xlink" contentScriptType="application/ecmascript" contentStyleType="text/css" height="823px" preserveAspectRatio="none" style="width:366px;height:823px;" version="1.1" viewBox="0 0 366 823" width="366px" zoomAndPan="magnify"><defs><filter height="300%" id="f1lxhnc6nhfijg" width="300%" x="-1" y="-1"><feGaussianBlur result="blurOut" stdDeviation="2.0"/><feColorMatrix in="blurOut" result="blurOut2" type="matrix" values="0 0 0 0 0 0 0 0 0 0 0 0 0 0 0 0 0 0 .4 0"/><feOffset dx="4.0" dy="4.0" in="blurOut2" result="blurOut3"/><feBlend in="SourceGraphic" in2="blurOut3" mode="normal"/></filter></defs><g><!--MD5=[f4e70ef68289585296b9045165e58692]
cluster controllers--><polygon fill="#FFFFFF" filter="url(#f1lxhnc6nhfijg)" points="184,324.5,279,324.5,286,346.7969,338,346.7969,338,409.5,184,409.5,184,324.5" style="stroke:#000000;stroke-width:1.5;"/><line style="stroke:#000000;stroke-width:1.5;" x1="184" x2="286" y1="346.7969" y2="346.7969"/><text fill="#000000" font-family="sans-serif" font-size="14" font-weight="bold" lengthAdjust="spacing" textLength="89" x="188" y="339.4951">controllers</text><!--MD5=[a60570e4b426f702ccbb0d459e3b9417]
cluster models--><polygon fill="#FFFFFF" filter="url(#f1lxhnc6nhfijg)" points="189,480.5,253,480.5,260,502.7969,349,502.7969,349,698.5,189,698.5,189,480.5" style="stroke:#000000;stroke-width:1.5;"/><line style="stroke:#000000;stroke-width:1.5;" x1="189" x2="260" y1="502.7969" y2="502.7969"/><text fill="#000000" font-family="sans-serif" font-size="14" font-weight="bold" lengthAdjust="spacing" textLength="58" x="193" y="495.4951">models</text><!--MD5=[67cd15ce44b6dd54f77054b62c31bf42]
cluster types--><polygon fill="#FFFFFF" filter="url(#f1lxhnc6nhfijg)" points="230,731.5,281,731.5,288,753.7969,308,753.7969,308,816.5,230,816.5,230,731.5" style="stroke:#000000;stroke-width:1.5;"/><line style="stroke:#000000;stroke-width:1.5;" x1="230" x2="288" y1="753.7969" y2="753.7969"/><text fill="#000000" font-family="sans-serif" font-size="14" font-weight="bold" lengthAdjust="spacing" textLength="45" x="234" y="746.4951">types</text><!--MD5=[e2a75efa8a0f57c2afae8bf75386f79c]
cluster views--><polygon fill="#FFFFFF" filter="url(#f1lxhnc6nhfijg)" points="16,170.5,67,170.5,74,192.7969,160,192.7969,160,409.5,16,409.5,16,170.5" style="stroke:#000000;stroke-width:1.5;"/><line style="stroke:#000000;stroke-width:1.5;" x1="16" x2="74" y1="192.7969" y2="192.7969"/><text fill="#000000" font-family="sans-serif" font-size="14" font-weight="bold" lengthAdjust="spacing" textLength="45" x="20" y="185.4951">views</text><rect fill="#FEFECE" filter="url(#f1lxhnc6nhfijg)" height="33.9688" style="stroke:#A80036;stroke-width:1.5;" width="121" x="200.5" y="359.5"/><text fill="#000000" font-family="sans-serif" font-size="12" lengthAdjust="spacing" textLength="107" x="207.5" y="372.6387">ResumeController</text><line style="stroke:#A80036;stroke-width:1.5;" x1="201.5" x2="320.5" y1="377.4688" y2="377.4688"/><rect fill="#FEFECE" filter="url(#f1lxhnc6nhfijg)" height="33.9688" style="stroke:#A80036;stroke-width:1.5;" width="50" x="236" y="515.5"/><text fill="#000000" font-family="sans-serif" font-size="12" lengthAdjust="spacing" textLength="36" x="243" y="528.6387">Board</text><line style="stroke:#A80036;stroke-width:1.5;" x1="237" x2="285" y1="533.4688" y2="533.4688"/><rect fill="#FEFECE" filter="url(#f1lxhnc6nhfijg)" height="33.9688" style="stroke:#A80036;stroke-width:1.5;" width="128" x="205" y="648.5"/><text fill="#000000" font-family="sans-serif" font-size="12" lengthAdjust="spacing" textLength="114" x="212" y="661.6387">SecretCombination</text><line style="stroke:#A80036;stroke-width:1.5;" x1="206" x2="332" y1="666.4688" y2="666.4688"/><rect fill="#FEFECE" filter="url(#f1lxhnc6nhfijg)" height="33.9688" style="stroke:#A80036;stroke-width:1.5;" width="46" x="246" y="766.5"/><text fill="#000000" font-family="sans-serif" font-size="12" lengthAdjust="spacing" textLength="32" x="253" y="779.6387">Color</text><line style="stroke:#A80036;stroke-width:1.5;" x1="247" x2="291" y1="784.4688" y2="784.4688"/><rect fill="#FEFECE" filter="url(#f1lxhnc6nhfijg)" height="33.9688" style="stroke:#A80036;stroke-width:1.5;" width="91" x="42.5" y="205.5"/><text fill="#000000" font-family="sans-serif" font-size="12" lengthAdjust="spacing" textLength="77" x="49.5" y="218.6387">ResumeView</text><line style="stroke:#A80036;stroke-width:1.5;" x1="43.5" x2="132.5" y1="223.4688" y2="223.4688"/><rect fill="#FEFECE" filter="url(#f1lxhnc6nhfijg)" height="33.9688" style="stroke:#A80036;stroke-width:1.5;" width="69" x="32.5" y="359.5"/><text fill="#000000" font-family="sans-serif" font-size="12" lengthAdjust="spacing" textLength="55" x="39.5" y="372.6387">Message</text><line style="stroke:#A80036;stroke-width:1.5;" x1="33.5" x2="100.5" y1="377.4688" y2="377.4688"/><!--MD5=[fb2f237e4154b78a31e896754c8f6e24]
entity Playerr--><ellipse cx="88" cy="14" fill="#FEFECE" filter="url(#f1lxhnc6nhfijg)" rx="8" ry="8" style="stroke:#A80036;stroke-width:1.5;"/><path d="M88,22 L88,49 M75,30 L101,30 M88,49 L75,64 M88,49 L101,64 " fill="none" filter="url(#f1lxhnc6nhfijg)" style="stroke:#A80036;stroke-width:1.5;"/><text fill="#000000" font-family="sans-serif" font-size="14" lengthAdjust="spacing" textLength="44" x="66" y="82.4951">Player</text><!--MD5=[a05f4f652e03f574fe6c9ed788b38828]
link Playerr to ResumeView--><path codeLine="23" d="M88,85.824 C88,121.431 88,172.226 88,200.482 " fill="none" id="Playerr-to-ResumeView" style="stroke:#A80036;stroke-width:1.0;"/><polygon fill="#A80036" points="88,205.487,92,196.487,88,200.487,84,196.487,88,205.487" style="stroke:#A80036;stroke-width:1.0;"/><path d="M93,120.5 L93,145.5 L173,145.5 L173,130.5 L163,120.5 L93,120.5 " fill="#FBFB77" filter="url(#f1lxhnc6nhfijg)" style="stroke:#A80036;stroke-width:1.0;"/><path d="M163,120.5 L163,130.5 L173,130.5 L163,120.5 " fill="#FBFB77" style="stroke:#A80036;stroke-width:1.0;"/><text fill="#000000" font-family="sans-serif" font-size="13" lengthAdjust="spacing" textLength="59" x="99" y="137.5669">resume()</text><!--MD5=[4b21c71922f6b938a01287b262bac1e8]
link ResumeView to ResumeController--><path codeLine="27" d="M121.035,239.676 C135.807,247.659 153.004,258.035 167,269.5 C198.706,295.471 228.962,332.542 246.222,355.26 " fill="none" id="ResumeView-to-ResumeController" style="stroke:#A80036;stroke-width:1.0;"/><polygon fill="#A80036" points="249.292,359.329,247.0646,349.7353,246.2806,355.3376,240.6783,354.5536,249.292,359.329" style="stroke:#A80036;stroke-width:1.0;"/><path d="M211,274.5 L211,299.5 L275,299.5 L275,284.5 L265,274.5 L211,274.5 " fill="#FBFB77" filter="url(#f1lxhnc6nhfijg)" style="stroke:#A80036;stroke-width:1.0;"/><path d="M265,274.5 L265,284.5 L275,284.5 L265,274.5 " fill="#FBFB77" style="stroke:#A80036;stroke-width:1.0;"/><text fill="#000000" font-family="sans-serif" font-size="13" lengthAdjust="spacing" textLength="43" x="217" y="291.5669">reset()</text><!--MD5=[91198d1c12ec6e73a40fb6837ae56756]
link ResumeView to Message--><path codeLine="31" d="M85.7526,239.767 C81.9318,267.422 74.1723,323.586 69.9306,354.288 " fill="none" id="ResumeView-to-Message" style="stroke:#A80036;stroke-width:1.0;stroke-dasharray:7.0,7.0;"/><polygon fill="#A80036" points="69.2312,359.35,74.4253,350.9821,69.9155,354.397,66.5005,349.8873,69.2312,359.35" style="stroke:#A80036;stroke-width:1.0;"/><path d="M87,274.5 L87,299.5 L150,299.5 L150,284.5 L140,274.5 L87,274.5 " fill="#FBFB77" filter="url(#f1lxhnc6nhfijg)" style="stroke:#A80036;stroke-width:1.0;"/><path d="M140,274.5 L140,284.5 L150,284.5 L140,274.5 " fill="#FBFB77" style="stroke:#A80036;stroke-width:1.0;"/><text fill="#000000" font-family="sans-serif" font-size="13" lengthAdjust="spacing" textLength="42" x="93" y="291.5669">write()</text><!--MD5=[4ed193857be843398b2fd79266ca2f30]
link ResumeController to Board--><path codeLine="35" d="M261,393.69 C261,421.576 261,478.678 261,509.913 " fill="none" id="ResumeController-to-Board" style="stroke:#A80036;stroke-width:1.0;"/><polygon fill="#A80036" points="261,515.064,265,506.064,261,510.064,257,506.064,261,515.064" style="stroke:#A80036;stroke-width:1.0;"/><path d="M266,430.5 L266,455.5 L330,455.5 L330,440.5 L320,430.5 L266,430.5 " fill="#FBFB77" filter="url(#f1lxhnc6nhfijg)" style="stroke:#A80036;stroke-width:1.0;"/><path d="M320,430.5 L320,440.5 L330,440.5 L320,430.5 " fill="#FBFB77" style="stroke:#A80036;stroke-width:1.0;"/><text fill="#000000" font-family="sans-serif" font-size="13" lengthAdjust="spacing" textLength="43" x="272" y="447.5669">reset()</text><!--MD5=[5e915b8ab835b2366405aaf6901e131b]
link Board to SecretCombination--><path codeLine="39" d="M262.7116,561.5407 C262.7116,561.5407 265.888,613.54 267.204,635.089 " fill="none" id="Board-SecretCombination" style="stroke:#A80036;stroke-width:1.0;"/><polygon fill="#A80036" points="268.011,648.305,271.4546,639.0778,267.7061,643.3143,263.4695,639.5657,268.011,648.305" style="stroke:#A80036;stroke-width:1.0;"/><line style="stroke:#A80036;stroke-width:1.0;" x1="267.7061" x2="267.2185" y1="643.3143" y2="635.3295"/><polygon fill="#A80036" points="261.981,549.563,258.3537,555.7954,262.7116,561.5407,266.3389,555.3084,261.981,549.563" style="stroke:#A80036;stroke-width:1.0;"/><path d="M271,584.5 L271,609.5 L329,609.5 L329,594.5 L319,584.5 L271,584.5 " fill="#FBFB77" filter="url(#f1lxhnc6nhfijg)" style="stroke:#A80036;stroke-width:1.0;"/><path d="M319,584.5 L319,594.5 L329,594.5 L319,584.5 " fill="#FBFB77" style="stroke:#A80036;stroke-width:1.0;"/><text fill="#000000" font-family="sans-serif" font-size="13" lengthAdjust="spacing" textLength="37" x="277" y="601.5669">new()</text><!--MD5=[07d792321078d51159861622e3ead1f5]
link SecretCombination to Color--><path codeLine="43" d="M269,694.629 C269,694.629 269,735.3672 269,752.9394 " fill="none" id="SecretCombination-Color" style="stroke:#A80036;stroke-width:1.0;"/><polygon fill="#A80036" points="269,766.1337,273,757.1337,269,761.1337,265,757.1337,269,766.1337" style="stroke:#A80036;stroke-width:1.0;"/><line style="stroke:#A80036;stroke-width:1.0;" x1="269" x2="269" y1="761.1337" y2="753.1338"/><polygon fill="#A80036" points="269,682.629,265,688.629,269,694.629,273,688.629,269,682.629" style="stroke:#A80036;stroke-width:1.0;"/><!--MD5=[5b8f265da2b5b3509f3822d10cf0a93d]
@startuml
allow_mixing

actor :Player: as Playerr

package controllers  {
    object ResumeController
}

package models  {
    object Board
    object SecretCombination
}

package types  {
    object Color
}

package views {
    object ResumeView
    object Message
}

Playerr - -> ResumeView
note on link
    resume()
end note
ResumeView - -> ResumeController
note on link
    reset()
end note
ResumeView ..> Message
note on link
    write()
end note
ResumeController - -> Board
note on link
    reset()
end note
Board *-down-> SecretCombination
note on link
    new()
end note
SecretCombination *-down-> Color
@enduml

PlantUML version 1.2021.4beta2(Unknown compile time)
(GPL source distribution)
Java Runtime: Java(TM) SE Runtime Environment
JVM: Java HotSpot(TM) 64-Bit Server VM
Default Encoding: UTF-8
Language: en
Country: US
--></g></svg>