<?xml version="1.0" encoding="UTF-8" standalone="no"?><svg xmlns="http://www.w3.org/2000/svg" xmlns:xlink="http://www.w3.org/1999/xlink" contentScriptType="application/ecmascript" contentStyleType="text/css" height="1510px" preserveAspectRatio="none" style="width:1800px;height:1510px;" version="1.1" viewBox="0 0 1800 1510" width="1800px" zoomAndPan="magnify"><defs><filter height="300%" id="f1jv95l1ez6fak" width="300%" x="-1" y="-1"><feGaussianBlur result="blurOut" stdDeviation="2.0"/><feColorMatrix in="blurOut" result="blurOut2" type="matrix" values="0 0 0 0 0 0 0 0 0 0 0 0 0 0 0 0 0 0 .4 0"/><feOffset dx="4.0" dy="4.0" in="blurOut2" result="blurOut3"/><feBlend in="SourceGraphic" in2="blurOut3" mode="normal"/></filter></defs><g><!--MD5=[e2a75efa8a0f57c2afae8bf75386f79c]
cluster views--><polygon fill="#FFFFFF" filter="url(#f1jv95l1ez6fak)" points="28.5604,170.5,79.5604,170.5,86.5604,192.7969,920.5604,192.7969,920.5604,767.5,28.5604,767.5,28.5604,170.5" style="stroke:#000000;stroke-width:1.5;"/><line style="stroke:#000000;stroke-width:1.5;" x1="28.5604" x2="86.5604" y1="192.7969" y2="192.7969"/><text fill="#000000" font-family="sans-serif" font-size="14" font-weight="bold" lengthAdjust="spacing" textLength="45" x="32.5604" y="185.4951">views</text><!--MD5=[f4e70ef68289585296b9045165e58692]
cluster controllers--><polygon fill="#FFFFFF" filter="url(#f1jv95l1ez6fak)" points="1063.5604,675.5,1158.5604,675.5,1165.5604,697.7969,1223.5604,697.7969,1223.5604,774.5,1063.5604,774.5,1063.5604,675.5" style="stroke:#000000;stroke-width:1.5;"/><line style="stroke:#000000;stroke-width:1.5;" x1="1063.5604" x2="1165.5604" y1="697.7969" y2="697.7969"/><text fill="#000000" font-family="sans-serif" font-size="14" font-weight="bold" lengthAdjust="spacing" textLength="89" x="1067.5604" y="690.4951">controllers</text><!--MD5=[a60570e4b426f702ccbb0d459e3b9417]
cluster models--><polygon fill="#FFFFFF" filter="url(#f1jv95l1ez6fak)" points="1113.5604,951.5,1177.5604,951.5,1184.5604,973.7969,1633.5604,973.7969,1633.5604,1371.5,1113.5604,1371.5,1113.5604,951.5" style="stroke:#000000;stroke-width:1.5;"/><line style="stroke:#000000;stroke-width:1.5;" x1="1113.5604" x2="1184.5604" y1="973.7969" y2="973.7969"/><text fill="#000000" font-family="sans-serif" font-size="14" font-weight="bold" lengthAdjust="spacing" textLength="58" x="1117.5604" y="966.4951">models</text><!--MD5=[67cd15ce44b6dd54f77054b62c31bf42]
cluster types--><polygon fill="#FFFFFF" filter="url(#f1jv95l1ez6fak)" points="1047.5604,1404.5,1098.5604,1404.5,1105.5604,1426.7969,1212.5604,1426.7969,1212.5604,1503.5,1047.5604,1503.5,1047.5604,1404.5" style="stroke:#000000;stroke-width:1.5;"/><line style="stroke:#000000;stroke-width:1.5;" x1="1047.5604" x2="1105.5604" y1="1426.7969" y2="1426.7969"/><text fill="#000000" font-family="sans-serif" font-size="14" font-weight="bold" lengthAdjust="spacing" textLength="45" x="1051.5604" y="1419.4951">types</text><rect fill="#FEFECE" filter="url(#f1jv95l1ez6fak)" height="33.9688" style="stroke:#A80036;stroke-width:1.5;" width="93" x="565.0604" y="205.5"/><text fill="#000000" font-family="sans-serif" font-size="12" lengthAdjust="spacing" textLength="79" x="572.0604" y="218.6387">ProposeView</text><line style="stroke:#A80036;stroke-width:1.5;" x1="566.0604" x2="657.0604" y1="223.4688" y2="223.4688"/><rect fill="#FEFECE" filter="url(#f1jv95l1ez6fak)" height="33.9688" style="stroke:#A80036;stroke-width:1.5;" width="69" x="225.0604" y="717.5"/><text fill="#000000" font-family="sans-serif" font-size="12" lengthAdjust="spacing" textLength="55" x="232.0604" y="730.6387">Message</text><line style="stroke:#A80036;stroke-width:1.5;" x1="226.0604" x2="293.0604" y1="735.4688" y2="735.4688"/><rect fill="#FEFECE" filter="url(#f1jv95l1ez6fak)" height="33.9688" style="stroke:#A80036;stroke-width:1.5;" width="79" x="433.0604" y="341"/><text fill="#000000" font-family="sans-serif" font-size="12" lengthAdjust="spacing" textLength="65" x="440.0604" y="354.1387">BoardView</text><line style="stroke:#A80036;stroke-width:1.5;" x1="434.0604" x2="511.0604" y1="358.9688" y2="358.9688"/><rect fill="#FEFECE" filter="url(#f1jv95l1ez6fak)" height="33.9688" style="stroke:#A80036;stroke-width:1.5;" width="157" x="431.0604" y="516.5"/><text fill="#000000" font-family="sans-serif" font-size="12" lengthAdjust="spacing" textLength="143" x="438.0604" y="529.6387">SecretCombinationView</text><line style="stroke:#A80036;stroke-width:1.5;" x1="432.0604" x2="587.0604" y1="534.4688" y2="534.4688"/><rect fill="#FEFECE" filter="url(#f1jv95l1ez6fak)" height="33.9688" style="stroke:#A80036;stroke-width:1.5;" width="175" x="623.0604" y="516.5"/><text fill="#000000" font-family="sans-serif" font-size="12" lengthAdjust="spacing" textLength="161" x="630.0604" y="529.6387">ProposedCombinationView</text><line style="stroke:#A80036;stroke-width:1.5;" x1="624.0604" x2="797.0604" y1="534.4688" y2="534.4688"/><rect fill="#FEFECE" filter="url(#f1jv95l1ez6fak)" height="33.9688" style="stroke:#A80036;stroke-width:1.5;" width="79" x="110.0604" y="516.5"/><text fill="#000000" font-family="sans-serif" font-size="12" lengthAdjust="spacing" textLength="65" x="117.0604" y="529.6387">ResultView</text><line style="stroke:#A80036;stroke-width:1.5;" x1="111.0604" x2="188.0604" y1="534.4688" y2="534.4688"/><rect fill="#FEFECE" filter="url(#f1jv95l1ez6fak)" height="33.9688" style="stroke:#A80036;stroke-width:1.5;" width="75" x="611.0604" y="717.5"/><text fill="#000000" font-family="sans-serif" font-size="12" lengthAdjust="spacing" textLength="61" x="618.0604" y="730.6387">ColorView</text><line style="stroke:#A80036;stroke-width:1.5;" x1="612.0604" x2="685.0604" y1="735.4688" y2="735.4688"/><rect fill="#FEFECE" filter="url(#f1jv95l1ez6fak)" height="33.9688" style="stroke:#A80036;stroke-width:1.5;" width="73" x="781.0604" y="717.5"/><text fill="#000000" font-family="sans-serif" font-size="12" lengthAdjust="spacing" textLength="59" x="788.0604" y="730.6387">ErrorView</text><line style="stroke:#A80036;stroke-width:1.5;" x1="782.0604" x2="853.0604" y1="735.4688" y2="735.4688"/><rect fill="#FEFECE" filter="url(#f1jv95l1ez6fak)" height="47.9375" style="stroke:#A80036;stroke-width:1.5;" width="127" x="1080.0604" y="710.5"/><text fill="#000000" font-family="sans-serif" font-size="12" lengthAdjust="spacing" textLength="111" x="1088.0604" y="723.6387">proposeController</text><text fill="#000000" font-family="sans-serif" font-size="12" lengthAdjust="spacing" textLength="113" x="1087.0604" y="737.6074">:ProposeController</text><line style="stroke:#A80036;stroke-width:1.5;" x1="1081.0604" x2="1206.0604" y1="742.4375" y2="742.4375"/><rect fill="#FEFECE" filter="url(#f1jv95l1ez6fak)" height="33.9688" style="stroke:#A80036;stroke-width:1.5;" width="50" x="1344.5604" y="989"/><text fill="#000000" font-family="sans-serif" font-size="12" lengthAdjust="spacing" textLength="36" x="1351.5604" y="1002.1387">Board</text><line style="stroke:#A80036;stroke-width:1.5;" x1="1345.5604" x2="1393.5604" y1="1006.9688" y2="1006.9688"/><rect fill="#FEFECE" filter="url(#f1jv95l1ez6fak)" height="33.9688" style="stroke:#A80036;stroke-width:1.5;" width="50" x="1193.5604" y="1314.5"/><text fill="#000000" font-family="sans-serif" font-size="12" lengthAdjust="spacing" textLength="36" x="1200.5604" y="1327.6387">Result</text><line style="stroke:#A80036;stroke-width:1.5;" x1="1194.5604" x2="1242.5604" y1="1332.4688" y2="1332.4688"/><rect fill="#FEFECE" filter="url(#f1jv95l1ez6fak)" height="47.9375" style="stroke:#A80036;stroke-width:1.5;" width="150" x="1305.5604" y="1307.5"/><text fill="#000000" font-family="sans-serif" font-size="12" lengthAdjust="spacing" textLength="134" x="1313.5604" y="1320.6387">proposedCombination</text><text fill="#000000" font-family="sans-serif" font-size="12" lengthAdjust="spacing" textLength="136" x="1312.5604" y="1334.6074">:ProposedCombination</text><line style="stroke:#A80036;stroke-width:1.5;" x1="1306.5604" x2="1454.5604" y1="1339.4375" y2="1339.4375"/><rect fill="#FEFECE" filter="url(#f1jv95l1ez6fak)" height="33.9688" style="stroke:#A80036;stroke-width:1.5;" width="128" x="1309.5604" y="1142"/><text fill="#000000" font-family="sans-serif" font-size="12" lengthAdjust="spacing" textLength="114" x="1316.5604" y="1155.1387">SecretCombination</text><line style="stroke:#A80036;stroke-width:1.5;" x1="1310.5604" x2="1436.5604" y1="1159.9688" y2="1159.9688"/><rect fill="#FEFECE" filter="url(#f1jv95l1ez6fak)" height="47.9375" style="stroke:#A80036;stroke-width:1.5;" width="50" x="1063.5604" y="1439.5"/><text fill="#000000" font-family="sans-serif" font-size="12" lengthAdjust="spacing" textLength="31" x="1073.0604" y="1452.6387">color</text><text fill="#000000" font-family="sans-serif" font-size="12" lengthAdjust="spacing" textLength="36" x="1070.5604" y="1466.6074">:Color</text><line style="stroke:#A80036;stroke-width:1.5;" x1="1064.5604" x2="1112.5604" y1="1471.4375" y2="1471.4375"/><rect fill="#FEFECE" filter="url(#f1jv95l1ez6fak)" height="47.9375" style="stroke:#A80036;stroke-width:1.5;" width="48" x="1148.5604" y="1439.5"/><text fill="#000000" font-family="sans-serif" font-size="12" lengthAdjust="spacing" textLength="31" x="1157.0604" y="1452.6387">error</text><text fill="#000000" font-family="sans-serif" font-size="12" lengthAdjust="spacing" textLength="34" x="1155.5604" y="1466.6074">:Error</text><line style="stroke:#A80036;stroke-width:1.5;" x1="1149.5604" x2="1195.5604" y1="1471.4375" y2="1471.4375"/><!--MD5=[de2effd8dc5bf946a609466312d0f75f]
entity Player--><ellipse cx="611.5604" cy="14" fill="#FEFECE" filter="url(#f1jv95l1ez6fak)" rx="8" ry="8" style="stroke:#A80036;stroke-width:1.5;"/><path d="M611.5604,22 L611.5604,49 M598.5604,30 L624.5604,30 M611.5604,49 L598.5604,64 M611.5604,49 L624.5604,64 " fill="none" filter="url(#f1jv95l1ez6fak)" style="stroke:#A80036;stroke-width:1.5;"/><text fill="#000000" font-family="sans-serif" font-size="14" lengthAdjust="spacing" textLength="44" x="589.5604" y="82.4951">Player</text><!--MD5=[57e91100e1953bd1492d4aa882ac3550]
link Player to ProposeView--><path codeLine="32" d="M611.5604,85.82 C611.5604,121.43 611.5604,172.23 611.5604,200.48 " fill="none" id="Player-to-ProposeView" style="stroke:#A80036;stroke-width:1.0;"/><polygon fill="#A80036" points="611.5604,205.49,615.5604,196.49,611.5604,200.49,607.5604,196.49,611.5604,205.49" style="stroke:#A80036;stroke-width:1.0;"/><path d="M616.5604,120.5 L616.5604,145.5 L699.5604,145.5 L699.5604,130.5 L689.5604,120.5 L616.5604,120.5 " fill="#FBFB77" filter="url(#f1jv95l1ez6fak)" style="stroke:#A80036;stroke-width:1.0;"/><path d="M689.5604,120.5 L689.5604,130.5 L699.5604,130.5 L689.5604,120.5 " fill="#FBFB77" style="stroke:#A80036;stroke-width:1.0;"/><text fill="#000000" font-family="sans-serif" font-size="13" lengthAdjust="spacing" textLength="62" x="622.5604" y="137.5669">propose()</text><!--MD5=[29c306805319960c0560bedfd82b8e40]
link ProposeView to BoardView--><path codeLine="36" d="M564.9724,236.57 C546.1504,243.76 525.4144,254.38 510.5604,269.5 C492.5244,287.86 482.3834,316.17 477.1974,335.58 " fill="none" id="ProposeView-to-BoardView" style="stroke:#A80036;stroke-width:1.0;stroke-dasharray:7.0,7.0;"/><polygon fill="#A80036" points="475.8644,340.81,481.9755,333.0864,477.107,335.9669,474.2265,331.0983,475.8644,340.81" style="stroke:#A80036;stroke-width:1.0;"/><path d="M515.5604,274.5 L515.5604,299.5 L692.5604,299.5 L692.5604,284.5 L682.5604,274.5 L515.5604,274.5 " fill="#FBFB77" filter="url(#f1jv95l1ez6fak)" style="stroke:#A80036;stroke-width:1.0;"/><path d="M682.5604,274.5 L682.5604,284.5 L692.5604,284.5 L682.5604,274.5 " fill="#FBFB77" style="stroke:#A80036;stroke-width:1.0;"/><text fill="#000000" font-family="sans-serif" font-size="13" lengthAdjust="spacing" textLength="156" x="521.5604" y="291.5669">write(proposeController)</text><!--MD5=[0efb000d2e690ee7d195133162d46198]
link BoardView to ProposeController--><path codeLine="40" d="M512.2934,360.4 C628.4304,366.85 968.7254,402.99 1121.5604,605.5 C1143.3004,634.303 1146.4504,677.118 1145.7704,705.169 " fill="none" id="BoardView-to-ProposeController" style="stroke:#A80036;stroke-width:1.0;stroke-dasharray:7.0,7.0;"/><polygon fill="#A80036" points="1145.6004,710.228,1149.9022,701.3683,1145.7693,705.2309,1141.9068,701.098,1145.6004,710.228" style="stroke:#A80036;stroke-width:1.0;"/><path d="M1100.5604,496.5 L1100.5604,566.5 L1383.5604,566.5 L1383.5604,506.5 L1373.5604,496.5 L1100.5604,496.5 " fill="#FBFB77" filter="url(#f1jv95l1ez6fak)" style="stroke:#A80036;stroke-width:1.0;"/><path d="M1373.5604,496.5 L1373.5604,506.5 L1383.5604,506.5 L1373.5604,496.5 " fill="#FBFB77" style="stroke:#A80036;stroke-width:1.0;"/><text fill="#000000" font-family="sans-serif" font-size="13" lengthAdjust="spacing" textLength="91" x="1106.5604" y="513.5669">getAttempts()</text><text fill="#000000" font-family="sans-serif" font-size="13" lengthAdjust="spacing" textLength="262" x="1106.5604" y="528.6997">getProposedCombinationColors(position)</text><text fill="#000000" font-family="sans-serif" font-size="13" lengthAdjust="spacing" textLength="121" x="1106.5604" y="543.8325">getBlacks(position)</text><text fill="#000000" font-family="sans-serif" font-size="13" lengthAdjust="spacing" textLength="125" x="1106.5604" y="558.9653">getWhites(position)</text><!--MD5=[02a16ebf8539d2e5d44c3be387606aac]
link BoardView to Message--><path codeLine="47" d="M459.5454,375.1 C440.7414,397.39 403.8914,437.62 364.5604,461.5 C329.5994,482.73 303.1554,459.6 277.5604,491.5 C250.6054,525.097 255.2264,659.416 258.1784,712.121 " fill="none" id="BoardView-to-Message" style="stroke:#A80036;stroke-width:1.0;stroke-dasharray:7.0,7.0;"/><polygon fill="#A80036" points="258.4754,717.255,261.9494,708.0392,258.1869,712.2633,253.9627,708.5008,258.4754,717.255" style="stroke:#A80036;stroke-width:1.0;"/><path d="M282.5604,519 L282.5604,544 L404.5604,544 L404.5604,529 L394.5604,519 L282.5604,519 " fill="#FBFB77" filter="url(#f1jv95l1ez6fak)" style="stroke:#A80036;stroke-width:1.0;"/><path d="M394.5604,519 L394.5604,529 L404.5604,529 L394.5604,519 " fill="#FBFB77" style="stroke:#A80036;stroke-width:1.0;"/><text fill="#000000" font-family="sans-serif" font-size="13" lengthAdjust="spacing" textLength="101" x="288.5604" y="536.0669">write(attempts)</text><!--MD5=[5418e21908cb409c36d98acf7a0f9cb6]
link BoardView to SecretCombinationView--><path codeLine="51" d="M469.2944,375.3 C465.8164,395.79 461.7914,431.88 469.5604,461.5 C474.3654,479.82 485.0834,498.39 494.2154,511.95 " fill="none" id="BoardView-to-SecretCombinationView" style="stroke:#A80036;stroke-width:1.0;stroke-dasharray:7.0,7.0;"/><polygon fill="#A80036" points="497.2414,516.34,495.4207,506.6609,494.4011,512.2251,488.8369,511.2054,497.2414,516.34" style="stroke:#A80036;stroke-width:1.0;"/><path d="M474.5604,420 L474.5604,445 L537.5604,445 L537.5604,430 L527.5604,420 L474.5604,420 " fill="#FBFB77" filter="url(#f1jv95l1ez6fak)" style="stroke:#A80036;stroke-width:1.0;"/><path d="M527.5604,420 L527.5604,430 L537.5604,430 L527.5604,420 " fill="#FBFB77" style="stroke:#A80036;stroke-width:1.0;"/><text fill="#000000" font-family="sans-serif" font-size="13" lengthAdjust="spacing" textLength="42" x="480.5604" y="437.0669">write()</text><!--MD5=[d0c6e2bebacb85fe1d099bc6a8097bbc]
link SecretCombinationView to Message--><path codeLine="55" d="M470.6124,550.567 C450.7124,558.519 426.0174,567.997 403.5604,575.5 C357.1224,591.015 332.4024,571.101 297.5604,605.5 C268.5204,634.171 261.4504,683.939 259.8674,712.231 " fill="none" id="SecretCombinationView-to-Message" style="stroke:#A80036;stroke-width:1.0;stroke-dasharray:7.0,7.0;"/><polygon fill="#A80036" points="259.6314,717.254,264.0486,708.4513,259.8656,712.2595,256.0574,708.0765,259.6314,717.254" style="stroke:#A80036;stroke-width:1.0;"/><path d="M302.5604,618 L302.5604,643 L365.5604,643 L365.5604,628 L355.5604,618 L302.5604,618 " fill="#FBFB77" filter="url(#f1jv95l1ez6fak)" style="stroke:#A80036;stroke-width:1.0;"/><path d="M355.5604,618 L355.5604,628 L365.5604,628 L355.5604,618 " fill="#FBFB77" style="stroke:#A80036;stroke-width:1.0;"/><text fill="#000000" font-family="sans-serif" font-size="13" lengthAdjust="spacing" textLength="42" x="308.5604" y="635.0669">write()</text><!--MD5=[b92bc89b5449472b10f1cf1477809057]
link BoardView to ProposedCombinationView--><path codeLine="59" d="M505.1084,375.1 C520.0144,383.46 537.2754,394.63 550.5604,407.5 C571.2774,427.57 565.4824,441.81 586.5604,461.5 C610.3664,483.74 642.3794,501.85 667.9154,514.21 " fill="none" id="BoardView-to-ProposedCombinationView" style="stroke:#A80036;stroke-width:1.0;stroke-dasharray:7.0,7.0;"/><polygon fill="#A80036" points="672.6044,516.45,666.2066,508.9622,668.0924,514.2954,662.7592,516.1813,672.6044,516.45" style="stroke:#A80036;stroke-width:1.0;"/><path d="M591.5604,420 L591.5604,445 L692.5604,445 L692.5604,430 L682.5604,420 L591.5604,420 " fill="#FBFB77" filter="url(#f1jv95l1ez6fak)" style="stroke:#A80036;stroke-width:1.0;"/><path d="M682.5604,420 L682.5604,430 L692.5604,430 L682.5604,420 " fill="#FBFB77" style="stroke:#A80036;stroke-width:1.0;"/><text fill="#000000" font-family="sans-serif" font-size="13" lengthAdjust="spacing" textLength="80" x="597.5604" y="437.0669">write(colors)</text><!--MD5=[54923e7f1f8105ab44ef05f41a7d666e]
link ProposedCombinationView to ColorView--><path codeLine="63" d="M688.8074,550.768 C673.4844,563.681 654.2164,583.225 645.5604,605.5 C631.7464,641.046 637.7954,686.436 643.2884,712.512 " fill="none" id="ProposedCombinationView-to-ColorView" style="stroke:#A80036;stroke-width:1.0;stroke-dasharray:7.0,7.0;"/><polygon fill="#A80036" points="644.3734,717.46,646.3542,707.8124,643.3031,712.5759,638.5396,709.5248,644.3734,717.46" style="stroke:#A80036;stroke-width:1.0;"/><path d="M650.5604,618 L650.5604,643 L744.5604,643 L744.5604,628 L734.5604,618 L650.5604,618 " fill="#FBFB77" filter="url(#f1jv95l1ez6fak)" style="stroke:#A80036;stroke-width:1.0;"/><path d="M734.5604,618 L734.5604,628 L744.5604,628 L734.5604,618 " fill="#FBFB77" style="stroke:#A80036;stroke-width:1.0;"/><text fill="#000000" font-family="sans-serif" font-size="13" lengthAdjust="spacing" textLength="73" x="656.5604" y="635.0669">write(color)</text><!--MD5=[54923e7f1f8105ab44ef05f41a7d666e]
link ProposedCombinationView to ColorView--><path codeLine="116" d="M669.8044,550.507 C626.1624,568.055 562.2354,595.1 555.5604,605.5 C542.5964,625.697 545.1354,637.882 555.5604,659.5 C567.1914,683.618 590.9274,702.3 611.5084,714.859 " fill="none" id="ProposedCombinationView-to-ColorView-1" style="stroke:#A80036;stroke-width:1.0;stroke-dasharray:7.0,7.0;"/><polygon fill="#A80036" points="615.8464,717.446,610.166,709.4003,611.5523,714.8847,606.0679,716.2709,615.8464,717.446" style="stroke:#A80036;stroke-width:1.0;"/><path d="M560.5604,618 L560.5604,643 L620.5604,643 L620.5604,628 L610.5604,618 L560.5604,618 " fill="#FBFB77" filter="url(#f1jv95l1ez6fak)" style="stroke:#A80036;stroke-width:1.0;"/><path d="M610.5604,618 L610.5604,628 L620.5604,628 L610.5604,618 " fill="#FBFB77" style="stroke:#A80036;stroke-width:1.0;"/><text fill="#000000" font-family="sans-serif" font-size="13" lengthAdjust="spacing" textLength="39" x="566.5604" y="635.0669">read()</text><!--MD5=[3c978e882819d5791a3d8cfa6d73d565]
link ColorView to Color--><path codeLine="67" d="M659.6904,751.678 C686.5194,792.302 752.5604,902.692 752.5604,1005 C752.5604,1005 752.5604,1005 752.5604,1332.5 C752.5604,1397.682 975.2774,1442.8977 1058.0604,1457.4528 " fill="none" id="ColorView-to-Color" style="stroke:#A80036;stroke-width:1.0;stroke-dasharray:7.0,7.0;"/><polygon fill="#A80036" points="1063.3104,1458.367,1055.1294,1452.8833,1058.3844,1457.5098,1053.7579,1460.7649,1063.3104,1458.367" style="stroke:#A80036;stroke-width:1.0;"/><!--MD5=[15f682a315f16673a58b132a229e1ff0]
link BoardView to ResultView--><path codeLine="68" d="M432.7904,361.04 C364.5544,365.32 229.0754,377.45 193.5604,407.5 C162.6414,433.66 153.4394,482.95 150.7074,511.19 " fill="none" id="BoardView-to-ResultView" style="stroke:#A80036;stroke-width:1.0;stroke-dasharray:7.0,7.0;"/><polygon fill="#A80036" points="150.2684,516.21,155.0253,507.5861,150.6971,511.2284,147.0548,506.9002,150.2684,516.21" style="stroke:#A80036;stroke-width:1.0;"/><path d="M198.5604,420 L198.5604,445 L351.5604,445 L351.5604,430 L341.5604,420 L198.5604,420 " fill="#FBFB77" filter="url(#f1jv95l1ez6fak)" style="stroke:#A80036;stroke-width:1.0;"/><path d="M341.5604,420 L341.5604,430 L351.5604,430 L341.5604,420 " fill="#FBFB77" style="stroke:#A80036;stroke-width:1.0;"/><text fill="#000000" font-family="sans-serif" font-size="13" lengthAdjust="spacing" textLength="132" x="204.5604" y="437.0669">write(blacks, whites)</text><!--MD5=[0e5df9184d8007a1cb9785d3f6966635]
link ResultView to Message--><path codeLine="72" d="M127.4804,550.696 C111.9253,563.572 92.3631,583.101 83.5604,605.5 C74.7819,627.837 70.2798,639.509 83.5604,659.5 C113.7884,705 178.0354,722.586 219.9744,729.34 " fill="none" id="ResultView-to-Message" style="stroke:#A80036;stroke-width:1.0;stroke-dasharray:7.0,7.0;"/><polygon fill="#A80036" points="224.9744,730.112,216.6885,724.788,220.0327,729.3505,215.4702,732.6947,224.9744,730.112" style="stroke:#A80036;stroke-width:1.0;"/><path d="M88.5604,618 L88.5604,643 L241.5604,643 L241.5604,628 L231.5604,618 L88.5604,618 " fill="#FBFB77" filter="url(#f1jv95l1ez6fak)" style="stroke:#A80036;stroke-width:1.0;"/><path d="M231.5604,618 L231.5604,628 L241.5604,628 L231.5604,618 " fill="#FBFB77" style="stroke:#A80036;stroke-width:1.0;"/><text fill="#000000" font-family="sans-serif" font-size="13" lengthAdjust="spacing" textLength="132" x="94.5604" y="635.0669">write(blacks, whites)</text><!--MD5=[78ecea817a4cecdeeb6aef21215fa7e7]
link ProposeController to Board--><path codeLine="76" d="M1163.2204,758.945 C1206.9904,811.136 1311.8104,936.138 1352.7604,984.971 " fill="none" id="ProposeController-to-Board" style="stroke:#A80036;stroke-width:1.0;"/><polygon fill="#A80036" points="1356.0604,988.906,1353.339,979.4406,1352.8463,985.0759,1347.2109,984.5832,1356.0604,988.906" style="stroke:#A80036;stroke-width:1.0;"/><path d="M1314.5604,795.5 L1314.5604,926.5 L1597.5604,926.5 L1597.5604,805.5 L1587.5604,795.5 L1314.5604,795.5 " fill="#FBFB77" filter="url(#f1jv95l1ez6fak)" style="stroke:#A80036;stroke-width:1.0;"/><path d="M1587.5604,795.5 L1587.5604,805.5 L1597.5604,805.5 L1587.5604,795.5 " fill="#FBFB77" style="stroke:#A80036;stroke-width:1.0;"/><text fill="#000000" font-family="sans-serif" font-size="13" lengthAdjust="spacing" textLength="100" x="1320.5604" y="812.5669">getError(colors)</text><text fill="#000000" font-family="sans-serif" font-size="13" lengthAdjust="spacing" textLength="72" x="1320.5604" y="827.6997">add(colors)</text><text fill="#000000" font-family="sans-serif" font-size="13" lengthAdjust="spacing" textLength="72" x="1320.5604" y="842.8325">isFinished()</text><text fill="#000000" font-family="sans-serif" font-size="13" lengthAdjust="spacing" textLength="65" x="1320.5604" y="857.9653">isWinner()</text><text fill="#000000" font-family="sans-serif" font-size="13" lengthAdjust="spacing" textLength="91" x="1320.5604" y="873.0981">getAttempts()</text><text fill="#000000" font-family="sans-serif" font-size="13" lengthAdjust="spacing" textLength="262" x="1320.5604" y="888.231">getProposedCombinationColors(position)</text><text fill="#000000" font-family="sans-serif" font-size="13" lengthAdjust="spacing" textLength="121" x="1320.5604" y="903.3638">getBlacks(position)</text><text fill="#000000" font-family="sans-serif" font-size="13" lengthAdjust="spacing" textLength="125" x="1320.5604" y="918.4966">getWhites(position)</text><!--MD5=[8dd95aff79c51151a18c835e3410b3cd]
link Board to Result--><path codeLine="87" d="M1332.6599,1014.905 C1332.6599,1014.905 1265.9004,1035.247 1237.5604,1055.5 C1205.4304,1078.467 1194.7604,1087.277 1181.5604,1124.5 C1158.8004,1188.675 1169.5804,1212.404 1189.5604,1277.5 C1192.1904,1286.054 1196.2804,1294.793 1200.5804,1302.644 " fill="none" id="Board-Result" style="stroke:#A80036;stroke-width:1.0;"/><polygon fill="#A80036" points="1207.3104,1314.094,1206.1957,1304.3084,1204.7756,1309.7841,1199.2999,1308.3641,1207.3104,1314.094" style="stroke:#A80036;stroke-width:1.0;"/><line style="stroke:#A80036;stroke-width:1.0;" x1="1204.7756" x2="1200.7204" y1="1309.7841" y2="1302.8865"/><polygon fill="#A80036" points="1344.3104,1012.03,1337.5268,1009.584,1332.6599,1014.905,1339.4435,1017.351,1344.3104,1012.03" style="stroke:#A80036;stroke-width:1.0;"/><path d="M1186.5604,1129.5 L1186.5604,1184.5 L1282.5604,1184.5 L1282.5604,1139.5 L1272.5604,1129.5 L1186.5604,1129.5 " fill="#FBFB77" filter="url(#f1jv95l1ez6fak)" style="stroke:#A80036;stroke-width:1.0;"/><path d="M1272.5604,1129.5 L1272.5604,1139.5 L1282.5604,1139.5 L1272.5604,1129.5 " fill="#FBFB77" style="stroke:#A80036;stroke-width:1.0;"/><text fill="#000000" font-family="sans-serif" font-size="13" lengthAdjust="spacing" textLength="65" x="1192.5604" y="1146.5669">isWinner()</text><text fill="#000000" font-family="sans-serif" font-size="13" lengthAdjust="spacing" textLength="71" x="1192.5604" y="1161.6997">getBlacks()</text><text fill="#000000" font-family="sans-serif" font-size="13" lengthAdjust="spacing" textLength="75" x="1192.5604" y="1176.8325">getWhites()</text><!--MD5=[e0b5d9907fda64872c10fd6493e0c51f]
link Board to ProposedCombination--><path codeLine="93" d="M1406.4656,1010.8744 C1406.4656,1010.8744 1478.4104,1028.208 1502.5604,1055.5 C1544.2904,1102.647 1500.1804,1140.752 1534.5604,1193.5 C1546.6904,1212.118 1564.6204,1203.624 1574.5604,1223.5 C1585.2904,1244.966 1589.1204,1258.424 1574.5604,1277.5 C1561.1104,1295.124 1513.2504,1308.306 1468.4404,1317.116 " fill="none" id="Board-ProposedCombination" style="stroke:#A80036;stroke-width:1.0;"/><polygon fill="#A80036" points="1455.6004,1319.541,1465.1867,1321.8,1460.5134,1318.6125,1463.701,1313.9392,1455.6004,1319.541" style="stroke:#A80036;stroke-width:1.0;"/><line style="stroke:#A80036;stroke-width:1.0;" x1="1460.5134" x2="1468.3754" y1="1318.6125" y2="1317.127"/><polygon fill="#A80036" points="1394.6004,1009.081,1399.9352,1013.9328,1406.4656,1010.8744,1401.1308,1006.0226,1394.6004,1009.081" style="stroke:#A80036;stroke-width:1.0;"/><path d="M1539.5604,1129.5 L1539.5604,1184.5 L1635.5604,1184.5 L1635.5604,1139.5 L1625.5604,1129.5 L1539.5604,1129.5 " fill="#FBFB77" filter="url(#f1jv95l1ez6fak)" style="stroke:#A80036;stroke-width:1.0;"/><path d="M1625.5604,1129.5 L1625.5604,1139.5 L1635.5604,1139.5 L1625.5604,1129.5 " fill="#FBFB77" style="stroke:#A80036;stroke-width:1.0;"/><text fill="#000000" font-family="sans-serif" font-size="13" lengthAdjust="spacing" textLength="75" x="1545.5604" y="1146.5669">new(colors)</text><text fill="#000000" font-family="sans-serif" font-size="13" lengthAdjust="spacing" textLength="62" x="1545.5604" y="1161.6997">getError()</text><text fill="#000000" font-family="sans-serif" font-size="13" lengthAdjust="spacing" textLength="71" x="1545.5604" y="1176.8325">getColors()</text><!--MD5=[2d4500cc75f159eca4a02f9c13f05618]
link ProposedCombination to Color--><path codeLine="99" d="M1318.6547,1360.0477 C1318.6547,1360.0477 1279.4904,1374.634 1260.5604,1379.5 C1204.1304,1394.01 1179.7104,1365.201 1130.5604,1396.5 C1118.9104,1403.918 1109.8904,1415.855 1103.2504,1427.5515 " fill="none" id="ProposedCombination-Color" style="stroke:#A80036;stroke-width:1.0;"/><polygon fill="#A80036" points="1097.1704,1439.4536,1104.8224,1433.2531,1099.4418,1434.9993,1097.6956,1429.6188,1097.1704,1439.4536" style="stroke:#A80036;stroke-width:1.0;"/><line style="stroke:#A80036;stroke-width:1.0;" x1="1099.4418" x2="1103.0854" y1="1434.9993" y2="1427.8738"/><polygon fill="#A80036" points="1329.7804,1355.551,1322.7187,1354.0908,1318.6547,1360.0477,1325.7165,1361.5079,1329.7804,1355.551" style="stroke:#A80036;stroke-width:1.0;"/><!--MD5=[e8e56f95b2bfb8e03c3cdf9f0e0c50ee]
link Board to Color--><path codeLine="100" d="M1394.7504,1008.333 C1452.6604,1012.948 1594.4204,1033.478 1648.5604,1124.5 C1664.2404,1150.857 1657.9204,1164.296 1648.5604,1193.5 C1613.8304,1301.88 1578.0204,1336.709 1472.5604,1379.5 C1437.3004,1393.805 1163.4504,1377.369 1130.5604,1396.5 C1116.0004,1404.967 1105.7004,1420.7138 1098.9404,1434.7027 " fill="none" id="Board-to-Color" style="stroke:#A80036;stroke-width:1.0;stroke-dasharray:7.0,7.0;"/><polygon fill="#A80036" points="1096.7804,1439.3663,1104.1873,1432.8749,1098.8782,1434.8276,1096.9255,1429.5185,1096.7804,1439.3663" style="stroke:#A80036;stroke-width:1.0;"/><!--MD5=[d649baaff3a9c9942c69fcb786dc271c]
link ProposeController to Color--><path codeLine="101" d="M1139.4604,758.808 C1132.8704,797.182 1120.0304,876.13 1113.5604,943.5 C1095.6504,1130.063 1090.3504,1355.649 1088.9804,1434.0361 " fill="none" id="ProposeController-to-Color" style="stroke:#A80036;stroke-width:1.0;stroke-dasharray:7.0,7.0;"/><polygon fill="#A80036" points="1088.8904,1439.423,1093.0428,1430.4923,1088.9754,1434.4237,1085.0439,1430.3563,1088.8904,1439.423" style="stroke:#A80036;stroke-width:1.0;"/><!--MD5=[12f03c7f5abb6c3e068862197d6139ed]
link BoardView to Color--><path codeLine="102" d="M432.8874,360.96 C332.9854,366.25 76.9665,382.16 48.5604,407.5 C6,445.46 19.5604,475.47 19.5604,532.5 C19.5604,532.5 19.5604,532.5 19.5604,1332.5 C19.5604,1440.1126 884.2454,1459.3108 1058.2704,1462.0849 " fill="none" id="BoardView-to-Color" style="stroke:#A80036;stroke-width:1.0;stroke-dasharray:7.0,7.0;"/><polygon fill="#A80036" points="1063.4504,1462.1659,1054.5203,1458.0122,1058.4511,1462.0802,1054.3831,1466.011,1063.4504,1462.1659" style="stroke:#A80036;stroke-width:1.0;"/><!--MD5=[644d3bda32b13afd96f2f5d418a902c1]
link ProposedCombinationView to Color--><path codeLine="103" d="M798.3754,548.11 C834.9004,558.123 874.7214,575.471 900.5604,605.5 C938.4824,649.571 927.5604,675.359 927.5604,733.5 C927.5604,733.5 927.5604,733.5 927.5604,1332.5 C927.5604,1399.052 1011.8674,1437.3596 1058.4704,1453.4501 " fill="none" id="ProposedCombinationView-to-Color" style="stroke:#A80036;stroke-width:1.0;stroke-dasharray:7.0,7.0;"/><polygon fill="#A80036" points="1063.4004,1455.1208,1056.154,1448.4508,1058.6634,1453.5206,1053.5936,1456.03,1063.4004,1455.1208" style="stroke:#A80036;stroke-width:1.0;"/><!--MD5=[314f1b143affbca542acc1caaa9c190a]
link ProposeView to ProposedCombinationView--><path codeLine="104" d="M658.4204,235.06 C676.2964,241.98 694.9174,252.8 705.5604,269.5 C754.6944,346.61 730.0364,463.96 716.9534,511.45 " fill="none" id="ProposeView-to-ProposedCombinationView" style="stroke:#A80036;stroke-width:1.0;stroke-dasharray:7.0,7.0;"/><polygon fill="#A80036" points="715.5734,516.36,721.845,508.7661,716.9171,511.5439,714.1393,506.6161,715.5734,516.36" style="stroke:#A80036;stroke-width:1.0;"/><path d="M739.5604,343.5 L739.5604,368.5 L913.5604,368.5 L913.5604,353.5 L903.5604,343.5 L739.5604,343.5 " fill="#FBFB77" filter="url(#f1jv95l1ez6fak)" style="stroke:#A80036;stroke-width:1.0;"/><path d="M903.5604,343.5 L903.5604,353.5 L913.5604,353.5 L903.5604,343.5 " fill="#FBFB77" style="stroke:#A80036;stroke-width:1.0;"/><text fill="#000000" font-family="sans-serif" font-size="13" lengthAdjust="spacing" textLength="153" x="745.5604" y="360.5669">read(proposeController)</text><!--MD5=[7bf6310e2078d439bcd0e6b6dd4bf7dc]
link ProposedCombinationView to Message--><path codeLine="108" d="M673.6654,550.636 C653.7694,558.894 628.6294,568.628 605.5604,575.5 C543.3244,594.04 522.6464,580.867 462.5604,605.5 C421.4954,622.335 416.0724,635.781 378.5604,659.5 C348.5554,678.472 314.0934,699.858 290.0044,714.743 " fill="none" id="ProposedCombinationView-to-Message" style="stroke:#A80036;stroke-width:1.0;stroke-dasharray:7.0,7.0;"/><polygon fill="#A80036" points="285.6304,717.444,295.3897,716.1186,289.8846,714.8169,291.1863,709.3118,285.6304,717.444" style="stroke:#A80036;stroke-width:1.0;"/><path d="M467.5604,618 L467.5604,643 L530.5604,643 L530.5604,628 L520.5604,618 L467.5604,618 " fill="#FBFB77" filter="url(#f1jv95l1ez6fak)" style="stroke:#A80036;stroke-width:1.0;"/><path d="M520.5604,618 L520.5604,628 L530.5604,628 L520.5604,618 " fill="#FBFB77" style="stroke:#A80036;stroke-width:1.0;"/><text fill="#000000" font-family="sans-serif" font-size="13" lengthAdjust="spacing" textLength="42" x="473.5604" y="635.0669">write()</text><!--MD5=[058408ce5819f71d62d41402f2a6cc02]
link ProposedCombinationView to ErrorView--><path codeLine="112" d="M722.2804,550.711 C732.2454,564.831 746.6334,586.036 757.5604,605.5 C778.0594,642.015 797.8864,686.716 808.8314,712.471 " fill="none" id="ProposedCombinationView-to-ErrorView" style="stroke:#A80036;stroke-width:1.0;stroke-dasharray:7.0,7.0;"/><polygon fill="#A80036" points="810.8994,717.361,811.078,707.5138,808.9519,712.7559,803.7098,710.6298,810.8994,717.361" style="stroke:#A80036;stroke-width:1.0;"/><path d="M789.5604,618 L789.5604,643 L883.5604,643 L883.5604,628 L873.5604,618 L789.5604,618 " fill="#FBFB77" filter="url(#f1jv95l1ez6fak)" style="stroke:#A80036;stroke-width:1.0;"/><path d="M873.5604,618 L873.5604,628 L883.5604,628 L873.5604,618 " fill="#FBFB77" style="stroke:#A80036;stroke-width:1.0;"/><text fill="#000000" font-family="sans-serif" font-size="13" lengthAdjust="spacing" textLength="73" x="795.5604" y="635.0669">write(error)</text><!--MD5=[84218aafa7a878c97f717d9c345cf5ad]
link ProposedCombinationView to ProposeController--><path codeLine="120" d="M798.0944,546.066 C845.6214,555.782 903.3254,573.476 946.5604,605.5 C969.7394,622.668 960.6264,640.768 982.5604,659.5 C1009.3174,682.351 1044.3004,699.554 1074.8304,711.596 " fill="none" id="ProposedCombinationView-to-ProposeController" style="stroke:#A80036;stroke-width:1.0;stroke-dasharray:7.0,7.0;"/><polygon fill="#A80036" points="1079.6804,713.484,1072.7448,706.4913,1075.0211,711.67,1069.8424,713.9462,1079.6804,713.484" style="stroke:#A80036;stroke-width:1.0;"/><path d="M987.5604,610.5 L987.5604,650.5 L1108.5604,650.5 L1108.5604,620.5 L1098.5604,610.5 L987.5604,610.5 " fill="#FBFB77" filter="url(#f1jv95l1ez6fak)" style="stroke:#A80036;stroke-width:1.0;"/><path d="M1098.5604,610.5 L1098.5604,620.5 L1108.5604,620.5 L1098.5604,610.5 " fill="#FBFB77" style="stroke:#A80036;stroke-width:1.0;"/><text fill="#000000" font-family="sans-serif" font-size="13" lengthAdjust="spacing" textLength="100" x="993.5604" y="627.5669">getError(colors)</text><text fill="#000000" font-family="sans-serif" font-size="13" lengthAdjust="spacing" textLength="72" x="993.5604" y="642.6997">add(colors)</text><!--MD5=[03e1adeaed11e2ac298b9b43cd912fbb]
link ProposedCombination to Error--><path codeLine="125" d="M1343.3704,1355.741 C1302.6104,1381.217 1238.1104,1421.5324 1201.1304,1444.6429 " fill="none" id="ProposedCombination-to-Error" style="stroke:#A80036;stroke-width:1.0;stroke-dasharray:7.0,7.0;"/><polygon fill="#A80036" points="1196.7604,1447.3738,1206.5107,1445.984,1200.9972,1444.7187,1202.2625,1439.2052,1196.7604,1447.3738" style="stroke:#A80036;stroke-width:1.0;"/><!--MD5=[86870cdabd6f68629f04aeac36e6c4ff]
link ErrorView to Error--><path codeLine="126" d="M824.5804,751.664 C865.5214,845.813 1073.0504,1321.304 1113.5604,1379.5 C1119.6604,1388.27 1123.8704,1388.165 1130.5604,1396.5 C1140.1704,1408.483 1149.4904,1422.7615 1156.9004,1434.9675 " fill="none" id="ErrorView-to-Error" style="stroke:#A80036;stroke-width:1.0;stroke-dasharray:7.0,7.0;"/><polygon fill="#A80036" points="1159.5404,1439.3626,1158.3356,1429.5877,1156.966,1435.0763,1151.4775,1433.7067,1159.5404,1439.3626" style="stroke:#A80036;stroke-width:1.0;"/><!--MD5=[29fcc52e6d71b3dd4a5f09442a1139e9]
link ProposeView to ProposeController--><path codeLine="127" d="M658.2784,232.09 C813.8864,261.74 1309.8804,364.93 1400.5604,491.5 C1466.1104,582.993 1305.3504,667.757 1209.2504,708.361 " fill="none" id="ProposeView-to-ProposeController" style="stroke:#A80036;stroke-width:1.0;"/><polygon fill="#A80036" points="1204.4404,710.38,1214.2868,710.5978,1209.0532,708.4508,1211.2002,703.2172,1204.4404,710.38" style="stroke:#A80036;stroke-width:1.0;"/><path d="M1375.5604,412.5 L1375.5604,452.5 L1468.5604,452.5 L1468.5604,422.5 L1458.5604,412.5 L1375.5604,412.5 " fill="#FBFB77" filter="url(#f1jv95l1ez6fak)" style="stroke:#A80036;stroke-width:1.0;"/><path d="M1458.5604,412.5 L1458.5604,422.5 L1468.5604,422.5 L1458.5604,412.5 " fill="#FBFB77" style="stroke:#A80036;stroke-width:1.0;"/><text fill="#000000" font-family="sans-serif" font-size="13" lengthAdjust="spacing" textLength="72" x="1381.5604" y="429.5669">isFinished()</text><text fill="#000000" font-family="sans-serif" font-size="13" lengthAdjust="spacing" textLength="65" x="1381.5604" y="444.6997">isWinner()</text><!--MD5=[2af68b46eeb5c2e46543eeb7557d9936]
link ProposeView to Message--><path codeLine="132" d="M564.8684,223.43 C457.8544,226.09 195.0024,249.24 76.5604,407.5 C42.9846,452.36 35.8527,613.298 67.5604,659.5 C101.6223,709.132 174.0294,725.487 219.5444,730.869 " fill="none" id="ProposeView-to-Message" style="stroke:#A80036;stroke-width:1.0;stroke-dasharray:7.0,7.0;"/><polygon fill="#A80036" points="224.6834,731.444,216.1838,726.4684,219.7144,730.8882,215.2945,734.4188,224.6834,731.444" style="stroke:#A80036;stroke-width:1.0;"/><path d="M81.5604,420 L81.5604,445 L144.5604,445 L144.5604,430 L134.5604,420 L81.5604,420 " fill="#FBFB77" filter="url(#f1jv95l1ez6fak)" style="stroke:#A80036;stroke-width:1.0;"/><path d="M134.5604,420 L134.5604,430 L144.5604,430 L134.5604,420 " fill="#FBFB77" style="stroke:#A80036;stroke-width:1.0;"/><text fill="#000000" font-family="sans-serif" font-size="13" lengthAdjust="spacing" textLength="42" x="87.5604" y="437.0669">write()</text><!--MD5=[7169228af196aecd88154fe1727a36de]
link Board to Board--><path codeLine="136" d="M1394.8404,994.495 C1412.3304,991.009 1429.5604,994.844 1429.5604,1006 C1429.5604,1016.023 1415.6504,1020.137 1400.1404,1018.341 " fill="none" id="Board-to-Board" style="stroke:#A80036;stroke-width:1.0;stroke-dasharray:7.0,7.0;"/><polygon fill="#A80036" points="1394.8404,1017.505,1403.1004,1022.869,1399.7783,1018.2904,1404.357,1014.9683,1394.8404,1017.505" style="stroke:#A80036;stroke-width:1.0;"/><path d="M1434.5604,991.5 L1434.5604,1016.5 L1510.5604,1016.5 L1510.5604,1001.5 L1500.5604,991.5 L1434.5604,991.5 " fill="#FBFB77" filter="url(#f1jv95l1ez6fak)" style="stroke:#A80036;stroke-width:1.0;"/><path d="M1500.5604,991.5 L1500.5604,1001.5 L1510.5604,1001.5 L1500.5604,991.5 " fill="#FBFB77" style="stroke:#A80036;stroke-width:1.0;"/><text fill="#000000" font-family="sans-serif" font-size="13" lengthAdjust="spacing" textLength="55" x="1440.5604" y="1008.5669">isLoser()</text><!--MD5=[5e915b8ab835b2366405aaf6901e131b]
link Board to SecretCombination--><path codeLine="140" d="M1332.588,1011.389 C1332.588,1011.389 1269.2304,1029.135 1251.5604,1055.5 C1241.9104,1069.899 1242.5704,1079.682 1251.5604,1094.5 C1259.6404,1107.807 1291.1304,1124.029 1320.0904,1136.747 " fill="none" id="Board-SecretCombination" style="stroke:#A80036;stroke-width:1.0;"/><polygon fill="#A80036" points="1332.2704,1141.964,1325.5698,1134.7458,1327.6736,1139.9969,1322.4225,1142.1007,1332.2704,1141.964" style="stroke:#A80036;stroke-width:1.0;"/><line style="stroke:#A80036;stroke-width:1.0;" x1="1327.6736" x2="1320.3204" y1="1139.9969" y2="1136.846"/><polygon fill="#A80036" points="1344.4104,1009.332,1337.8135,1006.4197,1332.588,1011.389,1339.1849,1014.3013,1344.4104,1009.332" style="stroke:#A80036;stroke-width:1.0;"/><path d="M1256.5604,1060.5 L1256.5604,1085.5 L1489.5604,1085.5 L1489.5604,1070.5 L1479.5604,1060.5 L1256.5604,1060.5 " fill="#FBFB77" filter="url(#f1jv95l1ez6fak)" style="stroke:#A80036;stroke-width:1.0;"/><path d="M1479.5604,1060.5 L1479.5604,1070.5 L1489.5604,1070.5 L1479.5604,1060.5 " fill="#FBFB77" style="stroke:#A80036;stroke-width:1.0;"/><text fill="#000000" font-family="sans-serif" font-size="13" lengthAdjust="spacing" textLength="212" x="1262.5604" y="1077.5669">getResult(proposedCombination)</text><!--MD5=[324ce3fbc91b6fad145775bb65621994]
link SecretCombination to ProposedCombination--><path codeLine="144" d="M1374.7124,1188.0299 C1374.7124,1188.0299 1377.7804,1262.832 1379.0604,1294.065 " fill="none" id="SecretCombination-ProposedCombination" style="stroke:#A80036;stroke-width:1.0;"/><polygon fill="#A80036" points="1379.6104,1307.385,1383.237,1298.2282,1379.4048,1302.3892,1375.2438,1298.557,1379.6104,1307.385" style="stroke:#A80036;stroke-width:1.0;"/><line style="stroke:#A80036;stroke-width:1.0;" x1="1379.4048" x2="1379.0754" y1="1302.3892" y2="1294.396"/><polygon fill="#A80036" points="1374.2204,1176.04,1370.4698,1182.199,1374.7124,1188.0299,1378.463,1181.871,1374.2204,1176.04" style="stroke:#A80036;stroke-width:1.0;"/><path d="M1383.5604,1228.5 L1383.5604,1268.5 L1557.5604,1268.5 L1557.5604,1238.5 L1547.5604,1228.5 L1383.5604,1228.5 " fill="#FBFB77" filter="url(#f1jv95l1ez6fak)" style="stroke:#A80036;stroke-width:1.0;"/><path d="M1547.5604,1228.5 L1547.5604,1238.5 L1557.5604,1238.5 L1547.5604,1228.5 " fill="#FBFB77" style="stroke:#A80036;stroke-width:1.0;"/><text fill="#000000" font-family="sans-serif" font-size="13" lengthAdjust="spacing" textLength="95" x="1389.5604" y="1245.5669">contains(color)</text><text fill="#000000" font-family="sans-serif" font-size="13" lengthAdjust="spacing" textLength="153" x="1389.5604" y="1260.6997">contains(color, position)</text><!--MD5=[07d792321078d51159861622e3ead1f5]
link SecretCombination to Color--><path codeLine="149" d="M1329.948,1181.1201 C1329.948,1181.1201 1309.1504,1190.045 1299.5604,1193.5 C1251.8804,1210.67 1227.7004,1190.139 1189.5604,1223.5 C1128.4004,1276.993 1103.2804,1373.761 1093.7804,1426.2613 " fill="none" id="SecretCombination-Color" style="stroke:#A80036;stroke-width:1.0;"/><polygon fill="#A80036" points="1091.5904,1439.2129,1097.0324,1431.0041,1092.4225,1434.2826,1089.144,1429.6727,1091.5904,1439.2129" style="stroke:#A80036;stroke-width:1.0;"/><line style="stroke:#A80036;stroke-width:1.0;" x1="1092.4225" x2="1093.7604" y1="1434.2826" y2="1426.3945"/><polygon fill="#A80036" points="1340.8704,1176.15,1333.7525,1174.9943,1329.948,1181.1201,1337.0659,1182.2758,1340.8704,1176.15" style="stroke:#A80036;stroke-width:1.0;"/><!--MD5=[f874647c3c9f57491b6e7b7bf233051a]
link SecretCombination to Result--><path codeLine="150" d="M1330.4304,1176.063 C1281.2604,1194.424 1207.5004,1222.139 1206.5604,1223.5 C1188.9204,1249.073 1199.2404,1286.533 1208.6504,1309.671 " fill="none" id="SecretCombination-to-Result" style="stroke:#A80036;stroke-width:1.0;stroke-dasharray:7.0,7.0;"/><polygon fill="#A80036" points="1210.6404,1314.382,1210.8396,1304.5352,1208.7025,1309.7728,1203.4649,1307.6357,1210.6404,1314.382" style="stroke:#A80036;stroke-width:1.0;"/><path d="M1211.5604,1236 L1211.5604,1261 L1359.5604,1261 L1359.5604,1246 L1349.5604,1236 L1211.5604,1236 " fill="#FBFB77" filter="url(#f1jv95l1ez6fak)" style="stroke:#A80036;stroke-width:1.0;"/><path d="M1349.5604,1236 L1349.5604,1246 L1359.5604,1246 L1349.5604,1236 " fill="#FBFB77" style="stroke:#A80036;stroke-width:1.0;"/><text fill="#000000" font-family="sans-serif" font-size="13" lengthAdjust="spacing" textLength="127" x="1217.5604" y="1253.0669">new(blacks, whites)</text><!--MD5=[7f34f2d425e9b3ee5350efe269b05f59]
link Board to Error--><path codeLine="154" d="M1394.6204,1006.712 C1464.2204,1006.499 1657.3904,1010.087 1696.5604,1055.5 C1793.2304,1167.566 1793.6204,1276.771 1696.5604,1388.5 C1631.4504,1463.4537 1302.7804,1464.5917 1201.9904,1463.1284 " fill="none" id="Board-to-Error" style="stroke:#A80036;stroke-width:1.0;stroke-dasharray:7.0,7.0;"/><polygon fill="#A80036" points="1196.8004,1463.0477,1205.7305,1467.2014,1201.7997,1463.1334,1205.8676,1459.2026,1196.8004,1463.0477" style="stroke:#A80036;stroke-width:1.0;"/><!--MD5=[164ea9c8967d2f23e159457f90844963]
@startuml
allow_mixing

actor Player

package views {
    object ProposeView
    object Message
    object BoardView
    object SecretCombinationView
    object ProposedCombinationView
    object ResultView
    object ColorView
    object ErrorView
}

package controllers {
    object "proposeController\n:ProposeController" as ProposeController
}

package models {
    object Board
    object Result
    object "proposedCombination\n:ProposedCombination" as ProposedCombination
    object SecretCombination
}

package types {
    object "color\n:Color" as Color
    object "error\n:Error" as Error
}

Player -down-> ProposeView
note on link
    propose()
end note
ProposeView .down.> BoardView
note on link
    write(proposeController)
end note
BoardView .down.> ProposeController
note on link
    getAttempts()
    getProposedCombinationColors(position)
    getBlacks(position)
    getWhites(position)
end note
BoardView .down.> Message
note on link
    write(attempts)
end note
BoardView .down.> SecretCombinationView
note on link
    write()
end note
SecretCombinationView .down.> Message
note on link
    write()
end note
BoardView .down.> ProposedCombinationView
note on link
    write(colors)
end note
ProposedCombinationView .down.> ColorView
note on link
    write(color)
end note
ColorView .down.> Color
BoardView .down.> ResultView
note on link
    write(blacks, whites)
end note
ResultView .down.> Message
note on link
    write(blacks, whites)
end note
ProposeController -down-> Board
note on link
    getError(colors)
    add(colors)
    isFinished()
    isWinner()
    getAttempts()
    getProposedCombinationColors(position)
    getBlacks(position)
    getWhites(position)
end note
Board *-down-> Result
note on link
    isWinner()
    getBlacks()
    getWhites()
end note
Board *-down-> ProposedCombination
note on link
    new(colors)
    getError()
    getColors()
end note
ProposedCombination *-down-> Color
Board .down.> Color
ProposeController .down.> Color
BoardView .down.> Color
ProposedCombinationView .down.> Color
ProposeView .down.> ProposedCombinationView
note on link
    read(proposeController)
end note
ProposedCombinationView .down.> Message
note on link
    write()
end note
ProposedCombinationView .down.> ErrorView
note on link
    write(error)
end note
ProposedCombinationView .down.> ColorView
note on link
    read()
end note
ProposedCombinationView .down.> ProposeController
note on link
    getError(colors)
    add(colors)
end note
ProposedCombination .down.> Error
ErrorView .down.> Error
ProposeView -down-> ProposeController
note on link
    isFinished()
    isWinner()
end note
ProposeView .down.> Message
note on link
    write()
end note
Board .down.> Board
note on link
    isLoser()
end note
Board *-down-> SecretCombination
note on link
    getResult(proposedCombination)
end note
SecretCombination *-down-> ProposedCombination
note on link
    contains(color)
    contains(color, position)
end note
SecretCombination *-down-> Color
SecretCombination .down.> Result
note on link
    new(blacks, whites)
end note
Board .down.> Error
@enduml

PlantUML version 1.2021.4beta2(Unknown compile time)
(GPL source distribution)
Java Runtime: Java(TM) SE Runtime Environment
JVM: Java HotSpot(TM) 64-Bit Server VM
Default Encoding: UTF-8
Language: en
Country: US
--></g></svg>