<?xml version="1.0" encoding="UTF-8" standalone="no"?><svg xmlns="http://www.w3.org/2000/svg" xmlns:xlink="http://www.w3.org/1999/xlink" contentScriptType="application/ecmascript" contentStyleType="text/css" height="841px" preserveAspectRatio="none" style="width:1628px;height:841px;" version="1.1" viewBox="0 0 1628 841" width="1628px" zoomAndPan="magnify"><defs><filter height="300%" id="f1qpdogm785c0m" width="300%" x="-1" y="-1"><feGaussianBlur result="blurOut" stdDeviation="2.0"/><feColorMatrix in="blurOut" result="blurOut2" type="matrix" values="0 0 0 0 0 0 0 0 0 0 0 0 0 0 0 0 0 0 .4 0"/><feOffset dx="4.0" dy="4.0" in="blurOut2" result="blurOut3"/><feBlend in="SourceGraphic" in2="blurOut3" mode="normal"/></filter></defs><g><!--MD5=[e2a75efa8a0f57c2afae8bf75386f79c]
cluster views--><polygon fill="#FFFFFF" filter="url(#f1qpdogm785c0m)" points="687.5,6,738.5,6,745.5,28.2969,1404.5,28.2969,1404.5,730,687.5,730,687.5,6" style="stroke:#000000;stroke-width:1.5;"/><line style="stroke:#000000;stroke-width:1.5;" x1="687.5" x2="745.5" y1="28.2969" y2="28.2969"/><text fill="#000000" font-family="sans-serif" font-size="14" font-weight="bold" lengthAdjust="spacing" textLength="45" x="691.5" y="20.9951">views</text><!--MD5=[af194e474b2c37e443a340884399de77]
class PlayerView--><rect codeLine="2" fill="#FEFECE" filter="url(#f1qpdogm785c0m)" height="48" id="PlayerView" style="stroke:#A80036;stroke-width:1.5;" width="97" x="1073" y="41"/><ellipse cx="1088" cy="57" fill="#ADD1B2" rx="11" ry="11" style="stroke:#A80036;stroke-width:1.0;"/><path d="M1090.3438,52.6719 C1089.4063,52.2344 1088.8125,52.0938 1087.9375,52.0938 C1085.3125,52.0938 1083.3125,54.1719 1083.3125,56.8906 L1083.3125,58.0156 C1083.3125,60.5938 1085.4219,62.4844 1088.3125,62.4844 C1089.5313,62.4844 1090.6875,62.1875 1091.4375,61.6406 C1092.0156,61.2344 1092.3438,60.7813 1092.3438,60.3906 C1092.3438,59.9375 1091.9531,59.5469 1091.4844,59.5469 C1091.2656,59.5469 1091.0625,59.625 1090.875,59.8125 C1090.4219,60.2969 1090.4219,60.2969 1090.2344,60.3906 C1089.8125,60.6563 1089.125,60.7813 1088.3594,60.7813 C1086.3125,60.7813 1085.0156,59.6875 1085.0156,57.9844 L1085.0156,56.8906 C1085.0156,55.1094 1086.2656,53.7969 1088,53.7969 C1088.5781,53.7969 1089.1875,53.9531 1089.6563,54.2031 C1090.1406,54.4844 1090.3125,54.7031 1090.4063,55.1094 C1090.4688,55.5156 1090.5,55.6406 1090.6406,55.7656 C1090.7813,55.9063 1091.0156,56.0156 1091.2344,56.0156 C1091.5,56.0156 1091.7656,55.875 1091.9375,55.6563 C1092.0469,55.5 1092.0781,55.3125 1092.0781,54.8906 L1092.0781,53.4688 C1092.0781,53.0313 1092.0625,52.9063 1091.9688,52.75 C1091.8125,52.4844 1091.5313,52.3438 1091.2344,52.3438 C1090.9375,52.3438 1090.7344,52.4375 1090.5156,52.75 L1090.3438,52.6719 Z " fill="#000000"/><text fill="#000000" font-family="sans-serif" font-size="12" lengthAdjust="spacing" textLength="65" x="1102" y="61.1543">PlayerView</text><line style="stroke:#A80036;stroke-width:1.5;" x1="1074" x2="1169" y1="73" y2="73"/><line style="stroke:#A80036;stroke-width:1.5;" x1="1074" x2="1169" y1="81" y2="81"/><!--MD5=[443c52daef265809fdf31be84fc8ae4a]
class StartView--><rect codeLine="3" fill="#FEFECE" filter="url(#f1qpdogm785c0m)" height="60.8047" id="StartView" style="stroke:#A80036;stroke-width:1.5;" width="141" x="1247" y="149"/><ellipse cx="1285.4" cy="165" fill="#ADD1B2" rx="11" ry="11" style="stroke:#A80036;stroke-width:1.0;"/><path d="M1287.7438,160.6719 C1286.8063,160.2344 1286.2125,160.0938 1285.3375,160.0938 C1282.7125,160.0938 1280.7125,162.1719 1280.7125,164.8906 L1280.7125,166.0156 C1280.7125,168.5938 1282.8219,170.4844 1285.7125,170.4844 C1286.9313,170.4844 1288.0875,170.1875 1288.8375,169.6406 C1289.4156,169.2344 1289.7438,168.7813 1289.7438,168.3906 C1289.7438,167.9375 1289.3531,167.5469 1288.8844,167.5469 C1288.6656,167.5469 1288.4625,167.625 1288.275,167.8125 C1287.8219,168.2969 1287.8219,168.2969 1287.6344,168.3906 C1287.2125,168.6563 1286.525,168.7813 1285.7594,168.7813 C1283.7125,168.7813 1282.4156,167.6875 1282.4156,165.9844 L1282.4156,164.8906 C1282.4156,163.1094 1283.6656,161.7969 1285.4,161.7969 C1285.9781,161.7969 1286.5875,161.9531 1287.0563,162.2031 C1287.5406,162.4844 1287.7125,162.7031 1287.8063,163.1094 C1287.8688,163.5156 1287.9,163.6406 1288.0406,163.7656 C1288.1813,163.9063 1288.4156,164.0156 1288.6344,164.0156 C1288.9,164.0156 1289.1656,163.875 1289.3375,163.6563 C1289.4469,163.5 1289.4781,163.3125 1289.4781,162.8906 L1289.4781,161.4688 C1289.4781,161.0313 1289.4625,160.9063 1289.3688,160.75 C1289.2125,160.4844 1288.9313,160.3438 1288.6344,160.3438 C1288.3375,160.3438 1288.1344,160.4375 1287.9156,160.75 L1287.7438,160.6719 Z " fill="#000000"/><text fill="#000000" font-family="sans-serif" font-size="12" lengthAdjust="spacing" textLength="57" x="1304.6" y="169.1543">StartView</text><line style="stroke:#A80036;stroke-width:1.5;" x1="1248" x2="1387" y1="181" y2="181"/><line style="stroke:#A80036;stroke-width:1.5;" x1="1248" x2="1387" y1="189" y2="189"/><polygon fill="#4177AF" points="1258,196,1254,202,1262,202" style="stroke:#1963A0;stroke-width:1.0;"/><text fill="#000000" font-family="sans-serif" font-size="11" lengthAdjust="spacing" textLength="115" x="1267" y="203.2104">start(StartController)</text><!--MD5=[af548d7eeba3607a103157b84173e841]
class ProposeView--><rect codeLine="6" fill="#FEFECE" filter="url(#f1qpdogm785c0m)" height="60.8047" id="ProposeView" style="stroke:#A80036;stroke-width:1.5;" width="180" x="1031.5" y="149"/><ellipse cx="1077.75" cy="165" fill="#ADD1B2" rx="11" ry="11" style="stroke:#A80036;stroke-width:1.0;"/><path d="M1080.0938,160.6719 C1079.1563,160.2344 1078.5625,160.0938 1077.6875,160.0938 C1075.0625,160.0938 1073.0625,162.1719 1073.0625,164.8906 L1073.0625,166.0156 C1073.0625,168.5938 1075.1719,170.4844 1078.0625,170.4844 C1079.2813,170.4844 1080.4375,170.1875 1081.1875,169.6406 C1081.7656,169.2344 1082.0938,168.7813 1082.0938,168.3906 C1082.0938,167.9375 1081.7031,167.5469 1081.2344,167.5469 C1081.0156,167.5469 1080.8125,167.625 1080.625,167.8125 C1080.1719,168.2969 1080.1719,168.2969 1079.9844,168.3906 C1079.5625,168.6563 1078.875,168.7813 1078.1094,168.7813 C1076.0625,168.7813 1074.7656,167.6875 1074.7656,165.9844 L1074.7656,164.8906 C1074.7656,163.1094 1076.0156,161.7969 1077.75,161.7969 C1078.3281,161.7969 1078.9375,161.9531 1079.4063,162.2031 C1079.8906,162.4844 1080.0625,162.7031 1080.1563,163.1094 C1080.2188,163.5156 1080.25,163.6406 1080.3906,163.7656 C1080.5313,163.9063 1080.7656,164.0156 1080.9844,164.0156 C1081.25,164.0156 1081.5156,163.875 1081.6875,163.6563 C1081.7969,163.5 1081.8281,163.3125 1081.8281,162.8906 L1081.8281,161.4688 C1081.8281,161.0313 1081.8125,160.9063 1081.7188,160.75 C1081.5625,160.4844 1081.2813,160.3438 1080.9844,160.3438 C1080.6875,160.3438 1080.4844,160.4375 1080.2656,160.75 L1080.0938,160.6719 Z " fill="#000000"/><text fill="#000000" font-family="sans-serif" font-size="12" lengthAdjust="spacing" textLength="79" x="1098.25" y="169.1543">ProposeView</text><line style="stroke:#A80036;stroke-width:1.5;" x1="1032.5" x2="1210.5" y1="181" y2="181"/><line style="stroke:#A80036;stroke-width:1.5;" x1="1032.5" x2="1210.5" y1="189" y2="189"/><polygon fill="#4177AF" points="1042.5,196,1038.5,202,1046.5,202" style="stroke:#1963A0;stroke-width:1.0;"/><text fill="#000000" font-family="sans-serif" font-size="11" lengthAdjust="spacing" textLength="154" x="1051.5" y="203.2104">propose(ProposeController)</text><!--MD5=[19088a99a8c1f36e582d33ac2f8fc6dd]
class ResumeView--><rect codeLine="9" fill="#FEFECE" filter="url(#f1qpdogm785c0m)" height="60.8047" id="ResumeView" style="stroke:#A80036;stroke-width:1.5;" width="233" x="704" y="270"/><ellipse cx="777.75" cy="286" fill="#ADD1B2" rx="11" ry="11" style="stroke:#A80036;stroke-width:1.0;"/><path d="M780.0938,281.6719 C779.1563,281.2344 778.5625,281.0938 777.6875,281.0938 C775.0625,281.0938 773.0625,283.1719 773.0625,285.8906 L773.0625,287.0156 C773.0625,289.5938 775.1719,291.4844 778.0625,291.4844 C779.2813,291.4844 780.4375,291.1875 781.1875,290.6406 C781.7656,290.2344 782.0938,289.7813 782.0938,289.3906 C782.0938,288.9375 781.7031,288.5469 781.2344,288.5469 C781.0156,288.5469 780.8125,288.625 780.625,288.8125 C780.1719,289.2969 780.1719,289.2969 779.9844,289.3906 C779.5625,289.6563 778.875,289.7813 778.1094,289.7813 C776.0625,289.7813 774.7656,288.6875 774.7656,286.9844 L774.7656,285.8906 C774.7656,284.1094 776.0156,282.7969 777.75,282.7969 C778.3281,282.7969 778.9375,282.9531 779.4063,283.2031 C779.8906,283.4844 780.0625,283.7031 780.1563,284.1094 C780.2188,284.5156 780.25,284.6406 780.3906,284.7656 C780.5313,284.9063 780.7656,285.0156 780.9844,285.0156 C781.25,285.0156 781.5156,284.875 781.6875,284.6563 C781.7969,284.5 781.8281,284.3125 781.8281,283.8906 L781.8281,282.4688 C781.8281,282.0313 781.8125,281.9063 781.7188,281.75 C781.5625,281.4844 781.2813,281.3438 780.9844,281.3438 C780.6875,281.3438 780.4844,281.4375 780.2656,281.75 L780.0938,281.6719 Z " fill="#000000"/><text fill="#000000" font-family="sans-serif" font-size="12" lengthAdjust="spacing" textLength="77" x="798.25" y="290.1543">ResumeView</text><line style="stroke:#A80036;stroke-width:1.5;" x1="705" x2="936" y1="302" y2="302"/><line style="stroke:#A80036;stroke-width:1.5;" x1="705" x2="936" y1="310" y2="310"/><polygon fill="#4177AF" points="715,317,711,323,719,323" style="stroke:#1963A0;stroke-width:1.0;"/><text fill="#000000" font-family="sans-serif" font-size="11" lengthAdjust="spacing" textLength="207" x="724" y="324.2104">resume(ResumeController): boolean</text><!--MD5=[9b237e88d697a058bd530d6510c96c00]
class BoardView--><rect codeLine="12" fill="#FEFECE" filter="url(#f1qpdogm785c0m)" height="60.8047" id="BoardView" style="stroke:#A80036;stroke-width:1.5;" width="117" x="1162" y="270"/><ellipse cx="1186" cy="286" fill="#ADD1B2" rx="11" ry="11" style="stroke:#A80036;stroke-width:1.0;"/><path d="M1188.3438,281.6719 C1187.4063,281.2344 1186.8125,281.0938 1185.9375,281.0938 C1183.3125,281.0938 1181.3125,283.1719 1181.3125,285.8906 L1181.3125,287.0156 C1181.3125,289.5938 1183.4219,291.4844 1186.3125,291.4844 C1187.5313,291.4844 1188.6875,291.1875 1189.4375,290.6406 C1190.0156,290.2344 1190.3438,289.7813 1190.3438,289.3906 C1190.3438,288.9375 1189.9531,288.5469 1189.4844,288.5469 C1189.2656,288.5469 1189.0625,288.625 1188.875,288.8125 C1188.4219,289.2969 1188.4219,289.2969 1188.2344,289.3906 C1187.8125,289.6563 1187.125,289.7813 1186.3594,289.7813 C1184.3125,289.7813 1183.0156,288.6875 1183.0156,286.9844 L1183.0156,285.8906 C1183.0156,284.1094 1184.2656,282.7969 1186,282.7969 C1186.5781,282.7969 1187.1875,282.9531 1187.6563,283.2031 C1188.1406,283.4844 1188.3125,283.7031 1188.4063,284.1094 C1188.4688,284.5156 1188.5,284.6406 1188.6406,284.7656 C1188.7813,284.9063 1189.0156,285.0156 1189.2344,285.0156 C1189.5,285.0156 1189.7656,284.875 1189.9375,284.6563 C1190.0469,284.5 1190.0781,284.3125 1190.0781,283.8906 L1190.0781,282.4688 C1190.0781,282.0313 1190.0625,281.9063 1189.9688,281.75 C1189.8125,281.4844 1189.5313,281.3438 1189.2344,281.3438 C1188.9375,281.3438 1188.7344,281.4375 1188.5156,281.75 L1188.3438,281.6719 Z " fill="#000000"/><text fill="#000000" font-family="sans-serif" font-size="12" lengthAdjust="spacing" textLength="65" x="1202" y="290.1543">BoardView</text><line style="stroke:#A80036;stroke-width:1.5;" x1="1163" x2="1278" y1="302" y2="302"/><line style="stroke:#A80036;stroke-width:1.5;" x1="1163" x2="1278" y1="310" y2="310"/><polygon fill="#4177AF" points="1173,317,1169,323,1177,323" style="stroke:#1963A0;stroke-width:1.0;"/><text fill="#000000" font-family="sans-serif" font-size="11" lengthAdjust="spacing" textLength="91" x="1182" y="324.2104">write(Controller)</text><!--MD5=[f6bfa8e6ad2e37edcd578b647fafadda]
class MenuView--><rect codeLine="15" fill="#FEFECE" filter="url(#f1qpdogm785c0m)" height="60.8047" id="MenuView" style="stroke:#A80036;stroke-width:1.5;" width="117" x="972" y="270"/><ellipse cx="997.8" cy="286" fill="#ADD1B2" rx="11" ry="11" style="stroke:#A80036;stroke-width:1.0;"/><path d="M1000.1438,281.6719 C999.2063,281.2344 998.6125,281.0938 997.7375,281.0938 C995.1125,281.0938 993.1125,283.1719 993.1125,285.8906 L993.1125,287.0156 C993.1125,289.5938 995.2219,291.4844 998.1125,291.4844 C999.3313,291.4844 1000.4875,291.1875 1001.2375,290.6406 C1001.8156,290.2344 1002.1438,289.7813 1002.1438,289.3906 C1002.1438,288.9375 1001.7531,288.5469 1001.2844,288.5469 C1001.0656,288.5469 1000.8625,288.625 1000.675,288.8125 C1000.2219,289.2969 1000.2219,289.2969 1000.0344,289.3906 C999.6125,289.6563 998.925,289.7813 998.1594,289.7813 C996.1125,289.7813 994.8156,288.6875 994.8156,286.9844 L994.8156,285.8906 C994.8156,284.1094 996.0656,282.7969 997.8,282.7969 C998.3781,282.7969 998.9875,282.9531 999.4563,283.2031 C999.9406,283.4844 1000.1125,283.7031 1000.2063,284.1094 C1000.2688,284.5156 1000.3,284.6406 1000.4406,284.7656 C1000.5813,284.9063 1000.8156,285.0156 1001.0344,285.0156 C1001.3,285.0156 1001.5656,284.875 1001.7375,284.6563 C1001.8469,284.5 1001.8781,284.3125 1001.8781,283.8906 L1001.8781,282.4688 C1001.8781,282.0313 1001.8625,281.9063 1001.7688,281.75 C1001.6125,281.4844 1001.3313,281.3438 1001.0344,281.3438 C1000.7375,281.3438 1000.5344,281.4375 1000.3156,281.75 L1000.1438,281.6719 Z " fill="#000000"/><text fill="#000000" font-family="sans-serif" font-size="12" lengthAdjust="spacing" textLength="61" x="1014.2" y="290.1543">MenuView</text><line style="stroke:#A80036;stroke-width:1.5;" x1="973" x2="1088" y1="302" y2="302"/><line style="stroke:#A80036;stroke-width:1.5;" x1="973" x2="1088" y1="310" y2="310"/><polygon fill="#4177AF" points="983,317,979,323,987,323" style="stroke:#1963A0;stroke-width:1.0;"/><text fill="#000000" font-family="sans-serif" font-size="11" lengthAdjust="spacing" textLength="91" x="992" y="324.2104">write(Controller)</text><!--MD5=[0523615cfa2fa70c8ab764401f29a299]
class ProposedCombinationView--><rect codeLine="18" fill="#FEFECE" filter="url(#f1qpdogm785c0m)" height="73.6094" id="ProposedCombinationView" style="stroke:#A80036;stroke-width:1.5;" width="193" x="741" y="391"/><ellipse cx="756" cy="407" fill="#ADD1B2" rx="11" ry="11" style="stroke:#A80036;stroke-width:1.0;"/><path d="M758.3438,402.6719 C757.4063,402.2344 756.8125,402.0938 755.9375,402.0938 C753.3125,402.0938 751.3125,404.1719 751.3125,406.8906 L751.3125,408.0156 C751.3125,410.5938 753.4219,412.4844 756.3125,412.4844 C757.5313,412.4844 758.6875,412.1875 759.4375,411.6406 C760.0156,411.2344 760.3438,410.7813 760.3438,410.3906 C760.3438,409.9375 759.9531,409.5469 759.4844,409.5469 C759.2656,409.5469 759.0625,409.625 758.875,409.8125 C758.4219,410.2969 758.4219,410.2969 758.2344,410.3906 C757.8125,410.6563 757.125,410.7813 756.3594,410.7813 C754.3125,410.7813 753.0156,409.6875 753.0156,407.9844 L753.0156,406.8906 C753.0156,405.1094 754.2656,403.7969 756,403.7969 C756.5781,403.7969 757.1875,403.9531 757.6563,404.2031 C758.1406,404.4844 758.3125,404.7031 758.4063,405.1094 C758.4688,405.5156 758.5,405.6406 758.6406,405.7656 C758.7813,405.9063 759.0156,406.0156 759.2344,406.0156 C759.5,406.0156 759.7656,405.875 759.9375,405.6563 C760.0469,405.5 760.0781,405.3125 760.0781,404.8906 L760.0781,403.4688 C760.0781,403.0313 760.0625,402.9063 759.9688,402.75 C759.8125,402.4844 759.5313,402.3438 759.2344,402.3438 C758.9375,402.3438 758.7344,402.4375 758.5156,402.75 L758.3438,402.6719 Z " fill="#000000"/><text fill="#000000" font-family="sans-serif" font-size="12" lengthAdjust="spacing" textLength="161" x="770" y="411.1543">ProposedCombinationView</text><line style="stroke:#A80036;stroke-width:1.5;" x1="742" x2="933" y1="423" y2="423"/><line style="stroke:#A80036;stroke-width:1.5;" x1="742" x2="933" y1="431" y2="431"/><polygon fill="#4177AF" points="752,438,748,444,756,444" style="stroke:#1963A0;stroke-width:1.0;"/><text fill="#000000" font-family="sans-serif" font-size="11" lengthAdjust="spacing" textLength="136" x="761" y="445.2104">write(ProposeController)</text><polygon fill="#4177AF" points="752,450.8047,748,456.8047,756,456.8047" style="stroke:#1963A0;stroke-width:1.0;"/><text fill="#000000" font-family="sans-serif" font-size="11" lengthAdjust="spacing" textLength="107" x="761" y="458.0151">read(): List&lt;Color&gt;</text><!--MD5=[94936c1138d9bd95716606726ba703b1]
class SecretCombinationView--><rect codeLine="22" fill="#FEFECE" filter="url(#f1qpdogm785c0m)" height="60.8047" id="SecretCombinationView" style="stroke:#A80036;stroke-width:1.5;" width="175" x="1176" y="397.5"/><ellipse cx="1191" cy="413.5" fill="#ADD1B2" rx="11" ry="11" style="stroke:#A80036;stroke-width:1.0;"/><path d="M1193.3438,409.1719 C1192.4063,408.7344 1191.8125,408.5938 1190.9375,408.5938 C1188.3125,408.5938 1186.3125,410.6719 1186.3125,413.3906 L1186.3125,414.5156 C1186.3125,417.0938 1188.4219,418.9844 1191.3125,418.9844 C1192.5313,418.9844 1193.6875,418.6875 1194.4375,418.1406 C1195.0156,417.7344 1195.3438,417.2813 1195.3438,416.8906 C1195.3438,416.4375 1194.9531,416.0469 1194.4844,416.0469 C1194.2656,416.0469 1194.0625,416.125 1193.875,416.3125 C1193.4219,416.7969 1193.4219,416.7969 1193.2344,416.8906 C1192.8125,417.1563 1192.125,417.2813 1191.3594,417.2813 C1189.3125,417.2813 1188.0156,416.1875 1188.0156,414.4844 L1188.0156,413.3906 C1188.0156,411.6094 1189.2656,410.2969 1191,410.2969 C1191.5781,410.2969 1192.1875,410.4531 1192.6563,410.7031 C1193.1406,410.9844 1193.3125,411.2031 1193.4063,411.6094 C1193.4688,412.0156 1193.5,412.1406 1193.6406,412.2656 C1193.7813,412.4063 1194.0156,412.5156 1194.2344,412.5156 C1194.5,412.5156 1194.7656,412.375 1194.9375,412.1563 C1195.0469,412 1195.0781,411.8125 1195.0781,411.3906 L1195.0781,409.9688 C1195.0781,409.5313 1195.0625,409.4063 1194.9688,409.25 C1194.8125,408.9844 1194.5313,408.8438 1194.2344,408.8438 C1193.9375,408.8438 1193.7344,408.9375 1193.5156,409.25 L1193.3438,409.1719 Z " fill="#000000"/><text fill="#000000" font-family="sans-serif" font-size="12" lengthAdjust="spacing" textLength="143" x="1205" y="417.6543">SecretCombinationView</text><line style="stroke:#A80036;stroke-width:1.5;" x1="1177" x2="1350" y1="429.5" y2="429.5"/><line style="stroke:#A80036;stroke-width:1.5;" x1="1177" x2="1350" y1="437.5" y2="437.5"/><polygon fill="#4177AF" points="1187,444.5,1183,450.5,1191,450.5" style="stroke:#1963A0;stroke-width:1.0;"/><text fill="#000000" font-family="sans-serif" font-size="11" lengthAdjust="spacing" textLength="36" x="1196" y="451.7104">write()</text><!--MD5=[a40873b740e53ca026148d30ccb3c321]
class ResultView--><rect codeLine="25" fill="#FEFECE" filter="url(#f1qpdogm785c0m)" height="60.8047" id="ResultView" style="stroke:#A80036;stroke-width:1.5;" width="97" x="1044" y="397.5"/><ellipse cx="1059" cy="413.5" fill="#ADD1B2" rx="11" ry="11" style="stroke:#A80036;stroke-width:1.0;"/><path d="M1061.3438,409.1719 C1060.4063,408.7344 1059.8125,408.5938 1058.9375,408.5938 C1056.3125,408.5938 1054.3125,410.6719 1054.3125,413.3906 L1054.3125,414.5156 C1054.3125,417.0938 1056.4219,418.9844 1059.3125,418.9844 C1060.5313,418.9844 1061.6875,418.6875 1062.4375,418.1406 C1063.0156,417.7344 1063.3438,417.2813 1063.3438,416.8906 C1063.3438,416.4375 1062.9531,416.0469 1062.4844,416.0469 C1062.2656,416.0469 1062.0625,416.125 1061.875,416.3125 C1061.4219,416.7969 1061.4219,416.7969 1061.2344,416.8906 C1060.8125,417.1563 1060.125,417.2813 1059.3594,417.2813 C1057.3125,417.2813 1056.0156,416.1875 1056.0156,414.4844 L1056.0156,413.3906 C1056.0156,411.6094 1057.2656,410.2969 1059,410.2969 C1059.5781,410.2969 1060.1875,410.4531 1060.6563,410.7031 C1061.1406,410.9844 1061.3125,411.2031 1061.4063,411.6094 C1061.4688,412.0156 1061.5,412.1406 1061.6406,412.2656 C1061.7813,412.4063 1062.0156,412.5156 1062.2344,412.5156 C1062.5,412.5156 1062.7656,412.375 1062.9375,412.1563 C1063.0469,412 1063.0781,411.8125 1063.0781,411.3906 L1063.0781,409.9688 C1063.0781,409.5313 1063.0625,409.4063 1062.9688,409.25 C1062.8125,408.9844 1062.5313,408.8438 1062.2344,408.8438 C1061.9375,408.8438 1061.7344,408.9375 1061.5156,409.25 L1061.3438,409.1719 Z " fill="#000000"/><text fill="#000000" font-family="sans-serif" font-size="12" lengthAdjust="spacing" textLength="65" x="1073" y="417.6543">ResultView</text><line style="stroke:#A80036;stroke-width:1.5;" x1="1045" x2="1140" y1="429.5" y2="429.5"/><line style="stroke:#A80036;stroke-width:1.5;" x1="1045" x2="1140" y1="437.5" y2="437.5"/><polygon fill="#4177AF" points="1055,444.5,1051,450.5,1059,450.5" style="stroke:#1963A0;stroke-width:1.0;"/><text fill="#000000" font-family="sans-serif" font-size="11" lengthAdjust="spacing" textLength="71" x="1064" y="451.7104">write(int, int)</text><!--MD5=[5c0d2bf114541dffca76af5edd55a1b5]
class ColorView--><rect codeLine="28" fill="#FEFECE" filter="url(#f1qpdogm785c0m)" height="73.6094" id="ColorView" style="stroke:#A80036;stroke-width:1.5;" width="96" x="703.5" y="582.5"/><ellipse cx="719.85" cy="598.5" fill="#ADD1B2" rx="11" ry="11" style="stroke:#A80036;stroke-width:1.0;"/><path d="M722.1938,594.1719 C721.2563,593.7344 720.6625,593.5938 719.7875,593.5938 C717.1625,593.5938 715.1625,595.6719 715.1625,598.3906 L715.1625,599.5156 C715.1625,602.0938 717.2719,603.9844 720.1625,603.9844 C721.3813,603.9844 722.5375,603.6875 723.2875,603.1406 C723.8656,602.7344 724.1938,602.2813 724.1938,601.8906 C724.1938,601.4375 723.8031,601.0469 723.3344,601.0469 C723.1156,601.0469 722.9125,601.125 722.725,601.3125 C722.2719,601.7969 722.2719,601.7969 722.0844,601.8906 C721.6625,602.1563 720.975,602.2813 720.2094,602.2813 C718.1625,602.2813 716.8656,601.1875 716.8656,599.4844 L716.8656,598.3906 C716.8656,596.6094 718.1156,595.2969 719.85,595.2969 C720.4281,595.2969 721.0375,595.4531 721.5063,595.7031 C721.9906,595.9844 722.1625,596.2031 722.2563,596.6094 C722.3188,597.0156 722.35,597.1406 722.4906,597.2656 C722.6313,597.4063 722.8656,597.5156 723.0844,597.5156 C723.35,597.5156 723.6156,597.375 723.7875,597.1563 C723.8969,597 723.9281,596.8125 723.9281,596.3906 L723.9281,594.9688 C723.9281,594.5313 723.9125,594.4063 723.8188,594.25 C723.6625,593.9844 723.3813,593.8438 723.0844,593.8438 C722.7875,593.8438 722.5844,593.9375 722.3656,594.25 L722.1938,594.1719 Z " fill="#000000"/><text fill="#000000" font-family="sans-serif" font-size="12" lengthAdjust="spacing" textLength="61" x="734.15" y="602.6543">ColorView</text><line style="stroke:#A80036;stroke-width:1.5;" x1="704.5" x2="798.5" y1="614.5" y2="614.5"/><line style="stroke:#A80036;stroke-width:1.5;" x1="704.5" x2="798.5" y1="622.5" y2="622.5"/><polygon fill="#4177AF" points="714.5,629.5,710.5,635.5,718.5,635.5" style="stroke:#1963A0;stroke-width:1.0;"/><text fill="#000000" font-family="sans-serif" font-size="11" lengthAdjust="spacing" textLength="65" x="723.5" y="636.7104">write(Color)</text><polygon fill="#4177AF" points="714.5,642.3047,710.5,648.3047,718.5,648.3047" style="stroke:#1963A0;stroke-width:1.0;"/><text fill="#000000" font-family="sans-serif" font-size="11" lengthAdjust="spacing" textLength="70" x="723.5" y="649.5151">read(): Color</text><!--MD5=[bea5b0d46523efab5ea1c1d339f396f0]
class Message--><rect codeLine="32" fill="#FEFECE" filter="url(#f1qpdogm785c0m)" height="188.8516" id="Message" style="stroke:#A80036;stroke-width:1.5;" width="173" x="961" y="525"/><ellipse cx="1015.75" cy="541" fill="#EB937F" rx="11" ry="11" style="stroke:#A80036;stroke-width:1.0;"/><path d="M1014.5469,541.875 L1016,541.875 L1016,541.9844 C1016,542.3906 1016.0313,542.5469 1016.1094,542.7031 C1016.2656,542.9531 1016.5469,543.1094 1016.8438,543.1094 C1017.0938,543.1094 1017.3594,542.9688 1017.5156,542.75 C1017.6406,542.5938 1017.6719,542.4375 1017.6719,541.9844 L1017.6719,540.0625 C1017.6719,539.9063 1017.6719,539.8594 1017.6563,539.7031 C1017.5938,539.2344 1017.2813,538.9219 1016.8281,538.9219 C1016.5781,538.9219 1016.3125,539.0625 1016.1406,539.2813 C1016.0313,539.4531 1016,539.6094 1016,540.0625 L1016,540.1875 L1014.5469,540.1875 L1014.5469,537.7813 L1018.5313,537.7813 L1018.5313,538.6406 C1018.5313,539.0469 1018.5625,539.2188 1018.6406,539.375 C1018.8125,539.625 1019.0938,539.7813 1019.375,539.7813 C1019.6406,539.7813 1019.9063,539.6406 1020.0781,539.4219 C1020.1875,539.25 1020.2188,539.1094 1020.2188,538.6406 L1020.2188,536.0938 L1012.5938,536.0938 C1012.1563,536.0938 1012.0313,536.1094 1011.875,536.2031 C1011.625,536.3594 1011.4688,536.6563 1011.4688,536.9375 C1011.4688,537.2188 1011.6094,537.4688 1011.8281,537.6406 C1011.9844,537.75 1012.1719,537.7813 1012.5938,537.7813 L1012.8438,537.7813 L1012.8438,544.2969 L1012.5938,544.2969 C1012.1875,544.2969 1012.0313,544.3125 1011.875,544.4219 C1011.625,544.5938 1011.4688,544.8594 1011.4688,545.1563 C1011.4688,545.4219 1011.6094,545.6719 1011.8281,545.8281 C1011.9688,545.9531 1012.2031,546 1012.5938,546 L1020.5938,546 L1020.5938,543.4219 C1020.5938,542.9844 1020.5625,542.8438 1020.4844,542.6875 C1020.3125,542.4375 1020.0313,542.2813 1019.75,542.2813 C1019.4844,542.2813 1019.2188,542.3906 1019.0469,542.6406 C1018.9375,542.7969 1018.9063,542.9375 1018.9063,543.4219 L1018.9063,544.2969 L1014.5469,544.2969 L1014.5469,541.875 Z " fill="#000000"/><text fill="#000000" font-family="sans-serif" font-size="12" lengthAdjust="spacing" textLength="55" x="1036.25" y="545.1543">Message</text><line style="stroke:#A80036;stroke-width:1.5;" x1="962" x2="1133" y1="557" y2="557"/><ellipse cx="972" cy="568" rx="3" ry="3" style="stroke:#038048;stroke-width:1.0;fill:none;"/><text fill="#000000" font-family="sans-serif" font-size="11" lengthAdjust="spacing" textLength="30" x="981" y="571.2104">TITLE</text><ellipse cx="972" cy="580.8047" rx="3" ry="3" style="stroke:#038048;stroke-width:1.0;fill:none;"/><text fill="#000000" font-family="sans-serif" font-size="11" lengthAdjust="spacing" textLength="130" x="981" y="584.0151">SECRET_COMBINATION</text><ellipse cx="972" cy="593.6094" rx="3" ry="3" style="stroke:#038048;stroke-width:1.0;fill:none;"/><text fill="#000000" font-family="sans-serif" font-size="11" lengthAdjust="spacing" textLength="59" x="981" y="596.8198">ATTEMPTS</text><ellipse cx="972" cy="606.4141" rx="3" ry="3" style="stroke:#038048;stroke-width:1.0;fill:none;"/><text fill="#000000" font-family="sans-serif" font-size="11" lengthAdjust="spacing" textLength="43" x="981" y="609.6245">RESULT</text><ellipse cx="972" cy="619.2188" rx="3" ry="3" style="stroke:#038048;stroke-width:1.0;fill:none;"/><text fill="#000000" font-family="sans-serif" font-size="11" lengthAdjust="spacing" textLength="147" x="981" y="622.4292">PROPOSED_COMBINATION</text><ellipse cx="972" cy="632.0234" rx="3" ry="3" style="stroke:#038048;stroke-width:1.0;fill:none;"/><text fill="#000000" font-family="sans-serif" font-size="11" lengthAdjust="spacing" textLength="44" x="981" y="635.2339">WINNER</text><ellipse cx="972" cy="644.8281" rx="3" ry="3" style="stroke:#038048;stroke-width:1.0;fill:none;"/><text fill="#000000" font-family="sans-serif" font-size="11" lengthAdjust="spacing" textLength="46" x="981" y="648.0386">LOOSER</text><ellipse cx="972" cy="657.6328" rx="3" ry="3" style="stroke:#038048;stroke-width:1.0;fill:none;"/><text fill="#000000" font-family="sans-serif" font-size="11" lengthAdjust="spacing" textLength="46" x="981" y="660.8433">RESUME</text><line style="stroke:#A80036;stroke-width:1.5;" x1="962" x2="1133" y1="667.4375" y2="667.4375"/><polygon fill="#4177AF" points="972,674.4375,968,680.4375,976,680.4375" style="stroke:#1963A0;stroke-width:1.0;"/><text fill="#000000" font-family="sans-serif" font-size="11" lengthAdjust="spacing" textLength="36" x="981" y="681.6479">write()</text><polygon fill="#4177AF" points="972,687.2422,968,693.2422,976,693.2422" style="stroke:#1963A0;stroke-width:1.0;"/><text fill="#000000" font-family="sans-serif" font-size="11" lengthAdjust="spacing" textLength="50" x="981" y="694.4526">write(int)</text><polygon fill="#4177AF" points="972,700.0469,968,706.0469,976,706.0469" style="stroke:#1963A0;stroke-width:1.0;"/><text fill="#000000" font-family="sans-serif" font-size="11" lengthAdjust="spacing" textLength="71" x="981" y="707.2573">write(int, int)</text><!--MD5=[86cec68673cafdfc1c204348d5b2cca6]
class ErrorView--><rect codeLine="45" fill="#FEFECE" filter="url(#f1qpdogm785c0m)" height="60.8047" id="ErrorView" style="stroke:#A80036;stroke-width:1.5;" width="91" x="835" y="589"/><ellipse cx="850" cy="605" fill="#ADD1B2" rx="11" ry="11" style="stroke:#A80036;stroke-width:1.0;"/><path d="M852.3438,600.6719 C851.4063,600.2344 850.8125,600.0938 849.9375,600.0938 C847.3125,600.0938 845.3125,602.1719 845.3125,604.8906 L845.3125,606.0156 C845.3125,608.5938 847.4219,610.4844 850.3125,610.4844 C851.5313,610.4844 852.6875,610.1875 853.4375,609.6406 C854.0156,609.2344 854.3438,608.7813 854.3438,608.3906 C854.3438,607.9375 853.9531,607.5469 853.4844,607.5469 C853.2656,607.5469 853.0625,607.625 852.875,607.8125 C852.4219,608.2969 852.4219,608.2969 852.2344,608.3906 C851.8125,608.6563 851.125,608.7813 850.3594,608.7813 C848.3125,608.7813 847.0156,607.6875 847.0156,605.9844 L847.0156,604.8906 C847.0156,603.1094 848.2656,601.7969 850,601.7969 C850.5781,601.7969 851.1875,601.9531 851.6563,602.2031 C852.1406,602.4844 852.3125,602.7031 852.4063,603.1094 C852.4688,603.5156 852.5,603.6406 852.6406,603.7656 C852.7813,603.9063 853.0156,604.0156 853.2344,604.0156 C853.5,604.0156 853.7656,603.875 853.9375,603.6563 C854.0469,603.5 854.0781,603.3125 854.0781,602.8906 L854.0781,601.4688 C854.0781,601.0313 854.0625,600.9063 853.9688,600.75 C853.8125,600.4844 853.5313,600.3438 853.2344,600.3438 C852.9375,600.3438 852.7344,600.4375 852.5156,600.75 L852.3438,600.6719 Z " fill="#000000"/><text fill="#000000" font-family="sans-serif" font-size="12" lengthAdjust="spacing" textLength="59" x="864" y="609.1543">ErrorView</text><line style="stroke:#A80036;stroke-width:1.5;" x1="836" x2="925" y1="621" y2="621"/><line style="stroke:#A80036;stroke-width:1.5;" x1="836" x2="925" y1="629" y2="629"/><polygon fill="#4177AF" points="846,636,842,642,850,642" style="stroke:#1963A0;stroke-width:1.0;"/><text fill="#000000" font-family="sans-serif" font-size="11" lengthAdjust="spacing" textLength="62" x="855" y="643.2104">write(Error)</text><!--MD5=[0b95e4ee8b160a2b3b0650a9b235c496]
class ProposeController--><rect codeLine="69" fill="#FEFECE" filter="url(#f1qpdogm785c0m)" height="53.9375" id="ProposeController" style="stroke:#A80036;stroke-width:1.5;" width="141" x="1421" y="592.5"/><ellipse cx="1436" cy="611.4688" fill="#ADD1B2" rx="11" ry="11" style="stroke:#A80036;stroke-width:1.0;"/><path d="M1438.3438,607.1406 C1437.4063,606.7031 1436.8125,606.5625 1435.9375,606.5625 C1433.3125,606.5625 1431.3125,608.6406 1431.3125,611.3594 L1431.3125,612.4844 C1431.3125,615.0625 1433.4219,616.9531 1436.3125,616.9531 C1437.5313,616.9531 1438.6875,616.6563 1439.4375,616.1094 C1440.0156,615.7031 1440.3438,615.25 1440.3438,614.8594 C1440.3438,614.4063 1439.9531,614.0156 1439.4844,614.0156 C1439.2656,614.0156 1439.0625,614.0938 1438.875,614.2813 C1438.4219,614.7656 1438.4219,614.7656 1438.2344,614.8594 C1437.8125,615.125 1437.125,615.25 1436.3594,615.25 C1434.3125,615.25 1433.0156,614.1563 1433.0156,612.4531 L1433.0156,611.3594 C1433.0156,609.5781 1434.2656,608.2656 1436,608.2656 C1436.5781,608.2656 1437.1875,608.4219 1437.6563,608.6719 C1438.1406,608.9531 1438.3125,609.1719 1438.4063,609.5781 C1438.4688,609.9844 1438.5,610.1094 1438.6406,610.2344 C1438.7813,610.375 1439.0156,610.4844 1439.2344,610.4844 C1439.5,610.4844 1439.7656,610.3438 1439.9375,610.125 C1440.0469,609.9688 1440.0781,609.7813 1440.0781,609.3594 L1440.0781,607.9375 C1440.0781,607.5 1440.0625,607.375 1439.9688,607.2188 C1439.8125,606.9531 1439.5313,606.8125 1439.2344,606.8125 C1438.9375,606.8125 1438.7344,606.9063 1438.5156,607.2188 L1438.3438,607.1406 Z " fill="#000000"/><text fill="#000000" font-family="sans-serif" font-size="12" lengthAdjust="spacing" textLength="68" x="1470.5" y="608.6387">controllers.</text><text fill="#000000" font-family="sans-serif" font-size="12" lengthAdjust="spacing" textLength="109" x="1450" y="622.6074">ProposeController</text><line style="stroke:#A80036;stroke-width:1.5;" x1="1422" x2="1561" y1="630.4375" y2="630.4375"/><line style="stroke:#A80036;stroke-width:1.5;" x1="1422" x2="1561" y1="638.4375" y2="638.4375"/><!--MD5=[47c371471411cfedeee61b1a5bdaee47]
class StartController--><rect codeLine="70" fill="#FEFECE" filter="url(#f1qpdogm785c0m)" height="53.9375" id="StartController" style="stroke:#A80036;stroke-width:1.5;" width="119" x="1495" y="273.5"/><ellipse cx="1510" cy="292.4688" fill="#ADD1B2" rx="11" ry="11" style="stroke:#A80036;stroke-width:1.0;"/><path d="M1512.3438,288.1406 C1511.4063,287.7031 1510.8125,287.5625 1509.9375,287.5625 C1507.3125,287.5625 1505.3125,289.6406 1505.3125,292.3594 L1505.3125,293.4844 C1505.3125,296.0625 1507.4219,297.9531 1510.3125,297.9531 C1511.5313,297.9531 1512.6875,297.6563 1513.4375,297.1094 C1514.0156,296.7031 1514.3438,296.25 1514.3438,295.8594 C1514.3438,295.4063 1513.9531,295.0156 1513.4844,295.0156 C1513.2656,295.0156 1513.0625,295.0938 1512.875,295.2813 C1512.4219,295.7656 1512.4219,295.7656 1512.2344,295.8594 C1511.8125,296.125 1511.125,296.25 1510.3594,296.25 C1508.3125,296.25 1507.0156,295.1563 1507.0156,293.4531 L1507.0156,292.3594 C1507.0156,290.5781 1508.2656,289.2656 1510,289.2656 C1510.5781,289.2656 1511.1875,289.4219 1511.6563,289.6719 C1512.1406,289.9531 1512.3125,290.1719 1512.4063,290.5781 C1512.4688,290.9844 1512.5,291.1094 1512.6406,291.2344 C1512.7813,291.375 1513.0156,291.4844 1513.2344,291.4844 C1513.5,291.4844 1513.7656,291.3438 1513.9375,291.125 C1514.0469,290.9688 1514.0781,290.7813 1514.0781,290.3594 L1514.0781,288.9375 C1514.0781,288.5 1514.0625,288.375 1513.9688,288.2188 C1513.8125,287.9531 1513.5313,287.8125 1513.2344,287.8125 C1512.9375,287.8125 1512.7344,287.9063 1512.5156,288.2188 L1512.3438,288.1406 Z " fill="#000000"/><text fill="#000000" font-family="sans-serif" font-size="12" lengthAdjust="spacing" textLength="68" x="1533.5" y="289.6387">controllers.</text><text fill="#000000" font-family="sans-serif" font-size="12" lengthAdjust="spacing" textLength="87" x="1524" y="303.6074">StartController</text><line style="stroke:#A80036;stroke-width:1.5;" x1="1496" x2="1613" y1="311.4375" y2="311.4375"/><line style="stroke:#A80036;stroke-width:1.5;" x1="1496" x2="1613" y1="319.4375" y2="319.4375"/><!--MD5=[1a47bbf44ccee225df9b18c5b6629853]
class ResumeController--><rect codeLine="71" fill="#FEFECE" filter="url(#f1qpdogm785c0m)" height="53.9375" id="ResumeController" style="stroke:#A80036;stroke-width:1.5;" width="139" x="7" y="401"/><ellipse cx="22" cy="419.9688" fill="#ADD1B2" rx="11" ry="11" style="stroke:#A80036;stroke-width:1.0;"/><path d="M24.3438,415.6406 C23.4063,415.2031 22.8125,415.0625 21.9375,415.0625 C19.3125,415.0625 17.3125,417.1406 17.3125,419.8594 L17.3125,420.9844 C17.3125,423.5625 19.4219,425.4531 22.3125,425.4531 C23.5313,425.4531 24.6875,425.1563 25.4375,424.6094 C26.0156,424.2031 26.3438,423.75 26.3438,423.3594 C26.3438,422.9063 25.9531,422.5156 25.4844,422.5156 C25.2656,422.5156 25.0625,422.5938 24.875,422.7813 C24.4219,423.2656 24.4219,423.2656 24.2344,423.3594 C23.8125,423.625 23.125,423.75 22.3594,423.75 C20.3125,423.75 19.0156,422.6563 19.0156,420.9531 L19.0156,419.8594 C19.0156,418.0781 20.2656,416.7656 22,416.7656 C22.5781,416.7656 23.1875,416.9219 23.6563,417.1719 C24.1406,417.4531 24.3125,417.6719 24.4063,418.0781 C24.4688,418.4844 24.5,418.6094 24.6406,418.7344 C24.7813,418.875 25.0156,418.9844 25.2344,418.9844 C25.5,418.9844 25.7656,418.8438 25.9375,418.625 C26.0469,418.4688 26.0781,418.2813 26.0781,417.8594 L26.0781,416.4375 C26.0781,416 26.0625,415.875 25.9688,415.7188 C25.8125,415.4531 25.5313,415.3125 25.2344,415.3125 C24.9375,415.3125 24.7344,415.4063 24.5156,415.7188 L24.3438,415.6406 Z " fill="#000000"/><text fill="#000000" font-family="sans-serif" font-size="12" lengthAdjust="spacing" textLength="68" x="55.5" y="417.1387">controllers.</text><text fill="#000000" font-family="sans-serif" font-size="12" lengthAdjust="spacing" textLength="107" x="36" y="431.1074">ResumeController</text><line style="stroke:#A80036;stroke-width:1.5;" x1="8" x2="145" y1="438.9375" y2="438.9375"/><line style="stroke:#A80036;stroke-width:1.5;" x1="8" x2="145" y1="446.9375" y2="446.9375"/><!--MD5=[aab9612c5d46aa221e996c7d0ed5d7ab]
class UndoController--><rect codeLine="72" fill="#FEFECE" filter="url(#f1qpdogm785c0m)" height="53.9375" id="UndoController" style="stroke:#A80036;stroke-width:1.5;" width="123" x="339" y="401"/><ellipse cx="354" cy="419.9688" fill="#ADD1B2" rx="11" ry="11" style="stroke:#A80036;stroke-width:1.0;"/><path d="M356.3438,415.6406 C355.4063,415.2031 354.8125,415.0625 353.9375,415.0625 C351.3125,415.0625 349.3125,417.1406 349.3125,419.8594 L349.3125,420.9844 C349.3125,423.5625 351.4219,425.4531 354.3125,425.4531 C355.5313,425.4531 356.6875,425.1563 357.4375,424.6094 C358.0156,424.2031 358.3438,423.75 358.3438,423.3594 C358.3438,422.9063 357.9531,422.5156 357.4844,422.5156 C357.2656,422.5156 357.0625,422.5938 356.875,422.7813 C356.4219,423.2656 356.4219,423.2656 356.2344,423.3594 C355.8125,423.625 355.125,423.75 354.3594,423.75 C352.3125,423.75 351.0156,422.6563 351.0156,420.9531 L351.0156,419.8594 C351.0156,418.0781 352.2656,416.7656 354,416.7656 C354.5781,416.7656 355.1875,416.9219 355.6563,417.1719 C356.1406,417.4531 356.3125,417.6719 356.4063,418.0781 C356.4688,418.4844 356.5,418.6094 356.6406,418.7344 C356.7813,418.875 357.0156,418.9844 357.2344,418.9844 C357.5,418.9844 357.7656,418.8438 357.9375,418.625 C358.0469,418.4688 358.0781,418.2813 358.0781,417.8594 L358.0781,416.4375 C358.0781,416 358.0625,415.875 357.9688,415.7188 C357.8125,415.4531 357.5313,415.3125 357.2344,415.3125 C356.9375,415.3125 356.7344,415.4063 356.5156,415.7188 L356.3438,415.6406 Z " fill="#000000"/><text fill="#000000" font-family="sans-serif" font-size="12" lengthAdjust="spacing" textLength="68" x="379.5" y="417.1387">controllers.</text><text fill="#000000" font-family="sans-serif" font-size="12" lengthAdjust="spacing" textLength="91" x="368" y="431.1074">UndoController</text><line style="stroke:#A80036;stroke-width:1.5;" x1="340" x2="461" y1="438.9375" y2="438.9375"/><line style="stroke:#A80036;stroke-width:1.5;" x1="340" x2="461" y1="446.9375" y2="446.9375"/><!--MD5=[09632e2f294dd01282ddf91519a686d7]
class RedoController--><rect codeLine="73" fill="#FEFECE" filter="url(#f1qpdogm785c0m)" height="53.9375" id="RedoController" style="stroke:#A80036;stroke-width:1.5;" width="122" x="181.5" y="401"/><ellipse cx="196.5" cy="419.9688" fill="#ADD1B2" rx="11" ry="11" style="stroke:#A80036;stroke-width:1.0;"/><path d="M198.8438,415.6406 C197.9063,415.2031 197.3125,415.0625 196.4375,415.0625 C193.8125,415.0625 191.8125,417.1406 191.8125,419.8594 L191.8125,420.9844 C191.8125,423.5625 193.9219,425.4531 196.8125,425.4531 C198.0313,425.4531 199.1875,425.1563 199.9375,424.6094 C200.5156,424.2031 200.8438,423.75 200.8438,423.3594 C200.8438,422.9063 200.4531,422.5156 199.9844,422.5156 C199.7656,422.5156 199.5625,422.5938 199.375,422.7813 C198.9219,423.2656 198.9219,423.2656 198.7344,423.3594 C198.3125,423.625 197.625,423.75 196.8594,423.75 C194.8125,423.75 193.5156,422.6563 193.5156,420.9531 L193.5156,419.8594 C193.5156,418.0781 194.7656,416.7656 196.5,416.7656 C197.0781,416.7656 197.6875,416.9219 198.1563,417.1719 C198.6406,417.4531 198.8125,417.6719 198.9063,418.0781 C198.9688,418.4844 199,418.6094 199.1406,418.7344 C199.2813,418.875 199.5156,418.9844 199.7344,418.9844 C200,418.9844 200.2656,418.8438 200.4375,418.625 C200.5469,418.4688 200.5781,418.2813 200.5781,417.8594 L200.5781,416.4375 C200.5781,416 200.5625,415.875 200.4688,415.7188 C200.3125,415.4531 200.0313,415.3125 199.7344,415.3125 C199.4375,415.3125 199.2344,415.4063 199.0156,415.7188 L198.8438,415.6406 Z " fill="#000000"/><text fill="#000000" font-family="sans-serif" font-size="12" lengthAdjust="spacing" textLength="68" x="221.5" y="417.1387">controllers.</text><text fill="#000000" font-family="sans-serif" font-size="12" lengthAdjust="spacing" textLength="90" x="210.5" y="431.1074">RedoController</text><line style="stroke:#A80036;stroke-width:1.5;" x1="182.5" x2="302.5" y1="438.9375" y2="438.9375"/><line style="stroke:#A80036;stroke-width:1.5;" x1="182.5" x2="302.5" y1="446.9375" y2="446.9375"/><!--MD5=[1d7ba1c7002d54515419844fbd155368]
class Controller--><rect codeLine="74" fill="#FEFECE" filter="url(#f1qpdogm785c0m)" height="53.9375" id="Controller" style="stroke:#A80036;stroke-width:1.5;" width="99" x="569" y="401"/><ellipse cx="584" cy="419.9688" fill="#A9DCDF" rx="11" ry="11" style="stroke:#A80036;stroke-width:1.0;"/><path d="M586.0781,421.7813 L586.4688,422.7656 L586.0781,422.7656 C585.625,422.7656 585.5156,422.7813 585.3594,422.8906 C585.1094,423.0469 584.9531,423.3281 584.9531,423.625 C584.9531,423.8906 585.0938,424.1406 585.3125,424.2969 C585.4531,424.4219 585.6563,424.4688 586.0781,424.4688 L588.4375,424.4688 C588.7969,424.4688 589.0156,424.4375 589.1563,424.3438 C589.4063,424.2031 589.5625,423.9063 589.5625,423.625 C589.5625,423.3438 589.4219,423.0938 589.2031,422.9375 C589.0313,422.7969 588.875,422.7656 588.4063,422.7656 L585.0156,414.5625 L581.3438,414.5625 C580.8906,414.5625 580.7656,414.5781 580.6094,414.6719 C580.3594,414.8438 580.2031,415.125 580.2031,415.4063 C580.2031,415.6875 580.3438,415.9375 580.5625,416.1094 C580.7344,416.2188 580.9063,416.25 581.3438,416.25 L582.4219,416.25 L579.7813,422.7656 C579.3594,422.7656 579.2031,422.7813 579.0469,422.8906 C578.7969,423.0469 578.6406,423.3281 578.6406,423.625 C578.6406,424.1875 579.0156,424.4688 579.7656,424.4688 L582.0313,424.4688 C582.3906,424.4688 582.6094,424.4375 582.7344,424.3438 C583,424.2031 583.1406,423.9063 583.1406,423.625 C583.1406,423.3438 583.0156,423.0938 582.7969,422.9219 C582.625,422.7969 582.4844,422.7656 582.0313,422.7656 L581.6406,422.7656 L582.0313,421.7813 L586.0781,421.7813 Z M585.375,420.0781 L582.7031,420.0781 L584.0469,416.8125 L585.375,420.0781 Z " fill="#000000"/><text fill="#000000" font-family="sans-serif" font-size="12" font-style="italic" lengthAdjust="spacing" textLength="67" x="598" y="417.1387">controllers.</text><text fill="#000000" font-family="sans-serif" font-size="12" font-style="italic" lengthAdjust="spacing" textLength="58" x="602.5" y="431.1074">Controller</text><line style="stroke:#A80036;stroke-width:1.5;" x1="570" x2="667" y1="438.9375" y2="438.9375"/><line style="stroke:#A80036;stroke-width:1.5;" x1="570" x2="667" y1="446.9375" y2="446.9375"/><!--MD5=[18eee71c88ab61f27581b8cbdd3ef5ee]
class Color--><rect codeLine="75" fill="#FEFECE" filter="url(#f1qpdogm785c0m)" height="53.9375" id="Color" style="stroke:#A80036;stroke-width:1.5;" width="69" x="616" y="774"/><ellipse cx="631" cy="792.9688" fill="#EB937F" rx="11" ry="11" style="stroke:#A80036;stroke-width:1.0;"/><path d="M629.7969,793.8438 L631.25,793.8438 L631.25,793.9531 C631.25,794.3594 631.2813,794.5156 631.3594,794.6719 C631.5156,794.9219 631.7969,795.0781 632.0938,795.0781 C632.3438,795.0781 632.6094,794.9375 632.7656,794.7188 C632.8906,794.5625 632.9219,794.4063 632.9219,793.9531 L632.9219,792.0313 C632.9219,791.875 632.9219,791.8281 632.9063,791.6719 C632.8438,791.2031 632.5313,790.8906 632.0781,790.8906 C631.8281,790.8906 631.5625,791.0313 631.3906,791.25 C631.2813,791.4219 631.25,791.5781 631.25,792.0313 L631.25,792.1563 L629.7969,792.1563 L629.7969,789.75 L633.7813,789.75 L633.7813,790.6094 C633.7813,791.0156 633.8125,791.1875 633.8906,791.3438 C634.0625,791.5938 634.3438,791.75 634.625,791.75 C634.8906,791.75 635.1563,791.6094 635.3281,791.3906 C635.4375,791.2188 635.4688,791.0781 635.4688,790.6094 L635.4688,788.0625 L627.8438,788.0625 C627.4063,788.0625 627.2813,788.0781 627.125,788.1719 C626.875,788.3281 626.7188,788.625 626.7188,788.9063 C626.7188,789.1875 626.8594,789.4375 627.0781,789.6094 C627.2344,789.7188 627.4219,789.75 627.8438,789.75 L628.0938,789.75 L628.0938,796.2656 L627.8438,796.2656 C627.4375,796.2656 627.2813,796.2813 627.125,796.3906 C626.875,796.5625 626.7188,796.8281 626.7188,797.125 C626.7188,797.3906 626.8594,797.6406 627.0781,797.7969 C627.2188,797.9219 627.4531,797.9688 627.8438,797.9688 L635.8438,797.9688 L635.8438,795.3906 C635.8438,794.9531 635.8125,794.8125 635.7344,794.6563 C635.5625,794.4063 635.2813,794.25 635,794.25 C634.7344,794.25 634.4688,794.3594 634.2969,794.6094 C634.1875,794.7656 634.1563,794.9063 634.1563,795.3906 L634.1563,796.2656 L629.7969,796.2656 L629.7969,793.8438 Z " fill="#000000"/><text fill="#000000" font-family="sans-serif" font-size="12" lengthAdjust="spacing" textLength="37" x="645" y="790.1387">types.</text><text fill="#000000" font-family="sans-serif" font-size="12" lengthAdjust="spacing" textLength="32" x="647.5" y="804.1074">Color</text><line style="stroke:#A80036;stroke-width:1.5;" x1="617" x2="684" y1="811.9375" y2="811.9375"/><line style="stroke:#A80036;stroke-width:1.5;" x1="617" x2="684" y1="819.9375" y2="819.9375"/><!--MD5=[b8cfd8c4119a3b0a7a46bfc5fc780f85]
class Error--><rect codeLine="76" fill="#FEFECE" filter="url(#f1qpdogm785c0m)" height="53.9375" id="Error" style="stroke:#A80036;stroke-width:1.5;" width="69" x="999" y="774"/><ellipse cx="1014" cy="792.9688" fill="#EB937F" rx="11" ry="11" style="stroke:#A80036;stroke-width:1.0;"/><path d="M1012.7969,793.8438 L1014.25,793.8438 L1014.25,793.9531 C1014.25,794.3594 1014.2813,794.5156 1014.3594,794.6719 C1014.5156,794.9219 1014.7969,795.0781 1015.0938,795.0781 C1015.3438,795.0781 1015.6094,794.9375 1015.7656,794.7188 C1015.8906,794.5625 1015.9219,794.4063 1015.9219,793.9531 L1015.9219,792.0313 C1015.9219,791.875 1015.9219,791.8281 1015.9063,791.6719 C1015.8438,791.2031 1015.5313,790.8906 1015.0781,790.8906 C1014.8281,790.8906 1014.5625,791.0313 1014.3906,791.25 C1014.2813,791.4219 1014.25,791.5781 1014.25,792.0313 L1014.25,792.1563 L1012.7969,792.1563 L1012.7969,789.75 L1016.7813,789.75 L1016.7813,790.6094 C1016.7813,791.0156 1016.8125,791.1875 1016.8906,791.3438 C1017.0625,791.5938 1017.3438,791.75 1017.625,791.75 C1017.8906,791.75 1018.1563,791.6094 1018.3281,791.3906 C1018.4375,791.2188 1018.4688,791.0781 1018.4688,790.6094 L1018.4688,788.0625 L1010.8438,788.0625 C1010.4063,788.0625 1010.2813,788.0781 1010.125,788.1719 C1009.875,788.3281 1009.7188,788.625 1009.7188,788.9063 C1009.7188,789.1875 1009.8594,789.4375 1010.0781,789.6094 C1010.2344,789.7188 1010.4219,789.75 1010.8438,789.75 L1011.0938,789.75 L1011.0938,796.2656 L1010.8438,796.2656 C1010.4375,796.2656 1010.2813,796.2813 1010.125,796.3906 C1009.875,796.5625 1009.7188,796.8281 1009.7188,797.125 C1009.7188,797.3906 1009.8594,797.6406 1010.0781,797.7969 C1010.2188,797.9219 1010.4531,797.9688 1010.8438,797.9688 L1018.8438,797.9688 L1018.8438,795.3906 C1018.8438,794.9531 1018.8125,794.8125 1018.7344,794.6563 C1018.5625,794.4063 1018.2813,794.25 1018,794.25 C1017.7344,794.25 1017.4688,794.3594 1017.2969,794.6094 C1017.1875,794.7656 1017.1563,794.9063 1017.1563,795.3906 L1017.1563,796.2656 L1012.7969,796.2656 L1012.7969,793.8438 Z " fill="#000000"/><text fill="#000000" font-family="sans-serif" font-size="12" lengthAdjust="spacing" textLength="37" x="1028" y="790.1387">types.</text><text fill="#000000" font-family="sans-serif" font-size="12" lengthAdjust="spacing" textLength="30" x="1031.5" y="804.1074">Error</text><line style="stroke:#A80036;stroke-width:1.5;" x1="1000" x2="1067" y1="811.9375" y2="811.9375"/><line style="stroke:#A80036;stroke-width:1.5;" x1="1000" x2="1067" y1="819.9375" y2="819.9375"/><!--MD5=[dc0500422e092c4f25e7b64adb8c025b]
link PlayerView to StartView--><path codeLine="50" d="M1172.0474,95.0118 C1172.0474,95.0118 1228.16,127.222 1254.46,142.319 " fill="none" id="PlayerView-StartView" style="stroke:#A80036;stroke-width:1.0;"/><polygon fill="#A80036" points="1265.86,148.859,1260.0457,140.9095,1261.5236,146.3699,1256.0632,147.8478,1265.86,148.859" style="stroke:#A80036;stroke-width:1.0;"/><line style="stroke:#A80036;stroke-width:1.0;" x1="1261.5236" x2="1254.585" y1="146.3699" y2="142.387"/><polygon fill="#A80036" points="1161.64,89.038,1164.8524,95.494,1172.0474,95.0118,1168.835,88.5558,1161.64,89.038" style="stroke:#A80036;stroke-width:1.0;"/><!--MD5=[6aa5591338f4cd689301f7e2cc176561]
link PlayerView to ProposeView--><path codeLine="51" d="M1121.5,101.038 C1121.5,101.038 1121.5,124.562 1121.5,135.634 " fill="none" id="PlayerView-ProposeView" style="stroke:#A80036;stroke-width:1.0;"/><polygon fill="#A80036" points="1121.5,148.65,1125.5,139.65,1121.5,143.65,1117.5,139.65,1121.5,148.65" style="stroke:#A80036;stroke-width:1.0;"/><line style="stroke:#A80036;stroke-width:1.0;" x1="1121.5" x2="1121.5" y1="143.65" y2="135.65"/><polygon fill="#A80036" points="1121.5,89.038,1117.5,95.038,1121.5,101.038,1125.5,95.038,1121.5,89.038" style="stroke:#A80036;stroke-width:1.0;"/><!--MD5=[b95630b4bb6f21f358e9b1d68800b78a]
link PlayerView to ResumeView--><path codeLine="52" d="M1081.6792,96.5024 C1081.6792,96.5024 1035.69,131.821 1013.5,149 C964.208,187.159 908.028,231.008 869.043,261.494 " fill="none" id="PlayerView-ResumeView" style="stroke:#A80036;stroke-width:1.0;"/><polygon fill="#A80036" points="858.523,269.723,868.0766,267.3293,862.4615,266.6427,863.1481,261.0277,858.523,269.723" style="stroke:#A80036;stroke-width:1.0;"/><line style="stroke:#A80036;stroke-width:1.0;" x1="862.4615" x2="868.763" y1="266.6427" y2="261.713"/><polygon fill="#A80036" points="1091.2,89.198,1084.0048,89.6766,1081.6792,96.5024,1088.8744,96.0238,1091.2,89.198" style="stroke:#A80036;stroke-width:1.0;"/><!--MD5=[2b5890793a76472eff4c2a6a4af43287]
link StartView to BoardView--><path codeLine="53" d="M1293.27,210.222 C1279.5,227.118 1262.21,248.331 1247.94,265.839 " fill="none" id="StartView-to-BoardView" style="stroke:#A80036;stroke-width:1.0;stroke-dasharray:7.0,7.0;"/><polygon fill="#A80036" points="1244.75,269.745,1253.5398,265.3021,1247.9117,265.8715,1247.3422,260.2434,1244.75,269.745" style="stroke:#A80036;stroke-width:1.0;"/><!--MD5=[29c306805319960c0560bedfd82b8e40]
link ProposeView to BoardView--><path codeLine="54" d="M1146.23,210.222 C1160.28,227.118 1177.93,248.331 1192.5,265.839 " fill="none" id="ProposeView-to-BoardView" style="stroke:#A80036;stroke-width:1.0;stroke-dasharray:7.0,7.0;"/><polygon fill="#A80036" points="1195.75,269.745,1193.0689,260.2681,1192.5522,265.9013,1186.919,265.3846,1195.75,269.745" style="stroke:#A80036;stroke-width:1.0;"/><!--MD5=[b92bc89b5449472b10f1cf1477809057]
link BoardView to ProposedCombinationView--><path codeLine="55" d="M1161.91,320.697 C1102.77,340.076 1010.26,370.391 939.135,393.697 " fill="none" id="BoardView-to-ProposedCombinationView" style="stroke:#A80036;stroke-width:1.0;stroke-dasharray:7.0,7.0;"/><polygon fill="#A80036" points="934.051,395.362,943.8491,396.3603,938.8024,393.8049,941.3577,388.7581,934.051,395.362" style="stroke:#A80036;stroke-width:1.0;"/><!--MD5=[15f682a315f16673a58b132a229e1ff0]
link BoardView to ResultView--><path codeLine="56" d="M1190.17,331.242 C1171.04,349.997 1146.3,374.252 1126.51,393.658 " fill="none" id="BoardView-to-ResultView" style="stroke:#A80036;stroke-width:1.0;stroke-dasharray:7.0,7.0;"/><polygon fill="#A80036" points="1122.62,397.472,1131.8469,394.0276,1126.1904,393.9716,1126.2464,388.3151,1122.62,397.472" style="stroke:#A80036;stroke-width:1.0;"/><!--MD5=[02a16ebf8539d2e5d44c3be387606aac]
link BoardView to Message--><path codeLine="57" d="M1161.98,324.754 C1107.82,346.865 1034.47,378.542 1026.5,391 C1002.362,428.718 1003.599,477.415 1012.52,520.071 " fill="none" id="BoardView-to-Message" style="stroke:#A80036;stroke-width:1.0;stroke-dasharray:7.0,7.0;"/><polygon fill="#A80036" points="1013.59,524.975,1015.5881,515.331,1012.5285,520.089,1007.7705,517.0294,1013.59,524.975" style="stroke:#A80036;stroke-width:1.0;"/><!--MD5=[5418e21908cb409c36d98acf7a0f9cb6]
link BoardView to SecretCombinationView--><path codeLine="58" d="M1230.69,331.242 C1237.01,349.685 1245.15,373.445 1251.74,392.684 " fill="none" id="BoardView-to-SecretCombinationView" style="stroke:#A80036;stroke-width:1.0;stroke-dasharray:7.0,7.0;"/><polygon fill="#A80036" points="1253.38,397.472,1254.2445,387.6612,1251.7582,392.7423,1246.677,390.256,1253.38,397.472" style="stroke:#A80036;stroke-width:1.0;"/><!--MD5=[54923e7f1f8105ab44ef05f41a7d666e]
link ProposedCombinationView to ColorView--><path codeLine="59" d="M821.122,465.09 C806.583,497.126 785.35,543.913 770.159,577.384 " fill="none" id="ProposedCombinationView-to-ColorView" style="stroke:#A80036;stroke-width:1.0;stroke-dasharray:7.0,7.0;"/><polygon fill="#A80036" points="767.964,582.223,775.3261,575.6809,770.0305,577.67,768.0414,572.3744,767.964,582.223" style="stroke:#A80036;stroke-width:1.0;"/><!--MD5=[058408ce5819f71d62d41402f2a6cc02]
link ProposedCombinationView to ErrorView--><path codeLine="60" d="M845.689,465.09 C853.415,499.135 864.92,549.84 872.562,583.518 " fill="none" id="ProposedCombinationView-to-ErrorView" style="stroke:#A80036;stroke-width:1.0;stroke-dasharray:7.0,7.0;"/><polygon fill="#A80036" points="873.754,588.772,875.6618,579.1097,872.6468,583.8961,867.8604,580.8812,873.754,588.772" style="stroke:#A80036;stroke-width:1.0;"/><!--MD5=[7bf6310e2078d439bcd0e6b6dd4bf7dc]
link ProposedCombinationView to Message--><path codeLine="61" d="M877.494,465.09 C900.044,485.438 929.189,511.738 956.959,536.797 " fill="none" id="ProposedCombinationView-to-Message" style="stroke:#A80036;stroke-width:1.0;stroke-dasharray:7.0,7.0;"/><polygon fill="#A80036" points="960.69,540.164,956.6856,531.166,956.977,536.8153,951.3277,537.1067,960.69,540.164" style="stroke:#A80036;stroke-width:1.0;"/><!--MD5=[0e5df9184d8007a1cb9785d3f6966635]
link ResultView to Message--><path codeLine="62" d="M1085.47,458.609 C1081.49,475.352 1076.27,497.353 1070.97,519.658 " fill="none" id="ResultView-to-Message" style="stroke:#A80036;stroke-width:1.0;stroke-dasharray:7.0,7.0;"/><polygon fill="#A80036" points="1069.77,524.722,1075.7395,516.8884,1070.9242,519.857,1067.9556,515.0417,1069.77,524.722" style="stroke:#A80036;stroke-width:1.0;"/><!--MD5=[97e9ace985d716348ec86012fc7f7728]
link StartView to Message--><path codeLine="63" d="M1335.34,210.098 C1365.78,264.836 1419.74,383.705 1368.5,465 C1318.54,544.262 1215.11,583.485 1139.1,602.29 " fill="none" id="StartView-to-Message" style="stroke:#A80036;stroke-width:1.0;stroke-dasharray:7.0,7.0;"/><polygon fill="#A80036" points="1134.13,603.499,1143.8217,605.2512,1138.9874,602.3136,1141.925,597.4793,1134.13,603.499" style="stroke:#A80036;stroke-width:1.0;"/><!--MD5=[91198d1c12ec6e73a40fb6837ae56756]
link ResumeView to Message--><path codeLine="64" d="M774.257,331.077 C754.719,346.35 734.071,366.863 723.5,391 C710.306,421.126 703.537,438.863 723.5,465 C785.018,545.543 854.522,476.476 943.5,525 C947.896,527.398 952.259,530.016 956.566,532.803 " fill="none" id="ResumeView-to-Message" style="stroke:#A80036;stroke-width:1.0;stroke-dasharray:7.0,7.0;"/><polygon fill="#A80036" points="960.853,535.646,955.5623,527.3389,956.6857,532.8831,951.1416,534.0065,960.853,535.646" style="stroke:#A80036;stroke-width:1.0;"/><!--MD5=[9c3c49d2c46e41492ade90d337e2ed2e]
link ProposeView to MenuView--><path codeLine="65" d="M1098.77,210.222 C1085.96,226.976 1069.9,247.975 1056.58,265.397 " fill="none" id="ProposeView-to-MenuView" style="stroke:#A80036;stroke-width:1.0;stroke-dasharray:7.0,7.0;"/><polygon fill="#A80036" points="1053.25,269.745,1061.8946,265.0258,1056.2874,265.7733,1055.5399,260.166,1053.25,269.745" style="stroke:#A80036;stroke-width:1.0;"/><!--MD5=[5edb36716a4c6fb9b73ccdfe060f2d05]
link MenuView to ProposedCombinationView--><path codeLine="66" d="M984.762,331.242 C958.627,348.236 925.547,369.746 897.364,388.073 " fill="none" id="MenuView-to-ProposedCombinationView" style="stroke:#A80036;stroke-width:1.0;stroke-dasharray:7.0,7.0;"/><polygon fill="#A80036" points="892.885,390.986,902.6106,389.4328,897.0766,388.2602,898.2493,382.7262,892.885,390.986" style="stroke:#A80036;stroke-width:1.0;"/><!--MD5=[2af68b46eeb5c2e46543eeb7557d9936]
link ProposeView to Message--><path codeLine="67" d="M1126.16,210.289 C1129.6,242.707 1130.23,294.749 1106.5,331 C1076.64,376.619 1027.06,343.954 999.5,391 C976.761,429.821 982.92,477.96 997.125,519.947 " fill="none" id="ProposeView-to-Message" style="stroke:#A80036;stroke-width:1.0;stroke-dasharray:7.0,7.0;"/><polygon fill="#A80036" points="998.802,524.773,999.6257,514.9586,997.1606,520.0501,992.0691,517.585,998.802,524.773" style="stroke:#A80036;stroke-width:1.0;"/><!--MD5=[4b21c71922f6b938a01287b262bac1e8]
link ResumeView to ResumeController--><path codeLine="78" d="M703.888,308.316 C571.129,318.153 348.673,340.973 163.5,391 C155.398,393.189 147.046,395.948 138.871,398.96 " fill="none" id="ResumeView-to-ResumeController" style="stroke:#A80036;stroke-width:1.0;"/><polygon fill="#A80036" points="133.807,400.866,143.6392,401.4394,138.4865,399.1047,140.8212,393.9521,133.807,400.866" style="stroke:#A80036;stroke-width:1.0;"/><!--MD5=[3ad0bd69ff7a093d2131bc46b011fe78]
link StartView to StartController--><path codeLine="79" d="M1376.39,210.069 C1413.39,228.646 1460.87,252.487 1497.5,270.881 " fill="none" id="StartView-to-StartController" style="stroke:#A80036;stroke-width:1.0;"/><polygon fill="#A80036" points="1502.37,273.325,1496.1207,265.7128,1497.9013,271.0821,1492.532,272.8627,1502.37,273.325" style="stroke:#A80036;stroke-width:1.0;"/><!--MD5=[29fcc52e6d71b3dd4a5f09442a1139e9]
link ProposeView to ProposeController--><path codeLine="80" d="M1201.95,210.171 C1233.95,224.735 1269.49,244.67 1296.5,270 C1396.55,363.839 1458.42,520.784 1481.37,587.246 " fill="none" id="ProposeView-to-ProposeController" style="stroke:#A80036;stroke-width:1.0;"/><polygon fill="#A80036" points="1483.09,592.254,1483.9571,582.4434,1481.4695,587.5239,1476.389,585.0362,1483.09,592.254" style="stroke:#A80036;stroke-width:1.0;"/><!--MD5=[1c72537bfbab1e04487289dc6e74ec01]
link MenuView to UndoController--><path codeLine="81" d="M971.623,325.943 C965.895,327.839 960.124,329.568 954.5,331 C752.561,382.411 691.071,338.165 489.5,391 C481.066,393.211 472.362,396.021 463.851,399.094 " fill="none" id="MenuView-to-UndoController" style="stroke:#A80036;stroke-width:1.0;stroke-dasharray:7.0,7.0;"/><polygon fill="#A80036" points="459.146,400.826,468.9738,401.4704,463.8381,399.0986,466.2099,393.963,459.146,400.826" style="stroke:#A80036;stroke-width:1.0;"/><!--MD5=[4f7e4785f4e485ec5d042c9275bf79a2]
link MenuView to RedoController--><path codeLine="82" d="M971.673,326.145 C965.935,327.999 960.147,329.664 954.5,331 C679.502,396.08 594.52,318.066 321.5,391 C313.782,393.062 305.874,395.813 298.185,398.879 " fill="none" id="MenuView-to-RedoController" style="stroke:#A80036;stroke-width:1.0;stroke-dasharray:7.0,7.0;"/><polygon fill="#A80036" points="293.43,400.826,303.2745,401.118,298.0573,398.9317,300.2436,393.7144,293.43,400.826" style="stroke:#A80036;stroke-width:1.0;"/><!--MD5=[e3472d34888c576c4bdcfb4b35a51dcb]
link BoardView to Controller--><path codeLine="83" d="M1161.91,317.99 C1144.2,322.614 1124.64,327.366 1106.5,331 C922.043,367.954 866.565,333.333 687.5,391 C681.043,393.079 674.465,395.728 668.062,398.642 " fill="none" id="BoardView-to-Controller" style="stroke:#A80036;stroke-width:1.0;"/><polygon fill="#A80036" points="663.205,400.917,673.0519,400.7213,667.7328,398.7959,669.6582,393.4768,663.205,400.917" style="stroke:#A80036;stroke-width:1.0;"/><!--MD5=[84218aafa7a878c97f717d9c345cf5ad]
link ProposedCombinationView to ProposeController--><path codeLine="84" d="M934.03,447.98 C963.662,453.647 996.392,459.744 1026.5,465 C1194.07,494.251 1254.36,445.034 1404.5,525 C1432.2,539.756 1455.87,566.783 1471.5,587.998 " fill="none" id="ProposedCombinationView-to-ProposeController" style="stroke:#A80036;stroke-width:1.0;stroke-dasharray:7.0,7.0;"/><polygon fill="#A80036" points="1474.51,592.158,1472.4585,582.5252,1471.5721,588.1122,1465.9851,587.2258,1474.51,592.158" style="stroke:#A80036;stroke-width:1.0;"/><!--MD5=[12f03c7f5abb6c3e068862197d6139ed]
link BoardView to Color--><path codeLine="85" d="M1161.99,318.383 C1144.28,323.02 1124.7,327.679 1106.5,331 C984.462,353.264 634.37,298.688 551.5,391 C452.089,501.737 573.552,695.189 627.338,769.6211 " fill="none" id="BoardView-to-Color" style="stroke:#A80036;stroke-width:1.0;stroke-dasharray:7.0,7.0;"/><polygon fill="#A80036" points="630.47,773.9259,628.4114,764.2946,627.5292,769.8822,621.9415,768.9999,630.47,773.9259" style="stroke:#A80036;stroke-width:1.0;"/><!--MD5=[644d3bda32b13afd96f2f5d418a902c1]
link ProposedCombinationView to Color--><path codeLine="86" d="M752.454,465.007 C726.993,479.908 701.594,499.726 685.5,525 C636.79,601.492 640.823,714.36 646.346,768.6187 " fill="none" id="ProposedCombinationView-to-Color" style="stroke:#A80036;stroke-width:1.0;stroke-dasharray:7.0,7.0;"/><polygon fill="#A80036" points="646.884,773.6834,649.9116,764.3115,646.3562,768.7113,641.9563,765.1559,646.884,773.6834" style="stroke:#A80036;stroke-width:1.0;"/><!--MD5=[3c978e882819d5791a3d8cfa6d73d565]
link ColorView to Color--><path codeLine="87" d="M731.061,656.825 C712.437,689.925 685.235,738.2676 667.7,769.4326 " fill="none" id="ColorView-to-Color" style="stroke:#A80036;stroke-width:1.0;stroke-dasharray:7.0,7.0;"/><polygon fill="#A80036" points="665.185,773.9022,673.084,768.0195,667.6365,769.5445,666.1116,764.097,665.185,773.9022" style="stroke:#A80036;stroke-width:1.0;"/><!--MD5=[974176bb14ab9e9584f1ed513689e2fc]
link ProposedCombinationView to Error--><path codeLine="88" d="M934.088,445.613 C1016.36,461.964 1125.31,489.601 1151.5,525 C1207.81,601.098 1200.46,656.975 1151.5,738 C1134.6,765.9697 1100.44,781.9476 1073.2,790.6528 " fill="none" id="ProposedCombinationView-to-Error" style="stroke:#A80036;stroke-width:1.0;stroke-dasharray:7.0,7.0;"/><polygon fill="#A80036" points="1068.21,792.1949,1077.9887,793.3688,1072.9885,790.7233,1075.634,785.7231,1068.21,792.1949" style="stroke:#A80036;stroke-width:1.0;"/><!--MD5=[86870cdabd6f68629f04aeac36e6c4ff]
link ErrorView to Error--><path codeLine="89" d="M891.734,650.188 C902.347,675.513 920.118,711.866 943.5,738 C957.962,754.1643 977.453,768.2551 994.6,778.9011 " fill="none" id="ErrorView-to-Error" style="stroke:#A80036;stroke-width:1.0;stroke-dasharray:7.0,7.0;"/><polygon fill="#A80036" points="998.904,781.5327,993.3124,773.425,994.6383,778.9243,989.139,780.2502,998.904,781.5327" style="stroke:#A80036;stroke-width:1.0;"/><!--MD5=[8f2eb185a8697b16c47f2ecdd905b907]
@startuml
package views {
    class PlayerView
    class StartView {
        ~ start(StartController)
    }
    class ProposeView {
        ~ propose(ProposeController)
    }
    class ResumeView {
        ~ resume(ResumeController): boolean
    }
    class BoardView {
        ~ write(Controller)
    }
    class MenuView {
        ~ write(Controller)
    }
    class ProposedCombinationView {
        ~ write(ProposeController)
        ~ read(): List<Color>
    }
    class SecretCombinationView {
        ~ write()
    }
    class ResultView {
        ~ write(int, int)
    }
    class ColorView {
        ~ write(Color)
        ~ read(): Color
    }
    enum Message {
        + TITLE
        + SECRET_COMBINATION
        + ATTEMPTS
        + RESULT
        + PROPOSED_COMBINATION
        + WINNER
        + LOOSER
        + RESUME
        ~ write()
        ~ write(int)
        ~ write(int, int)
    }
    class ErrorView {
        ~ write(Error)
    }
}

PlayerView *-down-> StartView
PlayerView *-down-> ProposeView
PlayerView *-down-> ResumeView
StartView .down.> BoardView
ProposeView .down.> BoardView
BoardView .down.> ProposedCombinationView
BoardView .down.> ResultView
BoardView .down.> Message
BoardView .down.> SecretCombinationView
ProposedCombinationView .down.> ColorView
ProposedCombinationView .down.> ErrorView
ProposedCombinationView .down.> Message
ResultView .down.> Message
StartView .down.> Message
ResumeView .down.> Message
ProposeView .down.> MenuView
MenuView .down.> ProposedCombinationView
ProposeView .down.> Message

class "controllers.\nProposeController" as ProposeController
class "controllers.\nStartController" as StartController
class "controllers.\nResumeController" as ResumeController
class "controllers.\nUndoController" as UndoController
class "controllers.\nRedoController" as RedoController
abstract class "controllers.\nController" as Controller
enum "types.\nColor" as Color
enum "types.\nError" as Error

ResumeView -down-> ResumeController
StartView -down-> StartController
ProposeView -down-> ProposeController
MenuView .down.> UndoController
MenuView .down.> RedoController
BoardView -down-> Controller
ProposedCombinationView .down.> ProposeController
BoardView .down.> Color
ProposedCombinationView .down.> Color
ColorView .down.> Color
ProposedCombinationView .down.> Error
ErrorView .down.> Error
@enduml

PlantUML version 1.2021.4beta3(Unknown compile time)
(GPL source distribution)
Java Runtime: Java(TM) SE Runtime Environment
JVM: Java HotSpot(TM) 64-Bit Server VM
Default Encoding: UTF-8
Language: en
Country: US
--></g></svg>