<?xml version="1.0" encoding="UTF-8" standalone="no"?><svg xmlns="http://www.w3.org/2000/svg" xmlns:xlink="http://www.w3.org/1999/xlink" contentScriptType="application/ecmascript" contentStyleType="text/css" height="189px" preserveAspectRatio="none" style="width:334px;height:189px;" version="1.1" viewBox="0 0 334 189" width="334px" zoomAndPan="magnify"><defs><filter height="300%" id="f1dsa80d7g9m4" width="300%" x="-1" y="-1"><feGaussianBlur result="blurOut" stdDeviation="2.0"/><feColorMatrix in="blurOut" result="blurOut2" type="matrix" values="0 0 0 0 0 0 0 0 0 0 0 0 0 0 0 0 0 0 .4 0"/><feOffset dx="4.0" dy="4.0" in="blurOut2" result="blurOut3"/><feBlend in="SourceGraphic" in2="blurOut3" mode="normal"/></filter></defs><g><!--MD5=[67cd15ce44b6dd54f77054b62c31bf42]
cluster types--><polygon fill="#FFFFFF" filter="url(#f1dsa80d7g9m4)" points="16,6,67,6,74,28.2969,317,28.2969,317,182,16,182,16,6" style="stroke:#000000;stroke-width:1.5;"/><line style="stroke:#000000;stroke-width:1.5;" x1="16" x2="74" y1="28.2969" y2="28.2969"/><text fill="#000000" font-family="sans-serif" font-size="14" font-weight="bold" lengthAdjust="spacing" textLength="45" x="20" y="20.9951">types</text><!--MD5=[18eee71c88ab61f27581b8cbdd3ef5ee]
class Color--><rect codeLine="2" fill="#FEFECE" filter="url(#f1dsa80d7g9m4)" height="124.8281" id="Color" style="stroke:#A80036;stroke-width:1.5;" width="82" x="219" y="41"/><ellipse cx="242.1" cy="57" fill="#EB937F" rx="11" ry="11" style="stroke:#A80036;stroke-width:1.0;"/><path d="M240.8969,57.875 L242.35,57.875 L242.35,57.9844 C242.35,58.3906 242.3813,58.5469 242.4594,58.7031 C242.6156,58.9531 242.8969,59.1094 243.1938,59.1094 C243.4438,59.1094 243.7094,58.9688 243.8656,58.75 C243.9906,58.5938 244.0219,58.4375 244.0219,57.9844 L244.0219,56.0625 C244.0219,55.9063 244.0219,55.8594 244.0063,55.7031 C243.9438,55.2344 243.6313,54.9219 243.1781,54.9219 C242.9281,54.9219 242.6625,55.0625 242.4906,55.2813 C242.3813,55.4531 242.35,55.6094 242.35,56.0625 L242.35,56.1875 L240.8969,56.1875 L240.8969,53.7813 L244.8813,53.7813 L244.8813,54.6406 C244.8813,55.0469 244.9125,55.2188 244.9906,55.375 C245.1625,55.625 245.4438,55.7813 245.725,55.7813 C245.9906,55.7813 246.2563,55.6406 246.4281,55.4219 C246.5375,55.25 246.5688,55.1094 246.5688,54.6406 L246.5688,52.0938 L238.9438,52.0938 C238.5063,52.0938 238.3813,52.1094 238.225,52.2031 C237.975,52.3594 237.8188,52.6563 237.8188,52.9375 C237.8188,53.2188 237.9594,53.4688 238.1781,53.6406 C238.3344,53.75 238.5219,53.7813 238.9438,53.7813 L239.1938,53.7813 L239.1938,60.2969 L238.9438,60.2969 C238.5375,60.2969 238.3813,60.3125 238.225,60.4219 C237.975,60.5938 237.8188,60.8594 237.8188,61.1563 C237.8188,61.4219 237.9594,61.6719 238.1781,61.8281 C238.3188,61.9531 238.5531,62 238.9438,62 L246.9438,62 L246.9438,59.4219 C246.9438,58.9844 246.9125,58.8438 246.8344,58.6875 C246.6625,58.4375 246.3813,58.2813 246.1,58.2813 C245.8344,58.2813 245.5688,58.3906 245.3969,58.6406 C245.2875,58.7969 245.2563,58.9375 245.2563,59.4219 L245.2563,60.2969 L240.8969,60.2969 L240.8969,57.875 Z " fill="#000000"/><text fill="#000000" font-family="sans-serif" font-size="12" lengthAdjust="spacing" textLength="32" x="257.9" y="61.1543">Color</text><line style="stroke:#A80036;stroke-width:1.5;" x1="220" x2="300" y1="73" y2="73"/><ellipse cx="230" cy="84" rx="3" ry="3" style="stroke:#038048;stroke-width:1.0;fill:none;"/><text fill="#000000" font-family="sans-serif" font-size="11" lengthAdjust="spacing" textLength="23" x="239" y="87.2104">RED</text><ellipse cx="230" cy="96.8047" rx="3" ry="3" style="stroke:#038048;stroke-width:1.0;fill:none;"/><text fill="#000000" font-family="sans-serif" font-size="11" lengthAdjust="spacing" textLength="38" x="239" y="100.0151">GREEN</text><ellipse cx="230" cy="109.6094" rx="3" ry="3" style="stroke:#038048;stroke-width:1.0;fill:none;"/><text fill="#000000" font-family="sans-serif" font-size="11" lengthAdjust="spacing" textLength="46" x="239" y="112.8198">YELLOW</text><ellipse cx="230" cy="122.4141" rx="3" ry="3" style="stroke:#038048;stroke-width:1.0;fill:none;"/><text fill="#000000" font-family="sans-serif" font-size="11" lengthAdjust="spacing" textLength="29" x="239" y="125.6245">BLUE</text><ellipse cx="230" cy="135.2188" rx="3" ry="3" style="stroke:#038048;stroke-width:1.0;fill:none;"/><text fill="#000000" font-family="sans-serif" font-size="11" lengthAdjust="spacing" textLength="56" x="239" y="138.4292">MAGENTA</text><ellipse cx="230" cy="148.0234" rx="3" ry="3" style="stroke:#038048;stroke-width:1.0;fill:none;"/><text fill="#000000" font-family="sans-serif" font-size="11" lengthAdjust="spacing" textLength="31" x="239" y="151.2339">CYAN</text><line style="stroke:#A80036;stroke-width:1.5;" x1="220" x2="300" y1="157.8281" y2="157.8281"/><!--MD5=[b8cfd8c4119a3b0a7a46bfc5fc780f85]
class Error--><rect codeLine="11" fill="#FEFECE" filter="url(#f1dsa80d7g9m4)" height="86.4141" id="Error" style="stroke:#A80036;stroke-width:1.5;" width="152" x="32" y="60.5"/><ellipse cx="88.75" cy="76.5" fill="#EB937F" rx="11" ry="11" style="stroke:#A80036;stroke-width:1.0;"/><path d="M87.5469,77.375 L89,77.375 L89,77.4844 C89,77.8906 89.0313,78.0469 89.1094,78.2031 C89.2656,78.4531 89.5469,78.6094 89.8438,78.6094 C90.0938,78.6094 90.3594,78.4688 90.5156,78.25 C90.6406,78.0938 90.6719,77.9375 90.6719,77.4844 L90.6719,75.5625 C90.6719,75.4063 90.6719,75.3594 90.6563,75.2031 C90.5938,74.7344 90.2813,74.4219 89.8281,74.4219 C89.5781,74.4219 89.3125,74.5625 89.1406,74.7813 C89.0313,74.9531 89,75.1094 89,75.5625 L89,75.6875 L87.5469,75.6875 L87.5469,73.2813 L91.5313,73.2813 L91.5313,74.1406 C91.5313,74.5469 91.5625,74.7188 91.6406,74.875 C91.8125,75.125 92.0938,75.2813 92.375,75.2813 C92.6406,75.2813 92.9063,75.1406 93.0781,74.9219 C93.1875,74.75 93.2188,74.6094 93.2188,74.1406 L93.2188,71.5938 L85.5938,71.5938 C85.1563,71.5938 85.0313,71.6094 84.875,71.7031 C84.625,71.8594 84.4688,72.1563 84.4688,72.4375 C84.4688,72.7188 84.6094,72.9688 84.8281,73.1406 C84.9844,73.25 85.1719,73.2813 85.5938,73.2813 L85.8438,73.2813 L85.8438,79.7969 L85.5938,79.7969 C85.1875,79.7969 85.0313,79.8125 84.875,79.9219 C84.625,80.0938 84.4688,80.3594 84.4688,80.6563 C84.4688,80.9219 84.6094,81.1719 84.8281,81.3281 C84.9688,81.4531 85.2031,81.5 85.5938,81.5 L93.5938,81.5 L93.5938,78.9219 C93.5938,78.4844 93.5625,78.3438 93.4844,78.1875 C93.3125,77.9375 93.0313,77.7813 92.75,77.7813 C92.4844,77.7813 92.2188,77.8906 92.0469,78.1406 C91.9375,78.2969 91.9063,78.4375 91.9063,78.9219 L91.9063,79.7969 L87.5469,79.7969 L87.5469,77.375 Z " fill="#000000"/><text fill="#000000" font-family="sans-serif" font-size="12" lengthAdjust="spacing" textLength="30" x="109.25" y="80.6543">Error</text><line style="stroke:#A80036;stroke-width:1.5;" x1="33" x2="183" y1="92.5" y2="92.5"/><ellipse cx="43" cy="103.5" rx="3" ry="3" style="stroke:#038048;stroke-width:1.0;fill:none;"/><text fill="#000000" font-family="sans-serif" font-size="11" lengthAdjust="spacing" textLength="71" x="52" y="106.7104">DUPLICATED</text><ellipse cx="43" cy="116.3047" rx="3" ry="3" style="stroke:#038048;stroke-width:1.0;fill:none;"/><text fill="#000000" font-family="sans-serif" font-size="11" lengthAdjust="spacing" textLength="126" x="52" y="119.5151">WRONG_CHARACTERS</text><ellipse cx="43" cy="129.1094" rx="3" ry="3" style="stroke:#038048;stroke-width:1.0;fill:none;"/><text fill="#000000" font-family="sans-serif" font-size="11" lengthAdjust="spacing" textLength="95" x="52" y="132.3198">WRONG_LENGTH</text><line style="stroke:#A80036;stroke-width:1.5;" x1="33" x2="183" y1="138.9141" y2="138.9141"/><!--MD5=[441858aaaa3e42f134de1a164c3cc4d6]
@startuml
package types {
    enum Color {
        + RED
        + GREEN
        + YELLOW
        + BLUE
        + MAGENTA
        + CYAN
    }

    enum Error {
        + DUPLICATED
        + WRONG_CHARACTERS
        + WRONG_LENGTH
    }
}
@enduml

PlantUML version 1.2021.4beta2(Unknown compile time)
(GPL source distribution)
Java Runtime: Java(TM) SE Runtime Environment
JVM: Java HotSpot(TM) 64-Bit Server VM
Default Encoding: UTF-8
Language: en
Country: US
--></g></svg>