<?xml version="1.0" encoding="UTF-8" standalone="no"?><svg xmlns="http://www.w3.org/2000/svg" xmlns:xlink="http://www.w3.org/1999/xlink" contentScriptType="application/ecmascript" contentStyleType="text/css" height="677px" preserveAspectRatio="none" style="width:450px;height:677px;" version="1.1" viewBox="0 0 450 677" width="450px" zoomAndPan="magnify"><defs><filter height="300%" id="f17xtw26isrudg" width="300%" x="-1" y="-1"><feGaussianBlur result="blurOut" stdDeviation="2.0"/><feColorMatrix in="blurOut" result="blurOut2" type="matrix" values="0 0 0 0 0 0 0 0 0 0 0 0 0 0 0 0 0 0 .4 0"/><feOffset dx="4.0" dy="4.0" in="blurOut2" result="blurOut3"/><feBlend in="SourceGraphic" in2="blurOut3" mode="normal"/></filter></defs><g><g id="IN_GAME"><rect fill="#FEFECE" filter="url(#f17xtw26isrudg)" height="50" rx="12.5" ry="12.5" style="stroke:#A80036;stroke-width:1.5;" width="80" x="107.0666" y="87"/><line style="stroke:#A80036;stroke-width:1.5;" x1="107.0666" x2="187.0666" y1="114.6094" y2="114.6094"/><text fill="#000000" font-family="sans-serif" font-size="14" lengthAdjust="spacing" textLength="60" x="117.0666" y="106.5332">IN_GAME</text></g><g id="ShowBoard"><rect fill="#FEFECE" filter="url(#f17xtw26isrudg)" height="50" rx="12.5" ry="12.5" style="stroke:#A80036;stroke-width:1.5;" width="95" x="99.5666" y="215"/><line style="stroke:#A80036;stroke-width:1.5;" x1="99.5666" x2="194.5666" y1="242.6094" y2="242.6094"/><text fill="#000000" font-family="sans-serif" font-size="14" lengthAdjust="spacing" textLength="75" x="109.5666" y="234.5332">Show board</text></g><g id="showed"><rect fill="#FEFECE" filter="url(#f17xtw26isrudg)" height="50" rx="12.5" ry="12.5" style="stroke:#A80036;stroke-width:1.5;" width="50" x="8.0666" y="468"/><line style="stroke:#A80036;stroke-width:1.5;" x1="8.0666" x2="58.0666" y1="495.6094" y2="495.6094"/><text fill="#000000" font-family="sans-serif" font-size="14" lengthAdjust="spacing" textLength="0" x="35.0666" y="487.5332"/></g><g id="showed1"><rect fill="#FEFECE" filter="url(#f17xtw26isrudg)" height="50" rx="12.5" ry="12.5" style="stroke:#A80036;stroke-width:1.5;" width="50" x="241.0666" y="468"/><line style="stroke:#A80036;stroke-width:1.5;" x1="241.0666" x2="291.0666" y1="495.6094" y2="495.6094"/><text fill="#000000" font-family="sans-serif" font-size="14" lengthAdjust="spacing" textLength="0" x="268.0666" y="487.5332"/></g><polygon fill="#FEFECE" filter="url(#f17xtw26isrudg)" points="147.0666,326,159.0666,338,147.0666,350,135.0666,338,147.0666,326" style="stroke:#A80036;stroke-width:1.5;"/><ellipse cx="147.0666" cy="16" fill="#000000" filter="url(#f17xtw26isrudg)" rx="10" ry="10" style="stroke:none;stroke-width:1.0;"/><ellipse cx="149.0666" cy="655" fill="none" filter="url(#f17xtw26isrudg)" rx="10" ry="10" style="stroke:#000000;stroke-width:1.0;"/><ellipse cx="149.5666" cy="655.5" fill="#000000" rx="6" ry="6" style="stroke:none;stroke-width:1.0;"/><!--MD5=[bc741243a5bb3318d84c2be45b028a19]
link *start to IN_GAME--><path d="M147.0666,26.01 C147.0666,38.7 147.0666,62.41 147.0666,81.57 " fill="none" id="*start-to-IN_GAME" style="stroke:#A80036;stroke-width:1.0;"/><polygon fill="#A80036" points="147.0666,86.84,151.0666,77.84,147.0666,81.84,143.0666,77.84,147.0666,86.84" style="stroke:#A80036;stroke-width:1.0;"/><!--MD5=[528466521dc36816aaa50ec62b2fb949]
link IN_GAME to ShowBoard--><path d="M147.0666,137.29 C147.0666,157.95 147.0666,187.67 147.0666,209.65 " fill="none" id="IN_GAME-to-ShowBoard" style="stroke:#A80036;stroke-width:1.0;"/><polygon fill="#A80036" points="147.0666,214.78,151.0666,205.78,147.0666,209.78,143.0666,205.78,147.0666,214.78" style="stroke:#A80036;stroke-width:1.0;"/><text fill="#000000" font-family="sans-serif" font-size="13" lengthAdjust="spacing" textLength="120" x="148.0666" y="181.4951">Player requests redo</text><!--MD5=[ea523093dee0eb9fd40e70dc89c9e62a]
link ShowBoard to is_undoable--><path d="M147.0666,265.22 C147.0666,282.54 147.0666,305.38 147.0666,320.59 " fill="none" id="ShowBoard-to-is_undoable" style="stroke:#A80036;stroke-width:1.0;"/><polygon fill="#A80036" points="147.0666,325.83,151.0666,316.83,147.0666,320.83,143.0666,316.83,147.0666,325.83" style="stroke:#A80036;stroke-width:1.0;"/><!--MD5=[d42e964753d91b02adc15d300614ec0c]
link is_undoable to showed--><path d="M135.7666,338.78 C110.6566,339 50.3866,343.48 24.0666,380 C6.8466,403.89 13.0666,438.54 21.0666,462.96 " fill="none" id="is_undoable-to-showed" style="stroke:#A80036;stroke-width:1.0;"/><polygon fill="#A80036" points="22.6866,467.7,23.5733,457.8911,21.0755,462.9667,16,460.4688,22.6866,467.7" style="stroke:#A80036;stroke-width:1.0;"/><text fill="#000000" font-family="sans-serif" font-size="13" lengthAdjust="spacing" textLength="57" x="104.0666" y="394.4951">[redoable]</text><path d="M29.0666,403.3516 L29.0666,429.3516 L232.0666,429.3516 L232.0666,413.3516 L222.0666,403.3516 L29.0666,403.3516 " fill="#FBFB77" filter="url(#f17xtw26isrudg)" style="stroke:#A80036;stroke-width:1.0;"/><path d="M222.0666,403.3516 L222.0666,413.3516 L232.0666,413.3516 L222.0666,403.3516 " fill="#FBFB77" style="stroke:#A80036;stroke-width:1.0;"/><text fill="#000000" font-family="sans-serif" font-size="13" lengthAdjust="spacing" textLength="182" x="35.0666" y="421.8467">undo has been made previously</text><!--MD5=[9a359a072769b55a6f2e89abb5910bb7]
link is_undoable to showed1--><path d="M157.2566,340.11 C177.4266,342.88 222.4566,352.03 245.0666,380 C263.8766,403.27 267.7966,438.13 267.8466,462.77 " fill="none" id="is_undoable-to-showed1" style="stroke:#A80036;stroke-width:1.0;"/><polygon fill="#A80036" points="267.8066,467.87,271.8836,458.9046,267.8494,462.8702,263.8838,458.836,267.8066,467.87" style="stroke:#A80036;stroke-width:1.0;"/><!--MD5=[dd7f3773ba5873d16c431d0e449212b7]
link showed to *end--><path d="M25.9166,518.37 C19.7366,544.8 14.6766,586.97 35.0666,615 C58.1566,646.74 108.6466,652.91 133.9666,653.93 " fill="none" id="showed-to-*end" style="stroke:#A80036;stroke-width:1.0;"/><polygon fill="#A80036" points="138.9666,654.08,130.0845,649.8246,133.9686,653.9372,129.856,657.8213,138.9666,654.08" style="stroke:#A80036;stroke-width:1.0;"/><text fill="#000000" font-family="sans-serif" font-size="13" lengthAdjust="spacing" textLength="137" x="60.0666" y="562.4951">System allows Propose</text><text fill="#000000" font-family="sans-serif" font-size="13" lengthAdjust="spacing" textLength="112" x="72.5666" y="578.8467">System allows Exit</text><text fill="#000000" font-family="sans-serif" font-size="13" lengthAdjust="spacing" textLength="185" x="36.0666" y="595.1982">System allows Undo if undoable</text><text fill="#000000" font-family="sans-serif" font-size="13" lengthAdjust="spacing" textLength="119" x="69.0666" y="611.5498">System allows Redo</text><!--MD5=[218f8e7e3e5022f789ab51e4409f8f73]
link showed1 to *end--><path d="M263.5966,518.03 C259.7266,544.55 250.0266,587.16 226.0666,615 C209.4166,634.35 180.8166,645.22 163.5566,650.32 " fill="none" id="showed1-to-*end" style="stroke:#A80036;stroke-width:1.0;"/><polygon fill="#A80036" points="158.5866,651.73,168.3342,653.138,163.399,650.3734,166.1637,645.4381,158.5866,651.73" style="stroke:#A80036;stroke-width:1.0;"/><text fill="#000000" font-family="sans-serif" font-size="13" lengthAdjust="spacing" textLength="137" x="281.0666" y="570.4951">System allows Propose</text><text fill="#000000" font-family="sans-serif" font-size="13" lengthAdjust="spacing" textLength="112" x="293.5666" y="586.8467">System allows Exit</text><text fill="#000000" font-family="sans-serif" font-size="13" lengthAdjust="spacing" textLength="185" x="257.0666" y="603.1982">System allows Undo if undoable</text><!--MD5=[830f797c25edc679297ad2962dba6881]
@startuml redo_usecase
state IN_GAME
state ShowBoard as "Show board"
state showed as " "
state showed1 as " "
state is_undoable <<choice>>

[*] - -> IN_GAME
IN_GAME - -> ShowBoard: Player requests redo
ShowBoard - -> is_undoable
is_undoable - -> showed: [redoable]
note on link
  undo has been made previously
end note
is_undoable - -> showed1
showed - -> [*]: System allows Propose\nSystem allows Exit\nSystem allows Undo if undoable\nSystem allows Redo
showed1 - -> [*]: System allows Propose\nSystem allows Exit\nSystem allows Undo if undoable
@enduml

PlantUML version 1.2021.00(Sun Jan 10 11:25:05 CET 2021)
(GPL source distribution)
Java Runtime: Java(TM) SE Runtime Environment
JVM: Java HotSpot(TM) 64-Bit Server VM
Default Encoding: Cp1252
Language: es
Country: ES
--></g></svg>