<?xml version="1.0" encoding="UTF-8" standalone="no"?><svg xmlns="http://www.w3.org/2000/svg" xmlns:xlink="http://www.w3.org/1999/xlink" contentScriptType="application/ecmascript" contentStyleType="text/css" height="614px" preserveAspectRatio="none" style="width:337px;height:614px;" version="1.1" viewBox="0 0 337 614" width="337px" zoomAndPan="magnify"><defs><filter height="300%" id="f1d6xlu2k689j9" width="300%" x="-1" y="-1"><feGaussianBlur result="blurOut" stdDeviation="2.0"/><feColorMatrix in="blurOut" result="blurOut2" type="matrix" values="0 0 0 0 0 0 0 0 0 0 0 0 0 0 0 0 0 0 .4 0"/><feOffset dx="4.0" dy="4.0" in="blurOut2" result="blurOut3"/><feBlend in="SourceGraphic" in2="blurOut3" mode="normal"/></filter></defs><g><g id="OUT_GAME"><rect fill="#FEFECE" filter="url(#f1d6xlu2k689j9)" height="50" rx="12.5" ry="12.5" style="stroke:#A80036;stroke-width:1.5;" width="97" x="52.55" y="87"/><line style="stroke:#A80036;stroke-width:1.5;" x1="52.55" x2="149.55" y1="114.6094" y2="114.6094"/><text fill="#000000" font-family="sans-serif" font-size="14" lengthAdjust="spacing" textLength="77" x="62.55" y="106.5332">OUT_GAME</text></g><g id="INITIAL"><rect fill="#FEFECE" filter="url(#f1d6xlu2k689j9)" height="50" rx="12.5" ry="12.5" style="stroke:#A80036;stroke-width:1.5;" width="64" x="23.05" y="471"/><line style="stroke:#A80036;stroke-width:1.5;" x1="23.05" x2="87.05" y1="498.6094" y2="498.6094"/><text fill="#000000" font-family="sans-serif" font-size="14" lengthAdjust="spacing" textLength="44" x="33.05" y="490.5332">INITIAL</text></g><g id="EXIT"><rect fill="#FEFECE" filter="url(#f1d6xlu2k689j9)" height="50" rx="12.5" ry="12.5" style="stroke:#A80036;stroke-width:1.5;" width="50" x="141.05" y="471"/><line style="stroke:#A80036;stroke-width:1.5;" x1="141.05" x2="191.05" y1="498.6094" y2="498.6094"/><text fill="#000000" font-family="sans-serif" font-size="14" lengthAdjust="spacing" textLength="29" x="151.55" y="490.5332">EXIT</text></g><g id="requested"><rect fill="#FEFECE" filter="url(#f1d6xlu2k689j9)" height="50" rx="12.5" ry="12.5" style="stroke:#A80036;stroke-width:1.5;" width="50" x="76.05" y="215"/><line style="stroke:#A80036;stroke-width:1.5;" x1="76.05" x2="126.05" y1="242.6094" y2="242.6094"/><text fill="#000000" font-family="sans-serif" font-size="14" lengthAdjust="spacing" textLength="0" x="103.05" y="234.5332"/></g><g id="allowed"><rect fill="#FEFECE" filter="url(#f1d6xlu2k689j9)" height="50" rx="12.5" ry="12.5" style="stroke:#A80036;stroke-width:1.5;" width="50" x="76.05" y="343"/><line style="stroke:#A80036;stroke-width:1.5;" x1="76.05" x2="126.05" y1="370.6094" y2="370.6094"/><text fill="#000000" font-family="sans-serif" font-size="14" lengthAdjust="spacing" textLength="0" x="103.05" y="362.5332"/></g><ellipse cx="101.05" cy="16" fill="#000000" filter="url(#f1d6xlu2k689j9)" rx="10" ry="10" style="stroke:none;stroke-width:1.0;"/><ellipse cx="100.05" cy="592" fill="none" filter="url(#f1d6xlu2k689j9)" rx="10" ry="10" style="stroke:#000000;stroke-width:1.0;"/><ellipse cx="100.55" cy="592.5" fill="#000000" rx="6" ry="6" style="stroke:none;stroke-width:1.0;"/><!--MD5=[7c19ab49203e8050f03a6b6cfb3bf521]
link *start to OUT_GAME--><path d="M101.05,26.01 C101.05,38.7 101.05,62.41 101.05,81.57 " fill="none" id="*start-to-OUT_GAME" style="stroke:#A80036;stroke-width:1.0;"/><polygon fill="#A80036" points="101.05,86.84,105.05,77.84,101.05,81.84,97.05,77.84,101.05,86.84" style="stroke:#A80036;stroke-width:1.0;"/><!--MD5=[3702387100ac199117ed8c3fc5d870aa]
link OUT_GAME to requested--><path d="M101.05,137.29 C101.05,157.95 101.05,187.67 101.05,209.65 " fill="none" id="OUT_GAME-to-requested" style="stroke:#A80036;stroke-width:1.0;"/><polygon fill="#A80036" points="101.05,214.78,105.05,205.78,101.05,209.78,97.05,205.78,101.05,214.78" style="stroke:#A80036;stroke-width:1.0;"/><text fill="#000000" font-family="sans-serif" font-size="13" lengthAdjust="spacing" textLength="227" x="102.05" y="181.4951">Player requests to resume a new game</text><!--MD5=[88d5e542042b4fb9fa98fbbb3d94e471]
link requested to allowed--><path d="M101.05,265.29 C101.05,285.95 101.05,315.67 101.05,337.65 " fill="none" id="requested-to-allowed" style="stroke:#A80036;stroke-width:1.0;"/><polygon fill="#A80036" points="101.05,342.78,105.05,333.78,101.05,337.78,97.05,333.78,101.05,342.78" style="stroke:#A80036;stroke-width:1.0;"/><text fill="#000000" font-family="sans-serif" font-size="13" lengthAdjust="spacing" textLength="167" x="102.05" y="309.4951">System requests to continue</text><!--MD5=[469a700ac71dc9686a7cd56da9bb0248]
link allowed to INITIAL--><path d="M75.74,376.96 C55.03,384.97 27.1,399.54 14.05,423 C6,437.47 13.48,453.48 24.15,466.72 " fill="none" id="allowed-to-INITIAL" style="stroke:#A80036;stroke-width:1.0;"/><polygon fill="#A80036" points="27.55,470.74,24.7885,461.2862,24.3196,466.9236,18.6823,466.4548,27.55,470.74" style="stroke:#A80036;stroke-width:1.0;"/><text fill="#000000" font-family="sans-serif" font-size="13" lengthAdjust="spacing" textLength="126" x="15.05" y="437.4951">Player introduces yes</text><!--MD5=[64982154ce498e01c580db4ab03a267f]
link allowed to EXIT--><path d="M124.97,393.21 C132.6,402.01 140.5,412.41 146.05,423 C152.97,436.19 157.7,452.02 160.82,465.48 " fill="none" id="allowed-to-EXIT" style="stroke:#A80036;stroke-width:1.0;"/><polygon fill="#A80036" points="161.98,470.7,163.9264,461.0454,160.8923,465.8197,156.118,462.7857,161.98,470.7" style="stroke:#A80036;stroke-width:1.0;"/><text fill="#000000" font-family="sans-serif" font-size="13" lengthAdjust="spacing" textLength="119" x="154.05" y="437.4951">Player introduces no</text><!--MD5=[4b0f6b3f28470aa48b147d9d0e4d860c]
link INITIAL to *end--><path d="M66.64,521.21 C75.34,539.39 86.92,563.57 93.91,578.18 " fill="none" id="INITIAL-to-*end" style="stroke:#A80036;stroke-width:1.0;"/><polygon fill="#A80036" points="96.1,582.74,95.8287,572.8949,93.9442,578.2286,88.6105,576.3441,96.1,582.74" style="stroke:#A80036;stroke-width:1.0;"/><!--MD5=[bd19b40b84bbe903342104a02ae53ed4]
link EXIT to *end--><path d="M149.06,521.21 C136.04,539.74 118.64,564.52 108.46,579.02 " fill="none" id="EXIT-to-*end" style="stroke:#A80036;stroke-width:1.0;"/><polygon fill="#A80036" points="105.55,583.17,114.0094,578.1263,108.4345,579.086,107.4749,573.5111,105.55,583.17" style="stroke:#A80036;stroke-width:1.0;"/><!--MD5=[b430fedbd96da9d4114e2b1ff12a6a16]
@startuml resume_usecase
state OUT_GAME
state INITIAL
state EXIT
state requested as " "
state allowed as " "

[*] - -> OUT_GAME
OUT_GAME - -> requested: Player requests to resume a new game
requested - -> allowed: System requests to continue
allowed - -> INITIAL: Player introduces yes
allowed - -> EXIT: Player introduces no
INITIAL - -> [*]
EXIT - -> [*]
@enduml

PlantUML version 1.2021.00(Sun Jan 10 11:25:05 CET 2021)
(GPL source distribution)
Java Runtime: Java(TM) SE Runtime Environment
JVM: Java HotSpot(TM) 64-Bit Server VM
Default Encoding: Cp1252
Language: es
Country: ES
--></g></svg>