<?xml version="1.0" encoding="UTF-8" standalone="no"?><svg xmlns="http://www.w3.org/2000/svg" xmlns:xlink="http://www.w3.org/1999/xlink" contentScriptType="application/ecmascript" contentStyleType="text/css" height="677px" preserveAspectRatio="none" style="width:432px;height:677px;" version="1.1" viewBox="0 0 432 677" width="432px" zoomAndPan="magnify"><defs><filter height="300%" id="fdcnd9q0f3d7j" width="300%" x="-1" y="-1"><feGaussianBlur result="blurOut" stdDeviation="2.0"/><feColorMatrix in="blurOut" result="blurOut2" type="matrix" values="0 0 0 0 0 0 0 0 0 0 0 0 0 0 0 0 0 0 .4 0"/><feOffset dx="4.0" dy="4.0" in="blurOut2" result="blurOut3"/><feBlend in="SourceGraphic" in2="blurOut3" mode="normal"/></filter></defs><g><g id="IN_GAME"><rect fill="#FEFECE" filter="url(#fdcnd9q0f3d7j)" height="50" rx="12.5" ry="12.5" style="stroke:#A80036;stroke-width:1.5;" width="80" x="124.66" y="87"/><line style="stroke:#A80036;stroke-width:1.5;" x1="124.66" x2="204.66" y1="114.6094" y2="114.6094"/><text fill="#000000" font-family="sans-serif" font-size="14" lengthAdjust="spacing" textLength="60" x="134.66" y="106.5332">IN_GAME</text></g><g id="ShowBoard"><rect fill="#FEFECE" filter="url(#fdcnd9q0f3d7j)" height="50" rx="12.5" ry="12.5" style="stroke:#A80036;stroke-width:1.5;" width="95" x="117.16" y="215"/><line style="stroke:#A80036;stroke-width:1.5;" x1="117.16" x2="212.16" y1="242.6094" y2="242.6094"/><text fill="#000000" font-family="sans-serif" font-size="14" lengthAdjust="spacing" textLength="75" x="127.16" y="234.5332">Show board</text></g><g id="showed"><rect fill="#FEFECE" filter="url(#fdcnd9q0f3d7j)" height="50" rx="12.5" ry="12.5" style="stroke:#A80036;stroke-width:1.5;" width="50" x="27.66" y="468"/><line style="stroke:#A80036;stroke-width:1.5;" x1="27.66" x2="77.66" y1="495.6094" y2="495.6094"/><text fill="#000000" font-family="sans-serif" font-size="14" lengthAdjust="spacing" textLength="0" x="54.66" y="487.5332"/></g><g id="showed1"><rect fill="#FEFECE" filter="url(#fdcnd9q0f3d7j)" height="50" rx="12.5" ry="12.5" style="stroke:#A80036;stroke-width:1.5;" width="50" x="222.66" y="468"/><line style="stroke:#A80036;stroke-width:1.5;" x1="222.66" x2="272.66" y1="495.6094" y2="495.6094"/><text fill="#000000" font-family="sans-serif" font-size="14" lengthAdjust="spacing" textLength="0" x="249.66" y="487.5332"/></g><polygon fill="#FEFECE" filter="url(#fdcnd9q0f3d7j)" points="164.66,326,176.66,338,164.66,350,152.66,338,164.66,326" style="stroke:#A80036;stroke-width:1.5;"/><ellipse cx="164.66" cy="16" fill="#000000" filter="url(#fdcnd9q0f3d7j)" rx="10" ry="10" style="stroke:none;stroke-width:1.0;"/><ellipse cx="141.66" cy="655" fill="none" filter="url(#fdcnd9q0f3d7j)" rx="10" ry="10" style="stroke:#000000;stroke-width:1.0;"/><ellipse cx="142.16" cy="655.5" fill="#000000" rx="6" ry="6" style="stroke:none;stroke-width:1.0;"/><!--MD5=[bc741243a5bb3318d84c2be45b028a19]
link *start to IN_GAME--><path d="M164.66,26.01 C164.66,38.7 164.66,62.41 164.66,81.57 " fill="none" id="*start-to-IN_GAME" style="stroke:#A80036;stroke-width:1.0;"/><polygon fill="#A80036" points="164.66,86.84,168.66,77.84,164.66,81.84,160.66,77.84,164.66,86.84" style="stroke:#A80036;stroke-width:1.0;"/><!--MD5=[528466521dc36816aaa50ec62b2fb949]
link IN_GAME to ShowBoard--><path d="M164.66,137.29 C164.66,157.95 164.66,187.67 164.66,209.65 " fill="none" id="IN_GAME-to-ShowBoard" style="stroke:#A80036;stroke-width:1.0;"/><polygon fill="#A80036" points="164.66,214.78,168.66,205.78,164.66,209.78,160.66,205.78,164.66,214.78" style="stroke:#A80036;stroke-width:1.0;"/><text fill="#000000" font-family="sans-serif" font-size="13" lengthAdjust="spacing" textLength="123" x="165.66" y="181.4951">Player requests undo</text><!--MD5=[ea523093dee0eb9fd40e70dc89c9e62a]
link ShowBoard to is_undoable--><path d="M164.66,265.22 C164.66,282.54 164.66,305.38 164.66,320.59 " fill="none" id="ShowBoard-to-is_undoable" style="stroke:#A80036;stroke-width:1.0;"/><polygon fill="#A80036" points="164.66,325.83,168.66,316.83,164.66,320.83,160.66,316.83,164.66,325.83" style="stroke:#A80036;stroke-width:1.0;"/><!--MD5=[d42e964753d91b02adc15d300614ec0c]
link is_undoable to showed--><path d="M156.49,342 C142.59,347.49 114.21,360.42 97.66,380 C77.32,404.05 65.35,438.47 58.94,462.79 " fill="none" id="is_undoable-to-showed" style="stroke:#A80036;stroke-width:1.0;"/><polygon fill="#A80036" points="57.65,467.82,63.7562,460.0925,58.8895,462.9761,56.0059,458.1093,57.65,467.82" style="stroke:#A80036;stroke-width:1.0;"/><text fill="#000000" font-family="sans-serif" font-size="13" lengthAdjust="spacing" textLength="60" x="122.16" y="394.4951">[undoable]</text><path d="M102.66,403.3516 L102.66,429.3516 L197.66,429.3516 L197.66,413.3516 L187.66,403.3516 L102.66,403.3516 " fill="#FBFB77" filter="url(#fdcnd9q0f3d7j)" style="stroke:#A80036;stroke-width:1.0;"/><path d="M187.66,403.3516 L187.66,413.3516 L197.66,413.3516 L187.66,403.3516 " fill="#FBFB77" style="stroke:#A80036;stroke-width:1.0;"/><text fill="#000000" font-family="sans-serif" font-size="13" lengthAdjust="spacing" textLength="74" x="108.66" y="421.8467">attempts &gt; 0</text><!--MD5=[9a359a072769b55a6f2e89abb5910bb7]
link is_undoable to showed1--><path d="M171.95,343.03 C182.86,349.43 203.37,362.97 214.66,380 C231.39,405.24 239.83,439.16 243.96,463.03 " fill="none" id="is_undoable-to-showed1" style="stroke:#A80036;stroke-width:1.0;"/><polygon fill="#A80036" points="244.78,467.97,247.2639,458.4395,243.9673,463.0365,239.3703,459.7399,244.78,467.97" style="stroke:#A80036;stroke-width:1.0;"/><!--MD5=[dd7f3773ba5873d16c431d0e449212b7]
link showed to *end--><path d="M37.31,518.08 C22.78,544.25 6,586.19 26.66,615 C49.71,647.15 100.76,653.12 126.37,654.02 " fill="none" id="showed-to-*end" style="stroke:#A80036;stroke-width:1.0;"/><polygon fill="#A80036" points="131.43,654.14,122.5358,649.91,126.4317,654.0115,122.3302,657.9073,131.43,654.14" style="stroke:#A80036;stroke-width:1.0;"/><text fill="#000000" font-family="sans-serif" font-size="13" lengthAdjust="spacing" textLength="137" x="50.16" y="562.4951">System allows Propose</text><text fill="#000000" font-family="sans-serif" font-size="13" lengthAdjust="spacing" textLength="112" x="62.66" y="578.8467">System allows Exit</text><text fill="#000000" font-family="sans-serif" font-size="13" lengthAdjust="spacing" textLength="119" x="59.16" y="595.1982">System allows Undo</text><text fill="#000000" font-family="sans-serif" font-size="13" lengthAdjust="spacing" textLength="182" x="27.66" y="611.5498">System allows Redo if redoable</text><!--MD5=[218f8e7e3e5022f789ab51e4409f8f73]
link showed1 to *end--><path d="M246.6,518.35 C244.29,544.76 237.06,586.91 214.66,615 C199.56,633.94 172.69,644.84 156.1,650.09 " fill="none" id="showed1-to-*end" style="stroke:#A80036;stroke-width:1.0;"/><polygon fill="#A80036" points="151.31,651.53,161.0815,652.7618,156.0972,650.0867,158.7723,645.1023,151.31,651.53" style="stroke:#A80036;stroke-width:1.0;"/><text fill="#000000" font-family="sans-serif" font-size="13" lengthAdjust="spacing" textLength="137" x="265.16" y="570.4951">System allows Propose</text><text fill="#000000" font-family="sans-serif" font-size="13" lengthAdjust="spacing" textLength="112" x="277.66" y="586.8467">System allows Exit</text><text fill="#000000" font-family="sans-serif" font-size="13" lengthAdjust="spacing" textLength="182" x="242.66" y="603.1982">System allows Redo if redoable</text><!--MD5=[1cff3cbac34074c1d314e6e351e4a267]
@startuml undo_usecase
state IN_GAME
state ShowBoard as "Show board"
state showed as " "
state showed1 as " "
state is_undoable <<choice>>

[*] - -> IN_GAME
IN_GAME - -> ShowBoard: Player requests undo
ShowBoard - -> is_undoable
is_undoable - -> showed: [undoable]
note on link
  attempts > 0
end note
is_undoable - -> showed1
showed - -> [*]: System allows Propose\nSystem allows Exit\nSystem allows Undo\nSystem allows Redo if redoable
showed1 - -> [*]: System allows Propose\nSystem allows Exit\nSystem allows Redo if redoable
@enduml

PlantUML version 1.2021.00(Sun Jan 10 11:25:05 CET 2021)
(GPL source distribution)
Java Runtime: Java(TM) SE Runtime Environment
JVM: Java HotSpot(TM) 64-Bit Server VM
Default Encoding: Cp1252
Language: es
Country: ES
--></g></svg>