<?xml version="1.0" encoding="UTF-8" standalone="no"?><svg xmlns="http://www.w3.org/2000/svg" xmlns:xlink="http://www.w3.org/1999/xlink" contentScriptType="application/ecmascript" contentStyleType="text/css" height="581px" preserveAspectRatio="none" style="width:2363px;height:581px;" version="1.1" viewBox="0 0 2363 581" width="2363px" zoomAndPan="magnify"><defs><filter height="300%" id="fesbowkj80e7o" width="300%" x="-1" y="-1"><feGaussianBlur result="blurOut" stdDeviation="2.0"/><feColorMatrix in="blurOut" result="blurOut2" type="matrix" values="0 0 0 0 0 0 0 0 0 0 0 0 0 0 0 0 0 0 .4 0"/><feOffset dx="4.0" dy="4.0" in="blurOut2" result="blurOut3"/><feBlend in="SourceGraphic" in2="blurOut3" mode="normal"/></filter></defs><g><!--MD5=[e2a75efa8a0f57c2afae8bf75386f79c]
cluster views--><polygon fill="#FFFFFF" filter="url(#fesbowkj80e7o)" points="16,6,67,6,74,28.2969,795,28.2969,795,574,16,574,16,6" style="stroke:#000000;stroke-width:1.5;"/><line style="stroke:#000000;stroke-width:1.5;" x1="16" x2="74" y1="28.2969" y2="28.2969"/><text fill="#000000" font-family="sans-serif" font-size="14" font-weight="bold" lengthAdjust="spacing" textLength="45" x="20" y="20.9951">views</text><!--MD5=[f4e70ef68289585296b9045165e58692]
cluster controllers--><polygon fill="#FFFFFF" filter="url(#fesbowkj80e7o)" points="835,121,930,121,937,143.2969,1715,143.2969,1715,466,835,466,835,121" style="stroke:#000000;stroke-width:1.5;"/><line style="stroke:#000000;stroke-width:1.5;" x1="835" x2="937" y1="143.2969" y2="143.2969"/><text fill="#000000" font-family="sans-serif" font-size="14" font-weight="bold" lengthAdjust="spacing" textLength="89" x="839" y="135.9951">controllers</text><!--MD5=[a60570e4b426f702ccbb0d459e3b9417]
cluster models--><polygon fill="#FFFFFF" filter="url(#fesbowkj80e7o)" points="1755,236,1819,236,1826,258.2969,2078,258.2969,2078,574,1755,574,1755,236" style="stroke:#000000;stroke-width:1.5;"/><line style="stroke:#000000;stroke-width:1.5;" x1="1755" x2="1826" y1="258.2969" y2="258.2969"/><text fill="#000000" font-family="sans-serif" font-size="14" font-weight="bold" lengthAdjust="spacing" textLength="58" x="1759" y="250.9951">models</text><!--MD5=[67cd15ce44b6dd54f77054b62c31bf42]
cluster types--><polygon fill="#FFFFFF" filter="url(#fesbowkj80e7o)" points="2118,351,2169,351,2176,373.2969,2346,373.2969,2346,466,2118,466,2118,351" style="stroke:#000000;stroke-width:1.5;"/><line style="stroke:#000000;stroke-width:1.5;" x1="2118" x2="2176" y1="373.2969" y2="373.2969"/><text fill="#000000" font-family="sans-serif" font-size="14" font-weight="bold" lengthAdjust="spacing" textLength="45" x="2122" y="365.9951">types</text><!--MD5=[af194e474b2c37e443a340884399de77]
class PlayerView--><rect codeLine="2" fill="#FEFECE" filter="url(#fesbowkj80e7o)" height="48" id="PlayerView" style="stroke:#A80036;stroke-width:1.5;" width="97" x="438.5" y="49"/><ellipse cx="453.5" cy="65" fill="#ADD1B2" rx="11" ry="11" style="stroke:#A80036;stroke-width:1.0;"/><path d="M455.8438,60.6719 C454.9063,60.2344 454.3125,60.0938 453.4375,60.0938 C450.8125,60.0938 448.8125,62.1719 448.8125,64.8906 L448.8125,66.0156 C448.8125,68.5938 450.9219,70.4844 453.8125,70.4844 C455.0313,70.4844 456.1875,70.1875 456.9375,69.6406 C457.5156,69.2344 457.8438,68.7813 457.8438,68.3906 C457.8438,67.9375 457.4531,67.5469 456.9844,67.5469 C456.7656,67.5469 456.5625,67.625 456.375,67.8125 C455.9219,68.2969 455.9219,68.2969 455.7344,68.3906 C455.3125,68.6563 454.625,68.7813 453.8594,68.7813 C451.8125,68.7813 450.5156,67.6875 450.5156,65.9844 L450.5156,64.8906 C450.5156,63.1094 451.7656,61.7969 453.5,61.7969 C454.0781,61.7969 454.6875,61.9531 455.1563,62.2031 C455.6406,62.4844 455.8125,62.7031 455.9063,63.1094 C455.9688,63.5156 456,63.6406 456.1406,63.7656 C456.2813,63.9063 456.5156,64.0156 456.7344,64.0156 C457,64.0156 457.2656,63.875 457.4375,63.6563 C457.5469,63.5 457.5781,63.3125 457.5781,62.8906 L457.5781,61.4688 C457.5781,61.0313 457.5625,60.9063 457.4688,60.75 C457.3125,60.4844 457.0313,60.3438 456.7344,60.3438 C456.4375,60.3438 456.2344,60.4375 456.0156,60.75 L455.8438,60.6719 Z " fill="#000000"/><text fill="#000000" font-family="sans-serif" font-size="12" lengthAdjust="spacing" textLength="65" x="467.5" y="69.1543">PlayerView</text><line style="stroke:#A80036;stroke-width:1.5;" x1="439.5" x2="534.5" y1="81" y2="81"/><line style="stroke:#A80036;stroke-width:1.5;" x1="439.5" x2="534.5" y1="89" y2="89"/><!--MD5=[443c52daef265809fdf31be84fc8ae4a]
class StartView--><rect codeLine="3" fill="#FEFECE" filter="url(#fesbowkj80e7o)" height="48" id="StartView" style="stroke:#A80036;stroke-width:1.5;" width="89" x="442.5" y="164"/><ellipse cx="457.5" cy="180" fill="#ADD1B2" rx="11" ry="11" style="stroke:#A80036;stroke-width:1.0;"/><path d="M459.8438,175.6719 C458.9063,175.2344 458.3125,175.0938 457.4375,175.0938 C454.8125,175.0938 452.8125,177.1719 452.8125,179.8906 L452.8125,181.0156 C452.8125,183.5938 454.9219,185.4844 457.8125,185.4844 C459.0313,185.4844 460.1875,185.1875 460.9375,184.6406 C461.5156,184.2344 461.8438,183.7813 461.8438,183.3906 C461.8438,182.9375 461.4531,182.5469 460.9844,182.5469 C460.7656,182.5469 460.5625,182.625 460.375,182.8125 C459.9219,183.2969 459.9219,183.2969 459.7344,183.3906 C459.3125,183.6563 458.625,183.7813 457.8594,183.7813 C455.8125,183.7813 454.5156,182.6875 454.5156,180.9844 L454.5156,179.8906 C454.5156,178.1094 455.7656,176.7969 457.5,176.7969 C458.0781,176.7969 458.6875,176.9531 459.1563,177.2031 C459.6406,177.4844 459.8125,177.7031 459.9063,178.1094 C459.9688,178.5156 460,178.6406 460.1406,178.7656 C460.2813,178.9063 460.5156,179.0156 460.7344,179.0156 C461,179.0156 461.2656,178.875 461.4375,178.6563 C461.5469,178.5 461.5781,178.3125 461.5781,177.8906 L461.5781,176.4688 C461.5781,176.0313 461.5625,175.9063 461.4688,175.75 C461.3125,175.4844 461.0313,175.3438 460.7344,175.3438 C460.4375,175.3438 460.2344,175.4375 460.0156,175.75 L459.8438,175.6719 Z " fill="#000000"/><text fill="#000000" font-family="sans-serif" font-size="12" lengthAdjust="spacing" textLength="57" x="471.5" y="184.1543">StartView</text><line style="stroke:#A80036;stroke-width:1.5;" x1="443.5" x2="530.5" y1="196" y2="196"/><line style="stroke:#A80036;stroke-width:1.5;" x1="443.5" x2="530.5" y1="204" y2="204"/><!--MD5=[af548d7eeba3607a103157b84173e841]
class ProposeView--><rect codeLine="4" fill="#FEFECE" filter="url(#fesbowkj80e7o)" height="48" id="ProposeView" style="stroke:#A80036;stroke-width:1.5;" width="111" x="279.5" y="164"/><ellipse cx="294.5" cy="180" fill="#ADD1B2" rx="11" ry="11" style="stroke:#A80036;stroke-width:1.0;"/><path d="M296.8438,175.6719 C295.9063,175.2344 295.3125,175.0938 294.4375,175.0938 C291.8125,175.0938 289.8125,177.1719 289.8125,179.8906 L289.8125,181.0156 C289.8125,183.5938 291.9219,185.4844 294.8125,185.4844 C296.0313,185.4844 297.1875,185.1875 297.9375,184.6406 C298.5156,184.2344 298.8438,183.7813 298.8438,183.3906 C298.8438,182.9375 298.4531,182.5469 297.9844,182.5469 C297.7656,182.5469 297.5625,182.625 297.375,182.8125 C296.9219,183.2969 296.9219,183.2969 296.7344,183.3906 C296.3125,183.6563 295.625,183.7813 294.8594,183.7813 C292.8125,183.7813 291.5156,182.6875 291.5156,180.9844 L291.5156,179.8906 C291.5156,178.1094 292.7656,176.7969 294.5,176.7969 C295.0781,176.7969 295.6875,176.9531 296.1563,177.2031 C296.6406,177.4844 296.8125,177.7031 296.9063,178.1094 C296.9688,178.5156 297,178.6406 297.1406,178.7656 C297.2813,178.9063 297.5156,179.0156 297.7344,179.0156 C298,179.0156 298.2656,178.875 298.4375,178.6563 C298.5469,178.5 298.5781,178.3125 298.5781,177.8906 L298.5781,176.4688 C298.5781,176.0313 298.5625,175.9063 298.4688,175.75 C298.3125,175.4844 298.0313,175.3438 297.7344,175.3438 C297.4375,175.3438 297.2344,175.4375 297.0156,175.75 L296.8438,175.6719 Z " fill="#000000"/><text fill="#000000" font-family="sans-serif" font-size="12" lengthAdjust="spacing" textLength="79" x="308.5" y="184.1543">ProposeView</text><line style="stroke:#A80036;stroke-width:1.5;" x1="280.5" x2="389.5" y1="196" y2="196"/><line style="stroke:#A80036;stroke-width:1.5;" x1="280.5" x2="389.5" y1="204" y2="204"/><!--MD5=[19088a99a8c1f36e582d33ac2f8fc6dd]
class ResumeView--><rect codeLine="5" fill="#FEFECE" filter="url(#fesbowkj80e7o)" height="48" id="ResumeView" style="stroke:#A80036;stroke-width:1.5;" width="109" x="653.5" y="279"/><ellipse cx="668.5" cy="295" fill="#ADD1B2" rx="11" ry="11" style="stroke:#A80036;stroke-width:1.0;"/><path d="M670.8438,290.6719 C669.9063,290.2344 669.3125,290.0938 668.4375,290.0938 C665.8125,290.0938 663.8125,292.1719 663.8125,294.8906 L663.8125,296.0156 C663.8125,298.5938 665.9219,300.4844 668.8125,300.4844 C670.0313,300.4844 671.1875,300.1875 671.9375,299.6406 C672.5156,299.2344 672.8438,298.7813 672.8438,298.3906 C672.8438,297.9375 672.4531,297.5469 671.9844,297.5469 C671.7656,297.5469 671.5625,297.625 671.375,297.8125 C670.9219,298.2969 670.9219,298.2969 670.7344,298.3906 C670.3125,298.6563 669.625,298.7813 668.8594,298.7813 C666.8125,298.7813 665.5156,297.6875 665.5156,295.9844 L665.5156,294.8906 C665.5156,293.1094 666.7656,291.7969 668.5,291.7969 C669.0781,291.7969 669.6875,291.9531 670.1563,292.2031 C670.6406,292.4844 670.8125,292.7031 670.9063,293.1094 C670.9688,293.5156 671,293.6406 671.1406,293.7656 C671.2813,293.9063 671.5156,294.0156 671.7344,294.0156 C672,294.0156 672.2656,293.875 672.4375,293.6563 C672.5469,293.5 672.5781,293.3125 672.5781,292.8906 L672.5781,291.4688 C672.5781,291.0313 672.5625,290.9063 672.4688,290.75 C672.3125,290.4844 672.0313,290.3438 671.7344,290.3438 C671.4375,290.3438 671.2344,290.4375 671.0156,290.75 L670.8438,290.6719 Z " fill="#000000"/><text fill="#000000" font-family="sans-serif" font-size="12" lengthAdjust="spacing" textLength="77" x="682.5" y="299.1543">ResumeView</text><line style="stroke:#A80036;stroke-width:1.5;" x1="654.5" x2="761.5" y1="311" y2="311"/><line style="stroke:#A80036;stroke-width:1.5;" x1="654.5" x2="761.5" y1="319" y2="319"/><!--MD5=[9b237e88d697a058bd530d6510c96c00]
class BoardView--><rect codeLine="6" fill="#FEFECE" filter="url(#fesbowkj80e7o)" height="48" id="BoardView" style="stroke:#A80036;stroke-width:1.5;" width="97" x="401.5" y="279"/><ellipse cx="416.5" cy="295" fill="#ADD1B2" rx="11" ry="11" style="stroke:#A80036;stroke-width:1.0;"/><path d="M418.8438,290.6719 C417.9063,290.2344 417.3125,290.0938 416.4375,290.0938 C413.8125,290.0938 411.8125,292.1719 411.8125,294.8906 L411.8125,296.0156 C411.8125,298.5938 413.9219,300.4844 416.8125,300.4844 C418.0313,300.4844 419.1875,300.1875 419.9375,299.6406 C420.5156,299.2344 420.8438,298.7813 420.8438,298.3906 C420.8438,297.9375 420.4531,297.5469 419.9844,297.5469 C419.7656,297.5469 419.5625,297.625 419.375,297.8125 C418.9219,298.2969 418.9219,298.2969 418.7344,298.3906 C418.3125,298.6563 417.625,298.7813 416.8594,298.7813 C414.8125,298.7813 413.5156,297.6875 413.5156,295.9844 L413.5156,294.8906 C413.5156,293.1094 414.7656,291.7969 416.5,291.7969 C417.0781,291.7969 417.6875,291.9531 418.1563,292.2031 C418.6406,292.4844 418.8125,292.7031 418.9063,293.1094 C418.9688,293.5156 419,293.6406 419.1406,293.7656 C419.2813,293.9063 419.5156,294.0156 419.7344,294.0156 C420,294.0156 420.2656,293.875 420.4375,293.6563 C420.5469,293.5 420.5781,293.3125 420.5781,292.8906 L420.5781,291.4688 C420.5781,291.0313 420.5625,290.9063 420.4688,290.75 C420.3125,290.4844 420.0313,290.3438 419.7344,290.3438 C419.4375,290.3438 419.2344,290.4375 419.0156,290.75 L418.8438,290.6719 Z " fill="#000000"/><text fill="#000000" font-family="sans-serif" font-size="12" lengthAdjust="spacing" textLength="65" x="430.5" y="299.1543">BoardView</text><line style="stroke:#A80036;stroke-width:1.5;" x1="402.5" x2="497.5" y1="311" y2="311"/><line style="stroke:#A80036;stroke-width:1.5;" x1="402.5" x2="497.5" y1="319" y2="319"/><!--MD5=[0523615cfa2fa70c8ab764401f29a299]
class ProposedCombinationView--><rect codeLine="7" fill="#FEFECE" filter="url(#fesbowkj80e7o)" height="48" id="ProposedCombinationView" style="stroke:#A80036;stroke-width:1.5;" width="193" x="40.5" y="394"/><ellipse cx="55.5" cy="410" fill="#ADD1B2" rx="11" ry="11" style="stroke:#A80036;stroke-width:1.0;"/><path d="M57.8438,405.6719 C56.9063,405.2344 56.3125,405.0938 55.4375,405.0938 C52.8125,405.0938 50.8125,407.1719 50.8125,409.8906 L50.8125,411.0156 C50.8125,413.5938 52.9219,415.4844 55.8125,415.4844 C57.0313,415.4844 58.1875,415.1875 58.9375,414.6406 C59.5156,414.2344 59.8438,413.7813 59.8438,413.3906 C59.8438,412.9375 59.4531,412.5469 58.9844,412.5469 C58.7656,412.5469 58.5625,412.625 58.375,412.8125 C57.9219,413.2969 57.9219,413.2969 57.7344,413.3906 C57.3125,413.6563 56.625,413.7813 55.8594,413.7813 C53.8125,413.7813 52.5156,412.6875 52.5156,410.9844 L52.5156,409.8906 C52.5156,408.1094 53.7656,406.7969 55.5,406.7969 C56.0781,406.7969 56.6875,406.9531 57.1563,407.2031 C57.6406,407.4844 57.8125,407.7031 57.9063,408.1094 C57.9688,408.5156 58,408.6406 58.1406,408.7656 C58.2813,408.9063 58.5156,409.0156 58.7344,409.0156 C59,409.0156 59.2656,408.875 59.4375,408.6563 C59.5469,408.5 59.5781,408.3125 59.5781,407.8906 L59.5781,406.4688 C59.5781,406.0313 59.5625,405.9063 59.4688,405.75 C59.3125,405.4844 59.0313,405.3438 58.7344,405.3438 C58.4375,405.3438 58.2344,405.4375 58.0156,405.75 L57.8438,405.6719 Z " fill="#000000"/><text fill="#000000" font-family="sans-serif" font-size="12" lengthAdjust="spacing" textLength="161" x="69.5" y="414.1543">ProposedCombinationView</text><line style="stroke:#A80036;stroke-width:1.5;" x1="41.5" x2="232.5" y1="426" y2="426"/><line style="stroke:#A80036;stroke-width:1.5;" x1="41.5" x2="232.5" y1="434" y2="434"/><!--MD5=[94936c1138d9bd95716606726ba703b1]
class SecretCombinationView--><rect codeLine="8" fill="#FEFECE" filter="url(#fesbowkj80e7o)" height="48" id="SecretCombinationView" style="stroke:#A80036;stroke-width:1.5;" width="175" x="513.5" y="394"/><ellipse cx="528.5" cy="410" fill="#ADD1B2" rx="11" ry="11" style="stroke:#A80036;stroke-width:1.0;"/><path d="M530.8438,405.6719 C529.9063,405.2344 529.3125,405.0938 528.4375,405.0938 C525.8125,405.0938 523.8125,407.1719 523.8125,409.8906 L523.8125,411.0156 C523.8125,413.5938 525.9219,415.4844 528.8125,415.4844 C530.0313,415.4844 531.1875,415.1875 531.9375,414.6406 C532.5156,414.2344 532.8438,413.7813 532.8438,413.3906 C532.8438,412.9375 532.4531,412.5469 531.9844,412.5469 C531.7656,412.5469 531.5625,412.625 531.375,412.8125 C530.9219,413.2969 530.9219,413.2969 530.7344,413.3906 C530.3125,413.6563 529.625,413.7813 528.8594,413.7813 C526.8125,413.7813 525.5156,412.6875 525.5156,410.9844 L525.5156,409.8906 C525.5156,408.1094 526.7656,406.7969 528.5,406.7969 C529.0781,406.7969 529.6875,406.9531 530.1563,407.2031 C530.6406,407.4844 530.8125,407.7031 530.9063,408.1094 C530.9688,408.5156 531,408.6406 531.1406,408.7656 C531.2813,408.9063 531.5156,409.0156 531.7344,409.0156 C532,409.0156 532.2656,408.875 532.4375,408.6563 C532.5469,408.5 532.5781,408.3125 532.5781,407.8906 L532.5781,406.4688 C532.5781,406.0313 532.5625,405.9063 532.4688,405.75 C532.3125,405.4844 532.0313,405.3438 531.7344,405.3438 C531.4375,405.3438 531.2344,405.4375 531.0156,405.75 L530.8438,405.6719 Z " fill="#000000"/><text fill="#000000" font-family="sans-serif" font-size="12" lengthAdjust="spacing" textLength="143" x="542.5" y="414.1543">SecretCombinationView</text><line style="stroke:#A80036;stroke-width:1.5;" x1="514.5" x2="687.5" y1="426" y2="426"/><line style="stroke:#A80036;stroke-width:1.5;" x1="514.5" x2="687.5" y1="434" y2="434"/><!--MD5=[a40873b740e53ca026148d30ccb3c321]
class ResultView--><rect codeLine="9" fill="#FEFECE" filter="url(#fesbowkj80e7o)" height="48" id="ResultView" style="stroke:#A80036;stroke-width:1.5;" width="97" x="343.5" y="394"/><ellipse cx="358.5" cy="410" fill="#ADD1B2" rx="11" ry="11" style="stroke:#A80036;stroke-width:1.0;"/><path d="M360.8438,405.6719 C359.9063,405.2344 359.3125,405.0938 358.4375,405.0938 C355.8125,405.0938 353.8125,407.1719 353.8125,409.8906 L353.8125,411.0156 C353.8125,413.5938 355.9219,415.4844 358.8125,415.4844 C360.0313,415.4844 361.1875,415.1875 361.9375,414.6406 C362.5156,414.2344 362.8438,413.7813 362.8438,413.3906 C362.8438,412.9375 362.4531,412.5469 361.9844,412.5469 C361.7656,412.5469 361.5625,412.625 361.375,412.8125 C360.9219,413.2969 360.9219,413.2969 360.7344,413.3906 C360.3125,413.6563 359.625,413.7813 358.8594,413.7813 C356.8125,413.7813 355.5156,412.6875 355.5156,410.9844 L355.5156,409.8906 C355.5156,408.1094 356.7656,406.7969 358.5,406.7969 C359.0781,406.7969 359.6875,406.9531 360.1563,407.2031 C360.6406,407.4844 360.8125,407.7031 360.9063,408.1094 C360.9688,408.5156 361,408.6406 361.1406,408.7656 C361.2813,408.9063 361.5156,409.0156 361.7344,409.0156 C362,409.0156 362.2656,408.875 362.4375,408.6563 C362.5469,408.5 362.5781,408.3125 362.5781,407.8906 L362.5781,406.4688 C362.5781,406.0313 362.5625,405.9063 362.4688,405.75 C362.3125,405.4844 362.0313,405.3438 361.7344,405.3438 C361.4375,405.3438 361.2344,405.4375 361.0156,405.75 L360.8438,405.6719 Z " fill="#000000"/><text fill="#000000" font-family="sans-serif" font-size="12" lengthAdjust="spacing" textLength="65" x="372.5" y="414.1543">ResultView</text><line style="stroke:#A80036;stroke-width:1.5;" x1="344.5" x2="439.5" y1="426" y2="426"/><line style="stroke:#A80036;stroke-width:1.5;" x1="344.5" x2="439.5" y1="434" y2="434"/><!--MD5=[5c0d2bf114541dffca76af5edd55a1b5]
class ColorView--><rect codeLine="10" fill="#FEFECE" filter="url(#fesbowkj80e7o)" height="48" id="ColorView" style="stroke:#A80036;stroke-width:1.5;" width="93" x="65.5" y="502"/><ellipse cx="80.5" cy="518" fill="#ADD1B2" rx="11" ry="11" style="stroke:#A80036;stroke-width:1.0;"/><path d="M82.8438,513.6719 C81.9063,513.2344 81.3125,513.0938 80.4375,513.0938 C77.8125,513.0938 75.8125,515.1719 75.8125,517.8906 L75.8125,519.0156 C75.8125,521.5938 77.9219,523.4844 80.8125,523.4844 C82.0313,523.4844 83.1875,523.1875 83.9375,522.6406 C84.5156,522.2344 84.8438,521.7813 84.8438,521.3906 C84.8438,520.9375 84.4531,520.5469 83.9844,520.5469 C83.7656,520.5469 83.5625,520.625 83.375,520.8125 C82.9219,521.2969 82.9219,521.2969 82.7344,521.3906 C82.3125,521.6563 81.625,521.7813 80.8594,521.7813 C78.8125,521.7813 77.5156,520.6875 77.5156,518.9844 L77.5156,517.8906 C77.5156,516.1094 78.7656,514.7969 80.5,514.7969 C81.0781,514.7969 81.6875,514.9531 82.1563,515.2031 C82.6406,515.4844 82.8125,515.7031 82.9063,516.1094 C82.9688,516.5156 83,516.6406 83.1406,516.7656 C83.2813,516.9063 83.5156,517.0156 83.7344,517.0156 C84,517.0156 84.2656,516.875 84.4375,516.6563 C84.5469,516.5 84.5781,516.3125 84.5781,515.8906 L84.5781,514.4688 C84.5781,514.0313 84.5625,513.9063 84.4688,513.75 C84.3125,513.4844 84.0313,513.3438 83.7344,513.3438 C83.4375,513.3438 83.2344,513.4375 83.0156,513.75 L82.8438,513.6719 Z " fill="#000000"/><text fill="#000000" font-family="sans-serif" font-size="12" lengthAdjust="spacing" textLength="61" x="94.5" y="522.1543">ColorView</text><line style="stroke:#A80036;stroke-width:1.5;" x1="66.5" x2="157.5" y1="534" y2="534"/><line style="stroke:#A80036;stroke-width:1.5;" x1="66.5" x2="157.5" y1="542" y2="542"/><!--MD5=[bea5b0d46523efab5ea1c1d339f396f0]
class Message--><rect codeLine="11" fill="#FEFECE" filter="url(#fesbowkj80e7o)" height="48" id="Message" style="stroke:#A80036;stroke-width:1.5;" width="87" x="348.5" y="502"/><ellipse cx="363.5" cy="518" fill="#EB937F" rx="11" ry="11" style="stroke:#A80036;stroke-width:1.0;"/><path d="M362.2969,518.875 L363.75,518.875 L363.75,518.9844 C363.75,519.3906 363.7813,519.5469 363.8594,519.7031 C364.0156,519.9531 364.2969,520.1094 364.5938,520.1094 C364.8438,520.1094 365.1094,519.9688 365.2656,519.75 C365.3906,519.5938 365.4219,519.4375 365.4219,518.9844 L365.4219,517.0625 C365.4219,516.9063 365.4219,516.8594 365.4063,516.7031 C365.3438,516.2344 365.0313,515.9219 364.5781,515.9219 C364.3281,515.9219 364.0625,516.0625 363.8906,516.2813 C363.7813,516.4531 363.75,516.6094 363.75,517.0625 L363.75,517.1875 L362.2969,517.1875 L362.2969,514.7813 L366.2813,514.7813 L366.2813,515.6406 C366.2813,516.0469 366.3125,516.2188 366.3906,516.375 C366.5625,516.625 366.8438,516.7813 367.125,516.7813 C367.3906,516.7813 367.6563,516.6406 367.8281,516.4219 C367.9375,516.25 367.9688,516.1094 367.9688,515.6406 L367.9688,513.0938 L360.3438,513.0938 C359.9063,513.0938 359.7813,513.1094 359.625,513.2031 C359.375,513.3594 359.2188,513.6563 359.2188,513.9375 C359.2188,514.2188 359.3594,514.4688 359.5781,514.6406 C359.7344,514.75 359.9219,514.7813 360.3438,514.7813 L360.5938,514.7813 L360.5938,521.2969 L360.3438,521.2969 C359.9375,521.2969 359.7813,521.3125 359.625,521.4219 C359.375,521.5938 359.2188,521.8594 359.2188,522.1563 C359.2188,522.4219 359.3594,522.6719 359.5781,522.8281 C359.7188,522.9531 359.9531,523 360.3438,523 L368.3438,523 L368.3438,520.4219 C368.3438,519.9844 368.3125,519.8438 368.2344,519.6875 C368.0625,519.4375 367.7813,519.2813 367.5,519.2813 C367.2344,519.2813 366.9688,519.3906 366.7969,519.6406 C366.6875,519.7969 366.6563,519.9375 366.6563,520.4219 L366.6563,521.2969 L362.2969,521.2969 L362.2969,518.875 Z " fill="#000000"/><text fill="#000000" font-family="sans-serif" font-size="12" lengthAdjust="spacing" textLength="55" x="377.5" y="522.1543">Message</text><line style="stroke:#A80036;stroke-width:1.5;" x1="349.5" x2="434.5" y1="534" y2="534"/><line style="stroke:#A80036;stroke-width:1.5;" x1="349.5" x2="434.5" y1="542" y2="542"/><!--MD5=[86cec68673cafdfc1c204348d5b2cca6]
class ErrorView--><rect codeLine="12" fill="#FEFECE" filter="url(#fesbowkj80e7o)" height="48" id="ErrorView" style="stroke:#A80036;stroke-width:1.5;" width="91" x="193.5" y="502"/><ellipse cx="208.5" cy="518" fill="#ADD1B2" rx="11" ry="11" style="stroke:#A80036;stroke-width:1.0;"/><path d="M210.8438,513.6719 C209.9063,513.2344 209.3125,513.0938 208.4375,513.0938 C205.8125,513.0938 203.8125,515.1719 203.8125,517.8906 L203.8125,519.0156 C203.8125,521.5938 205.9219,523.4844 208.8125,523.4844 C210.0313,523.4844 211.1875,523.1875 211.9375,522.6406 C212.5156,522.2344 212.8438,521.7813 212.8438,521.3906 C212.8438,520.9375 212.4531,520.5469 211.9844,520.5469 C211.7656,520.5469 211.5625,520.625 211.375,520.8125 C210.9219,521.2969 210.9219,521.2969 210.7344,521.3906 C210.3125,521.6563 209.625,521.7813 208.8594,521.7813 C206.8125,521.7813 205.5156,520.6875 205.5156,518.9844 L205.5156,517.8906 C205.5156,516.1094 206.7656,514.7969 208.5,514.7969 C209.0781,514.7969 209.6875,514.9531 210.1563,515.2031 C210.6406,515.4844 210.8125,515.7031 210.9063,516.1094 C210.9688,516.5156 211,516.6406 211.1406,516.7656 C211.2813,516.9063 211.5156,517.0156 211.7344,517.0156 C212,517.0156 212.2656,516.875 212.4375,516.6563 C212.5469,516.5 212.5781,516.3125 212.5781,515.8906 L212.5781,514.4688 C212.5781,514.0313 212.5625,513.9063 212.4688,513.75 C212.3125,513.4844 212.0313,513.3438 211.7344,513.3438 C211.4375,513.3438 211.2344,513.4375 211.0156,513.75 L210.8438,513.6719 Z " fill="#000000"/><text fill="#000000" font-family="sans-serif" font-size="12" lengthAdjust="spacing" textLength="59" x="222.5" y="522.1543">ErrorView</text><line style="stroke:#A80036;stroke-width:1.5;" x1="194.5" x2="283.5" y1="534" y2="534"/><line style="stroke:#A80036;stroke-width:1.5;" x1="194.5" x2="283.5" y1="542" y2="542"/><!--MD5=[f6bfa8e6ad2e37edcd578b647fafadda]
class MenuView--><rect codeLine="13" fill="#FEFECE" filter="url(#fesbowkj80e7o)" height="48" id="MenuView" style="stroke:#A80036;stroke-width:1.5;" width="93" x="177.5" y="279"/><ellipse cx="192.5" cy="295" fill="#ADD1B2" rx="11" ry="11" style="stroke:#A80036;stroke-width:1.0;"/><path d="M194.8438,290.6719 C193.9063,290.2344 193.3125,290.0938 192.4375,290.0938 C189.8125,290.0938 187.8125,292.1719 187.8125,294.8906 L187.8125,296.0156 C187.8125,298.5938 189.9219,300.4844 192.8125,300.4844 C194.0313,300.4844 195.1875,300.1875 195.9375,299.6406 C196.5156,299.2344 196.8438,298.7813 196.8438,298.3906 C196.8438,297.9375 196.4531,297.5469 195.9844,297.5469 C195.7656,297.5469 195.5625,297.625 195.375,297.8125 C194.9219,298.2969 194.9219,298.2969 194.7344,298.3906 C194.3125,298.6563 193.625,298.7813 192.8594,298.7813 C190.8125,298.7813 189.5156,297.6875 189.5156,295.9844 L189.5156,294.8906 C189.5156,293.1094 190.7656,291.7969 192.5,291.7969 C193.0781,291.7969 193.6875,291.9531 194.1563,292.2031 C194.6406,292.4844 194.8125,292.7031 194.9063,293.1094 C194.9688,293.5156 195,293.6406 195.1406,293.7656 C195.2813,293.9063 195.5156,294.0156 195.7344,294.0156 C196,294.0156 196.2656,293.875 196.4375,293.6563 C196.5469,293.5 196.5781,293.3125 196.5781,292.8906 L196.5781,291.4688 C196.5781,291.0313 196.5625,290.9063 196.4688,290.75 C196.3125,290.4844 196.0313,290.3438 195.7344,290.3438 C195.4375,290.3438 195.2344,290.4375 195.0156,290.75 L194.8438,290.6719 Z " fill="#000000"/><text fill="#000000" font-family="sans-serif" font-size="12" lengthAdjust="spacing" textLength="61" x="206.5" y="299.1543">MenuView</text><line style="stroke:#A80036;stroke-width:1.5;" x1="178.5" x2="269.5" y1="311" y2="311"/><line style="stroke:#A80036;stroke-width:1.5;" x1="178.5" x2="269.5" y1="319" y2="319"/><!--MD5=[1d7ba1c7002d54515419844fbd155368]
class Controller--><rect codeLine="37" fill="#FEFECE" filter="url(#fesbowkj80e7o)" height="48" id="Controller" style="stroke:#A80036;stroke-width:1.5;" width="90" x="1163" y="164"/><ellipse cx="1178" cy="180" fill="#A9DCDF" rx="11" ry="11" style="stroke:#A80036;stroke-width:1.0;"/><path d="M1180.0781,181.8125 L1180.4688,182.7969 L1180.0781,182.7969 C1179.625,182.7969 1179.5156,182.8125 1179.3594,182.9219 C1179.1094,183.0781 1178.9531,183.3594 1178.9531,183.6563 C1178.9531,183.9219 1179.0938,184.1719 1179.3125,184.3281 C1179.4531,184.4531 1179.6563,184.5 1180.0781,184.5 L1182.4375,184.5 C1182.7969,184.5 1183.0156,184.4688 1183.1563,184.375 C1183.4063,184.2344 1183.5625,183.9375 1183.5625,183.6563 C1183.5625,183.375 1183.4219,183.125 1183.2031,182.9688 C1183.0313,182.8281 1182.875,182.7969 1182.4063,182.7969 L1179.0156,174.5938 L1175.3438,174.5938 C1174.8906,174.5938 1174.7656,174.6094 1174.6094,174.7031 C1174.3594,174.875 1174.2031,175.1563 1174.2031,175.4375 C1174.2031,175.7188 1174.3438,175.9688 1174.5625,176.1406 C1174.7344,176.25 1174.9063,176.2813 1175.3438,176.2813 L1176.4219,176.2813 L1173.7813,182.7969 C1173.3594,182.7969 1173.2031,182.8125 1173.0469,182.9219 C1172.7969,183.0781 1172.6406,183.3594 1172.6406,183.6563 C1172.6406,184.2188 1173.0156,184.5 1173.7656,184.5 L1176.0313,184.5 C1176.3906,184.5 1176.6094,184.4688 1176.7344,184.375 C1177,184.2344 1177.1406,183.9375 1177.1406,183.6563 C1177.1406,183.375 1177.0156,183.125 1176.7969,182.9531 C1176.625,182.8281 1176.4844,182.7969 1176.0313,182.7969 L1175.6406,182.7969 L1176.0313,181.8125 L1180.0781,181.8125 Z M1179.375,180.1094 L1176.7031,180.1094 L1178.0469,176.8438 L1179.375,180.1094 Z " fill="#000000"/><text fill="#000000" font-family="sans-serif" font-size="12" font-style="italic" lengthAdjust="spacing" textLength="58" x="1192" y="184.1543">Controller</text><line style="stroke:#A80036;stroke-width:1.5;" x1="1164" x2="1252" y1="196" y2="196"/><line style="stroke:#A80036;stroke-width:1.5;" x1="1164" x2="1252" y1="204" y2="204"/><!--MD5=[47c371471411cfedeee61b1a5bdaee47]
class StartController--><rect codeLine="38" fill="#FEFECE" filter="url(#fesbowkj80e7o)" height="48" id="StartController" style="stroke:#A80036;stroke-width:1.5;" width="119" x="1387.5" y="279"/><ellipse cx="1402.5" cy="295" fill="#ADD1B2" rx="11" ry="11" style="stroke:#A80036;stroke-width:1.0;"/><path d="M1404.8438,290.6719 C1403.9063,290.2344 1403.3125,290.0938 1402.4375,290.0938 C1399.8125,290.0938 1397.8125,292.1719 1397.8125,294.8906 L1397.8125,296.0156 C1397.8125,298.5938 1399.9219,300.4844 1402.8125,300.4844 C1404.0313,300.4844 1405.1875,300.1875 1405.9375,299.6406 C1406.5156,299.2344 1406.8438,298.7813 1406.8438,298.3906 C1406.8438,297.9375 1406.4531,297.5469 1405.9844,297.5469 C1405.7656,297.5469 1405.5625,297.625 1405.375,297.8125 C1404.9219,298.2969 1404.9219,298.2969 1404.7344,298.3906 C1404.3125,298.6563 1403.625,298.7813 1402.8594,298.7813 C1400.8125,298.7813 1399.5156,297.6875 1399.5156,295.9844 L1399.5156,294.8906 C1399.5156,293.1094 1400.7656,291.7969 1402.5,291.7969 C1403.0781,291.7969 1403.6875,291.9531 1404.1563,292.2031 C1404.6406,292.4844 1404.8125,292.7031 1404.9063,293.1094 C1404.9688,293.5156 1405,293.6406 1405.1406,293.7656 C1405.2813,293.9063 1405.5156,294.0156 1405.7344,294.0156 C1406,294.0156 1406.2656,293.875 1406.4375,293.6563 C1406.5469,293.5 1406.5781,293.3125 1406.5781,292.8906 L1406.5781,291.4688 C1406.5781,291.0313 1406.5625,290.9063 1406.4688,290.75 C1406.3125,290.4844 1406.0313,290.3438 1405.7344,290.3438 C1405.4375,290.3438 1405.2344,290.4375 1405.0156,290.75 L1404.8438,290.6719 Z " fill="#000000"/><text fill="#000000" font-family="sans-serif" font-size="12" lengthAdjust="spacing" textLength="87" x="1416.5" y="299.1543">StartController</text><line style="stroke:#A80036;stroke-width:1.5;" x1="1388.5" x2="1505.5" y1="311" y2="311"/><line style="stroke:#A80036;stroke-width:1.5;" x1="1388.5" x2="1505.5" y1="319" y2="319"/><!--MD5=[0b95e4ee8b160a2b3b0650a9b235c496]
class ProposeController--><rect codeLine="39" fill="#FEFECE" filter="url(#fesbowkj80e7o)" height="48" id="ProposeController" style="stroke:#A80036;stroke-width:1.5;" width="141" x="1541.5" y="279"/><ellipse cx="1556.5" cy="295" fill="#ADD1B2" rx="11" ry="11" style="stroke:#A80036;stroke-width:1.0;"/><path d="M1558.8438,290.6719 C1557.9063,290.2344 1557.3125,290.0938 1556.4375,290.0938 C1553.8125,290.0938 1551.8125,292.1719 1551.8125,294.8906 L1551.8125,296.0156 C1551.8125,298.5938 1553.9219,300.4844 1556.8125,300.4844 C1558.0313,300.4844 1559.1875,300.1875 1559.9375,299.6406 C1560.5156,299.2344 1560.8438,298.7813 1560.8438,298.3906 C1560.8438,297.9375 1560.4531,297.5469 1559.9844,297.5469 C1559.7656,297.5469 1559.5625,297.625 1559.375,297.8125 C1558.9219,298.2969 1558.9219,298.2969 1558.7344,298.3906 C1558.3125,298.6563 1557.625,298.7813 1556.8594,298.7813 C1554.8125,298.7813 1553.5156,297.6875 1553.5156,295.9844 L1553.5156,294.8906 C1553.5156,293.1094 1554.7656,291.7969 1556.5,291.7969 C1557.0781,291.7969 1557.6875,291.9531 1558.1563,292.2031 C1558.6406,292.4844 1558.8125,292.7031 1558.9063,293.1094 C1558.9688,293.5156 1559,293.6406 1559.1406,293.7656 C1559.2813,293.9063 1559.5156,294.0156 1559.7344,294.0156 C1560,294.0156 1560.2656,293.875 1560.4375,293.6563 C1560.5469,293.5 1560.5781,293.3125 1560.5781,292.8906 L1560.5781,291.4688 C1560.5781,291.0313 1560.5625,290.9063 1560.4688,290.75 C1560.3125,290.4844 1560.0313,290.3438 1559.7344,290.3438 C1559.4375,290.3438 1559.2344,290.4375 1559.0156,290.75 L1558.8438,290.6719 Z " fill="#000000"/><text fill="#000000" font-family="sans-serif" font-size="12" lengthAdjust="spacing" textLength="109" x="1570.5" y="299.1543">ProposeController</text><line style="stroke:#A80036;stroke-width:1.5;" x1="1542.5" x2="1681.5" y1="311" y2="311"/><line style="stroke:#A80036;stroke-width:1.5;" x1="1542.5" x2="1681.5" y1="319" y2="319"/><!--MD5=[1a47bbf44ccee225df9b18c5b6629853]
class ResumeController--><rect codeLine="40" fill="#FEFECE" filter="url(#fesbowkj80e7o)" height="48" id="ResumeController" style="stroke:#A80036;stroke-width:1.5;" width="139" x="1055.5" y="279"/><ellipse cx="1070.5" cy="295" fill="#ADD1B2" rx="11" ry="11" style="stroke:#A80036;stroke-width:1.0;"/><path d="M1072.8438,290.6719 C1071.9063,290.2344 1071.3125,290.0938 1070.4375,290.0938 C1067.8125,290.0938 1065.8125,292.1719 1065.8125,294.8906 L1065.8125,296.0156 C1065.8125,298.5938 1067.9219,300.4844 1070.8125,300.4844 C1072.0313,300.4844 1073.1875,300.1875 1073.9375,299.6406 C1074.5156,299.2344 1074.8438,298.7813 1074.8438,298.3906 C1074.8438,297.9375 1074.4531,297.5469 1073.9844,297.5469 C1073.7656,297.5469 1073.5625,297.625 1073.375,297.8125 C1072.9219,298.2969 1072.9219,298.2969 1072.7344,298.3906 C1072.3125,298.6563 1071.625,298.7813 1070.8594,298.7813 C1068.8125,298.7813 1067.5156,297.6875 1067.5156,295.9844 L1067.5156,294.8906 C1067.5156,293.1094 1068.7656,291.7969 1070.5,291.7969 C1071.0781,291.7969 1071.6875,291.9531 1072.1563,292.2031 C1072.6406,292.4844 1072.8125,292.7031 1072.9063,293.1094 C1072.9688,293.5156 1073,293.6406 1073.1406,293.7656 C1073.2813,293.9063 1073.5156,294.0156 1073.7344,294.0156 C1074,294.0156 1074.2656,293.875 1074.4375,293.6563 C1074.5469,293.5 1074.5781,293.3125 1074.5781,292.8906 L1074.5781,291.4688 C1074.5781,291.0313 1074.5625,290.9063 1074.4688,290.75 C1074.3125,290.4844 1074.0313,290.3438 1073.7344,290.3438 C1073.4375,290.3438 1073.2344,290.4375 1073.0156,290.75 L1072.8438,290.6719 Z " fill="#000000"/><text fill="#000000" font-family="sans-serif" font-size="12" lengthAdjust="spacing" textLength="107" x="1084.5" y="299.1543">ResumeController</text><line style="stroke:#A80036;stroke-width:1.5;" x1="1056.5" x2="1193.5" y1="311" y2="311"/><line style="stroke:#A80036;stroke-width:1.5;" x1="1056.5" x2="1193.5" y1="319" y2="319"/><!--MD5=[ad55c02b6d743eec4828d3c9f4ddad4a]
class ShowBoardController--><rect codeLine="41" fill="#FEFECE" filter="url(#fesbowkj80e7o)" height="48" id="ShowBoardController" style="stroke:#A80036;stroke-width:1.5;" width="160" x="1211" y="394"/><ellipse cx="1226" cy="410" fill="#ADD1B2" rx="11" ry="11" style="stroke:#A80036;stroke-width:1.0;"/><path d="M1228.3438,405.6719 C1227.4063,405.2344 1226.8125,405.0938 1225.9375,405.0938 C1223.3125,405.0938 1221.3125,407.1719 1221.3125,409.8906 L1221.3125,411.0156 C1221.3125,413.5938 1223.4219,415.4844 1226.3125,415.4844 C1227.5313,415.4844 1228.6875,415.1875 1229.4375,414.6406 C1230.0156,414.2344 1230.3438,413.7813 1230.3438,413.3906 C1230.3438,412.9375 1229.9531,412.5469 1229.4844,412.5469 C1229.2656,412.5469 1229.0625,412.625 1228.875,412.8125 C1228.4219,413.2969 1228.4219,413.2969 1228.2344,413.3906 C1227.8125,413.6563 1227.125,413.7813 1226.3594,413.7813 C1224.3125,413.7813 1223.0156,412.6875 1223.0156,410.9844 L1223.0156,409.8906 C1223.0156,408.1094 1224.2656,406.7969 1226,406.7969 C1226.5781,406.7969 1227.1875,406.9531 1227.6563,407.2031 C1228.1406,407.4844 1228.3125,407.7031 1228.4063,408.1094 C1228.4688,408.5156 1228.5,408.6406 1228.6406,408.7656 C1228.7813,408.9063 1229.0156,409.0156 1229.2344,409.0156 C1229.5,409.0156 1229.7656,408.875 1229.9375,408.6563 C1230.0469,408.5 1230.0781,408.3125 1230.0781,407.8906 L1230.0781,406.4688 C1230.0781,406.0313 1230.0625,405.9063 1229.9688,405.75 C1229.8125,405.4844 1229.5313,405.3438 1229.2344,405.3438 C1228.9375,405.3438 1228.7344,405.4375 1228.5156,405.75 L1228.3438,405.6719 Z " fill="#000000"/><text fill="#000000" font-family="sans-serif" font-size="12" lengthAdjust="spacing" textLength="128" x="1240" y="414.1543">ShowBoardController</text><line style="stroke:#A80036;stroke-width:1.5;" x1="1212" x2="1370" y1="426" y2="426"/><line style="stroke:#A80036;stroke-width:1.5;" x1="1212" x2="1370" y1="434" y2="434"/><!--MD5=[aab9612c5d46aa221e996c7d0ed5d7ab]
class UndoController--><rect codeLine="42" fill="#FEFECE" filter="url(#fesbowkj80e7o)" height="48" id="UndoController" style="stroke:#A80036;stroke-width:1.5;" width="123" x="859.5" y="279"/><ellipse cx="874.5" cy="295" fill="#ADD1B2" rx="11" ry="11" style="stroke:#A80036;stroke-width:1.0;"/><path d="M876.8438,290.6719 C875.9063,290.2344 875.3125,290.0938 874.4375,290.0938 C871.8125,290.0938 869.8125,292.1719 869.8125,294.8906 L869.8125,296.0156 C869.8125,298.5938 871.9219,300.4844 874.8125,300.4844 C876.0313,300.4844 877.1875,300.1875 877.9375,299.6406 C878.5156,299.2344 878.8438,298.7813 878.8438,298.3906 C878.8438,297.9375 878.4531,297.5469 877.9844,297.5469 C877.7656,297.5469 877.5625,297.625 877.375,297.8125 C876.9219,298.2969 876.9219,298.2969 876.7344,298.3906 C876.3125,298.6563 875.625,298.7813 874.8594,298.7813 C872.8125,298.7813 871.5156,297.6875 871.5156,295.9844 L871.5156,294.8906 C871.5156,293.1094 872.7656,291.7969 874.5,291.7969 C875.0781,291.7969 875.6875,291.9531 876.1563,292.2031 C876.6406,292.4844 876.8125,292.7031 876.9063,293.1094 C876.9688,293.5156 877,293.6406 877.1406,293.7656 C877.2813,293.9063 877.5156,294.0156 877.7344,294.0156 C878,294.0156 878.2656,293.875 878.4375,293.6563 C878.5469,293.5 878.5781,293.3125 878.5781,292.8906 L878.5781,291.4688 C878.5781,291.0313 878.5625,290.9063 878.4688,290.75 C878.3125,290.4844 878.0313,290.3438 877.7344,290.3438 C877.4375,290.3438 877.2344,290.4375 877.0156,290.75 L876.8438,290.6719 Z " fill="#000000"/><text fill="#000000" font-family="sans-serif" font-size="12" lengthAdjust="spacing" textLength="91" x="888.5" y="299.1543">UndoController</text><line style="stroke:#A80036;stroke-width:1.5;" x1="860.5" x2="981.5" y1="311" y2="311"/><line style="stroke:#A80036;stroke-width:1.5;" x1="860.5" x2="981.5" y1="319" y2="319"/><!--MD5=[09632e2f294dd01282ddf91519a686d7]
class RedoController--><rect codeLine="43" fill="#FEFECE" filter="url(#fesbowkj80e7o)" height="48" id="RedoController" style="stroke:#A80036;stroke-width:1.5;" width="122" x="1230" y="279"/><ellipse cx="1245" cy="295" fill="#ADD1B2" rx="11" ry="11" style="stroke:#A80036;stroke-width:1.0;"/><path d="M1247.3438,290.6719 C1246.4063,290.2344 1245.8125,290.0938 1244.9375,290.0938 C1242.3125,290.0938 1240.3125,292.1719 1240.3125,294.8906 L1240.3125,296.0156 C1240.3125,298.5938 1242.4219,300.4844 1245.3125,300.4844 C1246.5313,300.4844 1247.6875,300.1875 1248.4375,299.6406 C1249.0156,299.2344 1249.3438,298.7813 1249.3438,298.3906 C1249.3438,297.9375 1248.9531,297.5469 1248.4844,297.5469 C1248.2656,297.5469 1248.0625,297.625 1247.875,297.8125 C1247.4219,298.2969 1247.4219,298.2969 1247.2344,298.3906 C1246.8125,298.6563 1246.125,298.7813 1245.3594,298.7813 C1243.3125,298.7813 1242.0156,297.6875 1242.0156,295.9844 L1242.0156,294.8906 C1242.0156,293.1094 1243.2656,291.7969 1245,291.7969 C1245.5781,291.7969 1246.1875,291.9531 1246.6563,292.2031 C1247.1406,292.4844 1247.3125,292.7031 1247.4063,293.1094 C1247.4688,293.5156 1247.5,293.6406 1247.6406,293.7656 C1247.7813,293.9063 1248.0156,294.0156 1248.2344,294.0156 C1248.5,294.0156 1248.7656,293.875 1248.9375,293.6563 C1249.0469,293.5 1249.0781,293.3125 1249.0781,292.8906 L1249.0781,291.4688 C1249.0781,291.0313 1249.0625,290.9063 1248.9688,290.75 C1248.8125,290.4844 1248.5313,290.3438 1248.2344,290.3438 C1247.9375,290.3438 1247.7344,290.4375 1247.5156,290.75 L1247.3438,290.6719 Z " fill="#000000"/><text fill="#000000" font-family="sans-serif" font-size="12" lengthAdjust="spacing" textLength="90" x="1259" y="299.1543">RedoController</text><line style="stroke:#A80036;stroke-width:1.5;" x1="1231" x2="1351" y1="311" y2="311"/><line style="stroke:#A80036;stroke-width:1.5;" x1="1231" x2="1351" y1="319" y2="319"/><!--MD5=[9563755d011c5cec7ec66dc53565a59e]
class Board--><rect codeLine="58" fill="#FEFECE" filter="url(#fesbowkj80e7o)" height="48" id="Board" style="stroke:#A80036;stroke-width:1.5;" width="68" x="1920" y="279"/><ellipse cx="1935" cy="295" fill="#ADD1B2" rx="11" ry="11" style="stroke:#A80036;stroke-width:1.0;"/><path d="M1937.3438,290.6719 C1936.4063,290.2344 1935.8125,290.0938 1934.9375,290.0938 C1932.3125,290.0938 1930.3125,292.1719 1930.3125,294.8906 L1930.3125,296.0156 C1930.3125,298.5938 1932.4219,300.4844 1935.3125,300.4844 C1936.5313,300.4844 1937.6875,300.1875 1938.4375,299.6406 C1939.0156,299.2344 1939.3438,298.7813 1939.3438,298.3906 C1939.3438,297.9375 1938.9531,297.5469 1938.4844,297.5469 C1938.2656,297.5469 1938.0625,297.625 1937.875,297.8125 C1937.4219,298.2969 1937.4219,298.2969 1937.2344,298.3906 C1936.8125,298.6563 1936.125,298.7813 1935.3594,298.7813 C1933.3125,298.7813 1932.0156,297.6875 1932.0156,295.9844 L1932.0156,294.8906 C1932.0156,293.1094 1933.2656,291.7969 1935,291.7969 C1935.5781,291.7969 1936.1875,291.9531 1936.6563,292.2031 C1937.1406,292.4844 1937.3125,292.7031 1937.4063,293.1094 C1937.4688,293.5156 1937.5,293.6406 1937.6406,293.7656 C1937.7813,293.9063 1938.0156,294.0156 1938.2344,294.0156 C1938.5,294.0156 1938.7656,293.875 1938.9375,293.6563 C1939.0469,293.5 1939.0781,293.3125 1939.0781,292.8906 L1939.0781,291.4688 C1939.0781,291.0313 1939.0625,290.9063 1938.9688,290.75 C1938.8125,290.4844 1938.5313,290.3438 1938.2344,290.3438 C1937.9375,290.3438 1937.7344,290.4375 1937.5156,290.75 L1937.3438,290.6719 Z " fill="#000000"/><text fill="#000000" font-family="sans-serif" font-size="12" lengthAdjust="spacing" textLength="36" x="1949" y="299.1543">Board</text><line style="stroke:#A80036;stroke-width:1.5;" x1="1921" x2="1987" y1="311" y2="311"/><line style="stroke:#A80036;stroke-width:1.5;" x1="1921" x2="1987" y1="319" y2="319"/><!--MD5=[28491d17d5ee38c9c116625a5ffc259a]
class Combination--><rect codeLine="59" fill="#FEFECE" filter="url(#fesbowkj80e7o)" height="48" id="Combination" style="stroke:#A80036;stroke-width:1.5;" width="106" x="1779" y="279"/><ellipse cx="1794" cy="295" fill="#ADD1B2" rx="11" ry="11" style="stroke:#A80036;stroke-width:1.0;"/><path d="M1796.3438,290.6719 C1795.4063,290.2344 1794.8125,290.0938 1793.9375,290.0938 C1791.3125,290.0938 1789.3125,292.1719 1789.3125,294.8906 L1789.3125,296.0156 C1789.3125,298.5938 1791.4219,300.4844 1794.3125,300.4844 C1795.5313,300.4844 1796.6875,300.1875 1797.4375,299.6406 C1798.0156,299.2344 1798.3438,298.7813 1798.3438,298.3906 C1798.3438,297.9375 1797.9531,297.5469 1797.4844,297.5469 C1797.2656,297.5469 1797.0625,297.625 1796.875,297.8125 C1796.4219,298.2969 1796.4219,298.2969 1796.2344,298.3906 C1795.8125,298.6563 1795.125,298.7813 1794.3594,298.7813 C1792.3125,298.7813 1791.0156,297.6875 1791.0156,295.9844 L1791.0156,294.8906 C1791.0156,293.1094 1792.2656,291.7969 1794,291.7969 C1794.5781,291.7969 1795.1875,291.9531 1795.6563,292.2031 C1796.1406,292.4844 1796.3125,292.7031 1796.4063,293.1094 C1796.4688,293.5156 1796.5,293.6406 1796.6406,293.7656 C1796.7813,293.9063 1797.0156,294.0156 1797.2344,294.0156 C1797.5,294.0156 1797.7656,293.875 1797.9375,293.6563 C1798.0469,293.5 1798.0781,293.3125 1798.0781,292.8906 L1798.0781,291.4688 C1798.0781,291.0313 1798.0625,290.9063 1797.9688,290.75 C1797.8125,290.4844 1797.5313,290.3438 1797.2344,290.3438 C1796.9375,290.3438 1796.7344,290.4375 1796.5156,290.75 L1796.3438,290.6719 Z " fill="#000000"/><text fill="#000000" font-family="sans-serif" font-size="12" lengthAdjust="spacing" textLength="74" x="1808" y="299.1543">Combination</text><line style="stroke:#A80036;stroke-width:1.5;" x1="1780" x2="1884" y1="311" y2="311"/><line style="stroke:#A80036;stroke-width:1.5;" x1="1780" x2="1884" y1="319" y2="319"/><!--MD5=[cf489b19c51ee25e76ddca093e62e620]
class ProposedCombination--><rect codeLine="60" fill="#FEFECE" filter="url(#fesbowkj80e7o)" height="48" id="ProposedCombination" style="stroke:#A80036;stroke-width:1.5;" width="164" x="1779" y="502"/><ellipse cx="1794" cy="518" fill="#ADD1B2" rx="11" ry="11" style="stroke:#A80036;stroke-width:1.0;"/><path d="M1796.3438,513.6719 C1795.4063,513.2344 1794.8125,513.0938 1793.9375,513.0938 C1791.3125,513.0938 1789.3125,515.1719 1789.3125,517.8906 L1789.3125,519.0156 C1789.3125,521.5938 1791.4219,523.4844 1794.3125,523.4844 C1795.5313,523.4844 1796.6875,523.1875 1797.4375,522.6406 C1798.0156,522.2344 1798.3438,521.7813 1798.3438,521.3906 C1798.3438,520.9375 1797.9531,520.5469 1797.4844,520.5469 C1797.2656,520.5469 1797.0625,520.625 1796.875,520.8125 C1796.4219,521.2969 1796.4219,521.2969 1796.2344,521.3906 C1795.8125,521.6563 1795.125,521.7813 1794.3594,521.7813 C1792.3125,521.7813 1791.0156,520.6875 1791.0156,518.9844 L1791.0156,517.8906 C1791.0156,516.1094 1792.2656,514.7969 1794,514.7969 C1794.5781,514.7969 1795.1875,514.9531 1795.6563,515.2031 C1796.1406,515.4844 1796.3125,515.7031 1796.4063,516.1094 C1796.4688,516.5156 1796.5,516.6406 1796.6406,516.7656 C1796.7813,516.9063 1797.0156,517.0156 1797.2344,517.0156 C1797.5,517.0156 1797.7656,516.875 1797.9375,516.6563 C1798.0469,516.5 1798.0781,516.3125 1798.0781,515.8906 L1798.0781,514.4688 C1798.0781,514.0313 1798.0625,513.9063 1797.9688,513.75 C1797.8125,513.4844 1797.5313,513.3438 1797.2344,513.3438 C1796.9375,513.3438 1796.7344,513.4375 1796.5156,513.75 L1796.3438,513.6719 Z " fill="#000000"/><text fill="#000000" font-family="sans-serif" font-size="12" lengthAdjust="spacing" textLength="132" x="1808" y="522.1543">ProposedCombination</text><line style="stroke:#A80036;stroke-width:1.5;" x1="1780" x2="1942" y1="534" y2="534"/><line style="stroke:#A80036;stroke-width:1.5;" x1="1780" x2="1942" y1="542" y2="542"/><!--MD5=[e370ee5c0c15ce04544d5f5a73174d72]
class SecretCombination--><rect codeLine="61" fill="#FEFECE" filter="url(#fesbowkj80e7o)" height="48" id="SecretCombination" style="stroke:#A80036;stroke-width:1.5;" width="146" x="1863" y="394"/><ellipse cx="1878" cy="410" fill="#ADD1B2" rx="11" ry="11" style="stroke:#A80036;stroke-width:1.0;"/><path d="M1880.3438,405.6719 C1879.4063,405.2344 1878.8125,405.0938 1877.9375,405.0938 C1875.3125,405.0938 1873.3125,407.1719 1873.3125,409.8906 L1873.3125,411.0156 C1873.3125,413.5938 1875.4219,415.4844 1878.3125,415.4844 C1879.5313,415.4844 1880.6875,415.1875 1881.4375,414.6406 C1882.0156,414.2344 1882.3438,413.7813 1882.3438,413.3906 C1882.3438,412.9375 1881.9531,412.5469 1881.4844,412.5469 C1881.2656,412.5469 1881.0625,412.625 1880.875,412.8125 C1880.4219,413.2969 1880.4219,413.2969 1880.2344,413.3906 C1879.8125,413.6563 1879.125,413.7813 1878.3594,413.7813 C1876.3125,413.7813 1875.0156,412.6875 1875.0156,410.9844 L1875.0156,409.8906 C1875.0156,408.1094 1876.2656,406.7969 1878,406.7969 C1878.5781,406.7969 1879.1875,406.9531 1879.6563,407.2031 C1880.1406,407.4844 1880.3125,407.7031 1880.4063,408.1094 C1880.4688,408.5156 1880.5,408.6406 1880.6406,408.7656 C1880.7813,408.9063 1881.0156,409.0156 1881.2344,409.0156 C1881.5,409.0156 1881.7656,408.875 1881.9375,408.6563 C1882.0469,408.5 1882.0781,408.3125 1882.0781,407.8906 L1882.0781,406.4688 C1882.0781,406.0313 1882.0625,405.9063 1881.9688,405.75 C1881.8125,405.4844 1881.5313,405.3438 1881.2344,405.3438 C1880.9375,405.3438 1880.7344,405.4375 1880.5156,405.75 L1880.3438,405.6719 Z " fill="#000000"/><text fill="#000000" font-family="sans-serif" font-size="12" lengthAdjust="spacing" textLength="114" x="1892" y="414.1543">SecretCombination</text><line style="stroke:#A80036;stroke-width:1.5;" x1="1864" x2="2008" y1="426" y2="426"/><line style="stroke:#A80036;stroke-width:1.5;" x1="1864" x2="2008" y1="434" y2="434"/><!--MD5=[2741598bdf59a7d7e0d5c97658fd3022]
class Result--><rect codeLine="64" fill="#FEFECE" filter="url(#fesbowkj80e7o)" height="48" id="Result" style="stroke:#A80036;stroke-width:1.5;" width="68" x="1978" y="502"/><ellipse cx="1993" cy="518" fill="#ADD1B2" rx="11" ry="11" style="stroke:#A80036;stroke-width:1.0;"/><path d="M1995.3438,513.6719 C1994.4063,513.2344 1993.8125,513.0938 1992.9375,513.0938 C1990.3125,513.0938 1988.3125,515.1719 1988.3125,517.8906 L1988.3125,519.0156 C1988.3125,521.5938 1990.4219,523.4844 1993.3125,523.4844 C1994.5313,523.4844 1995.6875,523.1875 1996.4375,522.6406 C1997.0156,522.2344 1997.3438,521.7813 1997.3438,521.3906 C1997.3438,520.9375 1996.9531,520.5469 1996.4844,520.5469 C1996.2656,520.5469 1996.0625,520.625 1995.875,520.8125 C1995.4219,521.2969 1995.4219,521.2969 1995.2344,521.3906 C1994.8125,521.6563 1994.125,521.7813 1993.3594,521.7813 C1991.3125,521.7813 1990.0156,520.6875 1990.0156,518.9844 L1990.0156,517.8906 C1990.0156,516.1094 1991.2656,514.7969 1993,514.7969 C1993.5781,514.7969 1994.1875,514.9531 1994.6563,515.2031 C1995.1406,515.4844 1995.3125,515.7031 1995.4063,516.1094 C1995.4688,516.5156 1995.5,516.6406 1995.6406,516.7656 C1995.7813,516.9063 1996.0156,517.0156 1996.2344,517.0156 C1996.5,517.0156 1996.7656,516.875 1996.9375,516.6563 C1997.0469,516.5 1997.0781,516.3125 1997.0781,515.8906 L1997.0781,514.4688 C1997.0781,514.0313 1997.0625,513.9063 1996.9688,513.75 C1996.8125,513.4844 1996.5313,513.3438 1996.2344,513.3438 C1995.9375,513.3438 1995.7344,513.4375 1995.5156,513.75 L1995.3438,513.6719 Z " fill="#000000"/><text fill="#000000" font-family="sans-serif" font-size="12" lengthAdjust="spacing" textLength="36" x="2007" y="522.1543">Result</text><line style="stroke:#A80036;stroke-width:1.5;" x1="1979" x2="2045" y1="534" y2="534"/><line style="stroke:#A80036;stroke-width:1.5;" x1="1979" x2="2045" y1="542" y2="542"/><!--MD5=[18eee71c88ab61f27581b8cbdd3ef5ee]
class Color--><rect codeLine="68" fill="#FEFECE" filter="url(#fesbowkj80e7o)" height="48" id="Color" style="stroke:#A80036;stroke-width:1.5;" width="64" x="2258" y="394"/><ellipse cx="2273" cy="410" fill="#EB937F" rx="11" ry="11" style="stroke:#A80036;stroke-width:1.0;"/><path d="M2271.7969,410.875 L2273.25,410.875 L2273.25,410.9844 C2273.25,411.3906 2273.2813,411.5469 2273.3594,411.7031 C2273.5156,411.9531 2273.7969,412.1094 2274.0938,412.1094 C2274.3438,412.1094 2274.6094,411.9688 2274.7656,411.75 C2274.8906,411.5938 2274.9219,411.4375 2274.9219,410.9844 L2274.9219,409.0625 C2274.9219,408.9063 2274.9219,408.8594 2274.9063,408.7031 C2274.8438,408.2344 2274.5313,407.9219 2274.0781,407.9219 C2273.8281,407.9219 2273.5625,408.0625 2273.3906,408.2813 C2273.2813,408.4531 2273.25,408.6094 2273.25,409.0625 L2273.25,409.1875 L2271.7969,409.1875 L2271.7969,406.7813 L2275.7813,406.7813 L2275.7813,407.6406 C2275.7813,408.0469 2275.8125,408.2188 2275.8906,408.375 C2276.0625,408.625 2276.3438,408.7813 2276.625,408.7813 C2276.8906,408.7813 2277.1563,408.6406 2277.3281,408.4219 C2277.4375,408.25 2277.4688,408.1094 2277.4688,407.6406 L2277.4688,405.0938 L2269.8438,405.0938 C2269.4063,405.0938 2269.2813,405.1094 2269.125,405.2031 C2268.875,405.3594 2268.7188,405.6563 2268.7188,405.9375 C2268.7188,406.2188 2268.8594,406.4688 2269.0781,406.6406 C2269.2344,406.75 2269.4219,406.7813 2269.8438,406.7813 L2270.0938,406.7813 L2270.0938,413.2969 L2269.8438,413.2969 C2269.4375,413.2969 2269.2813,413.3125 2269.125,413.4219 C2268.875,413.5938 2268.7188,413.8594 2268.7188,414.1563 C2268.7188,414.4219 2268.8594,414.6719 2269.0781,414.8281 C2269.2188,414.9531 2269.4531,415 2269.8438,415 L2277.8438,415 L2277.8438,412.4219 C2277.8438,411.9844 2277.8125,411.8438 2277.7344,411.6875 C2277.5625,411.4375 2277.2813,411.2813 2277,411.2813 C2276.7344,411.2813 2276.4688,411.3906 2276.2969,411.6406 C2276.1875,411.7969 2276.1563,411.9375 2276.1563,412.4219 L2276.1563,413.2969 L2271.7969,413.2969 L2271.7969,410.875 Z " fill="#000000"/><text fill="#000000" font-family="sans-serif" font-size="12" lengthAdjust="spacing" textLength="32" x="2287" y="414.1543">Color</text><line style="stroke:#A80036;stroke-width:1.5;" x1="2259" x2="2321" y1="426" y2="426"/><line style="stroke:#A80036;stroke-width:1.5;" x1="2259" x2="2321" y1="434" y2="434"/><!--MD5=[b8cfd8c4119a3b0a7a46bfc5fc780f85]
class Error--><rect codeLine="69" fill="#FEFECE" filter="url(#fesbowkj80e7o)" height="48" id="Error" style="stroke:#A80036;stroke-width:1.5;" width="62" x="2161" y="394"/><ellipse cx="2176" cy="410" fill="#EB937F" rx="11" ry="11" style="stroke:#A80036;stroke-width:1.0;"/><path d="M2174.7969,410.875 L2176.25,410.875 L2176.25,410.9844 C2176.25,411.3906 2176.2813,411.5469 2176.3594,411.7031 C2176.5156,411.9531 2176.7969,412.1094 2177.0938,412.1094 C2177.3438,412.1094 2177.6094,411.9688 2177.7656,411.75 C2177.8906,411.5938 2177.9219,411.4375 2177.9219,410.9844 L2177.9219,409.0625 C2177.9219,408.9063 2177.9219,408.8594 2177.9063,408.7031 C2177.8438,408.2344 2177.5313,407.9219 2177.0781,407.9219 C2176.8281,407.9219 2176.5625,408.0625 2176.3906,408.2813 C2176.2813,408.4531 2176.25,408.6094 2176.25,409.0625 L2176.25,409.1875 L2174.7969,409.1875 L2174.7969,406.7813 L2178.7813,406.7813 L2178.7813,407.6406 C2178.7813,408.0469 2178.8125,408.2188 2178.8906,408.375 C2179.0625,408.625 2179.3438,408.7813 2179.625,408.7813 C2179.8906,408.7813 2180.1563,408.6406 2180.3281,408.4219 C2180.4375,408.25 2180.4688,408.1094 2180.4688,407.6406 L2180.4688,405.0938 L2172.8438,405.0938 C2172.4063,405.0938 2172.2813,405.1094 2172.125,405.2031 C2171.875,405.3594 2171.7188,405.6563 2171.7188,405.9375 C2171.7188,406.2188 2171.8594,406.4688 2172.0781,406.6406 C2172.2344,406.75 2172.4219,406.7813 2172.8438,406.7813 L2173.0938,406.7813 L2173.0938,413.2969 L2172.8438,413.2969 C2172.4375,413.2969 2172.2813,413.3125 2172.125,413.4219 C2171.875,413.5938 2171.7188,413.8594 2171.7188,414.1563 C2171.7188,414.4219 2171.8594,414.6719 2172.0781,414.8281 C2172.2188,414.9531 2172.4531,415 2172.8438,415 L2180.8438,415 L2180.8438,412.4219 C2180.8438,411.9844 2180.8125,411.8438 2180.7344,411.6875 C2180.5625,411.4375 2180.2813,411.2813 2180,411.2813 C2179.7344,411.2813 2179.4688,411.3906 2179.2969,411.6406 C2179.1875,411.7969 2179.1563,411.9375 2179.1563,412.4219 L2179.1563,413.2969 L2174.7969,413.2969 L2174.7969,410.875 Z " fill="#000000"/><text fill="#000000" font-family="sans-serif" font-size="12" lengthAdjust="spacing" textLength="30" x="2190" y="414.1543">Error</text><line style="stroke:#A80036;stroke-width:1.5;" x1="2162" x2="2222" y1="426" y2="426"/><line style="stroke:#A80036;stroke-width:1.5;" x1="2162" x2="2222" y1="434" y2="434"/><!--MD5=[dc0500422e092c4f25e7b64adb8c025b]
link PlayerView to StartView--><path codeLine="16" d="M487,109.14 C487,109.14 487,137.677 487,150.628 " fill="none" id="PlayerView-StartView" style="stroke:#A80036;stroke-width:1.0;"/><polygon fill="#A80036" points="487,163.891,491,154.891,487,158.891,483,154.891,487,163.891" style="stroke:#A80036;stroke-width:1.0;"/><line style="stroke:#A80036;stroke-width:1.0;" x1="487" x2="487" y1="158.891" y2="150.891"/><polygon fill="#A80036" points="487,97.14,483,103.14,487,109.14,491,103.14,487,97.14" style="stroke:#A80036;stroke-width:1.0;"/><!--MD5=[6aa5591338f4cd689301f7e2cc176561]
link PlayerView to ProposeView--><path codeLine="17" d="M427.9706,103.0563 C427.9706,103.0563 425.651,104.553 425,105 C404.07,119.359 382.973,138.288 366.471,154.342 " fill="none" id="PlayerView-ProposeView" style="stroke:#A80036;stroke-width:1.0;"/><polygon fill="#A80036" points="356.833,163.899,366.0401,160.4021,360.3833,160.3783,360.4071,154.7215,356.833,163.899" style="stroke:#A80036;stroke-width:1.0;"/><line style="stroke:#A80036;stroke-width:1.0;" x1="360.3833" x2="366.064" y1="160.3783" y2="154.746"/><polygon fill="#A80036" points="438.196,96.776,430.9899,96.5077,427.9706,103.0563,435.1767,103.3246,438.196,96.776" style="stroke:#A80036;stroke-width:1.0;"/><!--MD5=[b95630b4bb6f21f358e9b1d68800b78a]
link PlayerView to ResumeView--><path codeLine="18" d="M545.5935,102.4517 C545.5935,102.4517 548.227,104.377 549,105 C607.994,152.482 659.603,225.288 687.043,267.821 " fill="none" id="PlayerView-ResumeView" style="stroke:#A80036;stroke-width:1.0;"/><polygon fill="#A80036" points="694.128,278.969,692.6764,269.2277,691.4461,274.7491,685.9246,273.5188,694.128,278.969" style="stroke:#A80036;stroke-width:1.0;"/><line style="stroke:#A80036;stroke-width:1.0;" x1="691.4461" x2="687.155" y1="274.7491" y2="267.9975"/><polygon fill="#A80036" points="535.648,95.737,538.3825,102.4095,545.5935,102.4517,542.859,95.7792,535.648,95.737" style="stroke:#A80036;stroke-width:1.0;"/><!--MD5=[2b5890793a76472eff4c2a6a4af43287]
link StartView to BoardView--><path codeLine="19" d="M479.423,212.14 C473.587,229.964 465.491,254.69 459.269,273.693 " fill="none" id="StartView-to-BoardView" style="stroke:#A80036;stroke-width:1.0;stroke-dasharray:7.0,7.0;"/><polygon fill="#A80036" points="457.567,278.891,464.1683,271.5819,459.1224,274.1391,456.5652,269.0932,457.567,278.891" style="stroke:#A80036;stroke-width:1.0;"/><!--MD5=[29c306805319960c0560bedfd82b8e40]
link ProposeView to BoardView--><path codeLine="20" d="M358.549,212.14 C377.154,230.421 403.147,255.962 422.668,275.144 " fill="none" id="ProposeView-to-BoardView" style="stroke:#A80036;stroke-width:1.0;stroke-dasharray:7.0,7.0;"/><polygon fill="#A80036" points="426.482,278.891,422.8649,269.7304,422.9152,275.387,417.2585,275.4373,426.482,278.891" style="stroke:#A80036;stroke-width:1.0;"/><!--MD5=[b92bc89b5449472b10f1cf1477809057]
link BoardView to ProposedCombinationView--><path codeLine="21" d="M401.475,314.183 C378.36,319.526 350.48,326.692 326,335 C278.674,351.061 226.706,374.017 189.261,391.558 " fill="none" id="BoardView-to-ProposedCombinationView" style="stroke:#A80036;stroke-width:1.0;stroke-dasharray:7.0,7.0;"/><polygon fill="#A80036" points="184.307,393.887,194.1536,393.6775,188.8318,391.7596,190.7498,386.4378,184.307,393.887" style="stroke:#A80036;stroke-width:1.0;"/><!--MD5=[15f682a315f16673a58b132a229e1ff0]
link BoardView to ResultView--><path codeLine="22" d="M438.123,327.14 C428.896,345.116 416.066,370.113 406.28,389.179 " fill="none" id="BoardView-to-ResultView" style="stroke:#A80036;stroke-width:1.0;stroke-dasharray:7.0,7.0;"/><polygon fill="#A80036" points="403.861,393.891,411.5296,387.711,406.1444,389.4428,404.4126,384.0576,403.861,393.891" style="stroke:#A80036;stroke-width:1.0;"/><!--MD5=[02a16ebf8539d2e5d44c3be387606aac]
link BoardView to Message--><path codeLine="23" d="M458.161,327.026 C469.296,362.658 484.975,432.231 458,482 C453.656,490.014 447.1,496.77 439.778,502.38 " fill="none" id="BoardView-to-Message" style="stroke:#A80036;stroke-width:1.0;stroke-dasharray:7.0,7.0;"/><polygon fill="#A80036" points="435.641,505.3792,445.2756,503.3361,439.6894,502.4448,440.5806,496.8586,435.641,505.3792" style="stroke:#A80036;stroke-width:1.0;"/><!--MD5=[5418e21908cb409c36d98acf7a0f9cb6]
link BoardView to SecretCombinationView--><path codeLine="24" d="M480.921,327.14 C505.656,345.65 540.335,371.602 566.069,390.86 " fill="none" id="BoardView-to-SecretCombinationView" style="stroke:#A80036;stroke-width:1.0;stroke-dasharray:7.0,7.0;"/><polygon fill="#A80036" points="570.12,393.891,565.3112,385.2959,566.1169,390.8951,560.5177,391.7009,570.12,393.891" style="stroke:#A80036;stroke-width:1.0;"/><!--MD5=[54923e7f1f8105ab44ef05f41a7d666e]
link ProposedCombinationView to ColorView--><path codeLine="25" d="M131.575,442 C127.801,458.003 122.744,479.446 118.715,496.528 " fill="none" id="ProposedCombinationView-to-ColorView" style="stroke:#A80036;stroke-width:1.0;stroke-dasharray:7.0,7.0;"/><polygon fill="#A80036" points="117.5,501.6784,123.4607,493.8381,118.6487,496.8121,115.6747,492.0002,117.5,501.6784" style="stroke:#A80036;stroke-width:1.0;"/><!--MD5=[058408ce5819f71d62d41402f2a6cc02]
link ProposedCombinationView to ErrorView--><path codeLine="26" d="M159.132,442 C174.929,458.417 196.236,480.559 212.869,497.844 " fill="none" id="ProposedCombinationView-to-ErrorView" style="stroke:#A80036;stroke-width:1.0;stroke-dasharray:7.0,7.0;"/><polygon fill="#A80036" points="216.558,501.6784,213.1995,492.4199,213.091,498.0757,207.4352,497.9671,216.558,501.6784" style="stroke:#A80036;stroke-width:1.0;"/><!--MD5=[7bf6310e2078d439bcd0e6b6dd4bf7dc]
link ProposedCombinationView to Message--><path codeLine="27" d="M178.434,442.06 C202.182,454.764 232.79,470.285 261,482 C287.735,493.103 318.446,503.3119 343.409,510.9938 " fill="none" id="ProposedCombinationView-to-Message" style="stroke:#A80036;stroke-width:1.0;stroke-dasharray:7.0,7.0;"/><polygon fill="#A80036" points="348.323,512.496,340.887,506.038,343.5418,511.0332,338.5465,513.688,348.323,512.496" style="stroke:#A80036;stroke-width:1.0;"/><!--MD5=[0e5df9184d8007a1cb9785d3f6966635]
link ResultView to Message--><path codeLine="28" d="M392,442 C392,458.003 392,479.446 392,496.528 " fill="none" id="ResultView-to-Message" style="stroke:#A80036;stroke-width:1.0;stroke-dasharray:7.0,7.0;"/><polygon fill="#A80036" points="392,501.6784,396,492.6784,392,496.6784,388,492.6784,392,501.6784" style="stroke:#A80036;stroke-width:1.0;"/><!--MD5=[97e9ace985d716348ec86012fc7f7728]
link StartView to Message--><path codeLine="29" d="M510.374,212.173 C548.421,249.658 621.02,320.122 636,327 C650.229,333.533 695.576,323.317 706,335 C727.748,359.375 727.475,457.384 706,482 C672.198,520.7458 520.391,525.8365 440.898,525.7616 " fill="none" id="StartView-to-Message" style="stroke:#A80036;stroke-width:1.0;stroke-dasharray:7.0,7.0;"/><polygon fill="#A80036" points="435.769,525.7495,444.7587,529.7726,440.769,525.7624,444.7793,521.7727,435.769,525.7495" style="stroke:#A80036;stroke-width:1.0;"/><!--MD5=[91198d1c12ec6e73a40fb6837ae56756]
link ResumeView to Message--><path codeLine="30" d="M730.242,327.327 C731.744,329.788 733.039,332.36 734,335 C756.338,396.396 777.22,433.005 734,482 C714.932,503.6152 530.861,517.0504 440.944,522.3754 " fill="none" id="ResumeView-to-Message" style="stroke:#A80036;stroke-width:1.0;stroke-dasharray:7.0,7.0;"/><polygon fill="#A80036" points="435.685,522.6839,444.9038,526.1499,440.6764,522.391,444.4353,518.1636,435.685,522.6839" style="stroke:#A80036;stroke-width:1.0;"/><!--MD5=[2af68b46eeb5c2e46543eeb7557d9936]
link ProposeView to Message--><path codeLine="31" d="M326.934,212.081 C310.274,264.017 277.499,392.514 326,482 C330.344,490.014 336.9,496.77 344.222,502.38 " fill="none" id="ProposeView-to-Message" style="stroke:#A80036;stroke-width:1.0;stroke-dasharray:7.0,7.0;"/><polygon fill="#A80036" points="348.359,505.3792,343.4194,496.8586,344.3106,502.4448,338.7244,503.3361,348.359,505.3792" style="stroke:#A80036;stroke-width:1.0;"/><!--MD5=[9c3c49d2c46e41492ade90d337e2ed2e]
link ProposeView to MenuView--><path codeLine="32" d="M306.365,212.303 C303.49,214.846 300.655,217.441 298,220 C279.926,237.421 260.987,258.467 246.794,274.875 " fill="none" id="ProposeView-to-MenuView" style="stroke:#A80036;stroke-width:1.0;stroke-dasharray:7.0,7.0;"/><polygon fill="#A80036" points="243.291,278.942,252.196,274.7347,246.5547,275.1541,246.1354,269.5128,243.291,278.942" style="stroke:#A80036;stroke-width:1.0;"/><!--MD5=[5edb36716a4c6fb9b73ccdfe060f2d05]
link MenuView to ProposedCombinationView--><path codeLine="33" d="M206.184,327.14 C192.227,345.269 172.773,370.537 158.047,389.663 " fill="none" id="MenuView-to-ProposedCombinationView" style="stroke:#A80036;stroke-width:1.0;stroke-dasharray:7.0,7.0;"/><polygon fill="#A80036" points="154.792,393.891,163.4519,389.2,157.8423,389.9292,157.1131,384.3196,154.792,393.891" style="stroke:#A80036;stroke-width:1.0;"/><!--MD5=[846c85d35f4a93f43b9e7108f510cad0]
link MenuView to Message--><path codeLine="34" d="M245.974,327.295 C247.814,329.799 249.529,332.388 251,335 C284.664,394.762 252.483,430.687 298,482 C309.979,495.505 327.059,505.0359 343.38,511.6308 " fill="none" id="MenuView-to-Message" style="stroke:#A80036;stroke-width:1.0;stroke-dasharray:7.0,7.0;"/><polygon fill="#A80036" points="348.414,513.5844,341.4703,506.5998,343.7526,511.7758,338.5765,514.0581,348.414,513.5844" style="stroke:#A80036;stroke-width:1.0;"/><!--MD5=[354d6deacb49030493b7fd8cb23ebdce]
reverse link Controller to StartController--><path codeLine="46" d="M1273.23,213.637 C1305.02,215.55 1350.84,211.432 1369,220 C1396.01,232.744 1418.44,259.262 1432.21,278.706 " fill="none" id="Controller-backto-StartController" style="stroke:#A80036;stroke-width:1.0;"/><polygon fill="none" points="1272.04,220.54,1253.16,210.911,1273.92,206.667,1272.04,220.54" style="stroke:#A80036;stroke-width:1.0;"/><!--MD5=[f447e35400d120693a19fd34f2d8422e]
reverse link Controller to ProposeController--><path codeLine="47" d="M1273.05,213.178 C1335.68,216.684 1499.98,210.126 1524,220 C1553.55,232.148 1579.21,259.065 1595.08,278.759 " fill="none" id="Controller-backto-ProposeController" style="stroke:#A80036;stroke-width:1.0;"/><polygon fill="none" points="1272.26,220.133,1253.15,210.982,1273.79,206.217,1272.26,220.133" style="stroke:#A80036;stroke-width:1.0;"/><!--MD5=[dfabfd7c269c7ef3ab5bdd4c723fcdb8]
reverse link Controller to ResumeController--><path codeLine="48" d="M1179.12,228.32 C1166.72,245.204 1152.66,264.349 1141.97,278.891 " fill="none" id="Controller-backto-ResumeController" style="stroke:#A80036;stroke-width:1.0;"/><polygon fill="none" points="1173.52,224.115,1191,212.14,1184.81,232.403,1173.52,224.115" style="stroke:#A80036;stroke-width:1.0;"/><!--MD5=[c8984a8af7c12f8533ff397092c16636]
reverse link Controller to ShowBoardController--><path codeLine="49" d="M1142.6,192.447 C1100.56,196.188 1051.39,203.95 1038,220 C1007.54,256.519 1010.58,288.145 1038,327 C1076.84,382.042 1152.44,403.621 1210.93,411.977 " fill="none" id="Controller-backto-ShowBoardController" style="stroke:#A80036;stroke-width:1.0;"/><polygon fill="none" points="1142.3,185.449,1162.78,190.894,1143.38,199.408,1142.3,185.449" style="stroke:#A80036;stroke-width:1.0;"/><!--MD5=[30206d8ab718dc22cce9998c8e604def]
reverse link Controller to RedoController--><path codeLine="50" d="M1236.88,228.32 C1249.28,245.204 1263.34,264.349 1274.03,278.891 " fill="none" id="Controller-backto-RedoController" style="stroke:#A80036;stroke-width:1.0;"/><polygon fill="none" points="1231.19,232.403,1225,212.14,1242.48,224.115,1231.19,232.403" style="stroke:#A80036;stroke-width:1.0;"/><!--MD5=[5344b5a2a57f55ab983fda367ecdb5ef]
reverse link Controller to UndoController--><path codeLine="51" d="M1142.85,189.709 C1102.8,192.396 1051.39,200.01 1010,220 C981.432,233.796 955.601,259.846 939.217,278.895 " fill="none" id="Controller-backto-UndoController" style="stroke:#A80036;stroke-width:1.0;"/><polygon fill="none" points="1142.61,182.712,1162.94,188.703,1143.31,196.695,1142.61,182.712" style="stroke:#A80036;stroke-width:1.0;"/><!--MD5=[b4660ff7e828b23e4b17a715c63b2df8]
link StartController to ShowBoardController--><path codeLine="52" d="M1405.3326,334.1808 C1405.3326,334.1808 1355.64,370.175 1333.61,386.133 " fill="none" id="StartController-ShowBoardController" style="stroke:#A80036;stroke-width:1.0;"/><polygon fill="#A80036" points="1322.9,393.891,1332.535,391.8495,1326.9489,390.9573,1327.8411,385.3713,1322.9,393.891" style="stroke:#A80036;stroke-width:1.0;"/><line style="stroke:#A80036;stroke-width:1.0;" x1="1326.9489" x2="1333.43" y1="390.9573" y2="386.265"/><polygon fill="#A80036" points="1415.05,327.14,1407.8444,327.4213,1405.3326,334.1808,1412.5383,333.8995,1415.05,327.14" style="stroke:#A80036;stroke-width:1.0;"/><!--MD5=[217660a01a015992a9b7449ecc5eb003]
link ProposeController to ShowBoardController--><path codeLine="53" d="M1535.3301,330.9855 C1535.3301,330.9855 1419.14,371.89 1368.95,389.559 " fill="none" id="ProposeController-ShowBoardController" style="stroke:#A80036;stroke-width:1.0;"/><polygon fill="#A80036" points="1356.53,393.932,1366.3474,394.7184,1361.2466,392.2726,1363.6924,387.1718,1356.53,393.932" style="stroke:#A80036;stroke-width:1.0;"/><line style="stroke:#A80036;stroke-width:1.0;" x1="1361.2466" x2="1368.79" y1="392.2726" y2="389.615"/><polygon fill="#A80036" points="1546.65,327.003,1539.6626,325.221,1535.3301,330.9855,1542.3176,332.7676,1546.65,327.003" style="stroke:#A80036;stroke-width:1.0;"/><!--MD5=[2c52910148e9819c620d9e17d1681542]
link UndoController to ShowBoardController--><path codeLine="54" d="M993.9889,326.2935 C993.9889,326.2935 1139.53,370.739 1202.81,390.067 " fill="none" id="UndoController-ShowBoardController" style="stroke:#A80036;stroke-width:1.0;"/><polygon fill="#A80036" points="1215.58,393.966,1208.1354,387.5179,1210.7968,392.5096,1205.8051,395.1709,1215.58,393.966" style="stroke:#A80036;stroke-width:1.0;"/><line style="stroke:#A80036;stroke-width:1.0;" x1="1210.7968" x2="1203.145" y1="392.5096" y2="390.1685"/><polygon fill="#A80036" points="982.513,322.786,987.0818,328.3651,993.9889,326.2935,989.4201,320.7144,982.513,322.786" style="stroke:#A80036;stroke-width:1.0;"/><!--MD5=[da400dee44fe4cb18fcfe5f548bf9ae9]
link RedoController to ShowBoardController--><path codeLine="55" d="M1291,339.14 C1291,339.14 1291,367.677 1291,380.628 " fill="none" id="RedoController-ShowBoardController" style="stroke:#A80036;stroke-width:1.0;"/><polygon fill="#A80036" points="1291,393.891,1295,384.891,1291,388.891,1287,384.891,1291,393.891" style="stroke:#A80036;stroke-width:1.0;"/><line style="stroke:#A80036;stroke-width:1.0;" x1="1291" x2="1291" y1="388.891" y2="380.891"/><polygon fill="#A80036" points="1291,327.14,1287,333.14,1291,339.14,1295,333.14,1291,327.14" style="stroke:#A80036;stroke-width:1.0;"/><!--MD5=[2f10888865b2f559cc24db01ac34cee3]
reverse link Combination to ProposedCombination--><path codeLine="62" d="M1815.71,346.982 C1802.4,403.675 1795.44,427.534 1818,482 C1820.99,489.218 1825.84,495.856 1831.24,501.6461 " fill="none" id="Combination-backto-ProposedCombination" style="stroke:#A80036;stroke-width:1.0;"/><polygon fill="none" points="1808.92,345.264,1820.22,327.342,1822.56,348.402,1808.92,345.264" style="stroke:#A80036;stroke-width:1.0;"/><!--MD5=[ed81d3472c9069d2de3c2f5cd308846f]
reverse link Combination to SecretCombination--><path codeLine="63" d="M1866.97,341.999 C1882.8,359.198 1901,378.968 1914.73,393.891 " fill="none" id="Combination-backto-SecretCombination" style="stroke:#A80036;stroke-width:1.0;"/><polygon fill="none" points="1861.69,346.596,1853.3,327.14,1871.99,337.116,1861.69,346.596" style="stroke:#A80036;stroke-width:1.0;"/><!--MD5=[e0b5d9907fda64872c10fd6493e0c51f]
link Board to ProposedCombination--><path codeLine="72" d="M1908.5664,324.9061 C1908.5664,324.9061 1903.84,326.475 1902,327 C1889.7,330.509 1853.39,325.347 1845,335 C1807.99,377.561 1827.33,447.627 1844.41,489.736 " fill="none" id="Board-ProposedCombination" style="stroke:#A80036;stroke-width:1.0;"/><polygon fill="#A80036" points="1849.57,501.8455,1849.7194,491.9978,1847.6088,497.2462,1842.3604,495.1356,1849.57,501.8455" style="stroke:#A80036;stroke-width:1.0;"/><line style="stroke:#A80036;stroke-width:1.0;" x1="1847.6088" x2="1844.475" y1="497.2462" y2="489.8865"/><polygon fill="#A80036" points="1919.81,320.713,1912.7905,319.0617,1908.5664,324.9061,1915.5859,326.5574,1919.81,320.713" style="stroke:#A80036;stroke-width:1.0;"/><!--MD5=[5e915b8ab835b2366405aaf6901e131b]
link Board to SecretCombination--><path codeLine="73" d="M1948.4203,338.9903 C1948.4203,338.9903 1943.81,367.987 1941.73,381.041 " fill="none" id="Board-SecretCombination" style="stroke:#A80036;stroke-width:1.0;"/><polygon fill="#A80036" points="1939.68,393.891,1945.0459,385.6323,1940.4665,388.9532,1937.1455,384.3738,1939.68,393.891" style="stroke:#A80036;stroke-width:1.0;"/><line style="stroke:#A80036;stroke-width:1.0;" x1="1940.4665" x2="1941.725" y1="388.9532" y2="381.053"/><polygon fill="#A80036" points="1950.31,327.14,1945.4151,332.4352,1948.4203,338.9903,1953.3152,333.695,1950.31,327.14" style="stroke:#A80036;stroke-width:1.0;"/><!--MD5=[8dd95aff79c51151a18c835e3410b3cd]
link Board to Result--><path codeLine="74" d="M1999.8093,328.0697 C1999.8093,328.0697 2018.92,326.063 2026,335 C2060.82,378.963 2043.37,448.039 2027.62,489.676 " fill="none" id="Board-Result" style="stroke:#A80036;stroke-width:1.0;"/><polygon fill="#A80036" points="2022.74,501.9115,2029.7901,495.0343,2024.5927,497.2674,2022.3596,492.07,2022.74,501.9115" style="stroke:#A80036;stroke-width:1.0;"/><line style="stroke:#A80036;stroke-width:1.0;" x1="2024.5927" x2="2027.555" y1="497.2674" y2="489.8365"/><polygon fill="#A80036" points="1988.13,325.314,1993.0511,330.5849,1999.8093,328.0697,1994.8882,322.7987,1988.13,325.314" style="stroke:#A80036;stroke-width:1.0;"/><!--MD5=[f874647c3c9f57491b6e7b7bf233051a]
link SecretCombination to Result--><path codeLine="75" d="M1952.49,442 C1964.16,458.279 1979.87,480.187 1992.22,497.408 " fill="none" id="SecretCombination-to-Result" style="stroke:#A80036;stroke-width:1.0;stroke-dasharray:7.0,7.0;"/><polygon fill="#A80036" points="1995.28,501.6784,1993.2951,492.0316,1992.3701,497.6124,1986.7894,496.6874,1995.28,501.6784" style="stroke:#A80036;stroke-width:1.0;"/><!--MD5=[324ce3fbc91b6fad145775bb65621994]
link SecretCombination to ProposedCombination--><path codeLine="76" d="M1919.73,442 C1908.21,458.279 1892.71,480.187 1880.52,497.408 " fill="none" id="SecretCombination-to-ProposedCombination" style="stroke:#A80036;stroke-width:1.0;stroke-dasharray:7.0,7.0;"/><polygon fill="#A80036" points="1877.5,501.6784,1885.9613,496.6379,1880.3861,497.5954,1879.4285,492.0202,1877.5,501.6784" style="stroke:#A80036;stroke-width:1.0;"/><!--MD5=[fd4dadafb7dfafd89665a9151015bafc]
link views to controllers--><path d="M795.5529,73.9705 C795.9252,73.9694 796.3091,73.9683 796.7045,73.9671 C797.4954,73.9648 798.3325,73.9625 799.215,73.9601 C806.2748,73.9408 816.2395,73.9186 828.7007,73.9036 C853.623,73.8735 888.5311,73.8719 930.1567,73.9791 C1013.408,74.1935 1123.5296,74.8429 1234.3765,76.5699 C1456.0703,80.0238 1680.665,87.7875 1699,105 C1702.2325,108.0346 1704.7994,111.5367 1706.8144,115.3486 C1707.3182,116.3015 1707.7875,117.2739 1708.224,118.2631 C1708.4423,118.7577 1708.6524,119.2565 1708.8546,119.7593 C1708.9557,120.0106 1709.0547,120.263 1709.1519,120.5163 C1709.2004,120.6429 1709.2485,120.7698 1709.2961,120.8969 " fill="none" id="views-to-controllers" style="stroke:#A80036;stroke-width:1.0;stroke-dasharray:7.0,7.0;"/><polygon fill="#A80036" points="1709.2961,120.8969,1709.8868,111.0658,1707.5431,116.2143,1702.3946,113.8706,1709.2961,120.8969" style="stroke:#A80036;stroke-width:1.0;"/><!--MD5=[6bfde5656e7ece32836aeea1e9e8a819]
link controllers to models--><path d="M1715.648,189.1087 C1715.8709,189.1119 1716.0977,189.1151 1716.3286,189.1184 C1718.1751,189.1449 1720.2752,189.1764 1722.6103,189.2138 C1731.9507,189.3631 1745.0501,189.6045 1760.7152,189.9791 C1792.0453,190.7284 1833.6381,192.0106 1875.9463,194.155 C1960.5625,198.4438 2048.04,206.181 2062,220 C2065.1513,223.1195 2067.6566,226.6859 2069.6262,230.5453 C2070.1186,231.5101 2070.5775,232.4933 2071.0047,233.4923 C2071.2182,233.9919 2071.4239,234.4954 2071.6218,235.0025 C2071.7208,235.2561 2071.8178,235.5106 2071.9129,235.766 " fill="none" id="controllers-to-models" style="stroke:#A80036;stroke-width:1.0;stroke-dasharray:7.0,7.0;"/><polygon fill="#A80036" points="2071.9129,235.766,2072.52,225.9359,2070.1677,231.0805,2065.0231,228.7282,2071.9129,235.766" style="stroke:#A80036;stroke-width:1.0;"/><!--MD5=[a47103ae2ffafd08434d69e1e4d1349a]
link views to types--><path d="M795.1476,73.9617 C795.8134,73.959 796.5185,73.9561 797.2622,73.9532 C803.2116,73.9301 811.6342,73.9025 822.2304,73.8808 C843.4226,73.8375 873.3089,73.818 909.4918,73.9054 C981.8577,74.0803 1079.4103,74.6832 1182.9709,76.3794 C1390.092,79.7718 1621.245,87.5375 1723,105 C1889.8,133.624 1972.87,94.134 2086,220 C2115.395,252.7045 2125.545,300.9385 2128.2725,341.4925 C2128.443,344.0271 2128.5844,346.5318 2128.6998,349.0007 C2128.7287,349.6179 2128.7559,350.233 2128.7815,350.8457 " fill="none" id="views-to-types" style="stroke:#A80036;stroke-width:1.0;stroke-dasharray:7.0,7.0;"/><polygon fill="#A80036" points="2128.7815,350.8457,2132.4019,341.6864,2128.5726,345.85,2124.4089,342.0206,2128.7815,350.8457" style="stroke:#A80036;stroke-width:1.0;"/><!--MD5=[9da2d375dc0417b2d3724b966d4c0d45]
link models to types--><path d="M2078.0643,320.2722 C2078.1414,320.4278 2078.2189,320.5842 2078.2968,320.7414 C2078.6085,321.3704 2078.9269,322.0127 2079.2514,322.6675 C2084.4441,333.1449 2091.2281,346.8336 2098.0113,360.5206 C2104.7944,374.2077 2111.5766,387.8932 2116.7655,398.3642 C2117.0898,399.0186 2117.4079,399.6605 2117.7193,400.289 C2117.7972,400.4462 2117.8747,400.6025 2117.9517,400.7579 " fill="none" id="models-to-types" style="stroke:#A80036;stroke-width:1.0;stroke-dasharray:7.0,7.0;"/><polygon fill="#A80036" points="2117.9517,400.7579,2117.5396,390.9177,2115.7316,396.2778,2110.3715,394.4698,2117.9517,400.7579" style="stroke:#A80036;stroke-width:1.0;"/><!--MD5=[ee99ccc37f1426f41276a8bee7bc2c86]
@startuml
package views {
    class PlayerView
    class StartView
    class ProposeView
    class ResumeView
    class BoardView
    class ProposedCombinationView
    class SecretCombinationView
    class ResultView
    class ColorView
    enum Message
    class ErrorView
    class MenuView
}

PlayerView *-down-> StartView
PlayerView *-down-> ProposeView
PlayerView *-down-> ResumeView
StartView .down.> BoardView
ProposeView .down.> BoardView
BoardView .down.> ProposedCombinationView
BoardView .down.> ResultView
BoardView .down.> Message
BoardView .down.> SecretCombinationView
ProposedCombinationView .down.> ColorView
ProposedCombinationView .down.> ErrorView
ProposedCombinationView .down.> Message
ResultView .down.> Message
StartView .down.> Message
ResumeView .down.> Message
ProposeView .down.> Message
ProposeView .down.> MenuView
MenuView .down.> ProposedCombinationView
MenuView .down.> Message

package controllers {
    abstract class Controller
    class StartController
    class ProposeController
    class ResumeController
    class ShowBoardController
    class UndoController
    class RedoController
}

Controller <|- - StartController
Controller <|- - ProposeController
Controller <|- - ResumeController
Controller <|- - ShowBoardController
Controller <|- - RedoController
Controller <|- - UndoController
StartController *-down-> ShowBoardController
ProposeController *-down-> ShowBoardController
UndoController *-down-> ShowBoardController
RedoController *-down-> ShowBoardController

package models {
    class Board
    class Combination
    class ProposedCombination
    class SecretCombination
    Combination <|- - ProposedCombination
    Combination <|- - SecretCombination
    class Result
}

package types {
    enum Color
    enum Error
}

Board *-down-> ProposedCombination
Board *-down-> SecretCombination
Board *-down-> Result
SecretCombination .down.> Result
SecretCombination .down.> ProposedCombination

views .down.> controllers
controllers .down.> models
views .down.> types
models .down.> types
@enduml

PlantUML version 1.2021.4beta1(Unknown compile time)
(GPL source distribution)
Java Runtime: Java(TM) SE Runtime Environment
JVM: Java HotSpot(TM) 64-Bit Server VM
Default Encoding: UTF-8
Language: en
Country: US
--></g></svg>