<?xml version="1.0" encoding="UTF-8" standalone="no"?><svg xmlns="http://www.w3.org/2000/svg" xmlns:xlink="http://www.w3.org/1999/xlink" contentScriptType="application/ecmascript" contentStyleType="text/css" height="1367px" preserveAspectRatio="none" style="width:1575px;height:1367px;" version="1.1" viewBox="0 0 1575 1367" width="1575px" zoomAndPan="magnify"><defs><filter height="300%" id="f16os08lccexsg" width="300%" x="-1" y="-1"><feGaussianBlur result="blurOut" stdDeviation="2.0"/><feColorMatrix in="blurOut" result="blurOut2" type="matrix" values="0 0 0 0 0 0 0 0 0 0 0 0 0 0 0 0 0 0 .4 0"/><feOffset dx="4.0" dy="4.0" in="blurOut2" result="blurOut3"/><feBlend in="SourceGraphic" in2="blurOut3" mode="normal"/></filter></defs><g><!--MD5=[e2a75efa8a0f57c2afae8bf75386f79c]
cluster views--><polygon fill="#FFFFFF" filter="url(#f16os08lccexsg)" points="606.6333,170.5,657.6333,170.5,664.6333,192.7969,1511.6303,192.7969,1511.6303,762.5,606.6333,762.5,606.6333,170.5" style="stroke:#000000;stroke-width:1.5;"/><line style="stroke:#000000;stroke-width:1.5;" x1="606.6333" x2="664.6333" y1="192.7969" y2="192.7969"/><text fill="#000000" font-family="sans-serif" font-size="14" font-weight="bold" lengthAdjust="spacing" textLength="45" x="610.6333" y="185.4951">views</text><!--MD5=[f4e70ef68289585296b9045165e58692]
cluster controllers--><polygon fill="#FFFFFF" filter="url(#f16os08lccexsg)" points="225.6333,670.5,320.6333,670.5,327.6333,692.7969,367.6333,692.7969,367.6333,769.5,225.6333,769.5,225.6333,670.5" style="stroke:#000000;stroke-width:1.5;"/><line style="stroke:#000000;stroke-width:1.5;" x1="225.6333" x2="327.6333" y1="692.7969" y2="692.7969"/><text fill="#000000" font-family="sans-serif" font-size="14" font-weight="bold" lengthAdjust="spacing" textLength="89" x="229.6333" y="685.4951">controllers</text><!--MD5=[a60570e4b426f702ccbb0d459e3b9417]
cluster models--><polygon fill="#FFFFFF" filter="url(#f16os08lccexsg)" points="127.6333,961.5,191.6333,961.5,198.6333,983.7969,450.6333,983.7969,450.6333,1228.5,127.6333,1228.5,127.6333,961.5" style="stroke:#000000;stroke-width:1.5;"/><line style="stroke:#000000;stroke-width:1.5;" x1="127.6333" x2="198.6333" y1="983.7969" y2="983.7969"/><text fill="#000000" font-family="sans-serif" font-size="14" font-weight="bold" lengthAdjust="spacing" textLength="58" x="131.6333" y="976.4951">models</text><!--MD5=[67cd15ce44b6dd54f77054b62c31bf42]
cluster types--><polygon fill="#FFFFFF" filter="url(#f16os08lccexsg)" points="522.6333,1261.5,573.6333,1261.5,580.6333,1283.7969,604.6333,1283.7969,604.6333,1360.5,522.6333,1360.5,522.6333,1261.5" style="stroke:#000000;stroke-width:1.5;"/><line style="stroke:#000000;stroke-width:1.5;" x1="522.6333" x2="580.6333" y1="1283.7969" y2="1283.7969"/><text fill="#000000" font-family="sans-serif" font-size="14" font-weight="bold" lengthAdjust="spacing" textLength="45" x="526.6333" y="1276.4951">types</text><rect fill="#FEFECE" filter="url(#f16os08lccexsg)" height="33.9688" style="stroke:#A80036;stroke-width:1.5;" width="93" x="867.1333" y="205.5"/><text fill="#000000" font-family="sans-serif" font-size="12" lengthAdjust="spacing" textLength="79" x="874.1333" y="218.6387">ProposeView</text><line style="stroke:#A80036;stroke-width:1.5;" x1="868.1333" x2="959.1333" y1="223.4688" y2="223.4688"/><rect fill="#FEFECE" filter="url(#f16os08lccexsg)" height="33.9688" style="stroke:#A80036;stroke-width:1.5;" width="69" x="1067.1303" y="712.5"/><text fill="#000000" font-family="sans-serif" font-size="12" lengthAdjust="spacing" textLength="55" x="1074.1303" y="725.6387">Message</text><line style="stroke:#A80036;stroke-width:1.5;" x1="1068.1303" x2="1135.1303" y1="730.4688" y2="730.4688"/><rect fill="#FEFECE" filter="url(#f16os08lccexsg)" height="33.9688" style="stroke:#A80036;stroke-width:1.5;" width="79" x="993.1333" y="338.5"/><text fill="#000000" font-family="sans-serif" font-size="12" lengthAdjust="spacing" textLength="65" x="1000.1333" y="351.6387">BoardView</text><line style="stroke:#A80036;stroke-width:1.5;" x1="994.1333" x2="1071.1333" y1="356.4688" y2="356.4688"/><rect fill="#FEFECE" filter="url(#f16os08lccexsg)" height="33.9688" style="stroke:#A80036;stroke-width:1.5;" width="157" x="981.1333" y="511.5"/><text fill="#000000" font-family="sans-serif" font-size="12" lengthAdjust="spacing" textLength="143" x="988.1333" y="524.6387">SecretCombinationView</text><line style="stroke:#A80036;stroke-width:1.5;" x1="982.1333" x2="1137.1333" y1="529.4688" y2="529.4688"/><rect fill="#FEFECE" filter="url(#f16os08lccexsg)" height="33.9688" style="stroke:#A80036;stroke-width:1.5;" width="175" x="623.1333" y="511.5"/><text fill="#000000" font-family="sans-serif" font-size="12" lengthAdjust="spacing" textLength="161" x="630.1333" y="524.6387">ProposedCombinationView</text><line style="stroke:#A80036;stroke-width:1.5;" x1="624.1333" x2="797.1333" y1="529.4688" y2="529.4688"/><rect fill="#FEFECE" filter="url(#f16os08lccexsg)" height="33.9688" style="stroke:#A80036;stroke-width:1.5;" width="79" x="1173.1303" y="511.5"/><text fill="#000000" font-family="sans-serif" font-size="12" lengthAdjust="spacing" textLength="65" x="1180.1303" y="524.6387">ResultView</text><line style="stroke:#A80036;stroke-width:1.5;" x1="1174.1303" x2="1251.1303" y1="529.4688" y2="529.4688"/><rect fill="#FEFECE" filter="url(#f16os08lccexsg)" height="33.9688" style="stroke:#A80036;stroke-width:1.5;" width="75" x="653.1333" y="712.5"/><text fill="#000000" font-family="sans-serif" font-size="12" lengthAdjust="spacing" textLength="61" x="660.1333" y="725.6387">ColorView</text><line style="stroke:#A80036;stroke-width:1.5;" x1="654.1333" x2="727.1333" y1="730.4688" y2="730.4688"/><rect fill="#FEFECE" filter="url(#f16os08lccexsg)" height="33.9688" style="stroke:#A80036;stroke-width:1.5;" width="75" x="762.1333" y="412.5"/><text fill="#000000" font-family="sans-serif" font-size="12" lengthAdjust="spacing" textLength="61" x="769.1333" y="425.6387">MenuView</text><line style="stroke:#A80036;stroke-width:1.5;" x1="763.1333" x2="836.1333" y1="430.4688" y2="430.4688"/><rect fill="#FEFECE" filter="url(#f16os08lccexsg)" height="47.9375" style="stroke:#A80036;stroke-width:1.5;" width="109" x="242.1333" y="705.5"/><text fill="#000000" font-family="sans-serif" font-size="12" lengthAdjust="spacing" textLength="89" x="252.1333" y="718.6387">undoController</text><text fill="#000000" font-family="sans-serif" font-size="12" lengthAdjust="spacing" textLength="95" x="249.1333" y="732.6074">:UndoController</text><line style="stroke:#A80036;stroke-width:1.5;" x1="243.1333" x2="350.1333" y1="737.4375" y2="737.4375"/><rect fill="#FEFECE" filter="url(#f16os08lccexsg)" height="33.9688" style="stroke:#A80036;stroke-width:1.5;" width="50" x="229.6333" y="999"/><text fill="#000000" font-family="sans-serif" font-size="12" lengthAdjust="spacing" textLength="36" x="236.6333" y="1012.1387">Board</text><line style="stroke:#A80036;stroke-width:1.5;" x1="230.6333" x2="278.6333" y1="1016.9688" y2="1016.9688"/><rect fill="#FEFECE" filter="url(#f16os08lccexsg)" height="33.9688" style="stroke:#A80036;stroke-width:1.5;" width="50" x="328.6333" y="1171.5"/><text fill="#000000" font-family="sans-serif" font-size="12" lengthAdjust="spacing" textLength="36" x="335.6333" y="1184.6387">Result</text><line style="stroke:#A80036;stroke-width:1.5;" x1="329.6333" x2="377.6333" y1="1189.4688" y2="1189.4688"/><rect fill="#FEFECE" filter="url(#f16os08lccexsg)" height="47.9375" style="stroke:#A80036;stroke-width:1.5;" width="150" x="143.6333" y="1164.5"/><text fill="#000000" font-family="sans-serif" font-size="12" lengthAdjust="spacing" textLength="134" x="151.6333" y="1177.6387">proposedCombination</text><text fill="#000000" font-family="sans-serif" font-size="12" lengthAdjust="spacing" textLength="136" x="150.6333" y="1191.6074">:ProposedCombination</text><line style="stroke:#A80036;stroke-width:1.5;" x1="144.6333" x2="292.6333" y1="1196.4375" y2="1196.4375"/><rect fill="#FEFECE" filter="url(#f16os08lccexsg)" height="47.9375" style="stroke:#A80036;stroke-width:1.5;" width="50" x="538.6333" y="1296.5"/><text fill="#000000" font-family="sans-serif" font-size="12" lengthAdjust="spacing" textLength="31" x="548.1333" y="1309.6387">color</text><text fill="#000000" font-family="sans-serif" font-size="12" lengthAdjust="spacing" textLength="36" x="545.6333" y="1323.6074">:Color</text><line style="stroke:#A80036;stroke-width:1.5;" x1="539.6333" x2="587.6333" y1="1328.4375" y2="1328.4375"/><!--MD5=[de2effd8dc5bf946a609466312d0f75f]
entity Player--><ellipse cx="913.6333" cy="14" fill="#FEFECE" filter="url(#f16os08lccexsg)" rx="8" ry="8" style="stroke:#A80036;stroke-width:1.5;"/><path d="M913.6333,22 L913.6333,49 M900.6333,30 L926.6333,30 M913.6333,49 L900.6333,64 M913.6333,49 L926.6333,64 " fill="none" filter="url(#f16os08lccexsg)" style="stroke:#A80036;stroke-width:1.5;"/><text fill="#000000" font-family="sans-serif" font-size="14" lengthAdjust="spacing" textLength="44" x="891.6333" y="82.4951">Player</text><!--MD5=[57e91100e1953bd1492d4aa882ac3550]
link Player to ProposeView--><path codeLine="30" d="M913.6333,85.82 C913.6333,121.43 913.6333,172.23 913.6333,200.48 " fill="none" id="Player-to-ProposeView" style="stroke:#A80036;stroke-width:1.0;"/><polygon fill="#A80036" points="913.6333,205.49,917.6333,196.49,913.6333,200.49,909.6333,196.49,913.6333,205.49" style="stroke:#A80036;stroke-width:1.0;"/><path d="M918.6333,120.5 L918.6333,145.5 L981.6333,145.5 L981.6333,130.5 L971.6333,120.5 L918.6333,120.5 " fill="#FBFB77" filter="url(#f16os08lccexsg)" style="stroke:#A80036;stroke-width:1.0;"/><path d="M971.6333,120.5 L971.6333,130.5 L981.6333,130.5 L971.6333,120.5 " fill="#FBFB77" style="stroke:#A80036;stroke-width:1.0;"/><text fill="#000000" font-family="sans-serif" font-size="13" lengthAdjust="spacing" textLength="42" x="924.6333" y="137.5669">undo()</text><!--MD5=[29c306805319960c0560bedfd82b8e40]
link ProposeView to BoardView--><path codeLine="34" d="M944.5543,239.54 C957.6623,247.37 972.4583,257.65 983.6333,269.5 C1001.4743,288.41 1015.4603,314.99 1023.8463,333.37 " fill="none" id="ProposeView-to-BoardView" style="stroke:#A80036;stroke-width:1.0;stroke-dasharray:7.0,7.0;"/><polygon fill="#A80036" points="1026.0613,338.33,1026.0356,328.4812,1024.0187,333.7663,1018.7336,331.7494,1026.0613,338.33" style="stroke:#A80036;stroke-width:1.0;"/><path d="M1015.6333,274.5 L1015.6333,299.5 L1173.6333,299.5 L1173.6333,284.5 L1163.6333,274.5 L1015.6333,274.5 " fill="#FBFB77" filter="url(#f16os08lccexsg)" style="stroke:#A80036;stroke-width:1.0;"/><path d="M1163.6333,274.5 L1163.6333,284.5 L1173.6333,284.5 L1163.6333,274.5 " fill="#FBFB77" style="stroke:#A80036;stroke-width:1.0;"/><text fill="#000000" font-family="sans-serif" font-size="13" lengthAdjust="spacing" textLength="137" x="1021.6333" y="291.5669">write(UndoController)</text><!--MD5=[00735f3197757a65864a5c2b48d80efb]
link BoardView to UndoController--><path codeLine="38" d="M993.1033,359.12 C825.3213,370.64 178.0333,419.196 119.6333,486.5 C55.2916,560.652 181.8343,656.9 252.9173,702.435 " fill="none" id="BoardView-to-UndoController" style="stroke:#A80036;stroke-width:1.0;stroke-dasharray:7.0,7.0;"/><polygon fill="#A80036" points="257.5163,705.36,252.0685,697.155,253.2972,702.6768,247.7754,703.9055,257.5163,705.36" style="stroke:#A80036;stroke-width:1.0;"/><path d="M124.6333,491.5 L124.6333,561.5 L407.6333,561.5 L407.6333,501.5 L397.6333,491.5 L124.6333,491.5 " fill="#FBFB77" filter="url(#f16os08lccexsg)" style="stroke:#A80036;stroke-width:1.0;"/><path d="M397.6333,491.5 L397.6333,501.5 L407.6333,501.5 L397.6333,491.5 " fill="#FBFB77" style="stroke:#A80036;stroke-width:1.0;"/><text fill="#000000" font-family="sans-serif" font-size="13" lengthAdjust="spacing" textLength="91" x="130.6333" y="508.5669">getAttempts()</text><text fill="#000000" font-family="sans-serif" font-size="13" lengthAdjust="spacing" textLength="262" x="130.6333" y="523.6997">getProposedCombinationColors(position)</text><text fill="#000000" font-family="sans-serif" font-size="13" lengthAdjust="spacing" textLength="121" x="130.6333" y="538.8325">getBlacks(position)</text><text fill="#000000" font-family="sans-serif" font-size="13" lengthAdjust="spacing" textLength="125" x="130.6333" y="553.9653">getWhites(position)</text><!--MD5=[02a16ebf8539d2e5d44c3be387606aac]
link BoardView to Message--><path codeLine="45" d="M1072.2303,357.01 C1142.7203,358.83 1285.6003,366.93 1317.6303,402.5 C1336.3903,423.326 1345.1003,631.818 1328.6303,654.5 C1285.7903,713.527 1194.6003,726.371 1141.7703,728.633 " fill="none" id="BoardView-to-Message" style="stroke:#A80036;stroke-width:1.0;stroke-dasharray:7.0,7.0;"/><polygon fill="#A80036" points="1136.4603,728.83,1145.6026,732.493,1141.4569,728.6443,1145.3055,724.4985,1136.4603,728.83" style="stroke:#A80036;stroke-width:1.0;"/><path d="M1341.6303,514 L1341.6303,539 L1463.6303,539 L1463.6303,524 L1453.6303,514 L1341.6303,514 " fill="#FBFB77" filter="url(#f16os08lccexsg)" style="stroke:#A80036;stroke-width:1.0;"/><path d="M1453.6303,514 L1453.6303,524 L1463.6303,524 L1453.6303,514 " fill="#FBFB77" style="stroke:#A80036;stroke-width:1.0;"/><text fill="#000000" font-family="sans-serif" font-size="13" lengthAdjust="spacing" textLength="101" x="1347.6303" y="531.0669">write(attempts)</text><!--MD5=[5418e21908cb409c36d98acf7a0f9cb6]
link BoardView to SecretCombinationView--><path codeLine="49" d="M1029.9103,372.62 C1027.0553,392.551 1023.7363,427.391 1029.6333,456.5 C1033.2383,474.293 1041.4503,493.166 1048.3703,506.979 " fill="none" id="BoardView-to-SecretCombinationView" style="stroke:#A80036;stroke-width:1.0;stroke-dasharray:7.0,7.0;"/><polygon fill="#A80036" points="1050.6603,511.46,1050.1302,501.6254,1048.3866,507.0069,1043.0052,505.2633,1050.6603,511.46" style="stroke:#A80036;stroke-width:1.0;"/><path d="M1034.6333,415 L1034.6333,440 L1097.6333,440 L1097.6333,425 L1087.6333,415 L1034.6333,415 " fill="#FBFB77" filter="url(#f16os08lccexsg)" style="stroke:#A80036;stroke-width:1.0;"/><path d="M1087.6333,415 L1087.6333,425 L1097.6333,425 L1087.6333,415 " fill="#FBFB77" style="stroke:#A80036;stroke-width:1.0;"/><text fill="#000000" font-family="sans-serif" font-size="13" lengthAdjust="spacing" textLength="42" x="1040.6333" y="432.0669">write()</text><!--MD5=[d0c6e2bebacb85fe1d099bc6a8097bbc]
link SecretCombinationView to Message--><path codeLine="53" d="M1052.2403,545.772 C1042.2603,570.103 1027.2083,617.106 1040.6303,654.5 C1048.2403,675.699 1064.8503,695.157 1078.8103,708.795 " fill="none" id="SecretCombinationView-to-Message" style="stroke:#A80036;stroke-width:1.0;stroke-dasharray:7.0,7.0;"/><polygon fill="#A80036" points="1082.6703,712.484,1078.9126,703.3802,1079.05,709.0354,1073.3948,709.1727,1082.6703,712.484" style="stroke:#A80036;stroke-width:1.0;"/><path d="M1045.6303,613 L1045.6303,638 L1108.6303,638 L1108.6303,623 L1098.6303,613 L1045.6303,613 " fill="#FBFB77" filter="url(#f16os08lccexsg)" style="stroke:#A80036;stroke-width:1.0;"/><path d="M1098.6303,613 L1098.6303,623 L1108.6303,623 L1098.6303,613 " fill="#FBFB77" style="stroke:#A80036;stroke-width:1.0;"/><text fill="#000000" font-family="sans-serif" font-size="13" lengthAdjust="spacing" textLength="42" x="1051.6303" y="630.0669">write()</text><!--MD5=[b92bc89b5449472b10f1cf1477809057]
link BoardView to ProposedCombinationView--><path codeLine="57" d="M992.9833,366.71 C966.6363,374.42 931.8333,386.433 903.6333,402.5 C871.0003,421.092 869.6343,435.299 838.6333,456.5 C809.5073,476.419 774.3183,495.619 748.2133,509.018 " fill="none" id="BoardView-to-ProposedCombinationView" style="stroke:#A80036;stroke-width:1.0;stroke-dasharray:7.0,7.0;"/><polygon fill="#A80036" points="743.4483,511.452,753.2828,510.9206,747.9011,509.1777,749.644,503.796,743.4483,511.452" style="stroke:#A80036;stroke-width:1.0;"/><path d="M908.6333,415 L908.6333,440 L1009.6333,440 L1009.6333,425 L999.6333,415 L908.6333,415 " fill="#FBFB77" filter="url(#f16os08lccexsg)" style="stroke:#A80036;stroke-width:1.0;"/><path d="M999.6333,415 L999.6333,425 L1009.6333,425 L999.6333,415 " fill="#FBFB77" style="stroke:#A80036;stroke-width:1.0;"/><text fill="#000000" font-family="sans-serif" font-size="13" lengthAdjust="spacing" textLength="80" x="914.6333" y="432.0669">write(colors)</text><!--MD5=[54923e7f1f8105ab44ef05f41a7d666e]
link ProposedCombinationView to ColorView--><path codeLine="61" d="M692.6613,545.567 C679.3033,558.797 662.1453,578.845 654.6333,600.5 C641.7413,637.662 661.9603,682.061 676.9243,707.6 " fill="none" id="ProposedCombinationView-to-ColorView" style="stroke:#A80036;stroke-width:1.0;stroke-dasharray:7.0,7.0;"/><polygon fill="#A80036" points="679.6483,712.143,678.4531,702.3669,677.0781,707.8541,671.5909,706.4792,679.6483,712.143" style="stroke:#A80036;stroke-width:1.0;"/><path d="M659.6333,613 L659.6333,638 L753.6333,638 L753.6333,623 L743.6333,613 L659.6333,613 " fill="#FBFB77" filter="url(#f16os08lccexsg)" style="stroke:#A80036;stroke-width:1.0;"/><path d="M743.6333,613 L743.6333,623 L753.6333,623 L743.6333,613 " fill="#FBFB77" style="stroke:#A80036;stroke-width:1.0;"/><text fill="#000000" font-family="sans-serif" font-size="13" lengthAdjust="spacing" textLength="73" x="665.6333" y="630.0669">write(color)</text><!--MD5=[54923e7f1f8105ab44ef05f41a7d666e]
link ProposedCombinationView to ColorView--><path codeLine="110" d="M728.6053,545.567 C741.9633,558.797 759.1213,578.845 766.6333,600.5 C774.4993,623.174 775.9653,632.389 766.6333,654.5 C757.1273,677.023 737.0443,696.086 719.9093,709.221 " fill="none" id="ProposedCombinationView-to-ColorView-1" style="stroke:#A80036;stroke-width:1.0;stroke-dasharray:7.0,7.0;"/><polygon fill="#A80036" points="715.6243,712.431,725.2252,710.2348,719.6255,709.4326,720.4277,703.8329,715.6243,712.431" style="stroke:#A80036;stroke-width:1.0;"/><path d="M778.6333,613 L778.6333,638 L838.6333,638 L838.6333,623 L828.6333,613 L778.6333,613 " fill="#FBFB77" filter="url(#f16os08lccexsg)" style="stroke:#A80036;stroke-width:1.0;"/><path d="M828.6333,613 L828.6333,623 L838.6333,623 L828.6333,613 " fill="#FBFB77" style="stroke:#A80036;stroke-width:1.0;"/><text fill="#000000" font-family="sans-serif" font-size="13" lengthAdjust="spacing" textLength="39" x="784.6333" y="630.0669">read()</text><!--MD5=[3c978e882819d5791a3d8cfa6d73d565]
link ColorView to Color--><path codeLine="65" d="M691.7873,746.511 C695.8563,811.781 705.2903,1062.96 625.6333,1245.5 C617.9793,1263.041 604.8173,1279.6565 592.5853,1292.6824 " fill="none" id="ColorView-to-Color" style="stroke:#A80036;stroke-width:1.0;stroke-dasharray:7.0,7.0;"/><polygon fill="#A80036" points="588.8253,1296.6067,597.9393,1292.8737,592.2837,1292.9957,592.1617,1287.3402,588.8253,1296.6067" style="stroke:#A80036;stroke-width:1.0;"/><!--MD5=[15f682a315f16673a58b132a229e1ff0]
link BoardView to ResultView--><path codeLine="66" d="M1067.1603,372.51 C1081.6103,380.264 1097.9603,390.506 1110.6303,402.5 C1131.5803,422.326 1128.7603,433.864 1146.6303,456.5 C1160.9303,474.609 1178.8503,493.686 1192.4003,507.5 " fill="none" id="BoardView-to-ResultView" style="stroke:#A80036;stroke-width:1.0;stroke-dasharray:7.0,7.0;"/><polygon fill="#A80036" points="1196.1003,511.252,1192.6243,502.0369,1192.5877,507.6937,1186.931,507.6571,1196.1003,511.252" style="stroke:#A80036;stroke-width:1.0;"/><path d="M1151.6303,415 L1151.6303,440 L1304.6303,440 L1304.6303,425 L1294.6303,415 L1151.6303,415 " fill="#FBFB77" filter="url(#f16os08lccexsg)" style="stroke:#A80036;stroke-width:1.0;"/><path d="M1294.6303,415 L1294.6303,425 L1304.6303,425 L1294.6303,415 " fill="#FBFB77" style="stroke:#A80036;stroke-width:1.0;"/><text fill="#000000" font-family="sans-serif" font-size="13" lengthAdjust="spacing" textLength="132" x="1157.6303" y="432.0669">write(blacks, whites)</text><!--MD5=[0e5df9184d8007a1cb9785d3f6966635]
link ResultView to Message--><path codeLine="70" d="M1198.2903,545.594 C1186.4003,559.469 1169.5703,580.389 1157.6303,600.5 C1136.5103,636.088 1118.6603,681.098 1109.1103,707.161 " fill="none" id="ResultView-to-Message" style="stroke:#A80036;stroke-width:1.0;stroke-dasharray:7.0,7.0;"/><polygon fill="#A80036" points="1107.3203,712.113,1114.1507,705.0175,1109.026,707.4129,1106.6306,702.2883,1107.3203,712.113" style="stroke:#A80036;stroke-width:1.0;"/><path d="M1162.6303,613 L1162.6303,638 L1315.6303,638 L1315.6303,623 L1305.6303,613 L1162.6303,613 " fill="#FBFB77" filter="url(#f16os08lccexsg)" style="stroke:#A80036;stroke-width:1.0;"/><path d="M1305.6303,613 L1305.6303,623 L1315.6303,623 L1305.6303,613 " fill="#FBFB77" style="stroke:#A80036;stroke-width:1.0;"/><text fill="#000000" font-family="sans-serif" font-size="13" lengthAdjust="spacing" textLength="132" x="1168.6303" y="630.0669">write(blacks, whites)</text><!--MD5=[94ec1fdffe7202e7b84ef5354cac5f75]
link UndoController to Board--><path codeLine="74" d="M241.7633,751.633 C227.4663,759.936 213.7953,771.029 205.6333,785.5 C170.6973,847.437 184.1403,877.715 205.6333,945.5 C211.5373,964.12 224.4273,982.058 235.5053,995.045 " fill="none" id="UndoController-to-Board" style="stroke:#A80036;stroke-width:1.0;"/><polygon fill="#A80036" points="238.8753,998.912,235.9775,989.4991,235.5902,995.1427,229.9466,994.7553,238.8753,998.912" style="stroke:#A80036;stroke-width:1.0;"/><path d="M210.6333,790.5 L210.6333,936.5 L493.6333,936.5 L493.6333,800.5 L483.6333,790.5 L210.6333,790.5 " fill="#FBFB77" filter="url(#f16os08lccexsg)" style="stroke:#A80036;stroke-width:1.0;"/><path d="M483.6333,790.5 L483.6333,800.5 L493.6333,800.5 L483.6333,790.5 " fill="#FBFB77" style="stroke:#A80036;stroke-width:1.0;"/><text fill="#000000" font-family="sans-serif" font-size="13" lengthAdjust="spacing" textLength="69" x="216.6333" y="807.5669">undoable()</text><text fill="#000000" font-family="sans-serif" font-size="13" lengthAdjust="spacing" textLength="66" x="216.6333" y="822.6997">redoable()</text><text fill="#000000" font-family="sans-serif" font-size="13" lengthAdjust="spacing" textLength="42" x="216.6333" y="837.8325">undo()</text><text fill="#000000" font-family="sans-serif" font-size="13" lengthAdjust="spacing" textLength="72" x="216.6333" y="852.9653">isFinished()</text><text fill="#000000" font-family="sans-serif" font-size="13" lengthAdjust="spacing" textLength="65" x="216.6333" y="868.0981">isWinner()</text><text fill="#000000" font-family="sans-serif" font-size="13" lengthAdjust="spacing" textLength="91" x="216.6333" y="883.231">getAttempts()</text><text fill="#000000" font-family="sans-serif" font-size="13" lengthAdjust="spacing" textLength="262" x="216.6333" y="898.3638">getProposedCombinationColors(position)</text><text fill="#000000" font-family="sans-serif" font-size="13" lengthAdjust="spacing" textLength="121" x="216.6333" y="913.4966">getBlacks(position)</text><text fill="#000000" font-family="sans-serif" font-size="13" lengthAdjust="spacing" textLength="125" x="216.6333" y="928.6294">getWhites(position)</text><!--MD5=[8dd95aff79c51151a18c835e3410b3cd]
link Board to Result--><path codeLine="86" d="M272.1324,1043.4648 C272.1324,1043.4648 281.6413,1058.604 285.6333,1065.5 C302.9643,1095.435 304.6863,1104.347 321.6333,1134.5 C326.3743,1142.936 331.7393,1151.993 336.7013,1160.192 " fill="none" id="Board-Result" style="stroke:#A80036;stroke-width:1.0;"/><polygon fill="#A80036" points="343.5653,1171.417,342.2823,1161.6521,340.9567,1167.1514,335.4574,1165.8258,343.5653,1171.417" style="stroke:#A80036;stroke-width:1.0;"/><line style="stroke:#A80036;stroke-width:1.0;" x1="340.9567" x2="336.7833" y1="1167.1514" y2="1160.326"/><polygon fill="#A80036" points="265.6163,1033.388,265.5154,1040.5984,272.1324,1043.4648,272.2332,1036.2544,265.6163,1033.388" style="stroke:#A80036;stroke-width:1.0;"/><path d="M326.6333,1070.5 L326.6333,1125.5 L422.6333,1125.5 L422.6333,1080.5 L412.6333,1070.5 L326.6333,1070.5 " fill="#FBFB77" filter="url(#f16os08lccexsg)" style="stroke:#A80036;stroke-width:1.0;"/><path d="M412.6333,1070.5 L412.6333,1080.5 L422.6333,1080.5 L412.6333,1070.5 " fill="#FBFB77" style="stroke:#A80036;stroke-width:1.0;"/><text fill="#000000" font-family="sans-serif" font-size="13" lengthAdjust="spacing" textLength="65" x="332.6333" y="1087.5669">isWinner()</text><text fill="#000000" font-family="sans-serif" font-size="13" lengthAdjust="spacing" textLength="71" x="332.6333" y="1102.6997">getBlacks()</text><text fill="#000000" font-family="sans-serif" font-size="13" lengthAdjust="spacing" textLength="75" x="332.6333" y="1117.8325">getWhites()</text><!--MD5=[e0b5d9907fda64872c10fd6493e0c51f]
link Board to ProposedCombination--><path codeLine="92" d="M218.3961,1029.7883 C218.3961,1029.7883 184.6243,1049.431 175.6333,1065.5 C160.6603,1092.263 165.3833,1105.597 175.6333,1134.5 C178.0593,1141.34 181.7853,1147.941 186.0513,1154.026 " fill="none" id="Board-ProposedCombination" style="stroke:#A80036;stroke-width:1.0;"/><polygon fill="#A80036" points="194.1483,1164.361,191.7471,1154.8093,191.0649,1160.4249,185.4494,1159.7427,194.1483,1164.361" style="stroke:#A80036;stroke-width:1.0;"/><line style="stroke:#A80036;stroke-width:1.0;" x1="191.0649" x2="186.1313" y1="1160.4249" y2="1154.127"/><polygon fill="#A80036" points="229.3823,1024.961,222.2801,1023.7125,218.3961,1029.7883,225.4983,1031.0367,229.3823,1024.961" style="stroke:#A80036;stroke-width:1.0;"/><path d="M180.6333,1078 L180.6333,1118 L272.6333,1118 L272.6333,1088 L262.6333,1078 L180.6333,1078 " fill="#FBFB77" filter="url(#f16os08lccexsg)" style="stroke:#A80036;stroke-width:1.0;"/><path d="M262.6333,1078 L262.6333,1088 L272.6333,1088 L262.6333,1078 " fill="#FBFB77" style="stroke:#A80036;stroke-width:1.0;"/><text fill="#000000" font-family="sans-serif" font-size="13" lengthAdjust="spacing" textLength="62" x="186.6333" y="1095.0669">getError()</text><text fill="#000000" font-family="sans-serif" font-size="13" lengthAdjust="spacing" textLength="71" x="186.6333" y="1110.1997">getColors()</text><!--MD5=[2d4500cc75f159eca4a02f9c13f05618]
link ProposedCombination to Color--><path codeLine="97" d="M271.2574,1218.1441 C271.2574,1218.1441 297.9603,1231.222 310.6333,1236.5 C385.0993,1267.515 475.6003,1294.8128 525.6763,1309.05 " fill="none" id="ProposedCombination-Color" style="stroke:#A80036;stroke-width:1.0;"/><polygon fill="#A80036" points="538.3863,1312.6295,530.8077,1306.3394,533.5735,1311.274,528.6389,1314.0398,538.3863,1312.6295" style="stroke:#A80036;stroke-width:1.0;"/><line style="stroke:#A80036;stroke-width:1.0;" x1="533.5735" x2="525.8738" y1="1311.274" y2="1309.1056"/><polygon fill="#A80036" points="260.5813,1212.665,264.093,1218.9633,271.2574,1218.1441,267.7457,1211.8459,260.5813,1212.665" style="stroke:#A80036;stroke-width:1.0;"/><!--MD5=[e8e56f95b2bfb8e03c3cdf9f0e0c50ee]
link Board to Color--><path codeLine="98" d="M279.6503,1016.809 C318.0263,1017.869 391.5943,1025.439 435.6333,1065.5 C498.7783,1122.941 460.0063,1171.543 502.6333,1245.5 C512.2773,1262.233 525.7063,1278.9955 537.5103,1292.3252 " fill="none" id="Board-to-Color" style="stroke:#A80036;stroke-width:1.0;stroke-dasharray:7.0,7.0;"/><polygon fill="#A80036" points="541.1153,1296.348,538.0885,1286.9758,537.7787,1292.6242,532.1303,1292.3144,541.1153,1296.348" style="stroke:#A80036;stroke-width:1.0;"/><!--MD5=[e43a722475f0cafdf7bf3c1c146cf90b]
link UndoController to Color--><path codeLine="99" d="M351.2013,737.705 C406.4523,746.188 486.5393,762.145 506.6333,785.5 C572.5713,862.137 567.6973,1192.158 564.6673,1291.2566 " fill="none" id="UndoController-to-Color" style="stroke:#A80036;stroke-width:1.0;stroke-dasharray:7.0,7.0;"/><polygon fill="#A80036" points="564.5063,1296.3514,568.7877,1287.4818,564.6637,1291.3539,560.7917,1287.2299,564.5063,1296.3514" style="stroke:#A80036;stroke-width:1.0;"/><!--MD5=[12f03c7f5abb6c3e068862197d6139ed]
link BoardView to Color--><path codeLine="100" d="M1072.3203,357.48 C1183.7403,360.59 1493.4603,371.92 1526.6303,402.5 C1568.1103,440.732 1548.6303,471.091 1548.6303,527.5 C1548.6303,527.5 1548.6303,527.5 1548.6303,1189.5 C1548.6303,1288.2561 760.3593,1314.3574 594.1643,1318.763 " fill="none" id="BoardView-to-Color" style="stroke:#A80036;stroke-width:1.0;stroke-dasharray:7.0,7.0;"/><polygon fill="#A80036" points="588.9713,1318.8989,598.0723,1322.6635,593.9696,1318.7689,597.8643,1314.6663,588.9713,1318.8989" style="stroke:#A80036;stroke-width:1.0;"/><!--MD5=[644d3bda32b13afd96f2f5d418a902c1]
link ProposedCombinationView to Color--><path codeLine="101" d="M690.9013,545.751 C675.8333,559.083 655.5293,579.178 642.6333,600.5 C611.5753,651.851 599.6333,668.487 599.6333,728.5 C599.6333,728.5 599.6333,728.5 599.6333,1189.5 C599.6333,1225.657 586.5393,1265.485 576.1453,1291.4056 " fill="none" id="ProposedCombinationView-to-Color" style="stroke:#A80036;stroke-width:1.0;stroke-dasharray:7.0,7.0;"/><polygon fill="#A80036" points="574.2403,1296.0796,581.3421,1289.2558,576.128,1291.4496,573.9342,1286.2355,574.2403,1296.0796" style="stroke:#A80036;stroke-width:1.0;"/><!--MD5=[846c85d35f4a93f43b9e7108f510cad0]
link MenuView to Message--><path codeLine="102" d="M805.1283,446.686 C815.9313,476.007 842.7723,537.887 886.6333,570.5 C927.6423,600.993 957.3823,569.013 997.6333,600.5 C1019.2583,617.416 1011.1003,632.581 1027.6333,654.5 C1042.8603,674.691 1063.4103,694.804 1078.9903,708.954 " fill="none" id="MenuView-to-Message" style="stroke:#A80036;stroke-width:1.0;stroke-dasharray:7.0,7.0;"/><polygon fill="#A80036" points="1082.8403,712.419,1078.8265,703.4251,1079.1238,709.0742,1073.4748,709.3715,1082.8403,712.419" style="stroke:#A80036;stroke-width:1.0;"/><path d="M891.6333,514 L891.6333,539 L954.6333,539 L954.6333,524 L944.6333,514 L891.6333,514 " fill="#FBFB77" filter="url(#f16os08lccexsg)" style="stroke:#A80036;stroke-width:1.0;"/><path d="M944.6333,514 L944.6333,524 L954.6333,524 L944.6333,514 " fill="#FBFB77" style="stroke:#A80036;stroke-width:1.0;"/><text fill="#000000" font-family="sans-serif" font-size="13" lengthAdjust="spacing" textLength="42" x="897.6333" y="531.0669">write()</text><!--MD5=[7bf6310e2078d439bcd0e6b6dd4bf7dc]
link ProposedCombinationView to Message--><path codeLine="106" d="M750.6653,545.619 C780.6973,558.523 822.2103,578.123 855.6333,600.5 C885.7203,620.644 885.8133,635.496 916.6333,654.5 C963.2703,683.257 1023.0153,704.757 1061.8003,716.971 " fill="none" id="ProposedCombinationView-to-Message" style="stroke:#A80036;stroke-width:1.0;stroke-dasharray:7.0,7.0;"/><polygon fill="#A80036" points="1066.8903,718.56,1059.4859,712.0658,1062.1163,717.0739,1057.1081,719.7043,1066.8903,718.56" style="stroke:#A80036;stroke-width:1.0;"/><path d="M921.6333,613 L921.6333,638 L984.6333,638 L984.6333,623 L974.6333,613 L921.6333,613 " fill="#FBFB77" filter="url(#f16os08lccexsg)" style="stroke:#A80036;stroke-width:1.0;"/><path d="M974.6333,613 L974.6333,623 L984.6333,623 L974.6333,613 " fill="#FBFB77" style="stroke:#A80036;stroke-width:1.0;"/><text fill="#000000" font-family="sans-serif" font-size="13" lengthAdjust="spacing" textLength="42" x="927.6333" y="630.0669">write()</text><!--MD5=[b11f90206b0761f5f4f9d2b1e5a5ffd5]
link ProposedCombinationView to UndoController--><path codeLine="114" d="M670.4023,545.558 C648.5443,553.844 620.8923,563.628 595.6333,570.5 C527.0853,589.15 497.8293,561.224 438.6333,600.5 C414.5983,616.447 422.8093,633.886 402.6333,654.5 C384.5323,672.993 361.2353,689.839 341.0933,702.77 " fill="none" id="ProposedCombinationView-to-UndoController" style="stroke:#A80036;stroke-width:1.0;stroke-dasharray:7.0,7.0;"/><polygon fill="#A80036" points="336.8453,705.469,346.5867,704.0184,341.0654,702.7875,342.2963,697.2662,336.8453,705.469" style="stroke:#A80036;stroke-width:1.0;"/><path d="M443.6333,605.5 L443.6333,645.5 L564.6333,645.5 L564.6333,615.5 L554.6333,605.5 L443.6333,605.5 " fill="#FBFB77" filter="url(#f16os08lccexsg)" style="stroke:#A80036;stroke-width:1.0;"/><path d="M554.6333,605.5 L554.6333,615.5 L564.6333,615.5 L554.6333,605.5 " fill="#FBFB77" style="stroke:#A80036;stroke-width:1.0;"/><text fill="#000000" font-family="sans-serif" font-size="13" lengthAdjust="spacing" textLength="100" x="449.6333" y="622.5669">getError(colors)</text><text fill="#000000" font-family="sans-serif" font-size="13" lengthAdjust="spacing" textLength="72" x="449.6333" y="637.6997">add(colors)</text><!--MD5=[84c13d6cae5784f87d05a1f16dcbadc1]
link ProposeView to UndoController--><path codeLine="119" d="M867.0033,226.06 C706.1173,235.97 178.5973,277.63 77.6333,402.5 C6,491.095 46.6602,571.431 124.6333,654.5 C154.4423,686.257 200.1633,705.042 236.9753,715.735 " fill="none" id="ProposeView-to-UndoController" style="stroke:#A80036;stroke-width:1.0;"/><polygon fill="#A80036" points="241.8773,717.127,234.3121,710.8209,237.0674,715.7613,232.127,718.5167,241.8773,717.127" style="stroke:#A80036;stroke-width:1.0;"/><path d="M82.6333,407.5 L82.6333,447.5 L175.6333,447.5 L175.6333,417.5 L165.6333,407.5 L82.6333,407.5 " fill="#FBFB77" filter="url(#f16os08lccexsg)" style="stroke:#A80036;stroke-width:1.0;"/><path d="M165.6333,407.5 L165.6333,417.5 L175.6333,417.5 L165.6333,407.5 " fill="#FBFB77" style="stroke:#A80036;stroke-width:1.0;"/><text fill="#000000" font-family="sans-serif" font-size="13" lengthAdjust="spacing" textLength="72" x="88.6333" y="424.5669">isFinished()</text><text fill="#000000" font-family="sans-serif" font-size="13" lengthAdjust="spacing" textLength="65" x="88.6333" y="439.6997">isWinner()</text><!--MD5=[2af68b46eeb5c2e46543eeb7557d9936]
link ProposeView to Message--><path codeLine="124" d="M960.6073,224.57 C1017.2733,227.35 1114.4103,236.96 1190.6303,269.5 C1338.6803,332.7 1408.5603,342.56 1480.6303,486.5 C1553.9203,632.865 1252.9203,701.812 1141.5803,721.972 " fill="none" id="ProposeView-to-Message" style="stroke:#A80036;stroke-width:1.0;stroke-dasharray:7.0,7.0;"/><polygon fill="#A80036" points="1136.4203,722.896,1145.9865,725.2386,1141.3412,722.0104,1144.5695,717.3651,1136.4203,722.896" style="stroke:#A80036;stroke-width:1.0;"/><path d="M1468.6303,415 L1468.6303,440 L1531.6303,440 L1531.6303,425 L1521.6303,415 L1468.6303,415 " fill="#FBFB77" filter="url(#f16os08lccexsg)" style="stroke:#A80036;stroke-width:1.0;"/><path d="M1521.6303,415 L1521.6303,425 L1531.6303,425 L1521.6303,415 " fill="#FBFB77" style="stroke:#A80036;stroke-width:1.0;"/><text fill="#000000" font-family="sans-serif" font-size="13" lengthAdjust="spacing" textLength="42" x="1474.6303" y="432.0669">write()</text><!--MD5=[7169228af196aecd88154fe1727a36de]
link Board to Board--><path codeLine="128" d="M279.9113,1001.788 C297.4063,997.481 314.6333,1002.219 314.6333,1016 C314.6333,1028.382 300.7283,1033.463 285.2153,1031.244 " fill="none" id="Board-to-Board" style="stroke:#A80036;stroke-width:1.0;stroke-dasharray:7.0,7.0;"/><polygon fill="#A80036" points="279.9113,1030.212,287.981,1035.8583,284.8191,1031.1676,289.5099,1028.0058,279.9113,1030.212" style="stroke:#A80036;stroke-width:1.0;"/><path d="M319.6333,1001.5 L319.6333,1026.5 L395.6333,1026.5 L395.6333,1011.5 L385.6333,1001.5 L319.6333,1001.5 " fill="#FBFB77" filter="url(#f16os08lccexsg)" style="stroke:#A80036;stroke-width:1.0;"/><path d="M385.6333,1001.5 L385.6333,1011.5 L395.6333,1011.5 L385.6333,1001.5 " fill="#FBFB77" style="stroke:#A80036;stroke-width:1.0;"/><text fill="#000000" font-family="sans-serif" font-size="13" lengthAdjust="spacing" textLength="55" x="325.6333" y="1018.5669">isLoser()</text><!--MD5=[9c3c49d2c46e41492ade90d337e2ed2e]
link ProposeView to MenuView--><path codeLine="132" d="M867.0523,230.83 C843.9633,237.05 818.0083,248.49 803.6333,269.5 C775.0723,311.25 785.3413,374.67 793.4903,407.368 " fill="none" id="ProposeView-to-MenuView" style="stroke:#A80036;stroke-width:1.0;stroke-dasharray:7.0,7.0;"/><polygon fill="#A80036" points="794.7743,412.343,796.3974,402.6288,793.5243,407.5018,788.6514,404.6287,794.7743,412.343" style="stroke:#A80036;stroke-width:1.0;"/><path d="M808.6333,274.5 L808.6333,299.5 L966.6333,299.5 L966.6333,284.5 L956.6333,274.5 L808.6333,274.5 " fill="#FBFB77" filter="url(#f16os08lccexsg)" style="stroke:#A80036;stroke-width:1.0;"/><path d="M956.6333,274.5 L956.6333,284.5 L966.6333,284.5 L956.6333,274.5 " fill="#FBFB77" style="stroke:#A80036;stroke-width:1.0;"/><text fill="#000000" font-family="sans-serif" font-size="13" lengthAdjust="spacing" textLength="137" x="814.6333" y="291.5669">write(UndoController)</text><!--MD5=[1c72537bfbab1e04487289dc6e74ec01]
link MenuView to UndoController--><path codeLine="136" d="M762.0443,429.74 C702.6763,430.174 585.3583,437.796 501.6333,486.5 C477.8123,500.357 365.8813,640.535 318.2143,700.991 " fill="none" id="MenuView-to-UndoController" style="stroke:#A80036;stroke-width:1.0;stroke-dasharray:7.0,7.0;"/><polygon fill="#A80036" points="314.8953,705.203,323.6072,700.6093,317.9898,701.2756,317.3234,695.6582,314.8953,705.203" style="stroke:#A80036;stroke-width:1.0;"/><path d="M506.6333,499 L506.6333,554 L596.6333,554 L596.6333,509 L586.6333,499 L506.6333,499 " fill="#FBFB77" filter="url(#f16os08lccexsg)" style="stroke:#A80036;stroke-width:1.0;"/><path d="M586.6333,499 L586.6333,509 L596.6333,509 L586.6333,499 " fill="#FBFB77" style="stroke:#A80036;stroke-width:1.0;"/><text fill="#000000" font-family="sans-serif" font-size="13" lengthAdjust="spacing" textLength="69" x="512.6333" y="516.0669">undoable()</text><text fill="#000000" font-family="sans-serif" font-size="13" lengthAdjust="spacing" textLength="66" x="512.6333" y="531.1997">redoable()</text><text fill="#000000" font-family="sans-serif" font-size="13" lengthAdjust="spacing" textLength="42" x="512.6333" y="546.3325">undo()</text><!--MD5=[347e0ae92f0cf18da06280247136ddc1]
@startuml
allow_mixing

actor Player

package views {
    object ProposeView
    object Message
    object BoardView
    object SecretCombinationView
    object ProposedCombinationView
    object ResultView
    object ColorView
    object MenuView
}

package controllers {
    object "undoController\n:UndoController" as UndoController
}

package models {
    object Board
    object Result
    object "proposedCombination\n:ProposedCombination" as ProposedCombination
}

package types {
    object "color\n:Color" as Color
}

Player -down-> ProposeView
note on link
    undo()
end note
ProposeView .down.> BoardView
note on link
    write(UndoController)
end note
BoardView .down.> UndoController
note on link
    getAttempts()
    getProposedCombinationColors(position)
    getBlacks(position)
    getWhites(position)
end note
BoardView .down.> Message
note on link
    write(attempts)
end note
BoardView .down.> SecretCombinationView
note on link
    write()
end note
SecretCombinationView .down.> Message
note on link
    write()
end note
BoardView .down.> ProposedCombinationView
note on link
    write(colors)
end note
ProposedCombinationView .down.> ColorView
note on link
    write(color)
end note
ColorView .down.> Color
BoardView .down.> ResultView
note on link
    write(blacks, whites)
end note
ResultView .down.> Message
note on link
    write(blacks, whites)
end note
UndoController -down-> Board
note on link
    undoable()
    redoable()
    undo()
    isFinished()
    isWinner()
    getAttempts()
    getProposedCombinationColors(position)
    getBlacks(position)
    getWhites(position)
end note
Board *-down-> Result
note on link
    isWinner()
    getBlacks()
    getWhites()
end note
Board *-down-> ProposedCombination
note on link
    getError()
    getColors()
end note
ProposedCombination *-down-> Color
Board .down.> Color
UndoController .down.> Color
BoardView .down.> Color
ProposedCombinationView .down.> Color
MenuView .down.> Message
note on link
    write()
end note
ProposedCombinationView .down.> Message
note on link
    write()
end note
ProposedCombinationView .down.> ColorView
note on link
    read()
end note
ProposedCombinationView .down.> UndoController
note on link
    getError(colors)
    add(colors)
end note
ProposeView -down-> UndoController
note on link
    isFinished()
    isWinner()
end note
ProposeView .down.> Message
note on link
    write()
end note
Board .down.> Board
note on link
    isLoser()
end note
ProposeView .down.> MenuView
note on link
    write(UndoController)
end note
MenuView .down.> UndoController
note on link
    undoable()
    redoable()
    undo()
end note
@enduml

PlantUML version 1.2021.4beta3(Unknown compile time)
(GPL source distribution)
Java Runtime: Java(TM) SE Runtime Environment
JVM: Java HotSpot(TM) 64-Bit Server VM
Default Encoding: UTF-8
Language: en
Country: US
--></g></svg>