<?xml version="1.0" encoding="UTF-8" standalone="no"?><svg xmlns="http://www.w3.org/2000/svg" xmlns:xlink="http://www.w3.org/1999/xlink" contentScriptType="application/ecmascript" contentStyleType="text/css" height="389px" preserveAspectRatio="none" style="width:367px;height:389px;" version="1.1" viewBox="0 0 367 389" width="367px" zoomAndPan="magnify"><defs><filter height="300%" id="f1gpy1a21ops8p" width="300%" x="-1" y="-1"><feGaussianBlur result="blurOut" stdDeviation="2.0"/><feColorMatrix in="blurOut" result="blurOut2" type="matrix" values="0 0 0 0 0 0 0 0 0 0 0 0 0 0 0 0 0 0 .4 0"/><feOffset dx="4.0" dy="4.0" in="blurOut2" result="blurOut3"/><feBlend in="SourceGraphic" in2="blurOut3" mode="normal"/></filter></defs><g><g id="attempts_shown"><rect fill="#FEFECE" filter="url(#f1gpy1a21ops8p)" height="50" rx="12.5" ry="12.5" style="stroke:#A80036;stroke-width:1.5;" width="50" x="7" y="103"/><line style="stroke:#A80036;stroke-width:1.5;" x1="7" x2="57" y1="129.2969" y2="129.2969"/><text fill="#000000" font-family="sans-serif" font-size="14" lengthAdjust="spacing" textLength="0" x="34" y="120.9951"/></g><g id="combinations_shown"><rect fill="#FEFECE" filter="url(#f1gpy1a21ops8p)" height="50" rx="12.5" ry="12.5" style="stroke:#A80036;stroke-width:1.5;" width="50" x="7" y="230"/><line style="stroke:#A80036;stroke-width:1.5;" x1="7" x2="57" y1="256.2969" y2="256.2969"/><text fill="#000000" font-family="sans-serif" font-size="14" lengthAdjust="spacing" textLength="0" x="34" y="247.9951"/></g><ellipse cx="32" cy="16" fill="#000000" filter="url(#f1gpy1a21ops8p)" rx="10" ry="10" style="stroke:none;stroke-width:1.0;"/><ellipse cx="32" cy="367" filter="url(#f1gpy1a21ops8p)" rx="10" ry="10" style="stroke:#000000;stroke-width:1.0;fill:none;"/><ellipse cx="32.5" cy="367.5" fill="#000000" rx="6" ry="6" style="stroke:none;stroke-width:1.0;"/><!--MD5=[468abefdebb2b4c77bfa7a638f6c4890]
link *start to attempts_shown--><path d="M32,26.002 C32,41.458 32,73.685 32,97.6 " fill="none" id="*start-to-attempts_shown" style="stroke:#A80036;stroke-width:1.0;"/><polygon fill="#A80036" points="32,102.873,36,93.873,32,97.873,28,93.873,32,102.873" style="stroke:#A80036;stroke-width:1.0;"/><text fill="#000000" font-family="sans-serif" font-size="13" lengthAdjust="spacing" textLength="157" x="33" y="69.0669">System shows attempts</text><!--MD5=[0ca90e86a7b8ece23fa80c99afd04211]
link attempts_shown to combinations_shown--><path d="M32,153.101 C32,173.593 32,203.076 32,224.884 " fill="none" id="attempts_shown-to-combinations_shown" style="stroke:#A80036;stroke-width:1.0;"/><polygon fill="#A80036" points="32,229.973,36,220.973,32,224.973,28,220.973,32,229.973" style="stroke:#A80036;stroke-width:1.0;"/><text fill="#000000" font-family="sans-serif" font-size="13" lengthAdjust="spacing" textLength="282" x="33" y="196.0669">System shows secret combination as "****"</text><!--MD5=[af80d56f3d1ceda3601f00ec1295c111]
link combinations_shown to *end--><path d="M32,280.14 C32,302.0338 32,333.5738 32,351.7062 " fill="none" id="combinations_shown-to-*end" style="stroke:#A80036;stroke-width:1.0;"/><polygon fill="#A80036" points="32,356.8775,36,347.8775,32,351.8775,28,347.8775,32,356.8775" style="stroke:#A80036;stroke-width:1.0;"/><text fill="#000000" font-family="sans-serif" font-size="13" lengthAdjust="spacing" textLength="326" x="33" y="323.0669">System shows proposed combinations with results</text><!--MD5=[a129cec3547cfc87ac03390bed763817]
@startuml
state attempts_shown as " "
state combinations_shown as " "
[*] - -> attempts_shown: System shows attempts
attempts_shown - -> combinations_shown: System shows secret combination as "****"
combinations_shown - -> [*]: System shows proposed combinations with results
@enduml

PlantUML version 1.2021.4beta2(Unknown compile time)
(GPL source distribution)
Java Runtime: Java(TM) SE Runtime Environment
JVM: Java HotSpot(TM) 64-Bit Server VM
Default Encoding: UTF-8
Language: en
Country: US
--></g></svg>