<?xml version="1.0" encoding="UTF-8" standalone="no"?><svg xmlns="http://www.w3.org/2000/svg" xmlns:xlink="http://www.w3.org/1999/xlink" contentScriptType="application/ecmascript" contentStyleType="text/css" height="1473px" preserveAspectRatio="none" style="width:934px;height:1473px;" version="1.1" viewBox="0 0 934 1473" width="934px" zoomAndPan="magnify"><defs><filter height="300%" id="f13vfpfyzegz7e" width="300%" x="-1" y="-1"><feGaussianBlur result="blurOut" stdDeviation="2.0"/><feColorMatrix in="blurOut" result="blurOut2" type="matrix" values="0 0 0 0 0 0 0 0 0 0 0 0 0 0 0 0 0 0 .4 0"/><feOffset dx="4.0" dy="4.0" in="blurOut2" result="blurOut3"/><feBlend in="SourceGraphic" in2="blurOut3" mode="normal"/></filter></defs><g><!--MD5=[464b8a121da435760d275ace2e6f7972]
cluster front--><polygon fill="#FFFFFF" filter="url(#f13vfpfyzegz7e)" points="540,339,588,339,595,361.2969,917,361.2969,917,960,540,960,540,339" style="stroke:#000000;stroke-width:1.5;"/><line style="stroke:#000000;stroke-width:1.5;" x1="540" x2="595" y1="361.2969" y2="361.2969"/><text fill="#000000" font-family="sans-serif" font-size="14" font-weight="bold" lengthAdjust="spacing" textLength="42" x="544" y="353.9951">front</text><text fill="#000000" font-family="sans-serif" font-size="14" font-style="italic" lengthAdjust="spacing" textLength="96" x="684.5" y="376.292">«angular:11»</text><!--MD5=[64daa5a824998c700cfb188d1583c07e]
cluster analysis--><polygon fill="#FFFFFF" filter="url(#f13vfpfyzegz7e)" points="308,6,381,6,388,28.2969,467,28.2969,467,596,308,596,308,6" style="stroke:#000000;stroke-width:1.5;"/><line style="stroke:#000000;stroke-width:1.5;" x1="308" x2="388" y1="28.2969" y2="28.2969"/><text fill="#000000" font-family="sans-serif" font-size="14" font-weight="bold" lengthAdjust="spacing" textLength="67" x="312" y="20.9951">analysis</text><!--MD5=[47c14c564e796a575e671c2b0469a7bb]
cluster backend--><polygon fill="#FFFFFF" filter="url(#f13vfpfyzegz7e)" points="268,993,341,993,348,1015.2969,579,1015.2969,579,1466,268,1466,268,993" style="stroke:#000000;stroke-width:1.5;"/><line style="stroke:#000000;stroke-width:1.5;" x1="268" x2="348" y1="1015.2969" y2="1015.2969"/><text fill="#000000" font-family="sans-serif" font-size="14" font-weight="bold" lengthAdjust="spacing" textLength="67" x="272" y="1007.9951">backend</text><text fill="#000000" font-family="sans-serif" font-size="14" font-style="italic" lengthAdjust="spacing" textLength="102" x="376.5" y="1030.292">«spring:5.3.5»</text><!--MD5=[e1959f9d6eaaeb2bbab4621b2f4b0ce0]
entity XTemplate--><path d="M644.5,410.2969 L644.5,434.2969 M644.5,422.2969 L661.5,422.2969 " fill="none" filter="url(#f13vfpfyzegz7e)" style="stroke:#A80036;stroke-width:1.5;"/><ellipse cx="673.5" cy="422.2969" fill="#FEFECE" filter="url(#f13vfpfyzegz7e)" rx="12" ry="12" style="stroke:#A80036;stroke-width:1.5;"/><text fill="#000000" font-family="sans-serif" font-size="14" lengthAdjust="spacing" textLength="80" x="625" y="451.292">XTemplate</text><text fill="#000000" font-family="sans-serif" font-size="14" font-style="italic" lengthAdjust="spacing" textLength="58" x="636" y="402.9951">«HTML»</text><!--MD5=[d6779ff0a6031e8b8264cc6b7087ee74]
entity XComponent--><path d="M767.5,410.2969 L767.5,434.2969 M767.5,422.2969 L784.5,422.2969 " fill="none" filter="url(#f13vfpfyzegz7e)" style="stroke:#A80036;stroke-width:1.5;"/><ellipse cx="796.5" cy="422.2969" fill="#FEFECE" filter="url(#f13vfpfyzegz7e)" rx="12" ry="12" style="stroke:#A80036;stroke-width:1.5;"/><text fill="#000000" font-family="sans-serif" font-size="14" lengthAdjust="spacing" textLength="96" x="740" y="451.292">XComponent</text><text fill="#000000" font-family="sans-serif" font-size="14" font-style="italic" lengthAdjust="spacing" textLength="94" x="741" y="402.9951">«TypeScript»</text><!--MD5=[69e620827fd35227d329e8118e6b893e]
entity XStyle--><path d="M560.5,663.2969 L560.5,687.2969 M560.5,675.2969 L577.5,675.2969 " fill="none" filter="url(#f13vfpfyzegz7e)" style="stroke:#A80036;stroke-width:1.5;"/><ellipse cx="589.5" cy="675.2969" fill="#FEFECE" filter="url(#f13vfpfyzegz7e)" rx="12" ry="12" style="stroke:#A80036;stroke-width:1.5;"/><text fill="#000000" font-family="sans-serif" font-size="14" lengthAdjust="spacing" textLength="47" x="557.5" y="704.292">XStyle</text><text fill="#000000" font-family="sans-serif" font-size="14" font-style="italic" lengthAdjust="spacing" textLength="46" x="558" y="655.9951">«CSS»</text><!--MD5=[57e56815b43a23c42a8080287d3beacb]
entity XService--><ellipse cx="688" cy="675.2969" fill="#FEFECE" filter="url(#f13vfpfyzegz7e)" rx="12" ry="12" style="stroke:#A80036;stroke-width:1.5;"/><polygon fill="#A80036" points="684,663.2969,690,658.2969,688,663.2969,690,668.2969,684,663.2969" style="stroke:#A80036;stroke-width:1.0;"/><text fill="#000000" font-family="sans-serif" font-size="14" lengthAdjust="spacing" textLength="63" x="656.5" y="704.292">XService</text><text fill="#000000" font-family="sans-serif" font-size="14" font-style="italic" lengthAdjust="spacing" textLength="94" x="641" y="655.9951">«TypeScript»</text><!--MD5=[ffbd4423473a698d060e0a8a48561211]
entity XValidator--><path d="M833.5,663.2969 L833.5,687.2969 M833.5,675.2969 L850.5,675.2969 " fill="none" filter="url(#f13vfpfyzegz7e)" style="stroke:#A80036;stroke-width:1.5;"/><ellipse cx="862.5" cy="675.2969" fill="#FEFECE" filter="url(#f13vfpfyzegz7e)" rx="12" ry="12" style="stroke:#A80036;stroke-width:1.5;"/><text fill="#000000" font-family="sans-serif" font-size="14" lengthAdjust="spacing" textLength="75" x="816.5" y="704.292">XValidator</text><text fill="#000000" font-family="sans-serif" font-size="14" font-style="italic" lengthAdjust="spacing" textLength="94" x="807" y="655.9951">«TypeScript»</text><!--MD5=[11f4769666054cda26d2bc303b3df0b5]
entity HTTPService--><ellipse cx="675" cy="903.5" fill="#FEFECE" filter="url(#f13vfpfyzegz7e)" rx="12" ry="12" style="stroke:#A80036;stroke-width:1.5;"/><line style="stroke:#A80036;stroke-width:1.5;" x1="663" x2="687" y1="917.5" y2="917.5"/><text fill="#000000" font-family="sans-serif" font-size="14" lengthAdjust="spacing" textLength="90" x="630" y="932.4951">HTTPService</text><!--MD5=[69e49715a4c359aea4a800f263690fc5]
entity XDto--><ellipse cx="779" cy="911.2969" fill="#FEFECE" filter="url(#f13vfpfyzegz7e)" rx="12" ry="12" style="stroke:#A80036;stroke-width:1.5;"/><line style="stroke:#A80036;stroke-width:1.5;" x1="767" x2="791" y1="925.2969" y2="925.2969"/><text fill="#000000" font-family="sans-serif" font-size="14" lengthAdjust="spacing" textLength="37" x="760.5" y="940.292">XDto</text><text fill="#000000" font-family="sans-serif" font-size="14" font-style="italic" lengthAdjust="spacing" textLength="48" x="755" y="891.9951">«java»</text><!--MD5=[b843a707a9d29bfe6172f1502199d263]
entity XView--><path d="M405.5,45 L405.5,69 M405.5,57 L422.5,57 " fill="none" filter="url(#f13vfpfyzegz7e)" style="stroke:#A80036;stroke-width:1.5;"/><ellipse cx="434.5" cy="57" fill="#FEFECE" filter="url(#f13vfpfyzegz7e)" rx="12" ry="12" style="stroke:#A80036;stroke-width:1.5;"/><text fill="#000000" font-family="sans-serif" font-size="14" lengthAdjust="spacing" textLength="44" x="404" y="85.9951">XView</text><!--MD5=[a91319e7cfad8d66707571e19cb9c3d9]
entity XController--><ellipse cx="409" cy="244" fill="#FEFECE" filter="url(#f13vfpfyzegz7e)" rx="12" ry="12" style="stroke:#A80036;stroke-width:1.5;"/><polygon fill="#A80036" points="405,232,411,227,409,232,411,237,405,232" style="stroke:#A80036;stroke-width:1.0;"/><text fill="#000000" font-family="sans-serif" font-size="14" lengthAdjust="spacing" textLength="83" x="367.5" y="272.9951">XController</text><!--MD5=[d1b0dfd0ce39cb18e38dc74678584e70]
entity XEntity--><ellipse cx="351" cy="548" fill="#FEFECE" filter="url(#f13vfpfyzegz7e)" rx="12" ry="12" style="stroke:#A80036;stroke-width:1.5;"/><line style="stroke:#A80036;stroke-width:1.5;" x1="339" x2="363" y1="562" y2="562"/><text fill="#000000" font-family="sans-serif" font-size="14" lengthAdjust="spacing" textLength="54" x="324" y="576.9951">XEntity</text><!--MD5=[bb7c449e9d49406d49b3614b1de06c6d]
entity XDao--><ellipse cx="432" cy="548" fill="#FEFECE" filter="url(#f13vfpfyzegz7e)" rx="12" ry="12" style="stroke:#A80036;stroke-width:1.5;"/><line style="stroke:#A80036;stroke-width:1.5;" x1="420" x2="444" y1="562" y2="562"/><text fill="#000000" font-family="sans-serif" font-size="14" lengthAdjust="spacing" textLength="38" x="413" y="576.9951">XDao</text><!--MD5=[b3f078b9afb5e7221edfb3e5c3b37370]
entity XControllerJava--><ellipse cx="347" cy="1060" fill="#FEFECE" filter="url(#f13vfpfyzegz7e)" rx="12" ry="12" style="stroke:#A80036;stroke-width:1.5;"/><polygon fill="#A80036" points="343,1048,349,1043,347,1048,349,1053,343,1048" style="stroke:#A80036;stroke-width:1.0;"/><text fill="#000000" font-family="sans-serif" font-size="14" lengthAdjust="spacing" textLength="125" x="284.5" y="1088.9951">XController - java</text><!--MD5=[fd4eb8c32c74988c465af29763f92287]
entity XResourceJava--><ellipse cx="504" cy="1060" fill="#FEFECE" filter="url(#f13vfpfyzegz7e)" rx="12" ry="12" style="stroke:#A80036;stroke-width:1.5;"/><polygon fill="#A80036" points="500,1048,506,1043,504,1048,506,1053,500,1048" style="stroke:#A80036;stroke-width:1.0;"/><text fill="#000000" font-family="sans-serif" font-size="14" lengthAdjust="spacing" textLength="118" x="445" y="1088.9951">XResource - java</text><!--MD5=[378c654bb0a2595421c2172d382d7c6b]
entity XRepositoryJava--><ellipse cx="350" cy="1247" fill="#FEFECE" filter="url(#f13vfpfyzegz7e)" rx="12" ry="12" style="stroke:#A80036;stroke-width:1.5;"/><line style="stroke:#A80036;stroke-width:1.5;" x1="338" x2="362" y1="1261" y2="1261"/><text fill="#000000" font-family="sans-serif" font-size="14" lengthAdjust="spacing" textLength="131" x="284.5" y="1275.9951">XRepository - java</text><!--MD5=[dea703900e66ce9b48be40831b28a31d]
entity XEntityJava--><ellipse cx="362" cy="1418" fill="#FEFECE" filter="url(#f13vfpfyzegz7e)" rx="12" ry="12" style="stroke:#A80036;stroke-width:1.5;"/><line style="stroke:#A80036;stroke-width:1.5;" x1="350" x2="374" y1="1432" y2="1432"/><text fill="#000000" font-family="sans-serif" font-size="14" lengthAdjust="spacing" textLength="96" x="314" y="1446.9951">XEntity - java</text><!--MD5=[d17c588b74c4d133a71fdca167744654]
entity XDtoJava--><ellipse cx="489" cy="1418" fill="#FEFECE" filter="url(#f13vfpfyzegz7e)" rx="12" ry="12" style="stroke:#A80036;stroke-width:1.5;"/><line style="stroke:#A80036;stroke-width:1.5;" x1="477" x2="501" y1="1432" y2="1432"/><text fill="#000000" font-family="sans-serif" font-size="14" lengthAdjust="spacing" textLength="79" x="449.5" y="1446.9951">XDto - java</text><!--MD5=[5aef620dee1ae3a93a53b2d083bdaa97]
reverse link XTemplate to XComponent--><path d="M710.487,422.5 C720.291,422.5 730.096,422.5 739.901,422.5 " fill="none" id="XTemplate-backto-XComponent" style="stroke:#A80036;stroke-width:1.0;"/><polygon fill="#A80036" points="705.359,422.5,714.359,426.5,710.359,422.5,714.359,418.5,705.359,422.5" style="stroke:#A80036;stroke-width:1.0;"/><!--MD5=[b1aa15fe805f807fb1c54f8641e054c3]
link XTemplate to XStyle--><path d="M654.446,455.04 C638.855,501.625 609.734,588.641 593.231,637.952 " fill="none" id="XTemplate-to-XStyle" style="stroke:#A80036;stroke-width:1.0;"/><polygon fill="#A80036" points="591.577,642.896,598.227,635.6312,593.1641,638.1546,590.6407,633.0917,591.577,642.896" style="stroke:#A80036;stroke-width:1.0;"/><!--MD5=[e020d5ea92ccc5aa14ca7a1b3a17e42f]
link XComponent to XService--><path d="M774.471,455.03 C770.406,464.63 765.973,475.23 762,485 C740.487,537.918 716.619,599.61 701.96,637.867 " fill="none" id="XComponent-to-XService" style="stroke:#A80036;stroke-width:1.0;"/><polygon fill="#A80036" points="700.042,642.876,706.9952,635.9008,701.8295,638.2064,699.5239,633.0408,700.042,642.876" style="stroke:#A80036;stroke-width:1.0;"/><!--MD5=[a4e40082e9743c7bbef9f32be9a3dc3a]
link XComponent to XValidator--><path d="M796.292,455.04 C808.543,501.625 831.424,588.641 844.39,637.952 " fill="none" id="XComponent-to-XValidator" style="stroke:#A80036;stroke-width:1.0;"/><polygon fill="#A80036" points="845.69,642.896,847.27,633.1747,844.4186,638.0603,839.5329,635.209,845.69,642.896" style="stroke:#A80036;stroke-width:1.0;"/><!--MD5=[5e7348a3050e3df932f8b6256484bbea]
link XComponent to XDto--><path d="M781.573,455.24 C776.759,481.78 771,520.7 771,555 C771,555 771,555 771,794.5 C771,820.962 773.098,850.739 775.145,873.498 " fill="none" id="XComponent-to-XDto" style="stroke:#A80036;stroke-width:1.0;"/><polygon fill="#A80036" points="775.607,878.537,778.7676,869.209,775.1499,873.5579,770.801,869.9403,775.607,878.537" style="stroke:#A80036;stroke-width:1.0;"/><!--MD5=[ae77c14ac2f86e5b3c12cdc482e8e762]
reverse link XService to HTTPService--><path d="M685.516,721.209 C682.766,770.703 678.44,848.578 676.295,887.191 " fill="none" id="XService-backto-HTTPService" style="stroke:#A80036;stroke-width:1.0;"/><polygon fill="#FFFFFF" points="686.247,708.058,681.9202,713.8268,685.5811,720.0395,689.9079,714.2707,686.247,708.058" style="stroke:#A80036;stroke-width:1.0;"/><!--MD5=[598ea00f6505793b20c4da7f776856fa]
link XService to XDto--><path d="M700.273,708.058 C717.03,751.149 747.009,828.237 764.743,873.838 " fill="none" id="XService-to-XDto" style="stroke:#A80036;stroke-width:1.0;"/><polygon fill="#A80036" points="766.631,878.694,767.0958,868.8561,764.8182,874.0342,759.6401,871.7566,766.631,878.694" style="stroke:#A80036;stroke-width:1.0;"/><!--MD5=[50a2f9fbc7f4e317ae9a157602683354]
link XView to XController--><path d="M423.881,89.06 C420.768,122.94 414.963,186.11 411.597,222.74 " fill="none" id="XView-to-XController" style="stroke:#A80036;stroke-width:1.0;"/><polygon fill="#A80036" points="411.119,227.94,415.9252,219.3435,411.5762,222.9609,407.9587,218.612,411.119,227.94" style="stroke:#A80036;stroke-width:1.0;"/><!--MD5=[4de373271ed25b31c9e00bfbe01109ae]
link XView to XEntity--><path d="M401.04,75.4 C372.893,87.81 331,112.57 331,150 C331,150 331,150 331,423.5 C331,459.44 338.391,500.278 344.187,526.779 " fill="none" id="XView-to-XEntity" style="stroke:#A80036;stroke-width:1.0;"/><polygon fill="#A80036" points="345.322,531.883,347.2726,522.2292,344.2364,527.0023,339.4634,523.9661,345.322,531.883" style="stroke:#A80036;stroke-width:1.0;"/><!--MD5=[01ef51406f1113a2f9dd6ec63a0d16e4]
link XController to XDao--><path d="M410.767,276.2 C414.922,330.76 425.307,467.12 429.834,526.558 " fill="none" id="XController-to-XDao" style="stroke:#A80036;stroke-width:1.0;"/><polygon fill="#A80036" points="430.227,531.725,433.5341,522.448,429.8484,526.7394,425.5571,523.0537,430.227,531.725" style="stroke:#A80036;stroke-width:1.0;"/><!--MD5=[c96254998bffdc37543dfcfe42650edb]
link XController to XEntity--><path d="M404.545,276.2 C394.065,330.76 367.877,467.12 356.462,526.558 " fill="none" id="XController-to-XEntity" style="stroke:#A80036;stroke-width:1.0;stroke-dasharray:7.0,7.0;"/><polygon fill="#A80036" points="355.47,531.725,361.0955,523.6408,356.4129,526.8147,353.239,522.1322,355.47,531.725" style="stroke:#A80036;stroke-width:1.0;"/><!--MD5=[6b898ab60b3ee4d97cbfbc2e6b5bc89f]
link XControllerJava to XRepositoryJava--><path d="M347.374,1092.056 C347.923,1125.938 348.948,1189.112 349.542,1225.74 " fill="none" id="XControllerJava-to-XRepositoryJava" style="stroke:#A80036;stroke-width:1.0;"/><polygon fill="#A80036" points="349.626,1230.944,353.4815,1221.8812,349.546,1225.9446,345.4825,1222.0091,349.626,1230.944" style="stroke:#A80036;stroke-width:1.0;"/><!--MD5=[062928b0d7eb3f4fa77da60661e9b2c2]
link XControllerJava to XEntityJava--><path d="M405.945,1092.07 C429.88,1105.624 452,1125.57 452,1153 C452,1153 452,1153 452,1341 C452,1365.643 433.744,1385.1275 413.676,1399.1014 " fill="none" id="XControllerJava-to-XEntityJava" style="stroke:#A80036;stroke-width:1.0;"/><polygon fill="#A80036" points="409.372,1401.9994,419.0714,1400.2902,413.5193,1399.2066,414.603,1393.6545,409.372,1401.9994" style="stroke:#A80036;stroke-width:1.0;"/><!--MD5=[b2c45f7801a19cebb1e941e9d1116be7]
link XControllerJava to XDtoJava--><path d="M406.398,1092.038 C445.31,1109.043 489,1132.663 489,1153 C489,1153 489,1153 489,1341 C489,1359.474 489,1380.234 489,1396.4931 " fill="none" id="XControllerJava-to-XDtoJava" style="stroke:#A80036;stroke-width:1.0;"/><polygon fill="#A80036" points="489,1401.8248,493,1392.8248,489,1396.8248,485,1392.8248,489,1401.8248" style="stroke:#A80036;stroke-width:1.0;"/><!--MD5=[03d20437e28212b9debf901d7e885e8b]
link XRepositoryJava to XEntityJava--><path d="M351.643,1279.144 C353.819,1309.778 357.651,1363.755 359.994,1396.7551 " fill="none" id="XRepositoryJava-to-XEntityJava" style="stroke:#A80036;stroke-width:1.0;"/><polygon fill="#A80036" points="360.357,1401.8646,363.7096,1392.6039,360.0029,1396.8772,355.7297,1393.1704,360.357,1401.8646" style="stroke:#A80036;stroke-width:1.0;"/><!--MD5=[e9643956bddd55238250bfc3e7cd5c56]
link XResourceJava to XDtoJava--><path d="M513.458,1092.111 C519.42,1108.751 526,1131.895 526,1153 C526,1153 526,1153 526,1341 C526,1361.101 517.017,1381.787 507.903,1397.6018 " fill="none" id="XResourceJava-to-XDtoJava" style="stroke:#A80036;stroke-width:1.0;"/><polygon fill="#A80036" points="505.336,1401.9286,513.3674,1396.228,507.8865,1397.628,506.4864,1392.1472,505.336,1401.9286" style="stroke:#A80036;stroke-width:1.0;"/><!--MD5=[79d0dd286b7f0877eeb1a051377ae11d]
link XResourceJava to XControllerJava--><path d="M444.972,1068 C434.918,1068 424.865,1068 414.812,1068 " fill="none" id="XResourceJava-to-XControllerJava" style="stroke:#A80036;stroke-width:1.0;"/><polygon fill="#A80036" points="409.555,1068,418.555,1072,414.555,1068,418.555,1064,409.555,1068" style="stroke:#A80036;stroke-width:1.0;"/><!--MD5=[4ad6e26e1a47c450182cc1901ac132a5]
reverse link XEntityJava to XDtoJava--><path d="M415.318,1426 C426.63,1426 437.941,1426 449.252,1426 " fill="none" id="XEntityJava-backto-XDtoJava" style="stroke:#A80036;stroke-width:1.0;"/><polygon fill="#A80036" points="410.121,1426,419.121,1430,415.121,1426,419.121,1422,410.121,1426" style="stroke:#A80036;stroke-width:1.0;"/><!--MD5=[023e3757eaf73a76d4f4c73ef91fd637]
reverse link XView to XComponent--><path d="M455.844,68.5 C514.276,75.14 643.191,98.85 702,181 C749.106,246.8 772.756,341.01 782.453,389.68 " fill="none" id="XView-backto-XComponent" style="stroke:#A80036;stroke-width:1.0;stroke-dasharray:7.0,7.0;"/><polygon fill="#A80036" points="450.75,67.94,459.2626,72.8933,455.7205,68.4828,460.131,64.9406,450.75,67.94" style="stroke:#A80036;stroke-width:1.0;"/><text fill="#000000" font-family="sans-serif" font-size="13" lengthAdjust="spacing" textLength="49" x="713" y="194.0669">«trace»</text><!--MD5=[434ae80786ffddc1adc857a584c1c241]
reverse link XView to XTemplate--><path d="M455.538,66.48 C494.062,68.78 560.901,78.77 598,119 C668.56,195.52 670.732,329.19 667.587,389.89 " fill="none" id="XView-backto-XTemplate" style="stroke:#A80036;stroke-width:1.0;stroke-dasharray:7.0,7.0;"/><polygon fill="#A80036" points="450.525,66.22,459.3013,70.6895,455.518,66.4839,459.7236,62.7006,450.525,66.22" style="stroke:#A80036;stroke-width:1.0;"/><text fill="#000000" font-family="sans-serif" font-size="13" lengthAdjust="spacing" textLength="49" x="644" y="194.0669">«trace»</text><!--MD5=[dd13b8f21bdf94be4093cbad622a6385]
reverse link XView to XStyle--><path d="M455.815,69.7 C498.517,76.86 572,96.89 572,150 C572,150 572,150 572,315.5 C572,436.45 577.169,580.252 579.672,642.811 " fill="none" id="XView-backto-XStyle" style="stroke:#A80036;stroke-width:1.0;stroke-dasharray:7.0,7.0;"/><polygon fill="#A80036" points="450.767,68.89,459.0174,74.2687,455.7035,69.6841,460.2881,66.3702,450.767,68.89" style="stroke:#A80036;stroke-width:1.0;"/><text fill="#000000" font-family="sans-serif" font-size="13" lengthAdjust="spacing" textLength="49" x="573" y="319.0669">«trace»</text><!--MD5=[eaa25494c005b94527eb46c51b73df1a]
reverse link XController to XService--><path d="M417.114,280.96 C433.899,337.77 472.955,464.47 498,502 C536.703,559.997 599.093,611.551 641.744,642.864 " fill="none" id="XController-backto-XService" style="stroke:#A80036;stroke-width:1.0;stroke-dasharray:7.0,7.0;"/><polygon fill="#A80036" points="415.656,276.01,414.3376,285.7702,417.0568,280.8098,422.0172,283.529,415.656,276.01" style="stroke:#A80036;stroke-width:1.0;"/><text fill="#000000" font-family="sans-serif" font-size="13" lengthAdjust="spacing" textLength="49" x="499" y="498.0669">«trace»</text><!--MD5=[8378eb86587e7c0d65c10cc493410c6c]
reverse link XEntity to XDto--><path d="M365.856,584.457 C399.161,643.2 485.832,781.22 599,849 C653.219,881.474 680.655,852.433 738,879 C743.864,881.717 749.673,885.397 754.994,889.284 " fill="none" id="XEntity-backto-XDto" style="stroke:#A80036;stroke-width:1.0;stroke-dasharray:7.0,7.0;"/><polygon fill="#A80036" points="363.362,580.03,364.2938,589.8347,365.8159,584.3864,371.2641,585.9085,363.362,580.03" style="stroke:#A80036;stroke-width:1.0;"/><text fill="#000000" font-family="sans-serif" font-size="13" lengthAdjust="spacing" textLength="49" x="488" y="751.0669">«trace»</text><!--MD5=[576f0a9c90616e2fa44f7efce4201683]
link XDto to XDtoJava--><path d="M757.659,944.046 C751.655,952.153 744.877,960.654 738,968 C691.449,1017.729 621,998.882 621,1067 C621,1067 621,1067 621,1341 C621,1383.3738 571.986,1405.2966 533.692,1415.9583 " fill="none" id="XDto-to-XDtoJava" style="stroke:#A80036;stroke-width:1.0;stroke-dasharray:7.0,7.0;"/><polygon fill="#A80036" points="528.604,1417.3271,538.334,1418.8523,533.4324,1416.0285,536.2563,1411.1269,528.604,1417.3271" style="stroke:#A80036;stroke-width:1.0;"/><text fill="#000000" font-family="sans-serif" font-size="13" lengthAdjust="spacing" textLength="49" x="622" y="1197.0669">«trace»</text><!--MD5=[97999b25fbec74e57d0b25cec2967357]
reverse link XDao to XRepositoryJava--><path d="M414.116,584.424 C408.602,591.45 402.093,598.552 395,604 C332.078,652.326 231,595.162 231,674.5 C231,674.5 231,674.5 231,1154 C231,1189.216 261.923,1214.515 292.243,1230.855 " fill="none" id="XDao-backto-XRepositoryJava" style="stroke:#A80036;stroke-width:1.0;stroke-dasharray:7.0,7.0;"/><polygon fill="#A80036" points="417.417,580.074,408.7897,584.8248,414.3942,584.0568,415.1622,589.6613,417.417,580.074" style="stroke:#A80036;stroke-width:1.0;"/><text fill="#000000" font-family="sans-serif" font-size="13" lengthAdjust="spacing" textLength="49" x="232" y="916.0669">«trace»</text><!--MD5=[88dfb1f151394909f49f57aee559731f]
reverse link XDao to XResourceJava--><path d="M436.018,585.459 C448.898,676.695 489.003,960.77 500.741,1043.917 " fill="none" id="XDao-backto-XResourceJava" style="stroke:#A80036;stroke-width:1.0;stroke-dasharray:7.0,7.0;"/><polygon fill="#A80036" points="435.281,580.239,432.5775,589.7095,435.9795,585.19,440.4991,588.5919,435.281,580.239" style="stroke:#A80036;stroke-width:1.0;"/><text fill="#000000" font-family="sans-serif" font-size="13" lengthAdjust="spacing" textLength="49" x="468" y="798.0669">«trace»</text><!--MD5=[82107beb6a97bb1c55747239014127bb]
reverse link XDao to XControllerJava--><path d="M427.302,585.187 C412.145,676.129 364.719,960.687 350.847,1043.917 " fill="none" id="XDao-backto-XControllerJava" style="stroke:#A80036;stroke-width:1.0;stroke-dasharray:7.0,7.0;"/><polygon fill="#A80036" points="428.127,580.239,422.7003,588.4579,427.3041,585.1708,430.5912,589.7746,428.127,580.239" style="stroke:#A80036;stroke-width:1.0;"/><text fill="#000000" font-family="sans-serif" font-size="13" lengthAdjust="spacing" textLength="49" x="395" y="798.0669">«trace»</text><!--MD5=[12e4a1716323b24d5bc81312e4a65f1f]
reverse link XEntity to XDtoJava--><path d="M318.923,559.247 C256.992,565.511 127,588.859 127,674.5 C127,674.5 127,674.5 127,1341 C127,1409.0309 361.58,1383.3357 427,1402 C434.287,1404.0788 441.937,1406.6145 449.279,1409.2333 " fill="none" id="XEntity-backto-XDtoJava" style="stroke:#A80036;stroke-width:1.0;stroke-dasharray:7.0,7.0;"/><polygon fill="#A80036" points="323.98,558.758,314.6367,555.6431,319.0032,559.2394,315.4069,563.6059,323.98,558.758" style="stroke:#A80036;stroke-width:1.0;"/><text fill="#000000" font-family="sans-serif" font-size="13" lengthAdjust="spacing" textLength="49" x="128" y="1072.5669">«trace»</text><!--MD5=[8de3e2520b480bc0864dc72e271fb662]
reverse link XEntity to XEntityJava--><path d="M318.732,560.96 C232.993,572.377 6,608.805 6,674.5 C6,674.5 6,674.5 6,1341 C6,1403.5502 216.815,1419.5747 313.988,1423.6386 " fill="none" id="XEntity-backto-XEntityJava" style="stroke:#A80036;stroke-width:1.0;stroke-dasharray:7.0,7.0;"/><polygon fill="#A80036" points="323.928,560.276,314.4828,557.4854,318.9708,560.9289,315.5273,565.4169,323.928,560.276" style="stroke:#A80036;stroke-width:1.0;"/><text fill="#000000" font-family="sans-serif" font-size="13" lengthAdjust="spacing" textLength="49" x="7" y="1072.5669">«trace»</text><!--MD5=[254f5117401054a967d42eb00d606032]
link XService to XResourceJava--><path d="M673.098,708.125 C638.008,782.598 550.621,968.057 517.245,1038.89 " fill="none" id="XService-to-XResourceJava" style="stroke:#A80036;stroke-width:1.0;stroke-dasharray:7.0,7.0;"/><polygon fill="#A80036" points="514.937,1043.789,522.392,1037.3529,517.0685,1039.2661,515.1553,1033.9426,514.937,1043.789" style="stroke:#A80036;stroke-width:1.0;"/><text fill="#000000" font-family="sans-serif" font-size="13" lengthAdjust="spacing" textLength="49" x="614" y="845.0669">«trace»</text><!--MD5=[5332cc8c4c2c9c79aecb03bc6f0533b6]
@startuml
package front <<angular:11>>{
    boundary XTemplate <<HTML>>
    boundary XComponent <<TypeScript>>
    boundary XStyle <<CSS>>
    control XService <<TypeScript>>
    boundary XValidator <<TypeScript>>
    entity HTTPService
    entity XDto <<java>>
}
XComponent - -left-> XTemplate
XTemplate - -down-> XStyle
XComponent - -down-> XService
XComponent - -down-> XValidator
XComponent - -down-> XDto
XService o- -down- HTTPService
XService - -down-> XDto

package analysis{
    boundary XView
    control XController
    entity XEntity
    entity XDao
}

XView - -down-> XController
XView - -down-> XEntity
XController - -down-> XDao
XController ..down.> XEntity

package backend <<spring:5.3.5>>{
control "XController - java" as XControllerJava
control "XResource - java" as XResourceJava
entity "XRepository - java" as XRepositoryJava
entity "XEntity - java" as XEntityJava
entity "XDto - java" as XDtoJava
}

XControllerJava - -down-> XRepositoryJava
XControllerJava - -down-> XEntityJava
XControllerJava - -down-> XDtoJava
XRepositoryJava - -down-> XEntityJava
XResourceJava - -down-> XDtoJava
XResourceJava - -right-> XControllerJava
XDtoJava - -left-> XEntityJava

XComponent ...up.> XView : <<trace>>
XTemplate ...up.> XView : <<trace>>
XStyle ...up.> XView : <<trace>>
XService ...up.> XController : <<trace>>
XDto ...up.> XEntity : <<trace>>
XDto ...down.> XDtoJava : <<trace>>
XRepositoryJava ...up.> XDao : <<trace>>
XResourceJava ...up.>  XDao : <<trace>>
XControllerJava ...up.>  XDao : <<trace>>
XDtoJava ...up.>  XEntity : <<trace>>
XEntityJava ...up.>  XEntity : <<trace>>
XService ...down.>  XResourceJava : <<trace>>
@enduml

PlantUML version 1.2021.4beta3(Unknown compile time)
(GPL source distribution)
Java Runtime: Java(TM) SE Runtime Environment
JVM: Java HotSpot(TM) 64-Bit Server VM
Default Encoding: UTF-8
Language: en
Country: US
--></g></svg>