<?xml version="1.0" encoding="UTF-8" standalone="no"?><svg xmlns="http://www.w3.org/2000/svg" xmlns:xlink="http://www.w3.org/1999/xlink" contentScriptType="application/ecmascript" contentStyleType="text/css" height="637px" preserveAspectRatio="none" style="width:649px;height:637px;" version="1.1" viewBox="0 0 649 637" width="649px" zoomAndPan="magnify"><defs><filter height="300%" id="ftgz65c5rka5g" width="300%" x="-1" y="-1"><feGaussianBlur result="blurOut" stdDeviation="2.0"/><feColorMatrix in="blurOut" result="blurOut2" type="matrix" values="0 0 0 0 0 0 0 0 0 0 0 0 0 0 0 0 0 0 .4 0"/><feOffset dx="4.0" dy="4.0" in="blurOut2" result="blurOut3"/><feBlend in="SourceGraphic" in2="blurOut3" mode="normal"/></filter></defs><g><!--MD5=[a60570e4b426f702ccbb0d459e3b9417]
cluster models--><polygon fill="#FFFFFF" filter="url(#ftgz65c5rka5g)" points="16,6,80,6,87,28.2969,487,28.2969,487,526,16,526,16,6" style="stroke:#000000;stroke-width:1.5;"/><line style="stroke:#000000;stroke-width:1.5;" x1="16" x2="87" y1="28.2969" y2="28.2969"/><text fill="#000000" font-family="sans-serif" font-size="14" font-weight="bold" lengthAdjust="spacing" textLength="58" x="20" y="20.9951">models</text><!--MD5=[9563755d011c5cec7ec66dc53565a59e]
class Board--><rect codeLine="2" fill="#FEFECE" filter="url(#ftgz65c5rka5g)" height="176.0469" id="Board" style="stroke:#A80036;stroke-width:1.5;" width="298" x="173" y="41"/><ellipse cx="299.75" cy="57" fill="#ADD1B2" rx="11" ry="11" style="stroke:#A80036;stroke-width:1.0;"/><path d="M302.0938,52.6719 C301.1563,52.2344 300.5625,52.0938 299.6875,52.0938 C297.0625,52.0938 295.0625,54.1719 295.0625,56.8906 L295.0625,58.0156 C295.0625,60.5938 297.1719,62.4844 300.0625,62.4844 C301.2813,62.4844 302.4375,62.1875 303.1875,61.6406 C303.7656,61.2344 304.0938,60.7813 304.0938,60.3906 C304.0938,59.9375 303.7031,59.5469 303.2344,59.5469 C303.0156,59.5469 302.8125,59.625 302.625,59.8125 C302.1719,60.2969 302.1719,60.2969 301.9844,60.3906 C301.5625,60.6563 300.875,60.7813 300.1094,60.7813 C298.0625,60.7813 296.7656,59.6875 296.7656,57.9844 L296.7656,56.8906 C296.7656,55.1094 298.0156,53.7969 299.75,53.7969 C300.3281,53.7969 300.9375,53.9531 301.4063,54.2031 C301.8906,54.4844 302.0625,54.7031 302.1563,55.1094 C302.2188,55.5156 302.25,55.6406 302.3906,55.7656 C302.5313,55.9063 302.7656,56.0156 302.9844,56.0156 C303.25,56.0156 303.5156,55.875 303.6875,55.6563 C303.7969,55.5 303.8281,55.3125 303.8281,54.8906 L303.8281,53.4688 C303.8281,53.0313 303.8125,52.9063 303.7188,52.75 C303.5625,52.4844 303.2813,52.3438 302.9844,52.3438 C302.6875,52.3438 302.4844,52.4375 302.2656,52.75 L302.0938,52.6719 Z " fill="#000000"/><text fill="#000000" font-family="sans-serif" font-size="12" lengthAdjust="spacing" textLength="36" x="320.25" y="61.1543">Board</text><line style="stroke:#A80036;stroke-width:1.5;" x1="174" x2="470" y1="73" y2="73"/><line style="stroke:#A80036;stroke-width:1.5;" x1="174" x2="470" y1="81" y2="81"/><ellipse cx="184" cy="92" fill="#84BE84" rx="3" ry="3" style="stroke:#038048;stroke-width:1.0;"/><text fill="#000000" font-family="sans-serif" font-size="11" lengthAdjust="spacing" textLength="38" x="193" y="95.2104">reset()</text><ellipse cx="184" cy="104.8047" fill="#84BE84" rx="3" ry="3" style="stroke:#038048;stroke-width:1.0;"/><text fill="#000000" font-family="sans-serif" font-size="11" lengthAdjust="spacing" textLength="95" x="193" y="108.0151">add(List&lt;Color&gt;)</text><ellipse cx="184" cy="117.6094" fill="#84BE84" rx="3" ry="3" style="stroke:#038048;stroke-width:1.0;"/><text fill="#000000" font-family="sans-serif" font-size="11" lengthAdjust="spacing" textLength="152" x="193" y="120.8198">getError(List&lt;Color&gt;): Error</text><ellipse cx="184" cy="130.4141" fill="#84BE84" rx="3" ry="3" style="stroke:#038048;stroke-width:1.0;"/><text fill="#000000" font-family="sans-serif" font-size="11" lengthAdjust="spacing" textLength="117" x="193" y="133.6245">isFinished(): boolean</text><ellipse cx="184" cy="143.2188" fill="#84BE84" rx="3" ry="3" style="stroke:#038048;stroke-width:1.0;"/><text fill="#000000" font-family="sans-serif" font-size="11" lengthAdjust="spacing" textLength="110" x="193" y="146.4292">isWinner(): boolean</text><rect fill="#F24D5C" height="6" style="stroke:#C82930;stroke-width:1.0;" width="6" x="181" y="153.0234"/><text fill="#000000" font-family="sans-serif" font-size="11" lengthAdjust="spacing" textLength="101" x="193" y="159.2339">isLoser(): boolean</text><ellipse cx="184" cy="168.8281" fill="#84BE84" rx="3" ry="3" style="stroke:#038048;stroke-width:1.0;"/><text fill="#000000" font-family="sans-serif" font-size="11" lengthAdjust="spacing" textLength="100" x="193" y="172.0386">getAttempts(): int</text><ellipse cx="184" cy="181.6328" fill="#84BE84" rx="3" ry="3" style="stroke:#038048;stroke-width:1.0;"/><text fill="#000000" font-family="sans-serif" font-size="11" lengthAdjust="spacing" textLength="272" x="193" y="184.8433">getProposedCombinationColors(int): List&lt;Color&gt;</text><ellipse cx="184" cy="194.4375" fill="#84BE84" rx="3" ry="3" style="stroke:#038048;stroke-width:1.0;"/><text fill="#000000" font-family="sans-serif" font-size="11" lengthAdjust="spacing" textLength="98" x="193" y="197.6479">getBlacks(int): int</text><ellipse cx="184" cy="207.2422" fill="#84BE84" rx="3" ry="3" style="stroke:#038048;stroke-width:1.0;"/><text fill="#000000" font-family="sans-serif" font-size="11" lengthAdjust="spacing" textLength="101" x="193" y="210.4526">getWhites(int): int</text><!--MD5=[28491d17d5ee38c9c116625a5ffc259a]
class Combination--><rect codeLine="14" fill="#FEFECE" filter="url(#ftgz65c5rka5g)" height="48" id="Combination" style="stroke:#A80036;stroke-width:1.5;" width="106" x="32" y="105"/><ellipse cx="47" cy="121" fill="#ADD1B2" rx="11" ry="11" style="stroke:#A80036;stroke-width:1.0;"/><path d="M49.3438,116.6719 C48.4063,116.2344 47.8125,116.0938 46.9375,116.0938 C44.3125,116.0938 42.3125,118.1719 42.3125,120.8906 L42.3125,122.0156 C42.3125,124.5938 44.4219,126.4844 47.3125,126.4844 C48.5313,126.4844 49.6875,126.1875 50.4375,125.6406 C51.0156,125.2344 51.3438,124.7813 51.3438,124.3906 C51.3438,123.9375 50.9531,123.5469 50.4844,123.5469 C50.2656,123.5469 50.0625,123.625 49.875,123.8125 C49.4219,124.2969 49.4219,124.2969 49.2344,124.3906 C48.8125,124.6563 48.125,124.7813 47.3594,124.7813 C45.3125,124.7813 44.0156,123.6875 44.0156,121.9844 L44.0156,120.8906 C44.0156,119.1094 45.2656,117.7969 47,117.7969 C47.5781,117.7969 48.1875,117.9531 48.6563,118.2031 C49.1406,118.4844 49.3125,118.7031 49.4063,119.1094 C49.4688,119.5156 49.5,119.6406 49.6406,119.7656 C49.7813,119.9063 50.0156,120.0156 50.2344,120.0156 C50.5,120.0156 50.7656,119.875 50.9375,119.6563 C51.0469,119.5 51.0781,119.3125 51.0781,118.8906 L51.0781,117.4688 C51.0781,117.0313 51.0625,116.9063 50.9688,116.75 C50.8125,116.4844 50.5313,116.3438 50.2344,116.3438 C49.9375,116.3438 49.7344,116.4375 49.5156,116.75 L49.3438,116.6719 Z " fill="#000000"/><text fill="#000000" font-family="sans-serif" font-size="12" lengthAdjust="spacing" textLength="74" x="61" y="125.1543">Combination</text><line style="stroke:#A80036;stroke-width:1.5;" x1="33" x2="137" y1="137" y2="137"/><line style="stroke:#A80036;stroke-width:1.5;" x1="33" x2="137" y1="145" y2="145"/><!--MD5=[cf489b19c51ee25e76ddca093e62e620]
class ProposedCombination--><rect codeLine="15" fill="#FEFECE" filter="url(#ftgz65c5rka5g)" height="112.0234" id="ProposedCombination" style="stroke:#A80036;stroke-width:1.5;" width="223" x="73.5" y="398"/><ellipse cx="115.05" cy="414" fill="#ADD1B2" rx="11" ry="11" style="stroke:#A80036;stroke-width:1.0;"/><path d="M117.3938,409.6719 C116.4563,409.2344 115.8625,409.0938 114.9875,409.0938 C112.3625,409.0938 110.3625,411.1719 110.3625,413.8906 L110.3625,415.0156 C110.3625,417.5938 112.4719,419.4844 115.3625,419.4844 C116.5813,419.4844 117.7375,419.1875 118.4875,418.6406 C119.0656,418.2344 119.3938,417.7813 119.3938,417.3906 C119.3938,416.9375 119.0031,416.5469 118.5344,416.5469 C118.3156,416.5469 118.1125,416.625 117.925,416.8125 C117.4719,417.2969 117.4719,417.2969 117.2844,417.3906 C116.8625,417.6563 116.175,417.7813 115.4094,417.7813 C113.3625,417.7813 112.0656,416.6875 112.0656,414.9844 L112.0656,413.8906 C112.0656,412.1094 113.3156,410.7969 115.05,410.7969 C115.6281,410.7969 116.2375,410.9531 116.7063,411.2031 C117.1906,411.4844 117.3625,411.7031 117.4563,412.1094 C117.5188,412.5156 117.55,412.6406 117.6906,412.7656 C117.8313,412.9063 118.0656,413.0156 118.2844,413.0156 C118.55,413.0156 118.8156,412.875 118.9875,412.6563 C119.0969,412.5 119.1281,412.3125 119.1281,411.8906 L119.1281,410.4688 C119.1281,410.0313 119.1125,409.9063 119.0188,409.75 C118.8625,409.4844 118.5813,409.3438 118.2844,409.3438 C117.9875,409.3438 117.7844,409.4375 117.5656,409.75 L117.3938,409.6719 Z " fill="#000000"/><text fill="#000000" font-family="sans-serif" font-size="12" lengthAdjust="spacing" textLength="132" x="134.95" y="418.1543">ProposedCombination</text><line style="stroke:#A80036;stroke-width:1.5;" x1="74.5" x2="295.5" y1="430" y2="430"/><line style="stroke:#A80036;stroke-width:1.5;" x1="74.5" x2="295.5" y1="438" y2="438"/><polygon fill="#4177AF" points="84.5,445,80.5,451,88.5,451" style="stroke:#1963A0;stroke-width:1.0;"/><text fill="#000000" font-family="sans-serif" font-size="11" lengthAdjust="spacing" textLength="197" x="93.5" y="452.2104">ProposedCombination(List&lt;Color&gt;)</text><polygon fill="#4177AF" points="84.5,457.8047,80.5,463.8047,88.5,463.8047" style="stroke:#1963A0;stroke-width:1.0;"/><text fill="#000000" font-family="sans-serif" font-size="11" lengthAdjust="spacing" textLength="135" x="93.5" y="465.0151">getColors(): List&lt;Color&gt;</text><polygon fill="#4177AF" points="84.5,470.6094,80.5,476.6094,88.5,476.6094" style="stroke:#1963A0;stroke-width:1.0;"/><text fill="#000000" font-family="sans-serif" font-size="11" lengthAdjust="spacing" textLength="86" x="93.5" y="477.8198">getError(): Error</text><polygon fill="#4177AF" points="84.5,483.4141,80.5,489.4141,88.5,489.4141" style="stroke:#1963A0;stroke-width:1.0;"/><text fill="#000000" font-family="sans-serif" font-size="11" lengthAdjust="spacing" textLength="137" x="93.5" y="490.6245">contains(Color): boolean</text><polygon fill="#4177AF" points="84.5,496.2188,80.5,502.2188,88.5,502.2188" style="stroke:#1963A0;stroke-width:1.0;"/><text fill="#000000" font-family="sans-serif" font-size="11" lengthAdjust="spacing" textLength="158" x="93.5" y="503.4292">contains(Color, int): boolean</text><!--MD5=[e370ee5c0c15ce04544d5f5a73174d72]
class SecretCombination--><rect codeLine="22" fill="#FEFECE" filter="url(#ftgz65c5rka5g)" height="60.8047" id="SecretCombination" style="stroke:#A80036;stroke-width:1.5;" width="253" x="70.5" y="277"/><ellipse cx="135.75" cy="293" fill="#ADD1B2" rx="11" ry="11" style="stroke:#A80036;stroke-width:1.0;"/><path d="M138.0938,288.6719 C137.1563,288.2344 136.5625,288.0938 135.6875,288.0938 C133.0625,288.0938 131.0625,290.1719 131.0625,292.8906 L131.0625,294.0156 C131.0625,296.5938 133.1719,298.4844 136.0625,298.4844 C137.2813,298.4844 138.4375,298.1875 139.1875,297.6406 C139.7656,297.2344 140.0938,296.7813 140.0938,296.3906 C140.0938,295.9375 139.7031,295.5469 139.2344,295.5469 C139.0156,295.5469 138.8125,295.625 138.625,295.8125 C138.1719,296.2969 138.1719,296.2969 137.9844,296.3906 C137.5625,296.6563 136.875,296.7813 136.1094,296.7813 C134.0625,296.7813 132.7656,295.6875 132.7656,293.9844 L132.7656,292.8906 C132.7656,291.1094 134.0156,289.7969 135.75,289.7969 C136.3281,289.7969 136.9375,289.9531 137.4063,290.2031 C137.8906,290.4844 138.0625,290.7031 138.1563,291.1094 C138.2188,291.5156 138.25,291.6406 138.3906,291.7656 C138.5313,291.9063 138.7656,292.0156 138.9844,292.0156 C139.25,292.0156 139.5156,291.875 139.6875,291.6563 C139.7969,291.5 139.8281,291.3125 139.8281,290.8906 L139.8281,289.4688 C139.8281,289.0313 139.8125,288.9063 139.7188,288.75 C139.5625,288.4844 139.2813,288.3438 138.9844,288.3438 C138.6875,288.3438 138.4844,288.4375 138.2656,288.75 L138.0938,288.6719 Z " fill="#000000"/><text fill="#000000" font-family="sans-serif" font-size="12" lengthAdjust="spacing" textLength="114" x="156.25" y="297.1543">SecretCombination</text><line style="stroke:#A80036;stroke-width:1.5;" x1="71.5" x2="322.5" y1="309" y2="309"/><line style="stroke:#A80036;stroke-width:1.5;" x1="71.5" x2="322.5" y1="317" y2="317"/><polygon fill="#4177AF" points="81.5,324,77.5,330,85.5,330" style="stroke:#1963A0;stroke-width:1.0;"/><text fill="#000000" font-family="sans-serif" font-size="11" lengthAdjust="spacing" textLength="227" x="90.5" y="331.2104">getResult(ProposedCombination): Result</text><!--MD5=[2741598bdf59a7d7e0d5c97658fd3022]
class Result--><rect codeLine="27" fill="#FEFECE" filter="url(#ftgz65c5rka5g)" height="99.2188" id="Result" style="stroke:#A80036;stroke-width:1.5;" width="136" x="332" y="404.5"/><ellipse cx="377.75" cy="420.5" fill="#ADD1B2" rx="11" ry="11" style="stroke:#A80036;stroke-width:1.0;"/><path d="M380.0938,416.1719 C379.1563,415.7344 378.5625,415.5938 377.6875,415.5938 C375.0625,415.5938 373.0625,417.6719 373.0625,420.3906 L373.0625,421.5156 C373.0625,424.0938 375.1719,425.9844 378.0625,425.9844 C379.2813,425.9844 380.4375,425.6875 381.1875,425.1406 C381.7656,424.7344 382.0938,424.2813 382.0938,423.8906 C382.0938,423.4375 381.7031,423.0469 381.2344,423.0469 C381.0156,423.0469 380.8125,423.125 380.625,423.3125 C380.1719,423.7969 380.1719,423.7969 379.9844,423.8906 C379.5625,424.1563 378.875,424.2813 378.1094,424.2813 C376.0625,424.2813 374.7656,423.1875 374.7656,421.4844 L374.7656,420.3906 C374.7656,418.6094 376.0156,417.2969 377.75,417.2969 C378.3281,417.2969 378.9375,417.4531 379.4063,417.7031 C379.8906,417.9844 380.0625,418.2031 380.1563,418.6094 C380.2188,419.0156 380.25,419.1406 380.3906,419.2656 C380.5313,419.4063 380.7656,419.5156 380.9844,419.5156 C381.25,419.5156 381.5156,419.375 381.6875,419.1563 C381.7969,419 381.8281,418.8125 381.8281,418.3906 L381.8281,416.9688 C381.8281,416.5313 381.8125,416.4063 381.7188,416.25 C381.5625,415.9844 381.2813,415.8438 380.9844,415.8438 C380.6875,415.8438 380.4844,415.9375 380.2656,416.25 L380.0938,416.1719 Z " fill="#000000"/><text fill="#000000" font-family="sans-serif" font-size="12" lengthAdjust="spacing" textLength="36" x="398.25" y="424.6543">Result</text><line style="stroke:#A80036;stroke-width:1.5;" x1="333" x2="467" y1="436.5" y2="436.5"/><line style="stroke:#A80036;stroke-width:1.5;" x1="333" x2="467" y1="444.5" y2="444.5"/><polygon fill="#4177AF" points="343,451.5,339,457.5,347,457.5" style="stroke:#1963A0;stroke-width:1.0;"/><text fill="#000000" font-family="sans-serif" font-size="11" lengthAdjust="spacing" textLength="78" x="352" y="458.7104">Result(int, int)</text><polygon fill="#4177AF" points="343,464.3047,339,470.3047,347,470.3047" style="stroke:#1963A0;stroke-width:1.0;"/><text fill="#000000" font-family="sans-serif" font-size="11" lengthAdjust="spacing" textLength="84" x="352" y="471.5151">getBlacks(): int</text><polygon fill="#4177AF" points="343,477.1094,339,483.1094,347,483.1094" style="stroke:#1963A0;stroke-width:1.0;"/><text fill="#000000" font-family="sans-serif" font-size="11" lengthAdjust="spacing" textLength="87" x="352" y="484.3198">getWhites(): int</text><polygon fill="#4177AF" points="343,489.9141,339,495.9141,347,495.9141" style="stroke:#1963A0;stroke-width:1.0;"/><text fill="#000000" font-family="sans-serif" font-size="11" lengthAdjust="spacing" textLength="110" x="352" y="497.1245">isWinner(): boolean</text><!--MD5=[18eee71c88ab61f27581b8cbdd3ef5ee]
class Color--><rect codeLine="36" fill="#FEFECE" filter="url(#ftgz65c5rka5g)" height="53.9375" id="Color" style="stroke:#A80036;stroke-width:1.5;" width="69" x="503.5" y="280.5"/><ellipse cx="518.5" cy="299.4688" fill="#EB937F" rx="11" ry="11" style="stroke:#A80036;stroke-width:1.0;"/><path d="M517.2969,300.3438 L518.75,300.3438 L518.75,300.4531 C518.75,300.8594 518.7813,301.0156 518.8594,301.1719 C519.0156,301.4219 519.2969,301.5781 519.5938,301.5781 C519.8438,301.5781 520.1094,301.4375 520.2656,301.2188 C520.3906,301.0625 520.4219,300.9063 520.4219,300.4531 L520.4219,298.5313 C520.4219,298.375 520.4219,298.3281 520.4063,298.1719 C520.3438,297.7031 520.0313,297.3906 519.5781,297.3906 C519.3281,297.3906 519.0625,297.5313 518.8906,297.75 C518.7813,297.9219 518.75,298.0781 518.75,298.5313 L518.75,298.6563 L517.2969,298.6563 L517.2969,296.25 L521.2813,296.25 L521.2813,297.1094 C521.2813,297.5156 521.3125,297.6875 521.3906,297.8438 C521.5625,298.0938 521.8438,298.25 522.125,298.25 C522.3906,298.25 522.6563,298.1094 522.8281,297.8906 C522.9375,297.7188 522.9688,297.5781 522.9688,297.1094 L522.9688,294.5625 L515.3438,294.5625 C514.9063,294.5625 514.7813,294.5781 514.625,294.6719 C514.375,294.8281 514.2188,295.125 514.2188,295.4063 C514.2188,295.6875 514.3594,295.9375 514.5781,296.1094 C514.7344,296.2188 514.9219,296.25 515.3438,296.25 L515.5938,296.25 L515.5938,302.7656 L515.3438,302.7656 C514.9375,302.7656 514.7813,302.7813 514.625,302.8906 C514.375,303.0625 514.2188,303.3281 514.2188,303.625 C514.2188,303.8906 514.3594,304.1406 514.5781,304.2969 C514.7188,304.4219 514.9531,304.4688 515.3438,304.4688 L523.3438,304.4688 L523.3438,301.8906 C523.3438,301.4531 523.3125,301.3125 523.2344,301.1563 C523.0625,300.9063 522.7813,300.75 522.5,300.75 C522.2344,300.75 521.9688,300.8594 521.7969,301.1094 C521.6875,301.2656 521.6563,301.4063 521.6563,301.8906 L521.6563,302.7656 L517.2969,302.7656 L517.2969,300.3438 Z " fill="#000000"/><text fill="#000000" font-family="sans-serif" font-size="12" lengthAdjust="spacing" textLength="37" x="532.5" y="296.6387">types.</text><text fill="#000000" font-family="sans-serif" font-size="12" lengthAdjust="spacing" textLength="32" x="535" y="310.6074">Color</text><line style="stroke:#A80036;stroke-width:1.5;" x1="504.5" x2="571.5" y1="318.4375" y2="318.4375"/><line style="stroke:#A80036;stroke-width:1.5;" x1="504.5" x2="571.5" y1="326.4375" y2="326.4375"/><!--MD5=[b8cfd8c4119a3b0a7a46bfc5fc780f85]
class Error--><rect codeLine="37" fill="#FEFECE" filter="url(#ftgz65c5rka5g)" height="53.9375" id="Error" style="stroke:#A80036;stroke-width:1.5;" width="69" x="370.5" y="570"/><ellipse cx="385.5" cy="588.9688" fill="#EB937F" rx="11" ry="11" style="stroke:#A80036;stroke-width:1.0;"/><path d="M384.2969,589.8438 L385.75,589.8438 L385.75,589.9531 C385.75,590.3594 385.7813,590.5156 385.8594,590.6719 C386.0156,590.9219 386.2969,591.0781 386.5938,591.0781 C386.8438,591.0781 387.1094,590.9375 387.2656,590.7188 C387.3906,590.5625 387.4219,590.4063 387.4219,589.9531 L387.4219,588.0313 C387.4219,587.875 387.4219,587.8281 387.4063,587.6719 C387.3438,587.2031 387.0313,586.8906 386.5781,586.8906 C386.3281,586.8906 386.0625,587.0313 385.8906,587.25 C385.7813,587.4219 385.75,587.5781 385.75,588.0313 L385.75,588.1563 L384.2969,588.1563 L384.2969,585.75 L388.2813,585.75 L388.2813,586.6094 C388.2813,587.0156 388.3125,587.1875 388.3906,587.3438 C388.5625,587.5938 388.8438,587.75 389.125,587.75 C389.3906,587.75 389.6563,587.6094 389.8281,587.3906 C389.9375,587.2188 389.9688,587.0781 389.9688,586.6094 L389.9688,584.0625 L382.3438,584.0625 C381.9063,584.0625 381.7813,584.0781 381.625,584.1719 C381.375,584.3281 381.2188,584.625 381.2188,584.9063 C381.2188,585.1875 381.3594,585.4375 381.5781,585.6094 C381.7344,585.7188 381.9219,585.75 382.3438,585.75 L382.5938,585.75 L382.5938,592.2656 L382.3438,592.2656 C381.9375,592.2656 381.7813,592.2813 381.625,592.3906 C381.375,592.5625 381.2188,592.8281 381.2188,593.125 C381.2188,593.3906 381.3594,593.6406 381.5781,593.7969 C381.7188,593.9219 381.9531,593.9688 382.3438,593.9688 L390.3438,593.9688 L390.3438,591.3906 C390.3438,590.9531 390.3125,590.8125 390.2344,590.6563 C390.0625,590.4063 389.7813,590.25 389.5,590.25 C389.2344,590.25 388.9688,590.3594 388.7969,590.6094 C388.6875,590.7656 388.6563,590.9063 388.6563,591.3906 L388.6563,592.2656 L384.2969,592.2656 L384.2969,589.8438 Z " fill="#000000"/><text fill="#000000" font-family="sans-serif" font-size="12" lengthAdjust="spacing" textLength="37" x="399.5" y="586.1387">types.</text><text fill="#000000" font-family="sans-serif" font-size="12" lengthAdjust="spacing" textLength="30" x="403" y="600.1074">Error</text><line style="stroke:#A80036;stroke-width:1.5;" x1="371.5" x2="438.5" y1="607.9375" y2="607.9375"/><line style="stroke:#A80036;stroke-width:1.5;" x1="371.5" x2="438.5" y1="615.9375" y2="615.9375"/><!--MD5=[2f10888865b2f559cc24db01ac34cee3]
reverse link Combination to ProposedCombination--><path codeLine="25" d="M65.2654,171.855 C47.7788,215.258 28.5049,284.172 53,338 C63.4488,360.961 80.9978,381.122 99.9446,397.885 " fill="none" id="Combination-backto-ProposedCombination" style="stroke:#A80036;stroke-width:1.0;"/><polygon fill="none" points="58.9124,168.909,73.2581,153.314,71.7687,174.452,58.9124,168.909" style="stroke:#A80036;stroke-width:1.0;"/><!--MD5=[ed81d3472c9069d2de3c2f5cd308846f]
reverse link Combination to SecretCombination--><path codeLine="26" d="M110.447,170.102 C131.071,202.603 159.664,247.662 178.246,276.945 " fill="none" id="Combination-backto-SecretCombination" style="stroke:#A80036;stroke-width:1.0;"/><polygon fill="none" points="104.447,173.712,99.642,153.074,116.268,166.211,104.447,173.712" style="stroke:#A80036;stroke-width:1.0;"/><!--MD5=[e8e56f95b2bfb8e03c3cdf9f0e0c50ee]
link Board to Color--><path codeLine="39" d="M428.734,217.216 C455.24,238.874 481.846,260.615 502.168,277.221 " fill="none" id="Board-to-Color" style="stroke:#A80036;stroke-width:1.0;stroke-dasharray:7.0,7.0;"/><polygon fill="#A80036" points="506.147,280.472,501.7099,271.6793,502.2756,277.3078,496.6471,277.8735,506.147,280.472" style="stroke:#A80036;stroke-width:1.0;"/><!--MD5=[7f34f2d425e9b3ee5350efe269b05f59]
link Board to Error--><path codeLine="40" d="M471.265,177.383 C517.557,199.892 563.37,232.021 590,277 C642.497,365.67 525.578,487.265 486,534 C474.073,548.0844 458.432,560.9767 444.079,571.3132 " fill="none" id="Board-to-Error" style="stroke:#A80036;stroke-width:1.0;stroke-dasharray:7.0,7.0;"/><polygon fill="#A80036" points="439.671,574.4375,449.3267,572.4964,443.7502,571.5461,444.7005,565.9697,439.671,574.4375" style="stroke:#A80036;stroke-width:1.0;"/><!--MD5=[6e8433e42d71f9427401b78cd95c6f0c]
link Combination to Color--><path codeLine="41" d="M103.6107,163.3477 C103.6107,163.3477 133.844,204.433 155,217 C283.915,293.581 346.227,225.358 487,277 C488.454,277.533 489.914,278.107 491.375,278.714 " fill="none" id="Combination-Color" style="stroke:#A80036;stroke-width:1.0;"/><polygon fill="#A80036" points="503.382,284.376,496.9485,276.9188,498.8598,282.2429,493.5356,284.1542,503.382,284.376" style="stroke:#A80036;stroke-width:1.0;"/><line style="stroke:#A80036;stroke-width:1.0;" x1="498.8598" x2="491.624" y1="282.2429" y2="278.831"/><polygon fill="#A80036" points="97.2583,153.167,97.0409,160.3748,103.6107,163.3477,103.8281,156.1399,97.2583,153.167" style="stroke:#A80036;stroke-width:1.0;"/><!--MD5=[03e1adeaed11e2ac298b9b43cd912fbb]
link ProposedCombination to Error--><path codeLine="42" d="M271.003,510.12 C303.813,531.1484 339.618,554.0958 365.955,570.9757 " fill="none" id="ProposedCombination-to-Error" style="stroke:#A80036;stroke-width:1.0;stroke-dasharray:7.0,7.0;"/><polygon fill="#A80036" points="370.428,573.8428,365.0099,565.6182,366.2187,571.1444,360.6925,572.3531,370.428,573.8428" style="stroke:#A80036;stroke-width:1.0;"/><!--MD5=[e0b5d9907fda64872c10fd6493e0c51f]
link Board to ProposedCombination--><path codeLine="44" d="M352.3759,229.0133 C352.3759,229.0133 357.564,305.21 341,338 C331.044,357.708 315.942,374.868 298.987,389.492 " fill="none" id="Board-ProposedCombination" style="stroke:#A80036;stroke-width:1.0;"/><polygon fill="#A80036" points="288.814,397.81,298.3135,395.21,292.6849,394.6452,293.2497,389.0166,288.814,397.81" style="stroke:#A80036;stroke-width:1.0;"/><line style="stroke:#A80036;stroke-width:1.0;" x1="292.6849" x2="298.878" y1="394.6452" y2="389.5805"/><polygon fill="#A80036" points="350.307,217.193,347.4014,223.7928,352.3759,229.0133,355.2816,222.4135,350.307,217.193" style="stroke:#A80036;stroke-width:1.0;"/><!--MD5=[5e915b8ab835b2366405aaf6901e131b]
link Board to SecretCombination--><path codeLine="45" d="M253.2967,227.009 C253.2967,227.009 233.839,254.483 225.686,265.996 " fill="none" id="Board-SecretCombination" style="stroke:#A80036;stroke-width:1.0;"/><polygon fill="#A80036" points="217.931,276.945,226.3964,271.9115,220.8204,272.8644,219.8675,267.2884,217.931,276.945" style="stroke:#A80036;stroke-width:1.0;"/><line style="stroke:#A80036;stroke-width:1.0;" x1="220.8204" x2="225.4445" y1="272.8644" y2="266.3365"/><polygon fill="#A80036" points="260.232,217.216,253.5,219.8007,253.2967,227.009,260.0287,224.4242,260.232,217.216" style="stroke:#A80036;stroke-width:1.0;"/><!--MD5=[8dd95aff79c51151a18c835e3410b3cd]
link Board to Result--><path codeLine="46" d="M355.5774,228.7504 C355.5774,228.7504 365.202,261.605 369,277 C378.284,314.628 385.889,357.441 391.243,391.419 " fill="none" id="Board-Result" style="stroke:#A80036;stroke-width:1.0;"/><polygon fill="#A80036" points="393.255,404.45,395.8345,394.9449,392.4919,399.5086,387.9282,396.166,393.255,404.45" style="stroke:#A80036;stroke-width:1.0;"/><line style="stroke:#A80036;stroke-width:1.0;" x1="392.4919" x2="391.271" y1="399.5086" y2="391.6025"/><polygon fill="#A80036" points="352.042,217.283,349.9873,224.1952,355.5774,228.7504,357.6322,221.8382,352.042,217.283" style="stroke:#A80036;stroke-width:1.0;"/><!--MD5=[f874647c3c9f57491b6e7b7bf233051a]
link SecretCombination to Result--><path codeLine="47" d="M238.57,338.09 C264.109,356.27 297.535,380.063 327.342,401.28 " fill="none" id="SecretCombination-to-Result" style="stroke:#A80036;stroke-width:1.0;stroke-dasharray:7.0,7.0;"/><polygon fill="#A80036" points="331.712,404.391,326.7007,395.9124,327.639,401.4909,322.0605,402.4292,331.712,404.391" style="stroke:#A80036;stroke-width:1.0;"/><!--MD5=[324ce3fbc91b6fad145775bb65621994]
link SecretCombination to ProposedCombination--><path codeLine="48" d="M194.543,338.09 C193.239,353.789 191.588,373.674 190.027,392.471 " fill="none" id="SecretCombination-to-ProposedCombination" style="stroke:#A80036;stroke-width:1.0;stroke-dasharray:7.0,7.0;"/><polygon fill="#A80036" points="189.589,397.739,194.3185,389.1,190.0019,392.7561,186.3458,388.4394,189.589,397.739" style="stroke:#A80036;stroke-width:1.0;"/><!--MD5=[c32bfeb031b867d775226e00b522588c]
@startuml
package models {
    class Board {
        + reset()
        + add(List<Color>)
        + getError(List<Color>): Error
        + isFinished(): boolean
        + isWinner(): boolean
        - isLoser(): boolean
        + getAttempts(): int
        + getProposedCombinationColors(int): List<Color>
        + getBlacks(int): int
        + getWhites(int): int
    }
    class Combination
    class ProposedCombination {
        ~ ProposedCombination(List<Color>)
        ~ getColors(): List<Color>
        ~ getError(): Error
        ~ contains(Color): boolean
        ~ contains(Color, int): boolean
    }
    class SecretCombination {
        ~ getResult(ProposedCombination): Result
    }
    Combination <|- - ProposedCombination
    Combination <|- - SecretCombination
    class Result {
        ~ Result(int, int)
        ~ getBlacks(): int
        ~ getWhites(): int
        ~ isWinner(): boolean
    }
}


enum "types.\nColor" as Color
enum "types.\nError" as Error

Board .down.> Color
Board .down.> Error
Combination *-down-> Color
ProposedCombination .down.> Error

Board *-down-> ProposedCombination
Board *-down-> SecretCombination
Board *-down-> Result
SecretCombination .down.> Result
SecretCombination .down.> ProposedCombination
@enduml

PlantUML version 1.2021.4beta2(Unknown compile time)
(GPL source distribution)
Java Runtime: Java(TM) SE Runtime Environment
JVM: Java HotSpot(TM) 64-Bit Server VM
Default Encoding: UTF-8
Language: en
Country: US
--></g></svg>