<?xml version="1.0" encoding="UTF-8" standalone="no"?><svg xmlns="http://www.w3.org/2000/svg" xmlns:xlink="http://www.w3.org/1999/xlink" contentScriptType="application/ecmascript" contentStyleType="text/css" height="841px" preserveAspectRatio="none" style="width:1322px;height:841px;" version="1.1" viewBox="0 0 1322 841" width="1322px" zoomAndPan="magnify"><defs><filter height="300%" id="f104qplg0soc7s" width="300%" x="-1" y="-1"><feGaussianBlur result="blurOut" stdDeviation="2.0"/><feColorMatrix in="blurOut" result="blurOut2" type="matrix" values="0 0 0 0 0 0 0 0 0 0 0 0 0 0 0 0 0 0 .4 0"/><feOffset dx="4.0" dy="4.0" in="blurOut2" result="blurOut3"/><feBlend in="SourceGraphic" in2="blurOut3" mode="normal"/></filter></defs><g><!--MD5=[e2a75efa8a0f57c2afae8bf75386f79c]
cluster views--><polygon fill="#FFFFFF" filter="url(#f104qplg0soc7s)" points="370.5,6,421.5,6,428.5,28.2969,1087.5,28.2969,1087.5,730,370.5,730,370.5,6" style="stroke:#000000;stroke-width:1.5;"/><line style="stroke:#000000;stroke-width:1.5;" x1="370.5" x2="428.5" y1="28.2969" y2="28.2969"/><text fill="#000000" font-family="sans-serif" font-size="14" font-weight="bold" lengthAdjust="spacing" textLength="45" x="374.5" y="20.9951">views</text><!--MD5=[af194e474b2c37e443a340884399de77]
class PlayerView--><rect codeLine="2" fill="#FEFECE" filter="url(#f104qplg0soc7s)" height="48" id="PlayerView" style="stroke:#A80036;stroke-width:1.5;" width="97" x="623" y="41"/><ellipse cx="638" cy="57" fill="#ADD1B2" rx="11" ry="11" style="stroke:#A80036;stroke-width:1.0;"/><path d="M640.3438,52.6719 C639.4063,52.2344 638.8125,52.0938 637.9375,52.0938 C635.3125,52.0938 633.3125,54.1719 633.3125,56.8906 L633.3125,58.0156 C633.3125,60.5938 635.4219,62.4844 638.3125,62.4844 C639.5313,62.4844 640.6875,62.1875 641.4375,61.6406 C642.0156,61.2344 642.3438,60.7813 642.3438,60.3906 C642.3438,59.9375 641.9531,59.5469 641.4844,59.5469 C641.2656,59.5469 641.0625,59.625 640.875,59.8125 C640.4219,60.2969 640.4219,60.2969 640.2344,60.3906 C639.8125,60.6563 639.125,60.7813 638.3594,60.7813 C636.3125,60.7813 635.0156,59.6875 635.0156,57.9844 L635.0156,56.8906 C635.0156,55.1094 636.2656,53.7969 638,53.7969 C638.5781,53.7969 639.1875,53.9531 639.6563,54.2031 C640.1406,54.4844 640.3125,54.7031 640.4063,55.1094 C640.4688,55.5156 640.5,55.6406 640.6406,55.7656 C640.7813,55.9063 641.0156,56.0156 641.2344,56.0156 C641.5,56.0156 641.7656,55.875 641.9375,55.6563 C642.0469,55.5 642.0781,55.3125 642.0781,54.8906 L642.0781,53.4688 C642.0781,53.0313 642.0625,52.9063 641.9688,52.75 C641.8125,52.4844 641.5313,52.3438 641.2344,52.3438 C640.9375,52.3438 640.7344,52.4375 640.5156,52.75 L640.3438,52.6719 Z " fill="#000000"/><text fill="#000000" font-family="sans-serif" font-size="12" lengthAdjust="spacing" textLength="65" x="652" y="61.1543">PlayerView</text><line style="stroke:#A80036;stroke-width:1.5;" x1="624" x2="719" y1="73" y2="73"/><line style="stroke:#A80036;stroke-width:1.5;" x1="624" x2="719" y1="81" y2="81"/><!--MD5=[443c52daef265809fdf31be84fc8ae4a]
class StartView--><rect codeLine="3" fill="#FEFECE" filter="url(#f104qplg0soc7s)" height="60.8047" id="StartView" style="stroke:#A80036;stroke-width:1.5;" width="141" x="601" y="149"/><ellipse cx="639.4" cy="165" fill="#ADD1B2" rx="11" ry="11" style="stroke:#A80036;stroke-width:1.0;"/><path d="M641.7438,160.6719 C640.8063,160.2344 640.2125,160.0938 639.3375,160.0938 C636.7125,160.0938 634.7125,162.1719 634.7125,164.8906 L634.7125,166.0156 C634.7125,168.5938 636.8219,170.4844 639.7125,170.4844 C640.9313,170.4844 642.0875,170.1875 642.8375,169.6406 C643.4156,169.2344 643.7438,168.7813 643.7438,168.3906 C643.7438,167.9375 643.3531,167.5469 642.8844,167.5469 C642.6656,167.5469 642.4625,167.625 642.275,167.8125 C641.8219,168.2969 641.8219,168.2969 641.6344,168.3906 C641.2125,168.6563 640.525,168.7813 639.7594,168.7813 C637.7125,168.7813 636.4156,167.6875 636.4156,165.9844 L636.4156,164.8906 C636.4156,163.1094 637.6656,161.7969 639.4,161.7969 C639.9781,161.7969 640.5875,161.9531 641.0563,162.2031 C641.5406,162.4844 641.7125,162.7031 641.8063,163.1094 C641.8688,163.5156 641.9,163.6406 642.0406,163.7656 C642.1813,163.9063 642.4156,164.0156 642.6344,164.0156 C642.9,164.0156 643.1656,163.875 643.3375,163.6563 C643.4469,163.5 643.4781,163.3125 643.4781,162.8906 L643.4781,161.4688 C643.4781,161.0313 643.4625,160.9063 643.3688,160.75 C643.2125,160.4844 642.9313,160.3438 642.6344,160.3438 C642.3375,160.3438 642.1344,160.4375 641.9156,160.75 L641.7438,160.6719 Z " fill="#000000"/><text fill="#000000" font-family="sans-serif" font-size="12" lengthAdjust="spacing" textLength="57" x="658.6" y="169.1543">StartView</text><line style="stroke:#A80036;stroke-width:1.5;" x1="602" x2="741" y1="181" y2="181"/><line style="stroke:#A80036;stroke-width:1.5;" x1="602" x2="741" y1="189" y2="189"/><polygon fill="#4177AF" points="612,196,608,202,616,202" style="stroke:#1963A0;stroke-width:1.0;"/><text fill="#000000" font-family="sans-serif" font-size="11" lengthAdjust="spacing" textLength="115" x="621" y="203.2104">start(StartController)</text><!--MD5=[af548d7eeba3607a103157b84173e841]
class ProposeView--><rect codeLine="6" fill="#FEFECE" filter="url(#f104qplg0soc7s)" height="60.8047" id="ProposeView" style="stroke:#A80036;stroke-width:1.5;" width="180" x="777.5" y="149"/><ellipse cx="823.75" cy="165" fill="#ADD1B2" rx="11" ry="11" style="stroke:#A80036;stroke-width:1.0;"/><path d="M826.0938,160.6719 C825.1563,160.2344 824.5625,160.0938 823.6875,160.0938 C821.0625,160.0938 819.0625,162.1719 819.0625,164.8906 L819.0625,166.0156 C819.0625,168.5938 821.1719,170.4844 824.0625,170.4844 C825.2813,170.4844 826.4375,170.1875 827.1875,169.6406 C827.7656,169.2344 828.0938,168.7813 828.0938,168.3906 C828.0938,167.9375 827.7031,167.5469 827.2344,167.5469 C827.0156,167.5469 826.8125,167.625 826.625,167.8125 C826.1719,168.2969 826.1719,168.2969 825.9844,168.3906 C825.5625,168.6563 824.875,168.7813 824.1094,168.7813 C822.0625,168.7813 820.7656,167.6875 820.7656,165.9844 L820.7656,164.8906 C820.7656,163.1094 822.0156,161.7969 823.75,161.7969 C824.3281,161.7969 824.9375,161.9531 825.4063,162.2031 C825.8906,162.4844 826.0625,162.7031 826.1563,163.1094 C826.2188,163.5156 826.25,163.6406 826.3906,163.7656 C826.5313,163.9063 826.7656,164.0156 826.9844,164.0156 C827.25,164.0156 827.5156,163.875 827.6875,163.6563 C827.7969,163.5 827.8281,163.3125 827.8281,162.8906 L827.8281,161.4688 C827.8281,161.0313 827.8125,160.9063 827.7188,160.75 C827.5625,160.4844 827.2813,160.3438 826.9844,160.3438 C826.6875,160.3438 826.4844,160.4375 826.2656,160.75 L826.0938,160.6719 Z " fill="#000000"/><text fill="#000000" font-family="sans-serif" font-size="12" lengthAdjust="spacing" textLength="79" x="844.25" y="169.1543">ProposeView</text><line style="stroke:#A80036;stroke-width:1.5;" x1="778.5" x2="956.5" y1="181" y2="181"/><line style="stroke:#A80036;stroke-width:1.5;" x1="778.5" x2="956.5" y1="189" y2="189"/><polygon fill="#4177AF" points="788.5,196,784.5,202,792.5,202" style="stroke:#1963A0;stroke-width:1.0;"/><text fill="#000000" font-family="sans-serif" font-size="11" lengthAdjust="spacing" textLength="154" x="797.5" y="203.2104">propose(ProposeController)</text><!--MD5=[19088a99a8c1f36e582d33ac2f8fc6dd]
class ResumeView--><rect codeLine="9" fill="#FEFECE" filter="url(#f104qplg0soc7s)" height="60.8047" id="ResumeView" style="stroke:#A80036;stroke-width:1.5;" width="233" x="387" y="270"/><ellipse cx="460.75" cy="286" fill="#ADD1B2" rx="11" ry="11" style="stroke:#A80036;stroke-width:1.0;"/><path d="M463.0938,281.6719 C462.1563,281.2344 461.5625,281.0938 460.6875,281.0938 C458.0625,281.0938 456.0625,283.1719 456.0625,285.8906 L456.0625,287.0156 C456.0625,289.5938 458.1719,291.4844 461.0625,291.4844 C462.2813,291.4844 463.4375,291.1875 464.1875,290.6406 C464.7656,290.2344 465.0938,289.7813 465.0938,289.3906 C465.0938,288.9375 464.7031,288.5469 464.2344,288.5469 C464.0156,288.5469 463.8125,288.625 463.625,288.8125 C463.1719,289.2969 463.1719,289.2969 462.9844,289.3906 C462.5625,289.6563 461.875,289.7813 461.1094,289.7813 C459.0625,289.7813 457.7656,288.6875 457.7656,286.9844 L457.7656,285.8906 C457.7656,284.1094 459.0156,282.7969 460.75,282.7969 C461.3281,282.7969 461.9375,282.9531 462.4063,283.2031 C462.8906,283.4844 463.0625,283.7031 463.1563,284.1094 C463.2188,284.5156 463.25,284.6406 463.3906,284.7656 C463.5313,284.9063 463.7656,285.0156 463.9844,285.0156 C464.25,285.0156 464.5156,284.875 464.6875,284.6563 C464.7969,284.5 464.8281,284.3125 464.8281,283.8906 L464.8281,282.4688 C464.8281,282.0313 464.8125,281.9063 464.7188,281.75 C464.5625,281.4844 464.2813,281.3438 463.9844,281.3438 C463.6875,281.3438 463.4844,281.4375 463.2656,281.75 L463.0938,281.6719 Z " fill="#000000"/><text fill="#000000" font-family="sans-serif" font-size="12" lengthAdjust="spacing" textLength="77" x="481.25" y="290.1543">ResumeView</text><line style="stroke:#A80036;stroke-width:1.5;" x1="388" x2="619" y1="302" y2="302"/><line style="stroke:#A80036;stroke-width:1.5;" x1="388" x2="619" y1="310" y2="310"/><polygon fill="#4177AF" points="398,317,394,323,402,323" style="stroke:#1963A0;stroke-width:1.0;"/><text fill="#000000" font-family="sans-serif" font-size="11" lengthAdjust="spacing" textLength="207" x="407" y="324.2104">resume(ResumeController): boolean</text><!--MD5=[9b237e88d697a058bd530d6510c96c00]
class BoardView--><rect codeLine="12" fill="#FEFECE" filter="url(#f104qplg0soc7s)" height="60.8047" id="BoardView" style="stroke:#A80036;stroke-width:1.5;" width="117" x="693" y="270"/><ellipse cx="717" cy="286" fill="#ADD1B2" rx="11" ry="11" style="stroke:#A80036;stroke-width:1.0;"/><path d="M719.3438,281.6719 C718.4063,281.2344 717.8125,281.0938 716.9375,281.0938 C714.3125,281.0938 712.3125,283.1719 712.3125,285.8906 L712.3125,287.0156 C712.3125,289.5938 714.4219,291.4844 717.3125,291.4844 C718.5313,291.4844 719.6875,291.1875 720.4375,290.6406 C721.0156,290.2344 721.3438,289.7813 721.3438,289.3906 C721.3438,288.9375 720.9531,288.5469 720.4844,288.5469 C720.2656,288.5469 720.0625,288.625 719.875,288.8125 C719.4219,289.2969 719.4219,289.2969 719.2344,289.3906 C718.8125,289.6563 718.125,289.7813 717.3594,289.7813 C715.3125,289.7813 714.0156,288.6875 714.0156,286.9844 L714.0156,285.8906 C714.0156,284.1094 715.2656,282.7969 717,282.7969 C717.5781,282.7969 718.1875,282.9531 718.6563,283.2031 C719.1406,283.4844 719.3125,283.7031 719.4063,284.1094 C719.4688,284.5156 719.5,284.6406 719.6406,284.7656 C719.7813,284.9063 720.0156,285.0156 720.2344,285.0156 C720.5,285.0156 720.7656,284.875 720.9375,284.6563 C721.0469,284.5 721.0781,284.3125 721.0781,283.8906 L721.0781,282.4688 C721.0781,282.0313 721.0625,281.9063 720.9688,281.75 C720.8125,281.4844 720.5313,281.3438 720.2344,281.3438 C719.9375,281.3438 719.7344,281.4375 719.5156,281.75 L719.3438,281.6719 Z " fill="#000000"/><text fill="#000000" font-family="sans-serif" font-size="12" lengthAdjust="spacing" textLength="65" x="733" y="290.1543">BoardView</text><line style="stroke:#A80036;stroke-width:1.5;" x1="694" x2="809" y1="302" y2="302"/><line style="stroke:#A80036;stroke-width:1.5;" x1="694" x2="809" y1="310" y2="310"/><polygon fill="#4177AF" points="704,317,700,323,708,323" style="stroke:#1963A0;stroke-width:1.0;"/><text fill="#000000" font-family="sans-serif" font-size="11" lengthAdjust="spacing" textLength="91" x="713" y="324.2104">write(Controller)</text><!--MD5=[0523615cfa2fa70c8ab764401f29a299]
class ProposedCombinationView--><rect codeLine="15" fill="#FEFECE" filter="url(#f104qplg0soc7s)" height="73.6094" id="ProposedCombinationView" style="stroke:#A80036;stroke-width:1.5;" width="193" x="878" y="391"/><ellipse cx="893" cy="407" fill="#ADD1B2" rx="11" ry="11" style="stroke:#A80036;stroke-width:1.0;"/><path d="M895.3438,402.6719 C894.4063,402.2344 893.8125,402.0938 892.9375,402.0938 C890.3125,402.0938 888.3125,404.1719 888.3125,406.8906 L888.3125,408.0156 C888.3125,410.5938 890.4219,412.4844 893.3125,412.4844 C894.5313,412.4844 895.6875,412.1875 896.4375,411.6406 C897.0156,411.2344 897.3438,410.7813 897.3438,410.3906 C897.3438,409.9375 896.9531,409.5469 896.4844,409.5469 C896.2656,409.5469 896.0625,409.625 895.875,409.8125 C895.4219,410.2969 895.4219,410.2969 895.2344,410.3906 C894.8125,410.6563 894.125,410.7813 893.3594,410.7813 C891.3125,410.7813 890.0156,409.6875 890.0156,407.9844 L890.0156,406.8906 C890.0156,405.1094 891.2656,403.7969 893,403.7969 C893.5781,403.7969 894.1875,403.9531 894.6563,404.2031 C895.1406,404.4844 895.3125,404.7031 895.4063,405.1094 C895.4688,405.5156 895.5,405.6406 895.6406,405.7656 C895.7813,405.9063 896.0156,406.0156 896.2344,406.0156 C896.5,406.0156 896.7656,405.875 896.9375,405.6563 C897.0469,405.5 897.0781,405.3125 897.0781,404.8906 L897.0781,403.4688 C897.0781,403.0313 897.0625,402.9063 896.9688,402.75 C896.8125,402.4844 896.5313,402.3438 896.2344,402.3438 C895.9375,402.3438 895.7344,402.4375 895.5156,402.75 L895.3438,402.6719 Z " fill="#000000"/><text fill="#000000" font-family="sans-serif" font-size="12" lengthAdjust="spacing" textLength="161" x="907" y="411.1543">ProposedCombinationView</text><line style="stroke:#A80036;stroke-width:1.5;" x1="879" x2="1070" y1="423" y2="423"/><line style="stroke:#A80036;stroke-width:1.5;" x1="879" x2="1070" y1="431" y2="431"/><polygon fill="#4177AF" points="889,438,885,444,893,444" style="stroke:#1963A0;stroke-width:1.0;"/><text fill="#000000" font-family="sans-serif" font-size="11" lengthAdjust="spacing" textLength="136" x="898" y="445.2104">write(ProposeController)</text><polygon fill="#4177AF" points="889,450.8047,885,456.8047,893,456.8047" style="stroke:#1963A0;stroke-width:1.0;"/><text fill="#000000" font-family="sans-serif" font-size="11" lengthAdjust="spacing" textLength="107" x="898" y="458.0151">read(): List&lt;Color&gt;</text><!--MD5=[94936c1138d9bd95716606726ba703b1]
class SecretCombinationView--><rect codeLine="19" fill="#FEFECE" filter="url(#f104qplg0soc7s)" height="60.8047" id="SecretCombinationView" style="stroke:#A80036;stroke-width:1.5;" width="175" x="593" y="397.5"/><ellipse cx="608" cy="413.5" fill="#ADD1B2" rx="11" ry="11" style="stroke:#A80036;stroke-width:1.0;"/><path d="M610.3438,409.1719 C609.4063,408.7344 608.8125,408.5938 607.9375,408.5938 C605.3125,408.5938 603.3125,410.6719 603.3125,413.3906 L603.3125,414.5156 C603.3125,417.0938 605.4219,418.9844 608.3125,418.9844 C609.5313,418.9844 610.6875,418.6875 611.4375,418.1406 C612.0156,417.7344 612.3438,417.2813 612.3438,416.8906 C612.3438,416.4375 611.9531,416.0469 611.4844,416.0469 C611.2656,416.0469 611.0625,416.125 610.875,416.3125 C610.4219,416.7969 610.4219,416.7969 610.2344,416.8906 C609.8125,417.1563 609.125,417.2813 608.3594,417.2813 C606.3125,417.2813 605.0156,416.1875 605.0156,414.4844 L605.0156,413.3906 C605.0156,411.6094 606.2656,410.2969 608,410.2969 C608.5781,410.2969 609.1875,410.4531 609.6563,410.7031 C610.1406,410.9844 610.3125,411.2031 610.4063,411.6094 C610.4688,412.0156 610.5,412.1406 610.6406,412.2656 C610.7813,412.4063 611.0156,412.5156 611.2344,412.5156 C611.5,412.5156 611.7656,412.375 611.9375,412.1563 C612.0469,412 612.0781,411.8125 612.0781,411.3906 L612.0781,409.9688 C612.0781,409.5313 612.0625,409.4063 611.9688,409.25 C611.8125,408.9844 611.5313,408.8438 611.2344,408.8438 C610.9375,408.8438 610.7344,408.9375 610.5156,409.25 L610.3438,409.1719 Z " fill="#000000"/><text fill="#000000" font-family="sans-serif" font-size="12" lengthAdjust="spacing" textLength="143" x="622" y="417.6543">SecretCombinationView</text><line style="stroke:#A80036;stroke-width:1.5;" x1="594" x2="767" y1="429.5" y2="429.5"/><line style="stroke:#A80036;stroke-width:1.5;" x1="594" x2="767" y1="437.5" y2="437.5"/><polygon fill="#4177AF" points="604,444.5,600,450.5,608,450.5" style="stroke:#1963A0;stroke-width:1.0;"/><text fill="#000000" font-family="sans-serif" font-size="11" lengthAdjust="spacing" textLength="36" x="613" y="451.7104">write()</text><!--MD5=[a40873b740e53ca026148d30ccb3c321]
class ResultView--><rect codeLine="22" fill="#FEFECE" filter="url(#f104qplg0soc7s)" height="60.8047" id="ResultView" style="stroke:#A80036;stroke-width:1.5;" width="97" x="461" y="397.5"/><ellipse cx="476" cy="413.5" fill="#ADD1B2" rx="11" ry="11" style="stroke:#A80036;stroke-width:1.0;"/><path d="M478.3438,409.1719 C477.4063,408.7344 476.8125,408.5938 475.9375,408.5938 C473.3125,408.5938 471.3125,410.6719 471.3125,413.3906 L471.3125,414.5156 C471.3125,417.0938 473.4219,418.9844 476.3125,418.9844 C477.5313,418.9844 478.6875,418.6875 479.4375,418.1406 C480.0156,417.7344 480.3438,417.2813 480.3438,416.8906 C480.3438,416.4375 479.9531,416.0469 479.4844,416.0469 C479.2656,416.0469 479.0625,416.125 478.875,416.3125 C478.4219,416.7969 478.4219,416.7969 478.2344,416.8906 C477.8125,417.1563 477.125,417.2813 476.3594,417.2813 C474.3125,417.2813 473.0156,416.1875 473.0156,414.4844 L473.0156,413.3906 C473.0156,411.6094 474.2656,410.2969 476,410.2969 C476.5781,410.2969 477.1875,410.4531 477.6563,410.7031 C478.1406,410.9844 478.3125,411.2031 478.4063,411.6094 C478.4688,412.0156 478.5,412.1406 478.6406,412.2656 C478.7813,412.4063 479.0156,412.5156 479.2344,412.5156 C479.5,412.5156 479.7656,412.375 479.9375,412.1563 C480.0469,412 480.0781,411.8125 480.0781,411.3906 L480.0781,409.9688 C480.0781,409.5313 480.0625,409.4063 479.9688,409.25 C479.8125,408.9844 479.5313,408.8438 479.2344,408.8438 C478.9375,408.8438 478.7344,408.9375 478.5156,409.25 L478.3438,409.1719 Z " fill="#000000"/><text fill="#000000" font-family="sans-serif" font-size="12" lengthAdjust="spacing" textLength="65" x="490" y="417.6543">ResultView</text><line style="stroke:#A80036;stroke-width:1.5;" x1="462" x2="557" y1="429.5" y2="429.5"/><line style="stroke:#A80036;stroke-width:1.5;" x1="462" x2="557" y1="437.5" y2="437.5"/><polygon fill="#4177AF" points="472,444.5,468,450.5,476,450.5" style="stroke:#1963A0;stroke-width:1.0;"/><text fill="#000000" font-family="sans-serif" font-size="11" lengthAdjust="spacing" textLength="71" x="481" y="451.7104">write(int, int)</text><!--MD5=[5c0d2bf114541dffca76af5edd55a1b5]
class ColorView--><rect codeLine="25" fill="#FEFECE" filter="url(#f104qplg0soc7s)" height="73.6094" id="ColorView" style="stroke:#A80036;stroke-width:1.5;" width="96" x="797.5" y="582.5"/><ellipse cx="813.85" cy="598.5" fill="#ADD1B2" rx="11" ry="11" style="stroke:#A80036;stroke-width:1.0;"/><path d="M816.1938,594.1719 C815.2563,593.7344 814.6625,593.5938 813.7875,593.5938 C811.1625,593.5938 809.1625,595.6719 809.1625,598.3906 L809.1625,599.5156 C809.1625,602.0938 811.2719,603.9844 814.1625,603.9844 C815.3813,603.9844 816.5375,603.6875 817.2875,603.1406 C817.8656,602.7344 818.1938,602.2813 818.1938,601.8906 C818.1938,601.4375 817.8031,601.0469 817.3344,601.0469 C817.1156,601.0469 816.9125,601.125 816.725,601.3125 C816.2719,601.7969 816.2719,601.7969 816.0844,601.8906 C815.6625,602.1563 814.975,602.2813 814.2094,602.2813 C812.1625,602.2813 810.8656,601.1875 810.8656,599.4844 L810.8656,598.3906 C810.8656,596.6094 812.1156,595.2969 813.85,595.2969 C814.4281,595.2969 815.0375,595.4531 815.5063,595.7031 C815.9906,595.9844 816.1625,596.2031 816.2563,596.6094 C816.3188,597.0156 816.35,597.1406 816.4906,597.2656 C816.6313,597.4063 816.8656,597.5156 817.0844,597.5156 C817.35,597.5156 817.6156,597.375 817.7875,597.1563 C817.8969,597 817.9281,596.8125 817.9281,596.3906 L817.9281,594.9688 C817.9281,594.5313 817.9125,594.4063 817.8188,594.25 C817.6625,593.9844 817.3813,593.8438 817.0844,593.8438 C816.7875,593.8438 816.5844,593.9375 816.3656,594.25 L816.1938,594.1719 Z " fill="#000000"/><text fill="#000000" font-family="sans-serif" font-size="12" lengthAdjust="spacing" textLength="61" x="828.15" y="602.6543">ColorView</text><line style="stroke:#A80036;stroke-width:1.5;" x1="798.5" x2="892.5" y1="614.5" y2="614.5"/><line style="stroke:#A80036;stroke-width:1.5;" x1="798.5" x2="892.5" y1="622.5" y2="622.5"/><polygon fill="#4177AF" points="808.5,629.5,804.5,635.5,812.5,635.5" style="stroke:#1963A0;stroke-width:1.0;"/><text fill="#000000" font-family="sans-serif" font-size="11" lengthAdjust="spacing" textLength="65" x="817.5" y="636.7104">write(Color)</text><polygon fill="#4177AF" points="808.5,642.3047,804.5,648.3047,812.5,648.3047" style="stroke:#1963A0;stroke-width:1.0;"/><text fill="#000000" font-family="sans-serif" font-size="11" lengthAdjust="spacing" textLength="70" x="817.5" y="649.5151">read(): Color</text><!--MD5=[bea5b0d46523efab5ea1c1d339f396f0]
class Message--><rect codeLine="29" fill="#FEFECE" filter="url(#f104qplg0soc7s)" height="188.8516" id="Message" style="stroke:#A80036;stroke-width:1.5;" width="173" x="589" y="525"/><ellipse cx="643.75" cy="541" fill="#EB937F" rx="11" ry="11" style="stroke:#A80036;stroke-width:1.0;"/><path d="M642.5469,541.875 L644,541.875 L644,541.9844 C644,542.3906 644.0313,542.5469 644.1094,542.7031 C644.2656,542.9531 644.5469,543.1094 644.8438,543.1094 C645.0938,543.1094 645.3594,542.9688 645.5156,542.75 C645.6406,542.5938 645.6719,542.4375 645.6719,541.9844 L645.6719,540.0625 C645.6719,539.9063 645.6719,539.8594 645.6563,539.7031 C645.5938,539.2344 645.2813,538.9219 644.8281,538.9219 C644.5781,538.9219 644.3125,539.0625 644.1406,539.2813 C644.0313,539.4531 644,539.6094 644,540.0625 L644,540.1875 L642.5469,540.1875 L642.5469,537.7813 L646.5313,537.7813 L646.5313,538.6406 C646.5313,539.0469 646.5625,539.2188 646.6406,539.375 C646.8125,539.625 647.0938,539.7813 647.375,539.7813 C647.6406,539.7813 647.9063,539.6406 648.0781,539.4219 C648.1875,539.25 648.2188,539.1094 648.2188,538.6406 L648.2188,536.0938 L640.5938,536.0938 C640.1563,536.0938 640.0313,536.1094 639.875,536.2031 C639.625,536.3594 639.4688,536.6563 639.4688,536.9375 C639.4688,537.2188 639.6094,537.4688 639.8281,537.6406 C639.9844,537.75 640.1719,537.7813 640.5938,537.7813 L640.8438,537.7813 L640.8438,544.2969 L640.5938,544.2969 C640.1875,544.2969 640.0313,544.3125 639.875,544.4219 C639.625,544.5938 639.4688,544.8594 639.4688,545.1563 C639.4688,545.4219 639.6094,545.6719 639.8281,545.8281 C639.9688,545.9531 640.2031,546 640.5938,546 L648.5938,546 L648.5938,543.4219 C648.5938,542.9844 648.5625,542.8438 648.4844,542.6875 C648.3125,542.4375 648.0313,542.2813 647.75,542.2813 C647.4844,542.2813 647.2188,542.3906 647.0469,542.6406 C646.9375,542.7969 646.9063,542.9375 646.9063,543.4219 L646.9063,544.2969 L642.5469,544.2969 L642.5469,541.875 Z " fill="#000000"/><text fill="#000000" font-family="sans-serif" font-size="12" lengthAdjust="spacing" textLength="55" x="664.25" y="545.1543">Message</text><line style="stroke:#A80036;stroke-width:1.5;" x1="590" x2="761" y1="557" y2="557"/><ellipse cx="600" cy="568" rx="3" ry="3" style="stroke:#038048;stroke-width:1.0;fill:none;"/><text fill="#000000" font-family="sans-serif" font-size="11" lengthAdjust="spacing" textLength="30" x="609" y="571.2104">TITLE</text><ellipse cx="600" cy="580.8047" rx="3" ry="3" style="stroke:#038048;stroke-width:1.0;fill:none;"/><text fill="#000000" font-family="sans-serif" font-size="11" lengthAdjust="spacing" textLength="130" x="609" y="584.0151">SECRET_COMBINATION</text><ellipse cx="600" cy="593.6094" rx="3" ry="3" style="stroke:#038048;stroke-width:1.0;fill:none;"/><text fill="#000000" font-family="sans-serif" font-size="11" lengthAdjust="spacing" textLength="59" x="609" y="596.8198">ATTEMPTS</text><ellipse cx="600" cy="606.4141" rx="3" ry="3" style="stroke:#038048;stroke-width:1.0;fill:none;"/><text fill="#000000" font-family="sans-serif" font-size="11" lengthAdjust="spacing" textLength="43" x="609" y="609.6245">RESULT</text><ellipse cx="600" cy="619.2188" rx="3" ry="3" style="stroke:#038048;stroke-width:1.0;fill:none;"/><text fill="#000000" font-family="sans-serif" font-size="11" lengthAdjust="spacing" textLength="147" x="609" y="622.4292">PROPOSED_COMBINATION</text><ellipse cx="600" cy="632.0234" rx="3" ry="3" style="stroke:#038048;stroke-width:1.0;fill:none;"/><text fill="#000000" font-family="sans-serif" font-size="11" lengthAdjust="spacing" textLength="44" x="609" y="635.2339">WINNER</text><ellipse cx="600" cy="644.8281" rx="3" ry="3" style="stroke:#038048;stroke-width:1.0;fill:none;"/><text fill="#000000" font-family="sans-serif" font-size="11" lengthAdjust="spacing" textLength="46" x="609" y="648.0386">LOOSER</text><ellipse cx="600" cy="657.6328" rx="3" ry="3" style="stroke:#038048;stroke-width:1.0;fill:none;"/><text fill="#000000" font-family="sans-serif" font-size="11" lengthAdjust="spacing" textLength="46" x="609" y="660.8433">RESUME</text><line style="stroke:#A80036;stroke-width:1.5;" x1="590" x2="761" y1="667.4375" y2="667.4375"/><polygon fill="#4177AF" points="600,674.4375,596,680.4375,604,680.4375" style="stroke:#1963A0;stroke-width:1.0;"/><text fill="#000000" font-family="sans-serif" font-size="11" lengthAdjust="spacing" textLength="36" x="609" y="681.6479">write()</text><polygon fill="#4177AF" points="600,687.2422,596,693.2422,604,693.2422" style="stroke:#1963A0;stroke-width:1.0;"/><text fill="#000000" font-family="sans-serif" font-size="11" lengthAdjust="spacing" textLength="50" x="609" y="694.4526">write(int)</text><polygon fill="#4177AF" points="600,700.0469,596,706.0469,604,706.0469" style="stroke:#1963A0;stroke-width:1.0;"/><text fill="#000000" font-family="sans-serif" font-size="11" lengthAdjust="spacing" textLength="71" x="609" y="707.2573">write(int, int)</text><!--MD5=[86cec68673cafdfc1c204348d5b2cca6]
class ErrorView--><rect codeLine="42" fill="#FEFECE" filter="url(#f104qplg0soc7s)" height="60.8047" id="ErrorView" style="stroke:#A80036;stroke-width:1.5;" width="91" x="929" y="589"/><ellipse cx="944" cy="605" fill="#ADD1B2" rx="11" ry="11" style="stroke:#A80036;stroke-width:1.0;"/><path d="M946.3438,600.6719 C945.4063,600.2344 944.8125,600.0938 943.9375,600.0938 C941.3125,600.0938 939.3125,602.1719 939.3125,604.8906 L939.3125,606.0156 C939.3125,608.5938 941.4219,610.4844 944.3125,610.4844 C945.5313,610.4844 946.6875,610.1875 947.4375,609.6406 C948.0156,609.2344 948.3438,608.7813 948.3438,608.3906 C948.3438,607.9375 947.9531,607.5469 947.4844,607.5469 C947.2656,607.5469 947.0625,607.625 946.875,607.8125 C946.4219,608.2969 946.4219,608.2969 946.2344,608.3906 C945.8125,608.6563 945.125,608.7813 944.3594,608.7813 C942.3125,608.7813 941.0156,607.6875 941.0156,605.9844 L941.0156,604.8906 C941.0156,603.1094 942.2656,601.7969 944,601.7969 C944.5781,601.7969 945.1875,601.9531 945.6563,602.2031 C946.1406,602.4844 946.3125,602.7031 946.4063,603.1094 C946.4688,603.5156 946.5,603.6406 946.6406,603.7656 C946.7813,603.9063 947.0156,604.0156 947.2344,604.0156 C947.5,604.0156 947.7656,603.875 947.9375,603.6563 C948.0469,603.5 948.0781,603.3125 948.0781,602.8906 L948.0781,601.4688 C948.0781,601.0313 948.0625,600.9063 947.9688,600.75 C947.8125,600.4844 947.5313,600.3438 947.2344,600.3438 C946.9375,600.3438 946.7344,600.4375 946.5156,600.75 L946.3438,600.6719 Z " fill="#000000"/><text fill="#000000" font-family="sans-serif" font-size="12" lengthAdjust="spacing" textLength="59" x="958" y="609.1543">ErrorView</text><line style="stroke:#A80036;stroke-width:1.5;" x1="930" x2="1019" y1="621" y2="621"/><line style="stroke:#A80036;stroke-width:1.5;" x1="930" x2="1019" y1="629" y2="629"/><polygon fill="#4177AF" points="940,636,936,642,944,642" style="stroke:#1963A0;stroke-width:1.0;"/><text fill="#000000" font-family="sans-serif" font-size="11" lengthAdjust="spacing" textLength="62" x="949" y="643.2104">write(Error)</text><!--MD5=[0b95e4ee8b160a2b3b0650a9b235c496]
class ProposeController--><rect codeLine="65" fill="#FEFECE" filter="url(#f104qplg0soc7s)" height="53.9375" id="ProposeController" style="stroke:#A80036;stroke-width:1.5;" width="141" x="1167" y="592.5"/><ellipse cx="1182" cy="611.4688" fill="#ADD1B2" rx="11" ry="11" style="stroke:#A80036;stroke-width:1.0;"/><path d="M1184.3438,607.1406 C1183.4063,606.7031 1182.8125,606.5625 1181.9375,606.5625 C1179.3125,606.5625 1177.3125,608.6406 1177.3125,611.3594 L1177.3125,612.4844 C1177.3125,615.0625 1179.4219,616.9531 1182.3125,616.9531 C1183.5313,616.9531 1184.6875,616.6563 1185.4375,616.1094 C1186.0156,615.7031 1186.3438,615.25 1186.3438,614.8594 C1186.3438,614.4063 1185.9531,614.0156 1185.4844,614.0156 C1185.2656,614.0156 1185.0625,614.0938 1184.875,614.2813 C1184.4219,614.7656 1184.4219,614.7656 1184.2344,614.8594 C1183.8125,615.125 1183.125,615.25 1182.3594,615.25 C1180.3125,615.25 1179.0156,614.1563 1179.0156,612.4531 L1179.0156,611.3594 C1179.0156,609.5781 1180.2656,608.2656 1182,608.2656 C1182.5781,608.2656 1183.1875,608.4219 1183.6563,608.6719 C1184.1406,608.9531 1184.3125,609.1719 1184.4063,609.5781 C1184.4688,609.9844 1184.5,610.1094 1184.6406,610.2344 C1184.7813,610.375 1185.0156,610.4844 1185.2344,610.4844 C1185.5,610.4844 1185.7656,610.3438 1185.9375,610.125 C1186.0469,609.9688 1186.0781,609.7813 1186.0781,609.3594 L1186.0781,607.9375 C1186.0781,607.5 1186.0625,607.375 1185.9688,607.2188 C1185.8125,606.9531 1185.5313,606.8125 1185.2344,606.8125 C1184.9375,606.8125 1184.7344,606.9063 1184.5156,607.2188 L1184.3438,607.1406 Z " fill="#000000"/><text fill="#000000" font-family="sans-serif" font-size="12" lengthAdjust="spacing" textLength="68" x="1216.5" y="608.6387">controllers.</text><text fill="#000000" font-family="sans-serif" font-size="12" lengthAdjust="spacing" textLength="109" x="1196" y="622.6074">ProposeController</text><line style="stroke:#A80036;stroke-width:1.5;" x1="1168" x2="1307" y1="630.4375" y2="630.4375"/><line style="stroke:#A80036;stroke-width:1.5;" x1="1168" x2="1307" y1="638.4375" y2="638.4375"/><!--MD5=[47c371471411cfedeee61b1a5bdaee47]
class StartController--><rect codeLine="66" fill="#FEFECE" filter="url(#f104qplg0soc7s)" height="53.9375" id="StartController" style="stroke:#A80036;stroke-width:1.5;" width="119" x="1104" y="273.5"/><ellipse cx="1119" cy="292.4688" fill="#ADD1B2" rx="11" ry="11" style="stroke:#A80036;stroke-width:1.0;"/><path d="M1121.3438,288.1406 C1120.4063,287.7031 1119.8125,287.5625 1118.9375,287.5625 C1116.3125,287.5625 1114.3125,289.6406 1114.3125,292.3594 L1114.3125,293.4844 C1114.3125,296.0625 1116.4219,297.9531 1119.3125,297.9531 C1120.5313,297.9531 1121.6875,297.6563 1122.4375,297.1094 C1123.0156,296.7031 1123.3438,296.25 1123.3438,295.8594 C1123.3438,295.4063 1122.9531,295.0156 1122.4844,295.0156 C1122.2656,295.0156 1122.0625,295.0938 1121.875,295.2813 C1121.4219,295.7656 1121.4219,295.7656 1121.2344,295.8594 C1120.8125,296.125 1120.125,296.25 1119.3594,296.25 C1117.3125,296.25 1116.0156,295.1563 1116.0156,293.4531 L1116.0156,292.3594 C1116.0156,290.5781 1117.2656,289.2656 1119,289.2656 C1119.5781,289.2656 1120.1875,289.4219 1120.6563,289.6719 C1121.1406,289.9531 1121.3125,290.1719 1121.4063,290.5781 C1121.4688,290.9844 1121.5,291.1094 1121.6406,291.2344 C1121.7813,291.375 1122.0156,291.4844 1122.2344,291.4844 C1122.5,291.4844 1122.7656,291.3438 1122.9375,291.125 C1123.0469,290.9688 1123.0781,290.7813 1123.0781,290.3594 L1123.0781,288.9375 C1123.0781,288.5 1123.0625,288.375 1122.9688,288.2188 C1122.8125,287.9531 1122.5313,287.8125 1122.2344,287.8125 C1121.9375,287.8125 1121.7344,287.9063 1121.5156,288.2188 L1121.3438,288.1406 Z " fill="#000000"/><text fill="#000000" font-family="sans-serif" font-size="12" lengthAdjust="spacing" textLength="68" x="1142.5" y="289.6387">controllers.</text><text fill="#000000" font-family="sans-serif" font-size="12" lengthAdjust="spacing" textLength="87" x="1133" y="303.6074">StartController</text><line style="stroke:#A80036;stroke-width:1.5;" x1="1105" x2="1222" y1="311.4375" y2="311.4375"/><line style="stroke:#A80036;stroke-width:1.5;" x1="1105" x2="1222" y1="319.4375" y2="319.4375"/><!--MD5=[1a47bbf44ccee225df9b18c5b6629853]
class ResumeController--><rect codeLine="67" fill="#FEFECE" filter="url(#f104qplg0soc7s)" height="53.9375" id="ResumeController" style="stroke:#A80036;stroke-width:1.5;" width="139" x="7" y="401"/><ellipse cx="22" cy="419.9688" fill="#ADD1B2" rx="11" ry="11" style="stroke:#A80036;stroke-width:1.0;"/><path d="M24.3438,415.6406 C23.4063,415.2031 22.8125,415.0625 21.9375,415.0625 C19.3125,415.0625 17.3125,417.1406 17.3125,419.8594 L17.3125,420.9844 C17.3125,423.5625 19.4219,425.4531 22.3125,425.4531 C23.5313,425.4531 24.6875,425.1563 25.4375,424.6094 C26.0156,424.2031 26.3438,423.75 26.3438,423.3594 C26.3438,422.9063 25.9531,422.5156 25.4844,422.5156 C25.2656,422.5156 25.0625,422.5938 24.875,422.7813 C24.4219,423.2656 24.4219,423.2656 24.2344,423.3594 C23.8125,423.625 23.125,423.75 22.3594,423.75 C20.3125,423.75 19.0156,422.6563 19.0156,420.9531 L19.0156,419.8594 C19.0156,418.0781 20.2656,416.7656 22,416.7656 C22.5781,416.7656 23.1875,416.9219 23.6563,417.1719 C24.1406,417.4531 24.3125,417.6719 24.4063,418.0781 C24.4688,418.4844 24.5,418.6094 24.6406,418.7344 C24.7813,418.875 25.0156,418.9844 25.2344,418.9844 C25.5,418.9844 25.7656,418.8438 25.9375,418.625 C26.0469,418.4688 26.0781,418.2813 26.0781,417.8594 L26.0781,416.4375 C26.0781,416 26.0625,415.875 25.9688,415.7188 C25.8125,415.4531 25.5313,415.3125 25.2344,415.3125 C24.9375,415.3125 24.7344,415.4063 24.5156,415.7188 L24.3438,415.6406 Z " fill="#000000"/><text fill="#000000" font-family="sans-serif" font-size="12" lengthAdjust="spacing" textLength="68" x="55.5" y="417.1387">controllers.</text><text fill="#000000" font-family="sans-serif" font-size="12" lengthAdjust="spacing" textLength="107" x="36" y="431.1074">ResumeController</text><line style="stroke:#A80036;stroke-width:1.5;" x1="8" x2="145" y1="438.9375" y2="438.9375"/><line style="stroke:#A80036;stroke-width:1.5;" x1="8" x2="145" y1="446.9375" y2="446.9375"/><!--MD5=[1d7ba1c7002d54515419844fbd155368]
class Controller--><rect codeLine="68" fill="#FEFECE" filter="url(#f104qplg0soc7s)" height="53.9375" id="Controller" style="stroke:#A80036;stroke-width:1.5;" width="99" x="181" y="401"/><ellipse cx="196" cy="419.9688" fill="#A9DCDF" rx="11" ry="11" style="stroke:#A80036;stroke-width:1.0;"/><path d="M198.0781,421.7813 L198.4688,422.7656 L198.0781,422.7656 C197.625,422.7656 197.5156,422.7813 197.3594,422.8906 C197.1094,423.0469 196.9531,423.3281 196.9531,423.625 C196.9531,423.8906 197.0938,424.1406 197.3125,424.2969 C197.4531,424.4219 197.6563,424.4688 198.0781,424.4688 L200.4375,424.4688 C200.7969,424.4688 201.0156,424.4375 201.1563,424.3438 C201.4063,424.2031 201.5625,423.9063 201.5625,423.625 C201.5625,423.3438 201.4219,423.0938 201.2031,422.9375 C201.0313,422.7969 200.875,422.7656 200.4063,422.7656 L197.0156,414.5625 L193.3438,414.5625 C192.8906,414.5625 192.7656,414.5781 192.6094,414.6719 C192.3594,414.8438 192.2031,415.125 192.2031,415.4063 C192.2031,415.6875 192.3438,415.9375 192.5625,416.1094 C192.7344,416.2188 192.9063,416.25 193.3438,416.25 L194.4219,416.25 L191.7813,422.7656 C191.3594,422.7656 191.2031,422.7813 191.0469,422.8906 C190.7969,423.0469 190.6406,423.3281 190.6406,423.625 C190.6406,424.1875 191.0156,424.4688 191.7656,424.4688 L194.0313,424.4688 C194.3906,424.4688 194.6094,424.4375 194.7344,424.3438 C195,424.2031 195.1406,423.9063 195.1406,423.625 C195.1406,423.3438 195.0156,423.0938 194.7969,422.9219 C194.625,422.7969 194.4844,422.7656 194.0313,422.7656 L193.6406,422.7656 L194.0313,421.7813 L198.0781,421.7813 Z M197.375,420.0781 L194.7031,420.0781 L196.0469,416.8125 L197.375,420.0781 Z " fill="#000000"/><text fill="#000000" font-family="sans-serif" font-size="12" font-style="italic" lengthAdjust="spacing" textLength="67" x="210" y="417.1387">controllers.</text><text fill="#000000" font-family="sans-serif" font-size="12" font-style="italic" lengthAdjust="spacing" textLength="58" x="214.5" y="431.1074">Controller</text><line style="stroke:#A80036;stroke-width:1.5;" x1="182" x2="279" y1="438.9375" y2="438.9375"/><line style="stroke:#A80036;stroke-width:1.5;" x1="182" x2="279" y1="446.9375" y2="446.9375"/><!--MD5=[18eee71c88ab61f27581b8cbdd3ef5ee]
class Color--><rect codeLine="69" fill="#FEFECE" filter="url(#f104qplg0soc7s)" height="53.9375" id="Color" style="stroke:#A80036;stroke-width:1.5;" width="69" x="501" y="774"/><ellipse cx="516" cy="792.9688" fill="#EB937F" rx="11" ry="11" style="stroke:#A80036;stroke-width:1.0;"/><path d="M514.7969,793.8438 L516.25,793.8438 L516.25,793.9531 C516.25,794.3594 516.2813,794.5156 516.3594,794.6719 C516.5156,794.9219 516.7969,795.0781 517.0938,795.0781 C517.3438,795.0781 517.6094,794.9375 517.7656,794.7188 C517.8906,794.5625 517.9219,794.4063 517.9219,793.9531 L517.9219,792.0313 C517.9219,791.875 517.9219,791.8281 517.9063,791.6719 C517.8438,791.2031 517.5313,790.8906 517.0781,790.8906 C516.8281,790.8906 516.5625,791.0313 516.3906,791.25 C516.2813,791.4219 516.25,791.5781 516.25,792.0313 L516.25,792.1563 L514.7969,792.1563 L514.7969,789.75 L518.7813,789.75 L518.7813,790.6094 C518.7813,791.0156 518.8125,791.1875 518.8906,791.3438 C519.0625,791.5938 519.3438,791.75 519.625,791.75 C519.8906,791.75 520.1563,791.6094 520.3281,791.3906 C520.4375,791.2188 520.4688,791.0781 520.4688,790.6094 L520.4688,788.0625 L512.8438,788.0625 C512.4063,788.0625 512.2813,788.0781 512.125,788.1719 C511.875,788.3281 511.7188,788.625 511.7188,788.9063 C511.7188,789.1875 511.8594,789.4375 512.0781,789.6094 C512.2344,789.7188 512.4219,789.75 512.8438,789.75 L513.0938,789.75 L513.0938,796.2656 L512.8438,796.2656 C512.4375,796.2656 512.2813,796.2813 512.125,796.3906 C511.875,796.5625 511.7188,796.8281 511.7188,797.125 C511.7188,797.3906 511.8594,797.6406 512.0781,797.7969 C512.2188,797.9219 512.4531,797.9688 512.8438,797.9688 L520.8438,797.9688 L520.8438,795.3906 C520.8438,794.9531 520.8125,794.8125 520.7344,794.6563 C520.5625,794.4063 520.2813,794.25 520,794.25 C519.7344,794.25 519.4688,794.3594 519.2969,794.6094 C519.1875,794.7656 519.1563,794.9063 519.1563,795.3906 L519.1563,796.2656 L514.7969,796.2656 L514.7969,793.8438 Z " fill="#000000"/><text fill="#000000" font-family="sans-serif" font-size="12" lengthAdjust="spacing" textLength="37" x="530" y="790.1387">types.</text><text fill="#000000" font-family="sans-serif" font-size="12" lengthAdjust="spacing" textLength="32" x="532.5" y="804.1074">Color</text><line style="stroke:#A80036;stroke-width:1.5;" x1="502" x2="569" y1="811.9375" y2="811.9375"/><line style="stroke:#A80036;stroke-width:1.5;" x1="502" x2="569" y1="819.9375" y2="819.9375"/><!--MD5=[b8cfd8c4119a3b0a7a46bfc5fc780f85]
class Error--><rect codeLine="70" fill="#FEFECE" filter="url(#f104qplg0soc7s)" height="53.9375" id="Error" style="stroke:#A80036;stroke-width:1.5;" width="69" x="989" y="774"/><ellipse cx="1004" cy="792.9688" fill="#EB937F" rx="11" ry="11" style="stroke:#A80036;stroke-width:1.0;"/><path d="M1002.7969,793.8438 L1004.25,793.8438 L1004.25,793.9531 C1004.25,794.3594 1004.2813,794.5156 1004.3594,794.6719 C1004.5156,794.9219 1004.7969,795.0781 1005.0938,795.0781 C1005.3438,795.0781 1005.6094,794.9375 1005.7656,794.7188 C1005.8906,794.5625 1005.9219,794.4063 1005.9219,793.9531 L1005.9219,792.0313 C1005.9219,791.875 1005.9219,791.8281 1005.9063,791.6719 C1005.8438,791.2031 1005.5313,790.8906 1005.0781,790.8906 C1004.8281,790.8906 1004.5625,791.0313 1004.3906,791.25 C1004.2813,791.4219 1004.25,791.5781 1004.25,792.0313 L1004.25,792.1563 L1002.7969,792.1563 L1002.7969,789.75 L1006.7813,789.75 L1006.7813,790.6094 C1006.7813,791.0156 1006.8125,791.1875 1006.8906,791.3438 C1007.0625,791.5938 1007.3438,791.75 1007.625,791.75 C1007.8906,791.75 1008.1563,791.6094 1008.3281,791.3906 C1008.4375,791.2188 1008.4688,791.0781 1008.4688,790.6094 L1008.4688,788.0625 L1000.8438,788.0625 C1000.4063,788.0625 1000.2813,788.0781 1000.125,788.1719 C999.875,788.3281 999.7188,788.625 999.7188,788.9063 C999.7188,789.1875 999.8594,789.4375 1000.0781,789.6094 C1000.2344,789.7188 1000.4219,789.75 1000.8438,789.75 L1001.0938,789.75 L1001.0938,796.2656 L1000.8438,796.2656 C1000.4375,796.2656 1000.2813,796.2813 1000.125,796.3906 C999.875,796.5625 999.7188,796.8281 999.7188,797.125 C999.7188,797.3906 999.8594,797.6406 1000.0781,797.7969 C1000.2188,797.9219 1000.4531,797.9688 1000.8438,797.9688 L1008.8438,797.9688 L1008.8438,795.3906 C1008.8438,794.9531 1008.8125,794.8125 1008.7344,794.6563 C1008.5625,794.4063 1008.2813,794.25 1008,794.25 C1007.7344,794.25 1007.4688,794.3594 1007.2969,794.6094 C1007.1875,794.7656 1007.1563,794.9063 1007.1563,795.3906 L1007.1563,796.2656 L1002.7969,796.2656 L1002.7969,793.8438 Z " fill="#000000"/><text fill="#000000" font-family="sans-serif" font-size="12" lengthAdjust="spacing" textLength="37" x="1018" y="790.1387">types.</text><text fill="#000000" font-family="sans-serif" font-size="12" lengthAdjust="spacing" textLength="30" x="1021.5" y="804.1074">Error</text><line style="stroke:#A80036;stroke-width:1.5;" x1="990" x2="1057" y1="811.9375" y2="811.9375"/><line style="stroke:#A80036;stroke-width:1.5;" x1="990" x2="1057" y1="819.9375" y2="819.9375"/><!--MD5=[dc0500422e092c4f25e7b64adb8c025b]
link PlayerView to StartView--><path codeLine="47" d="M671.5,101.038 C671.5,101.038 671.5,124.562 671.5,135.634 " fill="none" id="PlayerView-StartView" style="stroke:#A80036;stroke-width:1.0;"/><polygon fill="#A80036" points="671.5,148.65,675.5,139.65,671.5,143.65,667.5,139.65,671.5,148.65" style="stroke:#A80036;stroke-width:1.0;"/><line style="stroke:#A80036;stroke-width:1.0;" x1="671.5" x2="671.5" y1="143.65" y2="135.65"/><polygon fill="#A80036" points="671.5,89.038,667.5,95.038,671.5,101.038,675.5,95.038,671.5,89.038" style="stroke:#A80036;stroke-width:1.0;"/><!--MD5=[6aa5591338f4cd689301f7e2cc176561]
link PlayerView to ProposeView--><path codeLine="48" d="M722.0434,95.0118 C722.0434,95.0118 778.162,127.222 804.465,142.319 " fill="none" id="PlayerView-ProposeView" style="stroke:#A80036;stroke-width:1.0;"/><polygon fill="#A80036" points="815.858,148.859,810.0437,140.9095,811.5216,146.3699,806.0612,147.8478,815.858,148.859" style="stroke:#A80036;stroke-width:1.0;"/><line style="stroke:#A80036;stroke-width:1.0;" x1="811.5216" x2="804.583" y1="146.3699" y2="142.387"/><polygon fill="#A80036" points="711.636,89.038,714.8484,95.494,722.0434,95.0118,718.831,88.5558,711.636,89.038" style="stroke:#A80036;stroke-width:1.0;"/><!--MD5=[b95630b4bb6f21f358e9b1d68800b78a]
link PlayerView to ResumeView--><path codeLine="49" d="M633.1633,97.2115 C633.1633,97.2115 597.633,130.47 583.5,149 C557.712,182.81 535.668,226.084 521.29,257.544 " fill="none" id="PlayerView-ResumeView" style="stroke:#A80036;stroke-width:1.0;"/><polygon fill="#A80036" points="515.794,269.819,523.1229,263.2398,517.8375,265.2556,515.8216,259.9702,515.794,269.819" style="stroke:#A80036;stroke-width:1.0;"/><line style="stroke:#A80036;stroke-width:1.0;" x1="517.8375" x2="521.1065" y1="265.2556" y2="257.9545"/><polygon fill="#A80036" points="642.22,89.339,635.0675,90.2564,633.1633,97.2115,640.3158,96.2942,642.22,89.339" style="stroke:#A80036;stroke-width:1.0;"/><!--MD5=[2b5890793a76472eff4c2a6a4af43287]
link StartView to BoardView--><path codeLine="50" d="M691.481,210.222 C702.744,226.976 716.861,247.975 728.574,265.397 " fill="none" id="StartView-to-BoardView" style="stroke:#A80036;stroke-width:1.0;stroke-dasharray:7.0,7.0;"/><polygon fill="#A80036" points="731.496,269.745,729.7927,260.0446,728.7057,265.596,723.1543,264.509,731.496,269.745" style="stroke:#A80036;stroke-width:1.0;"/><!--MD5=[29c306805319960c0560bedfd82b8e40]
link ProposeView to BoardView--><path codeLine="51" d="M838.528,210.222 C822.057,227.118 801.379,248.331 784.312,265.839 " fill="none" id="ProposeView-to-BoardView" style="stroke:#A80036;stroke-width:1.0;stroke-dasharray:7.0,7.0;"/><polygon fill="#A80036" points="780.505,269.745,789.6516,266.0927,783.9952,266.1647,783.9232,260.5084,780.505,269.745" style="stroke:#A80036;stroke-width:1.0;"/><!--MD5=[b92bc89b5449472b10f1cf1477809057]
link BoardView to ProposedCombinationView--><path codeLine="52" d="M804.066,331.083 C834.504,348.213 873.166,369.971 905.97,388.433 " fill="none" id="BoardView-to-ProposedCombinationView" style="stroke:#A80036;stroke-width:1.0;stroke-dasharray:7.0,7.0;"/><polygon fill="#A80036" points="910.351,390.898,904.4686,382.9988,905.9934,388.4463,900.5459,389.971,910.351,390.898" style="stroke:#A80036;stroke-width:1.0;"/><!--MD5=[15f682a315f16673a58b132a229e1ff0]
link BoardView to ResultView--><path codeLine="53" d="M692.615,330.911 C658.32,348.173 614.32,370.548 575.5,391 C571.345,393.189 567.054,395.474 562.747,397.785 " fill="none" id="BoardView-to-ResultView" style="stroke:#A80036;stroke-width:1.0;stroke-dasharray:7.0,7.0;"/><polygon fill="#A80036" points="558.073,400.299,567.8938,399.5566,562.476,397.9297,564.1029,392.5119,558.073,400.299" style="stroke:#A80036;stroke-width:1.0;"/><!--MD5=[02a16ebf8539d2e5d44c3be387606aac]
link BoardView to Message--><path codeLine="54" d="M766.746,331.225 C781.668,364.367 800.178,419.317 785.5,465 C779.351,484.136 769.84,502.909 758.928,520.396 " fill="none" id="BoardView-to-Message" style="stroke:#A80036;stroke-width:1.0;stroke-dasharray:7.0,7.0;"/><polygon fill="#A80036" points="756.125,524.814,764.3257,519.3597,758.8048,520.5928,757.5718,515.072,756.125,524.814" style="stroke:#A80036;stroke-width:1.0;"/><!--MD5=[5418e21908cb409c36d98acf7a0f9cb6]
link BoardView to SecretCombinationView--><path codeLine="55" d="M734.674,331.242 C724.24,349.685 710.798,373.445 699.914,392.684 " fill="none" id="BoardView-to-SecretCombinationView" style="stroke:#A80036;stroke-width:1.0;stroke-dasharray:7.0,7.0;"/><polygon fill="#A80036" points="697.205,397.472,705.1192,391.6098,699.6678,393.1206,698.157,387.6693,697.205,397.472" style="stroke:#A80036;stroke-width:1.0;"/><!--MD5=[54923e7f1f8105ab44ef05f41a7d666e]
link ProposedCombinationView to ColorView--><path codeLine="56" d="M949.932,465.09 C928.035,497.257 896.013,544.296 873.209,577.795 " fill="none" id="ProposedCombinationView-to-ColorView" style="stroke:#A80036;stroke-width:1.0;stroke-dasharray:7.0,7.0;"/><polygon fill="#A80036" points="870.195,582.223,878.5648,577.032,873.0076,578.0891,871.9506,572.5319,870.195,582.223" style="stroke:#A80036;stroke-width:1.0;"/><!--MD5=[058408ce5819f71d62d41402f2a6cc02]
link ProposedCombinationView to ErrorView--><path codeLine="57" d="M974.5,465.09 C974.5,499.135 974.5,549.84 974.5,583.518 " fill="none" id="ProposedCombinationView-to-ErrorView" style="stroke:#A80036;stroke-width:1.0;stroke-dasharray:7.0,7.0;"/><polygon fill="#A80036" points="974.5,588.772,978.5,579.772,974.5,583.772,970.5,579.772,974.5,588.772" style="stroke:#A80036;stroke-width:1.0;"/><!--MD5=[7bf6310e2078d439bcd0e6b6dd4bf7dc]
link ProposedCombinationView to Message--><path codeLine="58" d="M888.662,465.033 C853.602,481.316 813.409,502.056 779.5,525 C775.035,528.021 770.563,531.221 766.117,534.547 " fill="none" id="ProposedCombinationView-to-Message" style="stroke:#A80036;stroke-width:1.0;stroke-dasharray:7.0,7.0;"/><polygon fill="#A80036" points="762.043,537.635,771.6321,535.3879,766.0282,534.6154,766.8007,529.0115,762.043,537.635" style="stroke:#A80036;stroke-width:1.0;"/><!--MD5=[0e5df9184d8007a1cb9785d3f6966635]
link ResultView to Message--><path codeLine="59" d="M535.438,458.609 C550.35,475.633 570.026,498.094 589.901,520.783 " fill="none" id="ResultView-to-Message" style="stroke:#A80036;stroke-width:1.0;stroke-dasharray:7.0,7.0;"/><polygon fill="#A80036" points="593.351,524.722,590.4284,515.3168,590.0559,520.9613,584.4114,520.5888,593.351,524.722" style="stroke:#A80036;stroke-width:1.0;"/><!--MD5=[97e9ace985d716348ec86012fc7f7728]
link StartView to Message--><path codeLine="60" d="M673.044,210.215 C673.122,243.798 667.969,298.064 637.5,331 C576.211,397.25 497.066,318.364 443.5,391 C423.98,417.47 427.931,436.03 443.5,465 C473.294,520.439 532.874,559.212 584.193,583.921 " fill="none" id="StartView-to-Message" style="stroke:#A80036;stroke-width:1.0;stroke-dasharray:7.0,7.0;"/><polygon fill="#A80036" points="588.816,586.12,582.4076,578.6412,584.301,583.9718,578.9704,585.8652,588.816,586.12" style="stroke:#A80036;stroke-width:1.0;"/><!--MD5=[91198d1c12ec6e73a40fb6837ae56756]
link ResumeView to Message--><path codeLine="61" d="M462.383,331.135 C444.368,346.682 425.157,367.404 415.5,391 C403.042,421.438 399.194,436.438 415.5,465 C451.394,527.875 524.239,567.586 583.714,590.827 " fill="none" id="ResumeView-to-Message" style="stroke:#A80036;stroke-width:1.0;stroke-dasharray:7.0,7.0;"/><polygon fill="#A80036" points="588.697,592.748,581.74,585.7767,584.0321,590.9483,578.8605,593.2405,588.697,592.748" style="stroke:#A80036;stroke-width:1.0;"/><!--MD5=[314f1b143affbca542acc1caaa9c190a]
link ProposeView to ProposedCombinationView--><path codeLine="62" d="M880.407,210.234 C899.468,254.147 935.208,336.482 956.733,386.069 " fill="none" id="ProposeView-to-ProposedCombinationView" style="stroke:#A80036;stroke-width:1.0;stroke-dasharray:7.0,7.0;"/><polygon fill="#A80036" points="958.77,390.763,958.854,380.9145,956.7784,386.1768,951.5161,384.1011,958.77,390.763" style="stroke:#A80036;stroke-width:1.0;"/><!--MD5=[2af68b46eeb5c2e46543eeb7557d9936]
link ProposeView to Message--><path codeLine="63" d="M864.434,210.181 C858.021,263.554 840.093,378.248 797.5,465 C788.164,484.014 776.159,502.855 763.333,520.482 " fill="none" id="ProposeView-to-Message" style="stroke:#A80036;stroke-width:1.0;stroke-dasharray:7.0,7.0;"/><polygon fill="#A80036" points="760.056,524.936,768.6115,520.0571,763.0191,520.9086,762.1676,515.3162,760.056,524.936" style="stroke:#A80036;stroke-width:1.0;"/><!--MD5=[4b21c71922f6b938a01287b262bac1e8]
link ResumeView to ResumeController--><path codeLine="72" d="M386.687,328.117 C320.552,344.212 236.675,366.355 163.5,391 C156.326,393.416 148.9,396.137 141.548,398.972 " fill="none" id="ResumeView-to-ResumeController" style="stroke:#A80036;stroke-width:1.0;"/><polygon fill="#A80036" points="136.475,400.951,146.3133,401.407,141.1332,399.134,143.4061,393.9539,136.475,400.951" style="stroke:#A80036;stroke-width:1.0;"/><!--MD5=[3ad0bd69ff7a093d2131bc46b011fe78]
link StartView to StartController--><path codeLine="73" d="M742.323,205.207 C748.105,206.929 753.883,208.553 759.5,210 C903.009,246.979 944.896,229.673 1087.5,270 C1091.23,271.056 1095.04,272.224 1098.86,273.469 " fill="none" id="StartView-to-StartController" style="stroke:#A80036;stroke-width:1.0;"/><polygon fill="#A80036" points="1103.7,275.083,1096.4148,268.4554,1098.9537,273.5104,1093.8987,276.0494,1103.7,275.083" style="stroke:#A80036;stroke-width:1.0;"/><!--MD5=[29fcc52e6d71b3dd4a5f09442a1139e9]
link ProposeView to ProposeController--><path codeLine="74" d="M957.588,189.437 C1056.5,201.329 1205.92,226.137 1240.5,270 C1314.62,364.004 1272.38,520.859 1249.37,587.272 " fill="none" id="ProposeView-to-ProposeController" style="stroke:#A80036;stroke-width:1.0;"/><polygon fill="#A80036" points="1247.61,592.275,1254.3683,585.1108,1249.2681,587.5579,1246.821,582.4578,1247.61,592.275" style="stroke:#A80036;stroke-width:1.0;"/><!--MD5=[e3472d34888c576c4bdcfb4b35a51dcb]
link BoardView to Controller--><path codeLine="75" d="M692.824,317.563 C675.11,322.174 655.569,327.025 637.5,331 C491.91,363.028 449.529,345.724 307.5,391 C300.048,393.375 292.382,396.31 284.909,399.471 " fill="none" id="BoardView-to-Controller" style="stroke:#A80036;stroke-width:1.0;"/><polygon fill="#A80036" points="280.284,401.466,290.1323,401.574,284.8751,399.4855,286.9635,394.2283,280.284,401.466" style="stroke:#A80036;stroke-width:1.0;"/><!--MD5=[84218aafa7a878c97f717d9c345cf5ad]
link ProposedCombinationView to ProposeController--><path codeLine="76" d="M1024.59,465.09 C1074.64,501.157 1150.65,555.92 1197.02,589.33 " fill="none" id="ProposedCombinationView-to-ProposeController" style="stroke:#A80036;stroke-width:1.0;stroke-dasharray:7.0,7.0;"/><polygon fill="#A80036" points="1201.13,592.295,1196.1751,583.7833,1197.0763,589.3679,1191.4917,590.2692,1201.13,592.295" style="stroke:#A80036;stroke-width:1.0;"/><!--MD5=[12f03c7f5abb6c3e068862197d6139ed]
link BoardView to Color--><path codeLine="77" d="M692.872,316.604 C605.671,339.343 451.158,380.8 443.5,391 C354.919,508.985 464.308,696.568 513.686,769.5494 " fill="none" id="BoardView-to-Color" style="stroke:#A80036;stroke-width:1.0;stroke-dasharray:7.0,7.0;"/><polygon fill="#A80036" points="516.564,773.7729,514.803,764.0828,513.7491,769.6406,508.1913,768.5866,516.564,773.7729" style="stroke:#A80036;stroke-width:1.0;"/><!--MD5=[644d3bda32b13afd96f2f5d418a902c1]
link ProposedCombinationView to Color--><path codeLine="78" d="M877.915,449.14 C762.034,473.725 581.906,513.455 571.5,525 C510.133,593.084 520.125,711.97 529.283,768.4604 " fill="none" id="ProposedCombinationView-to-Color" style="stroke:#A80036;stroke-width:1.0;stroke-dasharray:7.0,7.0;"/><polygon fill="#A80036" points="530.164,773.7287,532.6242,764.1921,529.339,768.7972,524.7338,765.5121,530.164,773.7287" style="stroke:#A80036;stroke-width:1.0;"/><!--MD5=[3c978e882819d5791a3d8cfa6d73d565]
link ColorView to Color--><path codeLine="79" d="M834.011,656.523 C823.781,682.889 806.241,717.505 779.5,738 C718.962,784.3967 627.578,796.3487 575.532,799.2565 " fill="none" id="ColorView-to-Color" style="stroke:#A80036;stroke-width:1.0;stroke-dasharray:7.0,7.0;"/><polygon fill="#A80036" points="570.311,799.5252,579.5048,803.0571,575.3044,799.2681,579.0934,795.0676,570.311,799.5252" style="stroke:#A80036;stroke-width:1.0;"/><!--MD5=[974176bb14ab9e9584f1ed513689e2fc]
link ProposedCombinationView to Error--><path codeLine="80" d="M1005.474,465.195 C1018.02,482.183 1031.05,503.416 1037.5,525 C1062.97,610.244 1044.01,716.886 1031.76,768.761 " fill="none" id="ProposedCombinationView-to-Error" style="stroke:#A80036;stroke-width:1.0;stroke-dasharray:7.0,7.0;"/><polygon fill="#A80036" points="1030.52,773.9088,1036.5132,766.0933,1031.6889,769.0474,1028.7348,764.2231,1030.52,773.9088" style="stroke:#A80036;stroke-width:1.0;"/><!--MD5=[86870cdabd6f68629f04aeac36e6c4ff]
link ErrorView to Error--><path codeLine="81" d="M982.591,650.141 C991.519,682.845 1005.826,735.2553 1014.94,768.6335 " fill="none" id="ErrorView-to-Error" style="stroke:#A80036;stroke-width:1.0;stroke-dasharray:7.0,7.0;"/><polygon fill="#A80036" points="1016.35,773.8211,1017.841,764.0858,1015.0344,768.9973,1010.1229,766.1907,1016.35,773.8211" style="stroke:#A80036;stroke-width:1.0;"/><!--MD5=[ebef4af6e66888c918d21ebb22bf5838]
@startuml
package views {
    class PlayerView
    class StartView {
        ~ start(StartController)
    }
    class ProposeView {
        ~ propose(ProposeController)
    }
    class ResumeView {
        ~ resume(ResumeController): boolean
    }
    class BoardView {
        ~ write(Controller)
    }
    class ProposedCombinationView {
        ~ write(ProposeController)
        ~ read(): List<Color>
    }
    class SecretCombinationView {
        ~ write()
    }
    class ResultView {
        ~ write(int, int)
    }
    class ColorView {
        ~ write(Color)
        ~ read(): Color
    }
    enum Message {
        + TITLE
        + SECRET_COMBINATION
        + ATTEMPTS
        + RESULT
        + PROPOSED_COMBINATION
        + WINNER
        + LOOSER
        + RESUME
        ~ write()
        ~ write(int)
        ~ write(int, int)
    }
    class ErrorView {
        ~ write(Error)
    }
}

PlayerView *-down-> StartView
PlayerView *-down-> ProposeView
PlayerView *-down-> ResumeView
StartView .down.> BoardView
ProposeView .down.> BoardView
BoardView .down.> ProposedCombinationView
BoardView .down.> ResultView
BoardView .down.> Message
BoardView .down.> SecretCombinationView
ProposedCombinationView .down.> ColorView
ProposedCombinationView .down.> ErrorView
ProposedCombinationView .down.> Message
ResultView .down.> Message
StartView .down.> Message
ResumeView .down.> Message
ProposeView .down.> ProposedCombinationView
ProposeView .down.> Message

class "controllers.\nProposeController" as ProposeController
class "controllers.\nStartController" as StartController
class "controllers.\nResumeController" as ResumeController
abstract class "controllers.\nController" as Controller
enum "types.\nColor" as Color
enum "types.\nError" as Error

ResumeView -down-> ResumeController
StartView -down-> StartController
ProposeView -down-> ProposeController
BoardView -down-> Controller
ProposedCombinationView .down.> ProposeController
BoardView .down.> Color
ProposedCombinationView .down.> Color
ColorView .down.> Color
ProposedCombinationView .down.> Error
ErrorView .down.> Error
@enduml

PlantUML version 1.2021.4beta3(Unknown compile time)
(GPL source distribution)
Java Runtime: Java(TM) SE Runtime Environment
JVM: Java HotSpot(TM) 64-Bit Server VM
Default Encoding: UTF-8
Language: en
Country: US
--></g></svg>