<?xml version="1.0" encoding="UTF-8" standalone="no"?><svg xmlns="http://www.w3.org/2000/svg" xmlns:xlink="http://www.w3.org/1999/xlink" contentScriptType="application/ecmascript" contentStyleType="text/css" height="585px" preserveAspectRatio="none" style="width:1004px;height:585px;" version="1.1" viewBox="0 0 1004 585" width="1004px" zoomAndPan="magnify"><defs><filter height="300%" id="f1418ee1p7v1ub" width="300%" x="-1" y="-1"><feGaussianBlur result="blurOut" stdDeviation="2.0"/><feColorMatrix in="blurOut" result="blurOut2" type="matrix" values="0 0 0 0 0 0 0 0 0 0 0 0 0 0 0 0 0 0 .4 0"/><feOffset dx="4.0" dy="4.0" in="blurOut2" result="blurOut3"/><feBlend in="SourceGraphic" in2="blurOut3" mode="normal"/></filter></defs><g><!--MD5=[f4e70ef68289585296b9045165e58692]
cluster controllers--><polygon fill="#FFFFFF" filter="url(#f1418ee1p7v1ub)" points="16,6,111,6,118,28.2969,891,28.2969,891,474,16,474,16,6" style="stroke:#000000;stroke-width:1.5;"/><line style="stroke:#000000;stroke-width:1.5;" x1="16" x2="118" y1="28.2969" y2="28.2969"/><text fill="#000000" font-family="sans-serif" font-size="14" font-weight="bold" lengthAdjust="spacing" textLength="89" x="20" y="20.9951">controllers</text><!--MD5=[1d7ba1c7002d54515419844fbd155368]
class Controller--><rect codeLine="2" fill="#FEFECE" filter="url(#f1418ee1p7v1ub)" height="48" id="Controller" style="stroke:#A80036;stroke-width:1.5;" width="90" x="427" y="41"/><ellipse cx="442" cy="57" fill="#A9DCDF" rx="11" ry="11" style="stroke:#A80036;stroke-width:1.0;"/><path d="M444.0781,58.8125 L444.4688,59.7969 L444.0781,59.7969 C443.625,59.7969 443.5156,59.8125 443.3594,59.9219 C443.1094,60.0781 442.9531,60.3594 442.9531,60.6563 C442.9531,60.9219 443.0938,61.1719 443.3125,61.3281 C443.4531,61.4531 443.6563,61.5 444.0781,61.5 L446.4375,61.5 C446.7969,61.5 447.0156,61.4688 447.1563,61.375 C447.4063,61.2344 447.5625,60.9375 447.5625,60.6563 C447.5625,60.375 447.4219,60.125 447.2031,59.9688 C447.0313,59.8281 446.875,59.7969 446.4063,59.7969 L443.0156,51.5938 L439.3438,51.5938 C438.8906,51.5938 438.7656,51.6094 438.6094,51.7031 C438.3594,51.875 438.2031,52.1563 438.2031,52.4375 C438.2031,52.7188 438.3438,52.9688 438.5625,53.1406 C438.7344,53.25 438.9063,53.2813 439.3438,53.2813 L440.4219,53.2813 L437.7813,59.7969 C437.3594,59.7969 437.2031,59.8125 437.0469,59.9219 C436.7969,60.0781 436.6406,60.3594 436.6406,60.6563 C436.6406,61.2188 437.0156,61.5 437.7656,61.5 L440.0313,61.5 C440.3906,61.5 440.6094,61.4688 440.7344,61.375 C441,61.2344 441.1406,60.9375 441.1406,60.6563 C441.1406,60.375 441.0156,60.125 440.7969,59.9531 C440.625,59.8281 440.4844,59.7969 440.0313,59.7969 L439.6406,59.7969 L440.0313,58.8125 L444.0781,58.8125 Z M443.375,57.1094 L440.7031,57.1094 L442.0469,53.8438 L443.375,57.1094 Z " fill="#000000"/><text fill="#000000" font-family="sans-serif" font-size="12" font-style="italic" lengthAdjust="spacing" textLength="58" x="456" y="61.1543">Controller</text><line style="stroke:#A80036;stroke-width:1.5;" x1="428" x2="516" y1="73" y2="73"/><line style="stroke:#A80036;stroke-width:1.5;" x1="428" x2="516" y1="81" y2="81"/><!--MD5=[47c371471411cfedeee61b1a5bdaee47]
class StartController--><rect codeLine="3" fill="#FEFECE" filter="url(#f1418ee1p7v1ub)" height="99.2188" id="StartController" style="stroke:#A80036;stroke-width:1.5;" width="298" x="69" y="174.5"/><ellipse cx="170.25" cy="190.5" fill="#ADD1B2" rx="11" ry="11" style="stroke:#A80036;stroke-width:1.0;"/><path d="M172.5938,186.1719 C171.6563,185.7344 171.0625,185.5938 170.1875,185.5938 C167.5625,185.5938 165.5625,187.6719 165.5625,190.3906 L165.5625,191.5156 C165.5625,194.0938 167.6719,195.9844 170.5625,195.9844 C171.7813,195.9844 172.9375,195.6875 173.6875,195.1406 C174.2656,194.7344 174.5938,194.2813 174.5938,193.8906 C174.5938,193.4375 174.2031,193.0469 173.7344,193.0469 C173.5156,193.0469 173.3125,193.125 173.125,193.3125 C172.6719,193.7969 172.6719,193.7969 172.4844,193.8906 C172.0625,194.1563 171.375,194.2813 170.6094,194.2813 C168.5625,194.2813 167.2656,193.1875 167.2656,191.4844 L167.2656,190.3906 C167.2656,188.6094 168.5156,187.2969 170.25,187.2969 C170.8281,187.2969 171.4375,187.4531 171.9063,187.7031 C172.3906,187.9844 172.5625,188.2031 172.6563,188.6094 C172.7188,189.0156 172.75,189.1406 172.8906,189.2656 C173.0313,189.4063 173.2656,189.5156 173.4844,189.5156 C173.75,189.5156 174.0156,189.375 174.1875,189.1563 C174.2969,189 174.3281,188.8125 174.3281,188.3906 L174.3281,186.9688 C174.3281,186.5313 174.3125,186.4063 174.2188,186.25 C174.0625,185.9844 173.7813,185.8438 173.4844,185.8438 C173.1875,185.8438 172.9844,185.9375 172.7656,186.25 L172.5938,186.1719 Z " fill="#000000"/><text fill="#000000" font-family="sans-serif" font-size="12" lengthAdjust="spacing" textLength="87" x="190.75" y="194.6543">StartController</text><line style="stroke:#A80036;stroke-width:1.5;" x1="70" x2="366" y1="206.5" y2="206.5"/><line style="stroke:#A80036;stroke-width:1.5;" x1="70" x2="366" y1="214.5" y2="214.5"/><ellipse cx="80" cy="225.5" fill="#84BE84" rx="3" ry="3" style="stroke:#038048;stroke-width:1.0;"/><text fill="#000000" font-family="sans-serif" font-size="11" lengthAdjust="spacing" textLength="100" x="89" y="228.7104">getAttempts(): int</text><ellipse cx="80" cy="238.3047" fill="#84BE84" rx="3" ry="3" style="stroke:#038048;stroke-width:1.0;"/><text fill="#000000" font-family="sans-serif" font-size="11" lengthAdjust="spacing" textLength="272" x="89" y="241.5151">getProposedCombinationColors(int): List&lt;Color&gt;</text><ellipse cx="80" cy="251.1094" fill="#84BE84" rx="3" ry="3" style="stroke:#038048;stroke-width:1.0;"/><text fill="#000000" font-family="sans-serif" font-size="11" lengthAdjust="spacing" textLength="98" x="89" y="254.3198">getBlacks(int): int</text><ellipse cx="80" cy="263.9141" fill="#84BE84" rx="3" ry="3" style="stroke:#038048;stroke-width:1.0;"/><text fill="#000000" font-family="sans-serif" font-size="11" lengthAdjust="spacing" textLength="101" x="89" y="267.1245">getWhites(int): int</text><!--MD5=[0b95e4ee8b160a2b3b0650a9b235c496]
class ProposeController--><rect codeLine="9" fill="#FEFECE" filter="url(#f1418ee1p7v1ub)" height="150.4375" id="ProposeController" style="stroke:#A80036;stroke-width:1.5;" width="298" x="577" y="149"/><ellipse cx="667.25" cy="165" fill="#ADD1B2" rx="11" ry="11" style="stroke:#A80036;stroke-width:1.0;"/><path d="M669.5938,160.6719 C668.6563,160.2344 668.0625,160.0938 667.1875,160.0938 C664.5625,160.0938 662.5625,162.1719 662.5625,164.8906 L662.5625,166.0156 C662.5625,168.5938 664.6719,170.4844 667.5625,170.4844 C668.7813,170.4844 669.9375,170.1875 670.6875,169.6406 C671.2656,169.2344 671.5938,168.7813 671.5938,168.3906 C671.5938,167.9375 671.2031,167.5469 670.7344,167.5469 C670.5156,167.5469 670.3125,167.625 670.125,167.8125 C669.6719,168.2969 669.6719,168.2969 669.4844,168.3906 C669.0625,168.6563 668.375,168.7813 667.6094,168.7813 C665.5625,168.7813 664.2656,167.6875 664.2656,165.9844 L664.2656,164.8906 C664.2656,163.1094 665.5156,161.7969 667.25,161.7969 C667.8281,161.7969 668.4375,161.9531 668.9063,162.2031 C669.3906,162.4844 669.5625,162.7031 669.6563,163.1094 C669.7188,163.5156 669.75,163.6406 669.8906,163.7656 C670.0313,163.9063 670.2656,164.0156 670.4844,164.0156 C670.75,164.0156 671.0156,163.875 671.1875,163.6563 C671.2969,163.5 671.3281,163.3125 671.3281,162.8906 L671.3281,161.4688 C671.3281,161.0313 671.3125,160.9063 671.2188,160.75 C671.0625,160.4844 670.7813,160.3438 670.4844,160.3438 C670.1875,160.3438 669.9844,160.4375 669.7656,160.75 L669.5938,160.6719 Z " fill="#000000"/><text fill="#000000" font-family="sans-serif" font-size="12" lengthAdjust="spacing" textLength="109" x="687.75" y="169.1543">ProposeController</text><line style="stroke:#A80036;stroke-width:1.5;" x1="578" x2="874" y1="181" y2="181"/><line style="stroke:#A80036;stroke-width:1.5;" x1="578" x2="874" y1="189" y2="189"/><ellipse cx="588" cy="200" fill="#84BE84" rx="3" ry="3" style="stroke:#038048;stroke-width:1.0;"/><text fill="#000000" font-family="sans-serif" font-size="11" lengthAdjust="spacing" textLength="152" x="597" y="203.2104">getError(List&lt;Color&gt;): Error</text><ellipse cx="588" cy="212.8047" fill="#84BE84" rx="3" ry="3" style="stroke:#038048;stroke-width:1.0;"/><text fill="#000000" font-family="sans-serif" font-size="11" lengthAdjust="spacing" textLength="95" x="597" y="216.0151">add(List&lt;Color&gt;)</text><ellipse cx="588" cy="225.6094" fill="#84BE84" rx="3" ry="3" style="stroke:#038048;stroke-width:1.0;"/><text fill="#000000" font-family="sans-serif" font-size="11" lengthAdjust="spacing" textLength="117" x="597" y="228.8198">isFinished(): boolean</text><ellipse cx="588" cy="238.4141" fill="#84BE84" rx="3" ry="3" style="stroke:#038048;stroke-width:1.0;"/><text fill="#000000" font-family="sans-serif" font-size="11" lengthAdjust="spacing" textLength="110" x="597" y="241.6245">isWinner(): boolean</text><ellipse cx="588" cy="251.2188" fill="#84BE84" rx="3" ry="3" style="stroke:#038048;stroke-width:1.0;"/><text fill="#000000" font-family="sans-serif" font-size="11" lengthAdjust="spacing" textLength="100" x="597" y="254.4292">getAttempts(): int</text><ellipse cx="588" cy="264.0234" fill="#84BE84" rx="3" ry="3" style="stroke:#038048;stroke-width:1.0;"/><text fill="#000000" font-family="sans-serif" font-size="11" lengthAdjust="spacing" textLength="272" x="597" y="267.2339">getProposedCombinationColors(int): List&lt;Color&gt;</text><ellipse cx="588" cy="276.8281" fill="#84BE84" rx="3" ry="3" style="stroke:#038048;stroke-width:1.0;"/><text fill="#000000" font-family="sans-serif" font-size="11" lengthAdjust="spacing" textLength="98" x="597" y="280.0386">getBlacks(int): int</text><ellipse cx="588" cy="289.6328" fill="#84BE84" rx="3" ry="3" style="stroke:#038048;stroke-width:1.0;"/><text fill="#000000" font-family="sans-serif" font-size="11" lengthAdjust="spacing" textLength="101" x="597" y="292.8433">getWhites(int): int</text><!--MD5=[1a47bbf44ccee225df9b18c5b6629853]
class ResumeController--><rect codeLine="19" fill="#FEFECE" filter="url(#f1418ee1p7v1ub)" height="60.8047" id="ResumeController" style="stroke:#A80036;stroke-width:1.5;" width="139" x="402.5" y="193.5"/><ellipse cx="417.5" cy="209.5" fill="#ADD1B2" rx="11" ry="11" style="stroke:#A80036;stroke-width:1.0;"/><path d="M419.8438,205.1719 C418.9063,204.7344 418.3125,204.5938 417.4375,204.5938 C414.8125,204.5938 412.8125,206.6719 412.8125,209.3906 L412.8125,210.5156 C412.8125,213.0938 414.9219,214.9844 417.8125,214.9844 C419.0313,214.9844 420.1875,214.6875 420.9375,214.1406 C421.5156,213.7344 421.8438,213.2813 421.8438,212.8906 C421.8438,212.4375 421.4531,212.0469 420.9844,212.0469 C420.7656,212.0469 420.5625,212.125 420.375,212.3125 C419.9219,212.7969 419.9219,212.7969 419.7344,212.8906 C419.3125,213.1563 418.625,213.2813 417.8594,213.2813 C415.8125,213.2813 414.5156,212.1875 414.5156,210.4844 L414.5156,209.3906 C414.5156,207.6094 415.7656,206.2969 417.5,206.2969 C418.0781,206.2969 418.6875,206.4531 419.1563,206.7031 C419.6406,206.9844 419.8125,207.2031 419.9063,207.6094 C419.9688,208.0156 420,208.1406 420.1406,208.2656 C420.2813,208.4063 420.5156,208.5156 420.7344,208.5156 C421,208.5156 421.2656,208.375 421.4375,208.1563 C421.5469,208 421.5781,207.8125 421.5781,207.3906 L421.5781,205.9688 C421.5781,205.5313 421.5625,205.4063 421.4688,205.25 C421.3125,204.9844 421.0313,204.8438 420.7344,204.8438 C420.4375,204.8438 420.2344,204.9375 420.0156,205.25 L419.8438,205.1719 Z " fill="#000000"/><text fill="#000000" font-family="sans-serif" font-size="12" lengthAdjust="spacing" textLength="107" x="431.5" y="213.6543">ResumeController</text><line style="stroke:#A80036;stroke-width:1.5;" x1="403.5" x2="540.5" y1="225.5" y2="225.5"/><line style="stroke:#A80036;stroke-width:1.5;" x1="403.5" x2="540.5" y1="233.5" y2="233.5"/><ellipse cx="413.5" cy="244.5" fill="#84BE84" rx="3" ry="3" style="stroke:#038048;stroke-width:1.0;"/><text fill="#000000" font-family="sans-serif" font-size="11" lengthAdjust="spacing" textLength="38" x="422.5" y="247.7104">reset()</text><!--MD5=[ad55c02b6d743eec4828d3c9f4ddad4a]
class ShowBoardController--><rect codeLine="22" fill="#FEFECE" filter="url(#f1418ee1p7v1ub)" height="99.2188" id="ShowBoardController" style="stroke:#A80036;stroke-width:1.5;" width="298" x="69" y="359"/><ellipse cx="149.75" cy="375" fill="#ADD1B2" rx="11" ry="11" style="stroke:#A80036;stroke-width:1.0;"/><path d="M152.0938,370.6719 C151.1563,370.2344 150.5625,370.0938 149.6875,370.0938 C147.0625,370.0938 145.0625,372.1719 145.0625,374.8906 L145.0625,376.0156 C145.0625,378.5938 147.1719,380.4844 150.0625,380.4844 C151.2813,380.4844 152.4375,380.1875 153.1875,379.6406 C153.7656,379.2344 154.0938,378.7813 154.0938,378.3906 C154.0938,377.9375 153.7031,377.5469 153.2344,377.5469 C153.0156,377.5469 152.8125,377.625 152.625,377.8125 C152.1719,378.2969 152.1719,378.2969 151.9844,378.3906 C151.5625,378.6563 150.875,378.7813 150.1094,378.7813 C148.0625,378.7813 146.7656,377.6875 146.7656,375.9844 L146.7656,374.8906 C146.7656,373.1094 148.0156,371.7969 149.75,371.7969 C150.3281,371.7969 150.9375,371.9531 151.4063,372.2031 C151.8906,372.4844 152.0625,372.7031 152.1563,373.1094 C152.2188,373.5156 152.25,373.6406 152.3906,373.7656 C152.5313,373.9063 152.7656,374.0156 152.9844,374.0156 C153.25,374.0156 153.5156,373.875 153.6875,373.6563 C153.7969,373.5 153.8281,373.3125 153.8281,372.8906 L153.8281,371.4688 C153.8281,371.0313 153.8125,370.9063 153.7188,370.75 C153.5625,370.4844 153.2813,370.3438 152.9844,370.3438 C152.6875,370.3438 152.4844,370.4375 152.2656,370.75 L152.0938,370.6719 Z " fill="#000000"/><text fill="#000000" font-family="sans-serif" font-size="12" lengthAdjust="spacing" textLength="128" x="170.25" y="379.1543">ShowBoardController</text><line style="stroke:#A80036;stroke-width:1.5;" x1="70" x2="366" y1="391" y2="391"/><line style="stroke:#A80036;stroke-width:1.5;" x1="70" x2="366" y1="399" y2="399"/><polygon fill="#4177AF" points="80,406,76,412,84,412" style="stroke:#1963A0;stroke-width:1.0;"/><text fill="#000000" font-family="sans-serif" font-size="11" lengthAdjust="spacing" textLength="100" x="89" y="413.2104">getAttempts(): int</text><polygon fill="#4177AF" points="80,418.8047,76,424.8047,84,424.8047" style="stroke:#1963A0;stroke-width:1.0;"/><text fill="#000000" font-family="sans-serif" font-size="11" lengthAdjust="spacing" textLength="272" x="89" y="426.0151">getProposedCombinationColors(int): List&lt;Color&gt;</text><polygon fill="#4177AF" points="80,431.6094,76,437.6094,84,437.6094" style="stroke:#1963A0;stroke-width:1.0;"/><text fill="#000000" font-family="sans-serif" font-size="11" lengthAdjust="spacing" textLength="98" x="89" y="438.8198">getBlacks(int): int</text><polygon fill="#4177AF" points="80,444.4141,76,450.4141,84,450.4141" style="stroke:#1963A0;stroke-width:1.0;"/><text fill="#000000" font-family="sans-serif" font-size="11" lengthAdjust="spacing" textLength="101" x="89" y="451.6245">getWhites(int): int</text><!--MD5=[9563755d011c5cec7ec66dc53565a59e]
class Board--><rect codeLine="37" fill="#FEFECE" filter="url(#f1418ee1p7v1ub)" height="53.9375" id="Board" style="stroke:#A80036;stroke-width:1.5;" width="80" x="910" y="197"/><ellipse cx="925" cy="215.9688" fill="#ADD1B2" rx="11" ry="11" style="stroke:#A80036;stroke-width:1.0;"/><path d="M927.3438,211.6406 C926.4063,211.2031 925.8125,211.0625 924.9375,211.0625 C922.3125,211.0625 920.3125,213.1406 920.3125,215.8594 L920.3125,216.9844 C920.3125,219.5625 922.4219,221.4531 925.3125,221.4531 C926.5313,221.4531 927.6875,221.1563 928.4375,220.6094 C929.0156,220.2031 929.3438,219.75 929.3438,219.3594 C929.3438,218.9063 928.9531,218.5156 928.4844,218.5156 C928.2656,218.5156 928.0625,218.5938 927.875,218.7813 C927.4219,219.2656 927.4219,219.2656 927.2344,219.3594 C926.8125,219.625 926.125,219.75 925.3594,219.75 C923.3125,219.75 922.0156,218.6563 922.0156,216.9531 L922.0156,215.8594 C922.0156,214.0781 923.2656,212.7656 925,212.7656 C925.5781,212.7656 926.1875,212.9219 926.6563,213.1719 C927.1406,213.4531 927.3125,213.6719 927.4063,214.0781 C927.4688,214.4844 927.5,214.6094 927.6406,214.7344 C927.7813,214.875 928.0156,214.9844 928.2344,214.9844 C928.5,214.9844 928.7656,214.8438 928.9375,214.625 C929.0469,214.4688 929.0781,214.2813 929.0781,213.8594 L929.0781,212.4375 C929.0781,212 929.0625,211.875 928.9688,211.7188 C928.8125,211.4531 928.5313,211.3125 928.2344,211.3125 C927.9375,211.3125 927.7344,211.4063 927.5156,211.7188 L927.3438,211.6406 Z " fill="#000000"/><text fill="#000000" font-family="sans-serif" font-size="12" lengthAdjust="spacing" textLength="48" x="939" y="213.1387">models.</text><text fill="#000000" font-family="sans-serif" font-size="12" lengthAdjust="spacing" textLength="36" x="945" y="227.1074">Board</text><line style="stroke:#A80036;stroke-width:1.5;" x1="911" x2="989" y1="234.9375" y2="234.9375"/><line style="stroke:#A80036;stroke-width:1.5;" x1="911" x2="989" y1="242.9375" y2="242.9375"/><!--MD5=[18eee71c88ab61f27581b8cbdd3ef5ee]
class Color--><rect codeLine="38" fill="#FEFECE" filter="url(#f1418ee1p7v1ub)" height="53.9375" id="Color" style="stroke:#A80036;stroke-width:1.5;" width="69" x="385.5" y="518"/><ellipse cx="400.5" cy="536.9688" fill="#EB937F" rx="11" ry="11" style="stroke:#A80036;stroke-width:1.0;"/><path d="M399.2969,537.8438 L400.75,537.8438 L400.75,537.9531 C400.75,538.3594 400.7813,538.5156 400.8594,538.6719 C401.0156,538.9219 401.2969,539.0781 401.5938,539.0781 C401.8438,539.0781 402.1094,538.9375 402.2656,538.7188 C402.3906,538.5625 402.4219,538.4063 402.4219,537.9531 L402.4219,536.0313 C402.4219,535.875 402.4219,535.8281 402.4063,535.6719 C402.3438,535.2031 402.0313,534.8906 401.5781,534.8906 C401.3281,534.8906 401.0625,535.0313 400.8906,535.25 C400.7813,535.4219 400.75,535.5781 400.75,536.0313 L400.75,536.1563 L399.2969,536.1563 L399.2969,533.75 L403.2813,533.75 L403.2813,534.6094 C403.2813,535.0156 403.3125,535.1875 403.3906,535.3438 C403.5625,535.5938 403.8438,535.75 404.125,535.75 C404.3906,535.75 404.6563,535.6094 404.8281,535.3906 C404.9375,535.2188 404.9688,535.0781 404.9688,534.6094 L404.9688,532.0625 L397.3438,532.0625 C396.9063,532.0625 396.7813,532.0781 396.625,532.1719 C396.375,532.3281 396.2188,532.625 396.2188,532.9063 C396.2188,533.1875 396.3594,533.4375 396.5781,533.6094 C396.7344,533.7188 396.9219,533.75 397.3438,533.75 L397.5938,533.75 L397.5938,540.2656 L397.3438,540.2656 C396.9375,540.2656 396.7813,540.2813 396.625,540.3906 C396.375,540.5625 396.2188,540.8281 396.2188,541.125 C396.2188,541.3906 396.3594,541.6406 396.5781,541.7969 C396.7188,541.9219 396.9531,541.9688 397.3438,541.9688 L405.3438,541.9688 L405.3438,539.3906 C405.3438,538.9531 405.3125,538.8125 405.2344,538.6563 C405.0625,538.4063 404.7813,538.25 404.5,538.25 C404.2344,538.25 403.9688,538.3594 403.7969,538.6094 C403.6875,538.7656 403.6563,538.9063 403.6563,539.3906 L403.6563,540.2656 L399.2969,540.2656 L399.2969,537.8438 Z " fill="#000000"/><text fill="#000000" font-family="sans-serif" font-size="12" lengthAdjust="spacing" textLength="37" x="414.5" y="534.1387">types.</text><text fill="#000000" font-family="sans-serif" font-size="12" lengthAdjust="spacing" textLength="32" x="417" y="548.1074">Color</text><line style="stroke:#A80036;stroke-width:1.5;" x1="386.5" x2="453.5" y1="555.9375" y2="555.9375"/><line style="stroke:#A80036;stroke-width:1.5;" x1="386.5" x2="453.5" y1="563.9375" y2="563.9375"/><!--MD5=[b8cfd8c4119a3b0a7a46bfc5fc780f85]
class Error--><rect codeLine="39" fill="#FEFECE" filter="url(#f1418ee1p7v1ub)" height="53.9375" id="Error" style="stroke:#A80036;stroke-width:1.5;" width="69" x="907.5" y="381.5"/><ellipse cx="922.5" cy="400.4688" fill="#EB937F" rx="11" ry="11" style="stroke:#A80036;stroke-width:1.0;"/><path d="M921.2969,401.3438 L922.75,401.3438 L922.75,401.4531 C922.75,401.8594 922.7813,402.0156 922.8594,402.1719 C923.0156,402.4219 923.2969,402.5781 923.5938,402.5781 C923.8438,402.5781 924.1094,402.4375 924.2656,402.2188 C924.3906,402.0625 924.4219,401.9063 924.4219,401.4531 L924.4219,399.5313 C924.4219,399.375 924.4219,399.3281 924.4063,399.1719 C924.3438,398.7031 924.0313,398.3906 923.5781,398.3906 C923.3281,398.3906 923.0625,398.5313 922.8906,398.75 C922.7813,398.9219 922.75,399.0781 922.75,399.5313 L922.75,399.6563 L921.2969,399.6563 L921.2969,397.25 L925.2813,397.25 L925.2813,398.1094 C925.2813,398.5156 925.3125,398.6875 925.3906,398.8438 C925.5625,399.0938 925.8438,399.25 926.125,399.25 C926.3906,399.25 926.6563,399.1094 926.8281,398.8906 C926.9375,398.7188 926.9688,398.5781 926.9688,398.1094 L926.9688,395.5625 L919.3438,395.5625 C918.9063,395.5625 918.7813,395.5781 918.625,395.6719 C918.375,395.8281 918.2188,396.125 918.2188,396.4063 C918.2188,396.6875 918.3594,396.9375 918.5781,397.1094 C918.7344,397.2188 918.9219,397.25 919.3438,397.25 L919.5938,397.25 L919.5938,403.7656 L919.3438,403.7656 C918.9375,403.7656 918.7813,403.7813 918.625,403.8906 C918.375,404.0625 918.2188,404.3281 918.2188,404.625 C918.2188,404.8906 918.3594,405.1406 918.5781,405.2969 C918.7188,405.4219 918.9531,405.4688 919.3438,405.4688 L927.3438,405.4688 L927.3438,402.8906 C927.3438,402.4531 927.3125,402.3125 927.2344,402.1563 C927.0625,401.9063 926.7813,401.75 926.5,401.75 C926.2344,401.75 925.9688,401.8594 925.7969,402.1094 C925.6875,402.2656 925.6563,402.4063 925.6563,402.8906 L925.6563,403.7656 L921.2969,403.7656 L921.2969,401.3438 Z " fill="#000000"/><text fill="#000000" font-family="sans-serif" font-size="12" lengthAdjust="spacing" textLength="37" x="936.5" y="397.6387">types.</text><text fill="#000000" font-family="sans-serif" font-size="12" lengthAdjust="spacing" textLength="30" x="940" y="411.6074">Error</text><line style="stroke:#A80036;stroke-width:1.5;" x1="908.5" x2="975.5" y1="419.4375" y2="419.4375"/><line style="stroke:#A80036;stroke-width:1.5;" x1="908.5" x2="975.5" y1="427.4375" y2="427.4375"/><!--MD5=[354d6deacb49030493b7fd8cb23ebdce]
reverse link Controller to StartController--><path codeLine="30" d="M417.216,99.862 C382.005,121.627 335.7,150.249 296.595,174.42 " fill="none" id="Controller-backto-StartController" style="stroke:#A80036;stroke-width:1.0;"/><polygon fill="none" points="413.829,93.727,434.521,89.166,421.189,105.636,413.829,93.727" style="stroke:#A80036;stroke-width:1.0;"/><!--MD5=[f447e35400d120693a19fd34f2d8422e]
reverse link Controller to ProposeController--><path codeLine="31" d="M526.701,99.811 C550.092,114.269 578.389,131.76 606.223,148.965 " fill="none" id="Controller-backto-ProposeController" style="stroke:#A80036;stroke-width:1.0;"/><polygon fill="none" points="522.811,105.636,509.479,89.166,530.171,93.727,522.811,105.636" style="stroke:#A80036;stroke-width:1.0;"/><!--MD5=[dfabfd7c269c7ef3ab5bdd4c723fcdb8]
reverse link Controller to ResumeController--><path codeLine="32" d="M472,109.213 C472,135.938 472,169.552 472,193.296 " fill="none" id="Controller-backto-ResumeController" style="stroke:#A80036;stroke-width:1.0;"/><polygon fill="none" points="465,109.166,472,89.166,479,109.166,465,109.166" style="stroke:#A80036;stroke-width:1.0;"/><!--MD5=[c8984a8af7c12f8533ff397092c16636]
reverse link Controller to ShowBoardController--><path codeLine="33" d="M406.829,69.084 C300.065,75.652 95.2971,95.117 51,149 C8.6634,200.498 19.1955,240.409 51,299 C64.2781,323.461 85.7187,343.267 108.875,358.927 " fill="none" id="Controller-backto-ShowBoardController" style="stroke:#A80036;stroke-width:1.0;"/><polygon fill="none" points="406.43,62.096,426.799,67.936,407.233,76.072,406.43,62.096" style="stroke:#A80036;stroke-width:1.0;"/><!--MD5=[b4660ff7e828b23e4b17a715c63b2df8]
link StartController to ShowBoardController--><path codeLine="34" d="M218,285.907 C218,285.907 218,326.747 218,345.691 " fill="none" id="StartController-ShowBoardController" style="stroke:#A80036;stroke-width:1.0;"/><polygon fill="#A80036" points="218,358.775,222,349.775,218,353.775,214,349.775,218,358.775" style="stroke:#A80036;stroke-width:1.0;"/><line style="stroke:#A80036;stroke-width:1.0;" x1="218" x2="218" y1="353.775" y2="345.775"/><polygon fill="#A80036" points="218,273.907,214,279.907,218,285.907,222,279.907,218,273.907" style="stroke:#A80036;stroke-width:1.0;"/><!--MD5=[217660a01a015992a9b7449ecc5eb003]
link ProposeController to ShowBoardController--><path codeLine="35" d="M565.3922,296.5454 C565.3922,296.5454 560.807,298.315 559,299 C501.231,320.915 436.883,342.177 379.786,359.987 " fill="none" id="ProposeController-ShowBoardController" style="stroke:#A80036;stroke-width:1.0;"/><polygon fill="#A80036" points="367.34,363.851,377.1213,365.0028,372.1152,362.3686,374.7494,357.3625,367.34,363.851" style="stroke:#A80036;stroke-width:1.0;"/><line style="stroke:#A80036;stroke-width:1.0;" x1="372.1152" x2="379.755" y1="362.3686" y2="359.9965"/><polygon fill="#A80036" points="576.563,292.162,569.5165,290.6301,565.3922,296.5454,572.4387,298.0773,576.563,292.162" style="stroke:#A80036;stroke-width:1.0;"/><!--MD5=[e4ce0f75ff780efa34ba11708e5ec423]
link Controller to Board--><path codeLine="41" d="M517.188,65.102 C598.133,65.516 770.634,75.76 891,149 C908.321,159.539 922.652,177.112 932.851,192.489 " fill="none" id="Controller-to-Board" style="stroke:#A80036;stroke-width:1.0;"/><polygon fill="#A80036" points="935.618,196.76,934.0833,187.0314,932.9001,192.5632,927.3684,191.38,935.618,196.76" style="stroke:#A80036;stroke-width:1.0;"/><!--MD5=[a89fa2b97461e605c99485f1f8e3795b]
link ProposeController to Error--><path codeLine="42" d="M819.994,299.223 C843.484,318.347 868.413,339.142 891,359 C897.814,364.99 904.965,371.586 911.685,377.931 " fill="none" id="ProposeController-to-Error" style="stroke:#A80036;stroke-width:1.0;stroke-dasharray:7.0,7.0;"/><polygon fill="#A80036" points="915.369,381.425,911.5933,372.3286,911.7418,377.9835,906.0869,378.1321,915.369,381.425" style="stroke:#A80036;stroke-width:1.0;"/><!--MD5=[d649baaff3a9c9942c69fcb786dc271c]
link ProposeController to Color--><path codeLine="43" d="M654.643,299.389 C589.066,367.752 495.19,465.616 448.555,514.2323 " fill="none" id="ProposeController-to-Color" style="stroke:#A80036;stroke-width:1.0;stroke-dasharray:7.0,7.0;"/><polygon fill="#A80036" points="445.007,517.9303,454.1244,514.2057,448.4688,514.3225,448.3519,508.6669,445.007,517.9303" style="stroke:#A80036;stroke-width:1.0;"/><!--MD5=[551c8c913caa70d4c8baab2e4edb5769]
link ShowBoardController to Color--><path codeLine="44" d="M290.927,458.058 C321.373,478.3299 355.516,501.0639 381.035,518.0558 " fill="none" id="ShowBoardController-to-Color" style="stroke:#A80036;stroke-width:1.0;stroke-dasharray:7.0,7.0;"/><polygon fill="#A80036" points="385.375,520.9455,380.101,512.6278,381.2133,518.1742,375.6669,519.2865,385.375,520.9455" style="stroke:#A80036;stroke-width:1.0;"/><!--MD5=[69a1b9a8422e14e14037057a3d2e1465]
link StartController to Color--><path codeLine="45" d="M300.038,273.525 C330.903,295.798 363.464,324.89 384,359 C412.992,407.156 419.285,473.9876 420.288,512.7462 " fill="none" id="StartController-to-Color" style="stroke:#A80036;stroke-width:1.0;stroke-dasharray:7.0,7.0;"/><polygon fill="#A80036" points="420.393,517.7927,424.2055,508.7117,420.2893,512.7938,416.2072,508.8776,420.393,517.7927" style="stroke:#A80036;stroke-width:1.0;"/><!--MD5=[1a773d5d12d60e666c6b450456652cdd]
@startuml
package controllers {
    abstract class Controller
    class StartController {
        + getAttempts(): int
        + getProposedCombinationColors(int): List<Color>
        + getBlacks(int): int
        + getWhites(int): int
    }
    class ProposeController {
        + getError(List<Color>): Error
        + add(List<Color>)
        + isFinished(): boolean
        + isWinner(): boolean
        + getAttempts(): int
        + getProposedCombinationColors(int): List<Color>
        + getBlacks(int): int
        + getWhites(int): int
    }
    class ResumeController {
        + reset()
    }
    class ShowBoardController {
        ~ getAttempts(): int
        ~ getProposedCombinationColors(int): List<Color>
        ~ getBlacks(int): int
        ~ getWhites(int): int
    }
}

Controller <|- - StartController
Controller <|- - ProposeController
Controller <|- - ResumeController
Controller <|- - ShowBoardController
StartController *-down-> ShowBoardController
ProposeController *-down-> ShowBoardController

class "models.\nBoard" as Board
enum "types.\nColor" as Color
enum "types.\nError" as Error

Controller -down-> Board
ProposeController .down.> Error
ProposeController .down.> Color
ShowBoardController .down.> Color
StartController .down.> Color
@enduml

PlantUML version 1.2021.4beta1(Unknown compile time)
(GPL source distribution)
Java Runtime: Java(TM) SE Runtime Environment
JVM: Java HotSpot(TM) 64-Bit Server VM
Default Encoding: UTF-8
Language: en
Country: US
--></g></svg>