<?xml version="1.0" encoding="UTF-8" standalone="no"?><svg xmlns="http://www.w3.org/2000/svg" xmlns:xlink="http://www.w3.org/1999/xlink" contentScriptType="application/ecmascript" contentStyleType="text/css" height="740px" preserveAspectRatio="none" style="width:599px;height:740px;" version="1.1" viewBox="0 0 599 740" width="599px" zoomAndPan="magnify"><defs><filter height="300%" id="f149guzxooz1wr" width="300%" x="-1" y="-1"><feGaussianBlur result="blurOut" stdDeviation="2.0"/><feColorMatrix in="blurOut" result="blurOut2" type="matrix" values="0 0 0 0 0 0 0 0 0 0 0 0 0 0 0 0 0 0 .4 0"/><feOffset dx="4.0" dy="4.0" in="blurOut2" result="blurOut3"/><feBlend in="SourceGraphic" in2="blurOut3" mode="normal"/></filter></defs><g><!--MD5=[a60570e4b426f702ccbb0d459e3b9417]
cluster models--><polygon fill="#FFFFFF" filter="url(#f149guzxooz1wr)" points="16,6,73,6,80,29.6094,442,29.6094,442,626,16,626,16,6" style="stroke:#000000;stroke-width:1.5;"/><line style="stroke:#000000;stroke-width:1.5;" x1="16" x2="80" y1="29.6094" y2="29.6094"/><text fill="#000000" font-family="sans-serif" font-size="14" font-weight="bold" lengthAdjust="spacing" textLength="51" x="20" y="22.5332">models</text><!--MD5=[9563755d011c5cec7ec66dc53565a59e]
class Board--><rect codeLine="2" fill="#FEFECE" filter="url(#f149guzxooz1wr)" height="269.375" id="Board" style="stroke:#A80036;stroke-width:1.5;" width="255" x="170.5" y="42"/><ellipse cx="277.25" cy="58" fill="#ADD1B2" rx="11" ry="11" style="stroke:#A80036;stroke-width:1.0;"/><path d="M280.0156,53.875 Q280.1719,53.6563 280.3594,53.5469 Q280.5469,53.4375 280.7656,53.4375 Q281.1406,53.4375 281.375,53.6953 Q281.6094,53.9531 281.6094,54.5625 L281.6094,56.0156 Q281.6094,56.625 281.375,56.8906 Q281.1406,57.1563 280.7656,57.1563 Q280.4219,57.1563 280.2188,56.9531 Q280.0156,56.7656 279.9063,56.25 Q279.8594,55.8906 279.6719,55.7031 Q279.3438,55.3281 278.7344,55.1094 Q278.125,54.8906 277.5,54.8906 Q276.7344,54.8906 276.1016,55.2188 Q275.4688,55.5469 274.9766,56.2969 Q274.4844,57.0469 274.4844,58.0781 L274.4844,59.1719 Q274.4844,60.4063 275.375,61.2266 Q276.2656,62.0469 277.8594,62.0469 Q278.7969,62.0469 279.4531,61.7969 Q279.8438,61.6406 280.2656,61.2031 Q280.5313,60.9375 280.6797,60.8594 Q280.8281,60.7813 281.0313,60.7813 Q281.3594,60.7813 281.6172,61.0391 Q281.875,61.2969 281.875,61.6406 Q281.875,61.9844 281.5313,62.3906 Q281.0313,62.9688 280.2344,63.2969 Q279.1563,63.75 277.8594,63.75 Q276.3438,63.75 275.1406,63.125 Q274.1563,62.625 273.4688,61.5547 Q272.7813,60.4844 272.7813,59.2031 L272.7813,58.0469 Q272.7813,56.7188 273.3984,55.5703 Q274.0156,54.4219 275.1094,53.8047 Q276.2031,53.1875 277.4375,53.1875 Q278.1719,53.1875 278.8203,53.3516 Q279.4688,53.5156 280.0156,53.875 Z " fill="#000000"/><text fill="#000000" font-family="sans-serif" font-size="12" lengthAdjust="spacing" textLength="33" x="297.75" y="62.9102">Board</text><line style="stroke:#A80036;stroke-width:1.5;" x1="171.5" x2="424.5" y1="74" y2="74"/><line style="stroke:#A80036;stroke-width:1.5;" x1="171.5" x2="424.5" y1="82" y2="82"/><ellipse cx="181.5" cy="93" fill="#84BE84" rx="3" ry="3" style="stroke:#038048;stroke-width:1.0;"/><text fill="#000000" font-family="sans-serif" font-size="11" lengthAdjust="spacing" textLength="33" x="190.5" y="97.4189">reset()</text><ellipse cx="181.5" cy="106.8359" fill="#84BE84" rx="3" ry="3" style="stroke:#038048;stroke-width:1.0;"/><text fill="#000000" font-family="sans-serif" font-size="11" lengthAdjust="spacing" textLength="80" x="190.5" y="111.2549">add(List&lt;Color&gt;)</text><ellipse cx="181.5" cy="120.6719" fill="#84BE84" rx="3" ry="3" style="stroke:#038048;stroke-width:1.0;"/><text fill="#000000" font-family="sans-serif" font-size="11" lengthAdjust="spacing" textLength="131" x="190.5" y="125.0908">getError(List&lt;Color&gt;): Error</text><ellipse cx="181.5" cy="134.5078" fill="#84BE84" rx="3" ry="3" style="stroke:#038048;stroke-width:1.0;"/><text fill="#000000" font-family="sans-serif" font-size="11" lengthAdjust="spacing" textLength="100" x="190.5" y="138.9268">isFinished(): boolean</text><ellipse cx="181.5" cy="148.3438" fill="#84BE84" rx="3" ry="3" style="stroke:#038048;stroke-width:1.0;"/><text fill="#000000" font-family="sans-serif" font-size="11" lengthAdjust="spacing" textLength="94" x="190.5" y="152.7627">isWinner(): boolean</text><rect fill="#F24D5C" height="6" style="stroke:#C82930;stroke-width:1.0;" width="6" x="178.5" y="159.1797"/><text fill="#000000" font-family="sans-serif" font-size="11" lengthAdjust="spacing" textLength="88" x="190.5" y="166.5986">isLoser(): boolean</text><ellipse cx="181.5" cy="176.0156" fill="#84BE84" rx="3" ry="3" style="stroke:#038048;stroke-width:1.0;"/><text fill="#000000" font-family="sans-serif" font-size="11" lengthAdjust="spacing" textLength="83" x="190.5" y="180.4346">getAttempts(): int</text><ellipse cx="181.5" cy="189.8516" fill="#84BE84" rx="3" ry="3" style="stroke:#038048;stroke-width:1.0;"/><text fill="#000000" font-family="sans-serif" font-size="11" lengthAdjust="spacing" textLength="229" x="190.5" y="194.2705">getProposedCombinationColors(int): List&lt;Color&gt;</text><ellipse cx="181.5" cy="203.6875" fill="#84BE84" rx="3" ry="3" style="stroke:#038048;stroke-width:1.0;"/><text fill="#000000" font-family="sans-serif" font-size="11" lengthAdjust="spacing" textLength="83" x="190.5" y="208.1064">getBlacks(int): int</text><ellipse cx="181.5" cy="217.5234" fill="#84BE84" rx="3" ry="3" style="stroke:#038048;stroke-width:1.0;"/><text fill="#000000" font-family="sans-serif" font-size="11" lengthAdjust="spacing" textLength="84" x="190.5" y="221.9424">getWhites(int): int</text><ellipse cx="181.5" cy="231.3594" fill="#84BE84" rx="3" ry="3" style="stroke:#038048;stroke-width:1.0;"/><text fill="#000000" font-family="sans-serif" font-size="11" lengthAdjust="spacing" textLength="96" x="190.5" y="235.7783">undoable(): boolean</text><ellipse cx="181.5" cy="245.1953" fill="#84BE84" rx="3" ry="3" style="stroke:#038048;stroke-width:1.0;"/><text fill="#000000" font-family="sans-serif" font-size="11" lengthAdjust="spacing" textLength="94" x="190.5" y="249.6143">redoable(): boolean</text><ellipse cx="181.5" cy="259.0313" fill="#84BE84" rx="3" ry="3" style="stroke:#038048;stroke-width:1.0;"/><text fill="#000000" font-family="sans-serif" font-size="11" lengthAdjust="spacing" textLength="32" x="190.5" y="263.4502">undo()</text><ellipse cx="181.5" cy="272.8672" fill="#84BE84" rx="3" ry="3" style="stroke:#038048;stroke-width:1.0;"/><text fill="#000000" font-family="sans-serif" font-size="11" lengthAdjust="spacing" textLength="30" x="190.5" y="277.2861">redo()</text><ellipse cx="181.5" cy="286.7031" fill="#84BE84" rx="3" ry="3" style="stroke:#038048;stroke-width:1.0;"/><text fill="#000000" font-family="sans-serif" font-size="11" lengthAdjust="spacing" textLength="60" x="190.5" y="291.1221">open(String)</text><ellipse cx="181.5" cy="300.5391" fill="#84BE84" rx="3" ry="3" style="stroke:#038048;stroke-width:1.0;"/><text fill="#000000" font-family="sans-serif" font-size="11" lengthAdjust="spacing" textLength="60" x="190.5" y="304.958">save(String)</text><!--MD5=[28491d17d5ee38c9c116625a5ffc259a]
class Combination--><rect codeLine="20" fill="#FEFECE" filter="url(#f149guzxooz1wr)" height="48" id="Combination" style="stroke:#A80036;stroke-width:1.5;" width="103" x="32.5" y="152.5"/><ellipse cx="47.5" cy="168.5" fill="#ADD1B2" rx="11" ry="11" style="stroke:#A80036;stroke-width:1.0;"/><path d="M50.2656,164.375 Q50.4219,164.1563 50.6094,164.0469 Q50.7969,163.9375 51.0156,163.9375 Q51.3906,163.9375 51.625,164.1953 Q51.8594,164.4531 51.8594,165.0625 L51.8594,166.5156 Q51.8594,167.125 51.625,167.3906 Q51.3906,167.6563 51.0156,167.6563 Q50.6719,167.6563 50.4688,167.4531 Q50.2656,167.2656 50.1563,166.75 Q50.1094,166.3906 49.9219,166.2031 Q49.5938,165.8281 48.9844,165.6094 Q48.375,165.3906 47.75,165.3906 Q46.9844,165.3906 46.3516,165.7188 Q45.7188,166.0469 45.2266,166.7969 Q44.7344,167.5469 44.7344,168.5781 L44.7344,169.6719 Q44.7344,170.9063 45.625,171.7266 Q46.5156,172.5469 48.1094,172.5469 Q49.0469,172.5469 49.7031,172.2969 Q50.0938,172.1406 50.5156,171.7031 Q50.7813,171.4375 50.9297,171.3594 Q51.0781,171.2813 51.2813,171.2813 Q51.6094,171.2813 51.8672,171.5391 Q52.125,171.7969 52.125,172.1406 Q52.125,172.4844 51.7813,172.8906 Q51.2813,173.4688 50.4844,173.7969 Q49.4063,174.25 48.1094,174.25 Q46.5938,174.25 45.3906,173.625 Q44.4063,173.125 43.7188,172.0547 Q43.0313,170.9844 43.0313,169.7031 L43.0313,168.5469 Q43.0313,167.2188 43.6484,166.0703 Q44.2656,164.9219 45.3594,164.3047 Q46.4531,163.6875 47.6875,163.6875 Q48.4219,163.6875 49.0703,163.8516 Q49.7188,164.0156 50.2656,164.375 Z " fill="#000000"/><text fill="#000000" font-family="sans-serif" font-size="12" lengthAdjust="spacing" textLength="71" x="61.5" y="173.4102">Combination</text><line style="stroke:#A80036;stroke-width:1.5;" x1="33.5" x2="134.5" y1="184.5" y2="184.5"/><line style="stroke:#A80036;stroke-width:1.5;" x1="33.5" x2="134.5" y1="192.5" y2="192.5"/><!--MD5=[cf489b19c51ee25e76ddca093e62e620]
class ProposedCombination--><rect codeLine="21" fill="#FEFECE" filter="url(#f149guzxooz1wr)" height="117.1797" id="ProposedCombination" style="stroke:#A80036;stroke-width:1.5;" width="192" x="77" y="493"/><ellipse cx="107.75" cy="509" fill="#ADD1B2" rx="11" ry="11" style="stroke:#A80036;stroke-width:1.0;"/><path d="M110.5156,504.875 Q110.6719,504.6563 110.8594,504.5469 Q111.0469,504.4375 111.2656,504.4375 Q111.6406,504.4375 111.875,504.6953 Q112.1094,504.9531 112.1094,505.5625 L112.1094,507.0156 Q112.1094,507.625 111.875,507.8906 Q111.6406,508.1563 111.2656,508.1563 Q110.9219,508.1563 110.7188,507.9531 Q110.5156,507.7656 110.4063,507.25 Q110.3594,506.8906 110.1719,506.7031 Q109.8438,506.3281 109.2344,506.1094 Q108.625,505.8906 108,505.8906 Q107.2344,505.8906 106.6016,506.2188 Q105.9688,506.5469 105.4766,507.2969 Q104.9844,508.0469 104.9844,509.0781 L104.9844,510.1719 Q104.9844,511.4063 105.875,512.2266 Q106.7656,513.0469 108.3594,513.0469 Q109.2969,513.0469 109.9531,512.7969 Q110.3438,512.6406 110.7656,512.2031 Q111.0313,511.9375 111.1797,511.8594 Q111.3281,511.7813 111.5313,511.7813 Q111.8594,511.7813 112.1172,512.0391 Q112.375,512.2969 112.375,512.6406 Q112.375,512.9844 112.0313,513.3906 Q111.5313,513.9688 110.7344,514.2969 Q109.6563,514.75 108.3594,514.75 Q106.8438,514.75 105.6406,514.125 Q104.6563,513.625 103.9688,512.5547 Q103.2813,511.4844 103.2813,510.2031 L103.2813,509.0469 Q103.2813,507.7188 103.8984,506.5703 Q104.5156,505.4219 105.6094,504.8047 Q106.7031,504.1875 107.9375,504.1875 Q108.6719,504.1875 109.3203,504.3516 Q109.9688,504.5156 110.5156,504.875 Z " fill="#000000"/><text fill="#000000" font-family="sans-serif" font-size="12" lengthAdjust="spacing" textLength="125" x="125.25" y="513.9102">ProposedCombination</text><line style="stroke:#A80036;stroke-width:1.5;" x1="78" x2="268" y1="525" y2="525"/><line style="stroke:#A80036;stroke-width:1.5;" x1="78" x2="268" y1="533" y2="533"/><polygon fill="#4177AF" points="88,540,84,546,92,546" style="stroke:#1963A0;stroke-width:1.0;"/><text fill="#000000" font-family="sans-serif" font-size="11" lengthAdjust="spacing" textLength="166" x="97" y="548.4189">ProposedCombination(List&lt;Color&gt;)</text><polygon fill="#4177AF" points="88,553.8359,84,559.8359,92,559.8359" style="stroke:#1963A0;stroke-width:1.0;"/><text fill="#000000" font-family="sans-serif" font-size="11" lengthAdjust="spacing" textLength="114" x="97" y="562.2549">getColors(): List&lt;Color&gt;</text><polygon fill="#4177AF" points="88,567.6719,84,573.6719,92,573.6719" style="stroke:#1963A0;stroke-width:1.0;"/><text fill="#000000" font-family="sans-serif" font-size="11" lengthAdjust="spacing" textLength="77" x="97" y="576.0908">getError(): Error</text><polygon fill="#4177AF" points="88,581.5078,84,587.5078,92,587.5078" style="stroke:#1963A0;stroke-width:1.0;"/><text fill="#000000" font-family="sans-serif" font-size="11" lengthAdjust="spacing" textLength="118" x="97" y="589.9268">contains(Color): boolean</text><polygon fill="#4177AF" points="88,595.3438,84,601.3438,92,601.3438" style="stroke:#1963A0;stroke-width:1.0;"/><text fill="#000000" font-family="sans-serif" font-size="11" lengthAdjust="spacing" textLength="135" x="97" y="603.7627">contains(Color, int): boolean</text><!--MD5=[e370ee5c0c15ce04544d5f5a73174d72]
class SecretCombination--><rect codeLine="28" fill="#FEFECE" filter="url(#f149guzxooz1wr)" height="61.8359" id="SecretCombination" style="stroke:#A80036;stroke-width:1.5;" width="219" x="70.5" y="371"/><ellipse cx="122.75" cy="387" fill="#ADD1B2" rx="11" ry="11" style="stroke:#A80036;stroke-width:1.0;"/><path d="M125.5156,382.875 Q125.6719,382.6563 125.8594,382.5469 Q126.0469,382.4375 126.2656,382.4375 Q126.6406,382.4375 126.875,382.6953 Q127.1094,382.9531 127.1094,383.5625 L127.1094,385.0156 Q127.1094,385.625 126.875,385.8906 Q126.6406,386.1563 126.2656,386.1563 Q125.9219,386.1563 125.7188,385.9531 Q125.5156,385.7656 125.4063,385.25 Q125.3594,384.8906 125.1719,384.7031 Q124.8438,384.3281 124.2344,384.1094 Q123.625,383.8906 123,383.8906 Q122.2344,383.8906 121.6016,384.2188 Q120.9688,384.5469 120.4766,385.2969 Q119.9844,386.0469 119.9844,387.0781 L119.9844,388.1719 Q119.9844,389.4063 120.875,390.2266 Q121.7656,391.0469 123.3594,391.0469 Q124.2969,391.0469 124.9531,390.7969 Q125.3438,390.6406 125.7656,390.2031 Q126.0313,389.9375 126.1797,389.8594 Q126.3281,389.7813 126.5313,389.7813 Q126.8594,389.7813 127.1172,390.0391 Q127.375,390.2969 127.375,390.6406 Q127.375,390.9844 127.0313,391.3906 Q126.5313,391.9688 125.7344,392.2969 Q124.6563,392.75 123.3594,392.75 Q121.8438,392.75 120.6406,392.125 Q119.6563,391.625 118.9688,390.5547 Q118.2813,389.4844 118.2813,388.2031 L118.2813,387.0469 Q118.2813,385.7188 118.8984,384.5703 Q119.5156,383.4219 120.6094,382.8047 Q121.7031,382.1875 122.9375,382.1875 Q123.6719,382.1875 124.3203,382.3516 Q124.9688,382.5156 125.5156,382.875 Z " fill="#000000"/><text fill="#000000" font-family="sans-serif" font-size="12" lengthAdjust="spacing" textLength="106" x="143.25" y="391.9102">SecretCombination</text><line style="stroke:#A80036;stroke-width:1.5;" x1="71.5" x2="288.5" y1="403" y2="403"/><line style="stroke:#A80036;stroke-width:1.5;" x1="71.5" x2="288.5" y1="411" y2="411"/><polygon fill="#4177AF" points="81.5,418,77.5,424,85.5,424" style="stroke:#1963A0;stroke-width:1.0;"/><text fill="#000000" font-family="sans-serif" font-size="11" lengthAdjust="spacing" textLength="193" x="90.5" y="426.4189">getResult(ProposedCombination): Result</text><!--MD5=[2741598bdf59a7d7e0d5c97658fd3022]
class Result--><rect codeLine="33" fill="#FEFECE" filter="url(#f149guzxooz1wr)" height="103.3438" id="Result" style="stroke:#A80036;stroke-width:1.5;" width="120" x="304" y="500"/><ellipse cx="342.4" cy="516" fill="#ADD1B2" rx="11" ry="11" style="stroke:#A80036;stroke-width:1.0;"/><path d="M345.1656,511.875 Q345.3219,511.6563 345.5094,511.5469 Q345.6969,511.4375 345.9156,511.4375 Q346.2906,511.4375 346.525,511.6953 Q346.7594,511.9531 346.7594,512.5625 L346.7594,514.0156 Q346.7594,514.625 346.525,514.8906 Q346.2906,515.1563 345.9156,515.1563 Q345.5719,515.1563 345.3688,514.9531 Q345.1656,514.7656 345.0563,514.25 Q345.0094,513.8906 344.8219,513.7031 Q344.4938,513.3281 343.8844,513.1094 Q343.275,512.8906 342.65,512.8906 Q341.8844,512.8906 341.2516,513.2188 Q340.6188,513.5469 340.1266,514.2969 Q339.6344,515.0469 339.6344,516.0781 L339.6344,517.1719 Q339.6344,518.4063 340.525,519.2266 Q341.4156,520.0469 343.0094,520.0469 Q343.9469,520.0469 344.6031,519.7969 Q344.9938,519.6406 345.4156,519.2031 Q345.6813,518.9375 345.8297,518.8594 Q345.9781,518.7813 346.1813,518.7813 Q346.5094,518.7813 346.7672,519.0391 Q347.025,519.2969 347.025,519.6406 Q347.025,519.9844 346.6813,520.3906 Q346.1813,520.9688 345.3844,521.2969 Q344.3063,521.75 343.0094,521.75 Q341.4938,521.75 340.2906,521.125 Q339.3063,520.625 338.6188,519.5547 Q337.9313,518.4844 337.9313,517.2031 L337.9313,516.0469 Q337.9313,514.7188 338.5484,513.5703 Q339.1656,512.4219 340.2594,511.8047 Q341.3531,511.1875 342.5875,511.1875 Q343.3219,511.1875 343.9703,511.3516 Q344.6188,511.5156 345.1656,511.875 Z " fill="#000000"/><text fill="#000000" font-family="sans-serif" font-size="12" lengthAdjust="spacing" textLength="36" x="361.6" y="520.9102">Result</text><line style="stroke:#A80036;stroke-width:1.5;" x1="305" x2="423" y1="532" y2="532"/><line style="stroke:#A80036;stroke-width:1.5;" x1="305" x2="423" y1="540" y2="540"/><polygon fill="#4177AF" points="315,547,311,553,319,553" style="stroke:#1963A0;stroke-width:1.0;"/><text fill="#000000" font-family="sans-serif" font-size="11" lengthAdjust="spacing" textLength="66" x="324" y="555.4189">Result(int, int)</text><polygon fill="#4177AF" points="315,560.8359,311,566.8359,319,566.8359" style="stroke:#1963A0;stroke-width:1.0;"/><text fill="#000000" font-family="sans-serif" font-size="11" lengthAdjust="spacing" textLength="72" x="324" y="569.2549">getBlacks(): int</text><polygon fill="#4177AF" points="315,574.6719,311,580.6719,319,580.6719" style="stroke:#1963A0;stroke-width:1.0;"/><text fill="#000000" font-family="sans-serif" font-size="11" lengthAdjust="spacing" textLength="73" x="324" y="583.0908">getWhites(): int</text><polygon fill="#4177AF" points="315,588.5078,311,594.5078,319,594.5078" style="stroke:#1963A0;stroke-width:1.0;"/><text fill="#000000" font-family="sans-serif" font-size="11" lengthAdjust="spacing" textLength="94" x="324" y="596.9268">isWinner(): boolean</text><!--MD5=[18eee71c88ab61f27581b8cbdd3ef5ee]
class Color--><rect codeLine="42" fill="#FEFECE" filter="url(#f149guzxooz1wr)" height="56.1875" id="Color" style="stroke:#A80036;stroke-width:1.5;" width="64" x="458" y="374"/><ellipse cx="473" cy="394.0938" fill="#EB937F" rx="11" ry="11" style="stroke:#A80036;stroke-width:1.0;"/><path d="M471.8594,394.8906 L471.8594,397.3906 L476.1875,397.3906 L476.1875,396.4688 Q476.1875,395.8594 476.4297,395.5938 Q476.6719,395.3281 477.0469,395.3281 Q477.4219,395.3281 477.6563,395.5938 Q477.8906,395.8594 477.8906,396.4688 L477.8906,399.0938 L469.8906,399.0938 Q469.2656,399.0938 469.0078,398.8594 Q468.75,398.625 468.75,398.2344 Q468.75,397.8594 469.0156,397.625 Q469.2813,397.3906 469.8906,397.3906 L470.1563,397.3906 L470.1563,390.7344 L469.8906,390.7344 Q469.2656,390.7344 469.0078,390.5 Q468.75,390.2656 468.75,389.875 Q468.75,389.5 469.0078,389.2656 Q469.2656,389.0313 469.8906,389.0313 L477.5156,389.0313 L477.5156,391.625 Q477.5156,392.2344 477.2891,392.4922 Q477.0625,392.75 476.6719,392.75 Q476.2969,392.75 476.0625,392.4922 Q475.8281,392.2344 475.8281,391.625 L475.8281,390.7344 L471.8594,390.7344 L471.8594,393.1875 L473.3438,393.1875 Q473.3438,392.5313 473.4688,392.3438 Q473.7344,391.9375 474.2031,391.9375 Q474.5781,391.9375 474.8125,392.1953 Q475.0469,392.4531 475.0469,393.0625 L475.0469,395.0313 Q475.0469,395.5781 474.9219,395.7656 Q474.6563,396.1563 474.2031,396.1563 Q473.7344,396.1563 473.4688,395.75 Q473.3438,395.5625 473.3438,394.8906 L471.8594,394.8906 Z " fill="#000000"/><text fill="#000000" font-family="sans-serif" font-size="12" lengthAdjust="spacing" textLength="32" x="487" y="391.457">types.</text><text fill="#000000" font-family="sans-serif" font-size="12" lengthAdjust="spacing" textLength="30" x="488" y="406.5508">Color</text><line style="stroke:#A80036;stroke-width:1.5;" x1="459" x2="521" y1="414.1875" y2="414.1875"/><line style="stroke:#A80036;stroke-width:1.5;" x1="459" x2="521" y1="422.1875" y2="422.1875"/><!--MD5=[b8cfd8c4119a3b0a7a46bfc5fc780f85]
class Error--><rect codeLine="43" fill="#FEFECE" filter="url(#f149guzxooz1wr)" height="56.1875" id="Error" style="stroke:#A80036;stroke-width:1.5;" width="64" x="342" y="670"/><ellipse cx="357" cy="690.0938" fill="#EB937F" rx="11" ry="11" style="stroke:#A80036;stroke-width:1.0;"/><path d="M355.8594,690.8906 L355.8594,693.3906 L360.1875,693.3906 L360.1875,692.4688 Q360.1875,691.8594 360.4297,691.5938 Q360.6719,691.3281 361.0469,691.3281 Q361.4219,691.3281 361.6563,691.5938 Q361.8906,691.8594 361.8906,692.4688 L361.8906,695.0938 L353.8906,695.0938 Q353.2656,695.0938 353.0078,694.8594 Q352.75,694.625 352.75,694.2344 Q352.75,693.8594 353.0156,693.625 Q353.2813,693.3906 353.8906,693.3906 L354.1563,693.3906 L354.1563,686.7344 L353.8906,686.7344 Q353.2656,686.7344 353.0078,686.5 Q352.75,686.2656 352.75,685.875 Q352.75,685.5 353.0078,685.2656 Q353.2656,685.0313 353.8906,685.0313 L361.5156,685.0313 L361.5156,687.625 Q361.5156,688.2344 361.2891,688.4922 Q361.0625,688.75 360.6719,688.75 Q360.2969,688.75 360.0625,688.4922 Q359.8281,688.2344 359.8281,687.625 L359.8281,686.7344 L355.8594,686.7344 L355.8594,689.1875 L357.3438,689.1875 Q357.3438,688.5313 357.4688,688.3438 Q357.7344,687.9375 358.2031,687.9375 Q358.5781,687.9375 358.8125,688.1953 Q359.0469,688.4531 359.0469,689.0625 L359.0469,691.0313 Q359.0469,691.5781 358.9219,691.7656 Q358.6563,692.1563 358.2031,692.1563 Q357.7344,692.1563 357.4688,691.75 Q357.3438,691.5625 357.3438,690.8906 L355.8594,690.8906 Z " fill="#000000"/><text fill="#000000" font-family="sans-serif" font-size="12" lengthAdjust="spacing" textLength="32" x="371" y="687.457">types.</text><text fill="#000000" font-family="sans-serif" font-size="12" lengthAdjust="spacing" textLength="27" x="373.5" y="702.5508">Error</text><line style="stroke:#A80036;stroke-width:1.5;" x1="343" x2="405" y1="710.1875" y2="710.1875"/><line style="stroke:#A80036;stroke-width:1.5;" x1="343" x2="405" y1="718.1875" y2="718.1875"/><!--MD5=[2f10888865b2f559cc24db01ac34cee3]
reverse link Combination to ProposedCombination--><path codeLine="31" d="M66.33,219.7 C47.26,271.88 23.33,362.43 53,433 C62.44,455.44 78.48,475.75 95.82,492.92 " fill="none" id="Combination-backto-ProposedCombination" style="stroke:#A80036;stroke-width:1.0;"/><polygon fill="none" points="59.91,216.9,73.66,200.78,72.97,221.96,59.91,216.9" style="stroke:#A80036;stroke-width:1.0;"/><!--MD5=[ed81d3472c9069d2de3c2f5cd308846f]
reverse link Combination to SecretCombination--><path codeLine="32" d="M101.92,219.22 C120.88,263.35 150.32,331.9 167.11,370.99 " fill="none" id="Combination-backto-SecretCombination" style="stroke:#A80036;stroke-width:1.0;"/><polygon fill="none" points="95.37,221.72,93.91,200.58,108.24,216.19,95.37,221.72" style="stroke:#A80036;stroke-width:1.0;"/><!--MD5=[e8e56f95b2bfb8e03c3cdf9f0e0c50ee]
link Board to Color--><path codeLine="45" d="M412.74,311.06 C431.64,333.06 449.53,353.89 463.33,369.95 " fill="none" id="Board-to-Color" style="stroke:#A80036;stroke-width:1.0;stroke-dasharray:7.0,7.0;"/><polygon fill="#A80036" points="466.74,373.93,463.9023,364.4988,463.479,370.1398,457.838,369.7164,466.74,373.93" style="stroke:#A80036;stroke-width:1.0;"/><!--MD5=[7f34f2d425e9b3ee5350efe269b05f59]
link Board to Error--><path codeLine="46" d="M425.72,246.91 C470.42,278.4 515.53,320.09 540,371 C592.75,480.72 473.44,608.9 410.16,666.38 " fill="none" id="Board-to-Error" style="stroke:#A80036;stroke-width:1.0;stroke-dasharray:7.0,7.0;"/><polygon fill="#A80036" points="406.45,669.73,415.8155,666.6825,410.1665,666.3852,410.4638,660.7361,406.45,669.73" style="stroke:#A80036;stroke-width:1.0;"/><!--MD5=[6e8433e42d71f9427401b78cd95c6f0c]
link Combination to Color--><path codeLine="47" d="M92.7489,212.1015 C92.7489,212.1015 121.23,286.89 153,311 C257.49,390.31 320.26,322.14 442,371 C443.32,371.53 444.65,372.1 445.98,372.69 " fill="none" id="Combination-Color" style="stroke:#A80036;stroke-width:1.0;"/><polygon fill="#A80036" points="457.77,378.73,451.584,371.0662,453.3201,376.4501,447.9362,378.1861,457.77,378.73" style="stroke:#A80036;stroke-width:1.0;"/><line style="stroke:#A80036;stroke-width:1.0;" x1="453.3201" x2="446.195" y1="376.4501" y2="372.81"/><polygon fill="#A80036" points="89.36,200.59,87.2172,207.4754,92.7489,212.1015,94.8916,205.2162,89.36,200.59" style="stroke:#A80036;stroke-width:1.0;"/><!--MD5=[03e1adeaed11e2ac298b9b43cd912fbb]
link ProposedCombination to Error--><path codeLine="48" d="M252.92,610.19 C264.03,618.2 275.29,626.31 286,634 C302.88,646.13 321.6,659.53 337.42,670.85 " fill="none" id="ProposedCombination-to-Error" style="stroke:#A80036;stroke-width:1.0;stroke-dasharray:7.0,7.0;"/><polygon fill="#A80036" points="341.8,673.99,336.8098,665.499,337.7342,671.0798,332.1534,672.0042,341.8,673.99" style="stroke:#A80036;stroke-width:1.0;"/><!--MD5=[e0b5d9907fda64872c10fd6493e0c51f]
link Board to ProposedCombination--><path codeLine="50" d="M325.5607,323.2596 C325.5607,323.2596 322.09,399.69 307,433 C298.43,451.9 285.16,468.97 270.23,483.86 " fill="none" id="Board-ProposedCombination" style="stroke:#A80036;stroke-width:1.0;"/><polygon fill="#A80036" points="260.74,492.85,270.0251,489.5657,264.3703,489.4119,264.5241,483.7571,260.74,492.85" style="stroke:#A80036;stroke-width:1.0;"/><line style="stroke:#A80036;stroke-width:1.0;" x1="264.3703" x2="270.18" y1="489.4119" y2="483.905"/><polygon fill="#A80036" points="325.06,311.27,321.3138,317.4317,325.5607,323.2596,329.3068,317.0979,325.06,311.27" style="stroke:#A80036;stroke-width:1.0;"/><!--MD5=[5e915b8ab835b2366405aaf6901e131b]
link Board to SecretCombination--><path codeLine="51" d="M221.8875,321.6719 C221.8875,321.6719 207.88,348.2 202.11,359.11 " fill="none" id="Board-SecretCombination" style="stroke:#A80036;stroke-width:1.0;"/><polygon fill="#A80036" points="195.96,370.76,203.6992,364.6686,198.2944,366.3384,196.6246,360.9336,195.96,370.76" style="stroke:#A80036;stroke-width:1.0;"/><line style="stroke:#A80036;stroke-width:1.0;" x1="198.2944" x2="202.035" y1="366.3384" y2="359.265"/><polygon fill="#A80036" points="227.49,311.06,221.1514,314.4984,221.8875,321.6719,228.226,318.2334,227.49,311.06" style="stroke:#A80036;stroke-width:1.0;"/><!--MD5=[8dd95aff79c51151a18c835e3410b3cd]
link Board to Result--><path codeLine="52" d="M326.2811,322.9664 C326.2811,322.9664 332.33,355.87 335,371 C341.75,409.29 348.72,452.28 354.13,486.58 " fill="none" id="Board-Result" style="stroke:#A80036;stroke-width:1.0;"/><polygon fill="#A80036" points="356.2,499.76,358.7572,490.2489,355.4253,494.8204,350.8538,491.4885,356.2,499.76" style="stroke:#A80036;stroke-width:1.0;"/><line style="stroke:#A80036;stroke-width:1.0;" x1="355.4253" x2="354.185" y1="494.8204" y2="486.915"/><polygon fill="#A80036" points="324.08,311.17,321.2484,317.8019,326.2811,322.9664,329.1127,316.3345,324.08,311.17" style="stroke:#A80036;stroke-width:1.0;"/><!--MD5=[f874647c3c9f57491b6e7b7bf233051a]
link SecretCombination to Result--><path codeLine="53" d="M217.68,433.2 C241.33,452.16 272.44,477.1 299.89,499.11 " fill="none" id="SecretCombination-to-Result" style="stroke:#A80036;stroke-width:1.0;stroke-dasharray:7.0,7.0;"/><polygon fill="#A80036" points="303.91,502.33,299.3927,493.5782,300.0098,499.2013,294.3868,499.8185,303.91,502.33" style="stroke:#A80036;stroke-width:1.0;"/><!--MD5=[324ce3fbc91b6fad145775bb65621994]
link SecretCombination to ProposedCombination--><path codeLine="54" d="M178.57,433.2 C177.82,448.92 176.88,468.75 175.98,487.61 " fill="none" id="SecretCombination-to-ProposedCombination" style="stroke:#A80036;stroke-width:1.0;stroke-dasharray:7.0,7.0;"/><polygon fill="#A80036" points="175.73,492.9,180.1368,484.0921,175.9583,487.9052,172.1452,483.7267,175.73,492.9" style="stroke:#A80036;stroke-width:1.0;"/><!--MD5=[b999e6682db43991846ab090c3fe41d7]
@startuml mastermind_analisis_models
package models {
    class Board {
        + reset()
        + add(List<Color>)
        + getError(List<Color>): Error
        + isFinished(): boolean
        + isWinner(): boolean
        - isLoser(): boolean
        + getAttempts(): int
        + getProposedCombinationColors(int): List<Color>
        + getBlacks(int): int
        + getWhites(int): int
        + undoable(): boolean
        + redoable(): boolean
        + undo()
        + redo()
        + open(String)
        + save(String)
    }
    class Combination
    class ProposedCombination {
        ~ ProposedCombination(List<Color>)
        ~ getColors(): List<Color>
        ~ getError(): Error
        ~ contains(Color): boolean
        ~ contains(Color, int): boolean
    }
    class SecretCombination {
        ~ getResult(ProposedCombination): Result
    }
    Combination <|- - ProposedCombination
    Combination <|- - SecretCombination
    class Result {
        ~ Result(int, int)
        ~ getBlacks(): int
        ~ getWhites(): int
        ~ isWinner(): boolean
    }
}


enum "types.\nColor" as Color
enum "types.\nError" as Error

Board .down.> Color
Board .down.> Error
Combination *-down-> Color
ProposedCombination .down.> Error

Board *-down-> ProposedCombination
Board *-down-> SecretCombination
Board *-down-> Result
SecretCombination .down.> Result
SecretCombination .down.> ProposedCombination
@enduml

PlantUML version 1.2021.00(Sun Jan 10 11:25:05 CET 2021)
(GPL source distribution)
Java Runtime: Java(TM) SE Runtime Environment
JVM: Java HotSpot(TM) 64-Bit Server VM
Default Encoding: Cp1252
Language: es
Country: ES
--></g></svg>