<?xml version="1.0" encoding="UTF-8" standalone="no"?><svg xmlns="http://www.w3.org/2000/svg" xmlns:xlink="http://www.w3.org/1999/xlink" contentScriptType="application/ecmascript" contentStyleType="text/css" height="888px" preserveAspectRatio="none" style="width:2061px;height:888px;" version="1.1" viewBox="0 0 2061 888" width="2061px" zoomAndPan="magnify"><defs><filter height="300%" id="f1gtt0yymzmho5" width="300%" x="-1" y="-1"><feGaussianBlur result="blurOut" stdDeviation="2.0"/><feColorMatrix in="blurOut" result="blurOut2" type="matrix" values="0 0 0 0 0 0 0 0 0 0 0 0 0 0 0 0 0 0 .4 0"/><feOffset dx="4.0" dy="4.0" in="blurOut2" result="blurOut3"/><feBlend in="SourceGraphic" in2="blurOut3" mode="normal"/></filter></defs><g><!--MD5=[e2a75efa8a0f57c2afae8bf75386f79c]
cluster views--><polygon fill="#FFFFFF" filter="url(#f1gtt0yymzmho5)" points="783,6,830,6,837,29.6094,1676,29.6094,1676,774,783,774,783,6" style="stroke:#000000;stroke-width:1.5;"/><line style="stroke:#000000;stroke-width:1.5;" x1="783" x2="837" y1="29.6094" y2="29.6094"/><text fill="#000000" font-family="sans-serif" font-size="14" font-weight="bold" lengthAdjust="spacing" textLength="41" x="787" y="22.5332">views</text><!--MD5=[af194e474b2c37e443a340884399de77]
class PlayerView--><rect codeLine="2" fill="#FEFECE" filter="url(#f1gtt0yymzmho5)" height="48" id="PlayerView" style="stroke:#A80036;stroke-width:1.5;" width="92" x="1317" y="42"/><ellipse cx="1332" cy="58" fill="#ADD1B2" rx="11" ry="11" style="stroke:#A80036;stroke-width:1.0;"/><path d="M1334.7656,53.875 Q1334.9219,53.6563 1335.1094,53.5469 Q1335.2969,53.4375 1335.5156,53.4375 Q1335.8906,53.4375 1336.125,53.6953 Q1336.3594,53.9531 1336.3594,54.5625 L1336.3594,56.0156 Q1336.3594,56.625 1336.125,56.8906 Q1335.8906,57.1563 1335.5156,57.1563 Q1335.1719,57.1563 1334.9688,56.9531 Q1334.7656,56.7656 1334.6563,56.25 Q1334.6094,55.8906 1334.4219,55.7031 Q1334.0938,55.3281 1333.4844,55.1094 Q1332.875,54.8906 1332.25,54.8906 Q1331.4844,54.8906 1330.8516,55.2188 Q1330.2188,55.5469 1329.7266,56.2969 Q1329.2344,57.0469 1329.2344,58.0781 L1329.2344,59.1719 Q1329.2344,60.4063 1330.125,61.2266 Q1331.0156,62.0469 1332.6094,62.0469 Q1333.5469,62.0469 1334.2031,61.7969 Q1334.5938,61.6406 1335.0156,61.2031 Q1335.2813,60.9375 1335.4297,60.8594 Q1335.5781,60.7813 1335.7813,60.7813 Q1336.1094,60.7813 1336.3672,61.0391 Q1336.625,61.2969 1336.625,61.6406 Q1336.625,61.9844 1336.2813,62.3906 Q1335.7813,62.9688 1334.9844,63.2969 Q1333.9063,63.75 1332.6094,63.75 Q1331.0938,63.75 1329.8906,63.125 Q1328.9063,62.625 1328.2188,61.5547 Q1327.5313,60.4844 1327.5313,59.2031 L1327.5313,58.0469 Q1327.5313,56.7188 1328.1484,55.5703 Q1328.7656,54.4219 1329.8594,53.8047 Q1330.9531,53.1875 1332.1875,53.1875 Q1332.9219,53.1875 1333.5703,53.3516 Q1334.2188,53.5156 1334.7656,53.875 Z " fill="#000000"/><text fill="#000000" font-family="sans-serif" font-size="12" lengthAdjust="spacing" textLength="60" x="1346" y="62.9102">PlayerView</text><line style="stroke:#A80036;stroke-width:1.5;" x1="1318" x2="1408" y1="74" y2="74"/><line style="stroke:#A80036;stroke-width:1.5;" x1="1318" x2="1408" y1="82" y2="82"/><!--MD5=[443c52daef265809fdf31be84fc8ae4a]
class StartView--><rect codeLine="3" fill="#FEFECE" filter="url(#f1gtt0yymzmho5)" height="61.8359" id="StartView" style="stroke:#A80036;stroke-width:1.5;" width="125" x="1300.5" y="150"/><ellipse cx="1334.4" cy="166" fill="#ADD1B2" rx="11" ry="11" style="stroke:#A80036;stroke-width:1.0;"/><path d="M1337.1656,161.875 Q1337.3219,161.6563 1337.5094,161.5469 Q1337.6969,161.4375 1337.9156,161.4375 Q1338.2906,161.4375 1338.525,161.6953 Q1338.7594,161.9531 1338.7594,162.5625 L1338.7594,164.0156 Q1338.7594,164.625 1338.525,164.8906 Q1338.2906,165.1563 1337.9156,165.1563 Q1337.5719,165.1563 1337.3688,164.9531 Q1337.1656,164.7656 1337.0563,164.25 Q1337.0094,163.8906 1336.8219,163.7031 Q1336.4938,163.3281 1335.8844,163.1094 Q1335.275,162.8906 1334.65,162.8906 Q1333.8844,162.8906 1333.2516,163.2188 Q1332.6188,163.5469 1332.1266,164.2969 Q1331.6344,165.0469 1331.6344,166.0781 L1331.6344,167.1719 Q1331.6344,168.4063 1332.525,169.2266 Q1333.4156,170.0469 1335.0094,170.0469 Q1335.9469,170.0469 1336.6031,169.7969 Q1336.9938,169.6406 1337.4156,169.2031 Q1337.6813,168.9375 1337.8297,168.8594 Q1337.9781,168.7813 1338.1813,168.7813 Q1338.5094,168.7813 1338.7672,169.0391 Q1339.025,169.2969 1339.025,169.6406 Q1339.025,169.9844 1338.6813,170.3906 Q1338.1813,170.9688 1337.3844,171.2969 Q1336.3063,171.75 1335.0094,171.75 Q1333.4938,171.75 1332.2906,171.125 Q1331.3063,170.625 1330.6188,169.5547 Q1329.9313,168.4844 1329.9313,167.2031 L1329.9313,166.0469 Q1329.9313,164.7188 1330.5484,163.5703 Q1331.1656,162.4219 1332.2594,161.8047 Q1333.3531,161.1875 1334.5875,161.1875 Q1335.3219,161.1875 1335.9703,161.3516 Q1336.6188,161.5156 1337.1656,161.875 Z " fill="#000000"/><text fill="#000000" font-family="sans-serif" font-size="12" lengthAdjust="spacing" textLength="51" x="1352.6" y="170.9102">StartView</text><line style="stroke:#A80036;stroke-width:1.5;" x1="1301.5" x2="1424.5" y1="182" y2="182"/><line style="stroke:#A80036;stroke-width:1.5;" x1="1301.5" x2="1424.5" y1="190" y2="190"/><polygon fill="#4177AF" points="1311.5,197,1307.5,203,1315.5,203" style="stroke:#1963A0;stroke-width:1.0;"/><text fill="#000000" font-family="sans-serif" font-size="11" lengthAdjust="spacing" textLength="99" x="1320.5" y="205.4189">start(StartController)</text><!--MD5=[af548d7eeba3607a103157b84173e841]
class ProposeView--><rect codeLine="6" fill="#FEFECE" filter="url(#f1gtt0yymzmho5)" height="61.8359" id="ProposeView" style="stroke:#A80036;stroke-width:1.5;" width="160" x="1105" y="150"/><ellipse cx="1144.75" cy="166" fill="#ADD1B2" rx="11" ry="11" style="stroke:#A80036;stroke-width:1.0;"/><path d="M1147.5156,161.875 Q1147.6719,161.6563 1147.8594,161.5469 Q1148.0469,161.4375 1148.2656,161.4375 Q1148.6406,161.4375 1148.875,161.6953 Q1149.1094,161.9531 1149.1094,162.5625 L1149.1094,164.0156 Q1149.1094,164.625 1148.875,164.8906 Q1148.6406,165.1563 1148.2656,165.1563 Q1147.9219,165.1563 1147.7188,164.9531 Q1147.5156,164.7656 1147.4063,164.25 Q1147.3594,163.8906 1147.1719,163.7031 Q1146.8438,163.3281 1146.2344,163.1094 Q1145.625,162.8906 1145,162.8906 Q1144.2344,162.8906 1143.6016,163.2188 Q1142.9688,163.5469 1142.4766,164.2969 Q1141.9844,165.0469 1141.9844,166.0781 L1141.9844,167.1719 Q1141.9844,168.4063 1142.875,169.2266 Q1143.7656,170.0469 1145.3594,170.0469 Q1146.2969,170.0469 1146.9531,169.7969 Q1147.3438,169.6406 1147.7656,169.2031 Q1148.0313,168.9375 1148.1797,168.8594 Q1148.3281,168.7813 1148.5313,168.7813 Q1148.8594,168.7813 1149.1172,169.0391 Q1149.375,169.2969 1149.375,169.6406 Q1149.375,169.9844 1149.0313,170.3906 Q1148.5313,170.9688 1147.7344,171.2969 Q1146.6563,171.75 1145.3594,171.75 Q1143.8438,171.75 1142.6406,171.125 Q1141.6563,170.625 1140.9688,169.5547 Q1140.2813,168.4844 1140.2813,167.2031 L1140.2813,166.0469 Q1140.2813,164.7188 1140.8984,163.5703 Q1141.5156,162.4219 1142.6094,161.8047 Q1143.7031,161.1875 1144.9375,161.1875 Q1145.6719,161.1875 1146.3203,161.3516 Q1146.9688,161.5156 1147.5156,161.875 Z " fill="#000000"/><text fill="#000000" font-family="sans-serif" font-size="12" lengthAdjust="spacing" textLength="73" x="1164.25" y="170.9102">ProposeView</text><line style="stroke:#A80036;stroke-width:1.5;" x1="1106" x2="1264" y1="182" y2="182"/><line style="stroke:#A80036;stroke-width:1.5;" x1="1106" x2="1264" y1="190" y2="190"/><polygon fill="#4177AF" points="1116,197,1112,203,1120,203" style="stroke:#1963A0;stroke-width:1.0;"/><text fill="#000000" font-family="sans-serif" font-size="11" lengthAdjust="spacing" textLength="134" x="1125" y="205.4189">propose(ProposeController)</text><!--MD5=[19088a99a8c1f36e582d33ac2f8fc6dd]
class ResumeView--><rect codeLine="9" fill="#FEFECE" filter="url(#f1gtt0yymzmho5)" height="61.8359" id="ResumeView" style="stroke:#A80036;stroke-width:1.5;" width="199" x="1460.5" y="150"/><ellipse cx="1518.75" cy="166" fill="#ADD1B2" rx="11" ry="11" style="stroke:#A80036;stroke-width:1.0;"/><path d="M1521.5156,161.875 Q1521.6719,161.6563 1521.8594,161.5469 Q1522.0469,161.4375 1522.2656,161.4375 Q1522.6406,161.4375 1522.875,161.6953 Q1523.1094,161.9531 1523.1094,162.5625 L1523.1094,164.0156 Q1523.1094,164.625 1522.875,164.8906 Q1522.6406,165.1563 1522.2656,165.1563 Q1521.9219,165.1563 1521.7188,164.9531 Q1521.5156,164.7656 1521.4063,164.25 Q1521.3594,163.8906 1521.1719,163.7031 Q1520.8438,163.3281 1520.2344,163.1094 Q1519.625,162.8906 1519,162.8906 Q1518.2344,162.8906 1517.6016,163.2188 Q1516.9688,163.5469 1516.4766,164.2969 Q1515.9844,165.0469 1515.9844,166.0781 L1515.9844,167.1719 Q1515.9844,168.4063 1516.875,169.2266 Q1517.7656,170.0469 1519.3594,170.0469 Q1520.2969,170.0469 1520.9531,169.7969 Q1521.3438,169.6406 1521.7656,169.2031 Q1522.0313,168.9375 1522.1797,168.8594 Q1522.3281,168.7813 1522.5313,168.7813 Q1522.8594,168.7813 1523.1172,169.0391 Q1523.375,169.2969 1523.375,169.6406 Q1523.375,169.9844 1523.0313,170.3906 Q1522.5313,170.9688 1521.7344,171.2969 Q1520.6563,171.75 1519.3594,171.75 Q1517.8438,171.75 1516.6406,171.125 Q1515.6563,170.625 1514.9688,169.5547 Q1514.2813,168.4844 1514.2813,167.2031 L1514.2813,166.0469 Q1514.2813,164.7188 1514.8984,163.5703 Q1515.5156,162.4219 1516.6094,161.8047 Q1517.7031,161.1875 1518.9375,161.1875 Q1519.6719,161.1875 1520.3203,161.3516 Q1520.9688,161.5156 1521.5156,161.875 Z " fill="#000000"/><text fill="#000000" font-family="sans-serif" font-size="12" lengthAdjust="spacing" textLength="74" x="1539.25" y="170.9102">ResumeView</text><line style="stroke:#A80036;stroke-width:1.5;" x1="1461.5" x2="1658.5" y1="182" y2="182"/><line style="stroke:#A80036;stroke-width:1.5;" x1="1461.5" x2="1658.5" y1="190" y2="190"/><polygon fill="#4177AF" points="1471.5,197,1467.5,203,1475.5,203" style="stroke:#1963A0;stroke-width:1.0;"/><text fill="#000000" font-family="sans-serif" font-size="11" lengthAdjust="spacing" textLength="173" x="1480.5" y="205.4189">resume(ResumeController): boolean</text><!--MD5=[9b237e88d697a058bd530d6510c96c00]
class BoardView--><rect codeLine="12" fill="#FEFECE" filter="url(#f1gtt0yymzmho5)" height="61.8359" id="BoardView" style="stroke:#A80036;stroke-width:1.5;" width="105" x="1219.5" y="272"/><ellipse cx="1240.8" cy="288" fill="#ADD1B2" rx="11" ry="11" style="stroke:#A80036;stroke-width:1.0;"/><path d="M1243.5656,283.875 Q1243.7219,283.6563 1243.9094,283.5469 Q1244.0969,283.4375 1244.3156,283.4375 Q1244.6906,283.4375 1244.925,283.6953 Q1245.1594,283.9531 1245.1594,284.5625 L1245.1594,286.0156 Q1245.1594,286.625 1244.925,286.8906 Q1244.6906,287.1563 1244.3156,287.1563 Q1243.9719,287.1563 1243.7688,286.9531 Q1243.5656,286.7656 1243.4563,286.25 Q1243.4094,285.8906 1243.2219,285.7031 Q1242.8938,285.3281 1242.2844,285.1094 Q1241.675,284.8906 1241.05,284.8906 Q1240.2844,284.8906 1239.6516,285.2188 Q1239.0188,285.5469 1238.5266,286.2969 Q1238.0344,287.0469 1238.0344,288.0781 L1238.0344,289.1719 Q1238.0344,290.4063 1238.925,291.2266 Q1239.8156,292.0469 1241.4094,292.0469 Q1242.3469,292.0469 1243.0031,291.7969 Q1243.3938,291.6406 1243.8156,291.2031 Q1244.0813,290.9375 1244.2297,290.8594 Q1244.3781,290.7813 1244.5813,290.7813 Q1244.9094,290.7813 1245.1672,291.0391 Q1245.425,291.2969 1245.425,291.6406 Q1245.425,291.9844 1245.0813,292.3906 Q1244.5813,292.9688 1243.7844,293.2969 Q1242.7063,293.75 1241.4094,293.75 Q1239.8938,293.75 1238.6906,293.125 Q1237.7063,292.625 1237.0188,291.5547 Q1236.3313,290.4844 1236.3313,289.2031 L1236.3313,288.0469 Q1236.3313,286.7188 1236.9484,285.5703 Q1237.5656,284.4219 1238.6594,283.8047 Q1239.7531,283.1875 1240.9875,283.1875 Q1241.7219,283.1875 1242.3703,283.3516 Q1243.0188,283.5156 1243.5656,283.875 Z " fill="#000000"/><text fill="#000000" font-family="sans-serif" font-size="12" lengthAdjust="spacing" textLength="59" x="1256.2" y="292.9102">BoardView</text><line style="stroke:#A80036;stroke-width:1.5;" x1="1220.5" x2="1323.5" y1="304" y2="304"/><line style="stroke:#A80036;stroke-width:1.5;" x1="1220.5" x2="1323.5" y1="312" y2="312"/><polygon fill="#4177AF" points="1230.5,319,1226.5,325,1234.5,325" style="stroke:#1963A0;stroke-width:1.0;"/><text fill="#000000" font-family="sans-serif" font-size="11" lengthAdjust="spacing" textLength="79" x="1239.5" y="327.4189">write(Controller)</text><!--MD5=[f6bfa8e6ad2e37edcd578b647fafadda]
class MenuView--><rect codeLine="15" fill="#FEFECE" filter="url(#f1gtt0yymzmho5)" height="61.8359" id="MenuView" style="stroke:#A80036;stroke-width:1.5;" width="105" x="799.5" y="272"/><ellipse cx="822.15" cy="288" fill="#ADD1B2" rx="11" ry="11" style="stroke:#A80036;stroke-width:1.0;"/><path d="M824.9156,283.875 Q825.0719,283.6563 825.2594,283.5469 Q825.4469,283.4375 825.6656,283.4375 Q826.0406,283.4375 826.275,283.6953 Q826.5094,283.9531 826.5094,284.5625 L826.5094,286.0156 Q826.5094,286.625 826.275,286.8906 Q826.0406,287.1563 825.6656,287.1563 Q825.3219,287.1563 825.1188,286.9531 Q824.9156,286.7656 824.8063,286.25 Q824.7594,285.8906 824.5719,285.7031 Q824.2438,285.3281 823.6344,285.1094 Q823.025,284.8906 822.4,284.8906 Q821.6344,284.8906 821.0016,285.2188 Q820.3688,285.5469 819.8766,286.2969 Q819.3844,287.0469 819.3844,288.0781 L819.3844,289.1719 Q819.3844,290.4063 820.275,291.2266 Q821.1656,292.0469 822.7594,292.0469 Q823.6969,292.0469 824.3531,291.7969 Q824.7438,291.6406 825.1656,291.2031 Q825.4313,290.9375 825.5797,290.8594 Q825.7281,290.7813 825.9313,290.7813 Q826.2594,290.7813 826.5172,291.0391 Q826.775,291.2969 826.775,291.6406 Q826.775,291.9844 826.4313,292.3906 Q825.9313,292.9688 825.1344,293.2969 Q824.0563,293.75 822.7594,293.75 Q821.2438,293.75 820.0406,293.125 Q819.0563,292.625 818.3688,291.5547 Q817.6813,290.4844 817.6813,289.2031 L817.6813,288.0469 Q817.6813,286.7188 818.2984,285.5703 Q818.9156,284.4219 820.0094,283.8047 Q821.1031,283.1875 822.3375,283.1875 Q823.0719,283.1875 823.7203,283.3516 Q824.3688,283.5156 824.9156,283.875 Z " fill="#000000"/><text fill="#000000" font-family="sans-serif" font-size="12" lengthAdjust="spacing" textLength="56" x="837.85" y="292.9102">MenuView</text><line style="stroke:#A80036;stroke-width:1.5;" x1="800.5" x2="903.5" y1="304" y2="304"/><line style="stroke:#A80036;stroke-width:1.5;" x1="800.5" x2="903.5" y1="312" y2="312"/><polygon fill="#4177AF" points="810.5,319,806.5,325,814.5,325" style="stroke:#1963A0;stroke-width:1.0;"/><text fill="#000000" font-family="sans-serif" font-size="11" lengthAdjust="spacing" textLength="79" x="819.5" y="327.4189">write(Controller)</text><!--MD5=[0523615cfa2fa70c8ab764401f29a299]
class ProposedCombinationView--><rect codeLine="18" fill="#FEFECE" filter="url(#f1gtt0yymzmho5)" height="75.6719" id="ProposedCombinationView" style="stroke:#A80036;stroke-width:1.5;" width="183" x="963.5" y="394"/><ellipse cx="978.5" cy="410" fill="#ADD1B2" rx="11" ry="11" style="stroke:#A80036;stroke-width:1.0;"/><path d="M981.2656,405.875 Q981.4219,405.6563 981.6094,405.5469 Q981.7969,405.4375 982.0156,405.4375 Q982.3906,405.4375 982.625,405.6953 Q982.8594,405.9531 982.8594,406.5625 L982.8594,408.0156 Q982.8594,408.625 982.625,408.8906 Q982.3906,409.1563 982.0156,409.1563 Q981.6719,409.1563 981.4688,408.9531 Q981.2656,408.7656 981.1563,408.25 Q981.1094,407.8906 980.9219,407.7031 Q980.5938,407.3281 979.9844,407.1094 Q979.375,406.8906 978.75,406.8906 Q977.9844,406.8906 977.3516,407.2188 Q976.7188,407.5469 976.2266,408.2969 Q975.7344,409.0469 975.7344,410.0781 L975.7344,411.1719 Q975.7344,412.4063 976.625,413.2266 Q977.5156,414.0469 979.1094,414.0469 Q980.0469,414.0469 980.7031,413.7969 Q981.0938,413.6406 981.5156,413.2031 Q981.7813,412.9375 981.9297,412.8594 Q982.0781,412.7813 982.2813,412.7813 Q982.6094,412.7813 982.8672,413.0391 Q983.125,413.2969 983.125,413.6406 Q983.125,413.9844 982.7813,414.3906 Q982.2813,414.9688 981.4844,415.2969 Q980.4063,415.75 979.1094,415.75 Q977.5938,415.75 976.3906,415.125 Q975.4063,414.625 974.7188,413.5547 Q974.0313,412.4844 974.0313,411.2031 L974.0313,410.0469 Q974.0313,408.7188 974.6484,407.5703 Q975.2656,406.4219 976.3594,405.8047 Q977.4531,405.1875 978.6875,405.1875 Q979.4219,405.1875 980.0703,405.3516 Q980.7188,405.5156 981.2656,405.875 Z " fill="#000000"/><text fill="#000000" font-family="sans-serif" font-size="12" lengthAdjust="spacing" textLength="151" x="992.5" y="414.9102">ProposedCombinationView</text><line style="stroke:#A80036;stroke-width:1.5;" x1="964.5" x2="1145.5" y1="426" y2="426"/><line style="stroke:#A80036;stroke-width:1.5;" x1="964.5" x2="1145.5" y1="434" y2="434"/><polygon fill="#4177AF" points="974.5,441,970.5,447,978.5,447" style="stroke:#1963A0;stroke-width:1.0;"/><text fill="#000000" font-family="sans-serif" font-size="11" lengthAdjust="spacing" textLength="119" x="983.5" y="449.4189">write(ProposeController)</text><polygon fill="#4177AF" points="974.5,454.8359,970.5,460.8359,978.5,460.8359" style="stroke:#1963A0;stroke-width:1.0;"/><text fill="#000000" font-family="sans-serif" font-size="11" lengthAdjust="spacing" textLength="90" x="983.5" y="463.2549">read(): List&lt;Color&gt;</text><!--MD5=[94936c1138d9bd95716606726ba703b1]
class SecretCombinationView--><rect codeLine="22" fill="#FEFECE" filter="url(#f1gtt0yymzmho5)" height="61.8359" id="SecretCombinationView" style="stroke:#A80036;stroke-width:1.5;" width="164" x="1256" y="401"/><ellipse cx="1271" cy="417" fill="#ADD1B2" rx="11" ry="11" style="stroke:#A80036;stroke-width:1.0;"/><path d="M1273.7656,412.875 Q1273.9219,412.6563 1274.1094,412.5469 Q1274.2969,412.4375 1274.5156,412.4375 Q1274.8906,412.4375 1275.125,412.6953 Q1275.3594,412.9531 1275.3594,413.5625 L1275.3594,415.0156 Q1275.3594,415.625 1275.125,415.8906 Q1274.8906,416.1563 1274.5156,416.1563 Q1274.1719,416.1563 1273.9688,415.9531 Q1273.7656,415.7656 1273.6563,415.25 Q1273.6094,414.8906 1273.4219,414.7031 Q1273.0938,414.3281 1272.4844,414.1094 Q1271.875,413.8906 1271.25,413.8906 Q1270.4844,413.8906 1269.8516,414.2188 Q1269.2188,414.5469 1268.7266,415.2969 Q1268.2344,416.0469 1268.2344,417.0781 L1268.2344,418.1719 Q1268.2344,419.4063 1269.125,420.2266 Q1270.0156,421.0469 1271.6094,421.0469 Q1272.5469,421.0469 1273.2031,420.7969 Q1273.5938,420.6406 1274.0156,420.2031 Q1274.2813,419.9375 1274.4297,419.8594 Q1274.5781,419.7813 1274.7813,419.7813 Q1275.1094,419.7813 1275.3672,420.0391 Q1275.625,420.2969 1275.625,420.6406 Q1275.625,420.9844 1275.2813,421.3906 Q1274.7813,421.9688 1273.9844,422.2969 Q1272.9063,422.75 1271.6094,422.75 Q1270.0938,422.75 1268.8906,422.125 Q1267.9063,421.625 1267.2188,420.5547 Q1266.5313,419.4844 1266.5313,418.2031 L1266.5313,417.0469 Q1266.5313,415.7188 1267.1484,414.5703 Q1267.7656,413.4219 1268.8594,412.8047 Q1269.9531,412.1875 1271.1875,412.1875 Q1271.9219,412.1875 1272.5703,412.3516 Q1273.2188,412.5156 1273.7656,412.875 Z " fill="#000000"/><text fill="#000000" font-family="sans-serif" font-size="12" lengthAdjust="spacing" textLength="132" x="1285" y="421.9102">SecretCombinationView</text><line style="stroke:#A80036;stroke-width:1.5;" x1="1257" x2="1419" y1="433" y2="433"/><line style="stroke:#A80036;stroke-width:1.5;" x1="1257" x2="1419" y1="441" y2="441"/><polygon fill="#4177AF" points="1267,448,1263,454,1271,454" style="stroke:#1963A0;stroke-width:1.0;"/><text fill="#000000" font-family="sans-serif" font-size="11" lengthAdjust="spacing" textLength="33" x="1276" y="456.4189">write()</text><!--MD5=[a40873b740e53ca026148d30ccb3c321]
class ResultView--><rect codeLine="25" fill="#FEFECE" filter="url(#f1gtt0yymzmho5)" height="61.8359" id="ResultView" style="stroke:#A80036;stroke-width:1.5;" width="94" x="1455" y="401"/><ellipse cx="1470" cy="417" fill="#ADD1B2" rx="11" ry="11" style="stroke:#A80036;stroke-width:1.0;"/><path d="M1472.7656,412.875 Q1472.9219,412.6563 1473.1094,412.5469 Q1473.2969,412.4375 1473.5156,412.4375 Q1473.8906,412.4375 1474.125,412.6953 Q1474.3594,412.9531 1474.3594,413.5625 L1474.3594,415.0156 Q1474.3594,415.625 1474.125,415.8906 Q1473.8906,416.1563 1473.5156,416.1563 Q1473.1719,416.1563 1472.9688,415.9531 Q1472.7656,415.7656 1472.6563,415.25 Q1472.6094,414.8906 1472.4219,414.7031 Q1472.0938,414.3281 1471.4844,414.1094 Q1470.875,413.8906 1470.25,413.8906 Q1469.4844,413.8906 1468.8516,414.2188 Q1468.2188,414.5469 1467.7266,415.2969 Q1467.2344,416.0469 1467.2344,417.0781 L1467.2344,418.1719 Q1467.2344,419.4063 1468.125,420.2266 Q1469.0156,421.0469 1470.6094,421.0469 Q1471.5469,421.0469 1472.2031,420.7969 Q1472.5938,420.6406 1473.0156,420.2031 Q1473.2813,419.9375 1473.4297,419.8594 Q1473.5781,419.7813 1473.7813,419.7813 Q1474.1094,419.7813 1474.3672,420.0391 Q1474.625,420.2969 1474.625,420.6406 Q1474.625,420.9844 1474.2813,421.3906 Q1473.7813,421.9688 1472.9844,422.2969 Q1471.9063,422.75 1470.6094,422.75 Q1469.0938,422.75 1467.8906,422.125 Q1466.9063,421.625 1466.2188,420.5547 Q1465.5313,419.4844 1465.5313,418.2031 L1465.5313,417.0469 Q1465.5313,415.7188 1466.1484,414.5703 Q1466.7656,413.4219 1467.8594,412.8047 Q1468.9531,412.1875 1470.1875,412.1875 Q1470.9219,412.1875 1471.5703,412.3516 Q1472.2188,412.5156 1472.7656,412.875 Z " fill="#000000"/><text fill="#000000" font-family="sans-serif" font-size="12" lengthAdjust="spacing" textLength="62" x="1484" y="421.9102">ResultView</text><line style="stroke:#A80036;stroke-width:1.5;" x1="1456" x2="1548" y1="433" y2="433"/><line style="stroke:#A80036;stroke-width:1.5;" x1="1456" x2="1548" y1="441" y2="441"/><polygon fill="#4177AF" points="1466,448,1462,454,1470,454" style="stroke:#1963A0;stroke-width:1.0;"/><text fill="#000000" font-family="sans-serif" font-size="11" lengthAdjust="spacing" textLength="61" x="1475" y="456.4189">write(int, int)</text><!--MD5=[5c0d2bf114541dffca76af5edd55a1b5]
class ColorView--><rect codeLine="28" fill="#FEFECE" filter="url(#f1gtt0yymzmho5)" height="75.6719" id="ColorView" style="stroke:#A80036;stroke-width:1.5;" width="88" x="898" y="606"/><ellipse cx="913" cy="622" fill="#ADD1B2" rx="11" ry="11" style="stroke:#A80036;stroke-width:1.0;"/><path d="M915.7656,617.875 Q915.9219,617.6563 916.1094,617.5469 Q916.2969,617.4375 916.5156,617.4375 Q916.8906,617.4375 917.125,617.6953 Q917.3594,617.9531 917.3594,618.5625 L917.3594,620.0156 Q917.3594,620.625 917.125,620.8906 Q916.8906,621.1563 916.5156,621.1563 Q916.1719,621.1563 915.9688,620.9531 Q915.7656,620.7656 915.6563,620.25 Q915.6094,619.8906 915.4219,619.7031 Q915.0938,619.3281 914.4844,619.1094 Q913.875,618.8906 913.25,618.8906 Q912.4844,618.8906 911.8516,619.2188 Q911.2188,619.5469 910.7266,620.2969 Q910.2344,621.0469 910.2344,622.0781 L910.2344,623.1719 Q910.2344,624.4063 911.125,625.2266 Q912.0156,626.0469 913.6094,626.0469 Q914.5469,626.0469 915.2031,625.7969 Q915.5938,625.6406 916.0156,625.2031 Q916.2813,624.9375 916.4297,624.8594 Q916.5781,624.7813 916.7813,624.7813 Q917.1094,624.7813 917.3672,625.0391 Q917.625,625.2969 917.625,625.6406 Q917.625,625.9844 917.2813,626.3906 Q916.7813,626.9688 915.9844,627.2969 Q914.9063,627.75 913.6094,627.75 Q912.0938,627.75 910.8906,627.125 Q909.9063,626.625 909.2188,625.5547 Q908.5313,624.4844 908.5313,623.2031 L908.5313,622.0469 Q908.5313,620.7188 909.1484,619.5703 Q909.7656,618.4219 910.8594,617.8047 Q911.9531,617.1875 913.1875,617.1875 Q913.9219,617.1875 914.5703,617.3516 Q915.2188,617.5156 915.7656,617.875 Z " fill="#000000"/><text fill="#000000" font-family="sans-serif" font-size="12" lengthAdjust="spacing" textLength="56" x="927" y="626.9102">ColorView</text><line style="stroke:#A80036;stroke-width:1.5;" x1="899" x2="985" y1="638" y2="638"/><line style="stroke:#A80036;stroke-width:1.5;" x1="899" x2="985" y1="646" y2="646"/><polygon fill="#4177AF" points="909,653,905,659,913,659" style="stroke:#1963A0;stroke-width:1.0;"/><text fill="#000000" font-family="sans-serif" font-size="11" lengthAdjust="spacing" textLength="58" x="918" y="661.4189">write(Color)</text><polygon fill="#4177AF" points="909,666.8359,905,672.8359,913,672.8359" style="stroke:#1963A0;stroke-width:1.0;"/><text fill="#000000" font-family="sans-serif" font-size="11" lengthAdjust="spacing" textLength="61" x="918" y="675.2549">read(): Color</text><!--MD5=[bea5b0d46523efab5ea1c1d339f396f0]
class Message--><rect codeLine="32" fill="#FEFECE" filter="url(#f1gtt0yymzmho5)" height="227.8672" id="Message" style="stroke:#A80036;stroke-width:1.5;" width="157" x="1141.5" y="530"/><ellipse cx="1190.25" cy="546" fill="#EB937F" rx="11" ry="11" style="stroke:#A80036;stroke-width:1.0;"/><path d="M1189.1094,546.7969 L1189.1094,549.2969 L1193.4375,549.2969 L1193.4375,548.375 Q1193.4375,547.7656 1193.6797,547.5 Q1193.9219,547.2344 1194.2969,547.2344 Q1194.6719,547.2344 1194.9063,547.5 Q1195.1406,547.7656 1195.1406,548.375 L1195.1406,551 L1187.1406,551 Q1186.5156,551 1186.2578,550.7656 Q1186,550.5313 1186,550.1406 Q1186,549.7656 1186.2656,549.5313 Q1186.5313,549.2969 1187.1406,549.2969 L1187.4063,549.2969 L1187.4063,542.6406 L1187.1406,542.6406 Q1186.5156,542.6406 1186.2578,542.4063 Q1186,542.1719 1186,541.7813 Q1186,541.4063 1186.2578,541.1719 Q1186.5156,540.9375 1187.1406,540.9375 L1194.7656,540.9375 L1194.7656,543.5313 Q1194.7656,544.1406 1194.5391,544.3984 Q1194.3125,544.6563 1193.9219,544.6563 Q1193.5469,544.6563 1193.3125,544.3984 Q1193.0781,544.1406 1193.0781,543.5313 L1193.0781,542.6406 L1189.1094,542.6406 L1189.1094,545.0938 L1190.5938,545.0938 Q1190.5938,544.4375 1190.7188,544.25 Q1190.9844,543.8438 1191.4531,543.8438 Q1191.8281,543.8438 1192.0625,544.1016 Q1192.2969,544.3594 1192.2969,544.9688 L1192.2969,546.9375 Q1192.2969,547.4844 1192.1719,547.6719 Q1191.9063,548.0625 1191.4531,548.0625 Q1190.9844,548.0625 1190.7188,547.6563 Q1190.5938,547.4688 1190.5938,546.7969 L1189.1094,546.7969 Z " fill="#000000"/><text fill="#000000" font-family="sans-serif" font-size="12" lengthAdjust="spacing" textLength="51" x="1210.75" y="550.9102">Message</text><line style="stroke:#A80036;stroke-width:1.5;" x1="1142.5" x2="1297.5" y1="562" y2="562"/><ellipse cx="1152.5" cy="573" fill="none" rx="3" ry="3" style="stroke:#038048;stroke-width:1.0;"/><text fill="#000000" font-family="sans-serif" font-size="11" lengthAdjust="spacing" textLength="26" x="1161.5" y="577.4189">TITLE</text><ellipse cx="1152.5" cy="586.8359" fill="none" rx="3" ry="3" style="stroke:#038048;stroke-width:1.0;"/><text fill="#000000" font-family="sans-serif" font-size="11" lengthAdjust="spacing" textLength="115" x="1161.5" y="591.2549">SECRET_COMBINATION</text><ellipse cx="1152.5" cy="600.6719" fill="none" rx="3" ry="3" style="stroke:#038048;stroke-width:1.0;"/><text fill="#000000" font-family="sans-serif" font-size="11" lengthAdjust="spacing" textLength="53" x="1161.5" y="605.0908">ATTEMPTS</text><ellipse cx="1152.5" cy="614.5078" fill="none" rx="3" ry="3" style="stroke:#038048;stroke-width:1.0;"/><text fill="#000000" font-family="sans-serif" font-size="11" lengthAdjust="spacing" textLength="39" x="1161.5" y="618.9268">RESULT</text><ellipse cx="1152.5" cy="628.3438" fill="none" rx="3" ry="3" style="stroke:#038048;stroke-width:1.0;"/><text fill="#000000" font-family="sans-serif" font-size="11" lengthAdjust="spacing" textLength="131" x="1161.5" y="632.7627">PROPOSED_COMBINATION</text><ellipse cx="1152.5" cy="642.1797" fill="none" rx="3" ry="3" style="stroke:#038048;stroke-width:1.0;"/><text fill="#000000" font-family="sans-serif" font-size="11" lengthAdjust="spacing" textLength="39" x="1161.5" y="646.5986">WINNER</text><ellipse cx="1152.5" cy="656.0156" fill="none" rx="3" ry="3" style="stroke:#038048;stroke-width:1.0;"/><text fill="#000000" font-family="sans-serif" font-size="11" lengthAdjust="spacing" textLength="42" x="1161.5" y="660.4346">LOOSER</text><ellipse cx="1152.5" cy="669.8516" fill="none" rx="3" ry="3" style="stroke:#038048;stroke-width:1.0;"/><text fill="#000000" font-family="sans-serif" font-size="11" lengthAdjust="spacing" textLength="41" x="1161.5" y="674.2705">RESUME</text><ellipse cx="1152.5" cy="683.6875" fill="none" rx="3" ry="3" style="stroke:#038048;stroke-width:1.0;"/><text fill="#000000" font-family="sans-serif" font-size="11" lengthAdjust="spacing" textLength="27" x="1161.5" y="688.1064">OPEN</text><ellipse cx="1152.5" cy="697.5234" fill="none" rx="3" ry="3" style="stroke:#038048;stroke-width:1.0;"/><text fill="#000000" font-family="sans-serif" font-size="11" lengthAdjust="spacing" textLength="29" x="1161.5" y="701.9424">SAVE</text><line style="stroke:#A80036;stroke-width:1.5;" x1="1142.5" x2="1297.5" y1="708.3594" y2="708.3594"/><polygon fill="#4177AF" points="1152.5,715.3594,1148.5,721.3594,1156.5,721.3594" style="stroke:#1963A0;stroke-width:1.0;"/><text fill="#000000" font-family="sans-serif" font-size="11" lengthAdjust="spacing" textLength="33" x="1161.5" y="723.7783">write()</text><polygon fill="#4177AF" points="1152.5,729.1953,1148.5,735.1953,1156.5,735.1953" style="stroke:#1963A0;stroke-width:1.0;"/><text fill="#000000" font-family="sans-serif" font-size="11" lengthAdjust="spacing" textLength="44" x="1161.5" y="737.6143">write(int)</text><polygon fill="#4177AF" points="1152.5,743.0313,1148.5,749.0313,1156.5,749.0313" style="stroke:#1963A0;stroke-width:1.0;"/><text fill="#000000" font-family="sans-serif" font-size="11" lengthAdjust="spacing" textLength="61" x="1161.5" y="751.4502">write(int, int)</text><!--MD5=[86cec68673cafdfc1c204348d5b2cca6]
class ErrorView--><rect codeLine="47" fill="#FEFECE" filter="url(#f1gtt0yymzmho5)" height="61.8359" id="ErrorView" style="stroke:#A80036;stroke-width:1.5;" width="85" x="1021.5" y="613"/><ellipse cx="1036.5" cy="629" fill="#ADD1B2" rx="11" ry="11" style="stroke:#A80036;stroke-width:1.0;"/><path d="M1039.2656,624.875 Q1039.4219,624.6563 1039.6094,624.5469 Q1039.7969,624.4375 1040.0156,624.4375 Q1040.3906,624.4375 1040.625,624.6953 Q1040.8594,624.9531 1040.8594,625.5625 L1040.8594,627.0156 Q1040.8594,627.625 1040.625,627.8906 Q1040.3906,628.1563 1040.0156,628.1563 Q1039.6719,628.1563 1039.4688,627.9531 Q1039.2656,627.7656 1039.1563,627.25 Q1039.1094,626.8906 1038.9219,626.7031 Q1038.5938,626.3281 1037.9844,626.1094 Q1037.375,625.8906 1036.75,625.8906 Q1035.9844,625.8906 1035.3516,626.2188 Q1034.7188,626.5469 1034.2266,627.2969 Q1033.7344,628.0469 1033.7344,629.0781 L1033.7344,630.1719 Q1033.7344,631.4063 1034.625,632.2266 Q1035.5156,633.0469 1037.1094,633.0469 Q1038.0469,633.0469 1038.7031,632.7969 Q1039.0938,632.6406 1039.5156,632.2031 Q1039.7813,631.9375 1039.9297,631.8594 Q1040.0781,631.7813 1040.2813,631.7813 Q1040.6094,631.7813 1040.8672,632.0391 Q1041.125,632.2969 1041.125,632.6406 Q1041.125,632.9844 1040.7813,633.3906 Q1040.2813,633.9688 1039.4844,634.2969 Q1038.4063,634.75 1037.1094,634.75 Q1035.5938,634.75 1034.3906,634.125 Q1033.4063,633.625 1032.7188,632.5547 Q1032.0313,631.4844 1032.0313,630.2031 L1032.0313,629.0469 Q1032.0313,627.7188 1032.6484,626.5703 Q1033.2656,625.4219 1034.3594,624.8047 Q1035.4531,624.1875 1036.6875,624.1875 Q1037.4219,624.1875 1038.0703,624.3516 Q1038.7188,624.5156 1039.2656,624.875 Z " fill="#000000"/><text fill="#000000" font-family="sans-serif" font-size="12" lengthAdjust="spacing" textLength="53" x="1050.5" y="633.9102">ErrorView</text><line style="stroke:#A80036;stroke-width:1.5;" x1="1022.5" x2="1105.5" y1="645" y2="645"/><line style="stroke:#A80036;stroke-width:1.5;" x1="1022.5" x2="1105.5" y1="653" y2="653"/><polygon fill="#4177AF" points="1032.5,660,1028.5,666,1036.5,666" style="stroke:#1963A0;stroke-width:1.0;"/><text fill="#000000" font-family="sans-serif" font-size="11" lengthAdjust="spacing" textLength="57" x="1041.5" y="668.4189">write(Error)</text><!--MD5=[3d7aa35fb7ed95ad4af92255c5d10a84]
class SaveView--><rect codeLine="50" fill="#FEFECE" filter="url(#f1gtt0yymzmho5)" height="61.8359" id="SaveView" style="stroke:#A80036;stroke-width:1.5;" width="129" x="799.5" y="401"/><ellipse cx="834.3" cy="417" fill="#ADD1B2" rx="11" ry="11" style="stroke:#A80036;stroke-width:1.0;"/><path d="M837.0656,412.875 Q837.2219,412.6563 837.4094,412.5469 Q837.5969,412.4375 837.8156,412.4375 Q838.1906,412.4375 838.425,412.6953 Q838.6594,412.9531 838.6594,413.5625 L838.6594,415.0156 Q838.6594,415.625 838.425,415.8906 Q838.1906,416.1563 837.8156,416.1563 Q837.4719,416.1563 837.2688,415.9531 Q837.0656,415.7656 836.9563,415.25 Q836.9094,414.8906 836.7219,414.7031 Q836.3938,414.3281 835.7844,414.1094 Q835.175,413.8906 834.55,413.8906 Q833.7844,413.8906 833.1516,414.2188 Q832.5188,414.5469 832.0266,415.2969 Q831.5344,416.0469 831.5344,417.0781 L831.5344,418.1719 Q831.5344,419.4063 832.425,420.2266 Q833.3156,421.0469 834.9094,421.0469 Q835.8469,421.0469 836.5031,420.7969 Q836.8938,420.6406 837.3156,420.2031 Q837.5813,419.9375 837.7297,419.8594 Q837.8781,419.7813 838.0813,419.7813 Q838.4094,419.7813 838.6672,420.0391 Q838.925,420.2969 838.925,420.6406 Q838.925,420.9844 838.5813,421.3906 Q838.0813,421.9688 837.2844,422.2969 Q836.2063,422.75 834.9094,422.75 Q833.3938,422.75 832.1906,422.125 Q831.2063,421.625 830.5188,420.5547 Q829.8313,419.4844 829.8313,418.2031 L829.8313,417.0469 Q829.8313,415.7188 830.4484,414.5703 Q831.0656,413.4219 832.1594,412.8047 Q833.2531,412.1875 834.4875,412.1875 Q835.2219,412.1875 835.8703,412.3516 Q836.5188,412.5156 837.0656,412.875 Z " fill="#000000"/><text fill="#000000" font-family="sans-serif" font-size="12" lengthAdjust="spacing" textLength="53" x="852.7" y="421.9102">SaveView</text><line style="stroke:#A80036;stroke-width:1.5;" x1="800.5" x2="927.5" y1="433" y2="433"/><line style="stroke:#A80036;stroke-width:1.5;" x1="800.5" x2="927.5" y1="441" y2="441"/><polygon fill="#4177AF" points="810.5,448,806.5,454,814.5,454" style="stroke:#1963A0;stroke-width:1.0;"/><text fill="#000000" font-family="sans-serif" font-size="11" lengthAdjust="spacing" textLength="103" x="819.5" y="456.4189">save(SaveController)</text><!--MD5=[7b032604b870e7ed66a9503ed2c49241]
class OpenView--><rect codeLine="53" fill="#FEFECE" filter="url(#f1gtt0yymzmho5)" height="61.8359" id="OpenView" style="stroke:#A80036;stroke-width:1.5;" width="142" x="1360" y="272"/><ellipse cx="1399.3" cy="288" fill="#ADD1B2" rx="11" ry="11" style="stroke:#A80036;stroke-width:1.0;"/><path d="M1402.0656,283.875 Q1402.2219,283.6563 1402.4094,283.5469 Q1402.5969,283.4375 1402.8156,283.4375 Q1403.1906,283.4375 1403.425,283.6953 Q1403.6594,283.9531 1403.6594,284.5625 L1403.6594,286.0156 Q1403.6594,286.625 1403.425,286.8906 Q1403.1906,287.1563 1402.8156,287.1563 Q1402.4719,287.1563 1402.2688,286.9531 Q1402.0656,286.7656 1401.9563,286.25 Q1401.9094,285.8906 1401.7219,285.7031 Q1401.3938,285.3281 1400.7844,285.1094 Q1400.175,284.8906 1399.55,284.8906 Q1398.7844,284.8906 1398.1516,285.2188 Q1397.5188,285.5469 1397.0266,286.2969 Q1396.5344,287.0469 1396.5344,288.0781 L1396.5344,289.1719 Q1396.5344,290.4063 1397.425,291.2266 Q1398.3156,292.0469 1399.9094,292.0469 Q1400.8469,292.0469 1401.5031,291.7969 Q1401.8938,291.6406 1402.3156,291.2031 Q1402.5813,290.9375 1402.7297,290.8594 Q1402.8781,290.7813 1403.0813,290.7813 Q1403.4094,290.7813 1403.6672,291.0391 Q1403.925,291.2969 1403.925,291.6406 Q1403.925,291.9844 1403.5813,292.3906 Q1403.0813,292.9688 1402.2844,293.2969 Q1401.2063,293.75 1399.9094,293.75 Q1398.3938,293.75 1397.1906,293.125 Q1396.2063,292.625 1395.5188,291.5547 Q1394.8313,290.4844 1394.8313,289.2031 L1394.8313,288.0469 Q1394.8313,286.7188 1395.4484,285.5703 Q1396.0656,284.4219 1397.1594,283.8047 Q1398.2531,283.1875 1399.4875,283.1875 Q1400.2219,283.1875 1400.8703,283.3516 Q1401.5188,283.5156 1402.0656,283.875 Z " fill="#000000"/><text fill="#000000" font-family="sans-serif" font-size="12" lengthAdjust="spacing" textLength="56" x="1418.7" y="292.9102">OpenView</text><line style="stroke:#A80036;stroke-width:1.5;" x1="1361" x2="1501" y1="304" y2="304"/><line style="stroke:#A80036;stroke-width:1.5;" x1="1361" x2="1501" y1="312" y2="312"/><polygon fill="#4177AF" points="1371,319,1367,325,1375,325" style="stroke:#1963A0;stroke-width:1.0;"/><text fill="#000000" font-family="sans-serif" font-size="11" lengthAdjust="spacing" textLength="116" x="1380" y="327.4189">interact(OpenController)</text><!--MD5=[0b95e4ee8b160a2b3b0650a9b235c496]
class ProposeController--><rect codeLine="80" fill="#FEFECE" filter="url(#f1gtt0yymzmho5)" height="56.1875" id="ProposeController" style="stroke:#A80036;stroke-width:1.5;" width="133" x="1692.5" y="616"/><ellipse cx="1707.5" cy="636.0938" fill="#ADD1B2" rx="11" ry="11" style="stroke:#A80036;stroke-width:1.0;"/><path d="M1710.2656,631.9688 Q1710.4219,631.75 1710.6094,631.6406 Q1710.7969,631.5313 1711.0156,631.5313 Q1711.3906,631.5313 1711.625,631.7891 Q1711.8594,632.0469 1711.8594,632.6563 L1711.8594,634.1094 Q1711.8594,634.7188 1711.625,634.9844 Q1711.3906,635.25 1711.0156,635.25 Q1710.6719,635.25 1710.4688,635.0469 Q1710.2656,634.8594 1710.1563,634.3438 Q1710.1094,633.9844 1709.9219,633.7969 Q1709.5938,633.4219 1708.9844,633.2031 Q1708.375,632.9844 1707.75,632.9844 Q1706.9844,632.9844 1706.3516,633.3125 Q1705.7188,633.6406 1705.2266,634.3906 Q1704.7344,635.1406 1704.7344,636.1719 L1704.7344,637.2656 Q1704.7344,638.5 1705.625,639.3203 Q1706.5156,640.1406 1708.1094,640.1406 Q1709.0469,640.1406 1709.7031,639.8906 Q1710.0938,639.7344 1710.5156,639.2969 Q1710.7813,639.0313 1710.9297,638.9531 Q1711.0781,638.875 1711.2813,638.875 Q1711.6094,638.875 1711.8672,639.1328 Q1712.125,639.3906 1712.125,639.7344 Q1712.125,640.0781 1711.7813,640.4844 Q1711.2813,641.0625 1710.4844,641.3906 Q1709.4063,641.8438 1708.1094,641.8438 Q1706.5938,641.8438 1705.3906,641.2188 Q1704.4063,640.7188 1703.7188,639.6484 Q1703.0313,638.5781 1703.0313,637.2969 L1703.0313,636.1406 Q1703.0313,634.8125 1703.6484,633.6641 Q1704.2656,632.5156 1705.3594,631.8984 Q1706.4531,631.2813 1707.6875,631.2813 Q1708.4219,631.2813 1709.0703,631.4453 Q1709.7188,631.6094 1710.2656,631.9688 Z " fill="#000000"/><text fill="#000000" font-family="sans-serif" font-size="12" lengthAdjust="spacing" textLength="61" x="1741.5" y="633.457">controllers.</text><text fill="#000000" font-family="sans-serif" font-size="12" lengthAdjust="spacing" textLength="101" x="1721.5" y="648.5508">ProposeController</text><line style="stroke:#A80036;stroke-width:1.5;" x1="1693.5" x2="1824.5" y1="656.1875" y2="656.1875"/><line style="stroke:#A80036;stroke-width:1.5;" x1="1693.5" x2="1824.5" y1="664.1875" y2="664.1875"/><!--MD5=[47c371471411cfedeee61b1a5bdaee47]
class StartController--><rect codeLine="81" fill="#FEFECE" filter="url(#f1gtt0yymzmho5)" height="56.1875" id="StartController" style="stroke:#A80036;stroke-width:1.5;" width="111" x="1766.5" y="275"/><ellipse cx="1781.5" cy="295.0938" fill="#ADD1B2" rx="11" ry="11" style="stroke:#A80036;stroke-width:1.0;"/><path d="M1784.2656,290.9688 Q1784.4219,290.75 1784.6094,290.6406 Q1784.7969,290.5313 1785.0156,290.5313 Q1785.3906,290.5313 1785.625,290.7891 Q1785.8594,291.0469 1785.8594,291.6563 L1785.8594,293.1094 Q1785.8594,293.7188 1785.625,293.9844 Q1785.3906,294.25 1785.0156,294.25 Q1784.6719,294.25 1784.4688,294.0469 Q1784.2656,293.8594 1784.1563,293.3438 Q1784.1094,292.9844 1783.9219,292.7969 Q1783.5938,292.4219 1782.9844,292.2031 Q1782.375,291.9844 1781.75,291.9844 Q1780.9844,291.9844 1780.3516,292.3125 Q1779.7188,292.6406 1779.2266,293.3906 Q1778.7344,294.1406 1778.7344,295.1719 L1778.7344,296.2656 Q1778.7344,297.5 1779.625,298.3203 Q1780.5156,299.1406 1782.1094,299.1406 Q1783.0469,299.1406 1783.7031,298.8906 Q1784.0938,298.7344 1784.5156,298.2969 Q1784.7813,298.0313 1784.9297,297.9531 Q1785.0781,297.875 1785.2813,297.875 Q1785.6094,297.875 1785.8672,298.1328 Q1786.125,298.3906 1786.125,298.7344 Q1786.125,299.0781 1785.7813,299.4844 Q1785.2813,300.0625 1784.4844,300.3906 Q1783.4063,300.8438 1782.1094,300.8438 Q1780.5938,300.8438 1779.3906,300.2188 Q1778.4063,299.7188 1777.7188,298.6484 Q1777.0313,297.5781 1777.0313,296.2969 L1777.0313,295.1406 Q1777.0313,293.8125 1777.6484,292.6641 Q1778.2656,291.5156 1779.3594,290.8984 Q1780.4531,290.2813 1781.6875,290.2813 Q1782.4219,290.2813 1783.0703,290.4453 Q1783.7188,290.6094 1784.2656,290.9688 Z " fill="#000000"/><text fill="#000000" font-family="sans-serif" font-size="12" lengthAdjust="spacing" textLength="61" x="1804.5" y="292.457">controllers.</text><text fill="#000000" font-family="sans-serif" font-size="12" lengthAdjust="spacing" textLength="79" x="1795.5" y="307.5508">StartController</text><line style="stroke:#A80036;stroke-width:1.5;" x1="1767.5" x2="1876.5" y1="315.1875" y2="315.1875"/><line style="stroke:#A80036;stroke-width:1.5;" x1="1767.5" x2="1876.5" y1="323.1875" y2="323.1875"/><!--MD5=[1a47bbf44ccee225df9b18c5b6629853]
class ResumeController--><rect codeLine="82" fill="#FEFECE" filter="url(#f1gtt0yymzmho5)" height="56.1875" id="ResumeController" style="stroke:#A80036;stroke-width:1.5;" width="134" x="1913" y="275"/><ellipse cx="1928" cy="295.0938" fill="#ADD1B2" rx="11" ry="11" style="stroke:#A80036;stroke-width:1.0;"/><path d="M1930.7656,290.9688 Q1930.9219,290.75 1931.1094,290.6406 Q1931.2969,290.5313 1931.5156,290.5313 Q1931.8906,290.5313 1932.125,290.7891 Q1932.3594,291.0469 1932.3594,291.6563 L1932.3594,293.1094 Q1932.3594,293.7188 1932.125,293.9844 Q1931.8906,294.25 1931.5156,294.25 Q1931.1719,294.25 1930.9688,294.0469 Q1930.7656,293.8594 1930.6563,293.3438 Q1930.6094,292.9844 1930.4219,292.7969 Q1930.0938,292.4219 1929.4844,292.2031 Q1928.875,291.9844 1928.25,291.9844 Q1927.4844,291.9844 1926.8516,292.3125 Q1926.2188,292.6406 1925.7266,293.3906 Q1925.2344,294.1406 1925.2344,295.1719 L1925.2344,296.2656 Q1925.2344,297.5 1926.125,298.3203 Q1927.0156,299.1406 1928.6094,299.1406 Q1929.5469,299.1406 1930.2031,298.8906 Q1930.5938,298.7344 1931.0156,298.2969 Q1931.2813,298.0313 1931.4297,297.9531 Q1931.5781,297.875 1931.7813,297.875 Q1932.1094,297.875 1932.3672,298.1328 Q1932.625,298.3906 1932.625,298.7344 Q1932.625,299.0781 1932.2813,299.4844 Q1931.7813,300.0625 1930.9844,300.3906 Q1929.9063,300.8438 1928.6094,300.8438 Q1927.0938,300.8438 1925.8906,300.2188 Q1924.9063,299.7188 1924.2188,298.6484 Q1923.5313,297.5781 1923.5313,296.2969 L1923.5313,295.1406 Q1923.5313,293.8125 1924.1484,292.6641 Q1924.7656,291.5156 1925.8594,290.8984 Q1926.9531,290.2813 1928.1875,290.2813 Q1928.9219,290.2813 1929.5703,290.4453 Q1930.2188,290.6094 1930.7656,290.9688 Z " fill="#000000"/><text fill="#000000" font-family="sans-serif" font-size="12" lengthAdjust="spacing" textLength="61" x="1962.5" y="292.457">controllers.</text><text fill="#000000" font-family="sans-serif" font-size="12" lengthAdjust="spacing" textLength="102" x="1942" y="307.5508">ResumeController</text><line style="stroke:#A80036;stroke-width:1.5;" x1="1914" x2="2046" y1="315.1875" y2="315.1875"/><line style="stroke:#A80036;stroke-width:1.5;" x1="1914" x2="2046" y1="323.1875" y2="323.1875"/><!--MD5=[aab9612c5d46aa221e996c7d0ed5d7ab]
class UndoController--><rect codeLine="83" fill="#FEFECE" filter="url(#f1gtt0yymzmho5)" height="56.1875" id="UndoController" style="stroke:#A80036;stroke-width:1.5;" width="116" x="299" y="404"/><ellipse cx="314" cy="424.0938" fill="#ADD1B2" rx="11" ry="11" style="stroke:#A80036;stroke-width:1.0;"/><path d="M316.7656,419.9688 Q316.9219,419.75 317.1094,419.6406 Q317.2969,419.5313 317.5156,419.5313 Q317.8906,419.5313 318.125,419.7891 Q318.3594,420.0469 318.3594,420.6563 L318.3594,422.1094 Q318.3594,422.7188 318.125,422.9844 Q317.8906,423.25 317.5156,423.25 Q317.1719,423.25 316.9688,423.0469 Q316.7656,422.8594 316.6563,422.3438 Q316.6094,421.9844 316.4219,421.7969 Q316.0938,421.4219 315.4844,421.2031 Q314.875,420.9844 314.25,420.9844 Q313.4844,420.9844 312.8516,421.3125 Q312.2188,421.6406 311.7266,422.3906 Q311.2344,423.1406 311.2344,424.1719 L311.2344,425.2656 Q311.2344,426.5 312.125,427.3203 Q313.0156,428.1406 314.6094,428.1406 Q315.5469,428.1406 316.2031,427.8906 Q316.5938,427.7344 317.0156,427.2969 Q317.2813,427.0313 317.4297,426.9531 Q317.5781,426.875 317.7813,426.875 Q318.1094,426.875 318.3672,427.1328 Q318.625,427.3906 318.625,427.7344 Q318.625,428.0781 318.2813,428.4844 Q317.7813,429.0625 316.9844,429.3906 Q315.9063,429.8438 314.6094,429.8438 Q313.0938,429.8438 311.8906,429.2188 Q310.9063,428.7188 310.2188,427.6484 Q309.5313,426.5781 309.5313,425.2969 L309.5313,424.1406 Q309.5313,422.8125 310.1484,421.6641 Q310.7656,420.5156 311.8594,419.8984 Q312.9531,419.2813 314.1875,419.2813 Q314.9219,419.2813 315.5703,419.4453 Q316.2188,419.6094 316.7656,419.9688 Z " fill="#000000"/><text fill="#000000" font-family="sans-serif" font-size="12" lengthAdjust="spacing" textLength="61" x="339.5" y="421.457">controllers.</text><text fill="#000000" font-family="sans-serif" font-size="12" lengthAdjust="spacing" textLength="84" x="328" y="436.5508">UndoController</text><line style="stroke:#A80036;stroke-width:1.5;" x1="300" x2="414" y1="444.1875" y2="444.1875"/><line style="stroke:#A80036;stroke-width:1.5;" x1="300" x2="414" y1="452.1875" y2="452.1875"/><!--MD5=[09632e2f294dd01282ddf91519a686d7]
class RedoController--><rect codeLine="84" fill="#FEFECE" filter="url(#f1gtt0yymzmho5)" height="56.1875" id="RedoController" style="stroke:#A80036;stroke-width:1.5;" width="116" x="7" y="404"/><ellipse cx="22" cy="424.0938" fill="#ADD1B2" rx="11" ry="11" style="stroke:#A80036;stroke-width:1.0;"/><path d="M24.7656,419.9688 Q24.9219,419.75 25.1094,419.6406 Q25.2969,419.5313 25.5156,419.5313 Q25.8906,419.5313 26.125,419.7891 Q26.3594,420.0469 26.3594,420.6563 L26.3594,422.1094 Q26.3594,422.7188 26.125,422.9844 Q25.8906,423.25 25.5156,423.25 Q25.1719,423.25 24.9688,423.0469 Q24.7656,422.8594 24.6563,422.3438 Q24.6094,421.9844 24.4219,421.7969 Q24.0938,421.4219 23.4844,421.2031 Q22.875,420.9844 22.25,420.9844 Q21.4844,420.9844 20.8516,421.3125 Q20.2188,421.6406 19.7266,422.3906 Q19.2344,423.1406 19.2344,424.1719 L19.2344,425.2656 Q19.2344,426.5 20.125,427.3203 Q21.0156,428.1406 22.6094,428.1406 Q23.5469,428.1406 24.2031,427.8906 Q24.5938,427.7344 25.0156,427.2969 Q25.2813,427.0313 25.4297,426.9531 Q25.5781,426.875 25.7813,426.875 Q26.1094,426.875 26.3672,427.1328 Q26.625,427.3906 26.625,427.7344 Q26.625,428.0781 26.2813,428.4844 Q25.7813,429.0625 24.9844,429.3906 Q23.9063,429.8438 22.6094,429.8438 Q21.0938,429.8438 19.8906,429.2188 Q18.9063,428.7188 18.2188,427.6484 Q17.5313,426.5781 17.5313,425.2969 L17.5313,424.1406 Q17.5313,422.8125 18.1484,421.6641 Q18.7656,420.5156 19.8594,419.8984 Q20.9531,419.2813 22.1875,419.2813 Q22.9219,419.2813 23.5703,419.4453 Q24.2188,419.6094 24.7656,419.9688 Z " fill="#000000"/><text fill="#000000" font-family="sans-serif" font-size="12" lengthAdjust="spacing" textLength="61" x="47.5" y="421.457">controllers.</text><text fill="#000000" font-family="sans-serif" font-size="12" lengthAdjust="spacing" textLength="84" x="36" y="436.5508">RedoController</text><line style="stroke:#A80036;stroke-width:1.5;" x1="8" x2="122" y1="444.1875" y2="444.1875"/><line style="stroke:#A80036;stroke-width:1.5;" x1="8" x2="122" y1="452.1875" y2="452.1875"/><!--MD5=[d3858c961aee0496f0645a7642abb006]
class OpenController--><rect codeLine="85" fill="#FEFECE" filter="url(#f1gtt0yymzmho5)" height="56.1875" id="OpenController" style="stroke:#A80036;stroke-width:1.5;" width="116" x="648" y="404"/><ellipse cx="663" cy="424.0938" fill="#ADD1B2" rx="11" ry="11" style="stroke:#A80036;stroke-width:1.0;"/><path d="M665.7656,419.9688 Q665.9219,419.75 666.1094,419.6406 Q666.2969,419.5313 666.5156,419.5313 Q666.8906,419.5313 667.125,419.7891 Q667.3594,420.0469 667.3594,420.6563 L667.3594,422.1094 Q667.3594,422.7188 667.125,422.9844 Q666.8906,423.25 666.5156,423.25 Q666.1719,423.25 665.9688,423.0469 Q665.7656,422.8594 665.6563,422.3438 Q665.6094,421.9844 665.4219,421.7969 Q665.0938,421.4219 664.4844,421.2031 Q663.875,420.9844 663.25,420.9844 Q662.4844,420.9844 661.8516,421.3125 Q661.2188,421.6406 660.7266,422.3906 Q660.2344,423.1406 660.2344,424.1719 L660.2344,425.2656 Q660.2344,426.5 661.125,427.3203 Q662.0156,428.1406 663.6094,428.1406 Q664.5469,428.1406 665.2031,427.8906 Q665.5938,427.7344 666.0156,427.2969 Q666.2813,427.0313 666.4297,426.9531 Q666.5781,426.875 666.7813,426.875 Q667.1094,426.875 667.3672,427.1328 Q667.625,427.3906 667.625,427.7344 Q667.625,428.0781 667.2813,428.4844 Q666.7813,429.0625 665.9844,429.3906 Q664.9063,429.8438 663.6094,429.8438 Q662.0938,429.8438 660.8906,429.2188 Q659.9063,428.7188 659.2188,427.6484 Q658.5313,426.5781 658.5313,425.2969 L658.5313,424.1406 Q658.5313,422.8125 659.1484,421.6641 Q659.7656,420.5156 660.8594,419.8984 Q661.9531,419.2813 663.1875,419.2813 Q663.9219,419.2813 664.5703,419.4453 Q665.2188,419.6094 665.7656,419.9688 Z " fill="#000000"/><text fill="#000000" font-family="sans-serif" font-size="12" lengthAdjust="spacing" textLength="61" x="688.5" y="421.457">controllers.</text><text fill="#000000" font-family="sans-serif" font-size="12" lengthAdjust="spacing" textLength="84" x="677" y="436.5508">OpenController</text><line style="stroke:#A80036;stroke-width:1.5;" x1="649" x2="763" y1="444.1875" y2="444.1875"/><line style="stroke:#A80036;stroke-width:1.5;" x1="649" x2="763" y1="452.1875" y2="452.1875"/><!--MD5=[20f01773b9667c744e5118bba2278641]
class ExitController--><rect codeLine="86" fill="#FEFECE" filter="url(#f1gtt0yymzmho5)" height="56.1875" id="ExitController" style="stroke:#A80036;stroke-width:1.5;" width="105" x="158.5" y="404"/><ellipse cx="173.5" cy="424.0938" fill="#ADD1B2" rx="11" ry="11" style="stroke:#A80036;stroke-width:1.0;"/><path d="M176.2656,419.9688 Q176.4219,419.75 176.6094,419.6406 Q176.7969,419.5313 177.0156,419.5313 Q177.3906,419.5313 177.625,419.7891 Q177.8594,420.0469 177.8594,420.6563 L177.8594,422.1094 Q177.8594,422.7188 177.625,422.9844 Q177.3906,423.25 177.0156,423.25 Q176.6719,423.25 176.4688,423.0469 Q176.2656,422.8594 176.1563,422.3438 Q176.1094,421.9844 175.9219,421.7969 Q175.5938,421.4219 174.9844,421.2031 Q174.375,420.9844 173.75,420.9844 Q172.9844,420.9844 172.3516,421.3125 Q171.7188,421.6406 171.2266,422.3906 Q170.7344,423.1406 170.7344,424.1719 L170.7344,425.2656 Q170.7344,426.5 171.625,427.3203 Q172.5156,428.1406 174.1094,428.1406 Q175.0469,428.1406 175.7031,427.8906 Q176.0938,427.7344 176.5156,427.2969 Q176.7813,427.0313 176.9297,426.9531 Q177.0781,426.875 177.2813,426.875 Q177.6094,426.875 177.8672,427.1328 Q178.125,427.3906 178.125,427.7344 Q178.125,428.0781 177.7813,428.4844 Q177.2813,429.0625 176.4844,429.3906 Q175.4063,429.8438 174.1094,429.8438 Q172.5938,429.8438 171.3906,429.2188 Q170.4063,428.7188 169.7188,427.6484 Q169.0313,426.5781 169.0313,425.2969 L169.0313,424.1406 Q169.0313,422.8125 169.6484,421.6641 Q170.2656,420.5156 171.3594,419.8984 Q172.4531,419.2813 173.6875,419.2813 Q174.4219,419.2813 175.0703,419.4453 Q175.7188,419.6094 176.2656,419.9688 Z " fill="#000000"/><text fill="#000000" font-family="sans-serif" font-size="12" lengthAdjust="spacing" textLength="61" x="193.5" y="421.457">controllers.</text><text fill="#000000" font-family="sans-serif" font-size="12" lengthAdjust="spacing" textLength="73" x="187.5" y="436.5508">ExitController</text><line style="stroke:#A80036;stroke-width:1.5;" x1="159.5" x2="262.5" y1="444.1875" y2="444.1875"/><line style="stroke:#A80036;stroke-width:1.5;" x1="159.5" x2="262.5" y1="452.1875" y2="452.1875"/><!--MD5=[f85404c7f6f4e11de0322e40335fa6aa]
class SaveController--><rect codeLine="87" fill="#FEFECE" filter="url(#f1gtt0yymzmho5)" height="56.1875" id="SaveController" style="stroke:#A80036;stroke-width:1.5;" width="113" x="653.5" y="616"/><ellipse cx="668.5" cy="636.0938" fill="#ADD1B2" rx="11" ry="11" style="stroke:#A80036;stroke-width:1.0;"/><path d="M671.2656,631.9688 Q671.4219,631.75 671.6094,631.6406 Q671.7969,631.5313 672.0156,631.5313 Q672.3906,631.5313 672.625,631.7891 Q672.8594,632.0469 672.8594,632.6563 L672.8594,634.1094 Q672.8594,634.7188 672.625,634.9844 Q672.3906,635.25 672.0156,635.25 Q671.6719,635.25 671.4688,635.0469 Q671.2656,634.8594 671.1563,634.3438 Q671.1094,633.9844 670.9219,633.7969 Q670.5938,633.4219 669.9844,633.2031 Q669.375,632.9844 668.75,632.9844 Q667.9844,632.9844 667.3516,633.3125 Q666.7188,633.6406 666.2266,634.3906 Q665.7344,635.1406 665.7344,636.1719 L665.7344,637.2656 Q665.7344,638.5 666.625,639.3203 Q667.5156,640.1406 669.1094,640.1406 Q670.0469,640.1406 670.7031,639.8906 Q671.0938,639.7344 671.5156,639.2969 Q671.7813,639.0313 671.9297,638.9531 Q672.0781,638.875 672.2813,638.875 Q672.6094,638.875 672.8672,639.1328 Q673.125,639.3906 673.125,639.7344 Q673.125,640.0781 672.7813,640.4844 Q672.2813,641.0625 671.4844,641.3906 Q670.4063,641.8438 669.1094,641.8438 Q667.5938,641.8438 666.3906,641.2188 Q665.4063,640.7188 664.7188,639.6484 Q664.0313,638.5781 664.0313,637.2969 L664.0313,636.1406 Q664.0313,634.8125 664.6484,633.6641 Q665.2656,632.5156 666.3594,631.8984 Q667.4531,631.2813 668.6875,631.2813 Q669.4219,631.2813 670.0703,631.4453 Q670.7188,631.6094 671.2656,631.9688 Z " fill="#000000"/><text fill="#000000" font-family="sans-serif" font-size="12" lengthAdjust="spacing" textLength="61" x="692.5" y="633.457">controllers.</text><text fill="#000000" font-family="sans-serif" font-size="12" lengthAdjust="spacing" textLength="81" x="682.5" y="648.5508">SaveController</text><line style="stroke:#A80036;stroke-width:1.5;" x1="654.5" x2="765.5" y1="656.1875" y2="656.1875"/><line style="stroke:#A80036;stroke-width:1.5;" x1="654.5" x2="765.5" y1="664.1875" y2="664.1875"/><!--MD5=[1d7ba1c7002d54515419844fbd155368]
class Controller--><rect codeLine="88" fill="#FEFECE" filter="url(#f1gtt0yymzmho5)" height="56.1875" id="Controller" style="stroke:#A80036;stroke-width:1.5;" width="92" x="450" y="404"/><ellipse cx="465" cy="424.0938" fill="#A9DCDF" rx="11" ry="11" style="stroke:#A80036;stroke-width:1.0;"/><path d="M467.1875,425.8594 L463.0469,425.8594 L462.625,426.8906 L463.0469,426.8906 Q463.6563,426.8906 463.9219,427.125 Q464.1875,427.3594 464.1875,427.75 Q464.1875,428.125 463.9219,428.3594 Q463.6563,428.5938 463.0469,428.5938 L460.75,428.5938 Q460.1406,428.5938 459.8828,428.3594 Q459.625,428.125 459.625,427.7344 Q459.625,427.3594 459.8984,427.1172 Q460.1719,426.875 460.7969,426.8906 L463.4688,420.2344 L462.3594,420.2344 Q461.75,420.2344 461.4844,420 Q461.2188,419.7656 461.2188,419.375 Q461.2188,419 461.4844,418.7656 Q461.75,418.5313 462.3594,418.5313 L466.0313,418.5313 L469.4219,426.8906 Q470.0156,426.8906 470.2031,427.0313 Q470.5938,427.2969 470.5938,427.75 Q470.5938,428.125 470.3359,428.3594 Q470.0781,428.5938 469.4688,428.5938 L467.1719,428.5938 Q466.5625,428.5938 466.2969,428.3594 Q466.0313,428.125 466.0313,427.7344 Q466.0313,427.3594 466.2969,427.125 Q466.5625,426.8906 467.1719,426.8906 L467.5938,426.8906 L467.1875,425.8594 Z M466.4688,424.1563 L465.1094,420.7813 L463.7344,424.1563 L466.4688,424.1563 Z " fill="#000000"/><text fill="#000000" font-family="sans-serif" font-size="12" font-style="italic" lengthAdjust="spacing" textLength="60" x="479" y="421.457">controllers.</text><text fill="#000000" font-family="sans-serif" font-size="12" font-style="italic" lengthAdjust="spacing" textLength="54" x="482" y="436.5508">Controller</text><line style="stroke:#A80036;stroke-width:1.5;" x1="451" x2="541" y1="444.1875" y2="444.1875"/><line style="stroke:#A80036;stroke-width:1.5;" x1="451" x2="541" y1="452.1875" y2="452.1875"/><!--MD5=[18eee71c88ab61f27581b8cbdd3ef5ee]
class Color--><rect codeLine="89" fill="#FEFECE" filter="url(#f1gtt0yymzmho5)" height="56.1875" id="Color" style="stroke:#A80036;stroke-width:1.5;" width="64" x="813" y="818"/><ellipse cx="828" cy="838.0938" fill="#EB937F" rx="11" ry="11" style="stroke:#A80036;stroke-width:1.0;"/><path d="M826.8594,838.8906 L826.8594,841.3906 L831.1875,841.3906 L831.1875,840.4688 Q831.1875,839.8594 831.4297,839.5938 Q831.6719,839.3281 832.0469,839.3281 Q832.4219,839.3281 832.6563,839.5938 Q832.8906,839.8594 832.8906,840.4688 L832.8906,843.0938 L824.8906,843.0938 Q824.2656,843.0938 824.0078,842.8594 Q823.75,842.625 823.75,842.2344 Q823.75,841.8594 824.0156,841.625 Q824.2813,841.3906 824.8906,841.3906 L825.1563,841.3906 L825.1563,834.7344 L824.8906,834.7344 Q824.2656,834.7344 824.0078,834.5 Q823.75,834.2656 823.75,833.875 Q823.75,833.5 824.0078,833.2656 Q824.2656,833.0313 824.8906,833.0313 L832.5156,833.0313 L832.5156,835.625 Q832.5156,836.2344 832.2891,836.4922 Q832.0625,836.75 831.6719,836.75 Q831.2969,836.75 831.0625,836.4922 Q830.8281,836.2344 830.8281,835.625 L830.8281,834.7344 L826.8594,834.7344 L826.8594,837.1875 L828.3438,837.1875 Q828.3438,836.5313 828.4688,836.3438 Q828.7344,835.9375 829.2031,835.9375 Q829.5781,835.9375 829.8125,836.1953 Q830.0469,836.4531 830.0469,837.0625 L830.0469,839.0313 Q830.0469,839.5781 829.9219,839.7656 Q829.6563,840.1563 829.2031,840.1563 Q828.7344,840.1563 828.4688,839.75 Q828.3438,839.5625 828.3438,838.8906 L826.8594,838.8906 Z " fill="#000000"/><text fill="#000000" font-family="sans-serif" font-size="12" lengthAdjust="spacing" textLength="32" x="842" y="835.457">types.</text><text fill="#000000" font-family="sans-serif" font-size="12" lengthAdjust="spacing" textLength="30" x="843" y="850.5508">Color</text><line style="stroke:#A80036;stroke-width:1.5;" x1="814" x2="876" y1="858.1875" y2="858.1875"/><line style="stroke:#A80036;stroke-width:1.5;" x1="814" x2="876" y1="866.1875" y2="866.1875"/><!--MD5=[b8cfd8c4119a3b0a7a46bfc5fc780f85]
class Error--><rect codeLine="90" fill="#FEFECE" filter="url(#f1gtt0yymzmho5)" height="56.1875" id="Error" style="stroke:#A80036;stroke-width:1.5;" width="64" x="1176" y="818"/><ellipse cx="1191" cy="838.0938" fill="#EB937F" rx="11" ry="11" style="stroke:#A80036;stroke-width:1.0;"/><path d="M1189.8594,838.8906 L1189.8594,841.3906 L1194.1875,841.3906 L1194.1875,840.4688 Q1194.1875,839.8594 1194.4297,839.5938 Q1194.6719,839.3281 1195.0469,839.3281 Q1195.4219,839.3281 1195.6563,839.5938 Q1195.8906,839.8594 1195.8906,840.4688 L1195.8906,843.0938 L1187.8906,843.0938 Q1187.2656,843.0938 1187.0078,842.8594 Q1186.75,842.625 1186.75,842.2344 Q1186.75,841.8594 1187.0156,841.625 Q1187.2813,841.3906 1187.8906,841.3906 L1188.1563,841.3906 L1188.1563,834.7344 L1187.8906,834.7344 Q1187.2656,834.7344 1187.0078,834.5 Q1186.75,834.2656 1186.75,833.875 Q1186.75,833.5 1187.0078,833.2656 Q1187.2656,833.0313 1187.8906,833.0313 L1195.5156,833.0313 L1195.5156,835.625 Q1195.5156,836.2344 1195.2891,836.4922 Q1195.0625,836.75 1194.6719,836.75 Q1194.2969,836.75 1194.0625,836.4922 Q1193.8281,836.2344 1193.8281,835.625 L1193.8281,834.7344 L1189.8594,834.7344 L1189.8594,837.1875 L1191.3438,837.1875 Q1191.3438,836.5313 1191.4688,836.3438 Q1191.7344,835.9375 1192.2031,835.9375 Q1192.5781,835.9375 1192.8125,836.1953 Q1193.0469,836.4531 1193.0469,837.0625 L1193.0469,839.0313 Q1193.0469,839.5781 1192.9219,839.7656 Q1192.6563,840.1563 1192.2031,840.1563 Q1191.7344,840.1563 1191.4688,839.75 Q1191.3438,839.5625 1191.3438,838.8906 L1189.8594,838.8906 Z " fill="#000000"/><text fill="#000000" font-family="sans-serif" font-size="12" lengthAdjust="spacing" textLength="32" x="1205" y="835.457">types.</text><text fill="#000000" font-family="sans-serif" font-size="12" lengthAdjust="spacing" textLength="27" x="1207.5" y="850.5508">Error</text><line style="stroke:#A80036;stroke-width:1.5;" x1="1177" x2="1239" y1="858.1875" y2="858.1875"/><line style="stroke:#A80036;stroke-width:1.5;" x1="1177" x2="1239" y1="866.1875" y2="866.1875"/><!--MD5=[dc0500422e092c4f25e7b64adb8c025b]
link PlayerView to StartView--><path codeLine="58" d="M1363,102.14 C1363,102.14 1363,125.53 1363,136.36 " fill="none" id="PlayerView-StartView" style="stroke:#A80036;stroke-width:1.0;"/><polygon fill="#A80036" points="1363,149.6,1367,140.6,1363,144.6,1359,140.6,1363,149.6" style="stroke:#A80036;stroke-width:1.0;"/><line style="stroke:#A80036;stroke-width:1.0;" x1="1363" x2="1363" y1="144.6" y2="136.6"/><polygon fill="#A80036" points="1363,90.14,1359,96.14,1363,102.14,1367,96.14,1363,90.14" style="stroke:#A80036;stroke-width:1.0;"/><!--MD5=[6aa5591338f4cd689301f7e2cc176561]
link PlayerView to ProposeView--><path codeLine="59" d="M1316.4158,96.5663 C1316.4158,96.5663 1266.88,128.02 1243.67,142.75 " fill="none" id="PlayerView-ProposeView" style="stroke:#A80036;stroke-width:1.0;"/><polygon fill="#A80036" points="1232.56,149.81,1242.3028,148.3684,1236.7826,147.1324,1238.0186,141.6122,1232.56,149.81" style="stroke:#A80036;stroke-width:1.0;"/><line style="stroke:#A80036;stroke-width:1.0;" x1="1236.7826" x2="1243.535" y1="147.1324" y2="142.84"/><polygon fill="#A80036" points="1326.55,90.14,1319.3408,89.9751,1316.4158,96.5663,1323.625,96.7312,1326.55,90.14" style="stroke:#A80036;stroke-width:1.0;"/><!--MD5=[b95630b4bb6f21f358e9b1d68800b78a]
link PlayerView to ResumeView--><path codeLine="60" d="M1413.75,96.1093 C1413.75,96.1093 1469.65,128.18 1495.96,143.27 " fill="none" id="PlayerView-ResumeView" style="stroke:#A80036;stroke-width:1.0;"/><polygon fill="#A80036" points="1507.36,149.81,1501.5423,141.8631,1503.0225,147.3228,1497.5628,148.803,1507.36,149.81" style="stroke:#A80036;stroke-width:1.0;"/><line style="stroke:#A80036;stroke-width:1.0;" x1="1503.0225" x2="1496.085" y1="147.3228" y2="143.34"/><polygon fill="#A80036" points="1403.34,90.14,1406.5552,96.5946,1413.75,96.1093,1410.5347,89.6546,1403.34,90.14" style="stroke:#A80036;stroke-width:1.0;"/><!--MD5=[2b5890793a76472eff4c2a6a4af43287]
link StartView to BoardView--><path codeLine="61" d="M1340.04,212.28 C1327.32,229.05 1311.46,249.96 1298.25,267.38 " fill="none" id="StartView-to-BoardView" style="stroke:#A80036;stroke-width:1.0;stroke-dasharray:7.0,7.0;"/><polygon fill="#A80036" points="1294.96,271.73,1303.5791,266.9645,1297.976,267.742,1297.1984,262.1389,1294.96,271.73" style="stroke:#A80036;stroke-width:1.0;"/><!--MD5=[29c306805319960c0560bedfd82b8e40]
link ProposeView to BoardView--><path codeLine="62" d="M1206.95,212.28 C1219.11,229.05 1234.27,249.96 1246.9,267.38 " fill="none" id="ProposeView-to-BoardView" style="stroke:#A80036;stroke-width:1.0;stroke-dasharray:7.0,7.0;"/><polygon fill="#A80036" points="1250.05,271.73,1248.0035,262.0961,1247.1142,267.6826,1241.5277,266.7933,1250.05,271.73" style="stroke:#A80036;stroke-width:1.0;"/><!--MD5=[b92bc89b5449472b10f1cf1477809057]
link BoardView to ProposedCombinationView--><path codeLine="63" d="M1220.57,334.1 C1191.43,351.16 1154.6,372.71 1123.08,391.16 " fill="none" id="BoardView-to-ProposedCombinationView" style="stroke:#A80036;stroke-width:1.0;stroke-dasharray:7.0,7.0;"/><polygon fill="#A80036" points="1118.47,393.86,1128.2573,392.7601,1122.7837,391.3318,1124.2121,385.8582,1118.47,393.86" style="stroke:#A80036;stroke-width:1.0;"/><!--MD5=[15f682a315f16673a58b132a229e1ff0]
link BoardView to ResultView--><path codeLine="64" d="M1324.54,332.01 C1357.29,349.59 1400.24,372.86 1438,394 C1442.03,396.26 1446.19,398.61 1450.37,400.99 " fill="none" id="BoardView-to-ResultView" style="stroke:#A80036;stroke-width:1.0;stroke-dasharray:7.0,7.0;"/><polygon fill="#A80036" points="1454.9,403.57,1449.0563,395.6421,1450.5544,401.097,1445.0995,402.5951,1454.9,403.57" style="stroke:#A80036;stroke-width:1.0;"/><!--MD5=[02a16ebf8539d2e5d44c3be387606aac]
link BoardView to Message--><path codeLine="65" d="M1258.56,334.2 C1251.51,351.39 1243.45,373.51 1239,394 C1229.85,436.14 1224.94,483.12 1222.36,524.82 " fill="none" id="BoardView-to-Message" style="stroke:#A80036;stroke-width:1.0;stroke-dasharray:7.0,7.0;"/><polygon fill="#A80036" points="1222.06,529.87,1226.5933,521.1265,1222.3603,524.879,1218.6078,520.646,1222.06,529.87" style="stroke:#A80036;stroke-width:1.0;"/><!--MD5=[5418e21908cb409c36d98acf7a0f9cb6]
link BoardView to SecretCombinationView--><path codeLine="66" d="M1287.64,334.1 C1297.27,352.63 1309.65,376.46 1319.73,395.85 " fill="none" id="BoardView-to-SecretCombinationView" style="stroke:#A80036;stroke-width:1.0;stroke-dasharray:7.0,7.0;"/><polygon fill="#A80036" points="1322.24,400.68,1321.6546,390.8486,1319.9413,396.2397,1314.5502,394.5264,1322.24,400.68" style="stroke:#A80036;stroke-width:1.0;"/><!--MD5=[54923e7f1f8105ab44ef05f41a7d666e]
link ProposedCombinationView to ColorView--><path codeLine="67" d="M1035.06,470.06 C1015.27,506.83 985,563.09 964.4,601.38 " fill="none" id="ProposedCombinationView-to-ColorView" style="stroke:#A80036;stroke-width:1.0;stroke-dasharray:7.0,7.0;"/><polygon fill="#A80036" points="961.93,605.96,969.7059,599.9156,964.2911,601.5526,962.6541,596.1378,961.93,605.96" style="stroke:#A80036;stroke-width:1.0;"/><!--MD5=[058408ce5819f71d62d41402f2a6cc02]
link ProposedCombinationView to ErrorView--><path codeLine="68" d="M1056.59,470.06 C1058.25,508.94 1060.85,569.59 1062.49,607.77 " fill="none" id="ProposedCombinationView-to-ErrorView" style="stroke:#A80036;stroke-width:1.0;stroke-dasharray:7.0,7.0;"/><polygon fill="#A80036" points="1062.7,612.77,1066.311,603.607,1062.4859,607.7746,1058.3183,603.9495,1062.7,612.77" style="stroke:#A80036;stroke-width:1.0;"/><!--MD5=[7bf6310e2078d439bcd0e6b6dd4bf7dc]
link ProposedCombinationView to Message--><path codeLine="69" d="M1084.12,470.06 C1099.31,489.4 1118.74,514.12 1138.12,538.78 " fill="none" id="ProposedCombinationView-to-Message" style="stroke:#A80036;stroke-width:1.0;stroke-dasharray:7.0,7.0;"/><polygon fill="#A80036" points="1141.23,542.74,1138.8164,533.1915,1138.1415,538.8079,1132.5251,538.133,1141.23,542.74" style="stroke:#A80036;stroke-width:1.0;"/><!--MD5=[0e5df9184d8007a1cb9785d3f6966635]
link ResultView to Message--><path codeLine="70" d="M1461.6,463.09 C1420.33,493.82 1355.09,542.4 1302.79,581.34 " fill="none" id="ResultView-to-Message" style="stroke:#A80036;stroke-width:1.0;stroke-dasharray:7.0,7.0;"/><polygon fill="#A80036" points="1298.73,584.37,1308.3387,582.2084,1302.742,581.386,1303.5643,575.7893,1298.73,584.37" style="stroke:#A80036;stroke-width:1.0;"/><!--MD5=[97e9ace985d716348ec86012fc7f7728]
link StartView to Message--><path codeLine="71" d="M1425.69,207.52 C1456.99,222.66 1493.7,244.34 1520,272 C1583.54,338.82 1631.18,391.99 1582,470 C1521.27,566.34 1390.46,610.18 1303.85,629.29 " fill="none" id="StartView-to-Message" style="stroke:#A80036;stroke-width:1.0;stroke-dasharray:7.0,7.0;"/><polygon fill="#A80036" points="1298.73,630.41,1308.3724,632.4162,1303.6169,629.3526,1306.6805,624.5971,1298.73,630.41" style="stroke:#A80036;stroke-width:1.0;"/><!--MD5=[91198d1c12ec6e73a40fb6837ae56756]
link ResumeView to Message--><path codeLine="72" d="M1576.47,212.15 C1604.45,267.87 1653.38,388.69 1601,470 C1535.65,571.44 1394.7,614.08 1303.77,631.51 " fill="none" id="ResumeView-to-Message" style="stroke:#A80036;stroke-width:1.0;stroke-dasharray:7.0,7.0;"/><polygon fill="#A80036" points="1298.66,632.47,1308.2462,634.7294,1303.5731,631.5417,1306.7608,626.8685,1298.66,632.47" style="stroke:#A80036;stroke-width:1.0;"/><!--MD5=[9c3c49d2c46e41492ade90d337e2ed2e]
link ProposeView to MenuView--><path codeLine="73" d="M1104.81,210.9 C1044.47,232.64 963.23,261.92 909.31,281.35 " fill="none" id="ProposeView-to-MenuView" style="stroke:#A80036;stroke-width:1.0;stroke-dasharray:7.0,7.0;"/><polygon fill="#A80036" points="904.5,283.08,914.3239,283.7803,909.2019,281.3793,911.6028,276.2573,904.5,283.08" style="stroke:#A80036;stroke-width:1.0;"/><!--MD5=[5edb36716a4c6fb9b73ccdfe060f2d05]
link MenuView to ProposedCombinationView--><path codeLine="74" d="M900.11,334.1 C927.38,351.16 961.83,372.71 991.31,391.16 " fill="none" id="MenuView-to-ProposedCombinationView" style="stroke:#A80036;stroke-width:1.0;stroke-dasharray:7.0,7.0;"/><polygon fill="#A80036" points="995.63,393.86,990.1254,385.693,991.3924,391.2062,985.8793,392.4732,995.63,393.86" style="stroke:#A80036;stroke-width:1.0;"/><!--MD5=[2af68b46eeb5c2e46543eeb7557d9936]
link ProposeView to Message--><path codeLine="75" d="M1187.3,212.25 C1192.02,274.5 1203.06,419.86 1211,524.52 " fill="none" id="ProposeView-to-Message" style="stroke:#A80036;stroke-width:1.0;stroke-dasharray:7.0,7.0;"/><polygon fill="#A80036" points="1211.4,529.78,1214.7203,520.5077,1211.0285,524.7938,1206.7424,521.102,1211.4,529.78" style="stroke:#A80036;stroke-width:1.0;"/><!--MD5=[4a38f4f2d325dcf949b76ae414e31a86]
link StartView to OpenView--><path codeLine="76" d="M1380.16,212.28 C1389.58,228.91 1401.31,249.61 1411.13,266.94 " fill="none" id="StartView-to-OpenView" style="stroke:#A80036;stroke-width:1.0;stroke-dasharray:7.0,7.0;"/><polygon fill="#A80036" points="1413.85,271.73,1412.8995,261.9271,1411.3878,267.3783,1405.9367,265.8666,1413.85,271.73" style="stroke:#A80036;stroke-width:1.0;"/><!--MD5=[180b52c490093b4c0d241db72898955b]
link OpenView to Message--><path codeLine="77" d="M1502.08,333.46 C1527.28,347.78 1552.86,367.69 1567,394 C1582.99,423.75 1584.77,441.28 1567,470 C1509.78,562.46 1386.62,607.12 1303.51,627.49 " fill="none" id="OpenView-to-Message" style="stroke:#A80036;stroke-width:1.0;stroke-dasharray:7.0,7.0;"/><polygon fill="#A80036" points="1298.59,628.67,1308.277,630.4484,1303.4506,627.4977,1306.4013,622.6714,1298.59,628.67" style="stroke:#A80036;stroke-width:1.0;"/><!--MD5=[03d51df82c773ffb87e719fb137cf12c]
link SaveView to Message--><path codeLine="78" d="M928.65,462.88 C934.49,465.36 940.33,467.77 946,470 C1023.7,500.54 1054.9,483.15 1124,530 C1128.57,533.1 1133.04,536.47 1137.41,540.04 " fill="none" id="SaveView-to-Message" style="stroke:#A80036;stroke-width:1.0;stroke-dasharray:7.0,7.0;"/><polygon fill="#A80036" points="1141.39,543.39,1137.0691,534.5396,1137.5606,540.175,1131.9252,540.6666,1141.39,543.39" style="stroke:#A80036;stroke-width:1.0;"/><!--MD5=[4b21c71922f6b938a01287b262bac1e8]
link ResumeView to ResumeController--><path codeLine="92" d="M1659.52,206.6 C1726.46,223.67 1816.49,247.64 1895,272 C1899.28,273.33 1903.67,274.73 1908.08,276.19 " fill="none" id="ResumeView-to-ResumeController" style="stroke:#A80036;stroke-width:1.0;"/><polygon fill="#A80036" points="1912.88,277.78,1905.5948,271.1524,1908.1337,276.2074,1903.0787,278.7464,1912.88,277.78" style="stroke:#A80036;stroke-width:1.0;"/><!--MD5=[3ad0bd69ff7a093d2131bc46b011fe78]
link StartView to StartController--><path codeLine="93" d="M1425.57,206.54 C1431.42,208.51 1437.3,210.36 1443,212 C1572.03,249.02 1609.76,235.75 1739,272 C1746.19,274.02 1753.65,276.35 1761.02,278.82 " fill="none" id="StartView-to-StartController" style="stroke:#A80036;stroke-width:1.0;"/><polygon fill="#A80036" points="1766.11,280.54,1758.8669,273.8664,1761.3738,278.9374,1756.3027,281.4443,1766.11,280.54" style="stroke:#A80036;stroke-width:1.0;"/><!--MD5=[29fcc52e6d71b3dd4a5f09442a1139e9]
link ProposeView to ProposeController--><path codeLine="94" d="M1265.13,206.88 C1271.17,208.65 1277.17,210.37 1283,212 C1387.65,241.24 1431.77,208.58 1520,272 C1644.7,361.63 1720.64,538.34 1747.73,610.83 " fill="none" id="ProposeView-to-ProposeController" style="stroke:#A80036;stroke-width:1.0;"/><polygon fill="#A80036" points="1749.6,615.86,1750.2115,606.0301,1747.8569,611.1737,1742.7134,608.8191,1749.6,615.86" style="stroke:#A80036;stroke-width:1.0;"/><!--MD5=[1c72537bfbab1e04487289dc6e74ec01]
link MenuView to UndoController--><path codeLine="95" d="M799.47,310.99 C718.83,322.66 560.37,349.36 432,394 C425.55,396.24 418.94,398.91 412.45,401.77 " fill="none" id="MenuView-to-UndoController" style="stroke:#A80036;stroke-width:1.0;stroke-dasharray:7.0,7.0;"/><polygon fill="#A80036" points="407.51,403.99,417.3587,403.9329,412.0672,401.9328,414.0672,396.6413,407.51,403.99" style="stroke:#A80036;stroke-width:1.0;"/><!--MD5=[4f7e4785f4e485ec5d042c9275bf79a2]
link MenuView to RedoController--><path codeLine="96" d="M799.05,304.84 C679.3,307.99 379.49,322.96 141,394 C133.92,396.11 126.68,398.82 119.62,401.82 " fill="none" id="MenuView-to-RedoController" style="stroke:#A80036;stroke-width:1.0;stroke-dasharray:7.0,7.0;"/><polygon fill="#A80036" points="114.76,403.93,124.6086,403.9985,119.3431,401.9312,121.4105,396.6656,114.76,403.93" style="stroke:#A80036;stroke-width:1.0;"/><!--MD5=[e3472d34888c576c4bdcfb4b35a51dcb]
link BoardView to Controller--><path codeLine="97" d="M1219.26,308.41 C1077.56,320.62 691.1,356.47 569,394 C561.72,396.24 554.28,399.16 547.08,402.39 " fill="none" id="BoardView-to-Controller" style="stroke:#A80036;stroke-width:1.0;"/><polygon fill="#A80036" points="542.13,404.66,551.9778,404.5144,546.6685,402.562,548.621,397.2528,542.13,404.66" style="stroke:#A80036;stroke-width:1.0;"/><!--MD5=[84218aafa7a878c97f717d9c345cf5ad]
link ProposedCombinationView to ProposeController--><path codeLine="98" d="M1146.51,452.57 C1175.97,458.55 1208.8,464.9 1239,470 C1432.3,502.67 1507.54,429.73 1676,530 C1707.64,548.83 1730.86,584.85 1744.57,611.18 " fill="none" id="ProposedCombinationView-to-ProposeController" style="stroke:#A80036;stroke-width:1.0;stroke-dasharray:7.0,7.0;"/><polygon fill="#A80036" points="1746.86,615.65,1746.3374,605.815,1744.5897,611.1951,1739.2096,609.4474,1746.86,615.65" style="stroke:#A80036;stroke-width:1.0;"/><!--MD5=[12f03c7f5abb6c3e068862197d6139ed]
link BoardView to Color--><path codeLine="99" d="M1219.41,309.49 C1069.48,325.37 649.4,371.69 630,394 C603.01,425.03 529.52,641.53 636,782 C656.79,809.43 753.3,829.65 807.61,839.08 " fill="none" id="BoardView-to-Color" style="stroke:#A80036;stroke-width:1.0;stroke-dasharray:7.0,7.0;"/><polygon fill="#A80036" points="812.73,839.96,804.5331,834.5001,807.8015,839.1172,803.1845,842.3857,812.73,839.96" style="stroke:#A80036;stroke-width:1.0;"/><!--MD5=[644d3bda32b13afd96f2f5d418a902c1]
link ProposedCombinationView to Color--><path codeLine="100" d="M963.1,464.21 C932.17,479.29 900.57,500.65 881,530 C822.2,618.2 831.49,751.97 839.71,812.83 " fill="none" id="ProposedCombinationView-to-Color" style="stroke:#A80036;stroke-width:1.0;stroke-dasharray:7.0,7.0;"/><polygon fill="#A80036" points="840.4,817.78,843.1253,808.3157,839.7129,812.8274,835.2012,809.415,840.4,817.78" style="stroke:#A80036;stroke-width:1.0;"/><!--MD5=[3c978e882819d5791a3d8cfa6d73d565]
link ColorView to Color--><path codeLine="101" d="M923.98,682.15 C905.68,719.88 877.65,777.69 860.37,813.32 " fill="none" id="ColorView-to-Color" style="stroke:#A80036;stroke-width:1.0;stroke-dasharray:7.0,7.0;"/><polygon fill="#A80036" points="858.1,817.98,865.6302,811.632,860.2845,813.4825,858.4341,808.1368,858.1,817.98" style="stroke:#A80036;stroke-width:1.0;"/><!--MD5=[974176bb14ab9e9584f1ed513689e2fc]
link ProposedCombinationView to Error--><path codeLine="102" d="M1146.65,455.19 C1213.52,473.46 1295.82,500.98 1316,530 C1379.93,621.96 1371.78,684.88 1316,782 C1300.85,808.38 1269.91,824.76 1245.02,834.18 " fill="none" id="ProposedCombinationView-to-Error" style="stroke:#A80036;stroke-width:1.0;stroke-dasharray:7.0,7.0;"/><polygon fill="#A80036" points="1240.13,835.97,1249.9575,836.6176,1244.8227,834.2441,1247.1961,829.1093,1240.13,835.97" style="stroke:#A80036;stroke-width:1.0;"/><!--MD5=[c28bfbb7d004595976dc4ffd1e61d7e5]
link OpenView to OpenController--><path codeLine="103" d="M1359.98,329.46 C1353.94,331.16 1347.89,332.71 1342,334 C1097.94,387.56 1023.32,325.56 783,394 C775.7,396.08 768.24,398.81 760.98,401.84 " fill="none" id="OpenView-to-OpenController" style="stroke:#A80036;stroke-width:1.0;stroke-dasharray:7.0,7.0;"/><polygon fill="#A80036" points="755.98,403.98,765.828,404.1113,760.5757,402.0104,762.6766,396.7581,755.98,403.98" style="stroke:#A80036;stroke-width:1.0;"/><!--MD5=[e067ccc00e917b2dc2de08ea966bf1ed]
link MenuView to ExitController--><path codeLine="104" d="M799.46,306.51 C697.19,312.64 465.25,332.68 281,394 C274.66,396.11 268.2,398.75 261.9,401.65 " fill="none" id="MenuView-to-ExitController" style="stroke:#A80036;stroke-width:1.0;stroke-dasharray:7.0,7.0;"/><polygon fill="#A80036" points="257.12,403.91,266.9661,403.6762,261.6396,401.7714,263.5443,396.4449,257.12,403.91" style="stroke:#A80036;stroke-width:1.0;"/><!--MD5=[86870cdabd6f68629f04aeac36e6c4ff]
link ErrorView to Error--><path codeLine="105" d="M1072.27,675.16 C1081.42,704.63 1098.36,749.64 1124,782 C1136.93,798.33 1155.06,812.63 1171.16,823.46 " fill="none" id="ErrorView-to-Error" style="stroke:#A80036;stroke-width:1.0;stroke-dasharray:7.0,7.0;"/><polygon fill="#A80036" points="1175.64,826.42,1170.3374,818.1204,1171.4688,823.663,1165.9262,824.7944,1175.64,826.42" style="stroke:#A80036;stroke-width:1.0;"/><!--MD5=[0ed76daaaa8eb9a2c7db88a82d6377c4]
link SaveView to SaveController--><path codeLine="106" d="M837.11,463.24 C820.85,482 800.04,506.86 783,530 C763.4,556.62 743.15,588.36 728.97,611.41 " fill="none" id="SaveView-to-SaveController" style="stroke:#A80036;stroke-width:1.0;stroke-dasharray:7.0,7.0;"/><polygon fill="#A80036" points="726.22,615.9,734.3383,610.3239,728.8365,611.6393,727.5211,606.1375,726.22,615.9" style="stroke:#A80036;stroke-width:1.0;"/><!--MD5=[add452e61ed2c0c495073ddc0556df7e]
@startuml mastermind_analisis_views
package views {
    class PlayerView
    class StartView {
        ~ start(StartController)
    }
    class ProposeView {
        ~ propose(ProposeController)
    }
    class ResumeView {
        ~ resume(ResumeController): boolean
    }
    class BoardView {
        ~ write(Controller)
    }
    class MenuView {
        ~ write(Controller)
    }
    class ProposedCombinationView {
        ~ write(ProposeController)
        ~ read(): List<Color>
    }
    class SecretCombinationView {
        ~ write()
    }
    class ResultView {
        ~ write(int, int)
    }
    class ColorView {
        ~ write(Color)
        ~ read(): Color
    }
    enum Message {
        + TITLE
        + SECRET_COMBINATION
        + ATTEMPTS
        + RESULT
        + PROPOSED_COMBINATION
        + WINNER
        + LOOSER
        + RESUME
        + OPEN
        + SAVE
        ~ write()
        ~ write(int)
        ~ write(int, int)
    }
    class ErrorView {
        ~ write(Error)
    }
    class SaveView {
        ~ save(SaveController)
    }
    class OpenView {
        ~ interact(OpenController)
    }
}

PlayerView *-down-> StartView
PlayerView *-down-> ProposeView
PlayerView *-down-> ResumeView
StartView .down.> BoardView
ProposeView .down.> BoardView
BoardView .down.> ProposedCombinationView
BoardView .down.> ResultView
BoardView .down.> Message
BoardView .down.> SecretCombinationView
ProposedCombinationView .down.> ColorView
ProposedCombinationView .down.> ErrorView
ProposedCombinationView .down.> Message
ResultView .down.> Message
StartView .down.> Message
ResumeView .down.> Message
ProposeView .down.> MenuView
MenuView .down.> ProposedCombinationView
ProposeView .down.> Message
StartView .down.> OpenView
OpenView .down.> Message
SaveView .down.> Message

class "controllers.\nProposeController" as ProposeController
class "controllers.\nStartController" as StartController
class "controllers.\nResumeController" as ResumeController
class "controllers.\nUndoController" as UndoController
class "controllers.\nRedoController" as RedoController
class "controllers.\nOpenController" as OpenController
class "controllers.\nExitController" as ExitController
class "controllers.\nSaveController" as SaveController
abstract class "controllers.\nController" as Controller
enum "types.\nColor" as Color
enum "types.\nError" as Error

ResumeView -down-> ResumeController
StartView -down-> StartController
ProposeView -down-> ProposeController
MenuView .down.> UndoController
MenuView .down.> RedoController
BoardView -down-> Controller
ProposedCombinationView .down.> ProposeController
BoardView .down.> Color
ProposedCombinationView .down.> Color
ColorView .down.> Color
ProposedCombinationView .down.> Error
OpenView .down.> OpenController
MenuView .down.> ExitController
ErrorView .down.> Error
SaveView .down.> SaveController
@enduml

PlantUML version 1.2021.00(Sun Jan 10 11:25:05 CET 2021)
(GPL source distribution)
Java Runtime: Java(TM) SE Runtime Environment
JVM: Java HotSpot(TM) 64-Bit Server VM
Default Encoding: Cp1252
Language: es
Country: ES
--></g></svg>