<?xml version="1.0" encoding="UTF-8" standalone="no"?><svg xmlns="http://www.w3.org/2000/svg" xmlns:xlink="http://www.w3.org/1999/xlink" contentScriptType="application/ecmascript" contentStyleType="text/css" height="602px" preserveAspectRatio="none" style="width:2069px;height:602px;" version="1.1" viewBox="0 0 2069 602" width="2069px" zoomAndPan="magnify"><defs><filter height="300%" id="f1w3ytag5tv5kv" width="300%" x="-1" y="-1"><feGaussianBlur result="blurOut" stdDeviation="2.0"/><feColorMatrix in="blurOut" result="blurOut2" type="matrix" values="0 0 0 0 0 0 0 0 0 0 0 0 0 0 0 0 0 0 .4 0"/><feOffset dx="4.0" dy="4.0" in="blurOut2" result="blurOut3"/><feBlend in="SourceGraphic" in2="blurOut3" mode="normal"/></filter></defs><g><!--MD5=[f4e70ef68289585296b9045165e58692]
cluster controllers--><polygon fill="#FFFFFF" filter="url(#f1w3ytag5tv5kv)" points="16,6,99,6,106,29.6094,1960,29.6094,1960,488,16,488,16,6" style="stroke:#000000;stroke-width:1.5;"/><line style="stroke:#000000;stroke-width:1.5;" x1="16" x2="106" y1="29.6094" y2="29.6094"/><text fill="#000000" font-family="sans-serif" font-size="14" font-weight="bold" lengthAdjust="spacing" textLength="77" x="20" y="22.5332">controllers</text><!--MD5=[1d7ba1c7002d54515419844fbd155368]
class Controller--><rect codeLine="2" fill="#FEFECE" filter="url(#f1w3ytag5tv5kv)" height="48" id="Controller" style="stroke:#A80036;stroke-width:1.5;" width="86" x="1113" y="42"/><ellipse cx="1128" cy="58" fill="#A9DCDF" rx="11" ry="11" style="stroke:#A80036;stroke-width:1.0;"/><path d="M1130.1875,59.7656 L1126.0469,59.7656 L1125.625,60.7969 L1126.0469,60.7969 Q1126.6563,60.7969 1126.9219,61.0313 Q1127.1875,61.2656 1127.1875,61.6563 Q1127.1875,62.0313 1126.9219,62.2656 Q1126.6563,62.5 1126.0469,62.5 L1123.75,62.5 Q1123.1406,62.5 1122.8828,62.2656 Q1122.625,62.0313 1122.625,61.6406 Q1122.625,61.2656 1122.8984,61.0234 Q1123.1719,60.7813 1123.7969,60.7969 L1126.4688,54.1406 L1125.3594,54.1406 Q1124.75,54.1406 1124.4844,53.9063 Q1124.2188,53.6719 1124.2188,53.2813 Q1124.2188,52.9063 1124.4844,52.6719 Q1124.75,52.4375 1125.3594,52.4375 L1129.0313,52.4375 L1132.4219,60.7969 Q1133.0156,60.7969 1133.2031,60.9375 Q1133.5938,61.2031 1133.5938,61.6563 Q1133.5938,62.0313 1133.3359,62.2656 Q1133.0781,62.5 1132.4688,62.5 L1130.1719,62.5 Q1129.5625,62.5 1129.2969,62.2656 Q1129.0313,62.0313 1129.0313,61.6406 Q1129.0313,61.2656 1129.2969,61.0313 Q1129.5625,60.7969 1130.1719,60.7969 L1130.5938,60.7969 L1130.1875,59.7656 Z M1129.4688,58.0625 L1128.1094,54.6875 L1126.7344,58.0625 L1129.4688,58.0625 Z " fill="#000000"/><text fill="#000000" font-family="sans-serif" font-size="12" font-style="italic" lengthAdjust="spacing" textLength="54" x="1142" y="62.9102">Controller</text><line style="stroke:#A80036;stroke-width:1.5;" x1="1114" x2="1198" y1="74" y2="74"/><line style="stroke:#A80036;stroke-width:1.5;" x1="1114" x2="1198" y1="82" y2="82"/><!--MD5=[47c371471411cfedeee61b1a5bdaee47]
class StartController--><rect codeLine="3" fill="#FEFECE" filter="url(#f1w3ytag5tv5kv)" height="103.3438" id="StartController" style="stroke:#A80036;stroke-width:1.5;" width="255" x="1110.5" y="178"/><ellipse cx="1194.25" cy="194" fill="#ADD1B2" rx="11" ry="11" style="stroke:#A80036;stroke-width:1.0;"/><path d="M1197.0156,189.875 Q1197.1719,189.6563 1197.3594,189.5469 Q1197.5469,189.4375 1197.7656,189.4375 Q1198.1406,189.4375 1198.375,189.6953 Q1198.6094,189.9531 1198.6094,190.5625 L1198.6094,192.0156 Q1198.6094,192.625 1198.375,192.8906 Q1198.1406,193.1563 1197.7656,193.1563 Q1197.4219,193.1563 1197.2188,192.9531 Q1197.0156,192.7656 1196.9063,192.25 Q1196.8594,191.8906 1196.6719,191.7031 Q1196.3438,191.3281 1195.7344,191.1094 Q1195.125,190.8906 1194.5,190.8906 Q1193.7344,190.8906 1193.1016,191.2188 Q1192.4688,191.5469 1191.9766,192.2969 Q1191.4844,193.0469 1191.4844,194.0781 L1191.4844,195.1719 Q1191.4844,196.4063 1192.375,197.2266 Q1193.2656,198.0469 1194.8594,198.0469 Q1195.7969,198.0469 1196.4531,197.7969 Q1196.8438,197.6406 1197.2656,197.2031 Q1197.5313,196.9375 1197.6797,196.8594 Q1197.8281,196.7813 1198.0313,196.7813 Q1198.3594,196.7813 1198.6172,197.0391 Q1198.875,197.2969 1198.875,197.6406 Q1198.875,197.9844 1198.5313,198.3906 Q1198.0313,198.9688 1197.2344,199.2969 Q1196.1563,199.75 1194.8594,199.75 Q1193.3438,199.75 1192.1406,199.125 Q1191.1563,198.625 1190.4688,197.5547 Q1189.7813,196.4844 1189.7813,195.2031 L1189.7813,194.0469 Q1189.7813,192.7188 1190.3984,191.5703 Q1191.0156,190.4219 1192.1094,189.8047 Q1193.2031,189.1875 1194.4375,189.1875 Q1195.1719,189.1875 1195.8203,189.3516 Q1196.4688,189.5156 1197.0156,189.875 Z " fill="#000000"/><text fill="#000000" font-family="sans-serif" font-size="12" lengthAdjust="spacing" textLength="79" x="1214.75" y="198.9102">StartController</text><line style="stroke:#A80036;stroke-width:1.5;" x1="1111.5" x2="1364.5" y1="210" y2="210"/><line style="stroke:#A80036;stroke-width:1.5;" x1="1111.5" x2="1364.5" y1="218" y2="218"/><ellipse cx="1121.5" cy="229" fill="#84BE84" rx="3" ry="3" style="stroke:#038048;stroke-width:1.0;"/><text fill="#000000" font-family="sans-serif" font-size="11" lengthAdjust="spacing" textLength="83" x="1130.5" y="233.4189">getAttempts(): int</text><ellipse cx="1121.5" cy="242.8359" fill="#84BE84" rx="3" ry="3" style="stroke:#038048;stroke-width:1.0;"/><text fill="#000000" font-family="sans-serif" font-size="11" lengthAdjust="spacing" textLength="229" x="1130.5" y="247.2549">getProposedCombinationColors(int): List&lt;Color&gt;</text><ellipse cx="1121.5" cy="256.6719" fill="#84BE84" rx="3" ry="3" style="stroke:#038048;stroke-width:1.0;"/><text fill="#000000" font-family="sans-serif" font-size="11" lengthAdjust="spacing" textLength="83" x="1130.5" y="261.0908">getBlacks(int): int</text><ellipse cx="1121.5" cy="270.5078" fill="#84BE84" rx="3" ry="3" style="stroke:#038048;stroke-width:1.0;"/><text fill="#000000" font-family="sans-serif" font-size="11" lengthAdjust="spacing" textLength="84" x="1130.5" y="274.9268">getWhites(int): int</text><!--MD5=[0b95e4ee8b160a2b3b0650a9b235c496]
class ProposeController--><rect codeLine="9" fill="#FEFECE" filter="url(#f1w3ytag5tv5kv)" height="158.6875" id="ProposeController" style="stroke:#A80036;stroke-width:1.5;" width="255" x="1400.5" y="150"/><ellipse cx="1473.25" cy="166" fill="#ADD1B2" rx="11" ry="11" style="stroke:#A80036;stroke-width:1.0;"/><path d="M1476.0156,161.875 Q1476.1719,161.6563 1476.3594,161.5469 Q1476.5469,161.4375 1476.7656,161.4375 Q1477.1406,161.4375 1477.375,161.6953 Q1477.6094,161.9531 1477.6094,162.5625 L1477.6094,164.0156 Q1477.6094,164.625 1477.375,164.8906 Q1477.1406,165.1563 1476.7656,165.1563 Q1476.4219,165.1563 1476.2188,164.9531 Q1476.0156,164.7656 1475.9063,164.25 Q1475.8594,163.8906 1475.6719,163.7031 Q1475.3438,163.3281 1474.7344,163.1094 Q1474.125,162.8906 1473.5,162.8906 Q1472.7344,162.8906 1472.1016,163.2188 Q1471.4688,163.5469 1470.9766,164.2969 Q1470.4844,165.0469 1470.4844,166.0781 L1470.4844,167.1719 Q1470.4844,168.4063 1471.375,169.2266 Q1472.2656,170.0469 1473.8594,170.0469 Q1474.7969,170.0469 1475.4531,169.7969 Q1475.8438,169.6406 1476.2656,169.2031 Q1476.5313,168.9375 1476.6797,168.8594 Q1476.8281,168.7813 1477.0313,168.7813 Q1477.3594,168.7813 1477.6172,169.0391 Q1477.875,169.2969 1477.875,169.6406 Q1477.875,169.9844 1477.5313,170.3906 Q1477.0313,170.9688 1476.2344,171.2969 Q1475.1563,171.75 1473.8594,171.75 Q1472.3438,171.75 1471.1406,171.125 Q1470.1563,170.625 1469.4688,169.5547 Q1468.7813,168.4844 1468.7813,167.2031 L1468.7813,166.0469 Q1468.7813,164.7188 1469.3984,163.5703 Q1470.0156,162.4219 1471.1094,161.8047 Q1472.2031,161.1875 1473.4375,161.1875 Q1474.1719,161.1875 1474.8203,161.3516 Q1475.4688,161.5156 1476.0156,161.875 Z " fill="#000000"/><text fill="#000000" font-family="sans-serif" font-size="12" lengthAdjust="spacing" textLength="101" x="1493.75" y="170.9102">ProposeController</text><line style="stroke:#A80036;stroke-width:1.5;" x1="1401.5" x2="1654.5" y1="182" y2="182"/><line style="stroke:#A80036;stroke-width:1.5;" x1="1401.5" x2="1654.5" y1="190" y2="190"/><ellipse cx="1411.5" cy="201" fill="#84BE84" rx="3" ry="3" style="stroke:#038048;stroke-width:1.0;"/><text fill="#000000" font-family="sans-serif" font-size="11" lengthAdjust="spacing" textLength="131" x="1420.5" y="205.4189">getError(List&lt;Color&gt;): Error</text><ellipse cx="1411.5" cy="214.8359" fill="#84BE84" rx="3" ry="3" style="stroke:#038048;stroke-width:1.0;"/><text fill="#000000" font-family="sans-serif" font-size="11" lengthAdjust="spacing" textLength="80" x="1420.5" y="219.2549">add(List&lt;Color&gt;)</text><ellipse cx="1411.5" cy="228.6719" fill="#84BE84" rx="3" ry="3" style="stroke:#038048;stroke-width:1.0;"/><text fill="#000000" font-family="sans-serif" font-size="11" lengthAdjust="spacing" textLength="100" x="1420.5" y="233.0908">isFinished(): boolean</text><ellipse cx="1411.5" cy="242.5078" fill="#84BE84" rx="3" ry="3" style="stroke:#038048;stroke-width:1.0;"/><text fill="#000000" font-family="sans-serif" font-size="11" lengthAdjust="spacing" textLength="94" x="1420.5" y="246.9268">isWinner(): boolean</text><ellipse cx="1411.5" cy="256.3438" fill="#84BE84" rx="3" ry="3" style="stroke:#038048;stroke-width:1.0;"/><text fill="#000000" font-family="sans-serif" font-size="11" lengthAdjust="spacing" textLength="83" x="1420.5" y="260.7627">getAttempts(): int</text><ellipse cx="1411.5" cy="270.1797" fill="#84BE84" rx="3" ry="3" style="stroke:#038048;stroke-width:1.0;"/><text fill="#000000" font-family="sans-serif" font-size="11" lengthAdjust="spacing" textLength="229" x="1420.5" y="274.5986">getProposedCombinationColors(int): List&lt;Color&gt;</text><ellipse cx="1411.5" cy="284.0156" fill="#84BE84" rx="3" ry="3" style="stroke:#038048;stroke-width:1.0;"/><text fill="#000000" font-family="sans-serif" font-size="11" lengthAdjust="spacing" textLength="83" x="1420.5" y="288.4346">getBlacks(int): int</text><ellipse cx="1411.5" cy="297.8516" fill="#84BE84" rx="3" ry="3" style="stroke:#038048;stroke-width:1.0;"/><text fill="#000000" font-family="sans-serif" font-size="11" lengthAdjust="spacing" textLength="84" x="1420.5" y="302.2705">getWhites(int): int</text><!--MD5=[1a47bbf44ccee225df9b18c5b6629853]
class ResumeController--><rect codeLine="19" fill="#FEFECE" filter="url(#f1w3ytag5tv5kv)" height="61.8359" id="ResumeController" style="stroke:#A80036;stroke-width:1.5;" width="134" x="613" y="198.5"/><ellipse cx="628" cy="214.5" fill="#ADD1B2" rx="11" ry="11" style="stroke:#A80036;stroke-width:1.0;"/><path d="M630.7656,210.375 Q630.9219,210.1563 631.1094,210.0469 Q631.2969,209.9375 631.5156,209.9375 Q631.8906,209.9375 632.125,210.1953 Q632.3594,210.4531 632.3594,211.0625 L632.3594,212.5156 Q632.3594,213.125 632.125,213.3906 Q631.8906,213.6563 631.5156,213.6563 Q631.1719,213.6563 630.9688,213.4531 Q630.7656,213.2656 630.6563,212.75 Q630.6094,212.3906 630.4219,212.2031 Q630.0938,211.8281 629.4844,211.6094 Q628.875,211.3906 628.25,211.3906 Q627.4844,211.3906 626.8516,211.7188 Q626.2188,212.0469 625.7266,212.7969 Q625.2344,213.5469 625.2344,214.5781 L625.2344,215.6719 Q625.2344,216.9063 626.125,217.7266 Q627.0156,218.5469 628.6094,218.5469 Q629.5469,218.5469 630.2031,218.2969 Q630.5938,218.1406 631.0156,217.7031 Q631.2813,217.4375 631.4297,217.3594 Q631.5781,217.2813 631.7813,217.2813 Q632.1094,217.2813 632.3672,217.5391 Q632.625,217.7969 632.625,218.1406 Q632.625,218.4844 632.2813,218.8906 Q631.7813,219.4688 630.9844,219.7969 Q629.9063,220.25 628.6094,220.25 Q627.0938,220.25 625.8906,219.625 Q624.9063,219.125 624.2188,218.0547 Q623.5313,216.9844 623.5313,215.7031 L623.5313,214.5469 Q623.5313,213.2188 624.1484,212.0703 Q624.7656,210.9219 625.8594,210.3047 Q626.9531,209.6875 628.1875,209.6875 Q628.9219,209.6875 629.5703,209.8516 Q630.2188,210.0156 630.7656,210.375 Z " fill="#000000"/><text fill="#000000" font-family="sans-serif" font-size="12" lengthAdjust="spacing" textLength="102" x="642" y="219.4102">ResumeController</text><line style="stroke:#A80036;stroke-width:1.5;" x1="614" x2="746" y1="230.5" y2="230.5"/><line style="stroke:#A80036;stroke-width:1.5;" x1="614" x2="746" y1="238.5" y2="238.5"/><ellipse cx="624" cy="249.5" fill="#84BE84" rx="3" ry="3" style="stroke:#038048;stroke-width:1.0;"/><text fill="#000000" font-family="sans-serif" font-size="11" lengthAdjust="spacing" textLength="33" x="633" y="253.9189">reset()</text><!--MD5=[ad55c02b6d743eec4828d3c9f4ddad4a]
class ShowBoardController--><rect codeLine="22" fill="#FEFECE" filter="url(#f1w3ytag5tv5kv)" height="103.3438" id="ShowBoardController" style="stroke:#A80036;stroke-width:1.5;" width="255" x="937.5" y="369"/><ellipse cx="1001.75" cy="385" fill="#ADD1B2" rx="11" ry="11" style="stroke:#A80036;stroke-width:1.0;"/><path d="M1004.5156,380.875 Q1004.6719,380.6563 1004.8594,380.5469 Q1005.0469,380.4375 1005.2656,380.4375 Q1005.6406,380.4375 1005.875,380.6953 Q1006.1094,380.9531 1006.1094,381.5625 L1006.1094,383.0156 Q1006.1094,383.625 1005.875,383.8906 Q1005.6406,384.1563 1005.2656,384.1563 Q1004.9219,384.1563 1004.7188,383.9531 Q1004.5156,383.7656 1004.4063,383.25 Q1004.3594,382.8906 1004.1719,382.7031 Q1003.8438,382.3281 1003.2344,382.1094 Q1002.625,381.8906 1002,381.8906 Q1001.2344,381.8906 1000.6016,382.2188 Q999.9688,382.5469 999.4766,383.2969 Q998.9844,384.0469 998.9844,385.0781 L998.9844,386.1719 Q998.9844,387.4063 999.875,388.2266 Q1000.7656,389.0469 1002.3594,389.0469 Q1003.2969,389.0469 1003.9531,388.7969 Q1004.3438,388.6406 1004.7656,388.2031 Q1005.0313,387.9375 1005.1797,387.8594 Q1005.3281,387.7813 1005.5313,387.7813 Q1005.8594,387.7813 1006.1172,388.0391 Q1006.375,388.2969 1006.375,388.6406 Q1006.375,388.9844 1006.0313,389.3906 Q1005.5313,389.9688 1004.7344,390.2969 Q1003.6563,390.75 1002.3594,390.75 Q1000.8438,390.75 999.6406,390.125 Q998.6563,389.625 997.9688,388.5547 Q997.2813,387.4844 997.2813,386.2031 L997.2813,385.0469 Q997.2813,383.7188 997.8984,382.5703 Q998.5156,381.4219 999.6094,380.8047 Q1000.7031,380.1875 1001.9375,380.1875 Q1002.6719,380.1875 1003.3203,380.3516 Q1003.9688,380.5156 1004.5156,380.875 Z " fill="#000000"/><text fill="#000000" font-family="sans-serif" font-size="12" lengthAdjust="spacing" textLength="118" x="1022.25" y="389.9102">ShowBoardController</text><line style="stroke:#A80036;stroke-width:1.5;" x1="938.5" x2="1191.5" y1="401" y2="401"/><line style="stroke:#A80036;stroke-width:1.5;" x1="938.5" x2="1191.5" y1="409" y2="409"/><polygon fill="#4177AF" points="948.5,416,944.5,422,952.5,422" style="stroke:#1963A0;stroke-width:1.0;"/><text fill="#000000" font-family="sans-serif" font-size="11" lengthAdjust="spacing" textLength="83" x="957.5" y="424.4189">getAttempts(): int</text><polygon fill="#4177AF" points="948.5,429.8359,944.5,435.8359,952.5,435.8359" style="stroke:#1963A0;stroke-width:1.0;"/><text fill="#000000" font-family="sans-serif" font-size="11" lengthAdjust="spacing" textLength="229" x="957.5" y="438.2549">getProposedCombinationColors(int): List&lt;Color&gt;</text><polygon fill="#4177AF" points="948.5,443.6719,944.5,449.6719,952.5,449.6719" style="stroke:#1963A0;stroke-width:1.0;"/><text fill="#000000" font-family="sans-serif" font-size="11" lengthAdjust="spacing" textLength="83" x="957.5" y="452.0908">getBlacks(int): int</text><polygon fill="#4177AF" points="948.5,457.5078,944.5,463.5078,952.5,463.5078" style="stroke:#1963A0;stroke-width:1.0;"/><text fill="#000000" font-family="sans-serif" font-size="11" lengthAdjust="spacing" textLength="84" x="957.5" y="465.9268">getWhites(int): int</text><!--MD5=[aab9612c5d46aa221e996c7d0ed5d7ab]
class UndoController--><rect codeLine="28" fill="#FEFECE" filter="url(#f1w3ytag5tv5kv)" height="131.0156" id="UndoController" style="stroke:#A80036;stroke-width:1.5;" width="255" x="32.5" y="164"/><ellipse cx="113.75" cy="180" fill="#ADD1B2" rx="11" ry="11" style="stroke:#A80036;stroke-width:1.0;"/><path d="M116.5156,175.875 Q116.6719,175.6563 116.8594,175.5469 Q117.0469,175.4375 117.2656,175.4375 Q117.6406,175.4375 117.875,175.6953 Q118.1094,175.9531 118.1094,176.5625 L118.1094,178.0156 Q118.1094,178.625 117.875,178.8906 Q117.6406,179.1563 117.2656,179.1563 Q116.9219,179.1563 116.7188,178.9531 Q116.5156,178.7656 116.4063,178.25 Q116.3594,177.8906 116.1719,177.7031 Q115.8438,177.3281 115.2344,177.1094 Q114.625,176.8906 114,176.8906 Q113.2344,176.8906 112.6016,177.2188 Q111.9688,177.5469 111.4766,178.2969 Q110.9844,179.0469 110.9844,180.0781 L110.9844,181.1719 Q110.9844,182.4063 111.875,183.2266 Q112.7656,184.0469 114.3594,184.0469 Q115.2969,184.0469 115.9531,183.7969 Q116.3438,183.6406 116.7656,183.2031 Q117.0313,182.9375 117.1797,182.8594 Q117.3281,182.7813 117.5313,182.7813 Q117.8594,182.7813 118.1172,183.0391 Q118.375,183.2969 118.375,183.6406 Q118.375,183.9844 118.0313,184.3906 Q117.5313,184.9688 116.7344,185.2969 Q115.6563,185.75 114.3594,185.75 Q112.8438,185.75 111.6406,185.125 Q110.6563,184.625 109.9688,183.5547 Q109.2813,182.4844 109.2813,181.2031 L109.2813,180.0469 Q109.2813,178.7188 109.8984,177.5703 Q110.5156,176.4219 111.6094,175.8047 Q112.7031,175.1875 113.9375,175.1875 Q114.6719,175.1875 115.3203,175.3516 Q115.9688,175.5156 116.5156,175.875 Z " fill="#000000"/><text fill="#000000" font-family="sans-serif" font-size="12" lengthAdjust="spacing" textLength="84" x="134.25" y="184.9102">UndoController</text><line style="stroke:#A80036;stroke-width:1.5;" x1="33.5" x2="286.5" y1="196" y2="196"/><line style="stroke:#A80036;stroke-width:1.5;" x1="33.5" x2="286.5" y1="204" y2="204"/><ellipse cx="43.5" cy="215" fill="#84BE84" rx="3" ry="3" style="stroke:#038048;stroke-width:1.0;"/><text fill="#000000" font-family="sans-serif" font-size="11" lengthAdjust="spacing" textLength="96" x="52.5" y="219.4189">undoable(): boolean</text><ellipse cx="43.5" cy="228.8359" fill="#84BE84" rx="3" ry="3" style="stroke:#038048;stroke-width:1.0;"/><text fill="#000000" font-family="sans-serif" font-size="11" lengthAdjust="spacing" textLength="32" x="52.5" y="233.2549">undo()</text><ellipse cx="43.5" cy="242.6719" fill="#84BE84" rx="3" ry="3" style="stroke:#038048;stroke-width:1.0;"/><text fill="#000000" font-family="sans-serif" font-size="11" lengthAdjust="spacing" textLength="83" x="52.5" y="247.0908">getAttempts(): int</text><ellipse cx="43.5" cy="256.5078" fill="#84BE84" rx="3" ry="3" style="stroke:#038048;stroke-width:1.0;"/><text fill="#000000" font-family="sans-serif" font-size="11" lengthAdjust="spacing" textLength="229" x="52.5" y="260.9268">getProposedCombinationColors(int): List&lt;Color&gt;</text><ellipse cx="43.5" cy="270.3438" fill="#84BE84" rx="3" ry="3" style="stroke:#038048;stroke-width:1.0;"/><text fill="#000000" font-family="sans-serif" font-size="11" lengthAdjust="spacing" textLength="83" x="52.5" y="274.7627">getBlacks(int): int</text><ellipse cx="43.5" cy="284.1797" fill="#84BE84" rx="3" ry="3" style="stroke:#038048;stroke-width:1.0;"/><text fill="#000000" font-family="sans-serif" font-size="11" lengthAdjust="spacing" textLength="84" x="52.5" y="288.5986">getWhites(int): int</text><!--MD5=[09632e2f294dd01282ddf91519a686d7]
class RedoController--><rect codeLine="36" fill="#FEFECE" filter="url(#f1w3ytag5tv5kv)" height="131.0156" id="RedoController" style="stroke:#A80036;stroke-width:1.5;" width="255" x="322.5" y="164"/><ellipse cx="403.75" cy="180" fill="#ADD1B2" rx="11" ry="11" style="stroke:#A80036;stroke-width:1.0;"/><path d="M406.5156,175.875 Q406.6719,175.6563 406.8594,175.5469 Q407.0469,175.4375 407.2656,175.4375 Q407.6406,175.4375 407.875,175.6953 Q408.1094,175.9531 408.1094,176.5625 L408.1094,178.0156 Q408.1094,178.625 407.875,178.8906 Q407.6406,179.1563 407.2656,179.1563 Q406.9219,179.1563 406.7188,178.9531 Q406.5156,178.7656 406.4063,178.25 Q406.3594,177.8906 406.1719,177.7031 Q405.8438,177.3281 405.2344,177.1094 Q404.625,176.8906 404,176.8906 Q403.2344,176.8906 402.6016,177.2188 Q401.9688,177.5469 401.4766,178.2969 Q400.9844,179.0469 400.9844,180.0781 L400.9844,181.1719 Q400.9844,182.4063 401.875,183.2266 Q402.7656,184.0469 404.3594,184.0469 Q405.2969,184.0469 405.9531,183.7969 Q406.3438,183.6406 406.7656,183.2031 Q407.0313,182.9375 407.1797,182.8594 Q407.3281,182.7813 407.5313,182.7813 Q407.8594,182.7813 408.1172,183.0391 Q408.375,183.2969 408.375,183.6406 Q408.375,183.9844 408.0313,184.3906 Q407.5313,184.9688 406.7344,185.2969 Q405.6563,185.75 404.3594,185.75 Q402.8438,185.75 401.6406,185.125 Q400.6563,184.625 399.9688,183.5547 Q399.2813,182.4844 399.2813,181.2031 L399.2813,180.0469 Q399.2813,178.7188 399.8984,177.5703 Q400.5156,176.4219 401.6094,175.8047 Q402.7031,175.1875 403.9375,175.1875 Q404.6719,175.1875 405.3203,175.3516 Q405.9688,175.5156 406.5156,175.875 Z " fill="#000000"/><text fill="#000000" font-family="sans-serif" font-size="12" lengthAdjust="spacing" textLength="84" x="424.25" y="184.9102">RedoController</text><line style="stroke:#A80036;stroke-width:1.5;" x1="323.5" x2="576.5" y1="196" y2="196"/><line style="stroke:#A80036;stroke-width:1.5;" x1="323.5" x2="576.5" y1="204" y2="204"/><ellipse cx="333.5" cy="215" fill="#84BE84" rx="3" ry="3" style="stroke:#038048;stroke-width:1.0;"/><text fill="#000000" font-family="sans-serif" font-size="11" lengthAdjust="spacing" textLength="94" x="342.5" y="219.4189">redoable(): boolean</text><ellipse cx="333.5" cy="228.8359" fill="#84BE84" rx="3" ry="3" style="stroke:#038048;stroke-width:1.0;"/><text fill="#000000" font-family="sans-serif" font-size="11" lengthAdjust="spacing" textLength="30" x="342.5" y="233.2549">redo()</text><ellipse cx="333.5" cy="242.6719" fill="#84BE84" rx="3" ry="3" style="stroke:#038048;stroke-width:1.0;"/><text fill="#000000" font-family="sans-serif" font-size="11" lengthAdjust="spacing" textLength="83" x="342.5" y="247.0908">getAttempts(): int</text><ellipse cx="333.5" cy="256.5078" fill="#84BE84" rx="3" ry="3" style="stroke:#038048;stroke-width:1.0;"/><text fill="#000000" font-family="sans-serif" font-size="11" lengthAdjust="spacing" textLength="229" x="342.5" y="260.9268">getProposedCombinationColors(int): List&lt;Color&gt;</text><ellipse cx="333.5" cy="270.3438" fill="#84BE84" rx="3" ry="3" style="stroke:#038048;stroke-width:1.0;"/><text fill="#000000" font-family="sans-serif" font-size="11" lengthAdjust="spacing" textLength="83" x="342.5" y="274.7627">getBlacks(int): int</text><ellipse cx="333.5" cy="284.1797" fill="#84BE84" rx="3" ry="3" style="stroke:#038048;stroke-width:1.0;"/><text fill="#000000" font-family="sans-serif" font-size="11" lengthAdjust="spacing" textLength="84" x="342.5" y="288.5986">getWhites(int): int</text><!--MD5=[d3858c961aee0496f0645a7642abb006]
class OpenController--><rect codeLine="44" fill="#FEFECE" filter="url(#f1w3ytag5tv5kv)" height="117.1797" id="OpenController" style="stroke:#A80036;stroke-width:1.5;" width="255" x="782.5" y="171"/><ellipse cx="863.75" cy="187" fill="#ADD1B2" rx="11" ry="11" style="stroke:#A80036;stroke-width:1.0;"/><path d="M866.5156,182.875 Q866.6719,182.6563 866.8594,182.5469 Q867.0469,182.4375 867.2656,182.4375 Q867.6406,182.4375 867.875,182.6953 Q868.1094,182.9531 868.1094,183.5625 L868.1094,185.0156 Q868.1094,185.625 867.875,185.8906 Q867.6406,186.1563 867.2656,186.1563 Q866.9219,186.1563 866.7188,185.9531 Q866.5156,185.7656 866.4063,185.25 Q866.3594,184.8906 866.1719,184.7031 Q865.8438,184.3281 865.2344,184.1094 Q864.625,183.8906 864,183.8906 Q863.2344,183.8906 862.6016,184.2188 Q861.9688,184.5469 861.4766,185.2969 Q860.9844,186.0469 860.9844,187.0781 L860.9844,188.1719 Q860.9844,189.4063 861.875,190.2266 Q862.7656,191.0469 864.3594,191.0469 Q865.2969,191.0469 865.9531,190.7969 Q866.3438,190.6406 866.7656,190.2031 Q867.0313,189.9375 867.1797,189.8594 Q867.3281,189.7813 867.5313,189.7813 Q867.8594,189.7813 868.1172,190.0391 Q868.375,190.2969 868.375,190.6406 Q868.375,190.9844 868.0313,191.3906 Q867.5313,191.9688 866.7344,192.2969 Q865.6563,192.75 864.3594,192.75 Q862.8438,192.75 861.6406,192.125 Q860.6563,191.625 859.9688,190.5547 Q859.2813,189.4844 859.2813,188.2031 L859.2813,187.0469 Q859.2813,185.7188 859.8984,184.5703 Q860.5156,183.4219 861.6094,182.8047 Q862.7031,182.1875 863.9375,182.1875 Q864.6719,182.1875 865.3203,182.3516 Q865.9688,182.5156 866.5156,182.875 Z " fill="#000000"/><text fill="#000000" font-family="sans-serif" font-size="12" lengthAdjust="spacing" textLength="84" x="884.25" y="191.9102">OpenController</text><line style="stroke:#A80036;stroke-width:1.5;" x1="783.5" x2="1036.5" y1="203" y2="203"/><line style="stroke:#A80036;stroke-width:1.5;" x1="783.5" x2="1036.5" y1="211" y2="211"/><ellipse cx="793.5" cy="222" fill="#84BE84" rx="3" ry="3" style="stroke:#038048;stroke-width:1.0;"/><text fill="#000000" font-family="sans-serif" font-size="11" lengthAdjust="spacing" textLength="60" x="802.5" y="226.4189">open(String)</text><ellipse cx="793.5" cy="235.8359" fill="#84BE84" rx="3" ry="3" style="stroke:#038048;stroke-width:1.0;"/><text fill="#000000" font-family="sans-serif" font-size="11" lengthAdjust="spacing" textLength="83" x="802.5" y="240.2549">getAttempts(): int</text><ellipse cx="793.5" cy="249.6719" fill="#84BE84" rx="3" ry="3" style="stroke:#038048;stroke-width:1.0;"/><text fill="#000000" font-family="sans-serif" font-size="11" lengthAdjust="spacing" textLength="229" x="802.5" y="254.0908">getProposedCombinationColors(int): List&lt;Color&gt;</text><ellipse cx="793.5" cy="263.5078" fill="#84BE84" rx="3" ry="3" style="stroke:#038048;stroke-width:1.0;"/><text fill="#000000" font-family="sans-serif" font-size="11" lengthAdjust="spacing" textLength="83" x="802.5" y="267.9268">getBlacks(int): int</text><ellipse cx="793.5" cy="277.3438" fill="#84BE84" rx="3" ry="3" style="stroke:#038048;stroke-width:1.0;"/><text fill="#000000" font-family="sans-serif" font-size="11" lengthAdjust="spacing" textLength="84" x="802.5" y="281.7627">getWhites(int): int</text><!--MD5=[20f01773b9667c744e5118bba2278641]
class ExitController--><rect codeLine="51" fill="#FEFECE" filter="url(#f1w3ytag5tv5kv)" height="61.8359" id="ExitController" style="stroke:#A80036;stroke-width:1.5;" width="105" x="1690.5" y="198.5"/><ellipse cx="1705.5" cy="214.5" fill="#ADD1B2" rx="11" ry="11" style="stroke:#A80036;stroke-width:1.0;"/><path d="M1708.2656,210.375 Q1708.4219,210.1563 1708.6094,210.0469 Q1708.7969,209.9375 1709.0156,209.9375 Q1709.3906,209.9375 1709.625,210.1953 Q1709.8594,210.4531 1709.8594,211.0625 L1709.8594,212.5156 Q1709.8594,213.125 1709.625,213.3906 Q1709.3906,213.6563 1709.0156,213.6563 Q1708.6719,213.6563 1708.4688,213.4531 Q1708.2656,213.2656 1708.1563,212.75 Q1708.1094,212.3906 1707.9219,212.2031 Q1707.5938,211.8281 1706.9844,211.6094 Q1706.375,211.3906 1705.75,211.3906 Q1704.9844,211.3906 1704.3516,211.7188 Q1703.7188,212.0469 1703.2266,212.7969 Q1702.7344,213.5469 1702.7344,214.5781 L1702.7344,215.6719 Q1702.7344,216.9063 1703.625,217.7266 Q1704.5156,218.5469 1706.1094,218.5469 Q1707.0469,218.5469 1707.7031,218.2969 Q1708.0938,218.1406 1708.5156,217.7031 Q1708.7813,217.4375 1708.9297,217.3594 Q1709.0781,217.2813 1709.2813,217.2813 Q1709.6094,217.2813 1709.8672,217.5391 Q1710.125,217.7969 1710.125,218.1406 Q1710.125,218.4844 1709.7813,218.8906 Q1709.2813,219.4688 1708.4844,219.7969 Q1707.4063,220.25 1706.1094,220.25 Q1704.5938,220.25 1703.3906,219.625 Q1702.4063,219.125 1701.7188,218.0547 Q1701.0313,216.9844 1701.0313,215.7031 L1701.0313,214.5469 Q1701.0313,213.2188 1701.6484,212.0703 Q1702.2656,210.9219 1703.3594,210.3047 Q1704.4531,209.6875 1705.6875,209.6875 Q1706.4219,209.6875 1707.0703,209.8516 Q1707.7188,210.0156 1708.2656,210.375 Z " fill="#000000"/><text fill="#000000" font-family="sans-serif" font-size="12" lengthAdjust="spacing" textLength="73" x="1719.5" y="219.4102">ExitController</text><line style="stroke:#A80036;stroke-width:1.5;" x1="1691.5" x2="1794.5" y1="230.5" y2="230.5"/><line style="stroke:#A80036;stroke-width:1.5;" x1="1691.5" x2="1794.5" y1="238.5" y2="238.5"/><ellipse cx="1701.5" cy="249.5" fill="#84BE84" rx="3" ry="3" style="stroke:#038048;stroke-width:1.0;"/><text fill="#000000" font-family="sans-serif" font-size="11" lengthAdjust="spacing" textLength="25" x="1710.5" y="253.9189">exit()</text><!--MD5=[f85404c7f6f4e11de0322e40335fa6aa]
class SaveController--><rect codeLine="54" fill="#FEFECE" filter="url(#f1w3ytag5tv5kv)" height="61.8359" id="SaveController" style="stroke:#A80036;stroke-width:1.5;" width="113" x="1830.5" y="198.5"/><ellipse cx="1845.5" cy="214.5" fill="#ADD1B2" rx="11" ry="11" style="stroke:#A80036;stroke-width:1.0;"/><path d="M1848.2656,210.375 Q1848.4219,210.1563 1848.6094,210.0469 Q1848.7969,209.9375 1849.0156,209.9375 Q1849.3906,209.9375 1849.625,210.1953 Q1849.8594,210.4531 1849.8594,211.0625 L1849.8594,212.5156 Q1849.8594,213.125 1849.625,213.3906 Q1849.3906,213.6563 1849.0156,213.6563 Q1848.6719,213.6563 1848.4688,213.4531 Q1848.2656,213.2656 1848.1563,212.75 Q1848.1094,212.3906 1847.9219,212.2031 Q1847.5938,211.8281 1846.9844,211.6094 Q1846.375,211.3906 1845.75,211.3906 Q1844.9844,211.3906 1844.3516,211.7188 Q1843.7188,212.0469 1843.2266,212.7969 Q1842.7344,213.5469 1842.7344,214.5781 L1842.7344,215.6719 Q1842.7344,216.9063 1843.625,217.7266 Q1844.5156,218.5469 1846.1094,218.5469 Q1847.0469,218.5469 1847.7031,218.2969 Q1848.0938,218.1406 1848.5156,217.7031 Q1848.7813,217.4375 1848.9297,217.3594 Q1849.0781,217.2813 1849.2813,217.2813 Q1849.6094,217.2813 1849.8672,217.5391 Q1850.125,217.7969 1850.125,218.1406 Q1850.125,218.4844 1849.7813,218.8906 Q1849.2813,219.4688 1848.4844,219.7969 Q1847.4063,220.25 1846.1094,220.25 Q1844.5938,220.25 1843.3906,219.625 Q1842.4063,219.125 1841.7188,218.0547 Q1841.0313,216.9844 1841.0313,215.7031 L1841.0313,214.5469 Q1841.0313,213.2188 1841.6484,212.0703 Q1842.2656,210.9219 1843.3594,210.3047 Q1844.4531,209.6875 1845.6875,209.6875 Q1846.4219,209.6875 1847.0703,209.8516 Q1847.7188,210.0156 1848.2656,210.375 Z " fill="#000000"/><text fill="#000000" font-family="sans-serif" font-size="12" lengthAdjust="spacing" textLength="81" x="1859.5" y="219.4102">SaveController</text><line style="stroke:#A80036;stroke-width:1.5;" x1="1831.5" x2="1942.5" y1="230.5" y2="230.5"/><line style="stroke:#A80036;stroke-width:1.5;" x1="1831.5" x2="1942.5" y1="238.5" y2="238.5"/><ellipse cx="1841.5" cy="249.5" fill="#84BE84" rx="3" ry="3" style="stroke:#038048;stroke-width:1.0;"/><text fill="#000000" font-family="sans-serif" font-size="11" lengthAdjust="spacing" textLength="60" x="1850.5" y="253.9189">save(String)</text><!--MD5=[9563755d011c5cec7ec66dc53565a59e]
class Board--><rect codeLine="74" fill="#FEFECE" filter="url(#f1w3ytag5tv5kv)" height="56.1875" id="Board" style="stroke:#A80036;stroke-width:1.5;" width="77" x="1978.5" y="201.5"/><ellipse cx="1993.5" cy="221.5938" fill="#ADD1B2" rx="11" ry="11" style="stroke:#A80036;stroke-width:1.0;"/><path d="M1996.2656,217.4688 Q1996.4219,217.25 1996.6094,217.1406 Q1996.7969,217.0313 1997.0156,217.0313 Q1997.3906,217.0313 1997.625,217.2891 Q1997.8594,217.5469 1997.8594,218.1563 L1997.8594,219.6094 Q1997.8594,220.2188 1997.625,220.4844 Q1997.3906,220.75 1997.0156,220.75 Q1996.6719,220.75 1996.4688,220.5469 Q1996.2656,220.3594 1996.1563,219.8438 Q1996.1094,219.4844 1995.9219,219.2969 Q1995.5938,218.9219 1994.9844,218.7031 Q1994.375,218.4844 1993.75,218.4844 Q1992.9844,218.4844 1992.3516,218.8125 Q1991.7188,219.1406 1991.2266,219.8906 Q1990.7344,220.6406 1990.7344,221.6719 L1990.7344,222.7656 Q1990.7344,224 1991.625,224.8203 Q1992.5156,225.6406 1994.1094,225.6406 Q1995.0469,225.6406 1995.7031,225.3906 Q1996.0938,225.2344 1996.5156,224.7969 Q1996.7813,224.5313 1996.9297,224.4531 Q1997.0781,224.375 1997.2813,224.375 Q1997.6094,224.375 1997.8672,224.6328 Q1998.125,224.8906 1998.125,225.2344 Q1998.125,225.5781 1997.7813,225.9844 Q1997.2813,226.5625 1996.4844,226.8906 Q1995.4063,227.3438 1994.1094,227.3438 Q1992.5938,227.3438 1991.3906,226.7188 Q1990.4063,226.2188 1989.7188,225.1484 Q1989.0313,224.0781 1989.0313,222.7969 L1989.0313,221.6406 Q1989.0313,220.3125 1989.6484,219.1641 Q1990.2656,218.0156 1991.3594,217.3984 Q1992.4531,216.7813 1993.6875,216.7813 Q1994.4219,216.7813 1995.0703,216.9453 Q1995.7188,217.1094 1996.2656,217.4688 Z " fill="#000000"/><text fill="#000000" font-family="sans-serif" font-size="12" lengthAdjust="spacing" textLength="45" x="2007.5" y="218.957">models.</text><text fill="#000000" font-family="sans-serif" font-size="12" lengthAdjust="spacing" textLength="33" x="2013.5" y="234.0508">Board</text><line style="stroke:#A80036;stroke-width:1.5;" x1="1979.5" x2="2054.5" y1="241.6875" y2="241.6875"/><line style="stroke:#A80036;stroke-width:1.5;" x1="1979.5" x2="2054.5" y1="249.6875" y2="249.6875"/><!--MD5=[18eee71c88ab61f27581b8cbdd3ef5ee]
class Color--><rect codeLine="75" fill="#FEFECE" filter="url(#f1w3ytag5tv5kv)" height="56.1875" id="Color" style="stroke:#A80036;stroke-width:1.5;" width="64" x="1214" y="532"/><ellipse cx="1229" cy="552.0938" fill="#EB937F" rx="11" ry="11" style="stroke:#A80036;stroke-width:1.0;"/><path d="M1227.8594,552.8906 L1227.8594,555.3906 L1232.1875,555.3906 L1232.1875,554.4688 Q1232.1875,553.8594 1232.4297,553.5938 Q1232.6719,553.3281 1233.0469,553.3281 Q1233.4219,553.3281 1233.6563,553.5938 Q1233.8906,553.8594 1233.8906,554.4688 L1233.8906,557.0938 L1225.8906,557.0938 Q1225.2656,557.0938 1225.0078,556.8594 Q1224.75,556.625 1224.75,556.2344 Q1224.75,555.8594 1225.0156,555.625 Q1225.2813,555.3906 1225.8906,555.3906 L1226.1563,555.3906 L1226.1563,548.7344 L1225.8906,548.7344 Q1225.2656,548.7344 1225.0078,548.5 Q1224.75,548.2656 1224.75,547.875 Q1224.75,547.5 1225.0078,547.2656 Q1225.2656,547.0313 1225.8906,547.0313 L1233.5156,547.0313 L1233.5156,549.625 Q1233.5156,550.2344 1233.2891,550.4922 Q1233.0625,550.75 1232.6719,550.75 Q1232.2969,550.75 1232.0625,550.4922 Q1231.8281,550.2344 1231.8281,549.625 L1231.8281,548.7344 L1227.8594,548.7344 L1227.8594,551.1875 L1229.3438,551.1875 Q1229.3438,550.5313 1229.4688,550.3438 Q1229.7344,549.9375 1230.2031,549.9375 Q1230.5781,549.9375 1230.8125,550.1953 Q1231.0469,550.4531 1231.0469,551.0625 L1231.0469,553.0313 Q1231.0469,553.5781 1230.9219,553.7656 Q1230.6563,554.1563 1230.2031,554.1563 Q1229.7344,554.1563 1229.4688,553.75 Q1229.3438,553.5625 1229.3438,552.8906 L1227.8594,552.8906 Z " fill="#000000"/><text fill="#000000" font-family="sans-serif" font-size="12" lengthAdjust="spacing" textLength="32" x="1243" y="549.457">types.</text><text fill="#000000" font-family="sans-serif" font-size="12" lengthAdjust="spacing" textLength="30" x="1244" y="564.5508">Color</text><line style="stroke:#A80036;stroke-width:1.5;" x1="1215" x2="1277" y1="572.1875" y2="572.1875"/><line style="stroke:#A80036;stroke-width:1.5;" x1="1215" x2="1277" y1="580.1875" y2="580.1875"/><!--MD5=[b8cfd8c4119a3b0a7a46bfc5fc780f85]
class Error--><rect codeLine="76" fill="#FEFECE" filter="url(#f1w3ytag5tv5kv)" height="56.1875" id="Error" style="stroke:#A80036;stroke-width:1.5;" width="64" x="1976" y="392.5"/><ellipse cx="1991" cy="412.5938" fill="#EB937F" rx="11" ry="11" style="stroke:#A80036;stroke-width:1.0;"/><path d="M1989.8594,413.3906 L1989.8594,415.8906 L1994.1875,415.8906 L1994.1875,414.9688 Q1994.1875,414.3594 1994.4297,414.0938 Q1994.6719,413.8281 1995.0469,413.8281 Q1995.4219,413.8281 1995.6563,414.0938 Q1995.8906,414.3594 1995.8906,414.9688 L1995.8906,417.5938 L1987.8906,417.5938 Q1987.2656,417.5938 1987.0078,417.3594 Q1986.75,417.125 1986.75,416.7344 Q1986.75,416.3594 1987.0156,416.125 Q1987.2813,415.8906 1987.8906,415.8906 L1988.1563,415.8906 L1988.1563,409.2344 L1987.8906,409.2344 Q1987.2656,409.2344 1987.0078,409 Q1986.75,408.7656 1986.75,408.375 Q1986.75,408 1987.0078,407.7656 Q1987.2656,407.5313 1987.8906,407.5313 L1995.5156,407.5313 L1995.5156,410.125 Q1995.5156,410.7344 1995.2891,410.9922 Q1995.0625,411.25 1994.6719,411.25 Q1994.2969,411.25 1994.0625,410.9922 Q1993.8281,410.7344 1993.8281,410.125 L1993.8281,409.2344 L1989.8594,409.2344 L1989.8594,411.6875 L1991.3438,411.6875 Q1991.3438,411.0313 1991.4688,410.8438 Q1991.7344,410.4375 1992.2031,410.4375 Q1992.5781,410.4375 1992.8125,410.6953 Q1993.0469,410.9531 1993.0469,411.5625 L1993.0469,413.5313 Q1993.0469,414.0781 1992.9219,414.2656 Q1992.6563,414.6563 1992.2031,414.6563 Q1991.7344,414.6563 1991.4688,414.25 Q1991.3438,414.0625 1991.3438,413.3906 L1989.8594,413.3906 Z " fill="#000000"/><text fill="#000000" font-family="sans-serif" font-size="12" lengthAdjust="spacing" textLength="32" x="2005" y="409.957">types.</text><text fill="#000000" font-family="sans-serif" font-size="12" lengthAdjust="spacing" textLength="27" x="2007.5" y="425.0508">Error</text><line style="stroke:#A80036;stroke-width:1.5;" x1="1977" x2="2039" y1="432.6875" y2="432.6875"/><line style="stroke:#A80036;stroke-width:1.5;" x1="1977" x2="2039" y1="440.6875" y2="440.6875"/><!--MD5=[354d6deacb49030493b7fd8cb23ebdce]
reverse link Controller to StartController--><path codeLine="59" d="M1176.82,108 C1187.59,129.21 1200.83,155.29 1212.24,177.76 " fill="none" id="Controller-backto-StartController" style="stroke:#A80036;stroke-width:1.0;"/><polygon fill="none" points="1170.56,111.14,1167.75,90.14,1183.04,104.8,1170.56,111.14" style="stroke:#A80036;stroke-width:1.0;"/><!--MD5=[f447e35400d120693a19fd34f2d8422e]
reverse link Controller to ProposeController--><path codeLine="60" d="M1218.65,87.16 C1264.78,102.66 1328.68,125.52 1383,150 C1388.74,152.59 1394.57,155.31 1400.42,158.12 " fill="none" id="Controller-backto-ProposeController" style="stroke:#A80036;stroke-width:1.0;"/><polygon fill="none" points="1216.2,93.72,1199.42,80.78,1220.61,80.43,1216.2,93.72" style="stroke:#A80036;stroke-width:1.0;"/><!--MD5=[dfabfd7c269c7ef3ab5bdd4c723fcdb8]
reverse link Controller to ResumeController--><path codeLine="61" d="M1092.71,70.14 C1012.39,76.37 871.51,94.9 765,150 C742.16,161.81 720.91,181.44 705.37,198.11 " fill="none" id="Controller-backto-ResumeController" style="stroke:#A80036;stroke-width:1.0;"/><polygon fill="none" points="1092.28,63.15,1112.72,68.75,1093.25,77.12,1092.28,63.15" style="stroke:#A80036;stroke-width:1.0;"/><!--MD5=[c8984a8af7c12f8533ff397092c16636]
reverse link Controller to ShowBoardController--><path codeLine="62" d="M1119.83,105.56 C1109.45,118.72 1099.27,134.15 1093,150 C1064.47,222.18 1061.09,313.27 1062.28,368.91 " fill="none" id="Controller-backto-ShowBoardController" style="stroke:#A80036;stroke-width:1.0;"/><polygon fill="none" points="1114.53,100.98,1132.78,90.22,1125.22,110.02,1114.53,100.98" style="stroke:#A80036;stroke-width:1.0;"/><!--MD5=[5344b5a2a57f55ab983fda367ecdb5ef]
reverse link Controller to UndoController--><path codeLine="63" d="M1092.95,69.9 C922,78.29 452.61,104.87 305,150 C292.82,153.72 280.49,158.53 268.43,163.92 " fill="none" id="Controller-backto-UndoController" style="stroke:#A80036;stroke-width:1.0;"/><polygon fill="none" points="1092.66,62.91,1112.97,68.94,1093.33,76.89,1092.66,62.91" style="stroke:#A80036;stroke-width:1.0;"/><!--MD5=[30206d8ab718dc22cce9998c8e604def]
reverse link Controller to RedoController--><path codeLine="64" d="M1092.5,69.3 C986.92,74.68 769.68,92.4 596,150 C584.25,153.9 572.34,158.7 560.63,163.99 " fill="none" id="Controller-backto-RedoController" style="stroke:#A80036;stroke-width:1.0;"/><polygon fill="none" points="1092.38,62.3,1112.69,68.36,1093.04,76.28,1092.38,62.3" style="stroke:#A80036;stroke-width:1.0;"/><!--MD5=[aa8a1d262900dd6e2eb2fd4249a86c78]
reverse link Controller to SaveController--><path codeLine="65" d="M1219.38,69.58 C1363.23,76.31 1709.93,97.61 1813,150 C1834.7,161.03 1853.45,181.1 1866.64,198.19 " fill="none" id="Controller-backto-SaveController" style="stroke:#A80036;stroke-width:1.0;"/><polygon fill="none" points="1218.95,76.57,1199.28,68.68,1219.58,62.58,1218.95,76.57" style="stroke:#A80036;stroke-width:1.0;"/><!--MD5=[7c6495643f70fd20c9342503f9a5965c]
reverse link Controller to OpenController--><path codeLine="66" d="M1103.76,101.3 C1072.96,121.51 1033.2,147.62 997.72,170.91 " fill="none" id="Controller-backto-OpenController" style="stroke:#A80036;stroke-width:1.0;"/><polygon fill="none" points="1100.19,95.26,1120.75,90.14,1107.88,106.97,1100.19,95.26" style="stroke:#A80036;stroke-width:1.0;"/><!--MD5=[acdb7a82aeb9ae5bd312a5c0d10b7c22]
reverse link Controller to ExitController--><path codeLine="67" d="M1219.37,71.85 C1339.63,81.92 1595.8,107.74 1673,150 C1693.82,161.4 1711.55,181.46 1723.95,198.45 " fill="none" id="Controller-backto-ExitController" style="stroke:#A80036;stroke-width:1.0;"/><polygon fill="none" points="1218.61,78.82,1199.25,70.21,1219.75,64.86,1218.61,78.82" style="stroke:#A80036;stroke-width:1.0;"/><!--MD5=[b4660ff7e828b23e4b17a715c63b2df8]
link StartController to ShowBoardController--><path codeLine="68" d="M1183.5391,290.003 C1183.5391,290.003 1140.35,337.18 1120.44,358.93 " fill="none" id="StartController-ShowBoardController" style="stroke:#A80036;stroke-width:1.0;"/><polygon fill="#A80036" points="1111.49,368.71,1120.5167,364.7706,1114.8654,365.0213,1114.6147,359.37,1111.49,368.71" style="stroke:#A80036;stroke-width:1.0;"/><line style="stroke:#A80036;stroke-width:1.0;" x1="1114.8654" x2="1120.265" y1="365.0213" y2="359.12"/><polygon fill="#A80036" points="1191.64,281.15,1184.6385,282.8762,1183.5391,290.003,1190.5405,288.2768,1191.64,281.15" style="stroke:#A80036;stroke-width:1.0;"/><!--MD5=[217660a01a015992a9b7449ecc5eb003]
link ProposeController to ShowBoardController--><path codeLine="69" d="M1389.5834,306.0379 C1389.5834,306.0379 1384.8,308.21 1383,309 C1325.95,334.16 1261.22,357.54 1205.13,376.25 " fill="none" id="ProposeController-ShowBoardController" style="stroke:#A80036;stroke-width:1.0;"/><polygon fill="#A80036" points="1192.55,380.42,1202.3521,381.3789,1197.2951,378.8438,1199.8302,373.7868,1192.55,380.42" style="stroke:#A80036;stroke-width:1.0;"/><line style="stroke:#A80036;stroke-width:1.0;" x1="1197.2951" x2="1204.895" y1="378.8438" y2="376.33"/><polygon fill="#A80036" points="1400.47,300.99,1393.3441,299.8851,1389.5834,306.0379,1396.7093,307.1428,1400.47,300.99" style="stroke:#A80036;stroke-width:1.0;"/><!--MD5=[2c52910148e9819c620d9e17d1681542]
link UndoController to ShowBoardController--><path codeLine="70" d="M280.8381,299.8501 C280.8381,299.8501 297.33,306.46 305,309 C513.74,378.24 768.99,404.13 924.17,413.79 " fill="none" id="UndoController-ShowBoardController" style="stroke:#A80036;stroke-width:1.0;"/><polygon fill="#A80036" points="937.48,414.59,928.738,410.0537,932.4891,414.288,928.2548,418.0391,937.48,414.59" style="stroke:#A80036;stroke-width:1.0;"/><line style="stroke:#A80036;stroke-width:1.0;" x1="932.4891" x2="924.505" y1="414.288" y2="413.805"/><polygon fill="#A80036" points="269.84,295.05,273.739,301.1161,280.8381,299.8501,276.9391,293.784,269.84,295.05" style="stroke:#A80036;stroke-width:1.0;"/><!--MD5=[da400dee44fe4cb18fcfe5f548bf9ae9]
link RedoController to ShowBoardController--><path codeLine="71" d="M574.3634,300.0758 C574.3634,300.0758 589.19,306.42 596,309 C703.13,349.61 829.86,378.4 924.56,396.38 " fill="none" id="RedoController-ShowBoardController" style="stroke:#A80036;stroke-width:1.0;"/><polygon fill="#A80036" points="937.42,398.8,929.3136,393.2066,932.506,397.8766,927.8361,401.069,937.42,398.8" style="stroke:#A80036;stroke-width:1.0;"/><line style="stroke:#A80036;stroke-width:1.0;" x1="932.506" x2="924.64" y1="397.8766" y2="396.4"/><polygon fill="#A80036" points="563.43,295.13,567.2481,301.2473,574.3634,300.0758,570.5453,293.9584,563.43,295.13" style="stroke:#A80036;stroke-width:1.0;"/><!--MD5=[7a31d241c7229341dd1effe4f81546a8]
link OpenController to ShowBoardController--><path codeLine="72" d="M964.9567,297.511 C964.9567,297.511 999.36,339.46 1015.14,358.7 " fill="none" id="OpenController-ShowBoardController" style="stroke:#A80036;stroke-width:1.0;"/><polygon fill="#A80036" points="1023.45,368.84,1020.8386,359.3437,1020.2805,364.9729,1014.6513,364.4148,1023.45,368.84" style="stroke:#A80036;stroke-width:1.0;"/><line style="stroke:#A80036;stroke-width:1.0;" x1="1020.2805" x2="1015.21" y1="364.9729" y2="358.785"/><polygon fill="#A80036" points="957.35,288.23,958.0597,295.4061,964.9567,297.511,964.247,290.3349,957.35,288.23" style="stroke:#A80036;stroke-width:1.0;"/><!--MD5=[e4ce0f75ff780efa34ba11708e5ec423]
link Controller to Board--><path codeLine="78" d="M1199.14,66.9 C1346.59,67.26 1828.69,74.33 1960,150 C1978.41,160.61 1992.51,179.82 2002.09,196.58 " fill="none" id="Controller-to-Board" style="stroke:#A80036;stroke-width:1.0;"/><polygon fill="#A80036" points="2004.67,201.24,2003.8204,191.4279,2002.2527,196.8632,1996.8174,195.2955,2004.67,201.24" style="stroke:#A80036;stroke-width:1.0;"/><!--MD5=[a89fa2b97461e605c99485f1f8e3795b]
link ProposeController to Error--><path codeLine="79" d="M1655.56,302.1 C1661.39,304.57 1667.22,306.88 1673,309 C1795.36,353.82 1846.17,305.56 1960,369 C1968.83,373.92 1977,381 1984.01,388.32 " fill="none" id="ProposeController-to-Error" style="stroke:#A80036;stroke-width:1.0;stroke-dasharray:7.0,7.0;"/><polygon fill="#A80036" points="1987.79,392.39,1984.6111,383.0683,1984.3932,388.7209,1978.7406,388.5031,1987.79,392.39" style="stroke:#A80036;stroke-width:1.0;"/><!--MD5=[d649baaff3a9c9942c69fcb786dc271c]
link ProposeController to Color--><path codeLine="80" d="M1460.45,309.18 C1400.39,379.16 1315.64,477.87 1272.9,527.67 " fill="none" id="ProposeController-to-Color" style="stroke:#A80036;stroke-width:1.0;stroke-dasharray:7.0,7.0;"/><polygon fill="#A80036" points="1269.39,531.75,1278.2841,527.5199,1272.644,527.9537,1272.2101,522.3135,1269.39,531.75" style="stroke:#A80036;stroke-width:1.0;"/><!--MD5=[551c8c913caa70d4c8baab2e4edb5769]
link ShowBoardController to Color--><path codeLine="81" d="M1131.63,472.11 C1158.01,492.15 1187.3,514.41 1209.64,531.38 " fill="none" id="ShowBoardController-to-Color" style="stroke:#A80036;stroke-width:1.0;stroke-dasharray:7.0,7.0;"/><polygon fill="#A80036" points="1213.73,534.48,1208.9645,525.8609,1209.742,531.464,1204.1389,532.2416,1213.73,534.48" style="stroke:#A80036;stroke-width:1.0;"/><!--MD5=[69a1b9a8422e14e14037057a3d2e1465]
link StartController to Color--><path codeLine="82" d="M1239.23,281.11 C1240.9,349.59 1243.83,469.77 1245.22,526.98 " fill="none" id="StartController-to-Color" style="stroke:#A80036;stroke-width:1.0;stroke-dasharray:7.0,7.0;"/><polygon fill="#A80036" points="1245.34,531.99,1249.1333,522.9009,1245.2257,526.9913,1241.1354,523.0838,1245.34,531.99" style="stroke:#A80036;stroke-width:1.0;"/><!--MD5=[58cd53a6cbdaef482880e032bcc1aeaf]
@startuml mastermind_analisis_controllers
package controllers {
    abstract class Controller
    class StartController {
        + getAttempts(): int
        + getProposedCombinationColors(int): List<Color>
        + getBlacks(int): int
        + getWhites(int): int
    }
    class ProposeController {
        + getError(List<Color>): Error
        + add(List<Color>)
        + isFinished(): boolean
        + isWinner(): boolean
        + getAttempts(): int
        + getProposedCombinationColors(int): List<Color>
        + getBlacks(int): int
        + getWhites(int): int
    }
    class ResumeController {
        + reset()
    }
    class ShowBoardController {
        ~ getAttempts(): int
        ~ getProposedCombinationColors(int): List<Color>
        ~ getBlacks(int): int
        ~ getWhites(int): int
    }
    class UndoController {
        + undoable(): boolean
        + undo()
        + getAttempts(): int
        + getProposedCombinationColors(int): List<Color>
        + getBlacks(int): int
        + getWhites(int): int
    }
    class RedoController {
        + redoable(): boolean
        + redo()
        + getAttempts(): int
        + getProposedCombinationColors(int): List<Color>
        + getBlacks(int): int
        + getWhites(int): int
    }
    class OpenController {
        + open(String)
        + getAttempts(): int
        + getProposedCombinationColors(int): List<Color>
        + getBlacks(int): int
        + getWhites(int): int
    }
    class ExitController {
        + exit()
    }
    class SaveController {
        + save(String)
    }
}

Controller <|- - StartController
Controller <|- - ProposeController
Controller <|- - ResumeController
Controller <|- - ShowBoardController
Controller <|- - UndoController
Controller <|- - RedoController
Controller <|- - SaveController
Controller <|- - OpenController
Controller <|- - ExitController
StartController *-down-> ShowBoardController
ProposeController *-down-> ShowBoardController
UndoController *-down-> ShowBoardController
RedoController *-down-> ShowBoardController
OpenController *-down-> ShowBoardController

class "models.\nBoard" as Board
enum "types.\nColor" as Color
enum "types.\nError" as Error

Controller -down-> Board
ProposeController .down.> Error
ProposeController .down.> Color
ShowBoardController .down.> Color
StartController .down.> Color
@enduml

PlantUML version 1.2021.00(Sun Jan 10 11:25:05 CET 2021)
(GPL source distribution)
Java Runtime: Java(TM) SE Runtime Environment
JVM: Java HotSpot(TM) 64-Bit Server VM
Default Encoding: Cp1252
Language: es
Country: ES
--></g></svg>