<?xml version="1.0" encoding="UTF-8" standalone="no"?><svg xmlns="http://www.w3.org/2000/svg" xmlns:xlink="http://www.w3.org/1999/xlink" contentScriptType="application/ecmascript" contentStyleType="text/css" height="303px" preserveAspectRatio="none" style="width:471px;height:303px;" version="1.1" viewBox="0 0 471 303" width="471px" zoomAndPan="magnify"><defs><filter height="300%" id="f1798j1pv6egp4" width="300%" x="-1" y="-1"><feGaussianBlur result="blurOut" stdDeviation="2.0"/><feColorMatrix in="blurOut" result="blurOut2" type="matrix" values="0 0 0 0 0 0 0 0 0 0 0 0 0 0 0 0 0 0 .4 0"/><feOffset dx="4.0" dy="4.0" in="blurOut2" result="blurOut3"/><feBlend in="SourceGraphic" in2="blurOut3" mode="normal"/></filter></defs><g><!--MD5=[de2effd8dc5bf946a609466312d0f75f]
entity Player--><ellipse cx="28" cy="117.5" fill="#FEFECE" filter="url(#f1798j1pv6egp4)" rx="8" ry="8" style="stroke:#A80036;stroke-width:1.5;"/><path d="M28,125.5 L28,152.5 M15,133.5 L41,133.5 M28,152.5 L15,167.5 M28,152.5 L41,167.5 " fill="none" filter="url(#f1798j1pv6egp4)" style="stroke:#A80036;stroke-width:1.5;"/><text fill="#000000" font-family="sans-serif" font-size="14" lengthAdjust="spacing" textLength="44" x="6" y="185.9951">Player</text><ellipse cx="165.2231" cy="20.5485" fill="#FEFECE" filter="url(#f1798j1pv6egp4)" rx="37.7231" ry="14.5485" style="stroke:#A80036;stroke-width:1.5;"/><text fill="#000000" font-family="sans-serif" font-size="14" lengthAdjust="spacing" textLength="37" x="145.1116" y="23.9312">Start</text><ellipse cx="392.8142" cy="155.2628" fill="#FEFECE" filter="url(#f1798j1pv6egp4)" rx="66.8142" ry="15.7628" style="stroke:#A80036;stroke-width:1.5;"/><text fill="#000000" font-family="sans-serif" font-size="14" lengthAdjust="spacing" textLength="84" x="347.8142" y="159.0104">Show board</text><ellipse cx="165.0937" cy="84.7277" fill="#FEFECE" filter="url(#f1798j1pv6egp4)" rx="54.0937" ry="14.7277" style="stroke:#A80036;stroke-width:1.5;"/><text fill="#000000" font-family="sans-serif" font-size="14" lengthAdjust="spacing" textLength="59" x="132.5937" y="88.4753">Propose</text><ellipse cx="165.1007" cy="148.715" fill="#FEFECE" filter="url(#f1798j1pv6egp4)" rx="52.6007" ry="14.715" style="stroke:#A80036;stroke-width:1.5;"/><text fill="#000000" font-family="sans-serif" font-size="14" lengthAdjust="spacing" textLength="57" x="133.6007" y="152.4626">Resume</text><ellipse cx="164.9961" cy="212.5423" fill="#FEFECE" filter="url(#f1798j1pv6egp4)" rx="36.9961" ry="14.5423" style="stroke:#A80036;stroke-width:1.5;"/><text fill="#000000" font-family="sans-serif" font-size="14" lengthAdjust="spacing" textLength="36" x="145.6301" y="215.8527">Undo</text><ellipse cx="165.2231" cy="276.5485" fill="#FEFECE" filter="url(#f1798j1pv6egp4)" rx="37.7231" ry="14.5485" style="stroke:#A80036;stroke-width:1.5;"/><text fill="#000000" font-family="sans-serif" font-size="14" lengthAdjust="spacing" textLength="37" x="145.1116" y="279.9312">Redo</text><!--MD5=[39353cd92ba960c69c4d2a9385fee2c7]
link Player to Start--><path d="M50.1692,119.023 C65.5886,98.818 87.7668,72.21 111,52.5 C118.815,45.87 128.16,39.74 136.812,34.657 " fill="none" id="Player-to-Start" style="stroke:#A80036;stroke-width:1.0;"/><polygon fill="#A80036" points="141.533,31.945,131.7367,32.9609,137.1978,34.4361,135.7225,39.8972,141.533,31.945" style="stroke:#A80036;stroke-width:1.0;"/><!--MD5=[7516bd2c579bdaf62cebd1ec5e85773a]
link Player to Propose--><path d="M50.2295,137.398 C59.3456,132.703 70.1473,127.237 80,122.5 C96.7337,114.455 115.55,105.898 131.125,98.946 " fill="none" id="Player-to-Propose" style="stroke:#A80036;stroke-width:1.0;"/><polygon fill="#A80036" points="135.849,96.842,126.0001,96.85,131.2816,98.8764,129.2552,104.1579,135.849,96.842" style="stroke:#A80036;stroke-width:1.0;"/><!--MD5=[5fec2ab2a197ce562aec9d83f689b0ce]
link Player to Resume--><path d="M50.0938,148.5 C65.4757,148.5 87.0892,148.5 107.361,148.5 " fill="none" id="Player-to-Resume" style="stroke:#A80036;stroke-width:1.0;"/><polygon fill="#A80036" points="112.481,148.5,103.481,144.5,107.481,148.5,103.481,152.5,112.481,148.5" style="stroke:#A80036;stroke-width:1.0;"/><!--MD5=[8c43b8889fbbf04d7fcb9e85038f3a81]
link Start to Board--><path d="M190.03,31.631 C216.543,44.198 260.199,65.742 296,87.5 C321.313,102.884 348.757,122.662 367.793,136.918 " fill="none" id="Start-to-Board" style="stroke:#A80036;stroke-width:1.0;stroke-dasharray:7.0,7.0;"/><polygon fill="#A80036" points="371.963,140.053,367.1733,131.4472,367.9666,137.0482,362.3656,137.8415,371.963,140.053" style="stroke:#A80036;stroke-width:1.0;"/><text fill="#000000" font-family="sans-serif" font-size="13" lengthAdjust="spacing" textLength="45" x="250" y="58.5669">include</text><!--MD5=[ccfb0678e5d987a8ee5222b2a367a551]
link Propose to Board--><path d="M200.817,95.438 C240.042,107.761 303.918,127.828 346.924,141.339 " fill="none" id="Propose-to-Board" style="stroke:#A80036;stroke-width:1.0;stroke-dasharray:7.0,7.0;"/><polygon fill="#A80036" points="351.8,142.871,344.4127,136.3574,347.0299,141.3724,342.0149,143.9896,351.8,142.871" style="stroke:#A80036;stroke-width:1.0;"/><text fill="#000000" font-family="sans-serif" font-size="13" lengthAdjust="spacing" textLength="45" x="250" y="108.5669">include</text><!--MD5=[0380c48cc03698e9c08b2a5affc527cb]
link Player to Undo--><path d="M50.0938,158.5 C73.2715,169.488 110.598,187.183 136.162,199.3028 " fill="none" id="Player-to-Undo" style="stroke:#A80036;stroke-width:1.0;"/><polygon fill="#A80036" points="140.793,201.498,134.3735,194.0287,136.2748,199.3565,130.9471,201.2578,140.793,201.498" style="stroke:#A80036;stroke-width:1.0;"/><!--MD5=[7c9bcef47e4b02639c2752c8fb66e4cd]
link Undo to Board--><path d="M196.479,204.8127 C233.604,195.4495 296.857,179.496 341.344,168.276 " fill="none" id="Undo-to-Board" style="stroke:#A80036;stroke-width:1.0;stroke-dasharray:7.0,7.0;"/><polygon fill="#A80036" points="346.402,167,336.6971,165.3224,341.5538,168.2228,338.6535,173.0795,346.402,167" style="stroke:#A80036;stroke-width:1.0;"/><text fill="#000000" font-family="sans-serif" font-size="13" lengthAdjust="spacing" textLength="45" x="250" y="177.5669">include</text><!--MD5=[714833a1def7c2d3f9278f33fd9da27b]
link Player to Redo--><path d="M50.1692,177.977 C65.5886,198.1816 87.7668,224.79 111,244.5 C118.815,251.1296 128.16,257.2597 136.812,262.3428 " fill="none" id="Player-to-Redo" style="stroke:#A80036;stroke-width:1.0;"/><polygon fill="#A80036" points="141.533,265.0555,135.7229,257.103,137.1979,262.5642,131.7367,264.0392,141.533,265.0555" style="stroke:#A80036;stroke-width:1.0;"/><!--MD5=[4a6dcf81188302b057532ceb246e69a0]
link Redo to Board--><path d="M191.411,265.9699 C217.978,254.6849 260.646,235.7788 296,216.5 C320.338,203.2286 346.851,186.169 365.836,173.467 " fill="none" id="Redo-to-Board" style="stroke:#A80036;stroke-width:1.0;stroke-dasharray:7.0,7.0;"/><polygon fill="#A80036" points="370.01,170.663,360.3085,172.3602,365.8592,173.4507,364.7687,179.0014,370.01,170.663" style="stroke:#A80036;stroke-width:1.0;"/><text fill="#000000" font-family="sans-serif" font-size="13" lengthAdjust="spacing" textLength="45" x="250" y="212.5669">include</text><!--MD5=[57d32623545e6ff5578e42b1357ee994]
@startuml
left to right direction
actor Player
usecase Start
Player - -> Start
usecase Board as "Show board"
usecase Propose
Player - -> Propose
usecase Resume
Player - -> Resume
Start .down.> Board: include
Propose .down.> Board: include
usecase Undo
Player -down-> Undo
Undo .down.> Board: include
usecase Redo
Player -down-> Redo
Redo .down.> Board: include
@enduml

PlantUML version 1.2021.4beta3(Unknown compile time)
(GPL source distribution)
Java Runtime: Java(TM) SE Runtime Environment
JVM: Java HotSpot(TM) 64-Bit Server VM
Default Encoding: UTF-8
Language: en
Country: US
--></g></svg>