<?xml version="1.0" encoding="UTF-8" standalone="no"?><svg xmlns="http://www.w3.org/2000/svg" xmlns:xlink="http://www.w3.org/1999/xlink" contentScriptType="application/ecmascript" contentStyleType="text/css" height="797px" preserveAspectRatio="none" style="width:395px;height:797px;" version="1.1" viewBox="0 0 395 797" width="395px" zoomAndPan="magnify"><defs><filter height="300%" id="f10qnonrdmsdgn" width="300%" x="-1" y="-1"><feGaussianBlur result="blurOut" stdDeviation="2.0"/><feColorMatrix in="blurOut" result="blurOut2" type="matrix" values="0 0 0 0 0 0 0 0 0 0 0 0 0 0 0 0 0 0 .4 0"/><feOffset dx="4.0" dy="4.0" in="blurOut2" result="blurOut3"/><feBlend in="SourceGraphic" in2="blurOut3" mode="normal"/></filter></defs><g><g id="INITIAL"><rect fill="#FEFECE" filter="url(#f10qnonrdmsdgn)" height="50" rx="12.5" ry="12.5" style="stroke:#A80036;stroke-width:1.5;" width="69" x="250.2942" y="87"/><line style="stroke:#A80036;stroke-width:1.5;" x1="250.2942" x2="319.2942" y1="113.2969" y2="113.2969"/><text fill="#000000" font-family="sans-serif" font-size="14" lengthAdjust="spacing" textLength="49" x="260.2942" y="104.9951">INITIAL</text></g><g id="IN_GAME"><rect fill="#FEFECE" filter="url(#f10qnonrdmsdgn)" height="50" rx="12.5" ry="12.5" style="stroke:#A80036;stroke-width:1.5;" width="83" x="173.2942" y="214"/><line style="stroke:#A80036;stroke-width:1.5;" x1="173.2942" x2="256.2942" y1="240.2969" y2="240.2969"/><text fill="#000000" font-family="sans-serif" font-size="14" lengthAdjust="spacing" textLength="63" x="183.2942" y="231.9951">IN_GAME</text></g><g id="OUT_GAME"><rect fill="#FEFECE" filter="url(#f10qnonrdmsdgn)" height="50" rx="12.5" ry="12.5" style="stroke:#A80036;stroke-width:1.5;" width="98" x="162.7942" y="442"/><line style="stroke:#A80036;stroke-width:1.5;" x1="162.7942" x2="260.7942" y1="468.2969" y2="468.2969"/><text fill="#000000" font-family="sans-serif" font-size="14" lengthAdjust="spacing" textLength="78" x="172.7942" y="459.9951">OUT_GAME</text></g><g id="EXIT"><rect fill="#FEFECE" filter="url(#f10qnonrdmsdgn)" height="50" rx="12.5" ry="12.5" style="stroke:#A80036;stroke-width:1.5;" width="52" x="242.7942" y="654"/><line style="stroke:#A80036;stroke-width:1.5;" x1="242.7942" x2="294.7942" y1="680.2969" y2="680.2969"/><text fill="#000000" font-family="sans-serif" font-size="14" lengthAdjust="spacing" textLength="32" x="252.7942" y="671.9951">EXIT</text></g><polygon fill="#FEFECE" filter="url(#f10qnonrdmsdgn)" points="211.7942,341,223.7942,353,211.7942,365,199.7942,353,211.7942,341" style="stroke:#A80036;stroke-width:1.5;"/><polygon fill="#FEFECE" filter="url(#f10qnonrdmsdgn)" points="268.7942,569,280.7942,581,268.7942,593,256.7942,581,268.7942,569" style="stroke:#A80036;stroke-width:1.5;"/><ellipse cx="284.7942" cy="16" fill="#000000" filter="url(#f10qnonrdmsdgn)" rx="10" ry="10" style="stroke:none;stroke-width:1.0;"/><ellipse cx="268.7942" cy="775" filter="url(#f10qnonrdmsdgn)" rx="10" ry="10" style="stroke:#000000;stroke-width:1.0;fill:none;"/><ellipse cx="269.2942" cy="775.5" fill="#000000" rx="6" ry="6" style="stroke:none;stroke-width:1.0;"/><!--MD5=[06c3f2024f4ea60966e79307ee69ec5f]
link *start to INITIAL--><path d="M284.7942,26.013 C284.7942,38.698 284.7942,62.409 284.7942,81.57 " fill="none" id="*start-to-INITIAL" style="stroke:#A80036;stroke-width:1.0;"/><polygon fill="#A80036" points="284.7942,86.84,288.7942,77.84,284.7942,81.84,280.7942,77.84,284.7942,86.84" style="stroke:#A80036;stroke-width:1.0;"/><!--MD5=[c6210ae09f2e397a3dfeeac0c7e340d4]
link INITIAL to IN_GAME--><path d="M271.2972,137.101 C259.7252,157.766 243.0322,187.575 230.7902,209.435 " fill="none" id="INITIAL-to-IN_GAME" style="stroke:#A80036;stroke-width:1.0;"/><polygon fill="#A80036" points="228.2492,213.973,236.1363,208.0744,230.692,209.6103,229.156,204.166,228.2492,213.973" style="stroke:#A80036;stroke-width:1.0;"/><text fill="#000000" font-family="sans-serif" font-size="13" lengthAdjust="spacing" textLength="31" x="255.7942" y="180.0669">Start</text><!--MD5=[200846c1dd6de3f2a37d61d02f348d5e]
link IN_GAME to if_finished--><path d="M173.1632,242.58 C111.2664,247.995 6,264.212 42.7941,311 C61.8275,335.203 157.8152,346.866 196.0472,350.607 " fill="none" id="IN_GAME-to-if_finished" style="stroke:#A80036;stroke-width:1.0;"/><polygon fill="#A80036" points="201.2522,351.102,192.6721,346.2665,196.2747,350.6278,191.9134,354.2304,201.2522,351.102" style="stroke:#A80036;stroke-width:1.0;"/><text fill="#000000" font-family="sans-serif" font-size="13" lengthAdjust="spacing" textLength="52" x="43.7941" y="307.0669">Propose</text><!--MD5=[200846c1dd6de3f2a37d61d02f348d5e]
link IN_GAME to if_finished--><path d="M172.9502,258.707 C158.8322,267.297 144.6672,278.973 136.7942,294 C122.031,322.176 172.2972,340.865 197.8252,348.333 " fill="none" id="IN_GAME-to-if_finished-1" style="stroke:#A80036;stroke-width:1.0;"/><polygon fill="#A80036" points="202.8652,349.756,195.2908,343.4609,198.0533,348.3973,193.1169,351.1598,202.8652,349.756" style="stroke:#A80036;stroke-width:1.0;"/><text fill="#000000" font-family="sans-serif" font-size="13" lengthAdjust="spacing" textLength="33" x="137.7942" y="307.0669">Undo</text><!--MD5=[200846c1dd6de3f2a37d61d02f348d5e]
link IN_GAME to if_finished--><path d="M213.1642,264.181 C212.6112,273.496 212.0652,284.239 211.7942,294 C211.4012,308.141 211.4402,324.228 211.5542,335.867 " fill="none" id="IN_GAME-to-if_finished-2" style="stroke:#A80036;stroke-width:1.0;"/><polygon fill="#A80036" points="211.6112,340.878,215.5081,331.8329,211.5541,335.8783,207.5086,331.9243,211.6112,340.878" style="stroke:#A80036;stroke-width:1.0;"/><text fill="#000000" font-family="sans-serif" font-size="13" lengthAdjust="spacing" textLength="33" x="212.7942" y="307.0669">Redo</text><!--MD5=[5848ef64f427518330d05d0e49dfaccc]
link if_finished to IN_GAME--><path d="M218.6422,347.423 C227.9842,340.717 244.3042,327.238 250.7942,311 C256.5542,296.587 250.3322,281.156 241.5322,268.374 " fill="none" id="if_finished-to-IN_GAME" style="stroke:#A80036;stroke-width:1.0;"/><polygon fill="#A80036" points="238.4632,264.146,240.5121,273.7794,241.4,268.1926,246.9867,269.0805,238.4632,264.146" style="stroke:#A80036;stroke-width:1.0;"/><!--MD5=[fb580c452284ecb35857e88f372e8dbe]
link if_finished to OUT_GAME--><path d="M211.7942,365.148 C211.7942,381.609 211.7942,412.991 211.7942,436.396 " fill="none" id="if_finished-to-OUT_GAME" style="stroke:#A80036;stroke-width:1.0;"/><polygon fill="#A80036" points="211.7942,441.56,215.7942,432.56,211.7942,436.56,207.7942,432.56,211.7942,441.56" style="stroke:#A80036;stroke-width:1.0;"/><text fill="#000000" font-family="sans-serif" font-size="13" lengthAdjust="spacing" textLength="60" x="212.7942" y="408.0669">[finished]</text><!--MD5=[636b806927507f296b22f82987e0fbb2]
link OUT_GAME to if_resumed--><path d="M216.1822,492.034 C219.4342,506.287 224.7232,524.368 232.7942,539 C239.7142,551.545 251.0232,563.578 259.1202,571.325 " fill="none" id="OUT_GAME-to-if_resumed" style="stroke:#A80036;stroke-width:1.0;"/><polygon fill="#A80036" points="262.8032,574.768,258.9595,565.7001,259.1504,571.3538,253.4968,571.5446,262.8032,574.768" style="stroke:#A80036;stroke-width:1.0;"/><text fill="#000000" font-family="sans-serif" font-size="13" lengthAdjust="spacing" textLength="53" x="233.7942" y="535.0669">Resume</text><!--MD5=[36553ab13ef484d8e624246e921f8591]
link if_resumed to INITIAL--><path d="M273.6102,573.305 C285.2182,556.488 313.7942,510.749 313.7942,468 C313.7942,238 313.7942,238 313.7942,238 C313.7942,204.375 303.7132,166.947 295.4382,141.889 " fill="none" id="if_resumed-to-INITIAL" style="stroke:#A80036;stroke-width:1.0;"/><polygon fill="#A80036" points="293.8112,137.048,292.8864,146.8533,295.4039,141.7875,300.4697,144.305,293.8112,137.048" style="stroke:#A80036;stroke-width:1.0;"/><text fill="#000000" font-family="sans-serif" font-size="13" lengthAdjust="spacing" textLength="73" x="314.7942" y="357.5669">[continued]</text><!--MD5=[00ace724ee34ef802585e1261ed65fdc]
link if_resumed to EXIT--><path d="M268.7942,593.012 C268.7942,606.518 268.7942,629.935 268.7942,648.773 " fill="none" id="if_resumed-to-EXIT" style="stroke:#A80036;stroke-width:1.0;"/><polygon fill="#A80036" points="268.7942,653.953,272.7942,644.953,268.7942,648.953,264.7942,644.953,268.7942,653.953" style="stroke:#A80036;stroke-width:1.0;"/><!--MD5=[bd19b40b84bbe903342104a02ae53ed4]
link EXIT to *end--><path d="M268.7942,704.2073 C268.7942,721.8423 268.7942,745.1261 268.7942,759.8351 " fill="none" id="EXIT-to-*end" style="stroke:#A80036;stroke-width:1.0;"/><polygon fill="#A80036" points="268.7942,764.8399,272.7942,755.8399,268.7942,759.8399,264.7942,755.8399,268.7942,764.8399" style="stroke:#A80036;stroke-width:1.0;"/><!--MD5=[13b7dc69eb75a8e47d3c62599f2a979c]
@startuml
state INITIAL
state IN_GAME
state OUT_GAME
state EXIT
state if_finished <<choice>>
state if_resumed <<choice>>

[*] - -> INITIAL
INITIAL - -> IN_GAME: Start
IN_GAME - -> if_finished: Propose
IN_GAME - -> if_finished: Undo
IN_GAME - -> if_finished: Redo
if_finished - -> IN_GAME
if_finished - -> OUT_GAME: [finished]
OUT_GAME - -> if_resumed: Resume
if_resumed - -> INITIAL: [continued]
if_resumed - -> EXIT
EXIT - -> [*]
@enduml

PlantUML version 1.2021.4beta3(Unknown compile time)
(GPL source distribution)
Java Runtime: Java(TM) SE Runtime Environment
JVM: Java HotSpot(TM) 64-Bit Server VM
Default Encoding: UTF-8
Language: en
Country: US
--></g></svg>