<?xml version="1.0" encoding="UTF-8" standalone="no"?><svg xmlns="http://www.w3.org/2000/svg" xmlns:xlink="http://www.w3.org/1999/xlink" contentScriptType="application/ecmascript" contentStyleType="text/css" height="654px" preserveAspectRatio="none" style="width:486px;height:654px;" version="1.1" viewBox="0 0 486 654" width="486px" zoomAndPan="magnify"><defs><filter height="300%" id="f1eot3lb1h1uyy" width="300%" x="-1" y="-1"><feGaussianBlur result="blurOut" stdDeviation="2.0"/><feColorMatrix in="blurOut" result="blurOut2" type="matrix" values="0 0 0 0 0 0 0 0 0 0 0 0 0 0 0 0 0 0 .4 0"/><feOffset dx="4.0" dy="4.0" in="blurOut2" result="blurOut3"/><feBlend in="SourceGraphic" in2="blurOut3" mode="normal"/></filter></defs><g><g id="IN_GAME"><rect fill="#FEFECE" filter="url(#f1eot3lb1h1uyy)" height="50" rx="12.5" ry="12.5" style="stroke:#A80036;stroke-width:1.5;" width="83" x="116.5742" y="87"/><line style="stroke:#A80036;stroke-width:1.5;" x1="116.5742" x2="199.5742" y1="113.2969" y2="113.2969"/><text fill="#000000" font-family="sans-serif" font-size="14" lengthAdjust="spacing" textLength="63" x="126.5742" y="104.9951">IN_GAME</text></g><g id="ShowBoard"><rect fill="#FEFECE" filter="url(#f1eot3lb1h1uyy)" height="50" rx="12.5" ry="12.5" style="stroke:#A80036;stroke-width:1.5;" width="104" x="106.0742" y="214"/><line style="stroke:#A80036;stroke-width:1.5;" x1="106.0742" x2="210.0742" y1="240.2969" y2="240.2969"/><text fill="#000000" font-family="sans-serif" font-size="14" lengthAdjust="spacing" textLength="84" x="116.0742" y="231.9951">Show board</text></g><g id="showed"><rect fill="#FEFECE" filter="url(#f1eot3lb1h1uyy)" height="50" rx="12.5" ry="12.5" style="stroke:#A80036;stroke-width:1.5;" width="50" x="9.0742" y="465"/><line style="stroke:#A80036;stroke-width:1.5;" x1="9.0742" x2="59.0742" y1="491.2969" y2="491.2969"/><text fill="#000000" font-family="sans-serif" font-size="14" lengthAdjust="spacing" textLength="0" x="36.0742" y="482.9951"/></g><g id="showed1"><rect fill="#FEFECE" filter="url(#f1eot3lb1h1uyy)" height="50" rx="12.5" ry="12.5" style="stroke:#A80036;stroke-width:1.5;" width="50" x="263.0742" y="465"/><line style="stroke:#A80036;stroke-width:1.5;" x1="263.0742" x2="313.0742" y1="491.2969" y2="491.2969"/><text fill="#000000" font-family="sans-serif" font-size="14" lengthAdjust="spacing" textLength="0" x="290.0742" y="482.9951"/></g><polygon fill="#FEFECE" filter="url(#f1eot3lb1h1uyy)" points="158.0742,325,170.0742,337,158.0742,349,146.0742,337,158.0742,325" style="stroke:#A80036;stroke-width:1.5;"/><ellipse cx="158.0742" cy="16" fill="#000000" filter="url(#f1eot3lb1h1uyy)" rx="10" ry="10" style="stroke:none;stroke-width:1.0;"/><ellipse cx="160.0742" cy="632" filter="url(#f1eot3lb1h1uyy)" rx="10" ry="10" style="stroke:#000000;stroke-width:1.0;fill:none;"/><ellipse cx="160.5742" cy="632.5" fill="#000000" rx="6" ry="6" style="stroke:none;stroke-width:1.0;"/><!--MD5=[bc741243a5bb3318d84c2be45b028a19]
link *start to IN_GAME--><path d="M158.0742,26.013 C158.0742,38.698 158.0742,62.409 158.0742,81.57 " fill="none" id="*start-to-IN_GAME" style="stroke:#A80036;stroke-width:1.0;"/><polygon fill="#A80036" points="158.0742,86.84,162.0742,77.84,158.0742,81.84,154.0742,77.84,158.0742,86.84" style="stroke:#A80036;stroke-width:1.0;"/><!--MD5=[528466521dc36816aaa50ec62b2fb949]
link IN_GAME to ShowBoard--><path d="M158.0742,137.101 C158.0742,157.593 158.0742,187.076 158.0742,208.884 " fill="none" id="IN_GAME-to-ShowBoard" style="stroke:#A80036;stroke-width:1.0;"/><polygon fill="#A80036" points="158.0742,213.973,162.0742,204.973,158.0742,208.973,154.0742,204.973,158.0742,213.973" style="stroke:#A80036;stroke-width:1.0;"/><text fill="#000000" font-family="sans-serif" font-size="13" lengthAdjust="spacing" textLength="133" x="159.0742" y="180.0669">Player requests redo</text><!--MD5=[ea523093dee0eb9fd40e70dc89c9e62a]
link ShowBoard to is_undoable--><path d="M158.0742,264.225 C158.0742,281.539 158.0742,304.376 158.0742,319.592 " fill="none" id="ShowBoard-to-is_undoable" style="stroke:#A80036;stroke-width:1.0;"/><polygon fill="#A80036" points="158.0742,324.829,162.0742,315.829,158.0742,319.829,154.0742,315.829,158.0742,324.829" style="stroke:#A80036;stroke-width:1.0;"/><!--MD5=[d42e964753d91b02adc15d300614ec0c]
link is_undoable to showed--><path d="M146.1182,337.388 C118.8972,336.731 52.3964,339.45 23.0742,379 C6,402.03 12.5964,435.635 21.0532,459.634 " fill="none" id="is_undoable-to-showed" style="stroke:#A80036;stroke-width:1.0;"/><polygon fill="#A80036" points="22.8782,464.602,23.5291,454.7747,21.1539,459.9087,16.0199,457.5335,22.8782,464.602" style="stroke:#A80036;stroke-width:1.0;"/><text fill="#000000" font-family="sans-serif" font-size="13" lengthAdjust="spacing" textLength="66" x="110.5742" y="392.0669">[redoable]</text><path d="M28.0742,401.1328 L28.0742,426.1328 L255.0742,426.1328 L255.0742,411.1328 L245.0742,401.1328 L28.0742,401.1328 " fill="#FBFB77" filter="url(#f1eot3lb1h1uyy)" style="stroke:#A80036;stroke-width:1.0;"/><path d="M245.0742,401.1328 L245.0742,411.1328 L255.0742,411.1328 L245.0742,401.1328 " fill="#FBFB77" style="stroke:#A80036;stroke-width:1.0;"/><text fill="#000000" font-family="sans-serif" font-size="13" lengthAdjust="spacing" textLength="206" x="34.0742" y="418.1997">undo has been made previously</text><!--MD5=[9a359a072769b55a6f2e89abb5910bb7]
link is_undoable to showed1--><path d="M168.8032,338.624 C191.0562,340.53 242.3032,348.213 268.0742,379 C286.8012,401.372 290.4322,435.394 290.2382,459.673 " fill="none" id="is_undoable-to-showed1" style="stroke:#A80036;stroke-width:1.0;"/><polygon fill="#A80036" points="290.1422,464.698,294.3112,455.775,290.2365,459.6989,286.3126,455.6242,290.1422,464.698" style="stroke:#A80036;stroke-width:1.0;"/><!--MD5=[dd7f3773ba5873d16c431d0e449212b7]
link showed to *end--><path d="M26.6434,515.115 C21.3924,537.294 17.8414,569.983 34.0742,592 C60.0629,627.2493 117.5432,631.5976 144.9572,631.5423 " fill="none" id="showed-to-*end" style="stroke:#A80036;stroke-width:1.0;"/><polygon fill="#A80036" points="150.0212,631.4803,140.9727,627.5912,145.0216,631.5417,141.071,635.5906,150.0212,631.4803" style="stroke:#A80036;stroke-width:1.0;"/><text fill="#000000" font-family="sans-serif" font-size="13" lengthAdjust="spacing" textLength="149" x="63.0742" y="558.0669">System allows Propose</text><text fill="#000000" font-family="sans-serif" font-size="13" lengthAdjust="spacing" textLength="205" x="35.0742" y="573.1997">System allows Undo if undoable</text><text fill="#000000" font-family="sans-serif" font-size="13" lengthAdjust="spacing" textLength="130" x="72.5742" y="588.3325">System allows Redo</text><!--MD5=[218f8e7e3e5022f789ab51e4409f8f73]
link showed1 to *end--><path d="M283.1162,515.009 C277.3832,537.424 265.9362,570.5523 245.0742,592 C225.4132,612.2126 193.3082,622.9497 174.6922,627.7652 " fill="none" id="showed1-to-*end" style="stroke:#A80036;stroke-width:1.0;"/><polygon fill="#A80036" points="169.8212,628.9693,179.5181,630.6925,174.6751,627.7693,177.5982,622.9263,169.8212,628.9693" style="stroke:#A80036;stroke-width:1.0;"/><text fill="#000000" font-family="sans-serif" font-size="13" lengthAdjust="spacing" textLength="149" x="301.0742" y="565.5669">System allows Propose</text><text fill="#000000" font-family="sans-serif" font-size="13" lengthAdjust="spacing" textLength="205" x="273.0742" y="580.6997">System allows Undo if undoable</text><!--MD5=[ef4ba88aab5498f83df76ac67b331666]
@startuml
state IN_GAME
state ShowBoard as "Show board"
state showed as " "
state showed1 as " "
state is_undoable <<choice>>

[*] - -> IN_GAME
IN_GAME - -> ShowBoard: Player requests redo
ShowBoard - -> is_undoable
is_undoable - -> showed: [redoable]
note on link
  undo has been made previously
end note
is_undoable - -> showed1
showed - -> [*]: System allows Propose\nSystem allows Undo if undoable\nSystem allows Redo
showed1 - -> [*]: System allows Propose\nSystem allows Undo if undoable
@enduml

PlantUML version 1.2021.4beta3(Unknown compile time)
(GPL source distribution)
Java Runtime: Java(TM) SE Runtime Environment
JVM: Java HotSpot(TM) 64-Bit Server VM
Default Encoding: UTF-8
Language: en
Country: US
--></g></svg>