<?xml version="1.0" encoding="UTF-8" standalone="no"?><svg xmlns="http://www.w3.org/2000/svg" xmlns:xlink="http://www.w3.org/1999/xlink" contentScriptType="application/ecmascript" contentStyleType="text/css" height="654px" preserveAspectRatio="none" style="width:468px;height:654px;" version="1.1" viewBox="0 0 468 654" width="468px" zoomAndPan="magnify"><defs><filter height="300%" id="f1ejaee6guqayd" width="300%" x="-1" y="-1"><feGaussianBlur result="blurOut" stdDeviation="2.0"/><feColorMatrix in="blurOut" result="blurOut2" type="matrix" values="0 0 0 0 0 0 0 0 0 0 0 0 0 0 0 0 0 0 .4 0"/><feOffset dx="4.0" dy="4.0" in="blurOut2" result="blurOut3"/><feBlend in="SourceGraphic" in2="blurOut3" mode="normal"/></filter></defs><g><g id="IN_GAME"><rect fill="#FEFECE" filter="url(#f1ejaee6guqayd)" height="50" rx="12.5" ry="12.5" style="stroke:#A80036;stroke-width:1.5;" width="83" x="89.9396" y="87"/><line style="stroke:#A80036;stroke-width:1.5;" x1="89.9396" x2="172.9396" y1="113.2969" y2="113.2969"/><text fill="#000000" font-family="sans-serif" font-size="14" lengthAdjust="spacing" textLength="63" x="99.9396" y="104.9951">IN_GAME</text></g><g id="ShowBoard"><rect fill="#FEFECE" filter="url(#f1ejaee6guqayd)" height="50" rx="12.5" ry="12.5" style="stroke:#A80036;stroke-width:1.5;" width="104" x="79.4396" y="214"/><line style="stroke:#A80036;stroke-width:1.5;" x1="79.4396" x2="183.4396" y1="240.2969" y2="240.2969"/><text fill="#000000" font-family="sans-serif" font-size="14" lengthAdjust="spacing" textLength="84" x="89.4396" y="231.9951">Show board</text></g><g id="showed"><rect fill="#FEFECE" filter="url(#f1ejaee6guqayd)" height="50" rx="12.5" ry="12.5" style="stroke:#A80036;stroke-width:1.5;" width="50" x="10.4396" y="465"/><line style="stroke:#A80036;stroke-width:1.5;" x1="10.4396" x2="60.4396" y1="491.2969" y2="491.2969"/><text fill="#000000" font-family="sans-serif" font-size="14" lengthAdjust="spacing" textLength="0" x="37.4396" y="482.9951"/></g><g id="showed1"><rect fill="#FEFECE" filter="url(#f1ejaee6guqayd)" height="50" rx="12.5" ry="12.5" style="stroke:#A80036;stroke-width:1.5;" width="50" x="241.4396" y="465"/><line style="stroke:#A80036;stroke-width:1.5;" x1="241.4396" x2="291.4396" y1="491.2969" y2="491.2969"/><text fill="#000000" font-family="sans-serif" font-size="14" lengthAdjust="spacing" textLength="0" x="268.4396" y="482.9951"/></g><polygon fill="#FEFECE" filter="url(#f1ejaee6guqayd)" points="131.4396,325,143.4396,337,131.4396,349,119.4396,337,131.4396,325" style="stroke:#A80036;stroke-width:1.5;"/><ellipse cx="131.4396" cy="16" fill="#000000" filter="url(#f1ejaee6guqayd)" rx="10" ry="10" style="stroke:none;stroke-width:1.0;"/><ellipse cx="151.4396" cy="632" filter="url(#f1ejaee6guqayd)" rx="10" ry="10" style="stroke:#000000;stroke-width:1.0;fill:none;"/><ellipse cx="151.9396" cy="632.5" fill="#000000" rx="6" ry="6" style="stroke:none;stroke-width:1.0;"/><!--MD5=[bc741243a5bb3318d84c2be45b028a19]
link *start to IN_GAME--><path d="M131.4396,26.013 C131.4396,38.698 131.4396,62.409 131.4396,81.57 " fill="none" id="*start-to-IN_GAME" style="stroke:#A80036;stroke-width:1.0;"/><polygon fill="#A80036" points="131.4396,86.84,135.4396,77.84,131.4396,81.84,127.4396,77.84,131.4396,86.84" style="stroke:#A80036;stroke-width:1.0;"/><!--MD5=[528466521dc36816aaa50ec62b2fb949]
link IN_GAME to ShowBoard--><path d="M131.4396,137.101 C131.4396,157.593 131.4396,187.076 131.4396,208.884 " fill="none" id="IN_GAME-to-ShowBoard" style="stroke:#A80036;stroke-width:1.0;"/><polygon fill="#A80036" points="131.4396,213.973,135.4396,204.973,131.4396,208.973,127.4396,204.973,131.4396,213.973" style="stroke:#A80036;stroke-width:1.0;"/><text fill="#000000" font-family="sans-serif" font-size="13" lengthAdjust="spacing" textLength="136" x="132.4396" y="180.0669">Player requests undo</text><!--MD5=[ea523093dee0eb9fd40e70dc89c9e62a]
link ShowBoard to is_undoable--><path d="M131.4396,264.225 C131.4396,281.539 131.4396,304.376 131.4396,319.592 " fill="none" id="ShowBoard-to-is_undoable" style="stroke:#A80036;stroke-width:1.0;"/><polygon fill="#A80036" points="131.4396,324.829,135.4396,315.829,131.4396,319.829,127.4396,315.829,131.4396,324.829" style="stroke:#A80036;stroke-width:1.0;"/><!--MD5=[d42e964753d91b02adc15d300614ec0c]
link is_undoable to showed--><path d="M127.0656,344.881 C114.2706,365.006 76.3809,424.603 53.5291,460.547 " fill="none" id="is_undoable-to-showed" style="stroke:#A80036;stroke-width:1.0;"/><polygon fill="#A80036" points="50.8196,464.809,59.0241,459.3605,53.5024,460.5897,52.2732,455.068,50.8196,464.809" style="stroke:#A80036;stroke-width:1.0;"/><text fill="#000000" font-family="sans-serif" font-size="13" lengthAdjust="spacing" textLength="69" x="128.9396" y="392.0669">[undoable]</text><path d="M108.4396,401.1328 L108.4396,426.1328 L214.4396,426.1328 L214.4396,411.1328 L204.4396,401.1328 L108.4396,401.1328 " fill="#FBFB77" filter="url(#f1ejaee6guqayd)" style="stroke:#A80036;stroke-width:1.0;"/><path d="M204.4396,401.1328 L204.4396,411.1328 L214.4396,411.1328 L204.4396,401.1328 " fill="#FBFB77" style="stroke:#A80036;stroke-width:1.0;"/><text fill="#000000" font-family="sans-serif" font-size="13" lengthAdjust="spacing" textLength="85" x="114.4396" y="418.1997">attempts &gt; 0</text><!--MD5=[9a359a072769b55a6f2e89abb5910bb7]
link is_undoable to showed1--><path d="M141.2356,339.245 C161.1356,342.293 206.5096,351.963 231.4396,379 C251.8596,401.145 260.3666,435.207 263.9096,459.557 " fill="none" id="is_undoable-to-showed1" style="stroke:#A80036;stroke-width:1.0;"/><polygon fill="#A80036" points="264.5936,464.598,267.3487,455.1423,263.9222,459.6433,259.4212,456.2167,264.5936,464.598" style="stroke:#A80036;stroke-width:1.0;"/><!--MD5=[dd7f3773ba5873d16c431d0e449212b7]
link showed to *end--><path d="M23.5129,515.057 C14.4236,537.194 6,569.8554 22.4396,592 C49.112,627.9284 107.9288,631.9412 135.9756,631.6726 " fill="none" id="showed-to-*end" style="stroke:#A80036;stroke-width:1.0;"/><polygon fill="#A80036" points="141.1556,631.57,132.0785,627.7482,136.1566,631.6686,132.2362,635.7466,141.1556,631.57" style="stroke:#A80036;stroke-width:1.0;"/><text fill="#000000" font-family="sans-serif" font-size="13" lengthAdjust="spacing" textLength="149" x="49.9396" y="558.0669">System allows Propose</text><text fill="#000000" font-family="sans-serif" font-size="13" lengthAdjust="spacing" textLength="130" x="59.4396" y="573.1997">System allows Undo</text><text fill="#000000" font-family="sans-serif" font-size="13" lengthAdjust="spacing" textLength="202" x="23.4396" y="588.3325">System allows Redo if redoable</text><!--MD5=[218f8e7e3e5022f789ab51e4409f8f73]
link showed1 to *end--><path d="M264.2586,515.312 C261.0906,537.629 253.3426,570.412 234.4396,592 C216.3796,612.625 185.0656,623.1486 166.4966,627.8286 " fill="none" id="showed1-to-*end" style="stroke:#A80036;stroke-width:1.0;"/><polygon fill="#A80036" points="161.1716,629.0981,170.8541,630.901,166.0352,627.9381,168.9981,623.1193,161.1716,629.0981" style="stroke:#A80036;stroke-width:1.0;"/><text fill="#000000" font-family="sans-serif" font-size="13" lengthAdjust="spacing" textLength="149" x="284.9396" y="565.5669">System allows Propose</text><text fill="#000000" font-family="sans-serif" font-size="13" lengthAdjust="spacing" textLength="202" x="258.4396" y="580.6997">System allows Redo if redoable</text><!--MD5=[680a96bc5a934ed6a9e718314bf0d6c3]
@startuml
state IN_GAME
state ShowBoard as "Show board"
state showed as " "
state showed1 as " "
state is_undoable <<choice>>

[*] - -> IN_GAME
IN_GAME - -> ShowBoard: Player requests undo
ShowBoard - -> is_undoable
is_undoable - -> showed: [undoable]
note on link
  attempts > 0
end note
is_undoable - -> showed1
showed - -> [*]: System allows Propose\nSystem allows Undo\nSystem allows Redo if redoable
showed1 - -> [*]: System allows Propose\nSystem allows Redo if redoable
@enduml

PlantUML version 1.2021.4beta3(Unknown compile time)
(GPL source distribution)
Java Runtime: Java(TM) SE Runtime Environment
JVM: Java HotSpot(TM) 64-Bit Server VM
Default Encoding: UTF-8
Language: en
Country: US
--></g></svg>