<?xml version="1.0" encoding="UTF-8" standalone="no"?><svg xmlns="http://www.w3.org/2000/svg" xmlns:xlink="http://www.w3.org/1999/xlink" contentScriptType="application/ecmascript" contentStyleType="text/css" height="1119px" preserveAspectRatio="none" style="width:1221px;height:1119px;" version="1.1" viewBox="0 0 1221 1119" width="1221px" zoomAndPan="magnify"><defs><filter height="300%" id="f1b0ur64husc7s" width="300%" x="-1" y="-1"><feGaussianBlur result="blurOut" stdDeviation="2.0"/><feColorMatrix in="blurOut" result="blurOut2" type="matrix" values="0 0 0 0 0 0 0 0 0 0 0 0 0 0 0 0 0 0 .4 0"/><feOffset dx="4.0" dy="4.0" in="blurOut2" result="blurOut3"/><feBlend in="SourceGraphic" in2="blurOut3" mode="normal"/></filter></defs><g><!--MD5=[e2a75efa8a0f57c2afae8bf75386f79c]
cluster views--><polygon fill="#FFFFFF" filter="url(#f1b0ur64husc7s)" points="16,173.5,63,173.5,70,197.1094,734,197.1094,734,824.5,16,824.5,16,173.5" style="stroke:#000000;stroke-width:1.5;"/><line style="stroke:#000000;stroke-width:1.5;" x1="16" x2="70" y1="197.1094" y2="197.1094"/><text fill="#000000" font-family="sans-serif" font-size="14" font-weight="bold" lengthAdjust="spacing" textLength="41" x="20" y="190.0332">views</text><!--MD5=[f4e70ef68289585296b9045165e58692]
cluster controllers--><polygon fill="#FFFFFF" filter="url(#f1b0ur64husc7s)" points="786,514.5,869,514.5,876,538.1094,914,538.1094,914,616.5,786,616.5,786,514.5" style="stroke:#000000;stroke-width:1.5;"/><line style="stroke:#000000;stroke-width:1.5;" x1="786" x2="876" y1="538.1094" y2="538.1094"/><text fill="#000000" font-family="sans-serif" font-size="14" font-weight="bold" lengthAdjust="spacing" textLength="77" x="790" y="531.0332">controllers</text><!--MD5=[a60570e4b426f702ccbb0d459e3b9417]
cluster models--><polygon fill="#FFFFFF" filter="url(#f1b0ur64husc7s)" points="758,737.5,815,737.5,822,761.1094,1065,761.1094,1065,977.5,758,977.5,758,737.5" style="stroke:#000000;stroke-width:1.5;"/><line style="stroke:#000000;stroke-width:1.5;" x1="758" x2="822" y1="761.1094" y2="761.1094"/><text fill="#000000" font-family="sans-serif" font-size="14" font-weight="bold" lengthAdjust="spacing" textLength="51" x="762" y="754.0332">models</text><!--MD5=[67cd15ce44b6dd54f77054b62c31bf42]
cluster types--><polygon fill="#FFFFFF" filter="url(#f1b0ur64husc7s)" points="966,1010.5,1010,1010.5,1017,1034.1094,1046,1034.1094,1046,1112.5,966,1112.5,966,1010.5" style="stroke:#000000;stroke-width:1.5;"/><line style="stroke:#000000;stroke-width:1.5;" x1="966" x2="1017" y1="1034.1094" y2="1034.1094"/><text fill="#000000" font-family="sans-serif" font-size="14" font-weight="bold" lengthAdjust="spacing" textLength="38" x="970" y="1027.0332">types</text><rect fill="#FEFECE" filter="url(#f1b0ur64husc7s)" height="35.0938" style="stroke:#A80036;stroke-width:1.5;" width="65" x="139.5" y="209.5"/><text fill="#000000" font-family="sans-serif" font-size="12" lengthAdjust="spacing" textLength="51" x="146.5" y="223.957">StartView</text><line style="stroke:#A80036;stroke-width:1.5;" x1="140.5" x2="203.5" y1="228.5938" y2="228.5938"/><rect fill="#FEFECE" filter="url(#f1b0ur64husc7s)" height="35.0938" style="stroke:#A80036;stroke-width:1.5;" width="65" x="149.5" y="773.5"/><text fill="#000000" font-family="sans-serif" font-size="12" lengthAdjust="spacing" textLength="51" x="156.5" y="787.957">Message</text><line style="stroke:#A80036;stroke-width:1.5;" x1="150.5" x2="213.5" y1="792.5938" y2="792.5938"/><rect fill="#FEFECE" filter="url(#f1b0ur64husc7s)" height="35.0938" style="stroke:#A80036;stroke-width:1.5;" width="73" x="409.5" y="344.5"/><text fill="#000000" font-family="sans-serif" font-size="12" lengthAdjust="spacing" textLength="59" x="416.5" y="358.957">BoardView</text><line style="stroke:#A80036;stroke-width:1.5;" x1="410.5" x2="481.5" y1="363.5938" y2="363.5938"/><rect fill="#FEFECE" filter="url(#f1b0ur64husc7s)" height="35.0938" style="stroke:#A80036;stroke-width:1.5;" width="146" x="69" y="558"/><text fill="#000000" font-family="sans-serif" font-size="12" lengthAdjust="spacing" textLength="132" x="76" y="572.457">SecretCombinationView</text><line style="stroke:#A80036;stroke-width:1.5;" x1="70" x2="214" y1="577.0938" y2="577.0938"/><rect fill="#FEFECE" filter="url(#f1b0ur64husc7s)" height="35.0938" style="stroke:#A80036;stroke-width:1.5;" width="165" x="552.5" y="558"/><text fill="#000000" font-family="sans-serif" font-size="12" lengthAdjust="spacing" textLength="151" x="559.5" y="572.457">ProposedCombinationView</text><line style="stroke:#A80036;stroke-width:1.5;" x1="553.5" x2="716.5" y1="577.0938" y2="577.0938"/><rect fill="#FEFECE" filter="url(#f1b0ur64husc7s)" height="35.0938" style="stroke:#A80036;stroke-width:1.5;" width="76" x="250" y="558"/><text fill="#000000" font-family="sans-serif" font-size="12" lengthAdjust="spacing" textLength="62" x="257" y="572.457">ResultView</text><line style="stroke:#A80036;stroke-width:1.5;" x1="251" x2="325" y1="577.0938" y2="577.0938"/><rect fill="#FEFECE" filter="url(#f1b0ur64husc7s)" height="35.0938" style="stroke:#A80036;stroke-width:1.5;" width="70" x="580" y="773.5"/><text fill="#000000" font-family="sans-serif" font-size="12" lengthAdjust="spacing" textLength="56" x="587" y="787.957">ColorView</text><line style="stroke:#A80036;stroke-width:1.5;" x1="581" x2="649" y1="792.5938" y2="792.5938"/><rect fill="#FEFECE" filter="url(#f1b0ur64husc7s)" height="50.1875" style="stroke:#A80036;stroke-width:1.5;" width="96" x="802" y="550.5"/><text fill="#000000" font-family="sans-serif" font-size="12" lengthAdjust="spacing" textLength="78" x="811" y="564.957">startController</text><text fill="#000000" font-family="sans-serif" font-size="12" lengthAdjust="spacing" textLength="82" x="809" y="580.0508">:StartController</text><line style="stroke:#A80036;stroke-width:1.5;" x1="803" x2="897" y1="584.6875" y2="584.6875"/><rect fill="#FEFECE" filter="url(#f1b0ur64husc7s)" height="35.0938" style="stroke:#A80036;stroke-width:1.5;" width="47" x="876.5" y="773.5"/><text fill="#000000" font-family="sans-serif" font-size="12" lengthAdjust="spacing" textLength="33" x="883.5" y="787.957">Board</text><line style="stroke:#A80036;stroke-width:1.5;" x1="877.5" x2="922.5" y1="792.5938" y2="792.5938"/><rect fill="#FEFECE" filter="url(#f1b0ur64husc7s)" height="35.0938" style="stroke:#A80036;stroke-width:1.5;" width="50" x="784" y="926.5"/><text fill="#000000" font-family="sans-serif" font-size="12" lengthAdjust="spacing" textLength="36" x="791" y="940.957">Result</text><line style="stroke:#A80036;stroke-width:1.5;" x1="785" x2="833" y1="945.5938" y2="945.5938"/><rect fill="#FEFECE" filter="url(#f1b0ur64husc7s)" height="35.0938" style="stroke:#A80036;stroke-width:1.5;" width="139" x="879.5" y="926.5"/><text fill="#000000" font-family="sans-serif" font-size="12" lengthAdjust="spacing" textLength="125" x="886.5" y="940.957">ProposedCombination</text><line style="stroke:#A80036;stroke-width:1.5;" x1="880.5" x2="1017.5" y1="945.5938" y2="945.5938"/><rect fill="#FEFECE" filter="url(#f1b0ur64husc7s)" height="50.1875" style="stroke:#A80036;stroke-width:1.5;" width="47" x="982.5" y="1046.5"/><text fill="#000000" font-family="sans-serif" font-size="12" lengthAdjust="spacing" textLength="27" x="992.5" y="1060.957">color</text><text fill="#000000" font-family="sans-serif" font-size="12" lengthAdjust="spacing" textLength="33" x="989.5" y="1076.0508">:Color</text><line style="stroke:#A80036;stroke-width:1.5;" x1="983.5" x2="1028.5" y1="1080.6875" y2="1080.6875"/><!--MD5=[de2effd8dc5bf946a609466312d0f75f]
entity Player--><ellipse cx="172" cy="14" fill="#FEFECE" filter="url(#f1b0ur64husc7s)" rx="8" ry="8" style="stroke:#A80036;stroke-width:1.5;"/><path d="M172,22 L172,49 M159,30 L185,30 M172,49 L159,64 M172,49 L185,64 " fill="none" filter="url(#f1b0ur64husc7s)" style="stroke:#A80036;stroke-width:1.5;"/><text fill="#000000" font-family="sans-serif" font-size="14" lengthAdjust="spacing" textLength="40" x="152" y="84.0332">Player</text><!--MD5=[eeb6915416cd4d75847d2a39a6e2e3ff]
link Player to StartView--><path codeLine="29" d="M172,87.62 C172,123.74 172,175.19 172,204.1 " fill="none" id="Player-to-StartView" style="stroke:#A80036;stroke-width:1.0;"/><polygon fill="#A80036" points="172,209.23,176,200.23,172,204.23,168,200.23,172,209.23" style="stroke:#A80036;stroke-width:1.0;"/><path d="M177,122.5 L177,148.5 L232,148.5 L232,132.5 L222,122.5 L177,122.5 " fill="#FBFB77" filter="url(#f1b0ur64husc7s)" style="stroke:#A80036;stroke-width:1.0;"/><path d="M222,122.5 L222,132.5 L232,132.5 L222,122.5 " fill="#FBFB77" style="stroke:#A80036;stroke-width:1.0;"/><text fill="#000000" font-family="sans-serif" font-size="13" lengthAdjust="spacing" textLength="34" x="183" y="140.9951">start()</text><!--MD5=[97e9ace985d716348ec86012fc7f7728]
link StartView to Message--><path codeLine="33" d="M159.85,244.54 C137.87,275.34 91.58,344.27 68,409.5 C35.41,499.64 25.13,532.2 51,624.5 C68.48,686.89 124.31,742.05 157.17,770.2 " fill="none" id="StartView-to-Message" style="stroke:#A80036;stroke-width:1.0;stroke-dasharray:7.0,7.0;"/><polygon fill="#A80036" points="161.06,773.5,156.7941,764.6229,157.2507,770.2613,151.6123,770.7179,161.06,773.5" style="stroke:#A80036;stroke-width:1.0;"/><path d="M73,439 L73,465 L129,465 L129,449 L119,439 L73,439 " fill="#FBFB77" filter="url(#f1b0ur64husc7s)" style="stroke:#A80036;stroke-width:1.0;"/><path d="M119,439 L119,449 L129,449 L119,439 " fill="#FBFB77" style="stroke:#A80036;stroke-width:1.0;"/><text fill="#000000" font-family="sans-serif" font-size="13" lengthAdjust="spacing" textLength="35" x="79" y="457.4951">write()</text><!--MD5=[2b5890793a76472eff4c2a6a4af43287]
link StartView to BoardView--><path codeLine="37" d="M204.51,243.78 C255.15,268.36 352.68,315.7 407.02,342.08 " fill="none" id="StartView-to-BoardView" style="stroke:#A80036;stroke-width:1.0;stroke-dasharray:7.0,7.0;"/><polygon fill="#A80036" points="411.82,344.41,405.472,336.8798,407.3225,342.2255,401.9768,344.0759,411.82,344.41" style="stroke:#A80036;stroke-width:1.0;"/><path d="M355,279.5 L355,305.5 L492,305.5 L492,289.5 L482,279.5 L355,279.5 " fill="#FBFB77" filter="url(#f1b0ur64husc7s)" style="stroke:#A80036;stroke-width:1.0;"/><path d="M482,279.5 L482,289.5 L492,289.5 L482,279.5 " fill="#FBFB77" style="stroke:#A80036;stroke-width:1.0;"/><text fill="#000000" font-family="sans-serif" font-size="13" lengthAdjust="spacing" textLength="116" x="361" y="297.9951">write(startController)</text><!--MD5=[a9ba683329f11892f43ef8c9dac7d5e3]
link BoardView to StartController--><path codeLine="41" d="M482.72,364.22 C529.93,367.14 613.28,376.91 676,409.5 C741.23,443.39 799.25,509.02 828.98,546.49 " fill="none" id="BoardView-to-StartController" style="stroke:#A80036;stroke-width:1.0;stroke-dasharray:7.0,7.0;"/><polygon fill="#A80036" points="832.11,550.47,829.6964,540.9215,829.0215,546.5379,823.4051,545.863,832.11,550.47" style="stroke:#A80036;stroke-width:1.0;"/><path d="M791,414.5 L791,489.5 L1047,489.5 L1047,424.5 L1037,414.5 L791,414.5 " fill="#FBFB77" filter="url(#f1b0ur64husc7s)" style="stroke:#A80036;stroke-width:1.0;"/><path d="M1037,414.5 L1037,424.5 L1047,424.5 L1037,414.5 " fill="#FBFB77" style="stroke:#A80036;stroke-width:1.0;"/><text fill="#000000" font-family="sans-serif" font-size="13" lengthAdjust="spacing" textLength="79" x="797" y="432.9951">getAttempts()</text><text fill="#000000" font-family="sans-serif" font-size="13" lengthAdjust="spacing" textLength="235" x="797" y="449.3467">getProposedCombinationColors(position)</text><text fill="#000000" font-family="sans-serif" font-size="13" lengthAdjust="spacing" textLength="111" x="797" y="465.6982">getBlacks(position)</text><text fill="#000000" font-family="sans-serif" font-size="13" lengthAdjust="spacing" textLength="112" x="797" y="482.0498">getWhites(position)</text><!--MD5=[02a16ebf8539d2e5d44c3be387606aac]
link BoardView to Message--><path codeLine="48" d="M450.99,379.64 C458.21,407.45 467.98,463.72 441,498.5 C433.33,508.39 422.01,496.88 414,506.5 C352.48,580.33 451.45,646.79 391,721.5 C349.17,773.19 267.53,786.26 219.6,789.32 " fill="none" id="BoardView-to-Message" style="stroke:#A80036;stroke-width:1.0;stroke-dasharray:7.0,7.0;"/><polygon fill="#A80036" points="214.5,789.62,223.7135,793.1,219.4919,789.3348,223.2571,785.1131,214.5,789.62" style="stroke:#A80036;stroke-width:1.0;"/><path d="M419,560.5 L419,586.5 L526,586.5 L526,570.5 L516,560.5 L419,560.5 " fill="#FBFB77" filter="url(#f1b0ur64husc7s)" style="stroke:#A80036;stroke-width:1.0;"/><path d="M516,560.5 L516,570.5 L526,570.5 L516,560.5 " fill="#FBFB77" style="stroke:#A80036;stroke-width:1.0;"/><text fill="#000000" font-family="sans-serif" font-size="13" lengthAdjust="spacing" textLength="86" x="425" y="578.9951">write(attempts)</text><!--MD5=[5418e21908cb409c36d98acf7a0f9cb6]
link BoardView to SecretCombinationView--><path codeLine="52" d="M409.27,364.91 C345.94,368.94 219.89,380.47 188,409.5 C147.2,446.65 141.38,516.65 141.26,552.34 " fill="none" id="BoardView-to-SecretCombinationView" style="stroke:#A80036;stroke-width:1.0;stroke-dasharray:7.0,7.0;"/><polygon fill="#A80036" points="141.29,557.77,145.2385,548.7473,141.2614,552.7701,137.2386,548.793,141.29,557.77" style="stroke:#A80036;stroke-width:1.0;"/><path d="M193,439 L193,465 L249,465 L249,449 L239,439 L193,439 " fill="#FBFB77" filter="url(#f1b0ur64husc7s)" style="stroke:#A80036;stroke-width:1.0;"/><path d="M239,439 L239,449 L249,449 L239,439 " fill="#FBFB77" style="stroke:#A80036;stroke-width:1.0;"/><text fill="#000000" font-family="sans-serif" font-size="13" lengthAdjust="spacing" textLength="35" x="199" y="457.4951">write()</text><!--MD5=[d0c6e2bebacb85fe1d099bc6a8097bbc]
link SecretCombinationView to Message--><path codeLine="56" d="M135.06,593.16 C124.62,620.73 107.76,677.2 124,721.5 C130.85,740.2 145.31,757.29 158.08,769.73 " fill="none" id="SecretCombinationView-to-Message" style="stroke:#A80036;stroke-width:1.0;stroke-dasharray:7.0,7.0;"/><polygon fill="#A80036" points="161.98,773.44,158.2223,764.3362,158.3597,769.9914,152.7045,770.1287,161.98,773.44" style="stroke:#A80036;stroke-width:1.0;"/><path d="M129,662 L129,688 L185,688 L185,672 L175,662 L129,662 " fill="#FBFB77" filter="url(#f1b0ur64husc7s)" style="stroke:#A80036;stroke-width:1.0;"/><path d="M175,662 L175,672 L185,672 L175,662 " fill="#FBFB77" style="stroke:#A80036;stroke-width:1.0;"/><text fill="#000000" font-family="sans-serif" font-size="13" lengthAdjust="spacing" textLength="35" x="135" y="680.4951">write()</text><!--MD5=[b92bc89b5449472b10f1cf1477809057]
link BoardView to ProposedCombinationView--><path codeLine="60" d="M460.83,379.6 C495.06,417.9 579.48,512.37 616.78,554.11 " fill="none" id="BoardView-to-ProposedCombinationView" style="stroke:#A80036;stroke-width:1.0;stroke-dasharray:7.0,7.0;"/><polygon fill="#A80036" points="620.24,557.98,617.2303,548.6023,616.9102,554.2501,611.2624,553.9299,620.24,557.98" style="stroke:#A80036;stroke-width:1.0;"/><path d="M568,439 L568,465 L659,465 L659,449 L649,439 L568,439 " fill="#FBFB77" filter="url(#f1b0ur64husc7s)" style="stroke:#A80036;stroke-width:1.0;"/><path d="M649,439 L649,449 L659,449 L649,439 " fill="#FBFB77" style="stroke:#A80036;stroke-width:1.0;"/><text fill="#000000" font-family="sans-serif" font-size="13" lengthAdjust="spacing" textLength="70" x="574" y="457.4951">write(colors)</text><!--MD5=[54923e7f1f8105ab44ef05f41a7d666e]
link ProposedCombinationView to ColorView--><path codeLine="64" d="M620.9,593.43 C613.07,603.96 604.11,618.17 600,632.5 C586.54,679.42 599,737.1 607.88,767.99 " fill="none" id="ProposedCombinationView-to-ColorView" style="stroke:#A80036;stroke-width:1.0;stroke-dasharray:7.0,7.0;"/><polygon fill="#A80036" points="609.37,773.07,610.6632,763.3064,607.9569,768.2739,602.9894,765.5675,609.37,773.07" style="stroke:#A80036;stroke-width:1.0;"/><path d="M605,662 L605,688 L689,688 L689,672 L679,662 L605,662 " fill="#FBFB77" filter="url(#f1b0ur64husc7s)" style="stroke:#A80036;stroke-width:1.0;"/><path d="M679,662 L679,672 L689,672 L679,662 " fill="#FBFB77" style="stroke:#A80036;stroke-width:1.0;"/><text fill="#000000" font-family="sans-serif" font-size="13" lengthAdjust="spacing" textLength="63" x="611" y="680.4951">write(color)</text><!--MD5=[3c978e882819d5791a3d8cfa6d73d565]
link ColorView to Color--><path codeLine="68" d="M616.76,808.54 C621.81,847.27 639.89,944.36 698,994.5 C740.27,1030.97 908.73,1057.34 977.02,1066.73 " fill="none" id="ColorView-to-Color" style="stroke:#A80036;stroke-width:1.0;stroke-dasharray:7.0,7.0;"/><polygon fill="#A80036" points="982.15,1067.43,973.7683,1062.2582,977.1952,1066.7589,972.6946,1070.1858,982.15,1067.43" style="stroke:#A80036;stroke-width:1.0;"/><!--MD5=[15f682a315f16673a58b132a229e1ff0]
link BoardView to ResultView--><path codeLine="69" d="M409.26,368.37 C366.28,375.48 299.05,389.52 284,409.5 C252.12,451.82 268.38,519.09 279.87,553.18 " fill="none" id="BoardView-to-ResultView" style="stroke:#A80036;stroke-width:1.0;stroke-dasharray:7.0,7.0;"/><polygon fill="#A80036" points="281.52,557.97,282.3621,548.1572,279.8874,553.244,274.8006,550.7694,281.52,557.97" style="stroke:#A80036;stroke-width:1.0;"/><path d="M289,439 L289,465 L428,465 L428,449 L418,439 L289,439 " fill="#FBFB77" filter="url(#f1b0ur64husc7s)" style="stroke:#A80036;stroke-width:1.0;"/><path d="M418,439 L418,449 L428,449 L418,439 " fill="#FBFB77" style="stroke:#A80036;stroke-width:1.0;"/><text fill="#000000" font-family="sans-serif" font-size="13" lengthAdjust="spacing" textLength="118" x="295" y="457.4951">write(blacks, whites)</text><!--MD5=[0e5df9184d8007a1cb9785d3f6966635]
link ResultView to Message--><path codeLine="73" d="M267.96,593.16 C256.64,603.48 243,617.58 234,632.5 C219.92,655.82 198.25,730.7 187.9,768.19 " fill="none" id="ResultView-to-Message" style="stroke:#A80036;stroke-width:1.0;stroke-dasharray:7.0,7.0;"/><polygon fill="#A80036" points="186.46,773.44,192.7043,765.8236,187.7864,768.6192,184.9909,763.7013,186.46,773.44" style="stroke:#A80036;stroke-width:1.0;"/><path d="M239,662 L239,688 L378,688 L378,672 L368,662 L239,662 " fill="#FBFB77" filter="url(#f1b0ur64husc7s)" style="stroke:#A80036;stroke-width:1.0;"/><path d="M368,662 L368,672 L378,672 L368,662 " fill="#FBFB77" style="stroke:#A80036;stroke-width:1.0;"/><text fill="#000000" font-family="sans-serif" font-size="13" lengthAdjust="spacing" textLength="118" x="245" y="680.4951">write(blacks, whites)</text><!--MD5=[7e78854ab8a5a21afc179f6b3c443ded]
link StartController to Board--><path codeLine="77" d="M844.57,600.62 C839.06,630.05 833.12,680.88 847,721.5 C853.26,739.81 866.62,757.02 878.36,769.61 " fill="none" id="StartController-to-Board" style="stroke:#A80036;stroke-width:1.0;"/><polygon fill="#A80036" points="881.94,773.37,878.6096,764.1013,878.4839,769.7568,872.8284,769.6311,881.94,773.37" style="stroke:#A80036;stroke-width:1.0;"/><path d="M852,637.5 L852,712.5 L1108,712.5 L1108,647.5 L1098,637.5 L852,637.5 " fill="#FBFB77" filter="url(#f1b0ur64husc7s)" style="stroke:#A80036;stroke-width:1.0;"/><path d="M1098,637.5 L1098,647.5 L1108,647.5 L1098,637.5 " fill="#FBFB77" style="stroke:#A80036;stroke-width:1.0;"/><text fill="#000000" font-family="sans-serif" font-size="13" lengthAdjust="spacing" textLength="79" x="858" y="655.9951">getAttempts()</text><text fill="#000000" font-family="sans-serif" font-size="13" lengthAdjust="spacing" textLength="235" x="858" y="672.3467">getProposedCombinationColors(position)</text><text fill="#000000" font-family="sans-serif" font-size="13" lengthAdjust="spacing" textLength="111" x="858" y="688.6982">getBlacks(position)</text><text fill="#000000" font-family="sans-serif" font-size="13" lengthAdjust="spacing" textLength="112" x="858" y="705.0498">getWhites(position)</text><!--MD5=[8dd95aff79c51151a18c835e3410b3cd]
link Board to Result--><path codeLine="84" d="M864.9585,800.0789 C864.9585,800.0789 817.81,819.57 805,840.5 C791.66,862.28 794.53,891.83 799.62,913.6 " fill="none" id="Board-Result" style="stroke:#A80036;stroke-width:1.0;"/><polygon fill="#A80036" points="803.05,926.32,804.5795,916.5906,801.7535,921.491,796.8531,918.6651,803.05,926.32" style="stroke:#A80036;stroke-width:1.0;"/><line style="stroke:#A80036;stroke-width:1.0;" x1="801.7535" x2="799.665" y1="921.491" y2="913.77"/><polygon fill="#A80036" points="876.47,796.69,869.5846,794.5472,864.9585,800.0789,871.8438,802.2216,876.47,796.69" style="stroke:#A80036;stroke-width:1.0;"/><path d="M810,845.5 L810,887.5 L898,887.5 L898,855.5 L888,845.5 L810,845.5 " fill="#FBFB77" filter="url(#f1b0ur64husc7s)" style="stroke:#A80036;stroke-width:1.0;"/><path d="M888,845.5 L888,855.5 L898,855.5 L888,845.5 " fill="#FBFB77" style="stroke:#A80036;stroke-width:1.0;"/><text fill="#000000" font-family="sans-serif" font-size="13" lengthAdjust="spacing" textLength="66" x="816" y="863.9951">getBlacks()</text><text fill="#000000" font-family="sans-serif" font-size="13" lengthAdjust="spacing" textLength="67" x="816" y="880.3467">getWhites()</text><!--MD5=[e0b5d9907fda64872c10fd6493e0c51f]
link Board to ProposedCombination--><path codeLine="89" d="M909.1375,820.1529 C909.1375,820.1529 930.79,886.9 939.43,913.52 " fill="none" id="Board-ProposedCombination" style="stroke:#A80036;stroke-width:1.0;"/><polygon fill="#A80036" points="943.54,926.19,944.567,916.3948,941.9968,921.4341,936.9575,918.8639,943.54,926.19" style="stroke:#A80036;stroke-width:1.0;"/><line style="stroke:#A80036;stroke-width:1.0;" x1="941.9968" x2="939.53" y1="921.4341" y2="913.825"/><polygon fill="#A80036" points="905.43,808.74,903.4795,815.6823,909.1375,820.1529,911.0881,813.2106,905.43,808.74" style="stroke:#A80036;stroke-width:1.0;"/><path d="M938,853.5 L938,879.5 L1022,879.5 L1022,863.5 L1012,853.5 L938,853.5 " fill="#FBFB77" filter="url(#f1b0ur64husc7s)" style="stroke:#A80036;stroke-width:1.0;"/><path d="M1012,853.5 L1012,863.5 L1022,863.5 L1012,853.5 " fill="#FBFB77" style="stroke:#A80036;stroke-width:1.0;"/><text fill="#000000" font-family="sans-serif" font-size="13" lengthAdjust="spacing" textLength="63" x="944" y="871.9951">getColors()</text><!--MD5=[2d4500cc75f159eca4a02f9c13f05618]
link ProposedCombination to Color--><path codeLine="93" d="M961.5267,972.5985 C961.5267,972.5985 980.84,1015.11 989.62,1034.44 " fill="none" id="ProposedCombination-Color" style="stroke:#A80036;stroke-width:1.0;"/><polygon fill="#A80036" points="995.08,1046.45,994.991,1036.6015,993.0081,1041.8995,987.7101,1039.9166,995.08,1046.45" style="stroke:#A80036;stroke-width:1.0;"/><line style="stroke:#A80036;stroke-width:1.0;" x1="993.0081" x2="989.7" y1="1041.8995" y2="1034.615"/><polygon fill="#A80036" points="956.57,961.67,955.4055,968.7865,961.5267,972.5985,962.6912,965.482,956.57,961.67" style="stroke:#A80036;stroke-width:1.0;"/><!--MD5=[e8e56f95b2bfb8e03c3cdf9f0e0c50ee]
link Board to Color--><path codeLine="94" d="M923.51,792.43 C955.75,794.45 1012.66,803.41 1039,840.5 C1082.36,901.55 1045.49,994.99 1021.94,1041.75 " fill="none" id="Board-to-Color" style="stroke:#A80036;stroke-width:1.0;stroke-dasharray:7.0,7.0;"/><polygon fill="#A80036" points="1019.57,1046.4,1027.2361,1040.2169,1021.8516,1041.9509,1020.1176,1036.5664,1019.57,1046.4" style="stroke:#A80036;stroke-width:1.0;"/><!--MD5=[69a1b9a8422e14e14037057a3d2e1465]
link StartController to Color--><path codeLine="95" d="M898.21,579.36 C968.41,584.64 1093.43,598.65 1121,632.5 C1170.6,693.39 1144.77,830.6 1068,994.5 C1059.48,1012.68 1045.66,1030.24 1033.22,1043.89 " fill="none" id="StartController-to-Color" style="stroke:#A80036;stroke-width:1.0;stroke-dasharray:7.0,7.0;"/><polygon fill="#A80036" points="1029.76,1047.63,1038.81,1043.7445,1033.1573,1043.9615,1032.9404,1038.3088,1029.76,1047.63" style="stroke:#A80036;stroke-width:1.0;"/><!--MD5=[12f03c7f5abb6c3e068862197d6139ed]
link BoardView to Color--><path codeLine="96" d="M482.72,364.18 C607.72,368.43 1011.79,384.02 1064,409.5 C1153.07,452.97 1214,475.39 1214,574.5 C1214,574.5 1214,574.5 1214,945 C1214,1027.7 1091.97,1057.34 1034.85,1066.68 " fill="none" id="BoardView-to-Color" style="stroke:#A80036;stroke-width:1.0;stroke-dasharray:7.0,7.0;"/><polygon fill="#A80036" points="1029.86,1067.48,1039.3764,1070.0175,1034.798,1066.6951,1038.1204,1062.1167,1029.86,1067.48" style="stroke:#A80036;stroke-width:1.0;"/><!--MD5=[644d3bda32b13afd96f2f5d418a902c1]
link ProposedCombinationView to Color--><path codeLine="97" d="M663.01,593.01 C676.97,602.72 692.8,616.28 702,632.5 C780.37,770.67 655.79,863.9 758,985.5 C813.92,1052.03 924.39,1066.6 976.92,1069.71 " fill="none" id="ProposedCombinationView-to-Color" style="stroke:#A80036;stroke-width:1.0;stroke-dasharray:7.0,7.0;"/><polygon fill="#A80036" points="982.13,1069.99,973.3601,1065.508,977.1374,1069.719,972.9264,1073.4963,982.13,1069.99" style="stroke:#A80036;stroke-width:1.0;"/><!--MD5=[2235b1441c81babeca5ccea13135e1d7]
@startuml mastermind_analisis_usecase_start
allow_mixing

actor Player

package views {
    object StartView
    object Message
    object BoardView
    object SecretCombinationView
    object ProposedCombinationView
    object ResultView
    object ColorView
}

package controllers {
    object "startController\n:StartController" as StartController
}

package models {
    object Board
    object Result
    object ProposedCombination
}

package types {
    object "color\n:Color" as Color
}

Player -down-> StartView
note on link
    start()
end note
StartView .down.> Message
note on link
    write()
end note
StartView .down.> BoardView
note on link
    write(startController)
end note
BoardView .down.> StartController
note on link
    getAttempts()
    getProposedCombinationColors(position)
    getBlacks(position)
    getWhites(position)
end note
BoardView .down.> Message
note on link
    write(attempts)
end note
BoardView .down.> SecretCombinationView
note on link
    write()
end note
SecretCombinationView .down.> Message
note on link
    write()
end note
BoardView .down.> ProposedCombinationView
note on link
    write(colors)
end note
ProposedCombinationView .down.> ColorView
note on link
    write(color)
end note
ColorView .down.> Color
BoardView .down.> ResultView
note on link
    write(blacks, whites)
end note
ResultView .down.> Message
note on link
    write(blacks, whites)
end note
StartController -down-> Board
note on link
    getAttempts()
    getProposedCombinationColors(position)
    getBlacks(position)
    getWhites(position)
end note
Board *-down-> Result
note on link
    getBlacks()
    getWhites()
end note
Board *-down-> ProposedCombination
note on link
    getColors()
end note
ProposedCombination *-down-> Color
Board .down.> Color
StartController .down.> Color
BoardView .down.> Color
ProposedCombinationView .down.> Color
@enduml

PlantUML version 1.2021.00(Sun Jan 10 11:25:05 CET 2021)
(GPL source distribution)
Java Runtime: Java(TM) SE Runtime Environment
JVM: Java HotSpot(TM) 64-Bit Server VM
Default Encoding: Cp1252
Language: es
Country: ES
--></g></svg>