<?xml version="1.0" encoding="UTF-8" standalone="no"?><svg xmlns="http://www.w3.org/2000/svg" xmlns:xlink="http://www.w3.org/1999/xlink" contentScriptType="application/ecmascript" contentStyleType="text/css" height="583px" preserveAspectRatio="none" style="width:342px;height:583px;" version="1.1" viewBox="0 0 342 583" width="342px" zoomAndPan="magnify"><defs><filter height="300%" id="fcyk53736pu3i" width="300%" x="-1" y="-1"><feGaussianBlur result="blurOut" stdDeviation="2.0"/><feColorMatrix in="blurOut" result="blurOut2" type="matrix" values="0 0 0 0 0 0 0 0 0 0 0 0 0 0 0 0 0 0 .4 0"/><feOffset dx="4.0" dy="4.0" in="blurOut2" result="blurOut3"/><feBlend in="SourceGraphic" in2="blurOut3" mode="normal"/></filter></defs><g><!--MD5=[f4e70ef68289585296b9045165e58692]
cluster controllers--><polygon fill="#FFFFFF" filter="url(#fcyk53736pu3i)" points="177,330.5,260,330.5,267,354.1094,305,354.1094,305,417.5,177,417.5,177,330.5" style="stroke:#000000;stroke-width:1.5;"/><line style="stroke:#000000;stroke-width:1.5;" x1="177" x2="267" y1="354.1094" y2="354.1094"/><text fill="#000000" font-family="sans-serif" font-size="14" font-weight="bold" lengthAdjust="spacing" textLength="77" x="181" y="347.0332">controllers</text><!--MD5=[a60570e4b426f702ccbb0d459e3b9417]
cluster models--><polygon fill="#FFFFFF" filter="url(#fcyk53736pu3i)" points="201,489.5,258,489.5,265,513.1094,281,513.1094,281,576.5,201,576.5,201,489.5" style="stroke:#000000;stroke-width:1.5;"/><line style="stroke:#000000;stroke-width:1.5;" x1="201" x2="265" y1="513.1094" y2="513.1094"/><text fill="#000000" font-family="sans-serif" font-size="14" font-weight="bold" lengthAdjust="spacing" textLength="51" x="205" y="506.0332">models</text><!--MD5=[e2a75efa8a0f57c2afae8bf75386f79c]
cluster views--><polygon fill="#FFFFFF" filter="url(#fcyk53736pu3i)" points="16,173.5,63,173.5,70,197.1094,153,197.1094,153,417.5,16,417.5,16,173.5" style="stroke:#000000;stroke-width:1.5;"/><line style="stroke:#000000;stroke-width:1.5;" x1="16" x2="70" y1="197.1094" y2="197.1094"/><text fill="#000000" font-family="sans-serif" font-size="14" font-weight="bold" lengthAdjust="spacing" textLength="41" x="20" y="190.0332">views</text><rect fill="#FEFECE" filter="url(#fcyk53736pu3i)" height="35.0938" style="stroke:#A80036;stroke-width:1.5;" width="95" x="193.5" y="366.5"/><text fill="#000000" font-family="sans-serif" font-size="12" lengthAdjust="spacing" textLength="81" x="200.5" y="380.957">SaveController</text><line style="stroke:#A80036;stroke-width:1.5;" x1="194.5" x2="287.5" y1="385.5938" y2="385.5938"/><rect fill="#FEFECE" filter="url(#fcyk53736pu3i)" height="35.0938" style="stroke:#A80036;stroke-width:1.5;" width="47" x="217.5" y="525.5"/><text fill="#000000" font-family="sans-serif" font-size="12" lengthAdjust="spacing" textLength="33" x="224.5" y="539.957">Board</text><line style="stroke:#A80036;stroke-width:1.5;" x1="218.5" x2="263.5" y1="544.5938" y2="544.5938"/><rect fill="#FEFECE" filter="url(#fcyk53736pu3i)" height="35.0938" style="stroke:#A80036;stroke-width:1.5;" width="67" x="51.5" y="209.5"/><text fill="#000000" font-family="sans-serif" font-size="12" lengthAdjust="spacing" textLength="53" x="58.5" y="223.957">SaveView</text><line style="stroke:#A80036;stroke-width:1.5;" x1="52.5" x2="117.5" y1="228.5938" y2="228.5938"/><rect fill="#FEFECE" filter="url(#fcyk53736pu3i)" height="35.0938" style="stroke:#A80036;stroke-width:1.5;" width="65" x="34.5" y="366.5"/><text fill="#000000" font-family="sans-serif" font-size="12" lengthAdjust="spacing" textLength="51" x="41.5" y="380.957">Message</text><line style="stroke:#A80036;stroke-width:1.5;" x1="35.5" x2="98.5" y1="385.5938" y2="385.5938"/><!--MD5=[fb2f237e4154b78a31e896754c8f6e24]
entity Playerr--><ellipse cx="85" cy="14" fill="#FEFECE" filter="url(#fcyk53736pu3i)" rx="8" ry="8" style="stroke:#A80036;stroke-width:1.5;"/><path d="M85,22 L85,49 M72,30 L98,30 M85,49 L72,64 M85,49 L98,64 " fill="none" filter="url(#fcyk53736pu3i)" style="stroke:#A80036;stroke-width:1.5;"/><text fill="#000000" font-family="sans-serif" font-size="14" lengthAdjust="spacing" textLength="40" x="65" y="84.0332">Player</text><!--MD5=[36bc17a3da7433a6dea07e779d982029]
link Playerr to SaveView--><path codeLine="18" d="M85,87.62 C85,123.74 85,175.19 85,204.1 " fill="none" id="Playerr-to-SaveView" style="stroke:#A80036;stroke-width:1.0;"/><polygon fill="#A80036" points="85,209.23,89,200.23,85,204.23,81,200.23,85,209.23" style="stroke:#A80036;stroke-width:1.0;"/><path d="M90,122.5 L90,148.5 L145,148.5 L145,132.5 L135,122.5 L90,122.5 " fill="#FBFB77" filter="url(#fcyk53736pu3i)" style="stroke:#A80036;stroke-width:1.0;"/><path d="M135,122.5 L135,132.5 L145,132.5 L135,122.5 " fill="#FBFB77" style="stroke:#A80036;stroke-width:1.0;"/><text fill="#000000" font-family="sans-serif" font-size="13" lengthAdjust="spacing" textLength="34" x="96" y="140.9951">save()</text><!--MD5=[0ed76daaaa8eb9a2c7db88a82d6377c4]
link SaveView to SaveController--><path codeLine="22" d="M115.7,244.67 C129.13,252.74 144.61,263.13 157,274.5 C185.95,301.08 212.48,338.47 227.68,361.69 " fill="none" id="SaveView-to-SaveController" style="stroke:#A80036;stroke-width:1.0;"/><polygon fill="#A80036" points="230.57,366.14,229.0294,356.4124,227.8496,361.9448,222.3171,360.765,230.57,366.14" style="stroke:#A80036;stroke-width:1.0;"/><path d="M197,279.5 L197,305.5 L284,305.5 L284,289.5 L274,279.5 L197,279.5 " fill="#FBFB77" filter="url(#fcyk53736pu3i)" style="stroke:#A80036;stroke-width:1.0;"/><path d="M274,279.5 L274,289.5 L284,289.5 L274,279.5 " fill="#FBFB77" style="stroke:#A80036;stroke-width:1.0;"/><text fill="#000000" font-family="sans-serif" font-size="13" lengthAdjust="spacing" textLength="66" x="203" y="297.9951">save(name)</text><!--MD5=[03d51df82c773ffb87e719fb137cf12c]
link SaveView to Message--><path codeLine="26" d="M83.07,244.59 C79.82,272.64 73.22,329.46 69.57,360.88 " fill="none" id="SaveView-to-Message" style="stroke:#A80036;stroke-width:1.0;stroke-dasharray:7.0,7.0;"/><polygon fill="#A80036" points="68.97,366.06,73.9984,357.5915,69.5567,361.0945,66.0537,356.6528,68.97,366.06" style="stroke:#A80036;stroke-width:1.0;"/><path d="M84,279.5 L84,305.5 L140,305.5 L140,289.5 L130,279.5 L84,279.5 " fill="#FBFB77" filter="url(#fcyk53736pu3i)" style="stroke:#A80036;stroke-width:1.0;"/><path d="M130,279.5 L130,289.5 L140,289.5 L130,279.5 " fill="#FBFB77" style="stroke:#A80036;stroke-width:1.0;"/><text fill="#000000" font-family="sans-serif" font-size="13" lengthAdjust="spacing" textLength="35" x="90" y="297.9951">write()</text><!--MD5=[8de0e6d720717934d2eb184aac9f1ad9]
link SaveController to Board--><path codeLine="30" d="M241,401.51 C241,429.93 241,488.15 241,519.99 " fill="none" id="SaveController-to-Board" style="stroke:#A80036;stroke-width:1.0;"/><polygon fill="#A80036" points="241,525.24,245,516.24,241,520.24,237,516.24,241,525.24" style="stroke:#A80036;stroke-width:1.0;"/><path d="M246,438.5 L246,464.5 L333,464.5 L333,448.5 L323,438.5 L246,438.5 " fill="#FBFB77" filter="url(#fcyk53736pu3i)" style="stroke:#A80036;stroke-width:1.0;"/><path d="M323,438.5 L323,448.5 L333,448.5 L323,438.5 " fill="#FBFB77" style="stroke:#A80036;stroke-width:1.0;"/><text fill="#000000" font-family="sans-serif" font-size="13" lengthAdjust="spacing" textLength="66" x="252" y="456.9951">save(name)</text><!--MD5=[02b39d3342417c2e2830ff55bd3fe17f]
@startuml mastermind_analisis_usecase_save
allow_mixing

actor :Player: as Playerr

package controllers  {
    object SaveController
}

package models  {
    object Board
}

package views {
    object SaveView
    object Message
}

Playerr - -> SaveView
note on link
    save()
end note
SaveView - -> SaveController
note on link
    save(name)
end note
SaveView ..> Message
note on link
    write()
end note
SaveController - -> Board
note on link
    save(name)
end note
@enduml

PlantUML version 1.2021.00(Sun Jan 10 11:25:05 CET 2021)
(GPL source distribution)
Java Runtime: Java(TM) SE Runtime Environment
JVM: Java HotSpot(TM) 64-Bit Server VM
Default Encoding: Cp1252
Language: es
Country: ES
--></g></svg>