<?xml version="1.0" encoding="UTF-8" standalone="no"?><svg xmlns="http://www.w3.org/2000/svg" xmlns:xlink="http://www.w3.org/1999/xlink" contentScriptType="application/ecmascript" contentStyleType="text/css" height="1547px" preserveAspectRatio="none" style="width:1763px;height:1547px;" version="1.1" viewBox="0 0 1763 1547" width="1763px" zoomAndPan="magnify"><defs><filter height="300%" id="f1fnkux1wbg4l7" width="300%" x="-1" y="-1"><feGaussianBlur result="blurOut" stdDeviation="2.0"/><feColorMatrix in="blurOut" result="blurOut2" type="matrix" values="0 0 0 0 0 0 0 0 0 0 0 0 0 0 0 0 0 0 .4 0"/><feOffset dx="4.0" dy="4.0" in="blurOut2" result="blurOut3"/><feBlend in="SourceGraphic" in2="blurOut3" mode="normal"/></filter></defs><g><!--MD5=[e2a75efa8a0f57c2afae8bf75386f79c]
cluster views--><polygon fill="#FFFFFF" filter="url(#f1fnkux1wbg4l7)" points="48.3,173.5,95.3,173.5,102.3,197.1094,906.3,197.1094,906.3,781,48.3,781,48.3,173.5" style="stroke:#000000;stroke-width:1.5;"/><line style="stroke:#000000;stroke-width:1.5;" x1="48.3" x2="102.3" y1="197.1094" y2="197.1094"/><text fill="#000000" font-family="sans-serif" font-size="14" font-weight="bold" lengthAdjust="spacing" textLength="41" x="52.3" y="190.0332">views</text><!--MD5=[f4e70ef68289585296b9045165e58692]
cluster controllers--><polygon fill="#FFFFFF" filter="url(#f1fnkux1wbg4l7)" points="1043.3,686.5,1126.3,686.5,1133.3,710.1094,1193.3,710.1094,1193.3,788.5,1043.3,788.5,1043.3,686.5" style="stroke:#000000;stroke-width:1.5;"/><line style="stroke:#000000;stroke-width:1.5;" x1="1043.3" x2="1133.3" y1="710.1094" y2="710.1094"/><text fill="#000000" font-family="sans-serif" font-size="14" font-weight="bold" lengthAdjust="spacing" textLength="77" x="1047.3" y="703.0332">controllers</text><!--MD5=[a60570e4b426f702ccbb0d459e3b9417]
cluster models--><polygon fill="#FFFFFF" filter="url(#f1fnkux1wbg4l7)" points="1099.3,974.5,1156.3,974.5,1163.3,998.1094,1594.3,998.1094,1594.3,1405.5,1099.3,1405.5,1099.3,974.5" style="stroke:#000000;stroke-width:1.5;"/><line style="stroke:#000000;stroke-width:1.5;" x1="1099.3" x2="1163.3" y1="998.1094" y2="998.1094"/><text fill="#000000" font-family="sans-serif" font-size="14" font-weight="bold" lengthAdjust="spacing" textLength="51" x="1103.3" y="991.0332">models</text><!--MD5=[67cd15ce44b6dd54f77054b62c31bf42]
cluster types--><polygon fill="#FFFFFF" filter="url(#f1fnkux1wbg4l7)" points="1035.3,1438.5,1079.3,1438.5,1086.3,1462.1094,1194.3,1462.1094,1194.3,1540.5,1035.3,1540.5,1035.3,1438.5" style="stroke:#000000;stroke-width:1.5;"/><line style="stroke:#000000;stroke-width:1.5;" x1="1035.3" x2="1086.3" y1="1462.1094" y2="1462.1094"/><text fill="#000000" font-family="sans-serif" font-size="14" font-weight="bold" lengthAdjust="spacing" textLength="38" x="1039.3" y="1455.0332">types</text><rect fill="#FEFECE" filter="url(#f1fnkux1wbg4l7)" height="35.0938" style="stroke:#A80036;stroke-width:1.5;" width="87" x="477.8" y="209.5"/><text fill="#000000" font-family="sans-serif" font-size="12" lengthAdjust="spacing" textLength="73" x="484.8" y="223.957">ProposeView</text><line style="stroke:#A80036;stroke-width:1.5;" x1="478.8" x2="563.8" y1="228.5938" y2="228.5938"/><rect fill="#FEFECE" filter="url(#f1fnkux1wbg4l7)" height="35.0938" style="stroke:#A80036;stroke-width:1.5;" width="65" x="256.8" y="730"/><text fill="#000000" font-family="sans-serif" font-size="12" lengthAdjust="spacing" textLength="51" x="263.8" y="744.457">Message</text><line style="stroke:#A80036;stroke-width:1.5;" x1="257.8" x2="320.8" y1="749.0938" y2="749.0938"/><rect fill="#FEFECE" filter="url(#f1fnkux1wbg4l7)" height="35.0938" style="stroke:#A80036;stroke-width:1.5;" width="73" x="372.8" y="344.5"/><text fill="#000000" font-family="sans-serif" font-size="12" lengthAdjust="spacing" textLength="59" x="379.8" y="358.957">BoardView</text><line style="stroke:#A80036;stroke-width:1.5;" x1="373.8" x2="444.8" y1="363.5938" y2="363.5938"/><rect fill="#FEFECE" filter="url(#f1fnkux1wbg4l7)" height="35.0938" style="stroke:#A80036;stroke-width:1.5;" width="146" x="403.3" y="522.5"/><text fill="#000000" font-family="sans-serif" font-size="12" lengthAdjust="spacing" textLength="132" x="410.3" y="536.957">SecretCombinationView</text><line style="stroke:#A80036;stroke-width:1.5;" x1="404.3" x2="548.3" y1="541.5938" y2="541.5938"/><rect fill="#FEFECE" filter="url(#f1fnkux1wbg4l7)" height="35.0938" style="stroke:#A80036;stroke-width:1.5;" width="165" x="724.8" y="522.5"/><text fill="#000000" font-family="sans-serif" font-size="12" lengthAdjust="spacing" textLength="151" x="731.8" y="536.957">ProposedCombinationView</text><line style="stroke:#A80036;stroke-width:1.5;" x1="725.8" x2="888.8" y1="541.5938" y2="541.5938"/><rect fill="#FEFECE" filter="url(#f1fnkux1wbg4l7)" height="35.0938" style="stroke:#A80036;stroke-width:1.5;" width="76" x="101.3" y="522.5"/><text fill="#000000" font-family="sans-serif" font-size="12" lengthAdjust="spacing" textLength="62" x="108.3" y="536.957">ResultView</text><line style="stroke:#A80036;stroke-width:1.5;" x1="102.3" x2="176.3" y1="541.5938" y2="541.5938"/><rect fill="#FEFECE" filter="url(#f1fnkux1wbg4l7)" height="35.0938" style="stroke:#A80036;stroke-width:1.5;" width="70" x="651.3" y="730"/><text fill="#000000" font-family="sans-serif" font-size="12" lengthAdjust="spacing" textLength="56" x="658.3" y="744.457">ColorView</text><line style="stroke:#A80036;stroke-width:1.5;" x1="652.3" x2="720.3" y1="749.0938" y2="749.0938"/><rect fill="#FEFECE" filter="url(#f1fnkux1wbg4l7)" height="35.0938" style="stroke:#A80036;stroke-width:1.5;" width="67" x="776.8" y="730"/><text fill="#000000" font-family="sans-serif" font-size="12" lengthAdjust="spacing" textLength="53" x="783.8" y="744.457">ErrorView</text><line style="stroke:#A80036;stroke-width:1.5;" x1="777.8" x2="842.8" y1="749.0938" y2="749.0938"/><rect fill="#FEFECE" filter="url(#f1fnkux1wbg4l7)" height="35.0938" style="stroke:#A80036;stroke-width:1.5;" width="70" x="595.3" y="344.5"/><text fill="#000000" font-family="sans-serif" font-size="12" lengthAdjust="spacing" textLength="56" x="602.3" y="358.957">MenuView</text><line style="stroke:#A80036;stroke-width:1.5;" x1="596.3" x2="664.3" y1="363.5938" y2="363.5938"/><rect fill="#FEFECE" filter="url(#f1fnkux1wbg4l7)" height="50.1875" style="stroke:#A80036;stroke-width:1.5;" width="118" x="1059.3" y="722.5"/><text fill="#000000" font-family="sans-serif" font-size="12" lengthAdjust="spacing" textLength="100" x="1068.3" y="736.957">proposeController</text><text fill="#000000" font-family="sans-serif" font-size="12" lengthAdjust="spacing" textLength="104" x="1066.3" y="752.0508">:ProposeController</text><line style="stroke:#A80036;stroke-width:1.5;" x1="1060.3" x2="1176.3" y1="756.6875" y2="756.6875"/><rect fill="#FEFECE" filter="url(#f1fnkux1wbg4l7)" height="35.0938" style="stroke:#A80036;stroke-width:1.5;" width="47" x="1325.8" y="1013"/><text fill="#000000" font-family="sans-serif" font-size="12" lengthAdjust="spacing" textLength="33" x="1332.8" y="1027.457">Board</text><line style="stroke:#A80036;stroke-width:1.5;" x1="1326.8" x2="1371.8" y1="1032.0938" y2="1032.0938"/><rect fill="#FEFECE" filter="url(#f1fnkux1wbg4l7)" height="35.0938" style="stroke:#A80036;stroke-width:1.5;" width="50" x="1454.3" y="1347"/><text fill="#000000" font-family="sans-serif" font-size="12" lengthAdjust="spacing" textLength="36" x="1461.3" y="1361.457">Result</text><line style="stroke:#A80036;stroke-width:1.5;" x1="1455.3" x2="1503.3" y1="1366.0938" y2="1366.0938"/><rect fill="#FEFECE" filter="url(#f1fnkux1wbg4l7)" height="50.1875" style="stroke:#A80036;stroke-width:1.5;" width="142" x="1179.3" y="1339.5"/><text fill="#000000" font-family="sans-serif" font-size="12" lengthAdjust="spacing" textLength="124" x="1188.3" y="1353.957">proposedCombination</text><text fill="#000000" font-family="sans-serif" font-size="12" lengthAdjust="spacing" textLength="128" x="1186.3" y="1369.0508">:ProposedCombination</text><line style="stroke:#A80036;stroke-width:1.5;" x1="1180.3" x2="1320.3" y1="1373.6875" y2="1373.6875"/><rect fill="#FEFECE" filter="url(#f1fnkux1wbg4l7)" height="35.0938" style="stroke:#A80036;stroke-width:1.5;" width="120" x="1286.3" y="1169.5"/><text fill="#000000" font-family="sans-serif" font-size="12" lengthAdjust="spacing" textLength="106" x="1293.3" y="1183.957">SecretCombination</text><line style="stroke:#A80036;stroke-width:1.5;" x1="1287.3" x2="1405.3" y1="1188.5938" y2="1188.5938"/><rect fill="#FEFECE" filter="url(#f1fnkux1wbg4l7)" height="50.1875" style="stroke:#A80036;stroke-width:1.5;" width="47" x="1051.8" y="1474.5"/><text fill="#000000" font-family="sans-serif" font-size="12" lengthAdjust="spacing" textLength="27" x="1061.8" y="1488.957">color</text><text fill="#000000" font-family="sans-serif" font-size="12" lengthAdjust="spacing" textLength="33" x="1058.8" y="1504.0508">:Color</text><line style="stroke:#A80036;stroke-width:1.5;" x1="1052.8" x2="1097.8" y1="1508.6875" y2="1508.6875"/><rect fill="#FEFECE" filter="url(#f1fnkux1wbg4l7)" height="50.1875" style="stroke:#A80036;stroke-width:1.5;" width="44" x="1134.3" y="1474.5"/><text fill="#000000" font-family="sans-serif" font-size="12" lengthAdjust="spacing" textLength="26" x="1143.3" y="1488.957">error</text><text fill="#000000" font-family="sans-serif" font-size="12" lengthAdjust="spacing" textLength="30" x="1141.3" y="1504.0508">:Error</text><line style="stroke:#A80036;stroke-width:1.5;" x1="1135.3" x2="1177.3" y1="1508.6875" y2="1508.6875"/><!--MD5=[de2effd8dc5bf946a609466312d0f75f]
entity Player--><ellipse cx="521.3" cy="14" fill="#FEFECE" filter="url(#f1fnkux1wbg4l7)" rx="8" ry="8" style="stroke:#A80036;stroke-width:1.5;"/><path d="M521.3,22 L521.3,49 M508.3,30 L534.3,30 M521.3,49 L508.3,64 M521.3,49 L534.3,64 " fill="none" filter="url(#f1fnkux1wbg4l7)" style="stroke:#A80036;stroke-width:1.5;"/><text fill="#000000" font-family="sans-serif" font-size="14" lengthAdjust="spacing" textLength="40" x="501.3" y="84.0332">Player</text><!--MD5=[57e91100e1953bd1492d4aa882ac3550]
link Player to ProposeView--><path codeLine="33" d="M521.3,87.62 C521.3,123.74 521.3,175.19 521.3,204.1 " fill="none" id="Player-to-ProposeView" style="stroke:#A80036;stroke-width:1.0;"/><polygon fill="#A80036" points="521.3,209.23,525.3,200.23,521.3,204.23,517.3,200.23,521.3,209.23" style="stroke:#A80036;stroke-width:1.0;"/><path d="M526.3,122.5 L526.3,148.5 L601.3,148.5 L601.3,132.5 L591.3,122.5 L526.3,122.5 " fill="#FBFB77" filter="url(#f1fnkux1wbg4l7)" style="stroke:#A80036;stroke-width:1.0;"/><path d="M591.3,122.5 L591.3,132.5 L601.3,132.5 L591.3,122.5 " fill="#FBFB77" style="stroke:#A80036;stroke-width:1.0;"/><text fill="#000000" font-family="sans-serif" font-size="13" lengthAdjust="spacing" textLength="54" x="532.3" y="140.9951">propose()</text><!--MD5=[29c306805319960c0560bedfd82b8e40]
link ProposeView to BoardView--><path codeLine="37" d="M477.76,233.74 C452.63,239.54 422.98,251.17 407.3,274.5 C394.51,293.53 397.68,320.62 402.33,339.39 " fill="none" id="ProposeView-to-BoardView" style="stroke:#A80036;stroke-width:1.0;stroke-dasharray:7.0,7.0;"/><polygon fill="#A80036" points="403.67,344.45,405.2196,334.7238,402.3835,339.6184,397.4889,336.7823,403.67,344.45" style="stroke:#A80036;stroke-width:1.0;"/><path d="M412.3,279.5 L412.3,305.5 L569.3,305.5 L569.3,289.5 L559.3,279.5 L412.3,279.5 " fill="#FBFB77" filter="url(#f1fnkux1wbg4l7)" style="stroke:#A80036;stroke-width:1.0;"/><path d="M559.3,279.5 L559.3,289.5 L569.3,289.5 L559.3,279.5 " fill="#FBFB77" style="stroke:#A80036;stroke-width:1.0;"/><text fill="#000000" font-family="sans-serif" font-size="13" lengthAdjust="spacing" textLength="136" x="418.3" y="297.9951">write(proposeController)</text><!--MD5=[0efb000d2e690ee7d195133162d46198]
link BoardView to ProposeController--><path codeLine="41" d="M445.89,366.64 C480.11,370.02 532.66,375.19 578.3,379.5 C651.17,386.39 840.63,377.18 906.3,409.5 C1017.76,464.35 1041.56,502.98 1096.3,614.5 C1112.4,647.29 1117.02,689.59 1118.19,717.35 " fill="none" id="BoardView-to-ProposeController" style="stroke:#A80036;stroke-width:1.0;stroke-dasharray:7.0,7.0;"/><polygon fill="#A80036" points="1118.37,722.36,1122.0332,713.2177,1118.1844,717.3634,1114.0387,713.5147,1118.37,722.36" style="stroke:#A80036;stroke-width:1.0;"/><path d="M1085.3,500.5 L1085.3,575.5 L1341.3,575.5 L1341.3,510.5 L1331.3,500.5 L1085.3,500.5 " fill="#FBFB77" filter="url(#f1fnkux1wbg4l7)" style="stroke:#A80036;stroke-width:1.0;"/><path d="M1331.3,500.5 L1331.3,510.5 L1341.3,510.5 L1331.3,500.5 " fill="#FBFB77" style="stroke:#A80036;stroke-width:1.0;"/><text fill="#000000" font-family="sans-serif" font-size="13" lengthAdjust="spacing" textLength="79" x="1091.3" y="518.9951">getAttempts()</text><text fill="#000000" font-family="sans-serif" font-size="13" lengthAdjust="spacing" textLength="235" x="1091.3" y="535.3467">getProposedCombinationColors(position)</text><text fill="#000000" font-family="sans-serif" font-size="13" lengthAdjust="spacing" textLength="111" x="1091.3" y="551.6982">getBlacks(position)</text><text fill="#000000" font-family="sans-serif" font-size="13" lengthAdjust="spacing" textLength="112" x="1091.3" y="568.0498">getWhites(position)</text><!--MD5=[02a16ebf8539d2e5d44c3be387606aac]
link BoardView to Message--><path codeLine="48" d="M402.75,379.57 C391.77,407 370.18,459.44 363.3,465.5 C328.78,495.87 291.69,458.58 264.3,495.5 C237.57,531.53 269.64,670.67 283.51,724.79 " fill="none" id="BoardView-to-Message" style="stroke:#A80036;stroke-width:1.0;stroke-dasharray:7.0,7.0;"/><polygon fill="#A80036" points="284.8,729.76,286.4372,720.0482,283.5571,724.9169,278.6883,722.0368,284.8,729.76" style="stroke:#A80036;stroke-width:1.0;"/><path d="M269.3,525 L269.3,551 L376.3,551 L376.3,535 L366.3,525 L269.3,525 " fill="#FBFB77" filter="url(#f1fnkux1wbg4l7)" style="stroke:#A80036;stroke-width:1.0;"/><path d="M366.3,525 L366.3,535 L376.3,535 L366.3,525 " fill="#FBFB77" style="stroke:#A80036;stroke-width:1.0;"/><text fill="#000000" font-family="sans-serif" font-size="13" lengthAdjust="spacing" textLength="86" x="275.3" y="543.4951">write(attempts)</text><!--MD5=[5418e21908cb409c36d98acf7a0f9cb6]
link BoardView to SecretCombinationView--><path codeLine="52" d="M404.87,379.68 C400.19,400.57 394.93,437.07 406.3,465.5 C414.93,487.07 433.23,505.91 448.96,519.12 " fill="none" id="BoardView-to-SecretCombinationView" style="stroke:#A80036;stroke-width:1.0;stroke-dasharray:7.0,7.0;"/><polygon fill="#A80036" points="452.9,522.36,448.4886,513.5543,449.0379,519.1845,443.4077,519.7338,452.9,522.36" style="stroke:#A80036;stroke-width:1.0;"/><path d="M411.3,422.5 L411.3,448.5 L467.3,448.5 L467.3,432.5 L457.3,422.5 L411.3,422.5 " fill="#FBFB77" filter="url(#f1fnkux1wbg4l7)" style="stroke:#A80036;stroke-width:1.0;"/><path d="M457.3,422.5 L457.3,432.5 L467.3,432.5 L457.3,422.5 " fill="#FBFB77" style="stroke:#A80036;stroke-width:1.0;"/><text fill="#000000" font-family="sans-serif" font-size="13" lengthAdjust="spacing" textLength="35" x="417.3" y="440.9951">write()</text><!--MD5=[d0c6e2bebacb85fe1d099bc6a8097bbc]
link SecretCombinationView to Message--><path codeLine="56" d="M438.54,557.56 C393.11,577.62 322.39,609.4 318.3,614.5 C292.6,646.55 288.49,696.51 288.46,724.89 " fill="none" id="SecretCombinationView-to-Message" style="stroke:#A80036;stroke-width:1.0;stroke-dasharray:7.0,7.0;"/><polygon fill="#A80036" points="288.5,729.93,292.4227,720.896,288.4571,724.9302,284.423,720.9646,288.5,729.93" style="stroke:#A80036;stroke-width:1.0;"/><path d="M323.3,627.5 L323.3,653.5 L379.3,653.5 L379.3,637.5 L369.3,627.5 L323.3,627.5 " fill="#FBFB77" filter="url(#f1fnkux1wbg4l7)" style="stroke:#A80036;stroke-width:1.0;"/><path d="M369.3,627.5 L369.3,637.5 L379.3,637.5 L369.3,627.5 " fill="#FBFB77" style="stroke:#A80036;stroke-width:1.0;"/><text fill="#000000" font-family="sans-serif" font-size="13" lengthAdjust="spacing" textLength="35" x="329.3" y="645.9951">write()</text><!--MD5=[b92bc89b5449472b10f1cf1477809057]
link BoardView to ProposedCombinationView--><path codeLine="60" d="M434.64,379.52 C448.2,388.38 465.18,399.51 480.3,409.5 C517.74,434.24 523.06,447.82 564.3,465.5 C620,489.37 639.4,477.64 697.3,495.5 C720.01,502.51 744.67,512.07 764.87,520.44 " fill="none" id="BoardView-to-ProposedCombinationView" style="stroke:#A80036;stroke-width:1.0;stroke-dasharray:7.0,7.0;"/><polygon fill="#A80036" points="769.64,522.43,762.8786,515.2687,765.0267,520.5019,759.7936,522.65,769.64,522.43" style="stroke:#A80036;stroke-width:1.0;"/><path d="M569.3,422.5 L569.3,448.5 L660.3,448.5 L660.3,432.5 L650.3,422.5 L569.3,422.5 " fill="#FBFB77" filter="url(#f1fnkux1wbg4l7)" style="stroke:#A80036;stroke-width:1.0;"/><path d="M650.3,422.5 L650.3,432.5 L660.3,432.5 L650.3,422.5 " fill="#FBFB77" style="stroke:#A80036;stroke-width:1.0;"/><text fill="#000000" font-family="sans-serif" font-size="13" lengthAdjust="spacing" textLength="70" x="575.3" y="440.9951">write(colors)</text><!--MD5=[54923e7f1f8105ab44ef05f41a7d666e]
link ProposedCombinationView to ColorView--><path codeLine="64" d="M770.47,557.51 C749.38,566.47 722.23,577.18 697.3,584.5 C631.23,603.91 589.02,561.3 545.3,614.5 C529.5,633.73 532.54,649.13 545.3,670.5 C566.97,706.8 612.63,726.79 646.14,737.04 " fill="none" id="ProposedCombinationView-to-ColorView" style="stroke:#A80036;stroke-width:1.0;stroke-dasharray:7.0,7.0;"/><polygon fill="#A80036" points="650.99,738.48,643.5102,732.0728,646.1989,737.0498,641.2219,739.7386,650.99,738.48" style="stroke:#A80036;stroke-width:1.0;"/><path d="M550.3,627.5 L550.3,653.5 L634.3,653.5 L634.3,637.5 L624.3,627.5 L550.3,627.5 " fill="#FBFB77" filter="url(#f1fnkux1wbg4l7)" style="stroke:#A80036;stroke-width:1.0;"/><path d="M624.3,627.5 L624.3,637.5 L634.3,637.5 L624.3,627.5 " fill="#FBFB77" style="stroke:#A80036;stroke-width:1.0;"/><text fill="#000000" font-family="sans-serif" font-size="13" lengthAdjust="spacing" textLength="63" x="556.3" y="645.9951">write(color)</text><!--MD5=[54923e7f1f8105ab44ef05f41a7d666e]
link ProposedCombinationView to ColorView--><path codeLine="121" d="M775.46,557.57 C754.23,570.29 727.54,589.84 712.3,614.5 C691.13,648.78 686.68,696.79 686.04,724.47 " fill="none" id="ProposedCombinationView-to-ColorView-1" style="stroke:#A80036;stroke-width:1.0;stroke-dasharray:7.0,7.0;"/><polygon fill="#A80036" points="685.95,729.73,690.0782,720.7881,686.0214,724.7305,682.079,720.6738,685.95,729.73" style="stroke:#A80036;stroke-width:1.0;"/><path d="M717.3,627.5 L717.3,653.5 L771.3,653.5 L771.3,637.5 L761.3,627.5 L717.3,627.5 " fill="#FBFB77" filter="url(#f1fnkux1wbg4l7)" style="stroke:#A80036;stroke-width:1.0;"/><path d="M761.3,627.5 L761.3,637.5 L771.3,637.5 L761.3,627.5 " fill="#FBFB77" style="stroke:#A80036;stroke-width:1.0;"/><text fill="#000000" font-family="sans-serif" font-size="13" lengthAdjust="spacing" textLength="33" x="723.3" y="645.9951">read()</text><!--MD5=[3c978e882819d5791a3d8cfa6d73d565]
link ColorView to Color--><path codeLine="68" d="M694.35,765.16 C714.28,807.95 764.3,925.71 764.3,1029.5 C764.3,1029.5 764.3,1029.5 764.3,1365.5 C764.3,1487.51 969.14,1499.08 1046.34,1499.11 " fill="none" id="ColorView-to-Color" style="stroke:#A80036;stroke-width:1.0;stroke-dasharray:7.0,7.0;"/><polygon fill="#A80036" points="1051.67,1499.09,1042.6473,1495.1415,1046.6701,1499.1186,1042.693,1503.1414,1051.67,1499.09" style="stroke:#A80036;stroke-width:1.0;"/><!--MD5=[15f682a315f16673a58b132a229e1ff0]
link BoardView to ResultView--><path codeLine="69" d="M372.41,362.47 C328.46,363.7 254.89,371.85 206.3,409.5 C187.9,423.76 161.35,484.39 147.86,517.39 " fill="none" id="BoardView-to-ResultView" style="stroke:#A80036;stroke-width:1.0;stroke-dasharray:7.0,7.0;"/><polygon fill="#A80036" points="145.97,522.05,153.07,515.2244,147.8565,517.4195,145.6613,512.206,145.97,522.05" style="stroke:#A80036;stroke-width:1.0;"/><path d="M211.3,422.5 L211.3,448.5 L350.3,448.5 L350.3,432.5 L340.3,422.5 L211.3,422.5 " fill="#FBFB77" filter="url(#f1fnkux1wbg4l7)" style="stroke:#A80036;stroke-width:1.0;"/><path d="M340.3,422.5 L340.3,432.5 L350.3,432.5 L340.3,422.5 " fill="#FBFB77" style="stroke:#A80036;stroke-width:1.0;"/><text fill="#000000" font-family="sans-serif" font-size="13" lengthAdjust="spacing" textLength="118" x="217.3" y="440.9951">write(blacks, whites)</text><!--MD5=[0e5df9184d8007a1cb9785d3f6966635]
link ResultView to Message--><path codeLine="73" d="M126.68,557.51 C108.43,583.55 79.36,634.86 103.3,670.5 C136.36,719.71 207.5,737.08 251.59,743.19 " fill="none" id="ResultView-to-Message" style="stroke:#A80036;stroke-width:1.0;stroke-dasharray:7.0,7.0;"/><polygon fill="#A80036" points="256.56,743.85,248.1637,738.702,251.6034,743.1929,247.1124,746.6326,256.56,743.85" style="stroke:#A80036;stroke-width:1.0;"/><path d="M108.3,627.5 L108.3,653.5 L247.3,653.5 L247.3,637.5 L237.3,627.5 L108.3,627.5 " fill="#FBFB77" filter="url(#f1fnkux1wbg4l7)" style="stroke:#A80036;stroke-width:1.0;"/><path d="M237.3,627.5 L237.3,637.5 L247.3,637.5 L237.3,627.5 " fill="#FBFB77" style="stroke:#A80036;stroke-width:1.0;"/><text fill="#000000" font-family="sans-serif" font-size="13" lengthAdjust="spacing" textLength="118" x="114.3" y="645.9951">write(blacks, whites)</text><!--MD5=[78ecea817a4cecdeeb6aef21215fa7e7]
link ProposeController to Board--><path codeLine="77" d="M1138.4,772.95 C1183.13,827.36 1290.28,957.7 1332.13,1008.62 " fill="none" id="ProposeController-to-Board" style="stroke:#A80036;stroke-width:1.0;"/><polygon fill="#A80036" points="1335.51,1012.72,1332.8838,1003.2277,1332.3345,1008.8579,1326.7043,1008.3086,1335.51,1012.72" style="stroke:#A80036;stroke-width:1.0;"/><path d="M1292.3,809.5 L1292.3,949.5 L1548.3,949.5 L1548.3,819.5 L1538.3,809.5 L1292.3,809.5 " fill="#FBFB77" filter="url(#f1fnkux1wbg4l7)" style="stroke:#A80036;stroke-width:1.0;"/><path d="M1538.3,809.5 L1538.3,819.5 L1548.3,819.5 L1538.3,809.5 " fill="#FBFB77" style="stroke:#A80036;stroke-width:1.0;"/><text fill="#000000" font-family="sans-serif" font-size="13" lengthAdjust="spacing" textLength="89" x="1298.3" y="827.9951">getError(colors)</text><text fill="#000000" font-family="sans-serif" font-size="13" lengthAdjust="spacing" textLength="64" x="1298.3" y="844.3467">add(colors)</text><text fill="#000000" font-family="sans-serif" font-size="13" lengthAdjust="spacing" textLength="67" x="1298.3" y="860.6982">isFinished()</text><text fill="#000000" font-family="sans-serif" font-size="13" lengthAdjust="spacing" textLength="59" x="1298.3" y="877.0498">isWinner()</text><text fill="#000000" font-family="sans-serif" font-size="13" lengthAdjust="spacing" textLength="79" x="1298.3" y="893.4014">getAttempts()</text><text fill="#000000" font-family="sans-serif" font-size="13" lengthAdjust="spacing" textLength="235" x="1298.3" y="909.7529">getProposedCombinationColors(position)</text><text fill="#000000" font-family="sans-serif" font-size="13" lengthAdjust="spacing" textLength="111" x="1298.3" y="926.1045">getBlacks(position)</text><text fill="#000000" font-family="sans-serif" font-size="13" lengthAdjust="spacing" textLength="112" x="1298.3" y="942.4561">getWhites(position)</text><!--MD5=[8dd95aff79c51151a18c835e3410b3cd]
link Board to Result--><path codeLine="88" d="M1384.6339,1036.6271 C1384.6339,1036.6271 1449.8,1055.21 1471.3,1080.5 C1513.48,1130.12 1464.95,1170.86 1503.3,1223.5 C1518.79,1244.76 1541.24,1230.67 1554.3,1253.5 C1566.66,1275.1 1565.65,1287.35 1554.3,1309.5 C1546.11,1325.5 1530.72,1337.84 1516,1346.66 " fill="none" id="Board-Result" style="stroke:#A80036;stroke-width:1.0;"/><polygon fill="#A80036" points="1504.49,1352.98,1514.3043,1352.1561,1508.8732,1350.5742,1510.4551,1345.143,1504.49,1352.98" style="stroke:#A80036;stroke-width:1.0;"/><line style="stroke:#A80036;stroke-width:1.0;" x1="1508.8732" x2="1515.89" y1="1350.5742" y2="1346.72"/><polygon fill="#A80036" points="1372.85,1034.36,1377.9862,1039.4215,1384.6339,1036.6271,1379.4977,1031.5656,1372.85,1034.36" style="stroke:#A80036;stroke-width:1.0;"/><path d="M1508.3,1155.5 L1508.3,1214.5 L1596.3,1214.5 L1596.3,1165.5 L1586.3,1155.5 L1508.3,1155.5 " fill="#FBFB77" filter="url(#f1fnkux1wbg4l7)" style="stroke:#A80036;stroke-width:1.0;"/><path d="M1586.3,1155.5 L1586.3,1165.5 L1596.3,1165.5 L1586.3,1155.5 " fill="#FBFB77" style="stroke:#A80036;stroke-width:1.0;"/><text fill="#000000" font-family="sans-serif" font-size="13" lengthAdjust="spacing" textLength="59" x="1514.3" y="1173.9951">isWinner()</text><text fill="#000000" font-family="sans-serif" font-size="13" lengthAdjust="spacing" textLength="66" x="1514.3" y="1190.3467">getBlacks()</text><text fill="#000000" font-family="sans-serif" font-size="13" lengthAdjust="spacing" textLength="67" x="1514.3" y="1206.6982">getWhites()</text><!--MD5=[e0b5d9907fda64872c10fd6493e0c51f]
link Board to ProposedCombination--><path codeLine="94" d="M1314.2859,1040.9008 C1314.2859,1040.9008 1191.35,1088.96 1168.3,1150.5 C1164.73,1160.02 1169.52,1308.07 1170.3,1309.5 C1174.83,1317.79 1181.25,1325.05 1188.5,1331.32 " fill="none" id="Board-ProposedCombination" style="stroke:#A80036;stroke-width:1.0;"/><polygon fill="#A80036" points="1198.8,1339.28,1194.1215,1330.6133,1194.8426,1336.224,1189.2319,1336.9451,1198.8,1339.28" style="stroke:#A80036;stroke-width:1.0;"/><line style="stroke:#A80036;stroke-width:1.0;" x1="1194.8426" x2="1188.51" y1="1336.224" y2="1331.34"/><polygon fill="#A80036" points="1325.77,1037.42,1318.8677,1035.3324,1314.2859,1040.9008,1321.1882,1042.9884,1325.77,1037.42" style="stroke:#A80036;stroke-width:1.0;"/><path d="M1173.3,1155.5 L1173.3,1214.5 L1260.3,1214.5 L1260.3,1165.5 L1250.3,1155.5 L1173.3,1155.5 " fill="#FBFB77" filter="url(#f1fnkux1wbg4l7)" style="stroke:#A80036;stroke-width:1.0;"/><path d="M1250.3,1155.5 L1250.3,1165.5 L1260.3,1165.5 L1250.3,1155.5 " fill="#FBFB77" style="stroke:#A80036;stroke-width:1.0;"/><text fill="#000000" font-family="sans-serif" font-size="13" lengthAdjust="spacing" textLength="66" x="1179.3" y="1173.9951">new(colors)</text><text fill="#000000" font-family="sans-serif" font-size="13" lengthAdjust="spacing" textLength="54" x="1179.3" y="1190.3467">getError()</text><text fill="#000000" font-family="sans-serif" font-size="13" lengthAdjust="spacing" textLength="63" x="1179.3" y="1206.6982">getColors()</text><!--MD5=[2d4500cc75f159eca4a02f9c13f05618]
link ProposedCombination to Color--><path codeLine="100" d="M1190.4398,1394.8515 C1190.4398,1394.8515 1164.24,1407.68 1152.3,1413.5 C1136.76,1421.08 1130.13,1418.91 1117.3,1430.5 C1107.29,1439.55 1098.83,1451.53 1092.18,1462.91 " fill="none" id="ProposedCombination-Color" style="stroke:#A80036;stroke-width:1.0;"/><polygon fill="#A80036" points="1085.92,1474.41,1093.7365,1468.4182,1088.3108,1470.0186,1086.7103,1464.5929,1085.92,1474.41" style="stroke:#A80036;stroke-width:1.0;"/><line style="stroke:#A80036;stroke-width:1.0;" x1="1088.3108" x2="1092.135" y1="1470.0186" y2="1462.995"/><polygon fill="#A80036" points="1201.22,1389.58,1194.0728,1388.6224,1190.4398,1394.8515,1197.5871,1395.8091,1201.22,1389.58" style="stroke:#A80036;stroke-width:1.0;"/><!--MD5=[e8e56f95b2bfb8e03c3cdf9f0e0c50ee]
link Board to Color--><path codeLine="101" d="M1372.84,1033.6 C1426.94,1039.88 1559.32,1063.85 1609.3,1150.5 C1659.93,1238.29 1537.73,1403.13 1522.3,1413.5 C1484.92,1438.62 1156.17,1407.74 1117.3,1430.5 C1102.56,1439.13 1092.29,1455.18 1085.59,1469.52 " fill="none" id="Board-to-Color" style="stroke:#A80036;stroke-width:1.0;stroke-dasharray:7.0,7.0;"/><polygon fill="#A80036" points="1083.46,1474.31,1090.7743,1467.7145,1085.4933,1469.7421,1083.4657,1464.4611,1083.46,1474.31" style="stroke:#A80036;stroke-width:1.0;"/><!--MD5=[d649baaff3a9c9942c69fcb786dc271c]
link ProposeController to Color--><path codeLine="102" d="M1115.91,772.67 C1111.99,812.87 1104.17,896.01 1099.3,966.5 C1087.87,1132.1 1087.13,1173.65 1080.3,1339.5 C1078.44,1384.63 1076.92,1436.99 1076.06,1468.92 " fill="none" id="ProposeController-to-Color" style="stroke:#A80036;stroke-width:1.0;stroke-dasharray:7.0,7.0;"/><polygon fill="#A80036" points="1075.92,1474.25,1080.15,1465.3558,1076.0485,1469.2517,1072.1527,1465.1502,1075.92,1474.25" style="stroke:#A80036;stroke-width:1.0;"/><!--MD5=[12f03c7f5abb6c3e068862197d6139ed]
link BoardView to Color--><path codeLine="103" d="M372.71,362.94 C291.64,363.55 100.29,369.34 52.3,409.5 C6,448.25 11.3,478.63 11.3,539 C11.3,539 11.3,539 11.3,1365.5 C11.3,1472.94 876.57,1494.76 1046.53,1498.01 " fill="none" id="BoardView-to-Color" style="stroke:#A80036;stroke-width:1.0;stroke-dasharray:7.0,7.0;"/><polygon fill="#A80036" points="1051.59,1498.11,1042.6718,1493.9308,1046.591,1498.01,1042.5118,1501.9292,1051.59,1498.11" style="stroke:#A80036;stroke-width:1.0;"/><!--MD5=[644d3bda32b13afd96f2f5d418a902c1]
link ProposedCombinationView to Color--><path codeLine="104" d="M834.87,557.72 C853.87,570.76 878,590.63 891.3,614.5 C920.26,666.45 913.3,687.02 913.3,746.5 C913.3,746.5 913.3,746.5 913.3,1365.5 C913.3,1433.79 1000.35,1473.43 1046.83,1489.73 " fill="none" id="ProposedCombinationView-to-Color" style="stroke:#A80036;stroke-width:1.0;stroke-dasharray:7.0,7.0;"/><polygon fill="#A80036" points="1051.74,1491.41,1044.5331,1484.6973,1047.0125,1489.7818,1041.928,1492.2612,1051.74,1491.41" style="stroke:#A80036;stroke-width:1.0;"/><!--MD5=[5edb36716a4c6fb9b73ccdfe060f2d05]
link MenuView to ProposedCombinationView--><path codeLine="105" d="M646.95,379.56 C679.5,411.92 751.46,483.48 786.85,518.66 " fill="none" id="MenuView-to-ProposedCombinationView" style="stroke:#A80036;stroke-width:1.0;stroke-dasharray:7.0,7.0;"/><polygon fill="#A80036" points="790.56,522.36,786.9873,513.182,787.0102,518.8388,781.3534,518.8617,790.56,522.36" style="stroke:#A80036;stroke-width:1.0;"/><path d="M734.3,422.5 L734.3,448.5 L889.3,448.5 L889.3,432.5 L879.3,422.5 L734.3,422.5 " fill="#FBFB77" filter="url(#f1fnkux1wbg4l7)" style="stroke:#A80036;stroke-width:1.0;"/><path d="M879.3,422.5 L879.3,432.5 L889.3,432.5 L879.3,422.5 " fill="#FBFB77" style="stroke:#A80036;stroke-width:1.0;"/><text fill="#000000" font-family="sans-serif" font-size="13" lengthAdjust="spacing" textLength="134" x="740.3" y="440.9951">read(proposeController)</text><!--MD5=[846c85d35f4a93f43b9e7108f510cad0]
link MenuView to Message--><path codeLine="109" d="M631.56,379.66 C633.73,422.19 632.78,534.87 567.3,584.5 C507.9,629.52 454.92,561.71 402.3,614.5 C384.45,632.41 405.64,649.02 392.3,670.5 C376.58,695.81 349.08,715.45 326.44,728.42 " fill="none" id="MenuView-to-Message" style="stroke:#A80036;stroke-width:1.0;stroke-dasharray:7.0,7.0;"/><polygon fill="#A80036" points="321.99,730.93,331.7965,730.0177,326.3513,728.4848,327.8842,723.0396,321.99,730.93" style="stroke:#A80036;stroke-width:1.0;"/><path d="M625.3,525 L625.3,551 L681.3,551 L681.3,535 L671.3,525 L625.3,525 " fill="#FBFB77" filter="url(#f1fnkux1wbg4l7)" style="stroke:#A80036;stroke-width:1.0;"/><path d="M671.3,525 L671.3,535 L681.3,535 L671.3,525 " fill="#FBFB77" style="stroke:#A80036;stroke-width:1.0;"/><text fill="#000000" font-family="sans-serif" font-size="13" lengthAdjust="spacing" textLength="35" x="631.3" y="543.4951">write()</text><!--MD5=[7bf6310e2078d439bcd0e6b6dd4bf7dc]
link ProposedCombinationView to Message--><path codeLine="113" d="M771.9,557.65 C750.7,566.95 722.97,577.94 697.3,584.5 C592.72,611.23 553.48,567.53 456.3,614.5 C424.33,629.95 426.68,647.88 399.3,670.5 C373.97,691.43 343.02,712.45 320.41,727.06 " fill="none" id="ProposedCombinationView-to-Message" style="stroke:#A80036;stroke-width:1.0;stroke-dasharray:7.0,7.0;"/><polygon fill="#A80036" points="316,729.9,325.7359,728.4129,320.2101,727.2027,321.4203,721.6768,316,729.9" style="stroke:#A80036;stroke-width:1.0;"/><path d="M461.3,627.5 L461.3,653.5 L517.3,653.5 L517.3,637.5 L507.3,627.5 L461.3,627.5 " fill="#FBFB77" filter="url(#f1fnkux1wbg4l7)" style="stroke:#A80036;stroke-width:1.0;"/><path d="M507.3,627.5 L507.3,637.5 L517.3,637.5 L507.3,627.5 " fill="#FBFB77" style="stroke:#A80036;stroke-width:1.0;"/><text fill="#000000" font-family="sans-serif" font-size="13" lengthAdjust="spacing" textLength="35" x="467.3" y="645.9951">write()</text><!--MD5=[058408ce5819f71d62d41402f2a6cc02]
link ProposedCombinationView to ErrorView--><path codeLine="117" d="M802.58,557.76 C798.67,572.55 793.42,594.76 791.3,614.5 C788.64,639.25 788.26,645.8 791.3,670.5 C793.6,689.18 798.96,709.86 803.41,724.93 " fill="none" id="ProposedCombinationView-to-ErrorView" style="stroke:#A80036;stroke-width:1.0;stroke-dasharray:7.0,7.0;"/><polygon fill="#A80036" points="804.87,729.82,806.1286,720.0519,803.4398,725.0289,798.4628,722.3402,804.87,729.82" style="stroke:#A80036;stroke-width:1.0;"/><path d="M796.3,627.5 L796.3,653.5 L878.3,653.5 L878.3,637.5 L868.3,627.5 L796.3,627.5 " fill="#FBFB77" filter="url(#f1fnkux1wbg4l7)" style="stroke:#A80036;stroke-width:1.0;"/><path d="M868.3,627.5 L868.3,637.5 L878.3,637.5 L868.3,627.5 " fill="#FBFB77" style="stroke:#A80036;stroke-width:1.0;"/><text fill="#000000" font-family="sans-serif" font-size="13" lengthAdjust="spacing" textLength="61" x="802.3" y="645.9951">write(error)</text><!--MD5=[84218aafa7a878c97f717d9c345cf5ad]
link ProposedCombinationView to ProposeController--><path codeLine="125" d="M845.38,557.55 C871.89,570.39 906.89,590.08 932.3,614.5 C953.64,635 946.34,650.68 968.3,670.5 C993.09,692.87 1025.67,710.43 1054.14,723 " fill="none" id="ProposedCombinationView-to-ProposeController" style="stroke:#A80036;stroke-width:1.0;stroke-dasharray:7.0,7.0;"/><polygon fill="#A80036" points="1059.03,725.13,1052.3795,717.8656,1054.4469,723.1312,1049.1814,725.1985,1059.03,725.13" style="stroke:#A80036;stroke-width:1.0;"/><path d="M973.3,619.5 L973.3,661.5 L1083.3,661.5 L1083.3,629.5 L1073.3,619.5 L973.3,619.5 " fill="#FBFB77" filter="url(#f1fnkux1wbg4l7)" style="stroke:#A80036;stroke-width:1.0;"/><path d="M1073.3,619.5 L1073.3,629.5 L1083.3,629.5 L1073.3,619.5 " fill="#FBFB77" style="stroke:#A80036;stroke-width:1.0;"/><text fill="#000000" font-family="sans-serif" font-size="13" lengthAdjust="spacing" textLength="89" x="979.3" y="637.9951">getError(colors)</text><text fill="#000000" font-family="sans-serif" font-size="13" lengthAdjust="spacing" textLength="64" x="979.3" y="654.3467">add(colors)</text><!--MD5=[03e1adeaed11e2ac298b9b43cd912fbb]
link ProposedCombination to Error--><path codeLine="130" d="M1233.28,1389.59 C1217.34,1412.14 1193.51,1445.86 1176.59,1469.79 " fill="none" id="ProposedCombination-to-Error" style="stroke:#A80036;stroke-width:1.0;stroke-dasharray:7.0,7.0;"/><polygon fill="#A80036" points="1173.51,1474.14,1181.9694,1469.0963,1176.3945,1470.056,1175.4349,1464.4811,1173.51,1474.14" style="stroke:#A80036;stroke-width:1.0;"/><!--MD5=[86870cdabd6f68629f04aeac36e6c4ff]
link ErrorView to Error--><path codeLine="131" d="M816.56,765.16 C850.94,856.24 1018.19,1294.35 1099.3,1413.5 C1105.31,1422.33 1109.76,1422.05 1116.3,1430.5 C1125.71,1442.66 1134.55,1457.22 1141.52,1469.75 " fill="none" id="ErrorView-to-Error" style="stroke:#A80036;stroke-width:1.0;stroke-dasharray:7.0,7.0;"/><polygon fill="#A80036" points="1144,1474.26,1143.1885,1464.4446,1141.5997,1469.8738,1136.1706,1468.2851,1144,1474.26" style="stroke:#A80036;stroke-width:1.0;"/><!--MD5=[29fcc52e6d71b3dd4a5f09442a1139e9]
link ProposeView to ProposeController--><path codeLine="132" d="M565.06,232.88 C618.61,239.47 711.73,252.94 789.3,274.5 C1050.68,347.16 1205.08,271.62 1358.3,495.5 C1421.11,587.27 1268.82,677.1 1178.78,720.15 " fill="none" id="ProposeView-to-ProposeController" style="stroke:#A80036;stroke-width:1.0;"/><polygon fill="#A80036" points="1174.01,722.41,1183.8558,722.1641,1178.5269,720.2659,1180.4252,714.937,1174.01,722.41" style="stroke:#A80036;stroke-width:1.0;"/><path d="M1338.3,414.5 L1338.3,456.5 L1426.3,456.5 L1426.3,424.5 L1416.3,414.5 L1338.3,414.5 " fill="#FBFB77" filter="url(#f1fnkux1wbg4l7)" style="stroke:#A80036;stroke-width:1.0;"/><path d="M1416.3,414.5 L1416.3,424.5 L1426.3,424.5 L1416.3,414.5 " fill="#FBFB77" style="stroke:#A80036;stroke-width:1.0;"/><text fill="#000000" font-family="sans-serif" font-size="13" lengthAdjust="spacing" textLength="67" x="1344.3" y="432.9951">isFinished()</text><text fill="#000000" font-family="sans-serif" font-size="13" lengthAdjust="spacing" textLength="59" x="1344.3" y="449.3467">isWinner()</text><!--MD5=[2af68b46eeb5c2e46543eeb7557d9936]
link ProposeView to Message--><path codeLine="137" d="M477.7,232.25 C389.01,243.43 188.08,282.24 94.3,409.5 C25.45,502.93 18.52,576.3 86.3,670.5 C124.47,723.55 204.28,739.6 251.66,744.44 " fill="none" id="ProposeView-to-Message" style="stroke:#A80036;stroke-width:1.0;stroke-dasharray:7.0,7.0;"/><polygon fill="#A80036" points="256.71,744.92,248.1278,740.0882,251.7323,744.448,247.3726,748.0525,256.71,744.92" style="stroke:#A80036;stroke-width:1.0;"/><path d="M99.3,422.5 L99.3,448.5 L155.3,448.5 L155.3,432.5 L145.3,422.5 L99.3,422.5 " fill="#FBFB77" filter="url(#f1fnkux1wbg4l7)" style="stroke:#A80036;stroke-width:1.0;"/><path d="M145.3,422.5 L145.3,432.5 L155.3,432.5 L145.3,422.5 " fill="#FBFB77" style="stroke:#A80036;stroke-width:1.0;"/><text fill="#000000" font-family="sans-serif" font-size="13" lengthAdjust="spacing" textLength="35" x="105.3" y="440.9951">write()</text><!--MD5=[7169228af196aecd88154fe1727a36de]
link Board to Board--><path codeLine="141" d="M1373.03,1018.86 C1390.4,1014.93 1407.8,1018.81 1407.8,1030.5 C1407.8,1041 1393.76,1045.2 1378.31,1043.1 " fill="none" id="Board-to-Board" style="stroke:#A80036;stroke-width:1.0;stroke-dasharray:7.0,7.0;"/><polygon fill="#A80036" points="1373.03,1042.14,1381.1806,1047.6688,1377.9512,1043.0244,1382.5956,1039.795,1373.03,1042.14" style="stroke:#A80036;stroke-width:1.0;"/><path d="M1412.8,1015.5 L1412.8,1041.5 L1483.8,1041.5 L1483.8,1025.5 L1473.8,1015.5 L1412.8,1015.5 " fill="#FBFB77" filter="url(#f1fnkux1wbg4l7)" style="stroke:#A80036;stroke-width:1.0;"/><path d="M1473.8,1015.5 L1473.8,1025.5 L1483.8,1025.5 L1473.8,1015.5 " fill="#FBFB77" style="stroke:#A80036;stroke-width:1.0;"/><text fill="#000000" font-family="sans-serif" font-size="13" lengthAdjust="spacing" textLength="50" x="1418.8" y="1033.9951">isLoser()</text><!--MD5=[5e915b8ab835b2366405aaf6901e131b]
link Board to SecretCombination--><path codeLine="145" d="M1314.0135,1037.8276 C1314.0135,1037.8276 1259.28,1056.99 1244.3,1080.5 C1234.75,1095.5 1235.78,1104.9 1244.3,1120.5 C1254.4,1138.98 1272.19,1153.03 1290.12,1163.27 " fill="none" id="Board-SecretCombination" style="stroke:#A80036;stroke-width:1.0;"/><polygon fill="#A80036" points="1301.84,1169.47,1295.7486,1161.7308,1297.4184,1167.1356,1292.0136,1168.8054,1301.84,1169.47" style="stroke:#A80036;stroke-width:1.0;"/><line style="stroke:#A80036;stroke-width:1.0;" x1="1297.4184" x2="1290.345" y1="1167.1356" y2="1163.395"/><polygon fill="#A80036" points="1325.69,1035.06,1318.9292,1032.5516,1314.0135,1037.8276,1320.7743,1040.3359,1325.69,1035.06" style="stroke:#A80036;stroke-width:1.0;"/><path d="M1249.3,1085.5 L1249.3,1111.5 L1458.3,1111.5 L1458.3,1095.5 L1448.3,1085.5 L1249.3,1085.5 " fill="#FBFB77" filter="url(#f1fnkux1wbg4l7)" style="stroke:#A80036;stroke-width:1.0;"/><path d="M1448.3,1085.5 L1448.3,1095.5 L1458.3,1095.5 L1448.3,1085.5 " fill="#FBFB77" style="stroke:#A80036;stroke-width:1.0;"/><text fill="#000000" font-family="sans-serif" font-size="13" lengthAdjust="spacing" textLength="188" x="1255.3" y="1103.9951">getResult(proposedCombination)</text><!--MD5=[324ce3fbc91b6fad145775bb65621994]
link SecretCombination to ProposedCombination--><path codeLine="149" d="M1294.3813,1209.1385 C1294.3813,1209.1385 1189.11,1252.29 1188.3,1253.5 C1174.48,1274.2 1177.99,1286.85 1188.3,1309.5 C1191.75,1317.09 1196.86,1324.02 1202.68,1330.21 " fill="none" id="SecretCombination-ProposedCombination" style="stroke:#A80036;stroke-width:1.0;"/><polygon fill="#A80036" points="1212.29,1339.3,1208.5059,1330.2071,1208.6597,1335.8619,1203.0049,1336.0157,1212.29,1339.3" style="stroke:#A80036;stroke-width:1.0;"/><line style="stroke:#A80036;stroke-width:1.0;" x1="1208.6597" x2="1202.85" y1="1335.8619" y2="1330.365"/><polygon fill="#A80036" points="1305.49,1204.6,1298.4228,1203.1663,1294.3813,1209.1385,1301.4485,1210.5721,1305.49,1204.6" style="stroke:#A80036;stroke-width:1.0;"/><path d="M1193.3,1258.5 L1193.3,1300.5 L1352.3,1300.5 L1352.3,1268.5 L1342.3,1258.5 L1193.3,1258.5 " fill="#FBFB77" filter="url(#f1fnkux1wbg4l7)" style="stroke:#A80036;stroke-width:1.0;"/><path d="M1342.3,1258.5 L1342.3,1268.5 L1352.3,1268.5 L1342.3,1258.5 " fill="#FBFB77" style="stroke:#A80036;stroke-width:1.0;"/><text fill="#000000" font-family="sans-serif" font-size="13" lengthAdjust="spacing" textLength="85" x="1199.3" y="1276.9951">contains(color)</text><text fill="#000000" font-family="sans-serif" font-size="13" lengthAdjust="spacing" textLength="138" x="1199.3" y="1293.3467">contains(color, position)</text><!--MD5=[07d792321078d51159861622e3ead1f5]
link SecretCombination to Color--><path codeLine="154" d="M1306.7125,1210.0746 C1306.7125,1210.0746 1286.72,1219.8 1277.3,1223.5 C1231.33,1241.56 1206.87,1220.3 1170.3,1253.5 C1109.4,1308.79 1087.16,1407.73 1079.33,1461.41 " fill="none" id="SecretCombination-Color" style="stroke:#A80036;stroke-width:1.0;"/><polygon fill="#A80036" points="1077.6,1474.34,1082.7611,1465.9517,1078.2648,1469.3844,1074.8321,1464.8881,1077.6,1474.34" style="stroke:#A80036;stroke-width:1.0;"/><line style="stroke:#A80036;stroke-width:1.0;" x1="1078.2648" x2="1079.33" y1="1469.3844" y2="1461.455"/><polygon fill="#A80036" points="1317.36,1204.54,1310.1914,1203.7581,1306.7125,1210.0746,1313.8811,1210.8564,1317.36,1204.54" style="stroke:#A80036;stroke-width:1.0;"/><!--MD5=[f874647c3c9f57491b6e7b7bf233051a]
link SecretCombination to Result--><path codeLine="155" d="M1350.79,1204.89 C1358.08,1229.91 1374.46,1277.32 1401.3,1309.5 C1414.61,1325.45 1433.74,1338.8 1449.72,1348.23 " fill="none" id="SecretCombination-to-Result" style="stroke:#A80036;stroke-width:1.0;stroke-dasharray:7.0,7.0;"/><polygon fill="#A80036" points="1454.14,1350.78,1448.347,1342.815,1449.8103,1348.2793,1444.3459,1349.7426,1454.14,1350.78" style="stroke:#A80036;stroke-width:1.0;"/><path d="M1406.3,1266.5 L1406.3,1292.5 L1541.3,1292.5 L1541.3,1276.5 L1531.3,1266.5 L1406.3,1266.5 " fill="#FBFB77" filter="url(#f1fnkux1wbg4l7)" style="stroke:#A80036;stroke-width:1.0;"/><path d="M1531.3,1266.5 L1531.3,1276.5 L1541.3,1276.5 L1531.3,1266.5 " fill="#FBFB77" style="stroke:#A80036;stroke-width:1.0;"/><text fill="#000000" font-family="sans-serif" font-size="13" lengthAdjust="spacing" textLength="114" x="1412.3" y="1284.9951">new(blacks, whites)</text><!--MD5=[7f34f2d425e9b3ee5350efe269b05f59]
link Board to Error--><path codeLine="159" d="M1372.92,1031.5 C1438.53,1032.04 1620.57,1037.46 1657.3,1080.5 C1755.98,1196.12 1756.39,1307.24 1657.3,1422.5 C1595.17,1494.76 1279.37,1499.15 1183.76,1498.79 " fill="none" id="Board-to-Error" style="stroke:#A80036;stroke-width:1.0;stroke-dasharray:7.0,7.0;"/><polygon fill="#A80036" points="1178.58,1498.76,1187.557,1502.8114,1183.5799,1498.7886,1187.6027,1494.8115,1178.58,1498.76" style="stroke:#A80036;stroke-width:1.0;"/><!--MD5=[9c3c49d2c46e41492ade90d337e2ed2e]
link ProposeView to MenuView--><path codeLine="160" d="M550.57,244.62 C562.71,252.53 576.26,262.82 586.3,274.5 C602.97,293.88 615.34,320.68 622.64,339.29 " fill="none" id="ProposeView-to-MenuView" style="stroke:#A80036;stroke-width:1.0;stroke-dasharray:7.0,7.0;"/><polygon fill="#A80036" points="624.57,344.31,625.0564,334.4732,622.7674,339.6462,617.5944,337.3573,624.57,344.31" style="stroke:#A80036;stroke-width:1.0;"/><path d="M615.3,279.5 L615.3,305.5 L772.3,305.5 L772.3,289.5 L762.3,279.5 L615.3,279.5 " fill="#FBFB77" filter="url(#f1fnkux1wbg4l7)" style="stroke:#A80036;stroke-width:1.0;"/><path d="M762.3,279.5 L762.3,289.5 L772.3,289.5 L762.3,279.5 " fill="#FBFB77" style="stroke:#A80036;stroke-width:1.0;"/><text fill="#000000" font-family="sans-serif" font-size="13" lengthAdjust="spacing" textLength="136" x="621.3" y="297.9951">write(proposeController)</text><!--MD5=[3d8475203b07f07c97889842975bb53b]
@startuml mastermind_analisis_usecase_propose
allow_mixing

actor Player

package views {
    object ProposeView
    object Message
    object BoardView
    object SecretCombinationView
    object ProposedCombinationView
    object ResultView
    object ColorView
    object ErrorView
    object MenuView
}

package controllers {
    object "proposeController\n:ProposeController" as ProposeController
}

package models {
    object Board
    object Result
    object "proposedCombination\n:ProposedCombination" as ProposedCombination
    object SecretCombination
}

package types {
    object "color\n:Color" as Color
    object "error\n:Error" as Error
}

Player -down-> ProposeView
note on link
    propose()
end note
ProposeView .down.> BoardView
note on link
    write(proposeController)
end note
BoardView .down.> ProposeController
note on link
    getAttempts()
    getProposedCombinationColors(position)
    getBlacks(position)
    getWhites(position)
end note
BoardView .down.> Message
note on link
    write(attempts)
end note
BoardView .down.> SecretCombinationView
note on link
    write()
end note
SecretCombinationView .down.> Message
note on link
    write()
end note
BoardView .down.> ProposedCombinationView
note on link
    write(colors)
end note
ProposedCombinationView .down.> ColorView
note on link
    write(color)
end note
ColorView .down.> Color
BoardView .down.> ResultView
note on link
    write(blacks, whites)
end note
ResultView .down.> Message
note on link
    write(blacks, whites)
end note
ProposeController -down-> Board
note on link
    getError(colors)
    add(colors)
    isFinished()
    isWinner()
    getAttempts()
    getProposedCombinationColors(position)
    getBlacks(position)
    getWhites(position)
end note
Board *-down-> Result
note on link
    isWinner()
    getBlacks()
    getWhites()
end note
Board *-down-> ProposedCombination
note on link
    new(colors)
    getError()
    getColors()
end note
ProposedCombination *-down-> Color
Board .down.> Color
ProposeController .down.> Color
BoardView .down.> Color
ProposedCombinationView .down.> Color
MenuView .down.> ProposedCombinationView
note on link
    read(proposeController)
end note
MenuView .down.> Message
note on link
    write()
end note
ProposedCombinationView .down.> Message
note on link
    write()
end note
ProposedCombinationView .down.> ErrorView
note on link
    write(error)
end note
ProposedCombinationView .down.> ColorView
note on link
    read()
end note
ProposedCombinationView .down.> ProposeController
note on link
    getError(colors)
    add(colors)
end note
ProposedCombination .down.> Error
ErrorView .down.> Error
ProposeView -down-> ProposeController
note on link
    isFinished()
    isWinner()
end note
ProposeView .down.> Message
note on link
    write()
end note
Board .down.> Board
note on link
    isLoser()
end note
Board *-down-> SecretCombination
note on link
    getResult(proposedCombination)
end note
SecretCombination *-down-> ProposedCombination
note on link
    contains(color)
    contains(color, position)
end note
SecretCombination *-down-> Color
SecretCombination .down.> Result
note on link
    new(blacks, whites)
end note
Board .down.> Error
ProposeView .down.> MenuView
note on link
    write(proposeController)
end note
@enduml

PlantUML version 1.2021.00(Sun Jan 10 11:25:05 CET 2021)
(GPL source distribution)
Java Runtime: Java(TM) SE Runtime Environment
JVM: Java HotSpot(TM) 64-Bit Server VM
Default Encoding: Cp1252
Language: es
Country: ES
--></g></svg>