<?xml version="1.0" encoding="UTF-8" standalone="no"?><svg xmlns="http://www.w3.org/2000/svg" xmlns:xlink="http://www.w3.org/1999/xlink" contentScriptType="application/ecmascript" contentStyleType="text/css" height="1408px" preserveAspectRatio="none" style="width:1500px;height:1408px;" version="1.1" viewBox="0 0 1500 1408" width="1500px" zoomAndPan="magnify"><defs><filter height="300%" id="fqoficjcu698c" width="300%" x="-1" y="-1"><feGaussianBlur result="blurOut" stdDeviation="2.0"/><feColorMatrix in="blurOut" result="blurOut2" type="matrix" values="0 0 0 0 0 0 0 0 0 0 0 0 0 0 0 0 0 0 .4 0"/><feOffset dx="4.0" dy="4.0" in="blurOut2" result="blurOut3"/><feBlend in="SourceGraphic" in2="blurOut3" mode="normal"/></filter></defs><g><!--MD5=[e2a75efa8a0f57c2afae8bf75386f79c]
cluster views--><polygon fill="#FFFFFF" filter="url(#fqoficjcu698c)" points="578.13,173.5,625.13,173.5,632.13,197.1094,1436.13,197.1094,1436.13,781,578.13,781,578.13,173.5" style="stroke:#000000;stroke-width:1.5;"/><line style="stroke:#000000;stroke-width:1.5;" x1="578.13" x2="632.13" y1="197.1094" y2="197.1094"/><text fill="#000000" font-family="sans-serif" font-size="14" font-weight="bold" lengthAdjust="spacing" textLength="41" x="582.13" y="190.0332">views</text><!--MD5=[f4e70ef68289585296b9045165e58692]
cluster controllers--><polygon fill="#FFFFFF" filter="url(#fqoficjcu698c)" points="221.13,686.5,304.13,686.5,311.13,710.1094,355.13,710.1094,355.13,788.5,221.13,788.5,221.13,686.5" style="stroke:#000000;stroke-width:1.5;"/><line style="stroke:#000000;stroke-width:1.5;" x1="221.13" x2="311.13" y1="710.1094" y2="710.1094"/><text fill="#000000" font-family="sans-serif" font-size="14" font-weight="bold" lengthAdjust="spacing" textLength="77" x="225.13" y="703.0332">controllers</text><!--MD5=[a60570e4b426f702ccbb0d459e3b9417]
cluster models--><polygon fill="#FFFFFF" filter="url(#fqoficjcu698c)" points="116.13,991.5,173.13,991.5,180.13,1015.1094,423.13,1015.1094,423.13,1266.5,116.13,1266.5,116.13,991.5" style="stroke:#000000;stroke-width:1.5;"/><line style="stroke:#000000;stroke-width:1.5;" x1="116.13" x2="180.13" y1="1015.1094" y2="1015.1094"/><text fill="#000000" font-family="sans-serif" font-size="14" font-weight="bold" lengthAdjust="spacing" textLength="51" x="120.13" y="1008.0332">models</text><!--MD5=[67cd15ce44b6dd54f77054b62c31bf42]
cluster types--><polygon fill="#FFFFFF" filter="url(#fqoficjcu698c)" points="496.13,1299.5,540.13,1299.5,547.13,1323.1094,576.13,1323.1094,576.13,1401.5,496.13,1401.5,496.13,1299.5" style="stroke:#000000;stroke-width:1.5;"/><line style="stroke:#000000;stroke-width:1.5;" x1="496.13" x2="547.13" y1="1323.1094" y2="1323.1094"/><text fill="#000000" font-family="sans-serif" font-size="14" font-weight="bold" lengthAdjust="spacing" textLength="38" x="500.13" y="1316.0332">types</text><rect fill="#FEFECE" filter="url(#fqoficjcu698c)" height="35.0938" style="stroke:#A80036;stroke-width:1.5;" width="87" x="845.63" y="209.5"/><text fill="#000000" font-family="sans-serif" font-size="12" lengthAdjust="spacing" textLength="73" x="852.63" y="223.957">ProposeView</text><line style="stroke:#A80036;stroke-width:1.5;" x1="846.63" x2="931.63" y1="228.5938" y2="228.5938"/><rect fill="#FEFECE" filter="url(#fqoficjcu698c)" height="35.0938" style="stroke:#A80036;stroke-width:1.5;" width="65" x="1015.63" y="730"/><text fill="#000000" font-family="sans-serif" font-size="12" lengthAdjust="spacing" textLength="51" x="1022.63" y="744.457">Message</text><line style="stroke:#A80036;stroke-width:1.5;" x1="1016.63" x2="1079.63" y1="749.0938" y2="749.0938"/><rect fill="#FEFECE" filter="url(#fqoficjcu698c)" height="35.0938" style="stroke:#A80036;stroke-width:1.5;" width="73" x="956.63" y="344.5"/><text fill="#000000" font-family="sans-serif" font-size="12" lengthAdjust="spacing" textLength="59" x="963.63" y="358.957">BoardView</text><line style="stroke:#A80036;stroke-width:1.5;" x1="957.63" x2="1028.63" y1="363.5938" y2="363.5938"/><rect fill="#FEFECE" filter="url(#fqoficjcu698c)" height="35.0938" style="stroke:#A80036;stroke-width:1.5;" width="146" x="935.13" y="522.5"/><text fill="#000000" font-family="sans-serif" font-size="12" lengthAdjust="spacing" textLength="132" x="942.13" y="536.957">SecretCombinationView</text><line style="stroke:#A80036;stroke-width:1.5;" x1="936.13" x2="1080.13" y1="541.5938" y2="541.5938"/><rect fill="#FEFECE" filter="url(#fqoficjcu698c)" height="35.0938" style="stroke:#A80036;stroke-width:1.5;" width="165" x="594.63" y="522.5"/><text fill="#000000" font-family="sans-serif" font-size="12" lengthAdjust="spacing" textLength="151" x="601.63" y="536.957">ProposedCombinationView</text><line style="stroke:#A80036;stroke-width:1.5;" x1="595.63" x2="758.63" y1="541.5938" y2="541.5938"/><rect fill="#FEFECE" filter="url(#fqoficjcu698c)" height="35.0938" style="stroke:#A80036;stroke-width:1.5;" width="76" x="1116.13" y="522.5"/><text fill="#000000" font-family="sans-serif" font-size="12" lengthAdjust="spacing" textLength="62" x="1123.13" y="536.957">ResultView</text><line style="stroke:#A80036;stroke-width:1.5;" x1="1117.13" x2="1191.13" y1="541.5938" y2="541.5938"/><rect fill="#FEFECE" filter="url(#fqoficjcu698c)" height="35.0938" style="stroke:#A80036;stroke-width:1.5;" width="70" x="625.13" y="730"/><text fill="#000000" font-family="sans-serif" font-size="12" lengthAdjust="spacing" textLength="56" x="632.13" y="744.457">ColorView</text><line style="stroke:#A80036;stroke-width:1.5;" x1="626.13" x2="694.13" y1="749.0938" y2="749.0938"/><rect fill="#FEFECE" filter="url(#fqoficjcu698c)" height="35.0938" style="stroke:#A80036;stroke-width:1.5;" width="70" x="738.13" y="420"/><text fill="#000000" font-family="sans-serif" font-size="12" lengthAdjust="spacing" textLength="56" x="745.13" y="434.457">MenuView</text><line style="stroke:#A80036;stroke-width:1.5;" x1="739.13" x2="807.13" y1="439.0938" y2="439.0938"/><rect fill="#FEFECE" filter="url(#fqoficjcu698c)" height="50.1875" style="stroke:#A80036;stroke-width:1.5;" width="101" x="237.63" y="722.5"/><text fill="#000000" font-family="sans-serif" font-size="12" lengthAdjust="spacing" textLength="79" x="248.63" y="736.957">redoController</text><text fill="#000000" font-family="sans-serif" font-size="12" lengthAdjust="spacing" textLength="87" x="244.63" y="752.0508">:RedoController</text><line style="stroke:#A80036;stroke-width:1.5;" x1="238.63" x2="337.63" y1="756.6875" y2="756.6875"/><rect fill="#FEFECE" filter="url(#fqoficjcu698c)" height="35.0938" style="stroke:#A80036;stroke-width:1.5;" width="47" x="220.63" y="1030"/><text fill="#000000" font-family="sans-serif" font-size="12" lengthAdjust="spacing" textLength="33" x="227.63" y="1044.457">Board</text><line style="stroke:#A80036;stroke-width:1.5;" x1="221.63" x2="266.63" y1="1049.0938" y2="1049.0938"/><rect fill="#FEFECE" filter="url(#fqoficjcu698c)" height="35.0938" style="stroke:#A80036;stroke-width:1.5;" width="50" x="309.13" y="1208"/><text fill="#000000" font-family="sans-serif" font-size="12" lengthAdjust="spacing" textLength="36" x="316.13" y="1222.457">Result</text><line style="stroke:#A80036;stroke-width:1.5;" x1="310.13" x2="358.13" y1="1227.0938" y2="1227.0938"/><rect fill="#FEFECE" filter="url(#fqoficjcu698c)" height="50.1875" style="stroke:#A80036;stroke-width:1.5;" width="142" x="132.13" y="1200.5"/><text fill="#000000" font-family="sans-serif" font-size="12" lengthAdjust="spacing" textLength="124" x="141.13" y="1214.957">proposedCombination</text><text fill="#000000" font-family="sans-serif" font-size="12" lengthAdjust="spacing" textLength="128" x="139.13" y="1230.0508">:ProposedCombination</text><line style="stroke:#A80036;stroke-width:1.5;" x1="133.13" x2="273.13" y1="1234.6875" y2="1234.6875"/><rect fill="#FEFECE" filter="url(#fqoficjcu698c)" height="50.1875" style="stroke:#A80036;stroke-width:1.5;" width="47" x="512.63" y="1335.5"/><text fill="#000000" font-family="sans-serif" font-size="12" lengthAdjust="spacing" textLength="27" x="522.63" y="1349.957">color</text><text fill="#000000" font-family="sans-serif" font-size="12" lengthAdjust="spacing" textLength="33" x="519.63" y="1365.0508">:Color</text><line style="stroke:#A80036;stroke-width:1.5;" x1="513.63" x2="558.63" y1="1369.6875" y2="1369.6875"/><!--MD5=[de2effd8dc5bf946a609466312d0f75f]
entity Player--><ellipse cx="889.13" cy="14" fill="#FEFECE" filter="url(#fqoficjcu698c)" rx="8" ry="8" style="stroke:#A80036;stroke-width:1.5;"/><path d="M889.13,22 L889.13,49 M876.13,30 L902.13,30 M889.13,49 L876.13,64 M889.13,49 L902.13,64 " fill="none" filter="url(#fqoficjcu698c)" style="stroke:#A80036;stroke-width:1.5;"/><text fill="#000000" font-family="sans-serif" font-size="14" lengthAdjust="spacing" textLength="40" x="869.13" y="84.0332">Player</text><!--MD5=[57e91100e1953bd1492d4aa882ac3550]
link Player to ProposeView--><path codeLine="30" d="M889.13,87.62 C889.13,123.74 889.13,175.19 889.13,204.1 " fill="none" id="Player-to-ProposeView" style="stroke:#A80036;stroke-width:1.0;"/><polygon fill="#A80036" points="889.13,209.23,893.13,200.23,889.13,204.23,885.13,200.23,889.13,209.23" style="stroke:#A80036;stroke-width:1.0;"/><path d="M894.13,122.5 L894.13,148.5 L948.13,148.5 L948.13,132.5 L938.13,122.5 L894.13,122.5 " fill="#FBFB77" filter="url(#fqoficjcu698c)" style="stroke:#A80036;stroke-width:1.0;"/><path d="M938.13,122.5 L938.13,132.5 L948.13,132.5 L938.13,122.5 " fill="#FBFB77" style="stroke:#A80036;stroke-width:1.0;"/><text fill="#000000" font-family="sans-serif" font-size="13" lengthAdjust="spacing" textLength="33" x="900.13" y="140.9951">redo()</text><!--MD5=[29c306805319960c0560bedfd82b8e40]
link ProposeView to BoardView--><path codeLine="34" d="M911.22,244.7 C921.34,252.99 933.08,263.56 942.13,274.5 C958.9,294.75 973.61,321.16 982.87,339.45 " fill="none" id="ProposeView-to-BoardView" style="stroke:#A80036;stroke-width:1.0;stroke-dasharray:7.0,7.0;"/><polygon fill="#A80036" points="985.34,344.38,984.8802,334.5419,983.0982,339.9107,977.7294,338.1287,985.34,344.38" style="stroke:#A80036;stroke-width:1.0;"/><path d="M973.13,279.5 L973.13,305.5 L1114.13,305.5 L1114.13,289.5 L1104.13,279.5 L973.13,279.5 " fill="#FBFB77" filter="url(#fqoficjcu698c)" style="stroke:#A80036;stroke-width:1.0;"/><path d="M1104.13,279.5 L1104.13,289.5 L1114.13,289.5 L1104.13,279.5 " fill="#FBFB77" style="stroke:#A80036;stroke-width:1.0;"/><text fill="#000000" font-family="sans-serif" font-size="13" lengthAdjust="spacing" textLength="120" x="979.13" y="297.9951">write(RedoController)</text><!--MD5=[a79ea44e6023f0f93d1d4bd360764b41]
link BoardView to RedoController--><path codeLine="38" d="M956.55,362.63 C806.31,361.96 239.52,368.03 130.13,495.5 C66.64,569.49 183.5,671.34 248.66,719.36 " fill="none" id="BoardView-to-RedoController" style="stroke:#A80036;stroke-width:1.0;stroke-dasharray:7.0,7.0;"/><polygon fill="#A80036" points="252.88,722.44,247.972,713.9012,248.8425,719.4906,243.253,720.3611,252.88,722.44" style="stroke:#A80036;stroke-width:1.0;"/><path d="M135.13,500.5 L135.13,575.5 L391.13,575.5 L391.13,510.5 L381.13,500.5 L135.13,500.5 " fill="#FBFB77" filter="url(#fqoficjcu698c)" style="stroke:#A80036;stroke-width:1.0;"/><path d="M381.13,500.5 L381.13,510.5 L391.13,510.5 L381.13,500.5 " fill="#FBFB77" style="stroke:#A80036;stroke-width:1.0;"/><text fill="#000000" font-family="sans-serif" font-size="13" lengthAdjust="spacing" textLength="79" x="141.13" y="518.9951">getAttempts()</text><text fill="#000000" font-family="sans-serif" font-size="13" lengthAdjust="spacing" textLength="235" x="141.13" y="535.3467">getProposedCombinationColors(position)</text><text fill="#000000" font-family="sans-serif" font-size="13" lengthAdjust="spacing" textLength="111" x="141.13" y="551.6982">getBlacks(position)</text><text fill="#000000" font-family="sans-serif" font-size="13" lengthAdjust="spacing" textLength="112" x="141.13" y="568.0498">getWhites(position)</text><!--MD5=[02a16ebf8539d2e5d44c3be387606aac]
link BoardView to Message--><path codeLine="45" d="M1029.76,363.88 C1095.32,366.3 1228.52,375.41 1257.13,409.5 C1294.42,453.93 1290.41,622.99 1257.13,670.5 C1218.34,725.88 1134.82,741.06 1085.92,745.12 " fill="none" id="BoardView-to-Message" style="stroke:#A80036;stroke-width:1.0;stroke-dasharray:7.0,7.0;"/><polygon fill="#A80036" points="1080.72,745.52,1090.0017,748.8139,1085.7051,745.1343,1089.3847,740.8377,1080.72,745.52" style="stroke:#A80036;stroke-width:1.0;"/><path d="M1288.13,525 L1288.13,551 L1395.13,551 L1395.13,535 L1385.13,525 L1288.13,525 " fill="#FBFB77" filter="url(#fqoficjcu698c)" style="stroke:#A80036;stroke-width:1.0;"/><path d="M1385.13,525 L1385.13,535 L1395.13,535 L1385.13,525 " fill="#FBFB77" style="stroke:#A80036;stroke-width:1.0;"/><text fill="#000000" font-family="sans-serif" font-size="13" lengthAdjust="spacing" textLength="86" x="1294.13" y="543.4951">write(attempts)</text><!--MD5=[5418e21908cb409c36d98acf7a0f9cb6]
link BoardView to SecretCombinationView--><path codeLine="49" d="M991.79,379.78 C991.15,388.61 990.45,399.64 990.13,409.5 C989.33,434.38 987.15,440.79 990.13,465.5 C992.26,483.16 997.17,502.69 1001.33,517.18 " fill="none" id="BoardView-to-SecretCombinationView" style="stroke:#A80036;stroke-width:1.0;stroke-dasharray:7.0,7.0;"/><polygon fill="#A80036" points="1002.82,522.28,1004.1322,512.5189,1001.4161,517.4811,996.454,514.7651,1002.82,522.28" style="stroke:#A80036;stroke-width:1.0;"/><path d="M995.13,422.5 L995.13,448.5 L1051.13,448.5 L1051.13,432.5 L1041.13,422.5 L995.13,422.5 " fill="#FBFB77" filter="url(#fqoficjcu698c)" style="stroke:#A80036;stroke-width:1.0;"/><path d="M1041.13,422.5 L1041.13,432.5 L1051.13,432.5 L1041.13,422.5 " fill="#FBFB77" style="stroke:#A80036;stroke-width:1.0;"/><text fill="#000000" font-family="sans-serif" font-size="13" lengthAdjust="spacing" textLength="35" x="1001.13" y="440.9951">write()</text><!--MD5=[d0c6e2bebacb85fe1d099bc6a8097bbc]
link SecretCombinationView to Message--><path codeLine="53" d="M1001.02,557.81 C991.42,582.96 976.98,631.58 990.13,670.5 C997.32,691.77 1013.11,711.78 1026.4,725.93 " fill="none" id="SecretCombinationView-to-Message" style="stroke:#A80036;stroke-width:1.0;stroke-dasharray:7.0,7.0;"/><polygon fill="#A80036" points="1030.07,729.76,1026.7396,720.4913,1026.6139,726.1468,1020.9584,726.0211,1030.07,729.76" style="stroke:#A80036;stroke-width:1.0;"/><path d="M995.13,627.5 L995.13,653.5 L1051.13,653.5 L1051.13,637.5 L1041.13,627.5 L995.13,627.5 " fill="#FBFB77" filter="url(#fqoficjcu698c)" style="stroke:#A80036;stroke-width:1.0;"/><path d="M1041.13,627.5 L1041.13,637.5 L1051.13,637.5 L1041.13,627.5 " fill="#FBFB77" style="stroke:#A80036;stroke-width:1.0;"/><text fill="#000000" font-family="sans-serif" font-size="13" lengthAdjust="spacing" textLength="35" x="1001.13" y="645.9951">write()</text><!--MD5=[b92bc89b5449472b10f1cf1477809057]
link BoardView to ProposedCombinationView--><path codeLine="57" d="M956.59,373.93 C932.52,381.95 900.83,394.12 875.13,409.5 C842.13,429.26 840.75,443.59 809.13,465.5 C779.07,486.33 742.59,506.27 715.61,520.12 " fill="none" id="BoardView-to-ProposedCombinationView" style="stroke:#A80036;stroke-width:1.0;stroke-dasharray:7.0,7.0;"/><polygon fill="#A80036" points="711.03,522.46,720.865,521.9374,715.4849,520.1897,717.2326,514.8096,711.03,522.46" style="stroke:#A80036;stroke-width:1.0;"/><path d="M880.13,422.5 L880.13,448.5 L971.13,448.5 L971.13,432.5 L961.13,422.5 L880.13,422.5 " fill="#FBFB77" filter="url(#fqoficjcu698c)" style="stroke:#A80036;stroke-width:1.0;"/><path d="M961.13,422.5 L961.13,432.5 L971.13,432.5 L961.13,422.5 " fill="#FBFB77" style="stroke:#A80036;stroke-width:1.0;"/><text fill="#000000" font-family="sans-serif" font-size="13" lengthAdjust="spacing" textLength="70" x="886.13" y="440.9951">write(colors)</text><!--MD5=[54923e7f1f8105ab44ef05f41a7d666e]
link ProposedCombinationView to ColorView--><path codeLine="61" d="M661.53,557.55 C649.51,571.52 633.85,592.67 627.13,614.5 C615.29,652.97 633.83,698.71 647.56,725 " fill="none" id="ProposedCombinationView-to-ColorView" style="stroke:#A80036;stroke-width:1.0;stroke-dasharray:7.0,7.0;"/><polygon fill="#A80036" points="650.05,729.67,649.3259,719.8478,647.6889,725.2626,642.2741,723.6256,650.05,729.67" style="stroke:#A80036;stroke-width:1.0;"/><path d="M632.13,627.5 L632.13,653.5 L716.13,653.5 L716.13,637.5 L706.13,627.5 L632.13,627.5 " fill="#FBFB77" filter="url(#fqoficjcu698c)" style="stroke:#A80036;stroke-width:1.0;"/><path d="M706.13,627.5 L706.13,637.5 L716.13,637.5 L706.13,627.5 " fill="#FBFB77" style="stroke:#A80036;stroke-width:1.0;"/><text fill="#000000" font-family="sans-serif" font-size="13" lengthAdjust="spacing" textLength="63" x="638.13" y="645.9951">write(color)</text><!--MD5=[54923e7f1f8105ab44ef05f41a7d666e]
link ProposedCombinationView to ColorView--><path codeLine="110" d="M693.6,557.72 C706.06,571.62 722.17,592.6 729.13,614.5 C736.67,638.22 738.1,647.28 729.13,670.5 C720.49,692.88 701.86,712.73 686.14,726.53 " fill="none" id="ProposedCombinationView-to-ColorView-1" style="stroke:#A80036;stroke-width:1.0;stroke-dasharray:7.0,7.0;"/><polygon fill="#A80036" points="682.21,729.91,691.6412,727.0723,686.0002,726.649,686.4236,721.008,682.21,729.91" style="stroke:#A80036;stroke-width:1.0;"/><path d="M740.13,627.5 L740.13,653.5 L794.13,653.5 L794.13,637.5 L784.13,627.5 L740.13,627.5 " fill="#FBFB77" filter="url(#fqoficjcu698c)" style="stroke:#A80036;stroke-width:1.0;"/><path d="M784.13,627.5 L784.13,637.5 L794.13,637.5 L784.13,627.5 " fill="#FBFB77" style="stroke:#A80036;stroke-width:1.0;"/><text fill="#000000" font-family="sans-serif" font-size="13" lengthAdjust="spacing" textLength="33" x="746.13" y="645.9951">read()</text><!--MD5=[3c978e882819d5791a3d8cfa6d73d565]
link ColorView to Color--><path codeLine="65" d="M661.48,765.09 C666.33,832.74 678.57,1093.16 598.13,1283.5 C590.2,1302.28 576.12,1320.12 563.38,1333.79 " fill="none" id="ColorView-to-Color" style="stroke:#A80036;stroke-width:1.0;stroke-dasharray:7.0,7.0;"/><polygon fill="#A80036" points="559.83,1337.53,568.9264,1333.7544,563.2715,1333.9029,563.123,1328.248,559.83,1337.53" style="stroke:#A80036;stroke-width:1.0;"/><!--MD5=[15f682a315f16673a58b132a229e1ff0]
link BoardView to ResultView--><path codeLine="66" d="M1024.58,379.68 C1037.74,387.6 1052.62,397.89 1064.13,409.5 C1084.96,430.51 1083.36,441.12 1100.13,465.5 C1112.49,483.47 1127.19,503.38 1138.12,517.94 " fill="none" id="BoardView-to-ResultView" style="stroke:#A80036;stroke-width:1.0;stroke-dasharray:7.0,7.0;"/><polygon fill="#A80036" points="1141.39,522.28,1139.19,512.68,1138.39,518.28,1132.79,517.48,1141.39,522.28" style="stroke:#A80036;stroke-width:1.0;"/><path d="M1105.13,422.5 L1105.13,448.5 L1244.13,448.5 L1244.13,432.5 L1234.13,422.5 L1105.13,422.5 " fill="#FBFB77" filter="url(#fqoficjcu698c)" style="stroke:#A80036;stroke-width:1.0;"/><path d="M1234.13,422.5 L1234.13,432.5 L1244.13,432.5 L1234.13,422.5 " fill="#FBFB77" style="stroke:#A80036;stroke-width:1.0;"/><text fill="#000000" font-family="sans-serif" font-size="13" lengthAdjust="spacing" textLength="118" x="1111.13" y="440.9951">write(blacks, whites)</text><!--MD5=[0e5df9184d8007a1cb9785d3f6966635]
link ResultView to Message--><path codeLine="70" d="M1139.93,557.67 C1128.18,572.05 1111.61,593.71 1100.13,614.5 C1079.73,651.44 1063.35,698.06 1054.74,724.86 " fill="none" id="ResultView-to-Message" style="stroke:#A80036;stroke-width:1.0;stroke-dasharray:7.0,7.0;"/><polygon fill="#A80036" points="1053.22,729.63,1059.7551,722.2616,1054.7325,724.8642,1052.1299,719.8417,1053.22,729.63" style="stroke:#A80036;stroke-width:1.0;"/><path d="M1105.13,627.5 L1105.13,653.5 L1244.13,653.5 L1244.13,637.5 L1234.13,627.5 L1105.13,627.5 " fill="#FBFB77" filter="url(#fqoficjcu698c)" style="stroke:#A80036;stroke-width:1.0;"/><path d="M1234.13,627.5 L1234.13,637.5 L1244.13,637.5 L1234.13,627.5 " fill="#FBFB77" style="stroke:#A80036;stroke-width:1.0;"/><text fill="#000000" font-family="sans-serif" font-size="13" lengthAdjust="spacing" textLength="118" x="1111.13" y="645.9951">write(blacks, whites)</text><!--MD5=[7b846df70f3835cd77da60d89db8ad57]
link RedoController to Board--><path codeLine="74" d="M237.52,771.46 C224.64,779.91 212.39,790.84 205.13,804.5 C169.46,871.61 186.24,901.88 205.13,975.5 C209.75,993.49 219.98,1011.82 228.81,1025.34 " fill="none" id="RedoController-to-Board" style="stroke:#A80036;stroke-width:1.0;"/><polygon fill="#A80036" points="231.74,1029.74,230.0759,1020.0327,228.9665,1025.5797,223.4195,1024.4703,231.74,1029.74" style="stroke:#A80036;stroke-width:1.0;"/><path d="M210.13,809.5 L210.13,966.5 L466.13,966.5 L466.13,819.5 L456.13,809.5 L210.13,809.5 " fill="#FBFB77" filter="url(#fqoficjcu698c)" style="stroke:#A80036;stroke-width:1.0;"/><path d="M456.13,809.5 L456.13,819.5 L466.13,819.5 L456.13,809.5 " fill="#FBFB77" style="stroke:#A80036;stroke-width:1.0;"/><text fill="#000000" font-family="sans-serif" font-size="13" lengthAdjust="spacing" textLength="60" x="216.13" y="827.9951">undoable()</text><text fill="#000000" font-family="sans-serif" font-size="13" lengthAdjust="spacing" textLength="57" x="216.13" y="844.3467">redoable()</text><text fill="#000000" font-family="sans-serif" font-size="13" lengthAdjust="spacing" textLength="33" x="216.13" y="860.6982">redo()</text><text fill="#000000" font-family="sans-serif" font-size="13" lengthAdjust="spacing" textLength="67" x="216.13" y="877.0498">isFinished()</text><text fill="#000000" font-family="sans-serif" font-size="13" lengthAdjust="spacing" textLength="59" x="216.13" y="893.4014">isWinner()</text><text fill="#000000" font-family="sans-serif" font-size="13" lengthAdjust="spacing" textLength="79" x="216.13" y="909.7529">getAttempts()</text><text fill="#000000" font-family="sans-serif" font-size="13" lengthAdjust="spacing" textLength="235" x="216.13" y="926.1045">getProposedCombinationColors(position)</text><text fill="#000000" font-family="sans-serif" font-size="13" lengthAdjust="spacing" textLength="111" x="216.13" y="942.4561">getBlacks(position)</text><text fill="#000000" font-family="sans-serif" font-size="13" lengthAdjust="spacing" textLength="112" x="216.13" y="958.8076">getWhites(position)</text><!--MD5=[8dd95aff79c51151a18c835e3410b3cd]
link Board to Result--><path codeLine="86" d="M256.4589,1076.2555 C256.4589,1076.2555 285.42,1139.12 302.13,1170.5 C306.68,1179.03 311.91,1188.13 316.81,1196.38 " fill="none" id="Board-Result" style="stroke:#A80036;stroke-width:1.0;"/><polygon fill="#A80036" points="323.64,1207.7,322.4156,1197.9276,321.057,1203.4189,315.5657,1202.0603,323.64,1207.7" style="stroke:#A80036;stroke-width:1.0;"/><line style="stroke:#A80036;stroke-width:1.0;" x1="321.057" x2="316.925" y1="1203.4189" y2="1196.57"/><polygon fill="#A80036" points="251.54,1065.31,250.3509,1072.4224,256.4589,1076.2555,257.648,1069.1431,251.54,1065.31" style="stroke:#A80036;stroke-width:1.0;"/><path d="M307.13,1102.5 L307.13,1161.5 L395.13,1161.5 L395.13,1112.5 L385.13,1102.5 L307.13,1102.5 " fill="#FBFB77" filter="url(#fqoficjcu698c)" style="stroke:#A80036;stroke-width:1.0;"/><path d="M385.13,1102.5 L385.13,1112.5 L395.13,1112.5 L385.13,1102.5 " fill="#FBFB77" style="stroke:#A80036;stroke-width:1.0;"/><text fill="#000000" font-family="sans-serif" font-size="13" lengthAdjust="spacing" textLength="59" x="313.13" y="1120.9951">isWinner()</text><text fill="#000000" font-family="sans-serif" font-size="13" lengthAdjust="spacing" textLength="66" x="313.13" y="1137.3467">getBlacks()</text><text fill="#000000" font-family="sans-serif" font-size="13" lengthAdjust="spacing" textLength="67" x="313.13" y="1153.6982">getWhites()</text><!--MD5=[e0b5d9907fda64872c10fd6493e0c51f]
link Board to ProposedCombination--><path codeLine="92" d="M209.4306,1060.4608 C209.4306,1060.4608 173.65,1080.52 164.13,1097.5 C148.28,1125.81 154.15,1139.63 164.13,1170.5 C166.24,1177 169.45,1183.38 173.14,1189.35 " fill="none" id="Board-ProposedCombination" style="stroke:#A80036;stroke-width:1.0;"/><polygon fill="#A80036" points="180.68,1200.24,178.8445,1190.5637,177.8334,1196.1294,172.2676,1195.1183,180.68,1200.24" style="stroke:#A80036;stroke-width:1.0;"/><line style="stroke:#A80036;stroke-width:1.0;" x1="177.8334" x2="173.28" y1="1196.1294" y2="1189.55"/><polygon fill="#A80036" points="220.48,1055.78,213.395,1054.4373,209.4306,1060.4608,216.5156,1061.8036,220.48,1055.78" style="stroke:#A80036;stroke-width:1.0;"/><path d="M169.13,1111 L169.13,1153 L253.13,1153 L253.13,1121 L243.13,1111 L169.13,1111 " fill="#FBFB77" filter="url(#fqoficjcu698c)" style="stroke:#A80036;stroke-width:1.0;"/><path d="M243.13,1111 L243.13,1121 L253.13,1121 L243.13,1111 " fill="#FBFB77" style="stroke:#A80036;stroke-width:1.0;"/><text fill="#000000" font-family="sans-serif" font-size="13" lengthAdjust="spacing" textLength="54" x="175.13" y="1129.4951">getError()</text><text fill="#000000" font-family="sans-serif" font-size="13" lengthAdjust="spacing" textLength="63" x="175.13" y="1145.8467">getColors()</text><!--MD5=[2d4500cc75f159eca4a02f9c13f05618]
link ProposedCombination to Color--><path codeLine="97" d="M255.1118,1256.3063 C255.1118,1256.3063 280.33,1269.3 292.13,1274.5 C363.99,1306.15 451.66,1334.26 499.92,1348.87 " fill="none" id="ProposedCombination-Color" style="stroke:#A80036;stroke-width:1.0;"/><polygon fill="#A80036" points="512.44,1352.63,504.9717,1346.2094,507.6515,1351.1912,502.6696,1353.8711,512.44,1352.63" style="stroke:#A80036;stroke-width:1.0;"/><line style="stroke:#A80036;stroke-width:1.0;" x1="507.6515" x2="499.99" y1="1351.1912" y2="1348.89"/><polygon fill="#A80036" points="244.55,1250.61,247.9322,1256.9788,255.1118,1256.3063,251.7297,1249.9375,244.55,1250.61" style="stroke:#A80036;stroke-width:1.0;"/><!--MD5=[e8e56f95b2bfb8e03c3cdf9f0e0c50ee]
link Board to Color--><path codeLine="98" d="M267.76,1049.12 C302.89,1051.3 368.95,1060.43 408.13,1097.5 C471.96,1157.89 432.16,1206.86 475.13,1283.5 C484.74,1300.63 498.18,1317.85 509.99,1331.56 " fill="none" id="Board-to-Color" style="stroke:#A80036;stroke-width:1.0;stroke-dasharray:7.0,7.0;"/><polygon fill="#A80036" points="513.28,1335.33,510.3663,1325.922,509.9885,1331.5662,504.3443,1331.1884,513.28,1335.33" style="stroke:#A80036;stroke-width:1.0;"/><!--MD5=[7eed8f3f34aee1a227f55243155feb3b]
link RedoController to Color--><path codeLine="99" d="M338.72,748.6 C382.89,751.64 445.1,763.59 479.13,804.5 C546.3,885.23 540.58,1227.39 537.25,1330.18 " fill="none" id="RedoController-to-Color" style="stroke:#A80036;stroke-width:1.0;stroke-dasharray:7.0,7.0;"/><polygon fill="#A80036" points="537.09,1335.18,541.396,1326.3223,537.2613,1330.1829,533.4007,1326.0482,537.09,1335.18" style="stroke:#A80036;stroke-width:1.0;"/><!--MD5=[12f03c7f5abb6c3e068862197d6139ed]
link BoardView to Color--><path codeLine="100" d="M1029.95,364.22 C1133.3,367.97 1420.56,380.91 1451.13,409.5 C1493.77,449.37 1473.13,480.62 1473.13,539 C1473.13,539 1473.13,539 1473.13,1226.5 C1473.13,1320.58 723.13,1352.78 565.13,1358.52 " fill="none" id="BoardView-to-Color" style="stroke:#A80036;stroke-width:1.0;stroke-dasharray:7.0,7.0;"/><polygon fill="#A80036" points="559.76,1358.71,568.8918,1362.3993,564.7571,1358.5387,568.6177,1354.404,559.76,1358.71" style="stroke:#A80036;stroke-width:1.0;"/><!--MD5=[644d3bda32b13afd96f2f5d418a902c1]
link ProposedCombinationView to Color--><path codeLine="101" d="M659.75,557.68 C645.99,571.72 627.15,592.91 615.13,614.5 C585.13,668.41 572.13,684.8 572.13,746.5 C572.13,746.5 572.13,746.5 572.13,1226.5 C572.13,1263.21 559.2,1303.69 548.83,1330.24 " fill="none" id="ProposedCombinationView-to-Color" style="stroke:#A80036;stroke-width:1.0;stroke-dasharray:7.0,7.0;"/><polygon fill="#A80036" points="546.93,1335.03,553.9682,1328.1406,548.7746,1330.3827,546.5325,1325.1892,546.93,1335.03" style="stroke:#A80036;stroke-width:1.0;"/><!--MD5=[846c85d35f4a93f43b9e7108f510cad0]
link MenuView to Message--><path codeLine="102" d="M777.1,455.21 C785.16,485.52 806.34,549.64 848.13,584.5 C883.44,613.95 911.78,585.11 947.13,614.5 C968.68,632.42 959.89,647.66 976.13,670.5 C990.79,691.12 1010.8,711.79 1026,726.35 " fill="none" id="MenuView-to-Message" style="stroke:#A80036;stroke-width:1.0;stroke-dasharray:7.0,7.0;"/><polygon fill="#A80036" points="1029.76,729.92,1026.0023,720.8162,1026.1397,726.4714,1020.4845,726.6087,1029.76,729.92" style="stroke:#A80036;stroke-width:1.0;"/><path d="M853.13,525 L853.13,551 L909.13,551 L909.13,535 L899.13,525 L853.13,525 " fill="#FBFB77" filter="url(#fqoficjcu698c)" style="stroke:#A80036;stroke-width:1.0;"/><path d="M899.13,525 L899.13,535 L909.13,535 L899.13,525 " fill="#FBFB77" style="stroke:#A80036;stroke-width:1.0;"/><text fill="#000000" font-family="sans-serif" font-size="13" lengthAdjust="spacing" textLength="35" x="859.13" y="543.4951">write()</text><!--MD5=[7bf6310e2078d439bcd0e6b6dd4bf7dc]
link ProposedCombinationView to Message--><path codeLine="106" d="M712.61,557.61 C740.42,571.3 779.56,592.05 811.13,614.5 C841.39,636.02 841.91,650.4 873.13,670.5 C917.37,698.99 974.1,721.39 1010.78,734.28 " fill="none" id="ProposedCombinationView-to-Message" style="stroke:#A80036;stroke-width:1.0;stroke-dasharray:7.0,7.0;"/><polygon fill="#A80036" points="1015.59,735.96,1008.4012,729.2279,1010.8669,734.3191,1005.7757,736.7848,1015.59,735.96" style="stroke:#A80036;stroke-width:1.0;"/><path d="M878.13,627.5 L878.13,653.5 L934.13,653.5 L934.13,637.5 L924.13,627.5 L878.13,627.5 " fill="#FBFB77" filter="url(#fqoficjcu698c)" style="stroke:#A80036;stroke-width:1.0;"/><path d="M924.13,627.5 L924.13,637.5 L934.13,637.5 L924.13,627.5 " fill="#FBFB77" style="stroke:#A80036;stroke-width:1.0;"/><text fill="#000000" font-family="sans-serif" font-size="13" lengthAdjust="spacing" textLength="35" x="884.13" y="645.9951">write()</text><!--MD5=[23d6fa1c43e22343f1faa03c0df6aff6]
link ProposedCombinationView to RedoController--><path codeLine="114" d="M640.02,557.53 C618.96,566.44 591.93,577.09 567.13,584.5 C504.08,603.34 476.38,577.25 422.13,614.5 C397.74,631.25 406.11,648.68 386.13,670.5 C369.37,688.81 347.83,706.04 329.22,719.45 " fill="none" id="ProposedCombinationView-to-RedoController" style="stroke:#A80036;stroke-width:1.0;stroke-dasharray:7.0,7.0;"/><polygon fill="#A80036" points="325.05,722.43,334.6966,720.4442,329.1158,719.5198,330.0402,713.939,325.05,722.43" style="stroke:#A80036;stroke-width:1.0;"/><path d="M427.13,619.5 L427.13,661.5 L537.13,661.5 L537.13,629.5 L527.13,619.5 L427.13,619.5 " fill="#FBFB77" filter="url(#fqoficjcu698c)" style="stroke:#A80036;stroke-width:1.0;"/><path d="M527.13,619.5 L527.13,629.5 L537.13,629.5 L527.13,619.5 " fill="#FBFB77" style="stroke:#A80036;stroke-width:1.0;"/><text fill="#000000" font-family="sans-serif" font-size="13" lengthAdjust="spacing" textLength="89" x="433.13" y="637.9951">getError(colors)</text><text fill="#000000" font-family="sans-serif" font-size="13" lengthAdjust="spacing" textLength="64" x="433.13" y="654.3467">add(colors)</text><!--MD5=[1ae1607ec03845abaa8a3ac7891509dd]
link ProposeView to RedoController--><path codeLine="119" d="M845.56,230.58 C689.12,240.85 159.77,284.47 59.13,409.5 C6,475.51 31.34,557.82 132.13,670.5 C158.65,700.14 199.3,719.42 232.45,731.14 " fill="none" id="ProposeView-to-RedoController" style="stroke:#A80036;stroke-width:1.0;"/><polygon fill="#A80036" points="237.29,732.82,230.1012,726.0879,232.5669,731.1791,227.4757,733.6448,237.29,732.82" style="stroke:#A80036;stroke-width:1.0;"/><path d="M64.13,414.5 L64.13,456.5 L152.13,456.5 L152.13,424.5 L142.13,414.5 L64.13,414.5 " fill="#FBFB77" filter="url(#fqoficjcu698c)" style="stroke:#A80036;stroke-width:1.0;"/><path d="M142.13,414.5 L142.13,424.5 L152.13,424.5 L142.13,414.5 " fill="#FBFB77" style="stroke:#A80036;stroke-width:1.0;"/><text fill="#000000" font-family="sans-serif" font-size="13" lengthAdjust="spacing" textLength="67" x="70.13" y="432.9951">isFinished()</text><text fill="#000000" font-family="sans-serif" font-size="13" lengthAdjust="spacing" textLength="59" x="70.13" y="449.3467">isWinner()</text><!--MD5=[2af68b46eeb5c2e46543eeb7557d9936]
link ProposeView to Message--><path codeLine="124" d="M932.97,230.2 C982.95,234.09 1066.13,244.84 1131.13,274.5 C1275.68,340.47 1342.71,352.58 1412.13,495.5 C1429.41,531.08 1431.27,549.88 1412.13,584.5 C1345.97,704.15 1164.98,735.61 1085.92,743.74 " fill="none" id="ProposeView-to-Message" style="stroke:#A80036;stroke-width:1.0;stroke-dasharray:7.0,7.0;"/><polygon fill="#A80036" points="1080.86,744.24,1090.2142,747.322,1085.835,743.7411,1089.4159,739.3619,1080.86,744.24" style="stroke:#A80036;stroke-width:1.0;"/><path d="M1400.13,422.5 L1400.13,448.5 L1456.13,448.5 L1456.13,432.5 L1446.13,422.5 L1400.13,422.5 " fill="#FBFB77" filter="url(#fqoficjcu698c)" style="stroke:#A80036;stroke-width:1.0;"/><path d="M1446.13,422.5 L1446.13,432.5 L1456.13,432.5 L1446.13,422.5 " fill="#FBFB77" style="stroke:#A80036;stroke-width:1.0;"/><text fill="#000000" font-family="sans-serif" font-size="13" lengthAdjust="spacing" textLength="35" x="1406.13" y="440.9951">write()</text><!--MD5=[7169228af196aecd88154fe1727a36de]
link Board to Board--><path codeLine="128" d="M267.86,1033.19 C285.23,1028.37 302.63,1033.14 302.63,1047.5 C302.63,1060.4 288.59,1065.56 273.14,1062.98 " fill="none" id="Board-to-Board" style="stroke:#A80036;stroke-width:1.0;stroke-dasharray:7.0,7.0;"/><polygon fill="#A80036" points="267.86,1061.81,275.778,1067.6671,272.7409,1062.8947,277.5134,1059.8576,267.86,1061.81" style="stroke:#A80036;stroke-width:1.0;"/><path d="M307.63,1032.5 L307.63,1058.5 L378.63,1058.5 L378.63,1042.5 L368.63,1032.5 L307.63,1032.5 " fill="#FBFB77" filter="url(#fqoficjcu698c)" style="stroke:#A80036;stroke-width:1.0;"/><path d="M368.63,1032.5 L368.63,1042.5 L378.63,1042.5 L368.63,1032.5 " fill="#FBFB77" style="stroke:#A80036;stroke-width:1.0;"/><text fill="#000000" font-family="sans-serif" font-size="13" lengthAdjust="spacing" textLength="50" x="313.63" y="1050.9951">isLoser()</text><!--MD5=[9c3c49d2c46e41492ade90d337e2ed2e]
link ProposeView to MenuView--><path codeLine="132" d="M845.44,234.87 C821.7,241.03 794.2,252.66 779.13,274.5 C750,316.72 759.31,380.93 767.09,414.42 " fill="none" id="ProposeView-to-MenuView" style="stroke:#A80036;stroke-width:1.0;stroke-dasharray:7.0,7.0;"/><polygon fill="#A80036" points="768.32,419.53,770.1049,409.8442,767.151,414.6686,762.3266,411.7147,768.32,419.53" style="stroke:#A80036;stroke-width:1.0;"/><path d="M784.13,279.5 L784.13,305.5 L925.13,305.5 L925.13,289.5 L915.13,279.5 L784.13,279.5 " fill="#FBFB77" filter="url(#fqoficjcu698c)" style="stroke:#A80036;stroke-width:1.0;"/><path d="M915.13,279.5 L915.13,289.5 L925.13,289.5 L915.13,279.5 " fill="#FBFB77" style="stroke:#A80036;stroke-width:1.0;"/><text fill="#000000" font-family="sans-serif" font-size="13" lengthAdjust="spacing" textLength="120" x="790.13" y="297.9951">write(RedoController)</text><!--MD5=[4f7e4785f4e485ec5d042c9275bf79a2]
link MenuView to RedoController--><path codeLine="136" d="M738.06,437.72 C680.38,438.02 563.74,445.42 482.13,495.5 C458.64,509.92 353.25,655.28 308.42,717.97 " fill="none" id="MenuView-to-RedoController" style="stroke:#A80036;stroke-width:1.0;stroke-dasharray:7.0,7.0;"/><polygon fill="#A80036" points="305.3,722.34,313.7794,717.3301,308.2008,718.2675,307.2634,712.6888,305.3,722.34" style="stroke:#A80036;stroke-width:1.0;"/><path d="M487.13,508.5 L487.13,567.5 L568.13,567.5 L568.13,518.5 L558.13,508.5 L487.13,508.5 " fill="#FBFB77" filter="url(#fqoficjcu698c)" style="stroke:#A80036;stroke-width:1.0;"/><path d="M558.13,508.5 L558.13,518.5 L568.13,518.5 L558.13,508.5 " fill="#FBFB77" style="stroke:#A80036;stroke-width:1.0;"/><text fill="#000000" font-family="sans-serif" font-size="13" lengthAdjust="spacing" textLength="60" x="493.13" y="526.9951">undoable()</text><text fill="#000000" font-family="sans-serif" font-size="13" lengthAdjust="spacing" textLength="57" x="493.13" y="543.3467">redoable()</text><text fill="#000000" font-family="sans-serif" font-size="13" lengthAdjust="spacing" textLength="33" x="493.13" y="559.6982">redo()</text><!--MD5=[ac80e4cb1aeccb84cb804d53dc36b193]
@startuml mastermind_analisis_usecase_redo
allow_mixing

actor Player

package views {
    object ProposeView
    object Message
    object BoardView
    object SecretCombinationView
    object ProposedCombinationView
    object ResultView
    object ColorView
    object MenuView
}

package controllers {
    object "redoController\n:RedoController" as RedoController
}

package models {
    object Board
    object Result
    object "proposedCombination\n:ProposedCombination" as ProposedCombination
}

package types {
    object "color\n:Color" as Color
}

Player -down-> ProposeView
note on link
    redo()
end note
ProposeView .down.> BoardView
note on link
    write(RedoController)
end note
BoardView .down.> RedoController
note on link
    getAttempts()
    getProposedCombinationColors(position)
    getBlacks(position)
    getWhites(position)
end note
BoardView .down.> Message
note on link
    write(attempts)
end note
BoardView .down.> SecretCombinationView
note on link
    write()
end note
SecretCombinationView .down.> Message
note on link
    write()
end note
BoardView .down.> ProposedCombinationView
note on link
    write(colors)
end note
ProposedCombinationView .down.> ColorView
note on link
    write(color)
end note
ColorView .down.> Color
BoardView .down.> ResultView
note on link
    write(blacks, whites)
end note
ResultView .down.> Message
note on link
    write(blacks, whites)
end note
RedoController -down-> Board
note on link
    undoable()
    redoable()
    redo()
    isFinished()
    isWinner()
    getAttempts()
    getProposedCombinationColors(position)
    getBlacks(position)
    getWhites(position)
end note
Board *-down-> Result
note on link
    isWinner()
    getBlacks()
    getWhites()
end note
Board *-down-> ProposedCombination
note on link
    getError()
    getColors()
end note
ProposedCombination *-down-> Color
Board .down.> Color
RedoController .down.> Color
BoardView .down.> Color
ProposedCombinationView .down.> Color
MenuView .down.> Message
note on link
    write()
end note
ProposedCombinationView .down.> Message
note on link
    write()
end note
ProposedCombinationView .down.> ColorView
note on link
    read()
end note
ProposedCombinationView .down.> RedoController
note on link
    getError(colors)
    add(colors)
end note
ProposeView -down-> RedoController
note on link
    isFinished()
    isWinner()
end note
ProposeView .down.> Message
note on link
    write()
end note
Board .down.> Board
note on link
    isLoser()
end note
ProposeView .down.> MenuView
note on link
    write(RedoController)
end note
MenuView .down.> RedoController
note on link
    undoable()
    redoable()
    redo()
end note
@enduml

PlantUML version 1.2021.00(Sun Jan 10 11:25:05 CET 2021)
(GPL source distribution)
Java Runtime: Java(TM) SE Runtime Environment
JVM: Java HotSpot(TM) 64-Bit Server VM
Default Encoding: Cp1252
Language: es
Country: ES
--></g></svg>