<?xml version="1.0" encoding="UTF-8" standalone="no"?><svg xmlns="http://www.w3.org/2000/svg" xmlns:xlink="http://www.w3.org/1999/xlink" contentScriptType="application/ecmascript" contentStyleType="text/css" height="797px" preserveAspectRatio="none" style="width:347px;height:797px;" version="1.1" viewBox="0 0 347 797" width="347px" zoomAndPan="magnify"><defs><filter height="300%" id="fmf45ydsb1rqm" width="300%" x="-1" y="-1"><feGaussianBlur result="blurOut" stdDeviation="2.0"/><feColorMatrix in="blurOut" result="blurOut2" type="matrix" values="0 0 0 0 0 0 0 0 0 0 0 0 0 0 0 0 0 0 .4 0"/><feOffset dx="4.0" dy="4.0" in="blurOut2" result="blurOut3"/><feBlend in="SourceGraphic" in2="blurOut3" mode="normal"/></filter></defs><g><g id="INITIAL"><rect fill="#FEFECE" filter="url(#fmf45ydsb1rqm)" height="50" rx="12.5" ry="12.5" style="stroke:#A80036;stroke-width:1.5;" width="69" x="202.0111" y="87"/><line style="stroke:#A80036;stroke-width:1.5;" x1="202.0111" x2="271.0111" y1="113.2969" y2="113.2969"/><text fill="#000000" font-family="sans-serif" font-size="14" lengthAdjust="spacing" textLength="49" x="212.0111" y="104.9951">INITIAL</text></g><g id="IN_GAME"><rect fill="#FEFECE" filter="url(#fmf45ydsb1rqm)" height="50" rx="12.5" ry="12.5" style="stroke:#A80036;stroke-width:1.5;" width="83" x="129.0111" y="214"/><line style="stroke:#A80036;stroke-width:1.5;" x1="129.0111" x2="212.0111" y1="240.2969" y2="240.2969"/><text fill="#000000" font-family="sans-serif" font-size="14" lengthAdjust="spacing" textLength="63" x="139.0111" y="231.9951">IN_GAME</text></g><g id="OUT_GAME"><rect fill="#FEFECE" filter="url(#fmf45ydsb1rqm)" height="50" rx="12.5" ry="12.5" style="stroke:#A80036;stroke-width:1.5;" width="98" x="114.5111" y="442"/><line style="stroke:#A80036;stroke-width:1.5;" x1="114.5111" x2="212.5111" y1="468.2969" y2="468.2969"/><text fill="#000000" font-family="sans-serif" font-size="14" lengthAdjust="spacing" textLength="78" x="124.5111" y="459.9951">OUT_GAME</text></g><g id="EXIT"><rect fill="#FEFECE" filter="url(#fmf45ydsb1rqm)" height="50" rx="12.5" ry="12.5" style="stroke:#A80036;stroke-width:1.5;" width="52" x="194.5111" y="654"/><line style="stroke:#A80036;stroke-width:1.5;" x1="194.5111" x2="246.5111" y1="680.2969" y2="680.2969"/><text fill="#000000" font-family="sans-serif" font-size="14" lengthAdjust="spacing" textLength="32" x="204.5111" y="671.9951">EXIT</text></g><polygon fill="#FEFECE" filter="url(#fmf45ydsb1rqm)" points="163.5111,341,175.5111,353,163.5111,365,151.5111,353,163.5111,341" style="stroke:#A80036;stroke-width:1.5;"/><polygon fill="#FEFECE" filter="url(#fmf45ydsb1rqm)" points="220.5111,569,232.5111,581,220.5111,593,208.5111,581,220.5111,569" style="stroke:#A80036;stroke-width:1.5;"/><ellipse cx="236.5111" cy="16" fill="#000000" filter="url(#fmf45ydsb1rqm)" rx="10" ry="10" style="stroke:none;stroke-width:1.0;"/><ellipse cx="220.5111" cy="775" filter="url(#fmf45ydsb1rqm)" rx="10" ry="10" style="stroke:#000000;stroke-width:1.0;fill:none;"/><ellipse cx="221.0111" cy="775.5" fill="#000000" rx="6" ry="6" style="stroke:none;stroke-width:1.0;"/><!--MD5=[06c3f2024f4ea60966e79307ee69ec5f]
link *start to INITIAL--><path d="M236.5111,26.013 C236.5111,38.698 236.5111,62.409 236.5111,81.57 " fill="none" id="*start-to-INITIAL" style="stroke:#A80036;stroke-width:1.0;"/><polygon fill="#A80036" points="236.5111,86.84,240.5111,77.84,236.5111,81.84,232.5111,77.84,236.5111,86.84" style="stroke:#A80036;stroke-width:1.0;"/><!--MD5=[c6210ae09f2e397a3dfeeac0c7e340d4]
link INITIAL to IN_GAME--><path d="M222.8741,137.086 C217.6741,146.39 211.7421,157.149 206.5111,167 C199.1791,180.806 191.2991,196.273 184.7851,209.237 " fill="none" id="INITIAL-to-IN_GAME" style="stroke:#A80036;stroke-width:1.0;"/><polygon fill="#A80036" points="182.4511,213.893,190.0601,207.6398,184.6917,209.4232,182.9084,204.0548,182.4511,213.893" style="stroke:#A80036;stroke-width:1.0;"/><text fill="#000000" font-family="sans-serif" font-size="13" lengthAdjust="spacing" textLength="31" x="207.5111" y="180.0669">Start</text><!--MD5=[200846c1dd6de3f2a37d61d02f348d5e]
link IN_GAME to if_finished--><path d="M128.9485,244.229 C97.216,249.884 55.4866,263.103 34.5112,294 C6,335.997 107.6483,347.988 147.8401,351.048 " fill="none" id="IN_GAME-to-if_finished" style="stroke:#A80036;stroke-width:1.0;"/><polygon fill="#A80036" points="152.8651,351.409,144.1737,346.7765,147.8779,351.052,143.6024,354.7561,152.8651,351.409" style="stroke:#A80036;stroke-width:1.0;"/><text fill="#000000" font-family="sans-serif" font-size="13" lengthAdjust="spacing" textLength="135" x="35.5112" y="307.0669">Propose combination</text><!--MD5=[5848ef64f427518330d05d0e49dfaccc]
link if_finished to IN_GAME--><path d="M166.5981,343.983 C169.5611,335.826 173.8271,322.747 175.5111,311 C177.4771,297.286 176.7621,281.966 175.3371,269.077 " fill="none" id="if_finished-to-IN_GAME" style="stroke:#A80036;stroke-width:1.0;"/><polygon fill="#A80036" points="174.7371,264.082,171.8379,273.4945,175.3328,269.0464,179.7809,272.5413,174.7371,264.082" style="stroke:#A80036;stroke-width:1.0;"/><!--MD5=[fb580c452284ecb35857e88f372e8dbe]
link if_finished to OUT_GAME--><path d="M163.5111,365.148 C163.5111,381.609 163.5111,412.991 163.5111,436.396 " fill="none" id="if_finished-to-OUT_GAME" style="stroke:#A80036;stroke-width:1.0;"/><polygon fill="#A80036" points="163.5111,441.56,167.5111,432.56,163.5111,436.56,159.5111,432.56,163.5111,441.56" style="stroke:#A80036;stroke-width:1.0;"/><text fill="#000000" font-family="sans-serif" font-size="13" lengthAdjust="spacing" textLength="60" x="164.5111" y="408.0669">[finished]</text><!--MD5=[636b806927507f296b22f82987e0fbb2]
link OUT_GAME to if_resumed--><path d="M167.8991,492.034 C171.1511,506.287 176.4401,524.368 184.5111,539 C191.4311,551.545 202.7401,563.578 210.8371,571.325 " fill="none" id="OUT_GAME-to-if_resumed" style="stroke:#A80036;stroke-width:1.0;"/><polygon fill="#A80036" points="214.5201,574.768,210.6764,565.7001,210.8673,571.3538,205.2137,571.5446,214.5201,574.768" style="stroke:#A80036;stroke-width:1.0;"/><text fill="#000000" font-family="sans-serif" font-size="13" lengthAdjust="spacing" textLength="53" x="185.5111" y="535.0669">Resume</text><!--MD5=[36553ab13ef484d8e624246e921f8591]
link if_resumed to INITIAL--><path d="M225.3271,573.305 C236.9361,556.488 265.5111,510.749 265.5111,468 C265.5111,238 265.5111,238 265.5111,238 C265.5111,204.375 255.4301,166.947 247.1551,141.889 " fill="none" id="if_resumed-to-INITIAL" style="stroke:#A80036;stroke-width:1.0;"/><polygon fill="#A80036" points="245.5281,137.048,244.6033,146.8533,247.1208,141.7875,252.1866,144.305,245.5281,137.048" style="stroke:#A80036;stroke-width:1.0;"/><text fill="#000000" font-family="sans-serif" font-size="13" lengthAdjust="spacing" textLength="73" x="266.5111" y="357.5669">[continued]</text><!--MD5=[00ace724ee34ef802585e1261ed65fdc]
link if_resumed to EXIT--><path d="M220.5111,593.012 C220.5111,606.518 220.5111,629.935 220.5111,648.773 " fill="none" id="if_resumed-to-EXIT" style="stroke:#A80036;stroke-width:1.0;"/><polygon fill="#A80036" points="220.5111,653.953,224.5111,644.953,220.5111,648.953,216.5111,644.953,220.5111,653.953" style="stroke:#A80036;stroke-width:1.0;"/><!--MD5=[bd19b40b84bbe903342104a02ae53ed4]
link EXIT to *end--><path d="M220.5111,704.2073 C220.5111,721.8423 220.5111,745.1261 220.5111,759.8351 " fill="none" id="EXIT-to-*end" style="stroke:#A80036;stroke-width:1.0;"/><polygon fill="#A80036" points="220.5111,764.8399,224.5111,755.8399,220.5111,759.8399,216.5111,755.8399,220.5111,764.8399" style="stroke:#A80036;stroke-width:1.0;"/><!--MD5=[19f362a6e61a266def2fd79b3c815915]
@startuml
state INITIAL
state IN_GAME
state OUT_GAME
state EXIT
state if_finished <<choice>>
state if_resumed <<choice>>

[*] - -> INITIAL
INITIAL - -> IN_GAME: Start
IN_GAME - -> if_finished: Propose combination
if_finished - -> IN_GAME
if_finished - -> OUT_GAME: [finished]
OUT_GAME - -> if_resumed: Resume
if_resumed - -> INITIAL: [continued]
if_resumed - -> EXIT
EXIT - -> [*]
@enduml

PlantUML version 1.2021.4beta2(Unknown compile time)
(GPL source distribution)
Java Runtime: Java(TM) SE Runtime Environment
JVM: Java HotSpot(TM) 64-Bit Server VM
Default Encoding: UTF-8
Language: en
Country: US
--></g></svg>