<?xml version="1.0" encoding="UTF-8" standalone="no"?><svg xmlns="http://www.w3.org/2000/svg" xmlns:xlink="http://www.w3.org/1999/xlink" contentScriptType="application/ecmascript" contentStyleType="text/css" height="1390px" preserveAspectRatio="none" style="width:894px;height:1390px;" version="1.1" viewBox="0 0 894 1390" width="894px" zoomAndPan="magnify"><defs><filter height="300%" id="f1bt0wc06k60ve" width="300%" x="-1" y="-1"><feGaussianBlur result="blurOut" stdDeviation="2.0"/><feColorMatrix in="blurOut" result="blurOut2" type="matrix" values="0 0 0 0 0 0 0 0 0 0 0 0 0 0 0 0 0 0 .4 0"/><feOffset dx="4.0" dy="4.0" in="blurOut2" result="blurOut3"/><feBlend in="SourceGraphic" in2="blurOut3" mode="normal"/></filter></defs><g><g id="IN_GAME"><rect fill="#FEFECE" filter="url(#f1bt0wc06k60ve)" height="50" rx="12.5" ry="12.5" style="stroke:#A80036;stroke-width:1.5;" width="83" x="229.6357" y="87"/><line style="stroke:#A80036;stroke-width:1.5;" x1="229.6357" x2="312.6357" y1="113.2969" y2="113.2969"/><text fill="#000000" font-family="sans-serif" font-size="14" lengthAdjust="spacing" textLength="63" x="239.6357" y="104.9951">IN_GAME</text></g><g id="requested"><rect fill="#FEFECE" filter="url(#f1bt0wc06k60ve)" height="50" rx="12.5" ry="12.5" style="stroke:#A80036;stroke-width:1.5;" width="50" x="246.1357" y="214"/><line style="stroke:#A80036;stroke-width:1.5;" x1="246.1357" x2="296.1357" y1="240.2969" y2="240.2969"/><text fill="#000000" font-family="sans-serif" font-size="14" lengthAdjust="spacing" textLength="0" x="273.1357" y="231.9951"/></g><g id="allowed"><rect fill="#FEFECE" filter="url(#f1bt0wc06k60ve)" height="50" rx="12.5" ry="12.5" style="stroke:#A80036;stroke-width:1.5;" width="50" x="246.1357" y="341"/><line style="stroke:#A80036;stroke-width:1.5;" x1="246.1357" x2="296.1357" y1="367.2969" y2="367.2969"/><text fill="#000000" font-family="sans-serif" font-size="14" lengthAdjust="spacing" textLength="0" x="273.1357" y="358.9951"/></g><g id="error"><rect fill="#FEFECE" filter="url(#f1bt0wc06k60ve)" height="50" rx="12.5" ry="12.5" style="stroke:#A80036;stroke-width:1.5;" width="50" x="95.1357" y="718"/><line style="stroke:#A80036;stroke-width:1.5;" x1="95.1357" x2="145.1357" y1="744.2969" y2="744.2969"/><text fill="#000000" font-family="sans-serif" font-size="14" lengthAdjust="spacing" textLength="0" x="122.1357" y="735.9951"/></g><g id="ShowBoard"><rect fill="#FEFECE" filter="url(#f1bt0wc06k60ve)" height="50" rx="12.5" ry="12.5" style="stroke:#A80036;stroke-width:1.5;" width="104" x="430.1357" y="638"/><line style="stroke:#A80036;stroke-width:1.5;" x1="430.1357" x2="534.1357" y1="664.2969" y2="664.2969"/><text fill="#000000" font-family="sans-serif" font-size="14" lengthAdjust="spacing" textLength="84" x="440.1357" y="655.9951">Show board</text></g><g id="winner"><rect fill="#FEFECE" filter="url(#f1bt0wc06k60ve)" height="50" rx="12.5" ry="12.5" style="stroke:#A80036;stroke-width:1.5;" width="50" x="409.1357" y="1104"/><line style="stroke:#A80036;stroke-width:1.5;" x1="409.1357" x2="459.1357" y1="1130.2969" y2="1130.2969"/><text fill="#000000" font-family="sans-serif" font-size="14" lengthAdjust="spacing" textLength="0" x="436.1357" y="1121.9951"/></g><g id="looser"><rect fill="#FEFECE" filter="url(#f1bt0wc06k60ve)" height="50" rx="12.5" ry="12.5" style="stroke:#A80036;stroke-width:1.5;" width="50" x="639.1357" y="1104"/><line style="stroke:#A80036;stroke-width:1.5;" x1="639.1357" x2="689.1357" y1="1130.2969" y2="1130.2969"/><text fill="#000000" font-family="sans-serif" font-size="14" lengthAdjust="spacing" textLength="0" x="666.1357" y="1121.9951"/></g><g id="finished"><rect fill="#FEFECE" filter="url(#f1bt0wc06k60ve)" height="50" rx="12.5" ry="12.5" style="stroke:#A80036;stroke-width:1.5;" width="50" x="409.1357" y="1231"/><line style="stroke:#A80036;stroke-width:1.5;" x1="409.1357" x2="459.1357" y1="1257.2969" y2="1257.2969"/><text fill="#000000" font-family="sans-serif" font-size="14" lengthAdjust="spacing" textLength="0" x="436.1357" y="1248.9951"/></g><g id="last"><rect fill="#FEFECE" filter="url(#f1bt0wc06k60ve)" height="50" rx="12.5" ry="12.5" style="stroke:#A80036;stroke-width:1.5;" width="50" x="106.1357" y="938"/><line style="stroke:#A80036;stroke-width:1.5;" x1="106.1357" x2="156.1357" y1="964.2969" y2="964.2969"/><text fill="#000000" font-family="sans-serif" font-size="14" lengthAdjust="spacing" textLength="0" x="133.1357" y="955.9951"/></g><polygon fill="#FEFECE" filter="url(#f1bt0wc06k60ve)" points="271.1357,468,283.1357,480,271.1357,492,259.1357,480,271.1357,468" style="stroke:#A80036;stroke-width:1.5;"/><polygon fill="#FEFECE" filter="url(#f1bt0wc06k60ve)" points="437.1357,798,449.1357,810,437.1357,822,425.1357,810,437.1357,798" style="stroke:#A80036;stroke-width:1.5;"/><polygon fill="#FEFECE" filter="url(#f1bt0wc06k60ve)" points="437.1357,951,449.1357,963,437.1357,975,425.1357,963,437.1357,951" style="stroke:#A80036;stroke-width:1.5;"/><ellipse cx="271.1357" cy="16" fill="#000000" filter="url(#f1bt0wc06k60ve)" rx="10" ry="10" style="stroke:none;stroke-width:1.0;"/><ellipse cx="221.1357" cy="1368" filter="url(#f1bt0wc06k60ve)" rx="10" ry="10" style="stroke:#000000;stroke-width:1.0;fill:none;"/><ellipse cx="221.6357" cy="1368.5" fill="#000000" rx="6" ry="6" style="stroke:none;stroke-width:1.0;"/><!--MD5=[bc741243a5bb3318d84c2be45b028a19]
link *start to IN_GAME--><path d="M271.1357,26.01 C271.1357,38.7 271.1357,62.41 271.1357,81.57 " fill="none" id="*start-to-IN_GAME" style="stroke:#A80036;stroke-width:1.0;"/><polygon fill="#A80036" points="271.1357,86.84,275.1357,77.84,271.1357,81.84,267.1357,77.84,271.1357,86.84" style="stroke:#A80036;stroke-width:1.0;"/><!--MD5=[cb6173ff77cdc04f8d8e07efcd41f8ff]
link IN_GAME to requested--><path d="M271.1357,137.1 C271.1357,157.59 271.1357,187.08 271.1357,208.88 " fill="none" id="IN_GAME-to-requested" style="stroke:#A80036;stroke-width:1.0;"/><polygon fill="#A80036" points="271.1357,213.97,275.1357,204.97,271.1357,208.97,267.1357,204.97,271.1357,213.97" style="stroke:#A80036;stroke-width:1.0;"/><text fill="#000000" font-family="sans-serif" font-size="13" lengthAdjust="spacing" textLength="251" x="272.1357" y="180.0669">Player requests propose a combination</text><!--MD5=[88d5e542042b4fb9fa98fbbb3d94e471]
link requested to allowed--><path d="M271.1357,264.1 C271.1357,284.59 271.1357,314.08 271.1357,335.88 " fill="none" id="requested-to-allowed" style="stroke:#A80036;stroke-width:1.0;"/><polygon fill="#A80036" points="271.1357,340.97,275.1357,331.97,271.1357,335.97,267.1357,331.97,271.1357,340.97" style="stroke:#A80036;stroke-width:1.0;"/><text fill="#000000" font-family="sans-serif" font-size="13" lengthAdjust="spacing" textLength="268" x="272.1357" y="307.0669">System requests a proposed combination</text><!--MD5=[e5cc7d208b298153099280e3951d184e]
link allowed to is_correct--><path d="M271.1357,391.027 C271.1357,412.579 271.1357,443.634 271.1357,462.501 " fill="none" id="allowed-to-is_correct" style="stroke:#A80036;stroke-width:1.0;"/><polygon fill="#A80036" points="271.1357,467.941,275.1357,458.941,271.1357,462.941,267.1357,458.941,271.1357,467.941" style="stroke:#A80036;stroke-width:1.0;"/><text fill="#000000" font-family="sans-serif" font-size="13" lengthAdjust="spacing" textLength="270" x="272.1357" y="434.0669">Player introduces a proposed combination</text><!--MD5=[322e35916e3fe5ed92d20e54a8addb28]
link is_correct to ShowBoard--><path d="M281.7757,481.744 C318.0787,484.506 436.1977,495.423 461.1357,522 C488.8767,551.565 489.5867,601.158 486.5827,632.692 " fill="none" id="is_correct-to-ShowBoard" style="stroke:#A80036;stroke-width:1.0;"/><polygon fill="#A80036" points="486.0287,637.976,490.9454,629.4422,486.5501,633.0033,482.9891,628.6079,486.0287,637.976" style="stroke:#A80036;stroke-width:1.0;"/><!--MD5=[08af5ad016320016223ca6c53ecc136d]
link is_correct to error--><path d="M260.2017,481.297 C219.8157,482.645 79.9961,489.617 53.1357,522 C6,578.827 61.9192,668.348 96.6062,713.679 " fill="none" id="is_correct-to-error" style="stroke:#A80036;stroke-width:1.0;"/><polygon fill="#A80036" points="99.6854,717.661,97.3442,708.0945,96.6268,713.7056,91.0156,712.9883,99.6854,717.661" style="stroke:#A80036;stroke-width:1.0;"/><text fill="#000000" font-family="sans-serif" font-size="13" lengthAdjust="spacing" textLength="213" x="146.6357" y="535.0669">[incorrect proposed combination]</text><path d="M58.1357,544.1328 L58.1357,599.1328 L444.1357,599.1328 L444.1357,554.1328 L434.1357,544.1328 L58.1357,544.1328 " fill="#FBFB77" filter="url(#f1bt0wc06k60ve)" style="stroke:#A80036;stroke-width:1.0;"/><path d="M434.1357,544.1328 L434.1357,554.1328 L444.1357,554.1328 L434.1357,544.1328 " fill="#FBFB77" style="stroke:#A80036;stroke-width:1.0;"/><text fill="#000000" font-family="sans-serif" font-size="13" lengthAdjust="spacing" textLength="258" x="64.1357" y="561.1997">proposedCombination.colors.length != 4</text><text fill="#000000" font-family="sans-serif" font-size="13" lengthAdjust="spacing" textLength="325" x="64.1357" y="576.3325">proposedCombination.colors at least one repeated</text><text fill="#000000" font-family="sans-serif" font-size="13" lengthAdjust="spacing" textLength="365" x="64.1357" y="591.4653">proposedCombination.colors at least one != Color.values</text><!--MD5=[8861f036e8dce612437ba5673f8e2184]
link error to last--><path d="M121.3549,768.163 C123.3867,808.43 127.4584,889.123 129.653,932.615 " fill="none" id="error-to-last" style="stroke:#A80036;stroke-width:1.0;"/><polygon fill="#A80036" points="129.911,937.729,133.4507,928.5382,129.6581,932.7354,125.461,928.9428,129.911,937.729" style="stroke:#A80036;stroke-width:1.0;"/><text fill="#000000" font-family="sans-serif" font-size="13" lengthAdjust="spacing" textLength="129" x="125.1357" y="814.5669">System shows error</text><!--MD5=[4eba416b40db52bd3d240c8af95f74c8]
link ShowBoard to is_finished--><path d="M474.6037,688.27 C465.0667,719 448.9637,770.889 441.3567,795.4 " fill="none" id="ShowBoard-to-is_finished" style="stroke:#A80036;stroke-width:1.0;"/><polygon fill="#A80036" points="439.7827,800.47,446.2696,793.0592,441.2641,795.6945,438.6287,790.689,439.7827,800.47" style="stroke:#A80036;stroke-width:1.0;"/><!--MD5=[bafe74a506a7eedf19f245ac5d89b009]
link is_finished to is_winner--><path d="M437.1357,822.35 C437.1357,848.823 437.1357,914.746 437.1357,945.595 " fill="none" id="is_finished-to-is_winner" style="stroke:#A80036;stroke-width:1.0;"/><polygon fill="#A80036" points="437.1357,950.929,441.1357,941.929,437.1357,945.929,433.1357,941.929,437.1357,950.929" style="stroke:#A80036;stroke-width:1.0;"/><text fill="#000000" font-family="sans-serif" font-size="13" lengthAdjust="spacing" textLength="60" x="470.6357" y="865.0669">[finished]</text><path d="M442.1357,874.1328 L442.1357,899.1328 L555.1357,899.1328 L555.1357,884.1328 L545.1357,874.1328 L442.1357,874.1328 " fill="#FBFB77" filter="url(#f1bt0wc06k60ve)" style="stroke:#A80036;stroke-width:1.0;"/><path d="M545.1357,874.1328 L545.1357,884.1328 L555.1357,884.1328 L545.1357,874.1328 " fill="#FBFB77" style="stroke:#A80036;stroke-width:1.0;"/><text fill="#000000" font-family="sans-serif" font-size="13" lengthAdjust="spacing" textLength="92" x="448.1357" y="891.1997">winner || loser</text><!--MD5=[a9edb36823706432e4cf5dbd7f7fd8ac]
link is_winner to winner--><path d="M436.9347,975.015 C436.4767,1000 435.3487,1061.663 434.6727,1098.625 " fill="none" id="is_winner-to-winner" style="stroke:#A80036;stroke-width:1.0;"/><polygon fill="#A80036" points="434.5767,1103.891,438.7406,1094.9657,434.6681,1098.8918,430.742,1094.8194,434.5767,1103.891" style="stroke:#A80036;stroke-width:1.0;"/><text fill="#000000" font-family="sans-serif" font-size="13" lengthAdjust="spacing" textLength="53" x="479.1357" y="1031.0669">[winner]</text><path d="M440.1357,1040.1328 L440.1357,1065.1328 L567.1357,1065.1328 L567.1357,1050.1328 L557.1357,1040.1328 L440.1357,1040.1328 " fill="#FBFB77" filter="url(#f1bt0wc06k60ve)" style="stroke:#A80036;stroke-width:1.0;"/><path d="M557.1357,1040.1328 L557.1357,1050.1328 L567.1357,1050.1328 L557.1357,1040.1328 " fill="#FBFB77" style="stroke:#A80036;stroke-width:1.0;"/><text fill="#000000" font-family="sans-serif" font-size="13" lengthAdjust="spacing" textLength="106" x="446.1357" y="1057.1997">result.blacks = 4</text><!--MD5=[110b45469edeaa4781f2fa19a67a7221]
link is_winner to looser--><path d="M446.6537,965.511 C471.4937,969.845 539.4477,984.238 584.1357,1018 C612.8697,1039.709 635.7597,1074.591 649.5717,1099.247 " fill="none" id="is_winner-to-looser" style="stroke:#A80036;stroke-width:1.0;"/><polygon fill="#A80036" points="652.0437,1103.726,651.197,1093.9136,649.6277,1099.3484,644.1929,1097.7791,652.0437,1103.726" style="stroke:#A80036;stroke-width:1.0;"/><text fill="#000000" font-family="sans-serif" font-size="13" lengthAdjust="spacing" textLength="41" x="742.6357" y="1031.0669">[loser]</text><path d="M637.1357,1040.1328 L637.1357,1065.1328 L885.1357,1065.1328 L885.1357,1050.1328 L875.1357,1040.1328 L637.1357,1040.1328 " fill="#FBFB77" filter="url(#f1bt0wc06k60ve)" style="stroke:#A80036;stroke-width:1.0;"/><path d="M875.1357,1040.1328 L875.1357,1050.1328 L885.1357,1050.1328 L875.1357,1040.1328 " fill="#FBFB77" style="stroke:#A80036;stroke-width:1.0;"/><text fill="#000000" font-family="sans-serif" font-size="13" lengthAdjust="spacing" textLength="227" x="643.1357" y="1057.1997">result.blacks &lt; 4 &amp;&amp; attempts = 10</text><!--MD5=[6a9906541693f74107af026827f0d8df]
link is_finished to last--><path d="M429.5717,814.733 C392.5427,833.005 229.4187,913.501 161.2437,947.143 " fill="none" id="is_finished-to-last" style="stroke:#A80036;stroke-width:1.0;"/><polygon fill="#A80036" points="156.5027,949.482,166.3436,949.0863,160.9865,947.2694,162.8034,941.9123,156.5027,949.482" style="stroke:#A80036;stroke-width:1.0;"/><!--MD5=[ff0ac845adfb42913b3584196bbdcdc5]
link winner to finished--><path d="M432.2667,1154.311 C431.4247,1168.018 430.7047,1185.461 431.1357,1201 C431.3557,1208.931 431.7577,1217.51 432.1967,1225.444 " fill="none" id="winner-to-finished" style="stroke:#A80036;stroke-width:1.0;"/><polygon fill="#A80036" points="432.5057,1230.819,435.9848,1221.6051,432.22,1225.8272,427.9979,1222.0623,432.5057,1230.819" style="stroke:#A80036;stroke-width:1.0;"/><text fill="#000000" font-family="sans-serif" font-size="13" lengthAdjust="spacing" textLength="204" x="432.1357" y="1197.0669">System shows winner message</text><!--MD5=[86935a91d5f22b7ec58c171ad0db4001]
link looser to finished--><path d="M662.1607,1154.205 C659.6427,1169.625 653.9527,1188.907 641.1357,1201 C592.3337,1247.046 509.3247,1254.996 464.6907,1255.686 " fill="none" id="looser-to-finished" style="stroke:#A80036;stroke-width:1.0;"/><polygon fill="#A80036" points="459.4427,1255.737,468.48,1259.652,464.4425,1255.6899,468.4046,1251.6523,459.4427,1255.737" style="stroke:#A80036;stroke-width:1.0;"/><text fill="#000000" font-family="sans-serif" font-size="13" lengthAdjust="spacing" textLength="192" x="653.1357" y="1197.0669">System shows loser message</text><!--MD5=[62f5431c62ca06a9e4048299cbf52b51]
link last to *end--><path d="M132.0825,988.221 C134.1954,1031.492 140.6617,1124.691 159.1357,1201 C173.3777,1259.83 202.3517,1326.2862 214.9987,1353.8952 " fill="none" id="last-to-*end" style="stroke:#A80036;stroke-width:1.0;"/><polygon fill="#A80036" points="217.1637,1358.5877,217.0272,1348.7398,215.0699,1354.0472,209.7624,1352.0899,217.1637,1358.5877" style="stroke:#A80036;stroke-width:1.0;"/><text fill="#000000" font-family="sans-serif" font-size="13" lengthAdjust="spacing" textLength="261" x="160.1357" y="1197.0669">System allows to propose a combination</text><!--MD5=[f20ab7065c26ebabf49f7b8c32a28769]
link finished to *end--><path d="M408.8657,1270.05 C363.4917,1293.483 269.6847,1341.9275 234.6897,1360.0001 " fill="none" id="finished-to-*end" style="stroke:#A80036;stroke-width:1.0;"/><polygon fill="#A80036" points="229.9667,1362.4395,239.7987,1361.8638,234.4093,1360.1452,236.1279,1354.7558,229.9667,1362.4395" style="stroke:#A80036;stroke-width:1.0;"/><text fill="#000000" font-family="sans-serif" font-size="13" lengthAdjust="spacing" textLength="247" x="328.1357" y="1324.0669">System allows to resume a new game</text><!--MD5=[f65b04aa77f1730aeca4f9b8f2bdfac1]
@startuml
state IN_GAME
state requested as " "
state allowed as " "
state error as " "
state ShowBoard as "Show board"
state winner as " "
state looser as " "
state finished as " "
state last as " "
state is_correct <<choice>>
state is_finished <<choice>>
state is_winner <<choice>>

[*] - -> IN_GAME
IN_GAME - -> requested: Player requests propose a combination
requested - -> allowed: System requests a proposed combination
allowed - -> is_correct: Player introduces a proposed combination
is_correct - -> ShowBoard
is_correct - -> error: [incorrect proposed combination]
note on link 
  proposedCombination.colors.length != 4
  proposedCombination.colors at least one repeated
  proposedCombination.colors at least one != Color.values
end note
error - -> last: System shows error
ShowBoard - -> is_finished
is_finished - -> is_winner: [finished]
note on link
  winner || loser
end note
is_winner - -> winner: [winner]
note on link
  result.blacks = 4
end note
is_winner - -> looser: [loser]
note on link
  result.blacks < 4 && attempts = 10
end note
is_finished - -> last
winner - -> finished: System shows winner message
looser - -> finished: System shows loser message
last - -> [*]: System allows to propose a combination
finished - -> [*]: System allows to resume a new game
@enduml

PlantUML version 1.2021.4beta2(Unknown compile time)
(GPL source distribution)
Java Runtime: Java(TM) SE Runtime Environment
JVM: Java HotSpot(TM) 64-Bit Server VM
Default Encoding: UTF-8
Language: en
Country: US
--></g></svg>