<?xml version="1.0" encoding="UTF-8" standalone="no"?><svg xmlns="http://www.w3.org/2000/svg" xmlns:xlink="http://www.w3.org/1999/xlink" contentScriptType="application/ecmascript" contentStyleType="text/css" height="581px" preserveAspectRatio="none" style="width:2009px;height:581px;" version="1.1" viewBox="0 0 2009 581" width="2009px" zoomAndPan="magnify"><defs><filter height="300%" id="fevryxyalm0o8" width="300%" x="-1" y="-1"><feGaussianBlur result="blurOut" stdDeviation="2.0"/><feColorMatrix in="blurOut" result="blurOut2" type="matrix" values="0 0 0 0 0 0 0 0 0 0 0 0 0 0 0 0 0 0 .4 0"/><feOffset dx="4.0" dy="4.0" in="blurOut2" result="blurOut3"/><feBlend in="SourceGraphic" in2="blurOut3" mode="normal"/></filter></defs><g><!--MD5=[e2a75efa8a0f57c2afae8bf75386f79c]
cluster views--><polygon fill="#FFFFFF" filter="url(#fevryxyalm0o8)" points="16,6,67,6,74,28.2969,757,28.2969,757,574,16,574,16,6" style="stroke:#000000;stroke-width:1.5;"/><line style="stroke:#000000;stroke-width:1.5;" x1="16" x2="74" y1="28.2969" y2="28.2969"/><text fill="#000000" font-family="sans-serif" font-size="14" font-weight="bold" lengthAdjust="spacing" textLength="45" x="20" y="20.9951">views</text><!--MD5=[f4e70ef68289585296b9045165e58692]
cluster controllers--><polygon fill="#FFFFFF" filter="url(#fevryxyalm0o8)" points="797,121,892,121,899,143.2969,1361,143.2969,1361,466,797,466,797,121" style="stroke:#000000;stroke-width:1.5;"/><line style="stroke:#000000;stroke-width:1.5;" x1="797" x2="899" y1="143.2969" y2="143.2969"/><text fill="#000000" font-family="sans-serif" font-size="14" font-weight="bold" lengthAdjust="spacing" textLength="89" x="801" y="135.9951">controllers</text><!--MD5=[a60570e4b426f702ccbb0d459e3b9417]
cluster models--><polygon fill="#FFFFFF" filter="url(#fevryxyalm0o8)" points="1401,236,1465,236,1472,258.2969,1724,258.2969,1724,574,1401,574,1401,236" style="stroke:#000000;stroke-width:1.5;"/><line style="stroke:#000000;stroke-width:1.5;" x1="1401" x2="1472" y1="258.2969" y2="258.2969"/><text fill="#000000" font-family="sans-serif" font-size="14" font-weight="bold" lengthAdjust="spacing" textLength="58" x="1405" y="250.9951">models</text><!--MD5=[67cd15ce44b6dd54f77054b62c31bf42]
cluster types--><polygon fill="#FFFFFF" filter="url(#fevryxyalm0o8)" points="1764,351,1815,351,1822,373.2969,1992,373.2969,1992,466,1764,466,1764,351" style="stroke:#000000;stroke-width:1.5;"/><line style="stroke:#000000;stroke-width:1.5;" x1="1764" x2="1822" y1="373.2969" y2="373.2969"/><text fill="#000000" font-family="sans-serif" font-size="14" font-weight="bold" lengthAdjust="spacing" textLength="45" x="1768" y="365.9951">types</text><!--MD5=[af194e474b2c37e443a340884399de77]
class PlayerView--><rect codeLine="2" fill="#FEFECE" filter="url(#fevryxyalm0o8)" height="48" id="PlayerView" style="stroke:#A80036;stroke-width:1.5;" width="97" x="423.5" y="49"/><ellipse cx="438.5" cy="65" fill="#ADD1B2" rx="11" ry="11" style="stroke:#A80036;stroke-width:1.0;"/><path d="M440.8438,60.6719 C439.9063,60.2344 439.3125,60.0938 438.4375,60.0938 C435.8125,60.0938 433.8125,62.1719 433.8125,64.8906 L433.8125,66.0156 C433.8125,68.5938 435.9219,70.4844 438.8125,70.4844 C440.0313,70.4844 441.1875,70.1875 441.9375,69.6406 C442.5156,69.2344 442.8438,68.7813 442.8438,68.3906 C442.8438,67.9375 442.4531,67.5469 441.9844,67.5469 C441.7656,67.5469 441.5625,67.625 441.375,67.8125 C440.9219,68.2969 440.9219,68.2969 440.7344,68.3906 C440.3125,68.6563 439.625,68.7813 438.8594,68.7813 C436.8125,68.7813 435.5156,67.6875 435.5156,65.9844 L435.5156,64.8906 C435.5156,63.1094 436.7656,61.7969 438.5,61.7969 C439.0781,61.7969 439.6875,61.9531 440.1563,62.2031 C440.6406,62.4844 440.8125,62.7031 440.9063,63.1094 C440.9688,63.5156 441,63.6406 441.1406,63.7656 C441.2813,63.9063 441.5156,64.0156 441.7344,64.0156 C442,64.0156 442.2656,63.875 442.4375,63.6563 C442.5469,63.5 442.5781,63.3125 442.5781,62.8906 L442.5781,61.4688 C442.5781,61.0313 442.5625,60.9063 442.4688,60.75 C442.3125,60.4844 442.0313,60.3438 441.7344,60.3438 C441.4375,60.3438 441.2344,60.4375 441.0156,60.75 L440.8438,60.6719 Z " fill="#000000"/><text fill="#000000" font-family="sans-serif" font-size="12" lengthAdjust="spacing" textLength="65" x="452.5" y="69.1543">PlayerView</text><line style="stroke:#A80036;stroke-width:1.5;" x1="424.5" x2="519.5" y1="81" y2="81"/><line style="stroke:#A80036;stroke-width:1.5;" x1="424.5" x2="519.5" y1="89" y2="89"/><!--MD5=[443c52daef265809fdf31be84fc8ae4a]
class StartView--><rect codeLine="3" fill="#FEFECE" filter="url(#fevryxyalm0o8)" height="48" id="StartView" style="stroke:#A80036;stroke-width:1.5;" width="89" x="427.5" y="164"/><ellipse cx="442.5" cy="180" fill="#ADD1B2" rx="11" ry="11" style="stroke:#A80036;stroke-width:1.0;"/><path d="M444.8438,175.6719 C443.9063,175.2344 443.3125,175.0938 442.4375,175.0938 C439.8125,175.0938 437.8125,177.1719 437.8125,179.8906 L437.8125,181.0156 C437.8125,183.5938 439.9219,185.4844 442.8125,185.4844 C444.0313,185.4844 445.1875,185.1875 445.9375,184.6406 C446.5156,184.2344 446.8438,183.7813 446.8438,183.3906 C446.8438,182.9375 446.4531,182.5469 445.9844,182.5469 C445.7656,182.5469 445.5625,182.625 445.375,182.8125 C444.9219,183.2969 444.9219,183.2969 444.7344,183.3906 C444.3125,183.6563 443.625,183.7813 442.8594,183.7813 C440.8125,183.7813 439.5156,182.6875 439.5156,180.9844 L439.5156,179.8906 C439.5156,178.1094 440.7656,176.7969 442.5,176.7969 C443.0781,176.7969 443.6875,176.9531 444.1563,177.2031 C444.6406,177.4844 444.8125,177.7031 444.9063,178.1094 C444.9688,178.5156 445,178.6406 445.1406,178.7656 C445.2813,178.9063 445.5156,179.0156 445.7344,179.0156 C446,179.0156 446.2656,178.875 446.4375,178.6563 C446.5469,178.5 446.5781,178.3125 446.5781,177.8906 L446.5781,176.4688 C446.5781,176.0313 446.5625,175.9063 446.4688,175.75 C446.3125,175.4844 446.0313,175.3438 445.7344,175.3438 C445.4375,175.3438 445.2344,175.4375 445.0156,175.75 L444.8438,175.6719 Z " fill="#000000"/><text fill="#000000" font-family="sans-serif" font-size="12" lengthAdjust="spacing" textLength="57" x="456.5" y="184.1543">StartView</text><line style="stroke:#A80036;stroke-width:1.5;" x1="428.5" x2="515.5" y1="196" y2="196"/><line style="stroke:#A80036;stroke-width:1.5;" x1="428.5" x2="515.5" y1="204" y2="204"/><!--MD5=[af548d7eeba3607a103157b84173e841]
class ProposeView--><rect codeLine="4" fill="#FEFECE" filter="url(#fevryxyalm0o8)" height="48" id="ProposeView" style="stroke:#A80036;stroke-width:1.5;" width="111" x="256.5" y="164"/><ellipse cx="271.5" cy="180" fill="#ADD1B2" rx="11" ry="11" style="stroke:#A80036;stroke-width:1.0;"/><path d="M273.8438,175.6719 C272.9063,175.2344 272.3125,175.0938 271.4375,175.0938 C268.8125,175.0938 266.8125,177.1719 266.8125,179.8906 L266.8125,181.0156 C266.8125,183.5938 268.9219,185.4844 271.8125,185.4844 C273.0313,185.4844 274.1875,185.1875 274.9375,184.6406 C275.5156,184.2344 275.8438,183.7813 275.8438,183.3906 C275.8438,182.9375 275.4531,182.5469 274.9844,182.5469 C274.7656,182.5469 274.5625,182.625 274.375,182.8125 C273.9219,183.2969 273.9219,183.2969 273.7344,183.3906 C273.3125,183.6563 272.625,183.7813 271.8594,183.7813 C269.8125,183.7813 268.5156,182.6875 268.5156,180.9844 L268.5156,179.8906 C268.5156,178.1094 269.7656,176.7969 271.5,176.7969 C272.0781,176.7969 272.6875,176.9531 273.1563,177.2031 C273.6406,177.4844 273.8125,177.7031 273.9063,178.1094 C273.9688,178.5156 274,178.6406 274.1406,178.7656 C274.2813,178.9063 274.5156,179.0156 274.7344,179.0156 C275,179.0156 275.2656,178.875 275.4375,178.6563 C275.5469,178.5 275.5781,178.3125 275.5781,177.8906 L275.5781,176.4688 C275.5781,176.0313 275.5625,175.9063 275.4688,175.75 C275.3125,175.4844 275.0313,175.3438 274.7344,175.3438 C274.4375,175.3438 274.2344,175.4375 274.0156,175.75 L273.8438,175.6719 Z " fill="#000000"/><text fill="#000000" font-family="sans-serif" font-size="12" lengthAdjust="spacing" textLength="79" x="285.5" y="184.1543">ProposeView</text><line style="stroke:#A80036;stroke-width:1.5;" x1="257.5" x2="366.5" y1="196" y2="196"/><line style="stroke:#A80036;stroke-width:1.5;" x1="257.5" x2="366.5" y1="204" y2="204"/><!--MD5=[19088a99a8c1f36e582d33ac2f8fc6dd]
class ResumeView--><rect codeLine="5" fill="#FEFECE" filter="url(#fevryxyalm0o8)" height="48" id="ResumeView" style="stroke:#A80036;stroke-width:1.5;" width="109" x="615.5" y="279"/><ellipse cx="630.5" cy="295" fill="#ADD1B2" rx="11" ry="11" style="stroke:#A80036;stroke-width:1.0;"/><path d="M632.8438,290.6719 C631.9063,290.2344 631.3125,290.0938 630.4375,290.0938 C627.8125,290.0938 625.8125,292.1719 625.8125,294.8906 L625.8125,296.0156 C625.8125,298.5938 627.9219,300.4844 630.8125,300.4844 C632.0313,300.4844 633.1875,300.1875 633.9375,299.6406 C634.5156,299.2344 634.8438,298.7813 634.8438,298.3906 C634.8438,297.9375 634.4531,297.5469 633.9844,297.5469 C633.7656,297.5469 633.5625,297.625 633.375,297.8125 C632.9219,298.2969 632.9219,298.2969 632.7344,298.3906 C632.3125,298.6563 631.625,298.7813 630.8594,298.7813 C628.8125,298.7813 627.5156,297.6875 627.5156,295.9844 L627.5156,294.8906 C627.5156,293.1094 628.7656,291.7969 630.5,291.7969 C631.0781,291.7969 631.6875,291.9531 632.1563,292.2031 C632.6406,292.4844 632.8125,292.7031 632.9063,293.1094 C632.9688,293.5156 633,293.6406 633.1406,293.7656 C633.2813,293.9063 633.5156,294.0156 633.7344,294.0156 C634,294.0156 634.2656,293.875 634.4375,293.6563 C634.5469,293.5 634.5781,293.3125 634.5781,292.8906 L634.5781,291.4688 C634.5781,291.0313 634.5625,290.9063 634.4688,290.75 C634.3125,290.4844 634.0313,290.3438 633.7344,290.3438 C633.4375,290.3438 633.2344,290.4375 633.0156,290.75 L632.8438,290.6719 Z " fill="#000000"/><text fill="#000000" font-family="sans-serif" font-size="12" lengthAdjust="spacing" textLength="77" x="644.5" y="299.1543">ResumeView</text><line style="stroke:#A80036;stroke-width:1.5;" x1="616.5" x2="723.5" y1="311" y2="311"/><line style="stroke:#A80036;stroke-width:1.5;" x1="616.5" x2="723.5" y1="319" y2="319"/><!--MD5=[9b237e88d697a058bd530d6510c96c00]
class BoardView--><rect codeLine="6" fill="#FEFECE" filter="url(#fevryxyalm0o8)" height="48" id="BoardView" style="stroke:#A80036;stroke-width:1.5;" width="97" x="344.5" y="279"/><ellipse cx="359.5" cy="295" fill="#ADD1B2" rx="11" ry="11" style="stroke:#A80036;stroke-width:1.0;"/><path d="M361.8438,290.6719 C360.9063,290.2344 360.3125,290.0938 359.4375,290.0938 C356.8125,290.0938 354.8125,292.1719 354.8125,294.8906 L354.8125,296.0156 C354.8125,298.5938 356.9219,300.4844 359.8125,300.4844 C361.0313,300.4844 362.1875,300.1875 362.9375,299.6406 C363.5156,299.2344 363.8438,298.7813 363.8438,298.3906 C363.8438,297.9375 363.4531,297.5469 362.9844,297.5469 C362.7656,297.5469 362.5625,297.625 362.375,297.8125 C361.9219,298.2969 361.9219,298.2969 361.7344,298.3906 C361.3125,298.6563 360.625,298.7813 359.8594,298.7813 C357.8125,298.7813 356.5156,297.6875 356.5156,295.9844 L356.5156,294.8906 C356.5156,293.1094 357.7656,291.7969 359.5,291.7969 C360.0781,291.7969 360.6875,291.9531 361.1563,292.2031 C361.6406,292.4844 361.8125,292.7031 361.9063,293.1094 C361.9688,293.5156 362,293.6406 362.1406,293.7656 C362.2813,293.9063 362.5156,294.0156 362.7344,294.0156 C363,294.0156 363.2656,293.875 363.4375,293.6563 C363.5469,293.5 363.5781,293.3125 363.5781,292.8906 L363.5781,291.4688 C363.5781,291.0313 363.5625,290.9063 363.4688,290.75 C363.3125,290.4844 363.0313,290.3438 362.7344,290.3438 C362.4375,290.3438 362.2344,290.4375 362.0156,290.75 L361.8438,290.6719 Z " fill="#000000"/><text fill="#000000" font-family="sans-serif" font-size="12" lengthAdjust="spacing" textLength="65" x="373.5" y="299.1543">BoardView</text><line style="stroke:#A80036;stroke-width:1.5;" x1="345.5" x2="440.5" y1="311" y2="311"/><line style="stroke:#A80036;stroke-width:1.5;" x1="345.5" x2="440.5" y1="319" y2="319"/><!--MD5=[0523615cfa2fa70c8ab764401f29a299]
class ProposedCombinationView--><rect codeLine="7" fill="#FEFECE" filter="url(#fevryxyalm0o8)" height="48" id="ProposedCombinationView" style="stroke:#A80036;stroke-width:1.5;" width="193" x="40.5" y="394"/><ellipse cx="55.5" cy="410" fill="#ADD1B2" rx="11" ry="11" style="stroke:#A80036;stroke-width:1.0;"/><path d="M57.8438,405.6719 C56.9063,405.2344 56.3125,405.0938 55.4375,405.0938 C52.8125,405.0938 50.8125,407.1719 50.8125,409.8906 L50.8125,411.0156 C50.8125,413.5938 52.9219,415.4844 55.8125,415.4844 C57.0313,415.4844 58.1875,415.1875 58.9375,414.6406 C59.5156,414.2344 59.8438,413.7813 59.8438,413.3906 C59.8438,412.9375 59.4531,412.5469 58.9844,412.5469 C58.7656,412.5469 58.5625,412.625 58.375,412.8125 C57.9219,413.2969 57.9219,413.2969 57.7344,413.3906 C57.3125,413.6563 56.625,413.7813 55.8594,413.7813 C53.8125,413.7813 52.5156,412.6875 52.5156,410.9844 L52.5156,409.8906 C52.5156,408.1094 53.7656,406.7969 55.5,406.7969 C56.0781,406.7969 56.6875,406.9531 57.1563,407.2031 C57.6406,407.4844 57.8125,407.7031 57.9063,408.1094 C57.9688,408.5156 58,408.6406 58.1406,408.7656 C58.2813,408.9063 58.5156,409.0156 58.7344,409.0156 C59,409.0156 59.2656,408.875 59.4375,408.6563 C59.5469,408.5 59.5781,408.3125 59.5781,407.8906 L59.5781,406.4688 C59.5781,406.0313 59.5625,405.9063 59.4688,405.75 C59.3125,405.4844 59.0313,405.3438 58.7344,405.3438 C58.4375,405.3438 58.2344,405.4375 58.0156,405.75 L57.8438,405.6719 Z " fill="#000000"/><text fill="#000000" font-family="sans-serif" font-size="12" lengthAdjust="spacing" textLength="161" x="69.5" y="414.1543">ProposedCombinationView</text><line style="stroke:#A80036;stroke-width:1.5;" x1="41.5" x2="232.5" y1="426" y2="426"/><line style="stroke:#A80036;stroke-width:1.5;" x1="41.5" x2="232.5" y1="434" y2="434"/><!--MD5=[94936c1138d9bd95716606726ba703b1]
class SecretCombinationView--><rect codeLine="8" fill="#FEFECE" filter="url(#fevryxyalm0o8)" height="48" id="SecretCombinationView" style="stroke:#A80036;stroke-width:1.5;" width="175" x="343.5" y="394"/><ellipse cx="358.5" cy="410" fill="#ADD1B2" rx="11" ry="11" style="stroke:#A80036;stroke-width:1.0;"/><path d="M360.8438,405.6719 C359.9063,405.2344 359.3125,405.0938 358.4375,405.0938 C355.8125,405.0938 353.8125,407.1719 353.8125,409.8906 L353.8125,411.0156 C353.8125,413.5938 355.9219,415.4844 358.8125,415.4844 C360.0313,415.4844 361.1875,415.1875 361.9375,414.6406 C362.5156,414.2344 362.8438,413.7813 362.8438,413.3906 C362.8438,412.9375 362.4531,412.5469 361.9844,412.5469 C361.7656,412.5469 361.5625,412.625 361.375,412.8125 C360.9219,413.2969 360.9219,413.2969 360.7344,413.3906 C360.3125,413.6563 359.625,413.7813 358.8594,413.7813 C356.8125,413.7813 355.5156,412.6875 355.5156,410.9844 L355.5156,409.8906 C355.5156,408.1094 356.7656,406.7969 358.5,406.7969 C359.0781,406.7969 359.6875,406.9531 360.1563,407.2031 C360.6406,407.4844 360.8125,407.7031 360.9063,408.1094 C360.9688,408.5156 361,408.6406 361.1406,408.7656 C361.2813,408.9063 361.5156,409.0156 361.7344,409.0156 C362,409.0156 362.2656,408.875 362.4375,408.6563 C362.5469,408.5 362.5781,408.3125 362.5781,407.8906 L362.5781,406.4688 C362.5781,406.0313 362.5625,405.9063 362.4688,405.75 C362.3125,405.4844 362.0313,405.3438 361.7344,405.3438 C361.4375,405.3438 361.2344,405.4375 361.0156,405.75 L360.8438,405.6719 Z " fill="#000000"/><text fill="#000000" font-family="sans-serif" font-size="12" lengthAdjust="spacing" textLength="143" x="372.5" y="414.1543">SecretCombinationView</text><line style="stroke:#A80036;stroke-width:1.5;" x1="344.5" x2="517.5" y1="426" y2="426"/><line style="stroke:#A80036;stroke-width:1.5;" x1="344.5" x2="517.5" y1="434" y2="434"/><!--MD5=[a40873b740e53ca026148d30ccb3c321]
class ResultView--><rect codeLine="9" fill="#FEFECE" filter="url(#fevryxyalm0o8)" height="48" id="ResultView" style="stroke:#A80036;stroke-width:1.5;" width="97" x="553.5" y="394"/><ellipse cx="568.5" cy="410" fill="#ADD1B2" rx="11" ry="11" style="stroke:#A80036;stroke-width:1.0;"/><path d="M570.8438,405.6719 C569.9063,405.2344 569.3125,405.0938 568.4375,405.0938 C565.8125,405.0938 563.8125,407.1719 563.8125,409.8906 L563.8125,411.0156 C563.8125,413.5938 565.9219,415.4844 568.8125,415.4844 C570.0313,415.4844 571.1875,415.1875 571.9375,414.6406 C572.5156,414.2344 572.8438,413.7813 572.8438,413.3906 C572.8438,412.9375 572.4531,412.5469 571.9844,412.5469 C571.7656,412.5469 571.5625,412.625 571.375,412.8125 C570.9219,413.2969 570.9219,413.2969 570.7344,413.3906 C570.3125,413.6563 569.625,413.7813 568.8594,413.7813 C566.8125,413.7813 565.5156,412.6875 565.5156,410.9844 L565.5156,409.8906 C565.5156,408.1094 566.7656,406.7969 568.5,406.7969 C569.0781,406.7969 569.6875,406.9531 570.1563,407.2031 C570.6406,407.4844 570.8125,407.7031 570.9063,408.1094 C570.9688,408.5156 571,408.6406 571.1406,408.7656 C571.2813,408.9063 571.5156,409.0156 571.7344,409.0156 C572,409.0156 572.2656,408.875 572.4375,408.6563 C572.5469,408.5 572.5781,408.3125 572.5781,407.8906 L572.5781,406.4688 C572.5781,406.0313 572.5625,405.9063 572.4688,405.75 C572.3125,405.4844 572.0313,405.3438 571.7344,405.3438 C571.4375,405.3438 571.2344,405.4375 571.0156,405.75 L570.8438,405.6719 Z " fill="#000000"/><text fill="#000000" font-family="sans-serif" font-size="12" lengthAdjust="spacing" textLength="65" x="582.5" y="414.1543">ResultView</text><line style="stroke:#A80036;stroke-width:1.5;" x1="554.5" x2="649.5" y1="426" y2="426"/><line style="stroke:#A80036;stroke-width:1.5;" x1="554.5" x2="649.5" y1="434" y2="434"/><!--MD5=[5c0d2bf114541dffca76af5edd55a1b5]
class ColorView--><rect codeLine="10" fill="#FEFECE" filter="url(#fevryxyalm0o8)" height="48" id="ColorView" style="stroke:#A80036;stroke-width:1.5;" width="93" x="191.5" y="502"/><ellipse cx="206.5" cy="518" fill="#ADD1B2" rx="11" ry="11" style="stroke:#A80036;stroke-width:1.0;"/><path d="M208.8438,513.6719 C207.9063,513.2344 207.3125,513.0938 206.4375,513.0938 C203.8125,513.0938 201.8125,515.1719 201.8125,517.8906 L201.8125,519.0156 C201.8125,521.5938 203.9219,523.4844 206.8125,523.4844 C208.0313,523.4844 209.1875,523.1875 209.9375,522.6406 C210.5156,522.2344 210.8438,521.7813 210.8438,521.3906 C210.8438,520.9375 210.4531,520.5469 209.9844,520.5469 C209.7656,520.5469 209.5625,520.625 209.375,520.8125 C208.9219,521.2969 208.9219,521.2969 208.7344,521.3906 C208.3125,521.6563 207.625,521.7813 206.8594,521.7813 C204.8125,521.7813 203.5156,520.6875 203.5156,518.9844 L203.5156,517.8906 C203.5156,516.1094 204.7656,514.7969 206.5,514.7969 C207.0781,514.7969 207.6875,514.9531 208.1563,515.2031 C208.6406,515.4844 208.8125,515.7031 208.9063,516.1094 C208.9688,516.5156 209,516.6406 209.1406,516.7656 C209.2813,516.9063 209.5156,517.0156 209.7344,517.0156 C210,517.0156 210.2656,516.875 210.4375,516.6563 C210.5469,516.5 210.5781,516.3125 210.5781,515.8906 L210.5781,514.4688 C210.5781,514.0313 210.5625,513.9063 210.4688,513.75 C210.3125,513.4844 210.0313,513.3438 209.7344,513.3438 C209.4375,513.3438 209.2344,513.4375 209.0156,513.75 L208.8438,513.6719 Z " fill="#000000"/><text fill="#000000" font-family="sans-serif" font-size="12" lengthAdjust="spacing" textLength="61" x="220.5" y="522.1543">ColorView</text><line style="stroke:#A80036;stroke-width:1.5;" x1="192.5" x2="283.5" y1="534" y2="534"/><line style="stroke:#A80036;stroke-width:1.5;" x1="192.5" x2="283.5" y1="542" y2="542"/><!--MD5=[bea5b0d46523efab5ea1c1d339f396f0]
class Message--><rect codeLine="11" fill="#FEFECE" filter="url(#fevryxyalm0o8)" height="48" id="Message" style="stroke:#A80036;stroke-width:1.5;" width="87" x="438.5" y="502"/><ellipse cx="453.5" cy="518" fill="#EB937F" rx="11" ry="11" style="stroke:#A80036;stroke-width:1.0;"/><path d="M452.2969,518.875 L453.75,518.875 L453.75,518.9844 C453.75,519.3906 453.7813,519.5469 453.8594,519.7031 C454.0156,519.9531 454.2969,520.1094 454.5938,520.1094 C454.8438,520.1094 455.1094,519.9688 455.2656,519.75 C455.3906,519.5938 455.4219,519.4375 455.4219,518.9844 L455.4219,517.0625 C455.4219,516.9063 455.4219,516.8594 455.4063,516.7031 C455.3438,516.2344 455.0313,515.9219 454.5781,515.9219 C454.3281,515.9219 454.0625,516.0625 453.8906,516.2813 C453.7813,516.4531 453.75,516.6094 453.75,517.0625 L453.75,517.1875 L452.2969,517.1875 L452.2969,514.7813 L456.2813,514.7813 L456.2813,515.6406 C456.2813,516.0469 456.3125,516.2188 456.3906,516.375 C456.5625,516.625 456.8438,516.7813 457.125,516.7813 C457.3906,516.7813 457.6563,516.6406 457.8281,516.4219 C457.9375,516.25 457.9688,516.1094 457.9688,515.6406 L457.9688,513.0938 L450.3438,513.0938 C449.9063,513.0938 449.7813,513.1094 449.625,513.2031 C449.375,513.3594 449.2188,513.6563 449.2188,513.9375 C449.2188,514.2188 449.3594,514.4688 449.5781,514.6406 C449.7344,514.75 449.9219,514.7813 450.3438,514.7813 L450.5938,514.7813 L450.5938,521.2969 L450.3438,521.2969 C449.9375,521.2969 449.7813,521.3125 449.625,521.4219 C449.375,521.5938 449.2188,521.8594 449.2188,522.1563 C449.2188,522.4219 449.3594,522.6719 449.5781,522.8281 C449.7188,522.9531 449.9531,523 450.3438,523 L458.3438,523 L458.3438,520.4219 C458.3438,519.9844 458.3125,519.8438 458.2344,519.6875 C458.0625,519.4375 457.7813,519.2813 457.5,519.2813 C457.2344,519.2813 456.9688,519.3906 456.7969,519.6406 C456.6875,519.7969 456.6563,519.9375 456.6563,520.4219 L456.6563,521.2969 L452.2969,521.2969 L452.2969,518.875 Z " fill="#000000"/><text fill="#000000" font-family="sans-serif" font-size="12" lengthAdjust="spacing" textLength="55" x="467.5" y="522.1543">Message</text><line style="stroke:#A80036;stroke-width:1.5;" x1="439.5" x2="524.5" y1="534" y2="534"/><line style="stroke:#A80036;stroke-width:1.5;" x1="439.5" x2="524.5" y1="542" y2="542"/><!--MD5=[86cec68673cafdfc1c204348d5b2cca6]
class ErrorView--><rect codeLine="12" fill="#FEFECE" filter="url(#fevryxyalm0o8)" height="48" id="ErrorView" style="stroke:#A80036;stroke-width:1.5;" width="91" x="65.5" y="502"/><ellipse cx="80.5" cy="518" fill="#ADD1B2" rx="11" ry="11" style="stroke:#A80036;stroke-width:1.0;"/><path d="M82.8438,513.6719 C81.9063,513.2344 81.3125,513.0938 80.4375,513.0938 C77.8125,513.0938 75.8125,515.1719 75.8125,517.8906 L75.8125,519.0156 C75.8125,521.5938 77.9219,523.4844 80.8125,523.4844 C82.0313,523.4844 83.1875,523.1875 83.9375,522.6406 C84.5156,522.2344 84.8438,521.7813 84.8438,521.3906 C84.8438,520.9375 84.4531,520.5469 83.9844,520.5469 C83.7656,520.5469 83.5625,520.625 83.375,520.8125 C82.9219,521.2969 82.9219,521.2969 82.7344,521.3906 C82.3125,521.6563 81.625,521.7813 80.8594,521.7813 C78.8125,521.7813 77.5156,520.6875 77.5156,518.9844 L77.5156,517.8906 C77.5156,516.1094 78.7656,514.7969 80.5,514.7969 C81.0781,514.7969 81.6875,514.9531 82.1563,515.2031 C82.6406,515.4844 82.8125,515.7031 82.9063,516.1094 C82.9688,516.5156 83,516.6406 83.1406,516.7656 C83.2813,516.9063 83.5156,517.0156 83.7344,517.0156 C84,517.0156 84.2656,516.875 84.4375,516.6563 C84.5469,516.5 84.5781,516.3125 84.5781,515.8906 L84.5781,514.4688 C84.5781,514.0313 84.5625,513.9063 84.4688,513.75 C84.3125,513.4844 84.0313,513.3438 83.7344,513.3438 C83.4375,513.3438 83.2344,513.4375 83.0156,513.75 L82.8438,513.6719 Z " fill="#000000"/><text fill="#000000" font-family="sans-serif" font-size="12" lengthAdjust="spacing" textLength="59" x="94.5" y="522.1543">ErrorView</text><line style="stroke:#A80036;stroke-width:1.5;" x1="66.5" x2="155.5" y1="534" y2="534"/><line style="stroke:#A80036;stroke-width:1.5;" x1="66.5" x2="155.5" y1="542" y2="542"/><!--MD5=[1d7ba1c7002d54515419844fbd155368]
class Controller--><rect codeLine="34" fill="#FEFECE" filter="url(#fevryxyalm0o8)" height="48" id="Controller" style="stroke:#A80036;stroke-width:1.5;" width="90" x="1000" y="164"/><ellipse cx="1015" cy="180" fill="#A9DCDF" rx="11" ry="11" style="stroke:#A80036;stroke-width:1.0;"/><path d="M1017.0781,181.8125 L1017.4688,182.7969 L1017.0781,182.7969 C1016.625,182.7969 1016.5156,182.8125 1016.3594,182.9219 C1016.1094,183.0781 1015.9531,183.3594 1015.9531,183.6563 C1015.9531,183.9219 1016.0938,184.1719 1016.3125,184.3281 C1016.4531,184.4531 1016.6563,184.5 1017.0781,184.5 L1019.4375,184.5 C1019.7969,184.5 1020.0156,184.4688 1020.1563,184.375 C1020.4063,184.2344 1020.5625,183.9375 1020.5625,183.6563 C1020.5625,183.375 1020.4219,183.125 1020.2031,182.9688 C1020.0313,182.8281 1019.875,182.7969 1019.4063,182.7969 L1016.0156,174.5938 L1012.3438,174.5938 C1011.8906,174.5938 1011.7656,174.6094 1011.6094,174.7031 C1011.3594,174.875 1011.2031,175.1563 1011.2031,175.4375 C1011.2031,175.7188 1011.3438,175.9688 1011.5625,176.1406 C1011.7344,176.25 1011.9063,176.2813 1012.3438,176.2813 L1013.4219,176.2813 L1010.7813,182.7969 C1010.3594,182.7969 1010.2031,182.8125 1010.0469,182.9219 C1009.7969,183.0781 1009.6406,183.3594 1009.6406,183.6563 C1009.6406,184.2188 1010.0156,184.5 1010.7656,184.5 L1013.0313,184.5 C1013.3906,184.5 1013.6094,184.4688 1013.7344,184.375 C1014,184.2344 1014.1406,183.9375 1014.1406,183.6563 C1014.1406,183.375 1014.0156,183.125 1013.7969,182.9531 C1013.625,182.8281 1013.4844,182.7969 1013.0313,182.7969 L1012.6406,182.7969 L1013.0313,181.8125 L1017.0781,181.8125 Z M1016.375,180.1094 L1013.7031,180.1094 L1015.0469,176.8438 L1016.375,180.1094 Z " fill="#000000"/><text fill="#000000" font-family="sans-serif" font-size="12" font-style="italic" lengthAdjust="spacing" textLength="58" x="1029" y="184.1543">Controller</text><line style="stroke:#A80036;stroke-width:1.5;" x1="1001" x2="1089" y1="196" y2="196"/><line style="stroke:#A80036;stroke-width:1.5;" x1="1001" x2="1089" y1="204" y2="204"/><!--MD5=[47c371471411cfedeee61b1a5bdaee47]
class StartController--><rect codeLine="35" fill="#FEFECE" filter="url(#fevryxyalm0o8)" height="48" id="StartController" style="stroke:#A80036;stroke-width:1.5;" width="119" x="1033.5" y="279"/><ellipse cx="1048.5" cy="295" fill="#ADD1B2" rx="11" ry="11" style="stroke:#A80036;stroke-width:1.0;"/><path d="M1050.8438,290.6719 C1049.9063,290.2344 1049.3125,290.0938 1048.4375,290.0938 C1045.8125,290.0938 1043.8125,292.1719 1043.8125,294.8906 L1043.8125,296.0156 C1043.8125,298.5938 1045.9219,300.4844 1048.8125,300.4844 C1050.0313,300.4844 1051.1875,300.1875 1051.9375,299.6406 C1052.5156,299.2344 1052.8438,298.7813 1052.8438,298.3906 C1052.8438,297.9375 1052.4531,297.5469 1051.9844,297.5469 C1051.7656,297.5469 1051.5625,297.625 1051.375,297.8125 C1050.9219,298.2969 1050.9219,298.2969 1050.7344,298.3906 C1050.3125,298.6563 1049.625,298.7813 1048.8594,298.7813 C1046.8125,298.7813 1045.5156,297.6875 1045.5156,295.9844 L1045.5156,294.8906 C1045.5156,293.1094 1046.7656,291.7969 1048.5,291.7969 C1049.0781,291.7969 1049.6875,291.9531 1050.1563,292.2031 C1050.6406,292.4844 1050.8125,292.7031 1050.9063,293.1094 C1050.9688,293.5156 1051,293.6406 1051.1406,293.7656 C1051.2813,293.9063 1051.5156,294.0156 1051.7344,294.0156 C1052,294.0156 1052.2656,293.875 1052.4375,293.6563 C1052.5469,293.5 1052.5781,293.3125 1052.5781,292.8906 L1052.5781,291.4688 C1052.5781,291.0313 1052.5625,290.9063 1052.4688,290.75 C1052.3125,290.4844 1052.0313,290.3438 1051.7344,290.3438 C1051.4375,290.3438 1051.2344,290.4375 1051.0156,290.75 L1050.8438,290.6719 Z " fill="#000000"/><text fill="#000000" font-family="sans-serif" font-size="12" lengthAdjust="spacing" textLength="87" x="1062.5" y="299.1543">StartController</text><line style="stroke:#A80036;stroke-width:1.5;" x1="1034.5" x2="1151.5" y1="311" y2="311"/><line style="stroke:#A80036;stroke-width:1.5;" x1="1034.5" x2="1151.5" y1="319" y2="319"/><!--MD5=[0b95e4ee8b160a2b3b0650a9b235c496]
class ProposeController--><rect codeLine="36" fill="#FEFECE" filter="url(#fevryxyalm0o8)" height="48" id="ProposeController" style="stroke:#A80036;stroke-width:1.5;" width="141" x="1187.5" y="279"/><ellipse cx="1202.5" cy="295" fill="#ADD1B2" rx="11" ry="11" style="stroke:#A80036;stroke-width:1.0;"/><path d="M1204.8438,290.6719 C1203.9063,290.2344 1203.3125,290.0938 1202.4375,290.0938 C1199.8125,290.0938 1197.8125,292.1719 1197.8125,294.8906 L1197.8125,296.0156 C1197.8125,298.5938 1199.9219,300.4844 1202.8125,300.4844 C1204.0313,300.4844 1205.1875,300.1875 1205.9375,299.6406 C1206.5156,299.2344 1206.8438,298.7813 1206.8438,298.3906 C1206.8438,297.9375 1206.4531,297.5469 1205.9844,297.5469 C1205.7656,297.5469 1205.5625,297.625 1205.375,297.8125 C1204.9219,298.2969 1204.9219,298.2969 1204.7344,298.3906 C1204.3125,298.6563 1203.625,298.7813 1202.8594,298.7813 C1200.8125,298.7813 1199.5156,297.6875 1199.5156,295.9844 L1199.5156,294.8906 C1199.5156,293.1094 1200.7656,291.7969 1202.5,291.7969 C1203.0781,291.7969 1203.6875,291.9531 1204.1563,292.2031 C1204.6406,292.4844 1204.8125,292.7031 1204.9063,293.1094 C1204.9688,293.5156 1205,293.6406 1205.1406,293.7656 C1205.2813,293.9063 1205.5156,294.0156 1205.7344,294.0156 C1206,294.0156 1206.2656,293.875 1206.4375,293.6563 C1206.5469,293.5 1206.5781,293.3125 1206.5781,292.8906 L1206.5781,291.4688 C1206.5781,291.0313 1206.5625,290.9063 1206.4688,290.75 C1206.3125,290.4844 1206.0313,290.3438 1205.7344,290.3438 C1205.4375,290.3438 1205.2344,290.4375 1205.0156,290.75 L1204.8438,290.6719 Z " fill="#000000"/><text fill="#000000" font-family="sans-serif" font-size="12" lengthAdjust="spacing" textLength="109" x="1216.5" y="299.1543">ProposeController</text><line style="stroke:#A80036;stroke-width:1.5;" x1="1188.5" x2="1327.5" y1="311" y2="311"/><line style="stroke:#A80036;stroke-width:1.5;" x1="1188.5" x2="1327.5" y1="319" y2="319"/><!--MD5=[1a47bbf44ccee225df9b18c5b6629853]
class ResumeController--><rect codeLine="37" fill="#FEFECE" filter="url(#fevryxyalm0o8)" height="48" id="ResumeController" style="stroke:#A80036;stroke-width:1.5;" width="139" x="821.5" y="279"/><ellipse cx="836.5" cy="295" fill="#ADD1B2" rx="11" ry="11" style="stroke:#A80036;stroke-width:1.0;"/><path d="M838.8438,290.6719 C837.9063,290.2344 837.3125,290.0938 836.4375,290.0938 C833.8125,290.0938 831.8125,292.1719 831.8125,294.8906 L831.8125,296.0156 C831.8125,298.5938 833.9219,300.4844 836.8125,300.4844 C838.0313,300.4844 839.1875,300.1875 839.9375,299.6406 C840.5156,299.2344 840.8438,298.7813 840.8438,298.3906 C840.8438,297.9375 840.4531,297.5469 839.9844,297.5469 C839.7656,297.5469 839.5625,297.625 839.375,297.8125 C838.9219,298.2969 838.9219,298.2969 838.7344,298.3906 C838.3125,298.6563 837.625,298.7813 836.8594,298.7813 C834.8125,298.7813 833.5156,297.6875 833.5156,295.9844 L833.5156,294.8906 C833.5156,293.1094 834.7656,291.7969 836.5,291.7969 C837.0781,291.7969 837.6875,291.9531 838.1563,292.2031 C838.6406,292.4844 838.8125,292.7031 838.9063,293.1094 C838.9688,293.5156 839,293.6406 839.1406,293.7656 C839.2813,293.9063 839.5156,294.0156 839.7344,294.0156 C840,294.0156 840.2656,293.875 840.4375,293.6563 C840.5469,293.5 840.5781,293.3125 840.5781,292.8906 L840.5781,291.4688 C840.5781,291.0313 840.5625,290.9063 840.4688,290.75 C840.3125,290.4844 840.0313,290.3438 839.7344,290.3438 C839.4375,290.3438 839.2344,290.4375 839.0156,290.75 L838.8438,290.6719 Z " fill="#000000"/><text fill="#000000" font-family="sans-serif" font-size="12" lengthAdjust="spacing" textLength="107" x="850.5" y="299.1543">ResumeController</text><line style="stroke:#A80036;stroke-width:1.5;" x1="822.5" x2="959.5" y1="311" y2="311"/><line style="stroke:#A80036;stroke-width:1.5;" x1="822.5" x2="959.5" y1="319" y2="319"/><!--MD5=[ad55c02b6d743eec4828d3c9f4ddad4a]
class ShowBoardController--><rect codeLine="38" fill="#FEFECE" filter="url(#fevryxyalm0o8)" height="48" id="ShowBoardController" style="stroke:#A80036;stroke-width:1.5;" width="160" x="1013" y="394"/><ellipse cx="1028" cy="410" fill="#ADD1B2" rx="11" ry="11" style="stroke:#A80036;stroke-width:1.0;"/><path d="M1030.3438,405.6719 C1029.4063,405.2344 1028.8125,405.0938 1027.9375,405.0938 C1025.3125,405.0938 1023.3125,407.1719 1023.3125,409.8906 L1023.3125,411.0156 C1023.3125,413.5938 1025.4219,415.4844 1028.3125,415.4844 C1029.5313,415.4844 1030.6875,415.1875 1031.4375,414.6406 C1032.0156,414.2344 1032.3438,413.7813 1032.3438,413.3906 C1032.3438,412.9375 1031.9531,412.5469 1031.4844,412.5469 C1031.2656,412.5469 1031.0625,412.625 1030.875,412.8125 C1030.4219,413.2969 1030.4219,413.2969 1030.2344,413.3906 C1029.8125,413.6563 1029.125,413.7813 1028.3594,413.7813 C1026.3125,413.7813 1025.0156,412.6875 1025.0156,410.9844 L1025.0156,409.8906 C1025.0156,408.1094 1026.2656,406.7969 1028,406.7969 C1028.5781,406.7969 1029.1875,406.9531 1029.6563,407.2031 C1030.1406,407.4844 1030.3125,407.7031 1030.4063,408.1094 C1030.4688,408.5156 1030.5,408.6406 1030.6406,408.7656 C1030.7813,408.9063 1031.0156,409.0156 1031.2344,409.0156 C1031.5,409.0156 1031.7656,408.875 1031.9375,408.6563 C1032.0469,408.5 1032.0781,408.3125 1032.0781,407.8906 L1032.0781,406.4688 C1032.0781,406.0313 1032.0625,405.9063 1031.9688,405.75 C1031.8125,405.4844 1031.5313,405.3438 1031.2344,405.3438 C1030.9375,405.3438 1030.7344,405.4375 1030.5156,405.75 L1030.3438,405.6719 Z " fill="#000000"/><text fill="#000000" font-family="sans-serif" font-size="12" lengthAdjust="spacing" textLength="128" x="1042" y="414.1543">ShowBoardController</text><line style="stroke:#A80036;stroke-width:1.5;" x1="1014" x2="1172" y1="426" y2="426"/><line style="stroke:#A80036;stroke-width:1.5;" x1="1014" x2="1172" y1="434" y2="434"/><!--MD5=[9563755d011c5cec7ec66dc53565a59e]
class Board--><rect codeLine="49" fill="#FEFECE" filter="url(#fevryxyalm0o8)" height="48" id="Board" style="stroke:#A80036;stroke-width:1.5;" width="68" x="1610" y="279"/><ellipse cx="1625" cy="295" fill="#ADD1B2" rx="11" ry="11" style="stroke:#A80036;stroke-width:1.0;"/><path d="M1627.3438,290.6719 C1626.4063,290.2344 1625.8125,290.0938 1624.9375,290.0938 C1622.3125,290.0938 1620.3125,292.1719 1620.3125,294.8906 L1620.3125,296.0156 C1620.3125,298.5938 1622.4219,300.4844 1625.3125,300.4844 C1626.5313,300.4844 1627.6875,300.1875 1628.4375,299.6406 C1629.0156,299.2344 1629.3438,298.7813 1629.3438,298.3906 C1629.3438,297.9375 1628.9531,297.5469 1628.4844,297.5469 C1628.2656,297.5469 1628.0625,297.625 1627.875,297.8125 C1627.4219,298.2969 1627.4219,298.2969 1627.2344,298.3906 C1626.8125,298.6563 1626.125,298.7813 1625.3594,298.7813 C1623.3125,298.7813 1622.0156,297.6875 1622.0156,295.9844 L1622.0156,294.8906 C1622.0156,293.1094 1623.2656,291.7969 1625,291.7969 C1625.5781,291.7969 1626.1875,291.9531 1626.6563,292.2031 C1627.1406,292.4844 1627.3125,292.7031 1627.4063,293.1094 C1627.4688,293.5156 1627.5,293.6406 1627.6406,293.7656 C1627.7813,293.9063 1628.0156,294.0156 1628.2344,294.0156 C1628.5,294.0156 1628.7656,293.875 1628.9375,293.6563 C1629.0469,293.5 1629.0781,293.3125 1629.0781,292.8906 L1629.0781,291.4688 C1629.0781,291.0313 1629.0625,290.9063 1628.9688,290.75 C1628.8125,290.4844 1628.5313,290.3438 1628.2344,290.3438 C1627.9375,290.3438 1627.7344,290.4375 1627.5156,290.75 L1627.3438,290.6719 Z " fill="#000000"/><text fill="#000000" font-family="sans-serif" font-size="12" lengthAdjust="spacing" textLength="36" x="1639" y="299.1543">Board</text><line style="stroke:#A80036;stroke-width:1.5;" x1="1611" x2="1677" y1="311" y2="311"/><line style="stroke:#A80036;stroke-width:1.5;" x1="1611" x2="1677" y1="319" y2="319"/><!--MD5=[28491d17d5ee38c9c116625a5ffc259a]
class Combination--><rect codeLine="50" fill="#FEFECE" filter="url(#fevryxyalm0o8)" height="48" id="Combination" style="stroke:#A80036;stroke-width:1.5;" width="106" x="1447" y="279"/><ellipse cx="1462" cy="295" fill="#ADD1B2" rx="11" ry="11" style="stroke:#A80036;stroke-width:1.0;"/><path d="M1464.3438,290.6719 C1463.4063,290.2344 1462.8125,290.0938 1461.9375,290.0938 C1459.3125,290.0938 1457.3125,292.1719 1457.3125,294.8906 L1457.3125,296.0156 C1457.3125,298.5938 1459.4219,300.4844 1462.3125,300.4844 C1463.5313,300.4844 1464.6875,300.1875 1465.4375,299.6406 C1466.0156,299.2344 1466.3438,298.7813 1466.3438,298.3906 C1466.3438,297.9375 1465.9531,297.5469 1465.4844,297.5469 C1465.2656,297.5469 1465.0625,297.625 1464.875,297.8125 C1464.4219,298.2969 1464.4219,298.2969 1464.2344,298.3906 C1463.8125,298.6563 1463.125,298.7813 1462.3594,298.7813 C1460.3125,298.7813 1459.0156,297.6875 1459.0156,295.9844 L1459.0156,294.8906 C1459.0156,293.1094 1460.2656,291.7969 1462,291.7969 C1462.5781,291.7969 1463.1875,291.9531 1463.6563,292.2031 C1464.1406,292.4844 1464.3125,292.7031 1464.4063,293.1094 C1464.4688,293.5156 1464.5,293.6406 1464.6406,293.7656 C1464.7813,293.9063 1465.0156,294.0156 1465.2344,294.0156 C1465.5,294.0156 1465.7656,293.875 1465.9375,293.6563 C1466.0469,293.5 1466.0781,293.3125 1466.0781,292.8906 L1466.0781,291.4688 C1466.0781,291.0313 1466.0625,290.9063 1465.9688,290.75 C1465.8125,290.4844 1465.5313,290.3438 1465.2344,290.3438 C1464.9375,290.3438 1464.7344,290.4375 1464.5156,290.75 L1464.3438,290.6719 Z " fill="#000000"/><text fill="#000000" font-family="sans-serif" font-size="12" lengthAdjust="spacing" textLength="74" x="1476" y="299.1543">Combination</text><line style="stroke:#A80036;stroke-width:1.5;" x1="1448" x2="1552" y1="311" y2="311"/><line style="stroke:#A80036;stroke-width:1.5;" x1="1448" x2="1552" y1="319" y2="319"/><!--MD5=[cf489b19c51ee25e76ddca093e62e620]
class ProposedCombination--><rect codeLine="51" fill="#FEFECE" filter="url(#fevryxyalm0o8)" height="48" id="ProposedCombination" style="stroke:#A80036;stroke-width:1.5;" width="164" x="1425" y="502"/><ellipse cx="1440" cy="518" fill="#ADD1B2" rx="11" ry="11" style="stroke:#A80036;stroke-width:1.0;"/><path d="M1442.3438,513.6719 C1441.4063,513.2344 1440.8125,513.0938 1439.9375,513.0938 C1437.3125,513.0938 1435.3125,515.1719 1435.3125,517.8906 L1435.3125,519.0156 C1435.3125,521.5938 1437.4219,523.4844 1440.3125,523.4844 C1441.5313,523.4844 1442.6875,523.1875 1443.4375,522.6406 C1444.0156,522.2344 1444.3438,521.7813 1444.3438,521.3906 C1444.3438,520.9375 1443.9531,520.5469 1443.4844,520.5469 C1443.2656,520.5469 1443.0625,520.625 1442.875,520.8125 C1442.4219,521.2969 1442.4219,521.2969 1442.2344,521.3906 C1441.8125,521.6563 1441.125,521.7813 1440.3594,521.7813 C1438.3125,521.7813 1437.0156,520.6875 1437.0156,518.9844 L1437.0156,517.8906 C1437.0156,516.1094 1438.2656,514.7969 1440,514.7969 C1440.5781,514.7969 1441.1875,514.9531 1441.6563,515.2031 C1442.1406,515.4844 1442.3125,515.7031 1442.4063,516.1094 C1442.4688,516.5156 1442.5,516.6406 1442.6406,516.7656 C1442.7813,516.9063 1443.0156,517.0156 1443.2344,517.0156 C1443.5,517.0156 1443.7656,516.875 1443.9375,516.6563 C1444.0469,516.5 1444.0781,516.3125 1444.0781,515.8906 L1444.0781,514.4688 C1444.0781,514.0313 1444.0625,513.9063 1443.9688,513.75 C1443.8125,513.4844 1443.5313,513.3438 1443.2344,513.3438 C1442.9375,513.3438 1442.7344,513.4375 1442.5156,513.75 L1442.3438,513.6719 Z " fill="#000000"/><text fill="#000000" font-family="sans-serif" font-size="12" lengthAdjust="spacing" textLength="132" x="1454" y="522.1543">ProposedCombination</text><line style="stroke:#A80036;stroke-width:1.5;" x1="1426" x2="1588" y1="534" y2="534"/><line style="stroke:#A80036;stroke-width:1.5;" x1="1426" x2="1588" y1="542" y2="542"/><!--MD5=[e370ee5c0c15ce04544d5f5a73174d72]
class SecretCombination--><rect codeLine="52" fill="#FEFECE" filter="url(#fevryxyalm0o8)" height="48" id="SecretCombination" style="stroke:#A80036;stroke-width:1.5;" width="146" x="1462" y="394"/><ellipse cx="1477" cy="410" fill="#ADD1B2" rx="11" ry="11" style="stroke:#A80036;stroke-width:1.0;"/><path d="M1479.3438,405.6719 C1478.4063,405.2344 1477.8125,405.0938 1476.9375,405.0938 C1474.3125,405.0938 1472.3125,407.1719 1472.3125,409.8906 L1472.3125,411.0156 C1472.3125,413.5938 1474.4219,415.4844 1477.3125,415.4844 C1478.5313,415.4844 1479.6875,415.1875 1480.4375,414.6406 C1481.0156,414.2344 1481.3438,413.7813 1481.3438,413.3906 C1481.3438,412.9375 1480.9531,412.5469 1480.4844,412.5469 C1480.2656,412.5469 1480.0625,412.625 1479.875,412.8125 C1479.4219,413.2969 1479.4219,413.2969 1479.2344,413.3906 C1478.8125,413.6563 1478.125,413.7813 1477.3594,413.7813 C1475.3125,413.7813 1474.0156,412.6875 1474.0156,410.9844 L1474.0156,409.8906 C1474.0156,408.1094 1475.2656,406.7969 1477,406.7969 C1477.5781,406.7969 1478.1875,406.9531 1478.6563,407.2031 C1479.1406,407.4844 1479.3125,407.7031 1479.4063,408.1094 C1479.4688,408.5156 1479.5,408.6406 1479.6406,408.7656 C1479.7813,408.9063 1480.0156,409.0156 1480.2344,409.0156 C1480.5,409.0156 1480.7656,408.875 1480.9375,408.6563 C1481.0469,408.5 1481.0781,408.3125 1481.0781,407.8906 L1481.0781,406.4688 C1481.0781,406.0313 1481.0625,405.9063 1480.9688,405.75 C1480.8125,405.4844 1480.5313,405.3438 1480.2344,405.3438 C1479.9375,405.3438 1479.7344,405.4375 1479.5156,405.75 L1479.3438,405.6719 Z " fill="#000000"/><text fill="#000000" font-family="sans-serif" font-size="12" lengthAdjust="spacing" textLength="114" x="1491" y="414.1543">SecretCombination</text><line style="stroke:#A80036;stroke-width:1.5;" x1="1463" x2="1607" y1="426" y2="426"/><line style="stroke:#A80036;stroke-width:1.5;" x1="1463" x2="1607" y1="434" y2="434"/><!--MD5=[2741598bdf59a7d7e0d5c97658fd3022]
class Result--><rect codeLine="55" fill="#FEFECE" filter="url(#fevryxyalm0o8)" height="48" id="Result" style="stroke:#A80036;stroke-width:1.5;" width="68" x="1624" y="502"/><ellipse cx="1639" cy="518" fill="#ADD1B2" rx="11" ry="11" style="stroke:#A80036;stroke-width:1.0;"/><path d="M1641.3438,513.6719 C1640.4063,513.2344 1639.8125,513.0938 1638.9375,513.0938 C1636.3125,513.0938 1634.3125,515.1719 1634.3125,517.8906 L1634.3125,519.0156 C1634.3125,521.5938 1636.4219,523.4844 1639.3125,523.4844 C1640.5313,523.4844 1641.6875,523.1875 1642.4375,522.6406 C1643.0156,522.2344 1643.3438,521.7813 1643.3438,521.3906 C1643.3438,520.9375 1642.9531,520.5469 1642.4844,520.5469 C1642.2656,520.5469 1642.0625,520.625 1641.875,520.8125 C1641.4219,521.2969 1641.4219,521.2969 1641.2344,521.3906 C1640.8125,521.6563 1640.125,521.7813 1639.3594,521.7813 C1637.3125,521.7813 1636.0156,520.6875 1636.0156,518.9844 L1636.0156,517.8906 C1636.0156,516.1094 1637.2656,514.7969 1639,514.7969 C1639.5781,514.7969 1640.1875,514.9531 1640.6563,515.2031 C1641.1406,515.4844 1641.3125,515.7031 1641.4063,516.1094 C1641.4688,516.5156 1641.5,516.6406 1641.6406,516.7656 C1641.7813,516.9063 1642.0156,517.0156 1642.2344,517.0156 C1642.5,517.0156 1642.7656,516.875 1642.9375,516.6563 C1643.0469,516.5 1643.0781,516.3125 1643.0781,515.8906 L1643.0781,514.4688 C1643.0781,514.0313 1643.0625,513.9063 1642.9688,513.75 C1642.8125,513.4844 1642.5313,513.3438 1642.2344,513.3438 C1641.9375,513.3438 1641.7344,513.4375 1641.5156,513.75 L1641.3438,513.6719 Z " fill="#000000"/><text fill="#000000" font-family="sans-serif" font-size="12" lengthAdjust="spacing" textLength="36" x="1653" y="522.1543">Result</text><line style="stroke:#A80036;stroke-width:1.5;" x1="1625" x2="1691" y1="534" y2="534"/><line style="stroke:#A80036;stroke-width:1.5;" x1="1625" x2="1691" y1="542" y2="542"/><!--MD5=[18eee71c88ab61f27581b8cbdd3ef5ee]
class Color--><rect codeLine="59" fill="#FEFECE" filter="url(#fevryxyalm0o8)" height="48" id="Color" style="stroke:#A80036;stroke-width:1.5;" width="64" x="1904" y="394"/><ellipse cx="1919" cy="410" fill="#EB937F" rx="11" ry="11" style="stroke:#A80036;stroke-width:1.0;"/><path d="M1917.7969,410.875 L1919.25,410.875 L1919.25,410.9844 C1919.25,411.3906 1919.2813,411.5469 1919.3594,411.7031 C1919.5156,411.9531 1919.7969,412.1094 1920.0938,412.1094 C1920.3438,412.1094 1920.6094,411.9688 1920.7656,411.75 C1920.8906,411.5938 1920.9219,411.4375 1920.9219,410.9844 L1920.9219,409.0625 C1920.9219,408.9063 1920.9219,408.8594 1920.9063,408.7031 C1920.8438,408.2344 1920.5313,407.9219 1920.0781,407.9219 C1919.8281,407.9219 1919.5625,408.0625 1919.3906,408.2813 C1919.2813,408.4531 1919.25,408.6094 1919.25,409.0625 L1919.25,409.1875 L1917.7969,409.1875 L1917.7969,406.7813 L1921.7813,406.7813 L1921.7813,407.6406 C1921.7813,408.0469 1921.8125,408.2188 1921.8906,408.375 C1922.0625,408.625 1922.3438,408.7813 1922.625,408.7813 C1922.8906,408.7813 1923.1563,408.6406 1923.3281,408.4219 C1923.4375,408.25 1923.4688,408.1094 1923.4688,407.6406 L1923.4688,405.0938 L1915.8438,405.0938 C1915.4063,405.0938 1915.2813,405.1094 1915.125,405.2031 C1914.875,405.3594 1914.7188,405.6563 1914.7188,405.9375 C1914.7188,406.2188 1914.8594,406.4688 1915.0781,406.6406 C1915.2344,406.75 1915.4219,406.7813 1915.8438,406.7813 L1916.0938,406.7813 L1916.0938,413.2969 L1915.8438,413.2969 C1915.4375,413.2969 1915.2813,413.3125 1915.125,413.4219 C1914.875,413.5938 1914.7188,413.8594 1914.7188,414.1563 C1914.7188,414.4219 1914.8594,414.6719 1915.0781,414.8281 C1915.2188,414.9531 1915.4531,415 1915.8438,415 L1923.8438,415 L1923.8438,412.4219 C1923.8438,411.9844 1923.8125,411.8438 1923.7344,411.6875 C1923.5625,411.4375 1923.2813,411.2813 1923,411.2813 C1922.7344,411.2813 1922.4688,411.3906 1922.2969,411.6406 C1922.1875,411.7969 1922.1563,411.9375 1922.1563,412.4219 L1922.1563,413.2969 L1917.7969,413.2969 L1917.7969,410.875 Z " fill="#000000"/><text fill="#000000" font-family="sans-serif" font-size="12" lengthAdjust="spacing" textLength="32" x="1933" y="414.1543">Color</text><line style="stroke:#A80036;stroke-width:1.5;" x1="1905" x2="1967" y1="426" y2="426"/><line style="stroke:#A80036;stroke-width:1.5;" x1="1905" x2="1967" y1="434" y2="434"/><!--MD5=[b8cfd8c4119a3b0a7a46bfc5fc780f85]
class Error--><rect codeLine="60" fill="#FEFECE" filter="url(#fevryxyalm0o8)" height="48" id="Error" style="stroke:#A80036;stroke-width:1.5;" width="62" x="1807" y="394"/><ellipse cx="1822" cy="410" fill="#EB937F" rx="11" ry="11" style="stroke:#A80036;stroke-width:1.0;"/><path d="M1820.7969,410.875 L1822.25,410.875 L1822.25,410.9844 C1822.25,411.3906 1822.2813,411.5469 1822.3594,411.7031 C1822.5156,411.9531 1822.7969,412.1094 1823.0938,412.1094 C1823.3438,412.1094 1823.6094,411.9688 1823.7656,411.75 C1823.8906,411.5938 1823.9219,411.4375 1823.9219,410.9844 L1823.9219,409.0625 C1823.9219,408.9063 1823.9219,408.8594 1823.9063,408.7031 C1823.8438,408.2344 1823.5313,407.9219 1823.0781,407.9219 C1822.8281,407.9219 1822.5625,408.0625 1822.3906,408.2813 C1822.2813,408.4531 1822.25,408.6094 1822.25,409.0625 L1822.25,409.1875 L1820.7969,409.1875 L1820.7969,406.7813 L1824.7813,406.7813 L1824.7813,407.6406 C1824.7813,408.0469 1824.8125,408.2188 1824.8906,408.375 C1825.0625,408.625 1825.3438,408.7813 1825.625,408.7813 C1825.8906,408.7813 1826.1563,408.6406 1826.3281,408.4219 C1826.4375,408.25 1826.4688,408.1094 1826.4688,407.6406 L1826.4688,405.0938 L1818.8438,405.0938 C1818.4063,405.0938 1818.2813,405.1094 1818.125,405.2031 C1817.875,405.3594 1817.7188,405.6563 1817.7188,405.9375 C1817.7188,406.2188 1817.8594,406.4688 1818.0781,406.6406 C1818.2344,406.75 1818.4219,406.7813 1818.8438,406.7813 L1819.0938,406.7813 L1819.0938,413.2969 L1818.8438,413.2969 C1818.4375,413.2969 1818.2813,413.3125 1818.125,413.4219 C1817.875,413.5938 1817.7188,413.8594 1817.7188,414.1563 C1817.7188,414.4219 1817.8594,414.6719 1818.0781,414.8281 C1818.2188,414.9531 1818.4531,415 1818.8438,415 L1826.8438,415 L1826.8438,412.4219 C1826.8438,411.9844 1826.8125,411.8438 1826.7344,411.6875 C1826.5625,411.4375 1826.2813,411.2813 1826,411.2813 C1825.7344,411.2813 1825.4688,411.3906 1825.2969,411.6406 C1825.1875,411.7969 1825.1563,411.9375 1825.1563,412.4219 L1825.1563,413.2969 L1820.7969,413.2969 L1820.7969,410.875 Z " fill="#000000"/><text fill="#000000" font-family="sans-serif" font-size="12" lengthAdjust="spacing" textLength="30" x="1836" y="414.1543">Error</text><line style="stroke:#A80036;stroke-width:1.5;" x1="1808" x2="1868" y1="426" y2="426"/><line style="stroke:#A80036;stroke-width:1.5;" x1="1808" x2="1868" y1="434" y2="434"/><!--MD5=[dc0500422e092c4f25e7b64adb8c025b]
link PlayerView to StartView--><path codeLine="15" d="M472,109.14 C472,109.14 472,137.677 472,150.628 " fill="none" id="PlayerView-StartView" style="stroke:#A80036;stroke-width:1.0;"/><polygon fill="#A80036" points="472,163.891,476,154.891,472,158.891,468,154.891,472,163.891" style="stroke:#A80036;stroke-width:1.0;"/><line style="stroke:#A80036;stroke-width:1.0;" x1="472" x2="472" y1="158.891" y2="150.891"/><polygon fill="#A80036" points="472,97.14,468,103.14,472,109.14,476,103.14,472,97.14" style="stroke:#A80036;stroke-width:1.0;"/><!--MD5=[6aa5591338f4cd689301f7e2cc176561]
link PlayerView to ProposeView--><path codeLine="16" d="M413.0124,103.1047 C413.0124,103.1047 410.661,104.567 410,105 C387.561,119.707 364.452,138.819 346.314,154.891 " fill="none" id="PlayerView-ProposeView" style="stroke:#A80036;stroke-width:1.0;"/><polygon fill="#A80036" points="336.519,163.703,345.8854,160.6581,340.2364,160.3592,340.5353,154.7103,336.519,163.703" style="stroke:#A80036;stroke-width:1.0;"/><line style="stroke:#A80036;stroke-width:1.0;" x1="340.2364" x2="346.183" y1="160.3592" y2="155.009"/><polygon fill="#A80036" points="423.321,96.962,416.1191,96.5971,413.0124,103.1047,420.2143,103.4695,423.321,96.962" style="stroke:#A80036;stroke-width:1.0;"/><!--MD5=[b95630b4bb6f21f358e9b1d68800b78a]
link PlayerView to ResumeView--><path codeLine="17" d="M530.4132,102.1227 C530.4132,102.1227 533.106,104.223 534,105 C587.834,151.753 630.594,224.32 652.944,267.103 " fill="none" id="PlayerView-ResumeView" style="stroke:#A80036;stroke-width:1.0;"/><polygon fill="#A80036" points="658.957,278.848,658.416,269.014,656.6784,274.3974,651.295,272.6598,658.957,278.848" style="stroke:#A80036;stroke-width:1.0;"/><line style="stroke:#A80036;stroke-width:1.0;" x1="656.6784" x2="653.033" y1="274.3974" y2="267.2765"/><polygon fill="#A80036" points="520.593,95.226,523.2042,101.9477,530.4132,102.1227,527.802,95.4009,520.593,95.226" style="stroke:#A80036;stroke-width:1.0;"/><!--MD5=[2b5890793a76472eff4c2a6a4af43287]
link StartView to BoardView--><path codeLine="18" d="M455.823,212.14 C443.148,230.269 425.483,255.537 412.112,274.663 " fill="none" id="StartView-to-BoardView" style="stroke:#A80036;stroke-width:1.0;stroke-dasharray:7.0,7.0;"/><polygon fill="#A80036" points="409.156,278.891,417.5914,273.8072,412.0211,274.7933,411.035,269.2231,409.156,278.891" style="stroke:#A80036;stroke-width:1.0;"/><!--MD5=[29c306805319960c0560bedfd82b8e40]
link ProposeView to BoardView--><path codeLine="19" d="M328.587,212.14 C341.582,230.269 359.695,255.537 373.404,274.663 " fill="none" id="ProposeView-to-BoardView" style="stroke:#A80036;stroke-width:1.0;stroke-dasharray:7.0,7.0;"/><polygon fill="#A80036" points="376.435,278.891,374.4418,269.2459,373.5217,274.8275,367.9401,273.9073,376.435,278.891" style="stroke:#A80036;stroke-width:1.0;"/><!--MD5=[b92bc89b5449472b10f1cf1477809057]
link BoardView to ProposedCombinationView--><path codeLine="20" d="M344.141,318.336 C329.158,323.16 312.743,328.884 298,335 C257.958,351.612 214.227,374.186 182.46,391.444 " fill="none" id="BoardView-to-ProposedCombinationView" style="stroke:#A80036;stroke-width:1.0;stroke-dasharray:7.0,7.0;"/><polygon fill="#A80036" points="177.862,393.95,187.6788,393.1562,182.2525,391.5576,183.851,386.1313,177.862,393.95" style="stroke:#A80036;stroke-width:1.0;"/><!--MD5=[15f682a315f16673a58b132a229e1ff0]
link BoardView to ResultView--><path codeLine="21" d="M441.736,306.447 C470.905,309.805 507.687,317.513 536,335 C557.5,348.279 575.03,371.138 586.606,389.353 " fill="none" id="BoardView-to-ResultView" style="stroke:#A80036;stroke-width:1.0;stroke-dasharray:7.0,7.0;"/><polygon fill="#A80036" points="589.42,393.875,588.0621,384.1202,586.7787,389.6296,581.2694,388.3462,589.42,393.875" style="stroke:#A80036;stroke-width:1.0;"/><!--MD5=[02a16ebf8539d2e5d44c3be387606aac]
link BoardView to Message--><path codeLine="22" d="M344.257,318.297 C337.014,322.527 330.487,327.981 326,335 C290.814,390.049 286.413,430.025 326,482 C339.033,499.111 392.288,511.1367 432.985,518.0387 " fill="none" id="BoardView-to-Message" style="stroke:#A80036;stroke-width:1.0;stroke-dasharray:7.0,7.0;"/><polygon fill="#A80036" points="438.386,518.9373,430.1654,513.5131,433.4539,518.1159,428.8512,521.4044,438.386,518.9373" style="stroke:#A80036;stroke-width:1.0;"/><!--MD5=[5418e21908cb409c36d98acf7a0f9cb6]
link BoardView to SecretCombinationView--><path codeLine="23" d="M400.782,327.14 C406.776,344.964 415.09,369.69 421.481,388.693 " fill="none" id="BoardView-to-SecretCombinationView" style="stroke:#A80036;stroke-width:1.0;stroke-dasharray:7.0,7.0;"/><polygon fill="#A80036" points="423.229,393.891,424.1511,384.0854,421.635,389.1519,416.5685,386.6358,423.229,393.891" style="stroke:#A80036;stroke-width:1.0;"/><!--MD5=[54923e7f1f8105ab44ef05f41a7d666e]
link ProposedCombinationView to ColorView--><path codeLine="24" d="M158.915,442 C174.558,458.417 195.655,480.559 212.125,497.844 " fill="none" id="ProposedCombinationView-to-ColorView" style="stroke:#A80036;stroke-width:1.0;stroke-dasharray:7.0,7.0;"/><polygon fill="#A80036" points="215.778,501.6784,212.465,492.4035,212.3287,498.0587,206.6735,497.9224,215.778,501.6784" style="stroke:#A80036;stroke-width:1.0;"/><!--MD5=[058408ce5819f71d62d41402f2a6cc02]
link ProposedCombinationView to ErrorView--><path codeLine="25" d="M131.358,442 C127.433,458.003 122.174,479.446 117.984,496.528 " fill="none" id="ProposedCombinationView-to-ErrorView" style="stroke:#A80036;stroke-width:1.0;stroke-dasharray:7.0,7.0;"/><polygon fill="#A80036" points="116.72,501.6784,122.7494,493.8909,117.9115,496.8224,114.9799,491.9845,116.72,501.6784" style="stroke:#A80036;stroke-width:1.0;"/><!--MD5=[7bf6310e2078d439bcd0e6b6dd4bf7dc]
link ProposedCombinationView to Message--><path codeLine="26" d="M175.424,442.037 C199.317,455.46 231.086,471.716 261,482 C318.482,501.7612 387.677,513.3813 433.144,519.4591 " fill="none" id="ProposedCombinationView-to-Message" style="stroke:#A80036;stroke-width:1.0;stroke-dasharray:7.0,7.0;"/><polygon fill="#A80036" points="438.293,520.1373,429.8923,514.9964,433.3358,519.4845,428.8478,522.9279,438.293,520.1373" style="stroke:#A80036;stroke-width:1.0;"/><!--MD5=[0e5df9184d8007a1cb9785d3f6966635]
link ResultView to Message--><path codeLine="27" d="M578.652,442.271 C566.235,454.393 550.563,469.296 536,482 C529.718,487.48 522.863,493.157 516.21,498.519 " fill="none" id="ResultView-to-Message" style="stroke:#A80036;stroke-width:1.0;stroke-dasharray:7.0,7.0;"/><polygon fill="#A80036" points="512.1,501.8124,521.6243,499.3049,516.0015,498.6853,516.621,493.0625,512.1,501.8124" style="stroke:#A80036;stroke-width:1.0;"/><!--MD5=[97e9ace985d716348ec86012fc7f7728]
link StartView to Message--><path codeLine="28" d="M485.472,212.041 C505.517,243.956 546.43,300.654 598,327 C611.943,334.123 657.576,323.317 668,335 C689.748,359.375 688.332,456.432 668,482 C651.148,503.1926 580.041,514.8493 530.798,520.5097 " fill="none" id="StartView-to-Message" style="stroke:#A80036;stroke-width:1.0;stroke-dasharray:7.0,7.0;"/><polygon fill="#A80036" points="525.805,521.0718,535.1964,524.0387,530.7735,520.5118,534.3004,516.089,525.805,521.0718" style="stroke:#A80036;stroke-width:1.0;"/><!--MD5=[91198d1c12ec6e73a40fb6837ae56756]
link ResumeView to Message--><path codeLine="29" d="M692.242,327.327 C693.744,329.788 695.039,332.36 696,335 C718.338,396.396 737.398,431.456 696,482 C675.547,506.9719 587.547,517.7502 530.958,522.167 " fill="none" id="ResumeView-to-Message" style="stroke:#A80036;stroke-width:1.0;stroke-dasharray:7.0,7.0;"/><polygon fill="#A80036" points="525.923,522.5497,535.2,525.8568,530.9086,522.1711,534.5943,517.8797,525.923,522.5497" style="stroke:#A80036;stroke-width:1.0;"/><!--MD5=[314f1b143affbca542acc1caaa9c190a]
link ProposeView to ProposedCombinationView--><path codeLine="30" d="M270.142,212.144 C266.902,214.612 263.806,217.238 261,220 C208.974,271.22 168.625,348.254 149.381,389.162 " fill="none" id="ProposeView-to-ProposedCombinationView" style="stroke:#A80036;stroke-width:1.0;stroke-dasharray:7.0,7.0;"/><polygon fill="#A80036" points="147.139,393.968,154.5676,387.5015,149.2519,389.4364,147.317,384.1208,147.139,393.968" style="stroke:#A80036;stroke-width:1.0;"/><!--MD5=[2af68b46eeb5c2e46543eeb7557d9936]
link ProposeView to Message--><path codeLine="31" d="M300.697,212.275 C276.273,266.313 225.749,401.768 290,482 C307.598,503.9756 382.139,515.4792 432.994,520.8853 " fill="none" id="ProposeView-to-Message" style="stroke:#A80036;stroke-width:1.0;stroke-dasharray:7.0,7.0;"/><polygon fill="#A80036" points="438.147,521.4209,429.609,516.5115,433.1738,520.9038,428.7816,524.4686,438.147,521.4209" style="stroke:#A80036;stroke-width:1.0;"/><!--MD5=[354d6deacb49030493b7fd8cb23ebdce]
reverse link Controller to StartController--><path codeLine="41" d="M1062.72,230.721 C1069.64,246.998 1077.3,265.034 1083.18,278.891 " fill="none" id="Controller-backto-StartController" style="stroke:#A80036;stroke-width:1.0;"/><polygon fill="none" points="1056.21,233.285,1054.83,212.14,1069.09,227.811,1056.21,233.285" style="stroke:#A80036;stroke-width:1.0;"/><!--MD5=[f447e35400d120693a19fd34f2d8422e]
reverse link Controller to ProposeController--><path codeLine="42" d="M1110.14,214.441 C1132.64,216.081 1145.49,208.834 1170,220 C1198.88,233.16 1224.49,259.601 1240.53,278.912 " fill="none" id="Controller-backto-ProposeController" style="stroke:#A80036;stroke-width:1.0;"/><polygon fill="none" points="1108.63,221.281,1090.18,210.854,1111.1,207.501,1108.63,221.281" style="stroke:#A80036;stroke-width:1.0;"/><!--MD5=[dfabfd7c269c7ef3ab5bdd4c723fcdb8]
reverse link Controller to ResumeController--><path codeLine="43" d="M983.455,223.784 C953.634,245.002 931.486,264.27 915.404,278.942 " fill="none" id="Controller-backto-ResumeController" style="stroke:#A80036;stroke-width:1.0;"/><polygon fill="none" points="979.848,217.768,1000.29,212.171,987.8,229.291,979.848,217.768" style="stroke:#A80036;stroke-width:1.0;"/><!--MD5=[c8984a8af7c12f8533ff397092c16636]
reverse link Controller to ShowBoardController--><path codeLine="44" d="M1012.85,230.963 C999.06,269.438 1001.68,288.228 1016,327 C1025.76,353.426 1047.13,377.343 1064.88,393.869 " fill="none" id="Controller-backto-ShowBoardController" style="stroke:#A80036;stroke-width:1.0;"/><polygon fill="none" points="1006.42,228.193,1020.21,212.11,1019.46,233.286,1006.42,228.193" style="stroke:#A80036;stroke-width:1.0;"/><!--MD5=[b4660ff7e828b23e4b17a715c63b2df8]
link StartController to ShowBoardController--><path codeLine="45" d="M1093,339.14 C1093,339.14 1093,367.677 1093,380.628 " fill="none" id="StartController-ShowBoardController" style="stroke:#A80036;stroke-width:1.0;"/><polygon fill="#A80036" points="1093,393.891,1097,384.891,1093,388.891,1089,384.891,1093,393.891" style="stroke:#A80036;stroke-width:1.0;"/><line style="stroke:#A80036;stroke-width:1.0;" x1="1093" x2="1093" y1="388.891" y2="380.891"/><polygon fill="#A80036" points="1093,327.14,1089,333.14,1093,339.14,1097,333.14,1093,327.14" style="stroke:#A80036;stroke-width:1.0;"/><!--MD5=[217660a01a015992a9b7449ecc5eb003]
link ProposeController to ShowBoardController--><path codeLine="46" d="M1214.3139,333.9272 C1214.3139,333.9272 1161.02,370.42 1137.48,386.535 " fill="none" id="ProposeController-ShowBoardController" style="stroke:#A80036;stroke-width:1.0;"/><polygon fill="#A80036" points="1126.74,393.891,1136.426,392.1075,1130.8658,391.0665,1131.9068,385.5062,1126.74,393.891" style="stroke:#A80036;stroke-width:1.0;"/><line style="stroke:#A80036;stroke-width:1.0;" x1="1130.8658" x2="1137.47" y1="391.0665" y2="386.545"/><polygon fill="#A80036" points="1224.21,327.14,1216.9995,327.2349,1214.3139,333.9272,1221.5243,333.8323,1224.21,327.14" style="stroke:#A80036;stroke-width:1.0;"/><!--MD5=[2f10888865b2f559cc24db01ac34cee3]
reverse link Combination to ProposedCombination--><path codeLine="53" d="M1439.95,344.724 C1411.59,397.817 1416.41,429.759 1444,482 C1448.08,489.728 1454.25,496.33 1461.15,501.8716 " fill="none" id="Combination-backto-ProposedCombination" style="stroke:#A80036;stroke-width:1.0;"/><polygon fill="none" points="1434.05,340.955,1450.08,327.108,1446.18,347.935,1434.05,340.955" style="stroke:#A80036;stroke-width:1.0;"/><!--MD5=[ed81d3472c9069d2de3c2f5cd308846f]
reverse link Combination to SecretCombination--><path codeLine="54" d="M1513.09,346.259 C1518.09,362.394 1523.6,380.186 1527.84,393.891 " fill="none" id="Combination-backto-SecretCombination" style="stroke:#A80036;stroke-width:1.0;"/><polygon fill="none" points="1506.4,348.316,1507.17,327.14,1519.77,344.173,1506.4,348.316" style="stroke:#A80036;stroke-width:1.0;"/><!--MD5=[e0b5d9907fda64872c10fd6493e0c51f]
link Board to ProposedCombination--><path codeLine="63" d="M1644.5188,339.0739 C1644.5188,339.0739 1641.7,460.648 1625,482 C1618.41,490.424 1610.01,497.199 1600.74,502.647 " fill="none" id="Board-ProposedCombination" style="stroke:#A80036;stroke-width:1.0;"/><polygon fill="#A80036" points="1589.07,508.656,1598.9025,508.0888,1593.5145,506.3655,1595.2377,500.9775,1589.07,508.656" style="stroke:#A80036;stroke-width:1.0;"/><line style="stroke:#A80036;stroke-width:1.0;" x1="1593.5145" x2="1600.625" y1="506.3655" y2="502.7076"/><polygon fill="#A80036" points="1644.47,327.074,1640.4944,333.0902,1644.5188,339.0739,1648.4944,333.0577,1644.47,327.074" style="stroke:#A80036;stroke-width:1.0;"/><!--MD5=[5e915b8ab835b2366405aaf6901e131b]
link Board to SecretCombination--><path codeLine="64" d="M1613.3497,335.7775 C1613.3497,335.7775 1580.89,369.43 1566.38,384.468 " fill="none" id="Board-SecretCombination" style="stroke:#A80036;stroke-width:1.0;"/><polygon fill="#A80036" points="1557.29,393.891,1566.4169,390.1896,1560.7609,390.292,1560.6585,384.6361,1557.29,393.891" style="stroke:#A80036;stroke-width:1.0;"/><line style="stroke:#A80036;stroke-width:1.0;" x1="1560.7609" x2="1566.315" y1="390.292" y2="384.5345"/><polygon fill="#A80036" points="1621.68,327.14,1614.6357,328.682,1613.3497,335.7775,1620.394,334.2355,1621.68,327.14" style="stroke:#A80036;stroke-width:1.0;"/><!--MD5=[8dd95aff79c51151a18c835e3410b3cd]
link Board to Result--><path codeLine="65" d="M1653.1998,339.0838 C1653.1998,339.0838 1660.93,452.946 1659.79,488.665 " fill="none" id="Board-Result" style="stroke:#A80036;stroke-width:1.0;"/><polygon fill="#A80036" points="1659.29,501.7223,1663.6275,492.88,1659.4791,496.7259,1655.6332,492.5775,1659.29,501.7223" style="stroke:#A80036;stroke-width:1.0;"/><line style="stroke:#A80036;stroke-width:1.0;" x1="1659.4791" x2="1659.785" y1="496.7259" y2="488.732"/><polygon fill="#A80036" points="1651.43,327.215,1648.3586,333.7393,1653.1998,339.0838,1656.2711,332.5595,1651.43,327.215" style="stroke:#A80036;stroke-width:1.0;"/><!--MD5=[f874647c3c9f57491b6e7b7bf233051a]
link SecretCombination to Result--><path codeLine="66" d="M1561.69,442 C1580.9,458.555 1606.86,480.931 1626.99,498.2791 " fill="none" id="SecretCombination-to-Result" style="stroke:#A80036;stroke-width:1.0;stroke-dasharray:7.0,7.0;"/><polygon fill="#A80036" points="1630.94,501.6784,1626.7248,492.7772,1627.1492,498.4181,1621.5083,498.8425,1630.94,501.6784" style="stroke:#A80036;stroke-width:1.0;"/><!--MD5=[324ce3fbc91b6fad145775bb65621994]
link SecretCombination to ProposedCombination--><path codeLine="67" d="M1528.92,442 C1524.7,458.003 1519.03,479.446 1514.52,496.528 " fill="none" id="SecretCombination-to-ProposedCombination" style="stroke:#A80036;stroke-width:1.0;stroke-dasharray:7.0,7.0;"/><polygon fill="#A80036" points="1513.16,501.6784,1519.3284,494.0004,1514.4385,496.8446,1511.5943,491.9548,1513.16,501.6784" style="stroke:#A80036;stroke-width:1.0;"/><!--MD5=[fd4dadafb7dfafd89665a9151015bafc]
link views to controllers--><path d="M757.8728,74.1341 C758.176,74.1389 758.4866,74.1438 758.8045,74.1488 C759.4402,74.1588 760.105,74.1694 760.7985,74.1805 C762.1855,74.2026 763.687,74.2269 765.2988,74.2533 C768.5224,74.306 772.1874,74.3671 776.2604,74.4369 C792.5523,74.7161 815.3716,75.1333 842.5816,75.7015 C897.0016,76.8378 968.9842,78.5779 1041.4349,81.0244 C1186.3363,85.9172 1333.11,93.6355 1345,105 C1348.205,108.0636 1350.7511,111.5877 1352.7509,115.4158 C1353.2508,116.3728 1353.7166,117.3488 1354.15,118.3414 C1354.3667,118.8377 1354.5753,119.3381 1354.7761,119.8424 C1354.8764,120.0945 1354.9748,120.3476 1355.0713,120.6016 C1355.1195,120.7286 1355.1672,120.8559 1355.2145,120.9833 " fill="none" id="views-to-controllers" style="stroke:#A80036;stroke-width:1.0;stroke-dasharray:7.0,7.0;"/><polygon fill="#A80036" points="1355.2145,120.9833,1355.8361,111.1541,1353.4762,116.2952,1348.3351,113.9353,1355.2145,120.9833" style="stroke:#A80036;stroke-width:1.0;"/><!--MD5=[6bfde5656e7ece32836aeea1e9e8a819]
link controllers to models--><path d="M1361.648,189.1087 C1361.8709,189.1119 1362.0977,189.1151 1362.3286,189.1184 C1364.1751,189.1449 1366.2752,189.1764 1368.6103,189.2138 C1377.9507,189.3631 1391.0501,189.6045 1406.7152,189.9791 C1438.0453,190.7284 1479.6381,192.0106 1521.9463,194.155 C1606.5625,198.4438 1694.04,206.181 1708,220 C1711.1513,223.1195 1713.6566,226.6859 1715.6262,230.5453 C1716.1186,231.5101 1716.5775,232.4933 1717.0047,233.4923 C1717.2182,233.9919 1717.4239,234.4954 1717.6218,235.0025 C1717.7208,235.2561 1717.8178,235.5106 1717.9129,235.766 " fill="none" id="controllers-to-models" style="stroke:#A80036;stroke-width:1.0;stroke-dasharray:7.0,7.0;"/><polygon fill="#A80036" points="1717.9129,235.766,1718.52,225.9359,1716.1677,231.0805,1711.0231,228.7282,1717.9129,235.766" style="stroke:#A80036;stroke-width:1.0;"/><!--MD5=[a47103ae2ffafd08434d69e1e4d1349a]
link views to types--><path d="M757.1876,73.8544 C757.5445,73.8488 757.9125,73.8431 758.2917,73.8373 C759.0501,73.8257 759.8531,73.8138 760.6998,73.8017 C767.4735,73.7043 777.0507,73.5907 789.0681,73.5087 C813.1029,73.3447 846.8986,73.3072 887.5495,73.779 C968.8513,74.7226 1077.5739,77.7036 1190.4719,85.7858 C1416.2678,101.95 1658.765,138.5185 1732,220 C1761.395,252.7045 1771.545,300.9385 1774.2725,341.4925 C1774.443,344.0271 1774.5844,346.5318 1774.6998,349.0007 C1774.7287,349.6179 1774.7559,350.233 1774.7815,350.8457 " fill="none" id="views-to-types" style="stroke:#A80036;stroke-width:1.0;stroke-dasharray:7.0,7.0;"/><polygon fill="#A80036" points="1774.7815,350.8457,1778.4019,341.6864,1774.5726,345.85,1770.4089,342.0206,1774.7815,350.8457" style="stroke:#A80036;stroke-width:1.0;"/><!--MD5=[9da2d375dc0417b2d3724b966d4c0d45]
link models to types--><path d="M1724.0643,320.2722 C1724.1414,320.4278 1724.2189,320.5842 1724.2968,320.7414 C1724.6085,321.3704 1724.9269,322.0127 1725.2514,322.6675 C1730.4441,333.1449 1737.2281,346.8336 1744.0113,360.5206 C1750.7944,374.2077 1757.5766,387.8932 1762.7655,398.3642 C1763.0898,399.0186 1763.4079,399.6605 1763.7193,400.289 C1763.7972,400.4462 1763.8747,400.6025 1763.9517,400.7579 " fill="none" id="models-to-types" style="stroke:#A80036;stroke-width:1.0;stroke-dasharray:7.0,7.0;"/><polygon fill="#A80036" points="1763.9517,400.7579,1763.5396,390.9177,1761.7316,396.2778,1756.3715,394.4698,1763.9517,400.7579" style="stroke:#A80036;stroke-width:1.0;"/><!--MD5=[44c209789e0c90c3ee683d81a9090425]
@startuml
package views {
    class PlayerView
    class StartView
    class ProposeView
    class ResumeView
    class BoardView
    class ProposedCombinationView
    class SecretCombinationView
    class ResultView
    class ColorView
    enum Message
    class ErrorView
}

PlayerView *-down-> StartView
PlayerView *-down-> ProposeView
PlayerView *-down-> ResumeView
StartView .down.> BoardView
ProposeView .down.> BoardView
BoardView .down.> ProposedCombinationView
BoardView .down.> ResultView
BoardView .down.> Message
BoardView .down.> SecretCombinationView
ProposedCombinationView .down.> ColorView
ProposedCombinationView .down.> ErrorView
ProposedCombinationView .down.> Message
ResultView .down.> Message
StartView .down.> Message
ResumeView .down.> Message
ProposeView .down.> ProposedCombinationView
ProposeView .down.> Message

package controllers {
    abstract class Controller
    class StartController
    class ProposeController
    class ResumeController
    class ShowBoardController
}

Controller <|- - StartController
Controller <|- - ProposeController
Controller <|- - ResumeController
Controller <|- - ShowBoardController
StartController *-down-> ShowBoardController
ProposeController *-down-> ShowBoardController

package models {
    class Board
    class Combination
    class ProposedCombination
    class SecretCombination
    Combination <|- - ProposedCombination
    Combination <|- - SecretCombination
    class Result
}

package types {
    enum Color
    enum Error
}

Board *-down-> ProposedCombination
Board *-down-> SecretCombination
Board *-down-> Result
SecretCombination .down.> Result
SecretCombination .down.> ProposedCombination

views .down.> controllers
controllers .down.> models
views .down.> types
models .down.> types
@enduml

PlantUML version 1.2021.4beta2(Unknown compile time)
(GPL source distribution)
Java Runtime: Java(TM) SE Runtime Environment
JVM: Java HotSpot(TM) 64-Bit Server VM
Default Encoding: UTF-8
Language: en
Country: US
--></g></svg>