<?xml version="1.0" encoding="UTF-8" standalone="no"?><svg xmlns="http://www.w3.org/2000/svg" xmlns:xlink="http://www.w3.org/1999/xlink" contentScriptType="application/ecmascript" contentStyleType="text/css" height="688px" preserveAspectRatio="none" style="width:646px;height:688px;" version="1.1" viewBox="0 0 646 688" width="646px" zoomAndPan="magnify"><defs><filter height="300%" id="f1b4xjo5a6xfua" width="300%" x="-1" y="-1"><feGaussianBlur result="blurOut" stdDeviation="2.0"/><feColorMatrix in="blurOut" result="blurOut2" type="matrix" values="0 0 0 0 0 0 0 0 0 0 0 0 0 0 0 0 0 0 .4 0"/><feOffset dx="4.0" dy="4.0" in="blurOut2" result="blurOut3"/><feBlend in="SourceGraphic" in2="blurOut3" mode="normal"/></filter></defs><g><!--MD5=[a60570e4b426f702ccbb0d459e3b9417]
cluster models--><polygon fill="#FFFFFF" filter="url(#f1b4xjo5a6xfua)" points="16,6,80,6,87,28.2969,487,28.2969,487,577,16,577,16,6" style="stroke:#000000;stroke-width:1.5;"/><line style="stroke:#000000;stroke-width:1.5;" x1="16" x2="87" y1="28.2969" y2="28.2969"/><text fill="#000000" font-family="sans-serif" font-size="14" font-weight="bold" lengthAdjust="spacing" textLength="58" x="20" y="20.9951">models</text><!--MD5=[9563755d011c5cec7ec66dc53565a59e]
class Board--><rect codeLine="2" fill="#FEFECE" filter="url(#f1b4xjo5a6xfua)" height="227.2656" id="Board" style="stroke:#A80036;stroke-width:1.5;" width="298" x="173" y="41"/><ellipse cx="299.75" cy="57" fill="#ADD1B2" rx="11" ry="11" style="stroke:#A80036;stroke-width:1.0;"/><path d="M302.0938,52.6719 C301.1563,52.2344 300.5625,52.0938 299.6875,52.0938 C297.0625,52.0938 295.0625,54.1719 295.0625,56.8906 L295.0625,58.0156 C295.0625,60.5938 297.1719,62.4844 300.0625,62.4844 C301.2813,62.4844 302.4375,62.1875 303.1875,61.6406 C303.7656,61.2344 304.0938,60.7813 304.0938,60.3906 C304.0938,59.9375 303.7031,59.5469 303.2344,59.5469 C303.0156,59.5469 302.8125,59.625 302.625,59.8125 C302.1719,60.2969 302.1719,60.2969 301.9844,60.3906 C301.5625,60.6563 300.875,60.7813 300.1094,60.7813 C298.0625,60.7813 296.7656,59.6875 296.7656,57.9844 L296.7656,56.8906 C296.7656,55.1094 298.0156,53.7969 299.75,53.7969 C300.3281,53.7969 300.9375,53.9531 301.4063,54.2031 C301.8906,54.4844 302.0625,54.7031 302.1563,55.1094 C302.2188,55.5156 302.25,55.6406 302.3906,55.7656 C302.5313,55.9063 302.7656,56.0156 302.9844,56.0156 C303.25,56.0156 303.5156,55.875 303.6875,55.6563 C303.7969,55.5 303.8281,55.3125 303.8281,54.8906 L303.8281,53.4688 C303.8281,53.0313 303.8125,52.9063 303.7188,52.75 C303.5625,52.4844 303.2813,52.3438 302.9844,52.3438 C302.6875,52.3438 302.4844,52.4375 302.2656,52.75 L302.0938,52.6719 Z " fill="#000000"/><text fill="#000000" font-family="sans-serif" font-size="12" lengthAdjust="spacing" textLength="36" x="320.25" y="61.1543">Board</text><line style="stroke:#A80036;stroke-width:1.5;" x1="174" x2="470" y1="73" y2="73"/><line style="stroke:#A80036;stroke-width:1.5;" x1="174" x2="470" y1="81" y2="81"/><ellipse cx="184" cy="92" fill="#84BE84" rx="3" ry="3" style="stroke:#038048;stroke-width:1.0;"/><text fill="#000000" font-family="sans-serif" font-size="11" lengthAdjust="spacing" textLength="38" x="193" y="95.2104">reset()</text><ellipse cx="184" cy="104.8047" fill="#84BE84" rx="3" ry="3" style="stroke:#038048;stroke-width:1.0;"/><text fill="#000000" font-family="sans-serif" font-size="11" lengthAdjust="spacing" textLength="95" x="193" y="108.0151">add(List&lt;Color&gt;)</text><ellipse cx="184" cy="117.6094" fill="#84BE84" rx="3" ry="3" style="stroke:#038048;stroke-width:1.0;"/><text fill="#000000" font-family="sans-serif" font-size="11" lengthAdjust="spacing" textLength="152" x="193" y="120.8198">getError(List&lt;Color&gt;): Error</text><ellipse cx="184" cy="130.4141" fill="#84BE84" rx="3" ry="3" style="stroke:#038048;stroke-width:1.0;"/><text fill="#000000" font-family="sans-serif" font-size="11" lengthAdjust="spacing" textLength="117" x="193" y="133.6245">isFinished(): boolean</text><ellipse cx="184" cy="143.2188" fill="#84BE84" rx="3" ry="3" style="stroke:#038048;stroke-width:1.0;"/><text fill="#000000" font-family="sans-serif" font-size="11" lengthAdjust="spacing" textLength="110" x="193" y="146.4292">isWinner(): boolean</text><rect fill="#F24D5C" height="6" style="stroke:#C82930;stroke-width:1.0;" width="6" x="181" y="153.0234"/><text fill="#000000" font-family="sans-serif" font-size="11" lengthAdjust="spacing" textLength="101" x="193" y="159.2339">isLoser(): boolean</text><ellipse cx="184" cy="168.8281" fill="#84BE84" rx="3" ry="3" style="stroke:#038048;stroke-width:1.0;"/><text fill="#000000" font-family="sans-serif" font-size="11" lengthAdjust="spacing" textLength="100" x="193" y="172.0386">getAttempts(): int</text><ellipse cx="184" cy="181.6328" fill="#84BE84" rx="3" ry="3" style="stroke:#038048;stroke-width:1.0;"/><text fill="#000000" font-family="sans-serif" font-size="11" lengthAdjust="spacing" textLength="272" x="193" y="184.8433">getProposedCombinationColors(int): List&lt;Color&gt;</text><ellipse cx="184" cy="194.4375" fill="#84BE84" rx="3" ry="3" style="stroke:#038048;stroke-width:1.0;"/><text fill="#000000" font-family="sans-serif" font-size="11" lengthAdjust="spacing" textLength="98" x="193" y="197.6479">getBlacks(int): int</text><ellipse cx="184" cy="207.2422" fill="#84BE84" rx="3" ry="3" style="stroke:#038048;stroke-width:1.0;"/><text fill="#000000" font-family="sans-serif" font-size="11" lengthAdjust="spacing" textLength="101" x="193" y="210.4526">getWhites(int): int</text><ellipse cx="184" cy="220.0469" fill="#84BE84" rx="3" ry="3" style="stroke:#038048;stroke-width:1.0;"/><text fill="#000000" font-family="sans-serif" font-size="11" lengthAdjust="spacing" textLength="114" x="193" y="223.2573">undoable(): boolean</text><ellipse cx="184" cy="232.8516" fill="#84BE84" rx="3" ry="3" style="stroke:#038048;stroke-width:1.0;"/><text fill="#000000" font-family="sans-serif" font-size="11" lengthAdjust="spacing" textLength="112" x="193" y="236.062">redoable(): boolean</text><ellipse cx="184" cy="245.6563" fill="#84BE84" rx="3" ry="3" style="stroke:#038048;stroke-width:1.0;"/><text fill="#000000" font-family="sans-serif" font-size="11" lengthAdjust="spacing" textLength="36" x="193" y="248.8667">undo()</text><ellipse cx="184" cy="258.4609" fill="#84BE84" rx="3" ry="3" style="stroke:#038048;stroke-width:1.0;"/><text fill="#000000" font-family="sans-serif" font-size="11" lengthAdjust="spacing" textLength="34" x="193" y="261.6714">redo()</text><!--MD5=[28491d17d5ee38c9c116625a5ffc259a]
class Combination--><rect codeLine="18" fill="#FEFECE" filter="url(#f1b4xjo5a6xfua)" height="48" id="Combination" style="stroke:#A80036;stroke-width:1.5;" width="106" x="32" y="130.5"/><ellipse cx="47" cy="146.5" fill="#ADD1B2" rx="11" ry="11" style="stroke:#A80036;stroke-width:1.0;"/><path d="M49.3438,142.1719 C48.4063,141.7344 47.8125,141.5938 46.9375,141.5938 C44.3125,141.5938 42.3125,143.6719 42.3125,146.3906 L42.3125,147.5156 C42.3125,150.0938 44.4219,151.9844 47.3125,151.9844 C48.5313,151.9844 49.6875,151.6875 50.4375,151.1406 C51.0156,150.7344 51.3438,150.2813 51.3438,149.8906 C51.3438,149.4375 50.9531,149.0469 50.4844,149.0469 C50.2656,149.0469 50.0625,149.125 49.875,149.3125 C49.4219,149.7969 49.4219,149.7969 49.2344,149.8906 C48.8125,150.1563 48.125,150.2813 47.3594,150.2813 C45.3125,150.2813 44.0156,149.1875 44.0156,147.4844 L44.0156,146.3906 C44.0156,144.6094 45.2656,143.2969 47,143.2969 C47.5781,143.2969 48.1875,143.4531 48.6563,143.7031 C49.1406,143.9844 49.3125,144.2031 49.4063,144.6094 C49.4688,145.0156 49.5,145.1406 49.6406,145.2656 C49.7813,145.4063 50.0156,145.5156 50.2344,145.5156 C50.5,145.5156 50.7656,145.375 50.9375,145.1563 C51.0469,145 51.0781,144.8125 51.0781,144.3906 L51.0781,142.9688 C51.0781,142.5313 51.0625,142.4063 50.9688,142.25 C50.8125,141.9844 50.5313,141.8438 50.2344,141.8438 C49.9375,141.8438 49.7344,141.9375 49.5156,142.25 L49.3438,142.1719 Z " fill="#000000"/><text fill="#000000" font-family="sans-serif" font-size="12" lengthAdjust="spacing" textLength="74" x="61" y="150.6543">Combination</text><line style="stroke:#A80036;stroke-width:1.5;" x1="33" x2="137" y1="162.5" y2="162.5"/><line style="stroke:#A80036;stroke-width:1.5;" x1="33" x2="137" y1="170.5" y2="170.5"/><!--MD5=[cf489b19c51ee25e76ddca093e62e620]
class ProposedCombination--><rect codeLine="19" fill="#FEFECE" filter="url(#f1b4xjo5a6xfua)" height="112.0234" id="ProposedCombination" style="stroke:#A80036;stroke-width:1.5;" width="223" x="73.5" y="449"/><ellipse cx="115.05" cy="465" fill="#ADD1B2" rx="11" ry="11" style="stroke:#A80036;stroke-width:1.0;"/><path d="M117.3938,460.6719 C116.4563,460.2344 115.8625,460.0938 114.9875,460.0938 C112.3625,460.0938 110.3625,462.1719 110.3625,464.8906 L110.3625,466.0156 C110.3625,468.5938 112.4719,470.4844 115.3625,470.4844 C116.5813,470.4844 117.7375,470.1875 118.4875,469.6406 C119.0656,469.2344 119.3938,468.7813 119.3938,468.3906 C119.3938,467.9375 119.0031,467.5469 118.5344,467.5469 C118.3156,467.5469 118.1125,467.625 117.925,467.8125 C117.4719,468.2969 117.4719,468.2969 117.2844,468.3906 C116.8625,468.6563 116.175,468.7813 115.4094,468.7813 C113.3625,468.7813 112.0656,467.6875 112.0656,465.9844 L112.0656,464.8906 C112.0656,463.1094 113.3156,461.7969 115.05,461.7969 C115.6281,461.7969 116.2375,461.9531 116.7063,462.2031 C117.1906,462.4844 117.3625,462.7031 117.4563,463.1094 C117.5188,463.5156 117.55,463.6406 117.6906,463.7656 C117.8313,463.9063 118.0656,464.0156 118.2844,464.0156 C118.55,464.0156 118.8156,463.875 118.9875,463.6563 C119.0969,463.5 119.1281,463.3125 119.1281,462.8906 L119.1281,461.4688 C119.1281,461.0313 119.1125,460.9063 119.0188,460.75 C118.8625,460.4844 118.5813,460.3438 118.2844,460.3438 C117.9875,460.3438 117.7844,460.4375 117.5656,460.75 L117.3938,460.6719 Z " fill="#000000"/><text fill="#000000" font-family="sans-serif" font-size="12" lengthAdjust="spacing" textLength="132" x="134.95" y="469.1543">ProposedCombination</text><line style="stroke:#A80036;stroke-width:1.5;" x1="74.5" x2="295.5" y1="481" y2="481"/><line style="stroke:#A80036;stroke-width:1.5;" x1="74.5" x2="295.5" y1="489" y2="489"/><polygon fill="#4177AF" points="84.5,496,80.5,502,88.5,502" style="stroke:#1963A0;stroke-width:1.0;"/><text fill="#000000" font-family="sans-serif" font-size="11" lengthAdjust="spacing" textLength="197" x="93.5" y="503.2104">ProposedCombination(List&lt;Color&gt;)</text><polygon fill="#4177AF" points="84.5,508.8047,80.5,514.8047,88.5,514.8047" style="stroke:#1963A0;stroke-width:1.0;"/><text fill="#000000" font-family="sans-serif" font-size="11" lengthAdjust="spacing" textLength="135" x="93.5" y="516.0151">getColors(): List&lt;Color&gt;</text><polygon fill="#4177AF" points="84.5,521.6094,80.5,527.6094,88.5,527.6094" style="stroke:#1963A0;stroke-width:1.0;"/><text fill="#000000" font-family="sans-serif" font-size="11" lengthAdjust="spacing" textLength="86" x="93.5" y="528.8198">getError(): Error</text><polygon fill="#4177AF" points="84.5,534.4141,80.5,540.4141,88.5,540.4141" style="stroke:#1963A0;stroke-width:1.0;"/><text fill="#000000" font-family="sans-serif" font-size="11" lengthAdjust="spacing" textLength="137" x="93.5" y="541.6245">contains(Color): boolean</text><polygon fill="#4177AF" points="84.5,547.2188,80.5,553.2188,88.5,553.2188" style="stroke:#1963A0;stroke-width:1.0;"/><text fill="#000000" font-family="sans-serif" font-size="11" lengthAdjust="spacing" textLength="158" x="93.5" y="554.4292">contains(Color, int): boolean</text><!--MD5=[e370ee5c0c15ce04544d5f5a73174d72]
class SecretCombination--><rect codeLine="26" fill="#FEFECE" filter="url(#f1b4xjo5a6xfua)" height="60.8047" id="SecretCombination" style="stroke:#A80036;stroke-width:1.5;" width="253" x="70.5" y="328"/><ellipse cx="135.75" cy="344" fill="#ADD1B2" rx="11" ry="11" style="stroke:#A80036;stroke-width:1.0;"/><path d="M138.0938,339.6719 C137.1563,339.2344 136.5625,339.0938 135.6875,339.0938 C133.0625,339.0938 131.0625,341.1719 131.0625,343.8906 L131.0625,345.0156 C131.0625,347.5938 133.1719,349.4844 136.0625,349.4844 C137.2813,349.4844 138.4375,349.1875 139.1875,348.6406 C139.7656,348.2344 140.0938,347.7813 140.0938,347.3906 C140.0938,346.9375 139.7031,346.5469 139.2344,346.5469 C139.0156,346.5469 138.8125,346.625 138.625,346.8125 C138.1719,347.2969 138.1719,347.2969 137.9844,347.3906 C137.5625,347.6563 136.875,347.7813 136.1094,347.7813 C134.0625,347.7813 132.7656,346.6875 132.7656,344.9844 L132.7656,343.8906 C132.7656,342.1094 134.0156,340.7969 135.75,340.7969 C136.3281,340.7969 136.9375,340.9531 137.4063,341.2031 C137.8906,341.4844 138.0625,341.7031 138.1563,342.1094 C138.2188,342.5156 138.25,342.6406 138.3906,342.7656 C138.5313,342.9063 138.7656,343.0156 138.9844,343.0156 C139.25,343.0156 139.5156,342.875 139.6875,342.6563 C139.7969,342.5 139.8281,342.3125 139.8281,341.8906 L139.8281,340.4688 C139.8281,340.0313 139.8125,339.9063 139.7188,339.75 C139.5625,339.4844 139.2813,339.3438 138.9844,339.3438 C138.6875,339.3438 138.4844,339.4375 138.2656,339.75 L138.0938,339.6719 Z " fill="#000000"/><text fill="#000000" font-family="sans-serif" font-size="12" lengthAdjust="spacing" textLength="114" x="156.25" y="348.1543">SecretCombination</text><line style="stroke:#A80036;stroke-width:1.5;" x1="71.5" x2="322.5" y1="360" y2="360"/><line style="stroke:#A80036;stroke-width:1.5;" x1="71.5" x2="322.5" y1="368" y2="368"/><polygon fill="#4177AF" points="81.5,375,77.5,381,85.5,381" style="stroke:#1963A0;stroke-width:1.0;"/><text fill="#000000" font-family="sans-serif" font-size="11" lengthAdjust="spacing" textLength="227" x="90.5" y="382.2104">getResult(ProposedCombination): Result</text><!--MD5=[2741598bdf59a7d7e0d5c97658fd3022]
class Result--><rect codeLine="31" fill="#FEFECE" filter="url(#f1b4xjo5a6xfua)" height="99.2188" id="Result" style="stroke:#A80036;stroke-width:1.5;" width="136" x="332" y="455.5"/><ellipse cx="377.75" cy="471.5" fill="#ADD1B2" rx="11" ry="11" style="stroke:#A80036;stroke-width:1.0;"/><path d="M380.0938,467.1719 C379.1563,466.7344 378.5625,466.5938 377.6875,466.5938 C375.0625,466.5938 373.0625,468.6719 373.0625,471.3906 L373.0625,472.5156 C373.0625,475.0938 375.1719,476.9844 378.0625,476.9844 C379.2813,476.9844 380.4375,476.6875 381.1875,476.1406 C381.7656,475.7344 382.0938,475.2813 382.0938,474.8906 C382.0938,474.4375 381.7031,474.0469 381.2344,474.0469 C381.0156,474.0469 380.8125,474.125 380.625,474.3125 C380.1719,474.7969 380.1719,474.7969 379.9844,474.8906 C379.5625,475.1563 378.875,475.2813 378.1094,475.2813 C376.0625,475.2813 374.7656,474.1875 374.7656,472.4844 L374.7656,471.3906 C374.7656,469.6094 376.0156,468.2969 377.75,468.2969 C378.3281,468.2969 378.9375,468.4531 379.4063,468.7031 C379.8906,468.9844 380.0625,469.2031 380.1563,469.6094 C380.2188,470.0156 380.25,470.1406 380.3906,470.2656 C380.5313,470.4063 380.7656,470.5156 380.9844,470.5156 C381.25,470.5156 381.5156,470.375 381.6875,470.1563 C381.7969,470 381.8281,469.8125 381.8281,469.3906 L381.8281,467.9688 C381.8281,467.5313 381.8125,467.4063 381.7188,467.25 C381.5625,466.9844 381.2813,466.8438 380.9844,466.8438 C380.6875,466.8438 380.4844,466.9375 380.2656,467.25 L380.0938,467.1719 Z " fill="#000000"/><text fill="#000000" font-family="sans-serif" font-size="12" lengthAdjust="spacing" textLength="36" x="398.25" y="475.6543">Result</text><line style="stroke:#A80036;stroke-width:1.5;" x1="333" x2="467" y1="487.5" y2="487.5"/><line style="stroke:#A80036;stroke-width:1.5;" x1="333" x2="467" y1="495.5" y2="495.5"/><polygon fill="#4177AF" points="343,502.5,339,508.5,347,508.5" style="stroke:#1963A0;stroke-width:1.0;"/><text fill="#000000" font-family="sans-serif" font-size="11" lengthAdjust="spacing" textLength="78" x="352" y="509.7104">Result(int, int)</text><polygon fill="#4177AF" points="343,515.3047,339,521.3047,347,521.3047" style="stroke:#1963A0;stroke-width:1.0;"/><text fill="#000000" font-family="sans-serif" font-size="11" lengthAdjust="spacing" textLength="84" x="352" y="522.5151">getBlacks(): int</text><polygon fill="#4177AF" points="343,528.1094,339,534.1094,347,534.1094" style="stroke:#1963A0;stroke-width:1.0;"/><text fill="#000000" font-family="sans-serif" font-size="11" lengthAdjust="spacing" textLength="87" x="352" y="535.3198">getWhites(): int</text><polygon fill="#4177AF" points="343,540.9141,339,546.9141,347,546.9141" style="stroke:#1963A0;stroke-width:1.0;"/><text fill="#000000" font-family="sans-serif" font-size="11" lengthAdjust="spacing" textLength="110" x="352" y="548.1245">isWinner(): boolean</text><!--MD5=[18eee71c88ab61f27581b8cbdd3ef5ee]
class Color--><rect codeLine="40" fill="#FEFECE" filter="url(#f1b4xjo5a6xfua)" height="53.9375" id="Color" style="stroke:#A80036;stroke-width:1.5;" width="69" x="503.5" y="331.5"/><ellipse cx="518.5" cy="350.4688" fill="#EB937F" rx="11" ry="11" style="stroke:#A80036;stroke-width:1.0;"/><path d="M517.2969,351.3438 L518.75,351.3438 L518.75,351.4531 C518.75,351.8594 518.7813,352.0156 518.8594,352.1719 C519.0156,352.4219 519.2969,352.5781 519.5938,352.5781 C519.8438,352.5781 520.1094,352.4375 520.2656,352.2188 C520.3906,352.0625 520.4219,351.9063 520.4219,351.4531 L520.4219,349.5313 C520.4219,349.375 520.4219,349.3281 520.4063,349.1719 C520.3438,348.7031 520.0313,348.3906 519.5781,348.3906 C519.3281,348.3906 519.0625,348.5313 518.8906,348.75 C518.7813,348.9219 518.75,349.0781 518.75,349.5313 L518.75,349.6563 L517.2969,349.6563 L517.2969,347.25 L521.2813,347.25 L521.2813,348.1094 C521.2813,348.5156 521.3125,348.6875 521.3906,348.8438 C521.5625,349.0938 521.8438,349.25 522.125,349.25 C522.3906,349.25 522.6563,349.1094 522.8281,348.8906 C522.9375,348.7188 522.9688,348.5781 522.9688,348.1094 L522.9688,345.5625 L515.3438,345.5625 C514.9063,345.5625 514.7813,345.5781 514.625,345.6719 C514.375,345.8281 514.2188,346.125 514.2188,346.4063 C514.2188,346.6875 514.3594,346.9375 514.5781,347.1094 C514.7344,347.2188 514.9219,347.25 515.3438,347.25 L515.5938,347.25 L515.5938,353.7656 L515.3438,353.7656 C514.9375,353.7656 514.7813,353.7813 514.625,353.8906 C514.375,354.0625 514.2188,354.3281 514.2188,354.625 C514.2188,354.8906 514.3594,355.1406 514.5781,355.2969 C514.7188,355.4219 514.9531,355.4688 515.3438,355.4688 L523.3438,355.4688 L523.3438,352.8906 C523.3438,352.4531 523.3125,352.3125 523.2344,352.1563 C523.0625,351.9063 522.7813,351.75 522.5,351.75 C522.2344,351.75 521.9688,351.8594 521.7969,352.1094 C521.6875,352.2656 521.6563,352.4063 521.6563,352.8906 L521.6563,353.7656 L517.2969,353.7656 L517.2969,351.3438 Z " fill="#000000"/><text fill="#000000" font-family="sans-serif" font-size="12" lengthAdjust="spacing" textLength="37" x="532.5" y="347.6387">types.</text><text fill="#000000" font-family="sans-serif" font-size="12" lengthAdjust="spacing" textLength="32" x="535" y="361.6074">Color</text><line style="stroke:#A80036;stroke-width:1.5;" x1="504.5" x2="571.5" y1="369.4375" y2="369.4375"/><line style="stroke:#A80036;stroke-width:1.5;" x1="504.5" x2="571.5" y1="377.4375" y2="377.4375"/><!--MD5=[b8cfd8c4119a3b0a7a46bfc5fc780f85]
class Error--><rect codeLine="41" fill="#FEFECE" filter="url(#f1b4xjo5a6xfua)" height="53.9375" id="Error" style="stroke:#A80036;stroke-width:1.5;" width="69" x="370.5" y="621"/><ellipse cx="385.5" cy="639.9688" fill="#EB937F" rx="11" ry="11" style="stroke:#A80036;stroke-width:1.0;"/><path d="M384.2969,640.8438 L385.75,640.8438 L385.75,640.9531 C385.75,641.3594 385.7813,641.5156 385.8594,641.6719 C386.0156,641.9219 386.2969,642.0781 386.5938,642.0781 C386.8438,642.0781 387.1094,641.9375 387.2656,641.7188 C387.3906,641.5625 387.4219,641.4063 387.4219,640.9531 L387.4219,639.0313 C387.4219,638.875 387.4219,638.8281 387.4063,638.6719 C387.3438,638.2031 387.0313,637.8906 386.5781,637.8906 C386.3281,637.8906 386.0625,638.0313 385.8906,638.25 C385.7813,638.4219 385.75,638.5781 385.75,639.0313 L385.75,639.1563 L384.2969,639.1563 L384.2969,636.75 L388.2813,636.75 L388.2813,637.6094 C388.2813,638.0156 388.3125,638.1875 388.3906,638.3438 C388.5625,638.5938 388.8438,638.75 389.125,638.75 C389.3906,638.75 389.6563,638.6094 389.8281,638.3906 C389.9375,638.2188 389.9688,638.0781 389.9688,637.6094 L389.9688,635.0625 L382.3438,635.0625 C381.9063,635.0625 381.7813,635.0781 381.625,635.1719 C381.375,635.3281 381.2188,635.625 381.2188,635.9063 C381.2188,636.1875 381.3594,636.4375 381.5781,636.6094 C381.7344,636.7188 381.9219,636.75 382.3438,636.75 L382.5938,636.75 L382.5938,643.2656 L382.3438,643.2656 C381.9375,643.2656 381.7813,643.2813 381.625,643.3906 C381.375,643.5625 381.2188,643.8281 381.2188,644.125 C381.2188,644.3906 381.3594,644.6406 381.5781,644.7969 C381.7188,644.9219 381.9531,644.9688 382.3438,644.9688 L390.3438,644.9688 L390.3438,642.3906 C390.3438,641.9531 390.3125,641.8125 390.2344,641.6563 C390.0625,641.4063 389.7813,641.25 389.5,641.25 C389.2344,641.25 388.9688,641.3594 388.7969,641.6094 C388.6875,641.7656 388.6563,641.9063 388.6563,642.3906 L388.6563,643.2656 L384.2969,643.2656 L384.2969,640.8438 Z " fill="#000000"/><text fill="#000000" font-family="sans-serif" font-size="12" lengthAdjust="spacing" textLength="37" x="399.5" y="637.1387">types.</text><text fill="#000000" font-family="sans-serif" font-size="12" lengthAdjust="spacing" textLength="30" x="403" y="651.1074">Error</text><line style="stroke:#A80036;stroke-width:1.5;" x1="371.5" x2="438.5" y1="658.9375" y2="658.9375"/><line style="stroke:#A80036;stroke-width:1.5;" x1="371.5" x2="438.5" y1="666.9375" y2="666.9375"/><!--MD5=[2f10888865b2f559cc24db01ac34cee3]
reverse link Combination to ProposedCombination--><path codeLine="29" d="M66.1627,197.125 C47.2067,245.425 24.528,326.433 53,389 C63.4488,411.961 80.9978,432.122 99.9446,448.885 " fill="none" id="Combination-backto-ProposedCombination" style="stroke:#A80036;stroke-width:1.0;"/><polygon fill="none" points="59.7394,194.341,73.8988,178.577,72.6606,199.731,59.7394,194.341" style="stroke:#A80036;stroke-width:1.0;"/><!--MD5=[ed81d3472c9069d2de3c2f5cd308846f]
reverse link Combination to SecretCombination--><path codeLine="30" d="M107.648,196.348 C129.237,235.285 161.229,292.985 180.502,327.745 " fill="none" id="Combination-backto-SecretCombination" style="stroke:#A80036;stroke-width:1.0;"/><polygon fill="none" points="101.424,199.558,97.8478,178.672,113.668,192.769,101.424,199.558" style="stroke:#A80036;stroke-width:1.0;"/><!--MD5=[e8e56f95b2bfb8e03c3cdf9f0e0c50ee]
link Board to Color--><path codeLine="43" d="M442.316,268.018 C465.911,290.084 488.712,311.407 506.134,327.699 " fill="none" id="Board-to-Color" style="stroke:#A80036;stroke-width:1.0;stroke-dasharray:7.0,7.0;"/><polygon fill="#A80036" points="509.993,331.308,506.153,322.2386,506.3416,327.8923,500.6879,328.0809,509.993,331.308" style="stroke:#A80036;stroke-width:1.0;"/><!--MD5=[7f34f2d425e9b3ee5350efe269b05f59]
link Board to Error--><path codeLine="44" d="M471.157,216.3 C517.74,243.219 563.764,279.912 590,328 C639.991,419.628 516.464,549.026 486,585 C474.073,599.0844 458.432,611.9767 444.079,622.3132 " fill="none" id="Board-to-Error" style="stroke:#A80036;stroke-width:1.0;stroke-dasharray:7.0,7.0;"/><polygon fill="#A80036" points="439.671,625.4375,449.3267,623.4964,443.7502,622.5461,444.7005,616.9697,439.671,625.4375" style="stroke:#A80036;stroke-width:1.0;"/><!--MD5=[6e8433e42d71f9427401b78cd95c6f0c]
link Combination to Color--><path codeLine="45" d="M97.3566,189.6438 C97.3566,189.6438 127.649,249.428 155,268 C279.052,352.232 346.227,276.358 487,328 C488.454,328.533 489.914,329.107 491.375,329.714 " fill="none" id="Combination-Color" style="stroke:#A80036;stroke-width:1.0;"/><polygon fill="#A80036" points="503.382,335.376,496.9485,327.9188,498.8598,333.2429,493.5356,335.1542,503.382,335.376" style="stroke:#A80036;stroke-width:1.0;"/><line style="stroke:#A80036;stroke-width:1.0;" x1="498.8598" x2="491.624" y1="333.2429" y2="329.831"/><polygon fill="#A80036" points="92.794,178.545,91.3757,185.6152,97.3566,189.6438,98.7749,182.5735,92.794,178.545" style="stroke:#A80036;stroke-width:1.0;"/><!--MD5=[03e1adeaed11e2ac298b9b43cd912fbb]
link ProposedCombination to Error--><path codeLine="46" d="M271.003,561.12 C303.813,582.1484 339.618,605.0958 365.955,621.9757 " fill="none" id="ProposedCombination-to-Error" style="stroke:#A80036;stroke-width:1.0;stroke-dasharray:7.0,7.0;"/><polygon fill="#A80036" points="370.428,624.8428,365.0099,616.6182,366.2187,622.1444,360.6925,623.3531,370.428,624.8428" style="stroke:#A80036;stroke-width:1.0;"/><!--MD5=[e0b5d9907fda64872c10fd6493e0c51f]
link Board to ProposedCombination--><path codeLine="48" d="M356.2391,279.9342 C356.2391,279.9342 357.537,356.264 341,389 C331.044,408.708 315.942,425.868 298.987,440.492 " fill="none" id="Board-ProposedCombination" style="stroke:#A80036;stroke-width:1.0;"/><polygon fill="#A80036" points="288.814,448.81,298.3135,446.21,292.6849,445.6452,293.2497,440.0166,288.814,448.81" style="stroke:#A80036;stroke-width:1.0;"/><line style="stroke:#A80036;stroke-width:1.0;" x1="292.6849" x2="298.878" y1="445.6452" y2="440.5805"/><polygon fill="#A80036" points="354.79,268.022,351.5438,274.4611,356.2391,279.9342,359.4853,273.495,354.79,268.022" style="stroke:#A80036;stroke-width:1.0;"/><!--MD5=[5e915b8ab835b2366405aaf6901e131b]
link Board to SecretCombination--><path codeLine="49" d="M246.0579,278.2219 C246.0579,278.2219 229.269,305.353 222.286,316.637 " fill="none" id="Board-SecretCombination" style="stroke:#A80036;stroke-width:1.0;"/><polygon fill="#A80036" points="215.389,327.784,223.5266,322.2361,218.0203,323.5324,216.724,318.026,215.389,327.784" style="stroke:#A80036;stroke-width:1.0;"/><line style="stroke:#A80036;stroke-width:1.0;" x1="218.0203" x2="222.229" y1="323.5324" y2="316.7295"/><polygon fill="#A80036" points="252.373,268.018,245.8141,271.0149,246.0579,278.2219,252.6167,275.225,252.373,268.018" style="stroke:#A80036;stroke-width:1.0;"/><!--MD5=[8dd95aff79c51151a18c835e3410b3cd]
link Board to Result--><path codeLine="50" d="M357.3576,279.9461 C357.3576,279.9461 365.577,312.703 369,328 C377.435,365.688 384.996,408.336 390.539,442.211 " fill="none" id="Board-Result" style="stroke:#A80036;stroke-width:1.0;"/><polygon fill="#A80036" points="392.637,455.205,395.1519,445.6826,391.8403,450.2689,387.2541,446.9573,392.637,455.205" style="stroke:#A80036;stroke-width:1.0;"/><line style="stroke:#A80036;stroke-width:1.0;" x1="391.8403" x2="390.565" y1="450.2689" y2="442.371"/><polygon fill="#A80036" points="354.335,268.333,351.9753,275.1471,357.3576,279.9461,359.7173,273.132,354.335,268.333" style="stroke:#A80036;stroke-width:1.0;"/><!--MD5=[f874647c3c9f57491b6e7b7bf233051a]
link SecretCombination to Result--><path codeLine="51" d="M238.57,389.09 C264.109,407.27 297.535,431.063 327.342,452.28 " fill="none" id="SecretCombination-to-Result" style="stroke:#A80036;stroke-width:1.0;stroke-dasharray:7.0,7.0;"/><polygon fill="#A80036" points="331.712,455.391,326.7007,446.9124,327.639,452.4909,322.0605,453.4292,331.712,455.391" style="stroke:#A80036;stroke-width:1.0;"/><!--MD5=[324ce3fbc91b6fad145775bb65621994]
link SecretCombination to ProposedCombination--><path codeLine="52" d="M194.543,389.09 C193.239,404.789 191.588,424.674 190.027,443.471 " fill="none" id="SecretCombination-to-ProposedCombination" style="stroke:#A80036;stroke-width:1.0;stroke-dasharray:7.0,7.0;"/><polygon fill="#A80036" points="189.589,448.739,194.3185,440.1,190.0019,443.7561,186.3458,439.4394,189.589,448.739" style="stroke:#A80036;stroke-width:1.0;"/><!--MD5=[ff11fe7d553226e4a2b6aa839136dd0f]
@startuml
package models {
    class Board {
        + reset()
        + add(List<Color>)
        + getError(List<Color>): Error
        + isFinished(): boolean
        + isWinner(): boolean
        - isLoser(): boolean
        + getAttempts(): int
        + getProposedCombinationColors(int): List<Color>
        + getBlacks(int): int
        + getWhites(int): int
        + undoable(): boolean
        + redoable(): boolean
        + undo()
        + redo()
    }
    class Combination
    class ProposedCombination {
        ~ ProposedCombination(List<Color>)
        ~ getColors(): List<Color>
        ~ getError(): Error
        ~ contains(Color): boolean
        ~ contains(Color, int): boolean
    }
    class SecretCombination {
        ~ getResult(ProposedCombination): Result
    }
    Combination <|- - ProposedCombination
    Combination <|- - SecretCombination
    class Result {
        ~ Result(int, int)
        ~ getBlacks(): int
        ~ getWhites(): int
        ~ isWinner(): boolean
    }
}


enum "types.\nColor" as Color
enum "types.\nError" as Error

Board .down.> Color
Board .down.> Error
Combination *-down-> Color
ProposedCombination .down.> Error

Board *-down-> ProposedCombination
Board *-down-> SecretCombination
Board *-down-> Result
SecretCombination .down.> Result
SecretCombination .down.> ProposedCombination
@enduml

PlantUML version 1.2021.4beta3(Unknown compile time)
(GPL source distribution)
Java Runtime: Java(TM) SE Runtime Environment
JVM: Java HotSpot(TM) 64-Bit Server VM
Default Encoding: UTF-8
Language: en
Country: US
--></g></svg>