<?xml version="1.0" encoding="UTF-8" standalone="no"?><svg xmlns="http://www.w3.org/2000/svg" xmlns:xlink="http://www.w3.org/1999/xlink" contentScriptType="application/ecmascript" contentStyleType="text/css" height="585px" preserveAspectRatio="none" style="width:1670px;height:585px;" version="1.1" viewBox="0 0 1670 585" width="1670px" zoomAndPan="magnify"><defs><filter height="300%" id="fnvbpkcfdlzrv" width="300%" x="-1" y="-1"><feGaussianBlur result="blurOut" stdDeviation="2.0"/><feColorMatrix in="blurOut" result="blurOut2" type="matrix" values="0 0 0 0 0 0 0 0 0 0 0 0 0 0 0 0 0 0 .4 0"/><feOffset dx="4.0" dy="4.0" in="blurOut2" result="blurOut3"/><feBlend in="SourceGraphic" in2="blurOut3" mode="normal"/></filter></defs><g><!--MD5=[f4e70ef68289585296b9045165e58692]
cluster controllers--><polygon fill="#FFFFFF" filter="url(#fnvbpkcfdlzrv)" points="16,6,111,6,118,28.2969,1557,28.2969,1557,474,16,474,16,6" style="stroke:#000000;stroke-width:1.5;"/><line style="stroke:#000000;stroke-width:1.5;" x1="16" x2="118" y1="28.2969" y2="28.2969"/><text fill="#000000" font-family="sans-serif" font-size="14" font-weight="bold" lengthAdjust="spacing" textLength="89" x="20" y="20.9951">controllers</text><!--MD5=[1d7ba1c7002d54515419844fbd155368]
class Controller--><rect codeLine="2" fill="#FEFECE" filter="url(#fnvbpkcfdlzrv)" height="48" id="Controller" style="stroke:#A80036;stroke-width:1.5;" width="90" x="829" y="41"/><ellipse cx="844" cy="57" fill="#A9DCDF" rx="11" ry="11" style="stroke:#A80036;stroke-width:1.0;"/><path d="M846.0781,58.8125 L846.4688,59.7969 L846.0781,59.7969 C845.625,59.7969 845.5156,59.8125 845.3594,59.9219 C845.1094,60.0781 844.9531,60.3594 844.9531,60.6563 C844.9531,60.9219 845.0938,61.1719 845.3125,61.3281 C845.4531,61.4531 845.6563,61.5 846.0781,61.5 L848.4375,61.5 C848.7969,61.5 849.0156,61.4688 849.1563,61.375 C849.4063,61.2344 849.5625,60.9375 849.5625,60.6563 C849.5625,60.375 849.4219,60.125 849.2031,59.9688 C849.0313,59.8281 848.875,59.7969 848.4063,59.7969 L845.0156,51.5938 L841.3438,51.5938 C840.8906,51.5938 840.7656,51.6094 840.6094,51.7031 C840.3594,51.875 840.2031,52.1563 840.2031,52.4375 C840.2031,52.7188 840.3438,52.9688 840.5625,53.1406 C840.7344,53.25 840.9063,53.2813 841.3438,53.2813 L842.4219,53.2813 L839.7813,59.7969 C839.3594,59.7969 839.2031,59.8125 839.0469,59.9219 C838.7969,60.0781 838.6406,60.3594 838.6406,60.6563 C838.6406,61.2188 839.0156,61.5 839.7656,61.5 L842.0313,61.5 C842.3906,61.5 842.6094,61.4688 842.7344,61.375 C843,61.2344 843.1406,60.9375 843.1406,60.6563 C843.1406,60.375 843.0156,60.125 842.7969,59.9531 C842.625,59.8281 842.4844,59.7969 842.0313,59.7969 L841.6406,59.7969 L842.0313,58.8125 L846.0781,58.8125 Z M845.375,57.1094 L842.7031,57.1094 L844.0469,53.8438 L845.375,57.1094 Z " fill="#000000"/><text fill="#000000" font-family="sans-serif" font-size="12" font-style="italic" lengthAdjust="spacing" textLength="58" x="858" y="61.1543">Controller</text><line style="stroke:#A80036;stroke-width:1.5;" x1="830" x2="918" y1="73" y2="73"/><line style="stroke:#A80036;stroke-width:1.5;" x1="830" x2="918" y1="81" y2="81"/><!--MD5=[47c371471411cfedeee61b1a5bdaee47]
class StartController--><rect codeLine="3" fill="#FEFECE" filter="url(#fnvbpkcfdlzrv)" height="99.2188" id="StartController" style="stroke:#A80036;stroke-width:1.5;" width="298" x="910" y="174.5"/><ellipse cx="1011.25" cy="190.5" fill="#ADD1B2" rx="11" ry="11" style="stroke:#A80036;stroke-width:1.0;"/><path d="M1013.5938,186.1719 C1012.6563,185.7344 1012.0625,185.5938 1011.1875,185.5938 C1008.5625,185.5938 1006.5625,187.6719 1006.5625,190.3906 L1006.5625,191.5156 C1006.5625,194.0938 1008.6719,195.9844 1011.5625,195.9844 C1012.7813,195.9844 1013.9375,195.6875 1014.6875,195.1406 C1015.2656,194.7344 1015.5938,194.2813 1015.5938,193.8906 C1015.5938,193.4375 1015.2031,193.0469 1014.7344,193.0469 C1014.5156,193.0469 1014.3125,193.125 1014.125,193.3125 C1013.6719,193.7969 1013.6719,193.7969 1013.4844,193.8906 C1013.0625,194.1563 1012.375,194.2813 1011.6094,194.2813 C1009.5625,194.2813 1008.2656,193.1875 1008.2656,191.4844 L1008.2656,190.3906 C1008.2656,188.6094 1009.5156,187.2969 1011.25,187.2969 C1011.8281,187.2969 1012.4375,187.4531 1012.9063,187.7031 C1013.3906,187.9844 1013.5625,188.2031 1013.6563,188.6094 C1013.7188,189.0156 1013.75,189.1406 1013.8906,189.2656 C1014.0313,189.4063 1014.2656,189.5156 1014.4844,189.5156 C1014.75,189.5156 1015.0156,189.375 1015.1875,189.1563 C1015.2969,189 1015.3281,188.8125 1015.3281,188.3906 L1015.3281,186.9688 C1015.3281,186.5313 1015.3125,186.4063 1015.2188,186.25 C1015.0625,185.9844 1014.7813,185.8438 1014.4844,185.8438 C1014.1875,185.8438 1013.9844,185.9375 1013.7656,186.25 L1013.5938,186.1719 Z " fill="#000000"/><text fill="#000000" font-family="sans-serif" font-size="12" lengthAdjust="spacing" textLength="87" x="1031.75" y="194.6543">StartController</text><line style="stroke:#A80036;stroke-width:1.5;" x1="911" x2="1207" y1="206.5" y2="206.5"/><line style="stroke:#A80036;stroke-width:1.5;" x1="911" x2="1207" y1="214.5" y2="214.5"/><ellipse cx="921" cy="225.5" fill="#84BE84" rx="3" ry="3" style="stroke:#038048;stroke-width:1.0;"/><text fill="#000000" font-family="sans-serif" font-size="11" lengthAdjust="spacing" textLength="100" x="930" y="228.7104">getAttempts(): int</text><ellipse cx="921" cy="238.3047" fill="#84BE84" rx="3" ry="3" style="stroke:#038048;stroke-width:1.0;"/><text fill="#000000" font-family="sans-serif" font-size="11" lengthAdjust="spacing" textLength="272" x="930" y="241.5151">getProposedCombinationColors(int): List&lt;Color&gt;</text><ellipse cx="921" cy="251.1094" fill="#84BE84" rx="3" ry="3" style="stroke:#038048;stroke-width:1.0;"/><text fill="#000000" font-family="sans-serif" font-size="11" lengthAdjust="spacing" textLength="98" x="930" y="254.3198">getBlacks(int): int</text><ellipse cx="921" cy="263.9141" fill="#84BE84" rx="3" ry="3" style="stroke:#038048;stroke-width:1.0;"/><text fill="#000000" font-family="sans-serif" font-size="11" lengthAdjust="spacing" textLength="101" x="930" y="267.1245">getWhites(int): int</text><!--MD5=[0b95e4ee8b160a2b3b0650a9b235c496]
class ProposeController--><rect codeLine="9" fill="#FEFECE" filter="url(#fnvbpkcfdlzrv)" height="150.4375" id="ProposeController" style="stroke:#A80036;stroke-width:1.5;" width="298" x="1243" y="149"/><ellipse cx="1333.25" cy="165" fill="#ADD1B2" rx="11" ry="11" style="stroke:#A80036;stroke-width:1.0;"/><path d="M1335.5938,160.6719 C1334.6563,160.2344 1334.0625,160.0938 1333.1875,160.0938 C1330.5625,160.0938 1328.5625,162.1719 1328.5625,164.8906 L1328.5625,166.0156 C1328.5625,168.5938 1330.6719,170.4844 1333.5625,170.4844 C1334.7813,170.4844 1335.9375,170.1875 1336.6875,169.6406 C1337.2656,169.2344 1337.5938,168.7813 1337.5938,168.3906 C1337.5938,167.9375 1337.2031,167.5469 1336.7344,167.5469 C1336.5156,167.5469 1336.3125,167.625 1336.125,167.8125 C1335.6719,168.2969 1335.6719,168.2969 1335.4844,168.3906 C1335.0625,168.6563 1334.375,168.7813 1333.6094,168.7813 C1331.5625,168.7813 1330.2656,167.6875 1330.2656,165.9844 L1330.2656,164.8906 C1330.2656,163.1094 1331.5156,161.7969 1333.25,161.7969 C1333.8281,161.7969 1334.4375,161.9531 1334.9063,162.2031 C1335.3906,162.4844 1335.5625,162.7031 1335.6563,163.1094 C1335.7188,163.5156 1335.75,163.6406 1335.8906,163.7656 C1336.0313,163.9063 1336.2656,164.0156 1336.4844,164.0156 C1336.75,164.0156 1337.0156,163.875 1337.1875,163.6563 C1337.2969,163.5 1337.3281,163.3125 1337.3281,162.8906 L1337.3281,161.4688 C1337.3281,161.0313 1337.3125,160.9063 1337.2188,160.75 C1337.0625,160.4844 1336.7813,160.3438 1336.4844,160.3438 C1336.1875,160.3438 1335.9844,160.4375 1335.7656,160.75 L1335.5938,160.6719 Z " fill="#000000"/><text fill="#000000" font-family="sans-serif" font-size="12" lengthAdjust="spacing" textLength="109" x="1353.75" y="169.1543">ProposeController</text><line style="stroke:#A80036;stroke-width:1.5;" x1="1244" x2="1540" y1="181" y2="181"/><line style="stroke:#A80036;stroke-width:1.5;" x1="1244" x2="1540" y1="189" y2="189"/><ellipse cx="1254" cy="200" fill="#84BE84" rx="3" ry="3" style="stroke:#038048;stroke-width:1.0;"/><text fill="#000000" font-family="sans-serif" font-size="11" lengthAdjust="spacing" textLength="152" x="1263" y="203.2104">getError(List&lt;Color&gt;): Error</text><ellipse cx="1254" cy="212.8047" fill="#84BE84" rx="3" ry="3" style="stroke:#038048;stroke-width:1.0;"/><text fill="#000000" font-family="sans-serif" font-size="11" lengthAdjust="spacing" textLength="95" x="1263" y="216.0151">add(List&lt;Color&gt;)</text><ellipse cx="1254" cy="225.6094" fill="#84BE84" rx="3" ry="3" style="stroke:#038048;stroke-width:1.0;"/><text fill="#000000" font-family="sans-serif" font-size="11" lengthAdjust="spacing" textLength="117" x="1263" y="228.8198">isFinished(): boolean</text><ellipse cx="1254" cy="238.4141" fill="#84BE84" rx="3" ry="3" style="stroke:#038048;stroke-width:1.0;"/><text fill="#000000" font-family="sans-serif" font-size="11" lengthAdjust="spacing" textLength="110" x="1263" y="241.6245">isWinner(): boolean</text><ellipse cx="1254" cy="251.2188" fill="#84BE84" rx="3" ry="3" style="stroke:#038048;stroke-width:1.0;"/><text fill="#000000" font-family="sans-serif" font-size="11" lengthAdjust="spacing" textLength="100" x="1263" y="254.4292">getAttempts(): int</text><ellipse cx="1254" cy="264.0234" fill="#84BE84" rx="3" ry="3" style="stroke:#038048;stroke-width:1.0;"/><text fill="#000000" font-family="sans-serif" font-size="11" lengthAdjust="spacing" textLength="272" x="1263" y="267.2339">getProposedCombinationColors(int): List&lt;Color&gt;</text><ellipse cx="1254" cy="276.8281" fill="#84BE84" rx="3" ry="3" style="stroke:#038048;stroke-width:1.0;"/><text fill="#000000" font-family="sans-serif" font-size="11" lengthAdjust="spacing" textLength="98" x="1263" y="280.0386">getBlacks(int): int</text><ellipse cx="1254" cy="289.6328" fill="#84BE84" rx="3" ry="3" style="stroke:#038048;stroke-width:1.0;"/><text fill="#000000" font-family="sans-serif" font-size="11" lengthAdjust="spacing" textLength="101" x="1263" y="292.8433">getWhites(int): int</text><!--MD5=[1a47bbf44ccee225df9b18c5b6629853]
class ResumeController--><rect codeLine="19" fill="#FEFECE" filter="url(#fnvbpkcfdlzrv)" height="60.8047" id="ResumeController" style="stroke:#A80036;stroke-width:1.5;" width="139" x="32.5" y="193.5"/><ellipse cx="47.5" cy="209.5" fill="#ADD1B2" rx="11" ry="11" style="stroke:#A80036;stroke-width:1.0;"/><path d="M49.8438,205.1719 C48.9063,204.7344 48.3125,204.5938 47.4375,204.5938 C44.8125,204.5938 42.8125,206.6719 42.8125,209.3906 L42.8125,210.5156 C42.8125,213.0938 44.9219,214.9844 47.8125,214.9844 C49.0313,214.9844 50.1875,214.6875 50.9375,214.1406 C51.5156,213.7344 51.8438,213.2813 51.8438,212.8906 C51.8438,212.4375 51.4531,212.0469 50.9844,212.0469 C50.7656,212.0469 50.5625,212.125 50.375,212.3125 C49.9219,212.7969 49.9219,212.7969 49.7344,212.8906 C49.3125,213.1563 48.625,213.2813 47.8594,213.2813 C45.8125,213.2813 44.5156,212.1875 44.5156,210.4844 L44.5156,209.3906 C44.5156,207.6094 45.7656,206.2969 47.5,206.2969 C48.0781,206.2969 48.6875,206.4531 49.1563,206.7031 C49.6406,206.9844 49.8125,207.2031 49.9063,207.6094 C49.9688,208.0156 50,208.1406 50.1406,208.2656 C50.2813,208.4063 50.5156,208.5156 50.7344,208.5156 C51,208.5156 51.2656,208.375 51.4375,208.1563 C51.5469,208 51.5781,207.8125 51.5781,207.3906 L51.5781,205.9688 C51.5781,205.5313 51.5625,205.4063 51.4688,205.25 C51.3125,204.9844 51.0313,204.8438 50.7344,204.8438 C50.4375,204.8438 50.2344,204.9375 50.0156,205.25 L49.8438,205.1719 Z " fill="#000000"/><text fill="#000000" font-family="sans-serif" font-size="12" lengthAdjust="spacing" textLength="107" x="61.5" y="213.6543">ResumeController</text><line style="stroke:#A80036;stroke-width:1.5;" x1="33.5" x2="170.5" y1="225.5" y2="225.5"/><line style="stroke:#A80036;stroke-width:1.5;" x1="33.5" x2="170.5" y1="233.5" y2="233.5"/><ellipse cx="43.5" cy="244.5" fill="#84BE84" rx="3" ry="3" style="stroke:#038048;stroke-width:1.0;"/><text fill="#000000" font-family="sans-serif" font-size="11" lengthAdjust="spacing" textLength="38" x="52.5" y="247.7104">reset()</text><!--MD5=[ad55c02b6d743eec4828d3c9f4ddad4a]
class ShowBoardController--><rect codeLine="22" fill="#FEFECE" filter="url(#fnvbpkcfdlzrv)" height="99.2188" id="ShowBoardController" style="stroke:#A80036;stroke-width:1.5;" width="298" x="725" y="359"/><ellipse cx="805.75" cy="375" fill="#ADD1B2" rx="11" ry="11" style="stroke:#A80036;stroke-width:1.0;"/><path d="M808.0938,370.6719 C807.1563,370.2344 806.5625,370.0938 805.6875,370.0938 C803.0625,370.0938 801.0625,372.1719 801.0625,374.8906 L801.0625,376.0156 C801.0625,378.5938 803.1719,380.4844 806.0625,380.4844 C807.2813,380.4844 808.4375,380.1875 809.1875,379.6406 C809.7656,379.2344 810.0938,378.7813 810.0938,378.3906 C810.0938,377.9375 809.7031,377.5469 809.2344,377.5469 C809.0156,377.5469 808.8125,377.625 808.625,377.8125 C808.1719,378.2969 808.1719,378.2969 807.9844,378.3906 C807.5625,378.6563 806.875,378.7813 806.1094,378.7813 C804.0625,378.7813 802.7656,377.6875 802.7656,375.9844 L802.7656,374.8906 C802.7656,373.1094 804.0156,371.7969 805.75,371.7969 C806.3281,371.7969 806.9375,371.9531 807.4063,372.2031 C807.8906,372.4844 808.0625,372.7031 808.1563,373.1094 C808.2188,373.5156 808.25,373.6406 808.3906,373.7656 C808.5313,373.9063 808.7656,374.0156 808.9844,374.0156 C809.25,374.0156 809.5156,373.875 809.6875,373.6563 C809.7969,373.5 809.8281,373.3125 809.8281,372.8906 L809.8281,371.4688 C809.8281,371.0313 809.8125,370.9063 809.7188,370.75 C809.5625,370.4844 809.2813,370.3438 808.9844,370.3438 C808.6875,370.3438 808.4844,370.4375 808.2656,370.75 L808.0938,370.6719 Z " fill="#000000"/><text fill="#000000" font-family="sans-serif" font-size="12" lengthAdjust="spacing" textLength="128" x="826.25" y="379.1543">ShowBoardController</text><line style="stroke:#A80036;stroke-width:1.5;" x1="726" x2="1022" y1="391" y2="391"/><line style="stroke:#A80036;stroke-width:1.5;" x1="726" x2="1022" y1="399" y2="399"/><polygon fill="#4177AF" points="736,406,732,412,740,412" style="stroke:#1963A0;stroke-width:1.0;"/><text fill="#000000" font-family="sans-serif" font-size="11" lengthAdjust="spacing" textLength="100" x="745" y="413.2104">getAttempts(): int</text><polygon fill="#4177AF" points="736,418.8047,732,424.8047,740,424.8047" style="stroke:#1963A0;stroke-width:1.0;"/><text fill="#000000" font-family="sans-serif" font-size="11" lengthAdjust="spacing" textLength="272" x="745" y="426.0151">getProposedCombinationColors(int): List&lt;Color&gt;</text><polygon fill="#4177AF" points="736,431.6094,732,437.6094,740,437.6094" style="stroke:#1963A0;stroke-width:1.0;"/><text fill="#000000" font-family="sans-serif" font-size="11" lengthAdjust="spacing" textLength="98" x="745" y="438.8198">getBlacks(int): int</text><polygon fill="#4177AF" points="736,444.4141,732,450.4141,740,450.4141" style="stroke:#1963A0;stroke-width:1.0;"/><text fill="#000000" font-family="sans-serif" font-size="11" lengthAdjust="spacing" textLength="101" x="745" y="451.6245">getWhites(int): int</text><!--MD5=[aab9612c5d46aa221e996c7d0ed5d7ab]
class UndoController--><rect codeLine="28" fill="#FEFECE" filter="url(#fnvbpkcfdlzrv)" height="124.8281" id="UndoController" style="stroke:#A80036;stroke-width:1.5;" width="298" x="207" y="161.5"/><ellipse cx="306.25" cy="177.5" fill="#ADD1B2" rx="11" ry="11" style="stroke:#A80036;stroke-width:1.0;"/><path d="M308.5938,173.1719 C307.6563,172.7344 307.0625,172.5938 306.1875,172.5938 C303.5625,172.5938 301.5625,174.6719 301.5625,177.3906 L301.5625,178.5156 C301.5625,181.0938 303.6719,182.9844 306.5625,182.9844 C307.7813,182.9844 308.9375,182.6875 309.6875,182.1406 C310.2656,181.7344 310.5938,181.2813 310.5938,180.8906 C310.5938,180.4375 310.2031,180.0469 309.7344,180.0469 C309.5156,180.0469 309.3125,180.125 309.125,180.3125 C308.6719,180.7969 308.6719,180.7969 308.4844,180.8906 C308.0625,181.1563 307.375,181.2813 306.6094,181.2813 C304.5625,181.2813 303.2656,180.1875 303.2656,178.4844 L303.2656,177.3906 C303.2656,175.6094 304.5156,174.2969 306.25,174.2969 C306.8281,174.2969 307.4375,174.4531 307.9063,174.7031 C308.3906,174.9844 308.5625,175.2031 308.6563,175.6094 C308.7188,176.0156 308.75,176.1406 308.8906,176.2656 C309.0313,176.4063 309.2656,176.5156 309.4844,176.5156 C309.75,176.5156 310.0156,176.375 310.1875,176.1563 C310.2969,176 310.3281,175.8125 310.3281,175.3906 L310.3281,173.9688 C310.3281,173.5313 310.3125,173.4063 310.2188,173.25 C310.0625,172.9844 309.7813,172.8438 309.4844,172.8438 C309.1875,172.8438 308.9844,172.9375 308.7656,173.25 L308.5938,173.1719 Z " fill="#000000"/><text fill="#000000" font-family="sans-serif" font-size="12" lengthAdjust="spacing" textLength="91" x="326.75" y="181.6543">UndoController</text><line style="stroke:#A80036;stroke-width:1.5;" x1="208" x2="504" y1="193.5" y2="193.5"/><line style="stroke:#A80036;stroke-width:1.5;" x1="208" x2="504" y1="201.5" y2="201.5"/><ellipse cx="218" cy="212.5" fill="#84BE84" rx="3" ry="3" style="stroke:#038048;stroke-width:1.0;"/><text fill="#000000" font-family="sans-serif" font-size="11" lengthAdjust="spacing" textLength="114" x="227" y="215.7104">undoable(): boolean</text><ellipse cx="218" cy="225.3047" fill="#84BE84" rx="3" ry="3" style="stroke:#038048;stroke-width:1.0;"/><text fill="#000000" font-family="sans-serif" font-size="11" lengthAdjust="spacing" textLength="36" x="227" y="228.5151">undo()</text><ellipse cx="218" cy="238.1094" fill="#84BE84" rx="3" ry="3" style="stroke:#038048;stroke-width:1.0;"/><text fill="#000000" font-family="sans-serif" font-size="11" lengthAdjust="spacing" textLength="100" x="227" y="241.3198">getAttempts(): int</text><ellipse cx="218" cy="250.9141" fill="#84BE84" rx="3" ry="3" style="stroke:#038048;stroke-width:1.0;"/><text fill="#000000" font-family="sans-serif" font-size="11" lengthAdjust="spacing" textLength="272" x="227" y="254.1245">getProposedCombinationColors(int): List&lt;Color&gt;</text><ellipse cx="218" cy="263.7188" fill="#84BE84" rx="3" ry="3" style="stroke:#038048;stroke-width:1.0;"/><text fill="#000000" font-family="sans-serif" font-size="11" lengthAdjust="spacing" textLength="98" x="227" y="266.9292">getBlacks(int): int</text><ellipse cx="218" cy="276.5234" fill="#84BE84" rx="3" ry="3" style="stroke:#038048;stroke-width:1.0;"/><text fill="#000000" font-family="sans-serif" font-size="11" lengthAdjust="spacing" textLength="101" x="227" y="279.7339">getWhites(int): int</text><!--MD5=[09632e2f294dd01282ddf91519a686d7]
class RedoController--><rect codeLine="36" fill="#FEFECE" filter="url(#fnvbpkcfdlzrv)" height="124.8281" id="RedoController" style="stroke:#A80036;stroke-width:1.5;" width="298" x="540" y="161.5"/><ellipse cx="639.75" cy="177.5" fill="#ADD1B2" rx="11" ry="11" style="stroke:#A80036;stroke-width:1.0;"/><path d="M642.0938,173.1719 C641.1563,172.7344 640.5625,172.5938 639.6875,172.5938 C637.0625,172.5938 635.0625,174.6719 635.0625,177.3906 L635.0625,178.5156 C635.0625,181.0938 637.1719,182.9844 640.0625,182.9844 C641.2813,182.9844 642.4375,182.6875 643.1875,182.1406 C643.7656,181.7344 644.0938,181.2813 644.0938,180.8906 C644.0938,180.4375 643.7031,180.0469 643.2344,180.0469 C643.0156,180.0469 642.8125,180.125 642.625,180.3125 C642.1719,180.7969 642.1719,180.7969 641.9844,180.8906 C641.5625,181.1563 640.875,181.2813 640.1094,181.2813 C638.0625,181.2813 636.7656,180.1875 636.7656,178.4844 L636.7656,177.3906 C636.7656,175.6094 638.0156,174.2969 639.75,174.2969 C640.3281,174.2969 640.9375,174.4531 641.4063,174.7031 C641.8906,174.9844 642.0625,175.2031 642.1563,175.6094 C642.2188,176.0156 642.25,176.1406 642.3906,176.2656 C642.5313,176.4063 642.7656,176.5156 642.9844,176.5156 C643.25,176.5156 643.5156,176.375 643.6875,176.1563 C643.7969,176 643.8281,175.8125 643.8281,175.3906 L643.8281,173.9688 C643.8281,173.5313 643.8125,173.4063 643.7188,173.25 C643.5625,172.9844 643.2813,172.8438 642.9844,172.8438 C642.6875,172.8438 642.4844,172.9375 642.2656,173.25 L642.0938,173.1719 Z " fill="#000000"/><text fill="#000000" font-family="sans-serif" font-size="12" lengthAdjust="spacing" textLength="90" x="660.25" y="181.6543">RedoController</text><line style="stroke:#A80036;stroke-width:1.5;" x1="541" x2="837" y1="193.5" y2="193.5"/><line style="stroke:#A80036;stroke-width:1.5;" x1="541" x2="837" y1="201.5" y2="201.5"/><ellipse cx="551" cy="212.5" fill="#84BE84" rx="3" ry="3" style="stroke:#038048;stroke-width:1.0;"/><text fill="#000000" font-family="sans-serif" font-size="11" lengthAdjust="spacing" textLength="112" x="560" y="215.7104">redoable(): boolean</text><ellipse cx="551" cy="225.3047" fill="#84BE84" rx="3" ry="3" style="stroke:#038048;stroke-width:1.0;"/><text fill="#000000" font-family="sans-serif" font-size="11" lengthAdjust="spacing" textLength="34" x="560" y="228.5151">redo()</text><ellipse cx="551" cy="238.1094" fill="#84BE84" rx="3" ry="3" style="stroke:#038048;stroke-width:1.0;"/><text fill="#000000" font-family="sans-serif" font-size="11" lengthAdjust="spacing" textLength="100" x="560" y="241.3198">getAttempts(): int</text><ellipse cx="551" cy="250.9141" fill="#84BE84" rx="3" ry="3" style="stroke:#038048;stroke-width:1.0;"/><text fill="#000000" font-family="sans-serif" font-size="11" lengthAdjust="spacing" textLength="272" x="560" y="254.1245">getProposedCombinationColors(int): List&lt;Color&gt;</text><ellipse cx="551" cy="263.7188" fill="#84BE84" rx="3" ry="3" style="stroke:#038048;stroke-width:1.0;"/><text fill="#000000" font-family="sans-serif" font-size="11" lengthAdjust="spacing" textLength="98" x="560" y="266.9292">getBlacks(int): int</text><ellipse cx="551" cy="276.5234" fill="#84BE84" rx="3" ry="3" style="stroke:#038048;stroke-width:1.0;"/><text fill="#000000" font-family="sans-serif" font-size="11" lengthAdjust="spacing" textLength="101" x="560" y="279.7339">getWhites(int): int</text><!--MD5=[9563755d011c5cec7ec66dc53565a59e]
class Board--><rect codeLine="57" fill="#FEFECE" filter="url(#fnvbpkcfdlzrv)" height="53.9375" id="Board" style="stroke:#A80036;stroke-width:1.5;" width="80" x="1576" y="197"/><ellipse cx="1591" cy="215.9688" fill="#ADD1B2" rx="11" ry="11" style="stroke:#A80036;stroke-width:1.0;"/><path d="M1593.3438,211.6406 C1592.4063,211.2031 1591.8125,211.0625 1590.9375,211.0625 C1588.3125,211.0625 1586.3125,213.1406 1586.3125,215.8594 L1586.3125,216.9844 C1586.3125,219.5625 1588.4219,221.4531 1591.3125,221.4531 C1592.5313,221.4531 1593.6875,221.1563 1594.4375,220.6094 C1595.0156,220.2031 1595.3438,219.75 1595.3438,219.3594 C1595.3438,218.9063 1594.9531,218.5156 1594.4844,218.5156 C1594.2656,218.5156 1594.0625,218.5938 1593.875,218.7813 C1593.4219,219.2656 1593.4219,219.2656 1593.2344,219.3594 C1592.8125,219.625 1592.125,219.75 1591.3594,219.75 C1589.3125,219.75 1588.0156,218.6563 1588.0156,216.9531 L1588.0156,215.8594 C1588.0156,214.0781 1589.2656,212.7656 1591,212.7656 C1591.5781,212.7656 1592.1875,212.9219 1592.6563,213.1719 C1593.1406,213.4531 1593.3125,213.6719 1593.4063,214.0781 C1593.4688,214.4844 1593.5,214.6094 1593.6406,214.7344 C1593.7813,214.875 1594.0156,214.9844 1594.2344,214.9844 C1594.5,214.9844 1594.7656,214.8438 1594.9375,214.625 C1595.0469,214.4688 1595.0781,214.2813 1595.0781,213.8594 L1595.0781,212.4375 C1595.0781,212 1595.0625,211.875 1594.9688,211.7188 C1594.8125,211.4531 1594.5313,211.3125 1594.2344,211.3125 C1593.9375,211.3125 1593.7344,211.4063 1593.5156,211.7188 L1593.3438,211.6406 Z " fill="#000000"/><text fill="#000000" font-family="sans-serif" font-size="12" lengthAdjust="spacing" textLength="48" x="1605" y="213.1387">models.</text><text fill="#000000" font-family="sans-serif" font-size="12" lengthAdjust="spacing" textLength="36" x="1611" y="227.1074">Board</text><line style="stroke:#A80036;stroke-width:1.5;" x1="1577" x2="1655" y1="234.9375" y2="234.9375"/><line style="stroke:#A80036;stroke-width:1.5;" x1="1577" x2="1655" y1="242.9375" y2="242.9375"/><!--MD5=[18eee71c88ab61f27581b8cbdd3ef5ee]
class Color--><rect codeLine="58" fill="#FEFECE" filter="url(#fnvbpkcfdlzrv)" height="53.9375" id="Color" style="stroke:#A80036;stroke-width:1.5;" width="69" x="1041.5" y="518"/><ellipse cx="1056.5" cy="536.9688" fill="#EB937F" rx="11" ry="11" style="stroke:#A80036;stroke-width:1.0;"/><path d="M1055.2969,537.8438 L1056.75,537.8438 L1056.75,537.9531 C1056.75,538.3594 1056.7813,538.5156 1056.8594,538.6719 C1057.0156,538.9219 1057.2969,539.0781 1057.5938,539.0781 C1057.8438,539.0781 1058.1094,538.9375 1058.2656,538.7188 C1058.3906,538.5625 1058.4219,538.4063 1058.4219,537.9531 L1058.4219,536.0313 C1058.4219,535.875 1058.4219,535.8281 1058.4063,535.6719 C1058.3438,535.2031 1058.0313,534.8906 1057.5781,534.8906 C1057.3281,534.8906 1057.0625,535.0313 1056.8906,535.25 C1056.7813,535.4219 1056.75,535.5781 1056.75,536.0313 L1056.75,536.1563 L1055.2969,536.1563 L1055.2969,533.75 L1059.2813,533.75 L1059.2813,534.6094 C1059.2813,535.0156 1059.3125,535.1875 1059.3906,535.3438 C1059.5625,535.5938 1059.8438,535.75 1060.125,535.75 C1060.3906,535.75 1060.6563,535.6094 1060.8281,535.3906 C1060.9375,535.2188 1060.9688,535.0781 1060.9688,534.6094 L1060.9688,532.0625 L1053.3438,532.0625 C1052.9063,532.0625 1052.7813,532.0781 1052.625,532.1719 C1052.375,532.3281 1052.2188,532.625 1052.2188,532.9063 C1052.2188,533.1875 1052.3594,533.4375 1052.5781,533.6094 C1052.7344,533.7188 1052.9219,533.75 1053.3438,533.75 L1053.5938,533.75 L1053.5938,540.2656 L1053.3438,540.2656 C1052.9375,540.2656 1052.7813,540.2813 1052.625,540.3906 C1052.375,540.5625 1052.2188,540.8281 1052.2188,541.125 C1052.2188,541.3906 1052.3594,541.6406 1052.5781,541.7969 C1052.7188,541.9219 1052.9531,541.9688 1053.3438,541.9688 L1061.3438,541.9688 L1061.3438,539.3906 C1061.3438,538.9531 1061.3125,538.8125 1061.2344,538.6563 C1061.0625,538.4063 1060.7813,538.25 1060.5,538.25 C1060.2344,538.25 1059.9688,538.3594 1059.7969,538.6094 C1059.6875,538.7656 1059.6563,538.9063 1059.6563,539.3906 L1059.6563,540.2656 L1055.2969,540.2656 L1055.2969,537.8438 Z " fill="#000000"/><text fill="#000000" font-family="sans-serif" font-size="12" lengthAdjust="spacing" textLength="37" x="1070.5" y="534.1387">types.</text><text fill="#000000" font-family="sans-serif" font-size="12" lengthAdjust="spacing" textLength="32" x="1073" y="548.1074">Color</text><line style="stroke:#A80036;stroke-width:1.5;" x1="1042.5" x2="1109.5" y1="555.9375" y2="555.9375"/><line style="stroke:#A80036;stroke-width:1.5;" x1="1042.5" x2="1109.5" y1="563.9375" y2="563.9375"/><!--MD5=[b8cfd8c4119a3b0a7a46bfc5fc780f85]
class Error--><rect codeLine="59" fill="#FEFECE" filter="url(#fnvbpkcfdlzrv)" height="53.9375" id="Error" style="stroke:#A80036;stroke-width:1.5;" width="69" x="1573.5" y="381.5"/><ellipse cx="1588.5" cy="400.4688" fill="#EB937F" rx="11" ry="11" style="stroke:#A80036;stroke-width:1.0;"/><path d="M1587.2969,401.3438 L1588.75,401.3438 L1588.75,401.4531 C1588.75,401.8594 1588.7813,402.0156 1588.8594,402.1719 C1589.0156,402.4219 1589.2969,402.5781 1589.5938,402.5781 C1589.8438,402.5781 1590.1094,402.4375 1590.2656,402.2188 C1590.3906,402.0625 1590.4219,401.9063 1590.4219,401.4531 L1590.4219,399.5313 C1590.4219,399.375 1590.4219,399.3281 1590.4063,399.1719 C1590.3438,398.7031 1590.0313,398.3906 1589.5781,398.3906 C1589.3281,398.3906 1589.0625,398.5313 1588.8906,398.75 C1588.7813,398.9219 1588.75,399.0781 1588.75,399.5313 L1588.75,399.6563 L1587.2969,399.6563 L1587.2969,397.25 L1591.2813,397.25 L1591.2813,398.1094 C1591.2813,398.5156 1591.3125,398.6875 1591.3906,398.8438 C1591.5625,399.0938 1591.8438,399.25 1592.125,399.25 C1592.3906,399.25 1592.6563,399.1094 1592.8281,398.8906 C1592.9375,398.7188 1592.9688,398.5781 1592.9688,398.1094 L1592.9688,395.5625 L1585.3438,395.5625 C1584.9063,395.5625 1584.7813,395.5781 1584.625,395.6719 C1584.375,395.8281 1584.2188,396.125 1584.2188,396.4063 C1584.2188,396.6875 1584.3594,396.9375 1584.5781,397.1094 C1584.7344,397.2188 1584.9219,397.25 1585.3438,397.25 L1585.5938,397.25 L1585.5938,403.7656 L1585.3438,403.7656 C1584.9375,403.7656 1584.7813,403.7813 1584.625,403.8906 C1584.375,404.0625 1584.2188,404.3281 1584.2188,404.625 C1584.2188,404.8906 1584.3594,405.1406 1584.5781,405.2969 C1584.7188,405.4219 1584.9531,405.4688 1585.3438,405.4688 L1593.3438,405.4688 L1593.3438,402.8906 C1593.3438,402.4531 1593.3125,402.3125 1593.2344,402.1563 C1593.0625,401.9063 1592.7813,401.75 1592.5,401.75 C1592.2344,401.75 1591.9688,401.8594 1591.7969,402.1094 C1591.6875,402.2656 1591.6563,402.4063 1591.6563,402.8906 L1591.6563,403.7656 L1587.2969,403.7656 L1587.2969,401.3438 Z " fill="#000000"/><text fill="#000000" font-family="sans-serif" font-size="12" lengthAdjust="spacing" textLength="37" x="1602.5" y="397.6387">types.</text><text fill="#000000" font-family="sans-serif" font-size="12" lengthAdjust="spacing" textLength="30" x="1606" y="411.6074">Error</text><line style="stroke:#A80036;stroke-width:1.5;" x1="1574.5" x2="1641.5" y1="419.4375" y2="419.4375"/><line style="stroke:#A80036;stroke-width:1.5;" x1="1574.5" x2="1641.5" y1="427.4375" y2="427.4375"/><!--MD5=[354d6deacb49030493b7fd8cb23ebdce]
reverse link Controller to StartController--><path codeLine="46" d="M916.757,102.286 C942.016,123.722 974.319,151.136 1001.76,174.42 " fill="none" id="Controller-backto-StartController" style="stroke:#A80036;stroke-width:1.0;"/><polygon fill="none" points="912.017,107.444,901.297,89.166,921.076,96.77,912.017,107.444" style="stroke:#A80036;stroke-width:1.0;"/><!--MD5=[f447e35400d120693a19fd34f2d8422e]
reverse link Controller to ProposeController--><path codeLine="47" d="M938.743,77.578 C1009.94,91.169 1127.23,116.095 1225,149 C1230.86,150.973 1236.8,153.074 1242.77,155.273 " fill="none" id="Controller-backto-ProposeController" style="stroke:#A80036;stroke-width:1.0;"/><polygon fill="none" points="937.435,84.455,919.068,73.888,940.016,70.695,937.435,84.455" style="stroke:#A80036;stroke-width:1.0;"/><!--MD5=[dfabfd7c269c7ef3ab5bdd4c723fcdb8]
reverse link Controller to ResumeController--><path codeLine="48" d="M808.247,69.148 C659.061,77.059 299.344,100.686 189,149 C165.932,159.1 144.34,177.391 128.437,193.261 " fill="none" id="Controller-backto-ResumeController" style="stroke:#A80036;stroke-width:1.0;"/><polygon fill="none" points="808.341,62.134,828.675,68.093,809.063,76.115,808.341,62.134" style="stroke:#A80036;stroke-width:1.0;"/><!--MD5=[c8984a8af7c12f8533ff397092c16636]
reverse link Controller to ShowBoardController--><path codeLine="49" d="M874,109.314 C874,173.169 874,292.199 874,358.935 " fill="none" id="Controller-backto-ShowBoardController" style="stroke:#A80036;stroke-width:1.0;"/><polygon fill="none" points="867,109.204,874,89.204,881,109.204,867,109.204" style="stroke:#A80036;stroke-width:1.0;"/><!--MD5=[5344b5a2a57f55ab983fda367ecdb5ef]
reverse link Controller to UndoController--><path codeLine="50" d="M809.057,77.515 C737.64,91.05 620.005,115.928 522,149 C510.938,152.733 499.606,156.932 488.313,161.386 " fill="none" id="Controller-backto-UndoController" style="stroke:#A80036;stroke-width:1.0;"/><polygon fill="none" points="807.849,70.62,828.792,73.841,810.411,84.383,807.849,70.62" style="stroke:#A80036;stroke-width:1.0;"/><!--MD5=[30206d8ab718dc22cce9998c8e604def]
reverse link Controller to RedoController--><path codeLine="51" d="M831.257,102.274 C810.579,119.822 785.178,141.379 761.59,161.397 " fill="none" id="Controller-backto-RedoController" style="stroke:#A80036;stroke-width:1.0;"/><polygon fill="none" points="826.924,96.77,846.703,89.166,835.983,107.444,826.924,96.77" style="stroke:#A80036;stroke-width:1.0;"/><!--MD5=[b4660ff7e828b23e4b17a715c63b2df8]
link StartController to ShowBoardController--><path codeLine="52" d="M1000.8749,282.3321 C1000.8749,282.3321 954.267,328.318 932.744,349.55 " fill="none" id="StartController-ShowBoardController" style="stroke:#A80036;stroke-width:1.0;"/><polygon fill="#A80036" points="923.392,358.775,932.6083,355.3024,926.9516,355.2637,926.9903,349.607,923.392,358.775" style="stroke:#A80036;stroke-width:1.0;"/><line style="stroke:#A80036;stroke-width:1.0;" x1="926.9516" x2="932.6475" y1="355.2637" y2="349.6455"/><polygon fill="#A80036" points="1009.42,273.907,1002.3391,275.2712,1000.8749,282.3321,1007.9558,280.9679,1009.42,273.907" style="stroke:#A80036;stroke-width:1.0;"/><!--MD5=[217660a01a015992a9b7449ecc5eb003]
link ProposeController to ShowBoardController--><path codeLine="53" d="M1231.4066,296.574 C1231.4066,296.574 1226.81,298.322 1225,299 C1163.94,321.875 1095.67,343.783 1035.69,361.848 " fill="none" id="ProposeController-ShowBoardController" style="stroke:#A80036;stroke-width:1.0;"/><polygon fill="#A80036" points="1023.03,365.644,1032.8005,366.8841,1027.8184,364.2048,1030.4977,359.2227,1023.03,365.644" style="stroke:#A80036;stroke-width:1.0;"/><line style="stroke:#A80036;stroke-width:1.0;" x1="1027.8184" x2="1035.48" y1="364.2048" y2="361.9125"/><polygon fill="#A80036" points="1242.59,292.223,1235.548,290.6707,1231.4066,296.574,1238.4486,298.1263,1242.59,292.223" style="stroke:#A80036;stroke-width:1.0;"/><!--MD5=[2c52910148e9819c620d9e17d1681542]
link UndoController to ShowBoardController--><path codeLine="54" d="M501.547,291.0533 C501.547,291.0533 515.7,296.635 522,299 C583.342,322.031 651.968,344.007 712.222,362.083 " fill="none" id="UndoController-ShowBoardController" style="stroke:#A80036;stroke-width:1.0;"/><polygon fill="#A80036" points="724.947,365.88,717.4665,359.4736,720.1558,364.4503,715.179,367.1396,724.947,365.88" style="stroke:#A80036;stroke-width:1.0;"/><line style="stroke:#A80036;stroke-width:1.0;" x1="720.1558" x2="712.49" y1="364.4503" y2="362.163"/><polygon fill="#A80036" points="490.424,286.55,494.4844,292.5093,501.547,291.0533,497.4866,285.094,490.424,286.55" style="stroke:#A80036;stroke-width:1.0;"/><!--MD5=[da400dee44fe4cb18fcfe5f548bf9ae9]
link RedoController to ShowBoardController--><path codeLine="55" d="M759.9181,294.9591 C759.9181,294.9591 797.989,332.516 815.322,349.615 " fill="none" id="RedoController-ShowBoardController" style="stroke:#A80036;stroke-width:1.0;"/><polygon fill="#A80036" points="824.744,358.91,821.1464,349.7417,821.1846,355.3984,815.5279,355.4367,824.744,358.91" style="stroke:#A80036;stroke-width:1.0;"/><line style="stroke:#A80036;stroke-width:1.0;" x1="821.1846" x2="815.4895" y1="355.3984" y2="349.78"/><polygon fill="#A80036" points="751.375,286.532,752.8375,293.5932,759.9181,294.9591,758.4556,287.8978,751.375,286.532" style="stroke:#A80036;stroke-width:1.0;"/><!--MD5=[e4ce0f75ff780efa34ba11708e5ec423]
link Controller to Board--><path codeLine="61" d="M919.216,67.083 C1053.4,70.974 1446.85,87.483 1557,149 C1574.83,158.959 1589.26,176.695 1599.38,192.307 " fill="none" id="Controller-to-Board" style="stroke:#A80036;stroke-width:1.0;"/><polygon fill="#A80036" points="1602.12,196.646,1600.6971,186.9005,1599.4505,192.4183,1593.9327,191.1716,1602.12,196.646" style="stroke:#A80036;stroke-width:1.0;"/><!--MD5=[a89fa2b97461e605c99485f1f8e3795b]
link ProposeController to Error--><path codeLine="62" d="M1485.99,299.223 C1509.48,318.347 1534.41,339.142 1557,359 C1563.81,364.99 1570.96,371.586 1577.69,377.931 " fill="none" id="ProposeController-to-Error" style="stroke:#A80036;stroke-width:1.0;stroke-dasharray:7.0,7.0;"/><polygon fill="#A80036" points="1581.37,381.425,1577.5961,372.3279,1577.7435,377.9828,1572.0886,378.1302,1581.37,381.425" style="stroke:#A80036;stroke-width:1.0;"/><!--MD5=[d649baaff3a9c9942c69fcb786dc271c]
link ProposeController to Color--><path codeLine="63" d="M1318.31,299.389 C1250.59,367.752 1153.65,465.616 1105.49,514.2323 " fill="none" id="ProposeController-to-Color" style="stroke:#A80036;stroke-width:1.0;stroke-dasharray:7.0,7.0;"/><polygon fill="#A80036" points="1101.82,517.9303,1110.9931,514.3451,1105.3364,514.3757,1105.3057,508.7189,1101.82,517.9303" style="stroke:#A80036;stroke-width:1.0;"/><!--MD5=[551c8c913caa70d4c8baab2e4edb5769]
link ShowBoardController to Color--><path codeLine="64" d="M946.927,458.058 C977.373,478.3299 1011.52,501.0639 1037.04,518.0558 " fill="none" id="ShowBoardController-to-Color" style="stroke:#A80036;stroke-width:1.0;stroke-dasharray:7.0,7.0;"/><polygon fill="#A80036" points="1041.38,520.9455,1036.106,512.6278,1037.2183,518.1742,1031.6719,519.2865,1041.38,520.9455" style="stroke:#A80036;stroke-width:1.0;"/><!--MD5=[69a1b9a8422e14e14037057a3d2e1465]
link StartController to Color--><path codeLine="65" d="M1061.6,273.796 C1065.13,340.076 1071.35,456.68 1074.32,512.4961 " fill="none" id="StartController-to-Color" style="stroke:#A80036;stroke-width:1.0;stroke-dasharray:7.0,7.0;"/><polygon fill="#A80036" points="1074.6,517.7042,1078.116,508.5043,1074.3342,512.7113,1070.1273,508.9295,1074.6,517.7042" style="stroke:#A80036;stroke-width:1.0;"/><!--MD5=[0dde6c40044f412a98223ab8bcb3922a]
@startuml
package controllers {
    abstract class Controller
    class StartController {
        + getAttempts(): int
        + getProposedCombinationColors(int): List<Color>
        + getBlacks(int): int
        + getWhites(int): int
    }
    class ProposeController {
        + getError(List<Color>): Error
        + add(List<Color>)
        + isFinished(): boolean
        + isWinner(): boolean
        + getAttempts(): int
        + getProposedCombinationColors(int): List<Color>
        + getBlacks(int): int
        + getWhites(int): int
    }
    class ResumeController {
        + reset()
    }
    class ShowBoardController {
        ~ getAttempts(): int
        ~ getProposedCombinationColors(int): List<Color>
        ~ getBlacks(int): int
        ~ getWhites(int): int
    }
    class UndoController {
        + undoable(): boolean
        + undo()
        + getAttempts(): int
        + getProposedCombinationColors(int): List<Color>
        + getBlacks(int): int
        + getWhites(int): int
    }
    class RedoController {
        + redoable(): boolean
        + redo()
        + getAttempts(): int
        + getProposedCombinationColors(int): List<Color>
        + getBlacks(int): int
        + getWhites(int): int
    }
}

Controller <|- - StartController
Controller <|- - ProposeController
Controller <|- - ResumeController
Controller <|- - ShowBoardController
Controller <|- - UndoController
Controller <|- - RedoController
StartController *-down-> ShowBoardController
ProposeController *-down-> ShowBoardController
UndoController *-down-> ShowBoardController
RedoController *-down-> ShowBoardController

class "models.\nBoard" as Board
enum "types.\nColor" as Color
enum "types.\nError" as Error

Controller -down-> Board
ProposeController .down.> Error
ProposeController .down.> Color
ShowBoardController .down.> Color
StartController .down.> Color
@enduml

PlantUML version 1.2021.4beta3(Unknown compile time)
(GPL source distribution)
Java Runtime: Java(TM) SE Runtime Environment
JVM: Java HotSpot(TM) 64-Bit Server VM
Default Encoding: UTF-8
Language: en
Country: US
--></g></svg>