<?xml version="1.0" encoding="UTF-8" standalone="no"?><svg xmlns="http://www.w3.org/2000/svg" xmlns:xlink="http://www.w3.org/1999/xlink" contentScriptType="application/ecmascript" contentStyleType="text/css" height="1014px" preserveAspectRatio="none" style="width:516px;height:1014px;" version="1.1" viewBox="0 0 516 1014" width="516px" zoomAndPan="magnify"><defs><filter height="300%" id="f14os5xx26h4ik" width="300%" x="-1" y="-1"><feGaussianBlur result="blurOut" stdDeviation="2.0"/><feColorMatrix in="blurOut" result="blurOut2" type="matrix" values="0 0 0 0 0 0 0 0 0 0 0 0 0 0 0 0 0 0 .4 0"/><feOffset dx="4.0" dy="4.0" in="blurOut2" result="blurOut3"/><feBlend in="SourceGraphic" in2="blurOut3" mode="normal"/></filter></defs><g><g id="INITIAL"><rect fill="#FEFECE" filter="url(#f14os5xx26h4ik)" height="50" rx="12.5" ry="12.5" style="stroke:#A80036;stroke-width:1.5;" width="64" x="279.1" y="87"/><line style="stroke:#A80036;stroke-width:1.5;" x1="279.1" x2="343.1" y1="114.6094" y2="114.6094"/><text fill="#000000" font-family="sans-serif" font-size="14" lengthAdjust="spacing" textLength="44" x="289.1" y="106.5332">INITIAL</text></g><g id="IN_GAME"><rect fill="#FEFECE" filter="url(#f14os5xx26h4ik)" height="50" rx="12.5" ry="12.5" style="stroke:#A80036;stroke-width:1.5;" width="80" x="183.1" y="300"/><line style="stroke:#A80036;stroke-width:1.5;" x1="183.1" x2="263.1" y1="327.6094" y2="327.6094"/><text fill="#000000" font-family="sans-serif" font-size="14" lengthAdjust="spacing" textLength="60" x="193.1" y="319.5332">IN_GAME</text></g><g id="OUT_GAME"><rect fill="#FEFECE" filter="url(#f14os5xx26h4ik)" height="50" rx="12.5" ry="12.5" style="stroke:#A80036;stroke-width:1.5;" width="97" x="131.6" y="530"/><line style="stroke:#A80036;stroke-width:1.5;" x1="131.6" x2="228.6" y1="557.6094" y2="557.6094"/><text fill="#000000" font-family="sans-serif" font-size="14" lengthAdjust="spacing" textLength="77" x="141.6" y="549.5332">OUT_GAME</text></g><g id="FINAL"><rect fill="#FEFECE" filter="url(#f14os5xx26h4ik)" height="50" rx="12.5" ry="12.5" style="stroke:#A80036;stroke-width:1.5;" width="58" x="290.1" y="658"/><line style="stroke:#A80036;stroke-width:1.5;" x1="290.1" x2="348.1" y1="685.6094" y2="685.6094"/><text fill="#000000" font-family="sans-serif" font-size="14" lengthAdjust="spacing" textLength="38" x="300.1" y="677.5332">FINAL</text></g><g id="EXIT"><rect fill="#FEFECE" filter="url(#f14os5xx26h4ik)" height="50" rx="12.5" ry="12.5" style="stroke:#A80036;stroke-width:1.5;" width="50" x="356.1" y="871"/><line style="stroke:#A80036;stroke-width:1.5;" x1="356.1" x2="406.1" y1="898.6094" y2="898.6094"/><text fill="#000000" font-family="sans-serif" font-size="14" lengthAdjust="spacing" textLength="29" x="366.6" y="890.5332">EXIT</text></g><polygon fill="#FEFECE" filter="url(#f14os5xx26h4ik)" points="180.1,428,192.1,440,180.1,452,168.1,440,180.1,428" style="stroke:#A80036;stroke-width:1.5;"/><polygon fill="#FEFECE" filter="url(#f14os5xx26h4ik)" points="311.1,215,323.1,227,311.1,239,299.1,227,311.1,215" style="stroke:#A80036;stroke-width:1.5;"/><polygon fill="#FEFECE" filter="url(#f14os5xx26h4ik)" points="381.1,786,393.1,798,381.1,810,369.1,798,381.1,786" style="stroke:#A80036;stroke-width:1.5;"/><ellipse cx="311.1" cy="16" fill="#000000" filter="url(#f14os5xx26h4ik)" rx="10" ry="10" style="stroke:none;stroke-width:1.0;"/><ellipse cx="381.1" cy="992" fill="none" filter="url(#f14os5xx26h4ik)" rx="10" ry="10" style="stroke:#000000;stroke-width:1.0;"/><ellipse cx="381.6" cy="992.5" fill="#000000" rx="6" ry="6" style="stroke:none;stroke-width:1.0;"/><!--MD5=[06c3f2024f4ea60966e79307ee69ec5f]
link *start to INITIAL--><path d="M311.1,26.01 C311.1,38.7 311.1,62.41 311.1,81.57 " fill="none" id="*start-to-INITIAL" style="stroke:#A80036;stroke-width:1.0;"/><polygon fill="#A80036" points="311.1,86.84,315.1,77.84,311.1,81.84,307.1,77.84,311.1,86.84" style="stroke:#A80036;stroke-width:1.0;"/><!--MD5=[c6210ae09f2e397a3dfeeac0c7e340d4]
link INITIAL to IN_GAME--><path d="M294.27,137.14 C280.95,157.2 262.71,186.9 251.1,215 C240.29,241.19 232.74,272.69 228.23,295.08 " fill="none" id="INITIAL-to-IN_GAME" style="stroke:#A80036;stroke-width:1.0;"/><polygon fill="#A80036" points="227.26,299.99,232.9338,291.9397,228.2323,295.0855,225.0866,290.384,227.26,299.99" style="stroke:#A80036;stroke-width:1.0;"/><text fill="#000000" font-family="sans-serif" font-size="13" lengthAdjust="spacing" textLength="28" x="252.1" y="232.4951">Start</text><!--MD5=[f0014aad9a11f2a591059d47e262c34a]
link INITIAL to if_finished_2--><path d="M311.1,137.24 C311.1,158.99 311.1,190.32 311.1,209.35 " fill="none" id="INITIAL-to-if_finished_2" style="stroke:#A80036;stroke-width:1.0;"/><polygon fill="#A80036" points="311.1,214.84,315.1,205.84,311.1,209.84,307.1,205.84,311.1,214.84" style="stroke:#A80036;stroke-width:1.0;"/><text fill="#000000" font-family="sans-serif" font-size="13" lengthAdjust="spacing" textLength="31" x="312.1" y="181.4951">Open</text><!--MD5=[2e98110bcc769d9036a2713b3380c884]
link if_finished_2 to IN_GAME--><path d="M305.6,234.01 C294.47,246.14 268.7,274.26 248.89,295.86 " fill="none" id="if_finished_2-to-IN_GAME" style="stroke:#A80036;stroke-width:1.0;"/><polygon fill="#A80036" points="245.27,299.82,254.296,295.879,248.6447,296.1307,248.3931,290.4794,245.27,299.82" style="stroke:#A80036;stroke-width:1.0;"/><!--MD5=[35efd2017dee75df934f9c24c3104331]
link if_finished_2 to FINAL--><path d="M312.46,237.79 C314.74,255.13 319.1,292.39 319.1,324 C319.1,324 319.1,324 319.1,556 C319.1,589.08 319.1,627.05 319.1,652.59 " fill="none" id="if_finished_2-to-FINAL" style="stroke:#A80036;stroke-width:1.0;"/><polygon fill="#A80036" points="319.1,657.84,323.1,648.84,319.1,652.84,315.1,648.84,319.1,657.84" style="stroke:#A80036;stroke-width:1.0;"/><text fill="#000000" font-family="sans-serif" font-size="13" lengthAdjust="spacing" textLength="52" x="320.1" y="445.4951">[finished]</text><!--MD5=[200846c1dd6de3f2a37d61d02f348d5e]
link IN_GAME to if_finished--><path d="M182.84,326.61 C143.78,329.62 86.41,340.95 58.1,380 C29.67,419.22 125.87,433.51 164.63,437.61 " fill="none" id="IN_GAME-to-if_finished" style="stroke:#A80036;stroke-width:1.0;"/><polygon fill="#A80036" points="169.91,438.14,161.3555,433.2594,164.9351,437.6397,160.5549,441.2193,169.91,438.14" style="stroke:#A80036;stroke-width:1.0;"/><text fill="#000000" font-family="sans-serif" font-size="13" lengthAdjust="spacing" textLength="48" x="59.1" y="394.4951">Propose</text><!--MD5=[200846c1dd6de3f2a37d61d02f348d5e]
link IN_GAME to if_finished--><path d="M182.83,345.05 C169.25,353.68 155.64,365.29 148.1,380 C138.75,398.26 157.4,419.32 169.96,430.68 " fill="none" id="IN_GAME-to-if_finished-1" style="stroke:#A80036;stroke-width:1.0;"/><polygon fill="#A80036" points="173.94,434.15,169.7816,425.2221,170.17,430.8656,164.5265,431.254,173.94,434.15" style="stroke:#A80036;stroke-width:1.0;"/><text fill="#000000" font-family="sans-serif" font-size="13" lengthAdjust="spacing" textLength="30" x="149.1" y="394.4951">Undo</text><!--MD5=[200846c1dd6de3f2a37d61d02f348d5e]
link IN_GAME to if_finished--><path d="M213.88,350.24 C205.04,373.48 192.03,407.66 185.01,426.09 " fill="none" id="IN_GAME-to-if_finished-2" style="stroke:#A80036;stroke-width:1.0;"/><polygon fill="#A80036" points="183.2,430.85,190.1499,423.8715,184.9853,426.1796,182.6773,421.015,183.2,430.85" style="stroke:#A80036;stroke-width:1.0;"/><text fill="#000000" font-family="sans-serif" font-size="13" lengthAdjust="spacing" textLength="30" x="203.1" y="394.4951">Redo</text><!--MD5=[5848ef64f427518330d05d0e49dfaccc]
link if_finished to IN_GAME--><path d="M188.92,436.22 C203.16,431.21 230.74,419.14 242.1,398 C249.24,384.71 245.93,368.58 240.21,354.96 " fill="none" id="if_finished-to-IN_GAME" style="stroke:#A80036;stroke-width:1.0;"/><polygon fill="#A80036" points="238,350.07,238.0315,359.9188,240.0453,354.6325,245.3315,356.6464,238,350.07" style="stroke:#A80036;stroke-width:1.0;"/><!--MD5=[c7c4fbbf3a5c3bb043eef47bc673d535]
link IN_GAME to OUT_GAME--><path d="M182.88,325.43 C140.83,327.26 76.65,337.46 45.1,380 C6,432.72 80.05,492.98 133.08,526.96 " fill="none" id="IN_GAME-to-OUT_GAME" style="stroke:#A80036;stroke-width:1.0;"/><polygon fill="#A80036" points="137.5,529.76,132.0401,521.5631,133.277,527.083,127.757,528.3199,137.5,529.76" style="stroke:#A80036;stroke-width:1.0;"/><text fill="#000000" font-family="sans-serif" font-size="13" lengthAdjust="spacing" textLength="23" x="48.1" y="445.4951">Exit</text><!--MD5=[fb580c452284ecb35857e88f372e8dbe]
link if_finished to OUT_GAME--><path d="M180.1,452.25 C180.1,468.96 180.1,500.91 180.1,524.57 " fill="none" id="if_finished-to-OUT_GAME" style="stroke:#A80036;stroke-width:1.0;"/><polygon fill="#A80036" points="180.1,529.79,184.1,520.79,180.1,524.79,176.1,520.79,180.1,529.79" style="stroke:#A80036;stroke-width:1.0;"/><text fill="#000000" font-family="sans-serif" font-size="13" lengthAdjust="spacing" textLength="52" x="181.1" y="496.4951">[finished]</text><!--MD5=[6ff0ced844ada5674ca91a02c3186da9]
link OUT_GAME to FINAL--><path d="M206.9,580.29 C230.27,601.47 264.14,632.18 288.55,654.31 " fill="none" id="OUT_GAME-to-FINAL" style="stroke:#A80036;stroke-width:1.0;"/><polygon fill="#A80036" points="292.38,657.78,288.4026,648.77,288.6771,654.4202,283.0269,654.6947,292.38,657.78" style="stroke:#A80036;stroke-width:1.0;"/><text fill="#000000" font-family="sans-serif" font-size="13" lengthAdjust="spacing" textLength="28" x="259.1" y="624.4951">Save</text><!--MD5=[363afbe1e4eb49f4931343d3d88c52d2]
link FINAL to if_resumed--><path d="M332.4,708.24 C345.41,731.95 364.68,767.06 374.63,785.2 " fill="none" id="FINAL-to-if_resumed" style="stroke:#A80036;stroke-width:1.0;"/><polygon fill="#A80036" points="377.17,789.84,376.3339,780.0267,374.7588,785.4598,369.3256,783.8847,377.17,789.84" style="stroke:#A80036;stroke-width:1.0;"/><text fill="#000000" font-family="sans-serif" font-size="13" lengthAdjust="spacing" textLength="48" x="359.1" y="752.4951">Resume</text><!--MD5=[36553ab13ef484d8e624246e921f8591]
link if_resumed to INITIAL--><path d="M386.82,791.48 C402.17,776.05 443.1,730.54 443.1,684 C443.1,226 443.1,226 443.1,226 C443.1,175.7 387.12,142.99 348.07,126.29 " fill="none" id="if_resumed-to-INITIAL" style="stroke:#A80036;stroke-width:1.0;"/><polygon fill="#A80036" points="343.39,124.34,350.1514,131.5013,348.0033,126.2681,353.2364,124.12,343.39,124.34" style="stroke:#A80036;stroke-width:1.0;"/><text fill="#000000" font-family="sans-serif" font-size="13" lengthAdjust="spacing" textLength="64" x="444.1" y="445.4951">[continued]</text><!--MD5=[00ace724ee34ef802585e1261ed65fdc]
link if_resumed to EXIT--><path d="M381.1,810.01 C381.1,823.52 381.1,846.94 381.1,865.77 " fill="none" id="if_resumed-to-EXIT" style="stroke:#A80036;stroke-width:1.0;"/><polygon fill="#A80036" points="381.1,870.95,385.1,861.95,381.1,865.95,377.1,861.95,381.1,870.95" style="stroke:#A80036;stroke-width:1.0;"/><!--MD5=[bd19b40b84bbe903342104a02ae53ed4]
link EXIT to *end--><path d="M381.1,921.21 C381.1,938.84 381.1,962.13 381.1,976.84 " fill="none" id="EXIT-to-*end" style="stroke:#A80036;stroke-width:1.0;"/><polygon fill="#A80036" points="381.1,981.84,385.1,972.84,381.1,976.84,377.1,972.84,381.1,981.84" style="stroke:#A80036;stroke-width:1.0;"/><!--MD5=[b74c856d6943758ae526697805e62538]
@startuml mastermind_states
state INITIAL
state IN_GAME
state OUT_GAME
state FINAL
state EXIT
state if_finished <<choice>>
state if_finished_2 <<choice>>
state if_resumed <<choice>>

[*] - -> INITIAL
INITIAL - -> IN_GAME: Start
INITIAL - -> if_finished_2: Open
if_finished_2 - -> IN_GAME
if_finished_2 - -> FINAL: [finished]
IN_GAME - -> if_finished: Propose
IN_GAME - -> if_finished: Undo
IN_GAME - -> if_finished: Redo
IN_GAME - -> OUT_GAME: Exit
if_finished - -> IN_GAME
if_finished - -> OUT_GAME: [finished]
OUT_GAME - -> FINAL: Save
FINAL - -> if_resumed: Resume
if_resumed - -> INITIAL: [continued]
if_resumed - -> EXIT
EXIT - -> [*]
@enduml

PlantUML version 1.2021.00(Sun Jan 10 11:25:05 CET 2021)
(GPL source distribution)
Java Runtime: Java(TM) SE Runtime Environment
JVM: Java HotSpot(TM) 64-Bit Server VM
Default Encoding: Cp1252
Language: es
Country: ES
--></g></svg>