<?xml version="1.0" encoding="UTF-8" standalone="no"?><svg xmlns="http://www.w3.org/2000/svg" xmlns:xlink="http://www.w3.org/1999/xlink" contentScriptType="application/ecmascript" contentStyleType="text/css" height="716px" preserveAspectRatio="none" style="width:341px;height:716px;" version="1.1" viewBox="0 0 341 716" width="341px" zoomAndPan="magnify"><defs><filter height="300%" id="f1eu2ir5yw87ca" width="300%" x="-1" y="-1"><feGaussianBlur result="blurOut" stdDeviation="2.0"/><feColorMatrix in="blurOut" result="blurOut2" type="matrix" values="0 0 0 0 0 0 0 0 0 0 0 0 0 0 0 0 0 0 .4 0"/><feOffset dx="4.0" dy="4.0" in="blurOut2" result="blurOut3"/><feBlend in="SourceGraphic" in2="blurOut3" mode="normal"/></filter></defs><g><g id="INITIAL"><rect fill="#FEFECE" filter="url(#f1eu2ir5yw87ca)" height="50" rx="12.5" ry="12.5" style="stroke:#A80036;stroke-width:1.5;" width="64" x="78.61" y="87"/><line style="stroke:#A80036;stroke-width:1.5;" x1="78.61" x2="142.61" y1="114.6094" y2="114.6094"/><text fill="#000000" font-family="sans-serif" font-size="14" lengthAdjust="spacing" textLength="44" x="88.61" y="106.5332">INITIAL</text></g><g id="start"><rect fill="#FEFECE" filter="url(#f1eu2ir5yw87ca)" height="50" rx="12.5" ry="12.5" style="stroke:#A80036;stroke-width:1.5;" width="50" x="85.61" y="215"/><line style="stroke:#A80036;stroke-width:1.5;" x1="85.61" x2="135.61" y1="242.6094" y2="242.6094"/><text fill="#000000" font-family="sans-serif" font-size="14" lengthAdjust="spacing" textLength="0" x="112.61" y="234.5332"/></g><g id="ShowBoard"><rect fill="#FEFECE" filter="url(#f1eu2ir5yw87ca)" height="50" rx="12.5" ry="12.5" style="stroke:#A80036;stroke-width:1.5;" width="95" x="63.11" y="343"/><line style="stroke:#A80036;stroke-width:1.5;" x1="63.11" x2="158.11" y1="370.6094" y2="370.6094"/><text fill="#000000" font-family="sans-serif" font-size="14" lengthAdjust="spacing" textLength="75" x="73.11" y="362.5332">Show board</text></g><polygon fill="#FEFECE" filter="url(#f1eu2ir5yw87ca)" points="110.61,454,122.61,466,110.61,478,98.61,466,110.61,454" style="stroke:#A80036;stroke-width:1.5;"/><g id="resumed"><rect fill="#FEFECE" filter="url(#f1eu2ir5yw87ca)" height="50" rx="12.5" ry="12.5" style="stroke:#A80036;stroke-width:1.5;" width="50" x="43.61" y="556"/><line style="stroke:#A80036;stroke-width:1.5;" x1="43.61" x2="93.61" y1="583.6094" y2="583.6094"/><text fill="#000000" font-family="sans-serif" font-size="14" lengthAdjust="spacing" textLength="0" x="70.61" y="575.5332"/></g><g id="proposed"><rect fill="#FEFECE" filter="url(#f1eu2ir5yw87ca)" height="50" rx="12.5" ry="12.5" style="stroke:#A80036;stroke-width:1.5;" width="50" x="151.61" y="556"/><line style="stroke:#A80036;stroke-width:1.5;" x1="151.61" x2="201.61" y1="583.6094" y2="583.6094"/><text fill="#000000" font-family="sans-serif" font-size="14" lengthAdjust="spacing" textLength="0" x="178.61" y="575.5332"/></g><ellipse cx="110.61" cy="16" fill="#000000" filter="url(#f1eu2ir5yw87ca)" rx="10" ry="10" style="stroke:none;stroke-width:1.0;"/><ellipse cx="110.61" cy="694" fill="none" filter="url(#f1eu2ir5yw87ca)" rx="10" ry="10" style="stroke:#000000;stroke-width:1.0;"/><ellipse cx="111.11" cy="694.5" fill="#000000" rx="6" ry="6" style="stroke:none;stroke-width:1.0;"/><!--MD5=[06c3f2024f4ea60966e79307ee69ec5f]
link *start to INITIAL--><path d="M110.61,26.01 C110.61,38.7 110.61,62.41 110.61,81.57 " fill="none" id="*start-to-INITIAL" style="stroke:#A80036;stroke-width:1.0;"/><polygon fill="#A80036" points="110.61,86.84,114.61,77.84,110.61,81.84,106.61,77.84,110.61,86.84" style="stroke:#A80036;stroke-width:1.0;"/><!--MD5=[633a00f1c77513bf3fc07c487e97d493]
link INITIAL to start--><path d="M110.61,137.29 C110.61,157.95 110.61,187.67 110.61,209.65 " fill="none" id="INITIAL-to-start" style="stroke:#A80036;stroke-width:1.0;"/><polygon fill="#A80036" points="110.61,214.78,114.61,205.78,110.61,209.78,106.61,205.78,110.61,214.78" style="stroke:#A80036;stroke-width:1.0;"/><text fill="#000000" font-family="sans-serif" font-size="13" lengthAdjust="spacing" textLength="222" x="111.61" y="181.4951">Player requests to open a saved game</text><!--MD5=[0fad0d04e143d2803812dde19ac4d1a9]
link start to ShowBoard--><path d="M110.61,265.29 C110.61,285.95 110.61,315.67 110.61,337.65 " fill="none" id="start-to-ShowBoard" style="stroke:#A80036;stroke-width:1.0;"/><polygon fill="#A80036" points="110.61,342.78,114.61,333.78,110.61,337.78,106.61,333.78,110.61,342.78" style="stroke:#A80036;stroke-width:1.0;"/><text fill="#000000" font-family="sans-serif" font-size="13" lengthAdjust="spacing" textLength="168" x="111.61" y="309.4951">System shows title message</text><!--MD5=[da6e7144752851676080c1e9eb35d3cb]
link ShowBoard to showed--><path d="M110.61,393.22 C110.61,410.54 110.61,433.38 110.61,448.59 " fill="none" id="ShowBoard-to-showed" style="stroke:#A80036;stroke-width:1.0;"/><polygon fill="#A80036" points="110.61,453.83,114.61,444.83,110.61,448.83,106.61,444.83,110.61,453.83" style="stroke:#A80036;stroke-width:1.0;"/><!--MD5=[af8cef232bb1a1493310700e12d81650]
link showed to proposed--><path d="M115.62,473.16 C121.88,480.99 132.71,495.05 140.61,508 C148.97,521.71 157.07,537.61 163.47,550.98 " fill="none" id="showed-to-proposed" style="stroke:#A80036;stroke-width:1.0;"/><polygon fill="#A80036" points="165.75,555.79,165.5162,545.9439,163.6114,551.2704,158.2849,549.3657,165.75,555.79" style="stroke:#A80036;stroke-width:1.0;"/><!--MD5=[b84f121cfb87d0bd0a83aec4030bf7aa]
link showed to resumed--><path d="M105.39,472.93 C99,480.51 88.32,494.32 82.61,508 C76.97,521.49 73.58,537.35 71.55,550.75 " fill="none" id="showed-to-resumed" style="stroke:#A80036;stroke-width:1.0;"/><polygon fill="#A80036" points="70.81,555.95,76.0325,547.5998,71.5111,550.9994,68.1115,546.478,70.81,555.95" style="stroke:#A80036;stroke-width:1.0;"/><text fill="#000000" font-family="sans-serif" font-size="13" lengthAdjust="spacing" textLength="52" x="83.61" y="522.4951">[finished]</text><!--MD5=[f4bce4db613badb0f7e040a1eae7d576]
link proposed to *end--><path d="M175.78,606.27 C174.29,621.04 170.58,639.74 161.61,654 C152.46,668.53 135.86,679.69 124.09,686.28 " fill="none" id="proposed-to-*end" style="stroke:#A80036;stroke-width:1.0;"/><polygon fill="#A80036" points="119.37,688.82,129.1904,688.0712,123.7714,686.4478,125.3948,681.0289,119.37,688.82" style="stroke:#A80036;stroke-width:1.0;"/><text fill="#000000" font-family="sans-serif" font-size="13" lengthAdjust="spacing" textLength="137" x="169.61" y="650.4951">System allows Propose</text><!--MD5=[487492595cb7ba342e52b6fe52f12edf]
link resumed to *end--><path d="M43.51,599.02 C25.33,613.52 6,634.97 18.61,654 C35.82,680 74.23,688.72 95.57,691.6 " fill="none" id="resumed-to-*end" style="stroke:#A80036;stroke-width:1.0;"/><polygon fill="#A80036" points="100.61,692.22,92.1685,687.1465,95.6477,691.6068,91.1874,695.0861,100.61,692.22" style="stroke:#A80036;stroke-width:1.0;"/><text fill="#000000" font-family="sans-serif" font-size="13" lengthAdjust="spacing" textLength="137" x="19.61" y="650.4951">System allows Resume</text><!--MD5=[a337665160272b06a549d54302ef0f63]
@startuml open_usecase
state INITIAL
state start as " "
state ShowBoard as "Show board"
state showed <<choice>>
state resumed as " "
state proposed as " "

[*] - -> INITIAL
INITIAL - -> start: Player requests to open a saved game
start - -> ShowBoard: System shows title message
ShowBoard - -> showed
showed - -> proposed 
showed - -> resumed: [finished]
proposed - -> [*]: System allows Propose
resumed - -> [*]: System allows Resume
@enduml

PlantUML version 1.2021.00(Sun Jan 10 11:25:05 CET 2021)
(GPL source distribution)
Java Runtime: Java(TM) SE Runtime Environment
JVM: Java HotSpot(TM) 64-Bit Server VM
Default Encoding: Cp1252
Language: es
Country: ES
--></g></svg>