<?xml version="1.0" encoding="UTF-8" standalone="no"?><svg xmlns="http://www.w3.org/2000/svg" xmlns:xlink="http://www.w3.org/1999/xlink" contentScriptType="application/ecmascript" contentStyleType="text/css" height="1453px" preserveAspectRatio="none" style="width:853px;height:1453px;" version="1.1" viewBox="0 0 853 1453" width="853px" zoomAndPan="magnify"><defs><filter height="300%" id="fvq99l0vkithq" width="300%" x="-1" y="-1"><feGaussianBlur result="blurOut" stdDeviation="2.0"/><feColorMatrix in="blurOut" result="blurOut2" type="matrix" values="0 0 0 0 0 0 0 0 0 0 0 0 0 0 0 0 0 0 .4 0"/><feOffset dx="4.0" dy="4.0" in="blurOut2" result="blurOut3"/><feBlend in="SourceGraphic" in2="blurOut3" mode="normal"/></filter></defs><g><g id="IN_GAME"><rect fill="#FEFECE" filter="url(#fvq99l0vkithq)" height="50" rx="12.5" ry="12.5" style="stroke:#A80036;stroke-width:1.5;" width="80" x="212.98" y="87"/><line style="stroke:#A80036;stroke-width:1.5;" x1="212.98" x2="292.98" y1="114.6094" y2="114.6094"/><text fill="#000000" font-family="sans-serif" font-size="14" lengthAdjust="spacing" textLength="60" x="222.98" y="106.5332">IN_GAME</text></g><g id="requested"><rect fill="#FEFECE" filter="url(#fvq99l0vkithq)" height="50" rx="12.5" ry="12.5" style="stroke:#A80036;stroke-width:1.5;" width="50" x="227.98" y="215"/><line style="stroke:#A80036;stroke-width:1.5;" x1="227.98" x2="277.98" y1="242.6094" y2="242.6094"/><text fill="#000000" font-family="sans-serif" font-size="14" lengthAdjust="spacing" textLength="0" x="254.98" y="234.5332"/></g><g id="allowed"><rect fill="#FEFECE" filter="url(#fvq99l0vkithq)" height="50" rx="12.5" ry="12.5" style="stroke:#A80036;stroke-width:1.5;" width="50" x="227.98" y="343"/><line style="stroke:#A80036;stroke-width:1.5;" x1="227.98" x2="277.98" y1="370.6094" y2="370.6094"/><text fill="#000000" font-family="sans-serif" font-size="14" lengthAdjust="spacing" textLength="0" x="254.98" y="362.5332"/></g><g id="error"><rect fill="#FEFECE" filter="url(#fvq99l0vkithq)" height="50" rx="12.5" ry="12.5" style="stroke:#A80036;stroke-width:1.5;" width="50" x="114.98" y="726"/><line style="stroke:#A80036;stroke-width:1.5;" x1="114.98" x2="164.98" y1="753.6094" y2="753.6094"/><text fill="#000000" font-family="sans-serif" font-size="14" lengthAdjust="spacing" textLength="0" x="141.98" y="745.5332"/></g><g id="ShowBoard"><rect fill="#FEFECE" filter="url(#fvq99l0vkithq)" height="50" rx="12.5" ry="12.5" style="stroke:#A80036;stroke-width:1.5;" width="95" x="396.48" y="646"/><line style="stroke:#A80036;stroke-width:1.5;" x1="396.48" x2="491.48" y1="673.6094" y2="673.6094"/><text fill="#000000" font-family="sans-serif" font-size="14" lengthAdjust="spacing" textLength="75" x="406.48" y="665.5332">Show board</text></g><g id="winner"><rect fill="#FEFECE" filter="url(#fvq99l0vkithq)" height="50" rx="12.5" ry="12.5" style="stroke:#A80036;stroke-width:1.5;" width="50" x="401.98" y="1116"/><line style="stroke:#A80036;stroke-width:1.5;" x1="401.98" x2="451.98" y1="1143.6094" y2="1143.6094"/><text fill="#000000" font-family="sans-serif" font-size="14" lengthAdjust="spacing" textLength="0" x="428.98" y="1135.5332"/></g><g id="looser"><rect fill="#FEFECE" filter="url(#fvq99l0vkithq)" height="50" rx="12.5" ry="12.5" style="stroke:#A80036;stroke-width:1.5;" width="50" x="613.98" y="1116"/><line style="stroke:#A80036;stroke-width:1.5;" x1="613.98" x2="663.98" y1="1143.6094" y2="1143.6094"/><text fill="#000000" font-family="sans-serif" font-size="14" lengthAdjust="spacing" textLength="0" x="640.98" y="1135.5332"/></g><g id="finished"><rect fill="#FEFECE" filter="url(#fvq99l0vkithq)" height="50" rx="12.5" ry="12.5" style="stroke:#A80036;stroke-width:1.5;" width="50" x="399.98" y="1293"/><line style="stroke:#A80036;stroke-width:1.5;" x1="399.98" x2="449.98" y1="1320.6094" y2="1320.6094"/><text fill="#000000" font-family="sans-serif" font-size="14" lengthAdjust="spacing" textLength="0" x="426.98" y="1312.5332"/></g><g id="last"><rect fill="#FEFECE" filter="url(#fvq99l0vkithq)" height="50" rx="12.5" ry="12.5" style="stroke:#A80036;stroke-width:1.5;" width="50" x="172.98" y="948"/><line style="stroke:#A80036;stroke-width:1.5;" x1="172.98" x2="222.98" y1="975.6094" y2="975.6094"/><text fill="#000000" font-family="sans-serif" font-size="14" lengthAdjust="spacing" textLength="0" x="199.98" y="967.5332"/></g><polygon fill="#FEFECE" filter="url(#fvq99l0vkithq)" points="252.98,471,264.98,483,252.98,495,240.98,483,252.98,471" style="stroke:#A80036;stroke-width:1.5;"/><polygon fill="#FEFECE" filter="url(#fvq99l0vkithq)" points="437.98,806,449.98,818,437.98,830,425.98,818,437.98,806" style="stroke:#A80036;stroke-width:1.5;"/><polygon fill="#FEFECE" filter="url(#fvq99l0vkithq)" points="437.98,961,449.98,973,437.98,985,425.98,973,437.98,961" style="stroke:#A80036;stroke-width:1.5;"/><ellipse cx="252.98" cy="16" fill="#000000" filter="url(#fvq99l0vkithq)" rx="10" ry="10" style="stroke:none;stroke-width:1.0;"/><ellipse cx="226.98" cy="1431" fill="none" filter="url(#fvq99l0vkithq)" rx="10" ry="10" style="stroke:#000000;stroke-width:1.0;"/><ellipse cx="227.48" cy="1431.5" fill="#000000" rx="6" ry="6" style="stroke:none;stroke-width:1.0;"/><!--MD5=[bc741243a5bb3318d84c2be45b028a19]
link *start to IN_GAME--><path d="M252.98,26.01 C252.98,38.7 252.98,62.41 252.98,81.57 " fill="none" id="*start-to-IN_GAME" style="stroke:#A80036;stroke-width:1.0;"/><polygon fill="#A80036" points="252.98,86.84,256.98,77.84,252.98,81.84,248.98,77.84,252.98,86.84" style="stroke:#A80036;stroke-width:1.0;"/><!--MD5=[cb6173ff77cdc04f8d8e07efcd41f8ff]
link IN_GAME to requested--><path d="M252.98,137.29 C252.98,157.95 252.98,187.67 252.98,209.65 " fill="none" id="IN_GAME-to-requested" style="stroke:#A80036;stroke-width:1.0;"/><polygon fill="#A80036" points="252.98,214.78,256.98,205.78,252.98,209.78,248.98,205.78,252.98,214.78" style="stroke:#A80036;stroke-width:1.0;"/><text fill="#000000" font-family="sans-serif" font-size="13" lengthAdjust="spacing" textLength="226" x="253.98" y="181.4951">Player requests propose a combination</text><!--MD5=[88d5e542042b4fb9fa98fbbb3d94e471]
link requested to allowed--><path d="M252.98,265.29 C252.98,285.95 252.98,315.67 252.98,337.65 " fill="none" id="requested-to-allowed" style="stroke:#A80036;stroke-width:1.0;"/><polygon fill="#A80036" points="252.98,342.78,256.98,333.78,252.98,337.78,248.98,333.78,252.98,342.78" style="stroke:#A80036;stroke-width:1.0;"/><text fill="#000000" font-family="sans-serif" font-size="13" lengthAdjust="spacing" textLength="241" x="253.98" y="309.4951">System requests a proposed combination</text><!--MD5=[e5cc7d208b298153099280e3951d184e]
link allowed to is_correct--><path d="M252.98,393.24 C252.98,414.99 252.98,446.32 252.98,465.35 " fill="none" id="allowed-to-is_correct" style="stroke:#A80036;stroke-width:1.0;"/><polygon fill="#A80036" points="252.98,470.84,256.98,461.84,252.98,465.84,248.98,461.84,252.98,470.84" style="stroke:#A80036;stroke-width:1.0;"/><text fill="#000000" font-family="sans-serif" font-size="13" lengthAdjust="spacing" textLength="243" x="253.98" y="437.4951">Player introduces a proposed combination</text><!--MD5=[322e35916e3fe5ed92d20e54a8addb28]
link is_correct to ShowBoard--><path d="M263.44,485.01 C297.01,488.47 401.1,500.99 422.98,525 C451.52,556.32 451.81,608.28 448.53,640.75 " fill="none" id="is_correct-to-ShowBoard" style="stroke:#A80036;stroke-width:1.0;"/><polygon fill="#A80036" points="447.98,645.79,452.9333,637.2774,448.5228,640.8195,444.9806,636.409,447.98,645.79" style="stroke:#A80036;stroke-width:1.0;"/><!--MD5=[08af5ad016320016223ca6c53ecc136d]
link is_correct to error--><path d="M242.27,484.51 C204.58,486.54 79.03,495.46 54.98,525 C6,585.16 72.88,676.5 113.25,722.08 " fill="none" id="is_correct-to-error" style="stroke:#A80036;stroke-width:1.0;"/><polygon fill="#A80036" points="116.59,725.81,113.5803,716.4323,113.2602,722.0801,107.6124,721.7599,116.59,725.81" style="stroke:#A80036;stroke-width:1.0;"/><text fill="#000000" font-family="sans-serif" font-size="13" lengthAdjust="spacing" textLength="189" x="140.48" y="539.4951">[incorrect proposed combination]</text><path d="M59.98,548.3516 L59.98,607.3516 L405.98,607.3516 L405.98,558.3516 L395.98,548.3516 L59.98,548.3516 " fill="#FBFB77" filter="url(#fvq99l0vkithq)" style="stroke:#A80036;stroke-width:1.0;"/><path d="M395.98,548.3516 L395.98,558.3516 L405.98,558.3516 L395.98,548.3516 " fill="#FBFB77" style="stroke:#A80036;stroke-width:1.0;"/><text fill="#000000" font-family="sans-serif" font-size="13" lengthAdjust="spacing" textLength="229" x="65.98" y="566.8467">proposedCombination.colors.length != 4</text><text fill="#000000" font-family="sans-serif" font-size="13" lengthAdjust="spacing" textLength="290" x="65.98" y="583.1982">proposedCombination.colors at least one repeated</text><text fill="#000000" font-family="sans-serif" font-size="13" lengthAdjust="spacing" textLength="325" x="65.98" y="599.5498">proposedCombination.colors at least one != Color.values</text><!--MD5=[8861f036e8dce612437ba5673f8e2184]
link error to last--><path d="M146.41,776.38 C157.17,817.21 178.79,899.22 190.33,942.96 " fill="none" id="error-to-last" style="stroke:#A80036;stroke-width:1.0;"/><polygon fill="#A80036" points="191.61,947.84,193.1864,938.1181,190.3368,943.0048,185.4501,940.1552,191.61,947.84" style="stroke:#A80036;stroke-width:1.0;"/><text fill="#000000" font-family="sans-serif" font-size="13" lengthAdjust="spacing" textLength="116" x="161.98" y="823.4951">System shows error</text><!--MD5=[4eba416b40db52bd3d240c8af95f74c8]
link ShowBoard to is_finished--><path d="M442.98,696.27 C441.74,726.08 439.69,775.79 438.64,801.11 " fill="none" id="ShowBoard-to-is_finished" style="stroke:#A80036;stroke-width:1.0;"/><polygon fill="#A80036" points="438.43,806.13,442.8117,797.3095,438.6441,801.1346,434.819,796.967,438.43,806.13" style="stroke:#A80036;stroke-width:1.0;"/><!--MD5=[bafe74a506a7eedf19f245ac5d89b009]
link is_finished to is_winner--><path d="M437.98,830 C437.98,856.56 437.98,924.28 437.98,955.62 " fill="none" id="is_finished-to-is_winner" style="stroke:#A80036;stroke-width:1.0;"/><polygon fill="#A80036" points="437.98,960.68,441.98,951.68,437.98,955.68,433.98,951.68,437.98,960.68" style="stroke:#A80036;stroke-width:1.0;"/><text fill="#000000" font-family="sans-serif" font-size="13" lengthAdjust="spacing" textLength="52" x="468.98" y="874.4951">[finished]</text><path d="M442.98,883.3516 L442.98,909.3516 L542.98,909.3516 L542.98,893.3516 L532.98,883.3516 L442.98,883.3516 " fill="#FBFB77" filter="url(#fvq99l0vkithq)" style="stroke:#A80036;stroke-width:1.0;"/><path d="M532.98,883.3516 L532.98,893.3516 L542.98,893.3516 L532.98,883.3516 " fill="#FBFB77" style="stroke:#A80036;stroke-width:1.0;"/><text fill="#000000" font-family="sans-serif" font-size="13" lengthAdjust="spacing" textLength="79" x="448.98" y="901.8467">winner || loser</text><!--MD5=[a9edb36823706432e4cf5dbd7f7fd8ac]
link is_winner to winner--><path d="M437.29,984.38 C435.65,1009.21 431.44,1072.75 428.94,1110.52 " fill="none" id="is_winner-to-winner" style="stroke:#A80036;stroke-width:1.0;"/><polygon fill="#A80036" points="428.58,1115.89,433.1615,1107.1717,428.9079,1110.9008,425.1788,1106.6471,428.58,1115.89" style="stroke:#A80036;stroke-width:1.0;"/><text fill="#000000" font-family="sans-serif" font-size="13" lengthAdjust="spacing" textLength="45" x="477.48" y="1042.4951">[winner]</text><path d="M438.98,1051.3516 L438.98,1077.3516 L556.98,1077.3516 L556.98,1061.3516 L546.98,1051.3516 L438.98,1051.3516 " fill="#FBFB77" filter="url(#fvq99l0vkithq)" style="stroke:#A80036;stroke-width:1.0;"/><path d="M546.98,1051.3516 L546.98,1061.3516 L556.98,1061.3516 L546.98,1051.3516 " fill="#FBFB77" style="stroke:#A80036;stroke-width:1.0;"/><text fill="#000000" font-family="sans-serif" font-size="13" lengthAdjust="spacing" textLength="97" x="444.98" y="1069.8467">result.blacks = 4</text><!--MD5=[110b45469edeaa4781f2fa19a67a7221]
link is_winner to looser--><path d="M447.68,975.59 C471.67,979.96 534.73,994.16 573.98,1028 C600,1050.43 618.12,1085.99 628.5,1111.01 " fill="none" id="is_winner-to-looser" style="stroke:#A80036;stroke-width:1.0;"/><polygon fill="#A80036" points="630.47,1115.87,630.7787,1106.026,628.5835,1111.2395,623.37,1109.0444,630.47,1115.87" style="stroke:#A80036;stroke-width:1.0;"/><text fill="#000000" font-family="sans-serif" font-size="13" lengthAdjust="spacing" textLength="36" x="716.48" y="1042.4951">[loser]</text><path d="M619.98,1051.3516 L619.98,1077.3516 L844.98,1077.3516 L844.98,1061.3516 L834.98,1051.3516 L619.98,1051.3516 " fill="#FBFB77" filter="url(#fvq99l0vkithq)" style="stroke:#A80036;stroke-width:1.0;"/><path d="M834.98,1051.3516 L834.98,1061.3516 L844.98,1061.3516 L834.98,1051.3516 " fill="#FBFB77" style="stroke:#A80036;stroke-width:1.0;"/><text fill="#000000" font-family="sans-serif" font-size="13" lengthAdjust="spacing" textLength="204" x="625.98" y="1069.8467">result.blacks &lt; 4 &amp;&amp; attempts = 10</text><!--MD5=[6a9906541693f74107af026827f0d8df]
link is_finished to last--><path d="M431.06,823.41 C401.32,842.37 283.42,917.53 227.59,953.12 " fill="none" id="is_finished-to-last" style="stroke:#A80036;stroke-width:1.0;"/><polygon fill="#A80036" points="223.36,955.82,233.0995,954.3564,227.5765,953.1328,228.8001,947.6099,223.36,955.82" style="stroke:#A80036;stroke-width:1.0;"/><!--MD5=[ff0ac845adfb42913b3584196bbdcdc5]
link winner to finished--><path d="M424.27,1166.16 C423.34,1175.47 422.43,1186.22 421.98,1196 C420.61,1225.75 421.16,1233.23 421.98,1263 C422.2,1270.93 422.6,1279.51 423.04,1287.44 " fill="none" id="winner-to-finished" style="stroke:#A80036;stroke-width:1.0;"/><polygon fill="#A80036" points="423.35,1292.82,426.8285,1283.6059,423.0639,1287.8282,418.8416,1284.0636,423.35,1292.82" style="stroke:#A80036;stroke-width:1.0;"/><text fill="#000000" font-family="sans-serif" font-size="13" lengthAdjust="spacing" textLength="184" x="422.98" y="1234.9951">System shows winner message</text><!--MD5=[86935a91d5f22b7ec58c171ad0db4001]
link looser to finished--><path d="M640.39,1166.21 C640.59,1193.3 636.6,1236.81 611.98,1263 C570.92,1306.68 496.96,1315.75 455.42,1317.21 " fill="none" id="looser-to-finished" style="stroke:#A80036;stroke-width:1.0;"/><polygon fill="#A80036" points="450.27,1317.35,459.3806,1321.0913,455.268,1317.2072,459.1521,1313.0946,450.27,1317.35" style="stroke:#A80036;stroke-width:1.0;"/><text fill="#000000" font-family="sans-serif" font-size="13" lengthAdjust="spacing" textLength="175" x="638.98" y="1234.9951">System shows loser message</text><!--MD5=[62f5431c62ca06a9e4048299cbf52b51]
link last to *end--><path d="M199.52,998.19 C204.77,1080.77 221.89,1349.98 226.06,1415.52 " fill="none" id="last-to-*end" style="stroke:#A80036;stroke-width:1.0;"/><polygon fill="#A80036" points="226.4,1420.88,229.7995,1411.6364,226.0712,1415.8908,221.8168,1412.1625,226.4,1420.88" style="stroke:#A80036;stroke-width:1.0;"/><text fill="#000000" font-family="sans-serif" font-size="13" lengthAdjust="spacing" textLength="137" x="241.98" y="1210.4951">System allows Propose</text><text fill="#000000" font-family="sans-serif" font-size="13" lengthAdjust="spacing" textLength="112" x="254.48" y="1226.8467">System allows Exit</text><text fill="#000000" font-family="sans-serif" font-size="13" lengthAdjust="spacing" textLength="185" x="217.98" y="1243.1982">System allows Undo if undoable</text><text fill="#000000" font-family="sans-serif" font-size="13" lengthAdjust="spacing" textLength="182" x="219.48" y="1259.5498">System allows Redo if redoable</text><!--MD5=[f20ab7065c26ebabf49f7b8c32a28769]
link finished to *end--><path d="M399.91,1333.06 C357.26,1356.97 272.08,1404.72 239.79,1422.82 " fill="none" id="finished-to-*end" style="stroke:#A80036;stroke-width:1.0;"/><polygon fill="#A80036" points="235.42,1425.27,245.2265,1424.3577,239.7813,1422.8248,241.3142,1417.3796,235.42,1425.27" style="stroke:#A80036;stroke-width:1.0;"/><text fill="#000000" font-family="sans-serif" font-size="13" lengthAdjust="spacing" textLength="190" x="326.98" y="1387.4951">System allows to Save the game</text><!--MD5=[461ebfc623baaf36452fcdfc569c2958]
@startuml propose_combination_usecase
state IN_GAME
state requested as " "
state allowed as " "
state error as " "
state ShowBoard as "Show board"
state winner as " "
state looser as " "
state finished as " "
state last as " "
state is_correct <<choice>>
state is_finished <<choice>>
state is_winner <<choice>>

[*] - -> IN_GAME
IN_GAME - -> requested: Player requests propose a combination
requested - -> allowed: System requests a proposed combination
allowed - -> is_correct: Player introduces a proposed combination
is_correct - -> ShowBoard
is_correct - -> error: [incorrect proposed combination]
note on link
  proposedCombination.colors.length != 4
  proposedCombination.colors at least one repeated
  proposedCombination.colors at least one != Color.values
end note
error - -> last: System shows error
ShowBoard - -> is_finished
is_finished - -> is_winner: [finished]
note on link
  winner || loser
end note
is_winner - -> winner: [winner]
note on link
  result.blacks = 4
end note
is_winner - -> looser: [loser]
note on link
  result.blacks < 4 && attempts = 10
end note
is_finished - -> last
winner - -> finished: System shows winner message
looser - -> finished: System shows loser message
last - -> [*]: System allows Propose\nSystem allows Exit\nSystem allows Undo if undoable\nSystem allows Redo if redoable
finished - -> [*]: System allows to Save the game
@enduml

PlantUML version 1.2021.00(Sun Jan 10 11:25:05 CET 2021)
(GPL source distribution)
Java Runtime: Java(TM) SE Runtime Environment
JVM: Java HotSpot(TM) 64-Bit Server VM
Default Encoding: Cp1252
Language: es
Country: ES
--></g></svg>