<?xml version="1.0" encoding="UTF-8" standalone="no"?><svg xmlns="http://www.w3.org/2000/svg" xmlns:xlink="http://www.w3.org/1999/xlink" contentScriptType="application/ecmascript" contentStyleType="text/css" height="998px" preserveAspectRatio="none" style="width:387px;height:998px;" version="1.1" viewBox="0 0 387 998" width="387px" zoomAndPan="magnify"><defs><filter height="300%" id="fbx61ij0cmxbj" width="300%" x="-1" y="-1"><feGaussianBlur result="blurOut" stdDeviation="2.0"/><feColorMatrix in="blurOut" result="blurOut2" type="matrix" values="0 0 0 0 0 0 0 0 0 0 0 0 0 0 0 0 0 0 .4 0"/><feOffset dx="4.0" dy="4.0" in="blurOut2" result="blurOut3"/><feBlend in="SourceGraphic" in2="blurOut3" mode="normal"/></filter></defs><g><g id="OUT_GAME"><rect fill="#FEFECE" filter="url(#fbx61ij0cmxbj)" height="50" rx="12.5" ry="12.5" style="stroke:#A80036;stroke-width:1.5;" width="97" x="7" y="87"/><line style="stroke:#A80036;stroke-width:1.5;" x1="7" x2="104" y1="114.6094" y2="114.6094"/><text fill="#000000" font-family="sans-serif" font-size="14" lengthAdjust="spacing" textLength="77" x="17" y="106.5332">OUT_GAME</text></g><g id="FINAL"><rect fill="#FEFECE" filter="url(#fbx61ij0cmxbj)" height="50" rx="12.5" ry="12.5" style="stroke:#A80036;stroke-width:1.5;" width="58" x="26.5" y="855"/><line style="stroke:#A80036;stroke-width:1.5;" x1="26.5" x2="84.5" y1="882.6094" y2="882.6094"/><text fill="#000000" font-family="sans-serif" font-size="14" lengthAdjust="spacing" textLength="38" x="36.5" y="874.5332">FINAL</text></g><g id="requested"><rect fill="#FEFECE" filter="url(#fbx61ij0cmxbj)" height="50" rx="12.5" ry="12.5" style="stroke:#A80036;stroke-width:1.5;" width="50" x="30.5" y="215"/><line style="stroke:#A80036;stroke-width:1.5;" x1="30.5" x2="80.5" y1="242.6094" y2="242.6094"/><text fill="#000000" font-family="sans-serif" font-size="14" lengthAdjust="spacing" textLength="0" x="57.5" y="234.5332"/></g><g id="allowed"><rect fill="#FEFECE" filter="url(#fbx61ij0cmxbj)" height="50" rx="12.5" ry="12.5" style="stroke:#A80036;stroke-width:1.5;" width="50" x="30.5" y="343"/><line style="stroke:#A80036;stroke-width:1.5;" x1="30.5" x2="80.5" y1="370.6094" y2="370.6094"/><text fill="#000000" font-family="sans-serif" font-size="14" lengthAdjust="spacing" textLength="0" x="57.5" y="362.5332"/></g><g id="introduced"><rect fill="#FEFECE" filter="url(#fbx61ij0cmxbj)" height="50" rx="12.5" ry="12.5" style="stroke:#A80036;stroke-width:1.5;" width="50" x="30.5" y="727"/><line style="stroke:#A80036;stroke-width:1.5;" x1="30.5" x2="80.5" y1="754.6094" y2="754.6094"/><text fill="#000000" font-family="sans-serif" font-size="14" lengthAdjust="spacing" textLength="0" x="57.5" y="746.5332"/></g><g id="yes"><rect fill="#FEFECE" filter="url(#fbx61ij0cmxbj)" height="50" rx="12.5" ry="12.5" style="stroke:#A80036;stroke-width:1.5;" width="50" x="120.5" y="471"/><line style="stroke:#A80036;stroke-width:1.5;" x1="120.5" x2="170.5" y1="498.6094" y2="498.6094"/><text fill="#000000" font-family="sans-serif" font-size="14" lengthAdjust="spacing" textLength="0" x="147.5" y="490.5332"/></g><g id="request_name"><rect fill="#FEFECE" filter="url(#fbx61ij0cmxbj)" height="50" rx="12.5" ry="12.5" style="stroke:#A80036;stroke-width:1.5;" width="50" x="120.5" y="599"/><line style="stroke:#A80036;stroke-width:1.5;" x1="120.5" x2="170.5" y1="626.6094" y2="626.6094"/><text fill="#000000" font-family="sans-serif" font-size="14" lengthAdjust="spacing" textLength="0" x="147.5" y="618.5332"/></g><ellipse cx="55.5" cy="16" fill="#000000" filter="url(#fbx61ij0cmxbj)" rx="10" ry="10" style="stroke:none;stroke-width:1.0;"/><ellipse cx="55.5" cy="976" fill="none" filter="url(#fbx61ij0cmxbj)" rx="10" ry="10" style="stroke:#000000;stroke-width:1.0;"/><ellipse cx="56" cy="976.5" fill="#000000" rx="6" ry="6" style="stroke:none;stroke-width:1.0;"/><!--MD5=[7c19ab49203e8050f03a6b6cfb3bf521]
link *start to OUT_GAME--><path d="M55.5,26.01 C55.5,38.7 55.5,62.41 55.5,81.57 " fill="none" id="*start-to-OUT_GAME" style="stroke:#A80036;stroke-width:1.0;"/><polygon fill="#A80036" points="55.5,86.84,59.5,77.84,55.5,81.84,51.5,77.84,55.5,86.84" style="stroke:#A80036;stroke-width:1.0;"/><!--MD5=[3702387100ac199117ed8c3fc5d870aa]
link OUT_GAME to requested--><path d="M55.5,137.29 C55.5,157.95 55.5,187.67 55.5,209.65 " fill="none" id="OUT_GAME-to-requested" style="stroke:#A80036;stroke-width:1.0;"/><polygon fill="#A80036" points="55.5,214.78,59.5,205.78,55.5,209.78,51.5,205.78,55.5,214.78" style="stroke:#A80036;stroke-width:1.0;"/><text fill="#000000" font-family="sans-serif" font-size="13" lengthAdjust="spacing" textLength="194" x="56.5" y="181.4951">Player requests to save the game</text><!--MD5=[88d5e542042b4fb9fa98fbbb3d94e471]
link requested to allowed--><path d="M55.5,265.29 C55.5,285.95 55.5,315.67 55.5,337.65 " fill="none" id="requested-to-allowed" style="stroke:#A80036;stroke-width:1.0;"/><polygon fill="#A80036" points="55.5,342.78,59.5,333.78,55.5,337.78,51.5,333.78,55.5,342.78" style="stroke:#A80036;stroke-width:1.0;"/><text fill="#000000" font-family="sans-serif" font-size="13" lengthAdjust="spacing" textLength="160" x="56.5" y="309.4951">System requests to confirm</text><!--MD5=[3bafac0171b6cc1cf62871edf68e5da4]
link allowed to introduced--><path d="M49.14,393.21 C40.4,427.87 25.1,493.78 19.5,551 C13.49,612.33 32.44,683.07 45.09,721.83 " fill="none" id="allowed-to-introduced" style="stroke:#A80036;stroke-width:1.0;"/><polygon fill="#A80036" points="46.75,726.85,47.7164,717.0487,45.1774,722.1037,40.1224,719.5648,46.75,726.85" style="stroke:#A80036;stroke-width:1.0;"/><text fill="#000000" font-family="sans-serif" font-size="13" lengthAdjust="spacing" textLength="119" x="20.5" y="565.4951">Player introduces no</text><!--MD5=[607bdaa3699fcc9aab37eb600677de11]
link allowed to yes--><path d="M72.85,393.29 C87.79,414.21 109.37,444.42 125.13,466.48 " fill="none" id="allowed-to-yes" style="stroke:#A80036;stroke-width:1.0;"/><polygon fill="#A80036" points="128.2,470.78,126.2142,461.1334,125.2898,466.7142,119.709,465.7898,128.2,470.78" style="stroke:#A80036;stroke-width:1.0;"/><text fill="#000000" font-family="sans-serif" font-size="13" lengthAdjust="spacing" textLength="126" x="106.5" y="437.4951">Player introduces yes</text><!--MD5=[4f9b53e45491bdc0341d26630a822935]
link yes to request_name--><path d="M147.13,521.18 C147.68,530.5 148.23,541.24 148.5,551 C148.89,565.02 148.36,580.57 147.65,593.62 " fill="none" id="yes-to-request_name" style="stroke:#A80036;stroke-width:1.0;"/><polygon fill="#A80036" points="147.35,598.68,151.8833,589.9365,147.6503,593.689,143.8978,589.456,147.35,598.68" style="stroke:#A80036;stroke-width:1.0;"/><text fill="#000000" font-family="sans-serif" font-size="13" lengthAdjust="spacing" textLength="230" x="149.5" y="565.4951">System request a name for saved game</text><!--MD5=[6780bc878329aee196f86412bd882e2a]
link request_name to introduced--><path d="M128.15,649.29 C113.21,670.21 91.63,700.42 75.87,722.48 " fill="none" id="request_name-to-introduced" style="stroke:#A80036;stroke-width:1.0;"/><polygon fill="#A80036" points="72.8,726.78,81.291,721.7898,75.7102,722.7142,74.7858,717.1334,72.8,726.78" style="stroke:#A80036;stroke-width:1.0;"/><text fill="#000000" font-family="sans-serif" font-size="13" lengthAdjust="spacing" textLength="148" x="106.5" y="693.4951">Player introduces a name</text><!--MD5=[e0a2c2a0399b01af18835a87b9522ccd]
link introduced to FINAL--><path d="M55.5,777.29 C55.5,797.95 55.5,827.67 55.5,849.65 " fill="none" id="introduced-to-FINAL" style="stroke:#A80036;stroke-width:1.0;"/><polygon fill="#A80036" points="55.5,854.78,59.5,845.78,55.5,849.78,51.5,845.78,55.5,854.78" style="stroke:#A80036;stroke-width:1.0;"/><text fill="#000000" font-family="sans-serif" font-size="13" lengthAdjust="spacing" textLength="137" x="56.5" y="821.4951">System allows Resume</text><!--MD5=[374d441c28ba7e7a281df065514906a0]
link FINAL to *end--><path d="M55.5,905.21 C55.5,922.84 55.5,946.13 55.5,960.84 " fill="none" id="FINAL-to-*end" style="stroke:#A80036;stroke-width:1.0;"/><polygon fill="#A80036" points="55.5,965.84,59.5,956.84,55.5,960.84,51.5,956.84,55.5,965.84" style="stroke:#A80036;stroke-width:1.0;"/><!--MD5=[5c80ca16343f2db4271e655c347b506c]
@startuml save_usecase
state OUT_GAME
state FINAL
state requested as " "
state allowed as " "
state introduced as " "
state yes as " "
state request_name as " "

[*] - -> OUT_GAME
OUT_GAME - -> requested: Player requests to save the game
requested - -> allowed: System requests to confirm
allowed - -> introduced: Player introduces no
allowed - -> yes: Player introduces yes
yes - -> request_name: System request a name for saved game
request_name - -> introduced: Player introduces a name
introduced - -> FINAL: System allows Resume 
FINAL - -> [*]
@enduml

PlantUML version 1.2021.00(Sun Jan 10 11:25:05 CET 2021)
(GPL source distribution)
Java Runtime: Java(TM) SE Runtime Environment
JVM: Java HotSpot(TM) 64-Bit Server VM
Default Encoding: Cp1252
Language: es
Country: ES
--></g></svg>