<?xml version="1.0" encoding="UTF-8" standalone="no"?><svg xmlns="http://www.w3.org/2000/svg" xmlns:xlink="http://www.w3.org/1999/xlink" contentScriptType="application/ecmascript" contentStyleType="text/css" height="392px" preserveAspectRatio="none" style="width:335px;height:392px;" version="1.1" viewBox="0 0 335 392" width="335px" zoomAndPan="magnify"><defs><filter height="300%" id="f94e4ohvhciay" width="300%" x="-1" y="-1"><feGaussianBlur result="blurOut" stdDeviation="2.0"/><feColorMatrix in="blurOut" result="blurOut2" type="matrix" values="0 0 0 0 0 0 0 0 0 0 0 0 0 0 0 0 0 0 .4 0"/><feOffset dx="4.0" dy="4.0" in="blurOut2" result="blurOut3"/><feBlend in="SourceGraphic" in2="blurOut3" mode="normal"/></filter></defs><g><g id="attempts_shown"><rect fill="#FEFECE" filter="url(#f94e4ohvhciay)" height="50" rx="12.5" ry="12.5" style="stroke:#A80036;stroke-width:1.5;" width="50" x="7" y="104"/><line style="stroke:#A80036;stroke-width:1.5;" x1="7" x2="57" y1="131.6094" y2="131.6094"/><text fill="#000000" font-family="sans-serif" font-size="14" lengthAdjust="spacing" textLength="0" x="34" y="123.5332"/></g><g id="combinations_shown"><rect fill="#FEFECE" filter="url(#f94e4ohvhciay)" height="50" rx="12.5" ry="12.5" style="stroke:#A80036;stroke-width:1.5;" width="50" x="7" y="232"/><line style="stroke:#A80036;stroke-width:1.5;" x1="7" x2="57" y1="259.6094" y2="259.6094"/><text fill="#000000" font-family="sans-serif" font-size="14" lengthAdjust="spacing" textLength="0" x="34" y="251.5332"/></g><ellipse cx="32" cy="16" fill="#000000" filter="url(#f94e4ohvhciay)" rx="10" ry="10" style="stroke:none;stroke-width:1.0;"/><ellipse cx="32" cy="370" fill="none" filter="url(#f94e4ohvhciay)" rx="10" ry="10" style="stroke:#000000;stroke-width:1.0;"/><ellipse cx="32.5" cy="370.5" fill="#000000" rx="6" ry="6" style="stroke:none;stroke-width:1.0;"/><!--MD5=[468abefdebb2b4c77bfa7a638f6c4890]
link *start to attempts_shown--><path d="M32,26.08 C32,41.75 32,74.47 32,98.64 " fill="none" id="*start-to-attempts_shown" style="stroke:#A80036;stroke-width:1.0;"/><polygon fill="#A80036" points="32,103.65,36,94.65,32,98.65,28,94.65,32,103.65" style="stroke:#A80036;stroke-width:1.0;"/><text fill="#000000" font-family="sans-serif" font-size="13" lengthAdjust="spacing" textLength="141" x="33" y="70.4951">System shows attempts</text><!--MD5=[0ca90e86a7b8ece23fa80c99afd04211]
link attempts_shown to combinations_shown--><path d="M32,154.29 C32,174.95 32,204.67 32,226.65 " fill="none" id="attempts_shown-to-combinations_shown" style="stroke:#A80036;stroke-width:1.0;"/><polygon fill="#A80036" points="32,231.78,36,222.78,32,226.78,28,222.78,32,231.78" style="stroke:#A80036;stroke-width:1.0;"/><text fill="#000000" font-family="sans-serif" font-size="13" lengthAdjust="spacing" textLength="252" x="33" y="198.4951">System shows secret combination as "****"</text><!--MD5=[af80d56f3d1ceda3601f00ec1295c111]
link combinations_shown to *end--><path d="M32,282.09 C32,304.16 32,336.12 32,354.5 " fill="none" id="combinations_shown-to-*end" style="stroke:#A80036;stroke-width:1.0;"/><polygon fill="#A80036" points="32,359.75,36,350.75,32,354.75,28,350.75,32,359.75" style="stroke:#A80036;stroke-width:1.0;"/><text fill="#000000" font-family="sans-serif" font-size="13" lengthAdjust="spacing" textLength="294" x="33" y="326.4951">System shows proposed combinations with results</text><!--MD5=[32380266270164a7c9c9ef11c19b9eb7]
@startuml show_board_action
state attempts_shown as " "
state combinations_shown as " "
[*] - -> attempts_shown: System shows attempts
attempts_shown - -> combinations_shown: System shows secret combination as "****"
combinations_shown - -> [*]: System shows proposed combinations with results
@enduml

PlantUML version 1.2021.00(Sun Jan 10 11:25:05 CET 2021)
(GPL source distribution)
Java Runtime: Java(TM) SE Runtime Environment
JVM: Java HotSpot(TM) 64-Bit Server VM
Default Encoding: Cp1252
Language: es
Country: ES
--></g></svg>