<?xml version="1.0" encoding="UTF-8" standalone="no"?><svg xmlns="http://www.w3.org/2000/svg" xmlns:xlink="http://www.w3.org/1999/xlink" contentScriptType="application/ecmascript" contentStyleType="text/css" height="725px" preserveAspectRatio="none" style="width:273px;height:725px;" version="1.1" viewBox="0 0 273 725" width="273px" zoomAndPan="magnify"><defs><filter height="300%" id="f1l4w2r6awt45r" width="300%" x="-1" y="-1"><feGaussianBlur result="blurOut" stdDeviation="2.0"/><feColorMatrix in="blurOut" result="blurOut2" type="matrix" values="0 0 0 0 0 0 0 0 0 0 0 0 0 0 0 0 0 0 .4 0"/><feOffset dx="4.0" dy="4.0" in="blurOut2" result="blurOut3"/><feBlend in="SourceGraphic" in2="blurOut3" mode="normal"/></filter></defs><g><g id="INITIAL"><rect fill="#FEFECE" filter="url(#f1l4w2r6awt45r)" height="50" rx="12.5" ry="12.5" style="stroke:#A80036;stroke-width:1.5;" width="64" x="22.5" y="87"/><line style="stroke:#A80036;stroke-width:1.5;" x1="22.5" x2="86.5" y1="114.6094" y2="114.6094"/><text fill="#000000" font-family="sans-serif" font-size="14" lengthAdjust="spacing" textLength="44" x="32.5" y="106.5332">INITIAL</text></g><g id="IN_GAME"><rect fill="#FEFECE" filter="url(#f1l4w2r6awt45r)" height="50" rx="12.5" ry="12.5" style="stroke:#A80036;stroke-width:1.5;" width="80" x="14.5" y="582"/><line style="stroke:#A80036;stroke-width:1.5;" x1="14.5" x2="94.5" y1="609.6094" y2="609.6094"/><text fill="#000000" font-family="sans-serif" font-size="14" lengthAdjust="spacing" textLength="60" x="24.5" y="601.5332">IN_GAME</text></g><g id="start"><rect fill="#FEFECE" filter="url(#f1l4w2r6awt45r)" height="50" rx="12.5" ry="12.5" style="stroke:#A80036;stroke-width:1.5;" width="50" x="29.5" y="215"/><line style="stroke:#A80036;stroke-width:1.5;" x1="29.5" x2="79.5" y1="242.6094" y2="242.6094"/><text fill="#000000" font-family="sans-serif" font-size="14" lengthAdjust="spacing" textLength="0" x="56.5" y="234.5332"/></g><g id="ShowBoard"><rect fill="#FEFECE" filter="url(#f1l4w2r6awt45r)" height="50" rx="12.5" ry="12.5" style="stroke:#A80036;stroke-width:1.5;" width="95" x="7" y="343"/><line style="stroke:#A80036;stroke-width:1.5;" x1="7" x2="102" y1="370.6094" y2="370.6094"/><text fill="#000000" font-family="sans-serif" font-size="14" lengthAdjust="spacing" textLength="75" x="17" y="362.5332">Show board</text></g><g id="showed"><rect fill="#FEFECE" filter="url(#f1l4w2r6awt45r)" height="50" rx="12.5" ry="12.5" style="stroke:#A80036;stroke-width:1.5;" width="50" x="29.5" y="454"/><line style="stroke:#A80036;stroke-width:1.5;" x1="29.5" x2="79.5" y1="481.6094" y2="481.6094"/><text fill="#000000" font-family="sans-serif" font-size="14" lengthAdjust="spacing" textLength="0" x="56.5" y="473.5332"/></g><ellipse cx="54.5" cy="16" fill="#000000" filter="url(#f1l4w2r6awt45r)" rx="10" ry="10" style="stroke:none;stroke-width:1.0;"/><ellipse cx="54.5" cy="703" fill="none" filter="url(#f1l4w2r6awt45r)" rx="10" ry="10" style="stroke:#000000;stroke-width:1.0;"/><ellipse cx="55" cy="703.5" fill="#000000" rx="6" ry="6" style="stroke:none;stroke-width:1.0;"/><!--MD5=[06c3f2024f4ea60966e79307ee69ec5f]
link *start to INITIAL--><path d="M54.5,26.01 C54.5,38.7 54.5,62.41 54.5,81.57 " fill="none" id="*start-to-INITIAL" style="stroke:#A80036;stroke-width:1.0;"/><polygon fill="#A80036" points="54.5,86.84,58.5,77.84,54.5,81.84,50.5,77.84,54.5,86.84" style="stroke:#A80036;stroke-width:1.0;"/><!--MD5=[633a00f1c77513bf3fc07c487e97d493]
link INITIAL to start--><path d="M54.5,137.29 C54.5,157.95 54.5,187.67 54.5,209.65 " fill="none" id="INITIAL-to-start" style="stroke:#A80036;stroke-width:1.0;"/><polygon fill="#A80036" points="54.5,214.78,58.5,205.78,54.5,209.78,50.5,205.78,54.5,214.78" style="stroke:#A80036;stroke-width:1.0;"/><text fill="#000000" font-family="sans-serif" font-size="13" lengthAdjust="spacing" textLength="210" x="55.5" y="181.4951">Player requests to start a new game</text><!--MD5=[0fad0d04e143d2803812dde19ac4d1a9]
link start to ShowBoard--><path d="M54.5,265.29 C54.5,285.95 54.5,315.67 54.5,337.65 " fill="none" id="start-to-ShowBoard" style="stroke:#A80036;stroke-width:1.0;"/><polygon fill="#A80036" points="54.5,342.78,58.5,333.78,54.5,337.78,50.5,333.78,54.5,342.78" style="stroke:#A80036;stroke-width:1.0;"/><text fill="#000000" font-family="sans-serif" font-size="13" lengthAdjust="spacing" textLength="168" x="55.5" y="309.4951">System shows title message</text><!--MD5=[da6e7144752851676080c1e9eb35d3cb]
link ShowBoard to showed--><path d="M54.5,393.19 C54.5,409.56 54.5,431.28 54.5,448.64 " fill="none" id="ShowBoard-to-showed" style="stroke:#A80036;stroke-width:1.0;"/><polygon fill="#A80036" points="54.5,453.88,58.5,444.88,54.5,448.88,50.5,444.88,54.5,453.88" style="stroke:#A80036;stroke-width:1.0;"/><!--MD5=[0d0388ba88ff3dc2b7979df1a5e6894e]
link showed to IN_GAME--><path d="M54.5,504.29 C54.5,524.95 54.5,554.67 54.5,576.65 " fill="none" id="showed-to-IN_GAME" style="stroke:#A80036;stroke-width:1.0;"/><polygon fill="#A80036" points="54.5,581.78,58.5,572.78,54.5,576.78,50.5,572.78,54.5,581.78" style="stroke:#A80036;stroke-width:1.0;"/><text fill="#000000" font-family="sans-serif" font-size="13" lengthAdjust="spacing" textLength="137" x="55.5" y="548.4951">System allows Propose</text><!--MD5=[3eaa5feacff75f8f898238c0910154c4]
link IN_GAME to *end--><path d="M54.5,632.21 C54.5,649.84 54.5,673.13 54.5,687.84 " fill="none" id="IN_GAME-to-*end" style="stroke:#A80036;stroke-width:1.0;"/><polygon fill="#A80036" points="54.5,692.84,58.5,683.84,54.5,687.84,50.5,683.84,54.5,692.84" style="stroke:#A80036;stroke-width:1.0;"/><!--MD5=[2cbb9da8df13e913803b9cced8bbf5c1]
@startuml start_usecase
state INITIAL
state IN_GAME
state start as " "
state ShowBoard as "Show board"
state showed as " "

[*] - -> INITIAL
INITIAL - -> start: Player requests to start a new game
start - -> ShowBoard: System shows title message
ShowBoard - -> showed
showed - -> IN_GAME: System allows Propose
IN_GAME - -> [*]
@enduml

PlantUML version 1.2021.00(Sun Jan 10 11:25:05 CET 2021)
(GPL source distribution)
Java Runtime: Java(TM) SE Runtime Environment
JVM: Java HotSpot(TM) 64-Bit Server VM
Default Encoding: Cp1252
Language: es
Country: ES
--></g></svg>