<?xml version="1.0" encoding="UTF-8" standalone="no"?><svg xmlns="http://www.w3.org/2000/svg" xmlns:xlink="http://www.w3.org/1999/xlink" contentScriptType="application/ecmascript" contentStyleType="text/css" height="196px" preserveAspectRatio="none" style="width:320px;height:196px;" version="1.1" viewBox="0 0 320 196" width="320px" zoomAndPan="magnify"><defs><filter height="300%" id="f1r9815sd1l6gr" width="300%" x="-1" y="-1"><feGaussianBlur result="blurOut" stdDeviation="2.0"/><feColorMatrix in="blurOut" result="blurOut2" type="matrix" values="0 0 0 0 0 0 0 0 0 0 0 0 0 0 0 0 0 0 .4 0"/><feOffset dx="4.0" dy="4.0" in="blurOut2" result="blurOut3"/><feBlend in="SourceGraphic" in2="blurOut3" mode="normal"/></filter></defs><g><!--MD5=[67cd15ce44b6dd54f77054b62c31bf42]
cluster types--><polygon fill="#FFFFFF" filter="url(#f1r9815sd1l6gr)" points="16,6,60,6,67,29.6094,303,29.6094,303,189,16,189,16,6" style="stroke:#000000;stroke-width:1.5;"/><line style="stroke:#000000;stroke-width:1.5;" x1="16" x2="67" y1="29.6094" y2="29.6094"/><text fill="#000000" font-family="sans-serif" font-size="14" font-weight="bold" lengthAdjust="spacing" textLength="38" x="20" y="22.5332">types</text><!--MD5=[18eee71c88ab61f27581b8cbdd3ef5ee]
class Color--><rect codeLine="2" fill="#FEFECE" filter="url(#f1r9815sd1l6gr)" height="131.0156" id="Color" style="stroke:#A80036;stroke-width:1.5;" width="77" x="209.5" y="42"/><ellipse cx="231.25" cy="58" fill="#EB937F" rx="11" ry="11" style="stroke:#A80036;stroke-width:1.0;"/><path d="M230.1094,58.7969 L230.1094,61.2969 L234.4375,61.2969 L234.4375,60.375 Q234.4375,59.7656 234.6797,59.5 Q234.9219,59.2344 235.2969,59.2344 Q235.6719,59.2344 235.9063,59.5 Q236.1406,59.7656 236.1406,60.375 L236.1406,63 L228.1406,63 Q227.5156,63 227.2578,62.7656 Q227,62.5313 227,62.1406 Q227,61.7656 227.2656,61.5313 Q227.5313,61.2969 228.1406,61.2969 L228.4063,61.2969 L228.4063,54.6406 L228.1406,54.6406 Q227.5156,54.6406 227.2578,54.4063 Q227,54.1719 227,53.7813 Q227,53.4063 227.2578,53.1719 Q227.5156,52.9375 228.1406,52.9375 L235.7656,52.9375 L235.7656,55.5313 Q235.7656,56.1406 235.5391,56.3984 Q235.3125,56.6563 234.9219,56.6563 Q234.5469,56.6563 234.3125,56.3984 Q234.0781,56.1406 234.0781,55.5313 L234.0781,54.6406 L230.1094,54.6406 L230.1094,57.0938 L231.5938,57.0938 Q231.5938,56.4375 231.7188,56.25 Q231.9844,55.8438 232.4531,55.8438 Q232.8281,55.8438 233.0625,56.1016 Q233.2969,56.3594 233.2969,56.9688 L233.2969,58.9375 Q233.2969,59.4844 233.1719,59.6719 Q232.9063,60.0625 232.4531,60.0625 Q231.9844,60.0625 231.7188,59.6563 Q231.5938,59.4688 231.5938,58.7969 L230.1094,58.7969 Z " fill="#000000"/><text fill="#000000" font-family="sans-serif" font-size="12" lengthAdjust="spacing" textLength="30" x="246.75" y="62.9102">Color</text><line style="stroke:#A80036;stroke-width:1.5;" x1="210.5" x2="285.5" y1="74" y2="74"/><ellipse cx="220.5" cy="85" fill="none" rx="3" ry="3" style="stroke:#038048;stroke-width:1.0;"/><text fill="#000000" font-family="sans-serif" font-size="11" lengthAdjust="spacing" textLength="20" x="229.5" y="89.4189">RED</text><ellipse cx="220.5" cy="98.8359" fill="none" rx="3" ry="3" style="stroke:#038048;stroke-width:1.0;"/><text fill="#000000" font-family="sans-serif" font-size="11" lengthAdjust="spacing" textLength="34" x="229.5" y="103.2549">GREEN</text><ellipse cx="220.5" cy="112.6719" fill="none" rx="3" ry="3" style="stroke:#038048;stroke-width:1.0;"/><text fill="#000000" font-family="sans-serif" font-size="11" lengthAdjust="spacing" textLength="44" x="229.5" y="117.0908">YELLOW</text><ellipse cx="220.5" cy="126.5078" fill="none" rx="3" ry="3" style="stroke:#038048;stroke-width:1.0;"/><text fill="#000000" font-family="sans-serif" font-size="11" lengthAdjust="spacing" textLength="26" x="229.5" y="130.9268">BLUE</text><ellipse cx="220.5" cy="140.3438" fill="none" rx="3" ry="3" style="stroke:#038048;stroke-width:1.0;"/><text fill="#000000" font-family="sans-serif" font-size="11" lengthAdjust="spacing" textLength="51" x="229.5" y="144.7627">MAGENTA</text><ellipse cx="220.5" cy="154.1797" fill="none" rx="3" ry="3" style="stroke:#038048;stroke-width:1.0;"/><text fill="#000000" font-family="sans-serif" font-size="11" lengthAdjust="spacing" textLength="30" x="229.5" y="158.5986">CYAN</text><line style="stroke:#A80036;stroke-width:1.5;" x1="210.5" x2="285.5" y1="165.0156" y2="165.0156"/><!--MD5=[b8cfd8c4119a3b0a7a46bfc5fc780f85]
class Error--><rect codeLine="11" fill="#FEFECE" filter="url(#f1r9815sd1l6gr)" height="89.5078" id="Error" style="stroke:#A80036;stroke-width:1.5;" width="142" x="32" y="62.5"/><ellipse cx="85.25" cy="78.5" fill="#EB937F" rx="11" ry="11" style="stroke:#A80036;stroke-width:1.0;"/><path d="M84.1094,79.2969 L84.1094,81.7969 L88.4375,81.7969 L88.4375,80.875 Q88.4375,80.2656 88.6797,80 Q88.9219,79.7344 89.2969,79.7344 Q89.6719,79.7344 89.9063,80 Q90.1406,80.2656 90.1406,80.875 L90.1406,83.5 L82.1406,83.5 Q81.5156,83.5 81.2578,83.2656 Q81,83.0313 81,82.6406 Q81,82.2656 81.2656,82.0313 Q81.5313,81.7969 82.1406,81.7969 L82.4063,81.7969 L82.4063,75.1406 L82.1406,75.1406 Q81.5156,75.1406 81.2578,74.9063 Q81,74.6719 81,74.2813 Q81,73.9063 81.2578,73.6719 Q81.5156,73.4375 82.1406,73.4375 L89.7656,73.4375 L89.7656,76.0313 Q89.7656,76.6406 89.5391,76.8984 Q89.3125,77.1563 88.9219,77.1563 Q88.5469,77.1563 88.3125,76.8984 Q88.0781,76.6406 88.0781,76.0313 L88.0781,75.1406 L84.1094,75.1406 L84.1094,77.5938 L85.5938,77.5938 Q85.5938,76.9375 85.7188,76.75 Q85.9844,76.3438 86.4531,76.3438 Q86.8281,76.3438 87.0625,76.6016 Q87.2969,76.8594 87.2969,77.4688 L87.2969,79.4375 Q87.2969,79.9844 87.1719,80.1719 Q86.9063,80.5625 86.4531,80.5625 Q85.9844,80.5625 85.7188,80.1563 Q85.5938,79.9688 85.5938,79.2969 L84.1094,79.2969 Z " fill="#000000"/><text fill="#000000" font-family="sans-serif" font-size="12" lengthAdjust="spacing" textLength="27" x="105.75" y="83.4102">Error</text><line style="stroke:#A80036;stroke-width:1.5;" x1="33" x2="173" y1="94.5" y2="94.5"/><ellipse cx="43" cy="105.5" fill="none" rx="3" ry="3" style="stroke:#038048;stroke-width:1.0;"/><text fill="#000000" font-family="sans-serif" font-size="11" lengthAdjust="spacing" textLength="62" x="52" y="109.9189">DUPLICATED</text><ellipse cx="43" cy="119.3359" fill="none" rx="3" ry="3" style="stroke:#038048;stroke-width:1.0;"/><text fill="#000000" font-family="sans-serif" font-size="11" lengthAdjust="spacing" textLength="116" x="52" y="123.7549">WRONG_CHARACTERS</text><ellipse cx="43" cy="133.1719" fill="none" rx="3" ry="3" style="stroke:#038048;stroke-width:1.0;"/><text fill="#000000" font-family="sans-serif" font-size="11" lengthAdjust="spacing" textLength="86" x="52" y="137.5908">WRONG_LENGTH</text><line style="stroke:#A80036;stroke-width:1.5;" x1="33" x2="173" y1="144.0078" y2="144.0078"/><!--MD5=[e3256066d7f78c574fc214c9ffe07a12]
@startuml mastermind_analisis_types
package types {
    enum Color {
        + RED
        + GREEN
        + YELLOW
        + BLUE
        + MAGENTA
        + CYAN
    }

    enum Error {
        + DUPLICATED
        + WRONG_CHARACTERS
        + WRONG_LENGTH
    }
}
@enduml

PlantUML version 1.2021.00(Sun Jan 10 11:25:05 CET 2021)
(GPL source distribution)
Java Runtime: Java(TM) SE Runtime Environment
JVM: Java HotSpot(TM) 64-Bit Server VM
Default Encoding: Cp1252
Language: es
Country: ES
--></g></svg>