<?xml version="1.0" encoding="UTF-8" standalone="no"?><svg xmlns="http://www.w3.org/2000/svg" xmlns:xlink="http://www.w3.org/1999/xlink" contentScriptType="application/ecmascript" contentStyleType="text/css" height="1505px" preserveAspectRatio="none" style="width:1831px;height:1505px;" version="1.1" viewBox="0 0 1831 1505" width="1831px" zoomAndPan="magnify"><defs><filter height="300%" id="f8g8ifhbmzgz7" width="300%" x="-1" y="-1"><feGaussianBlur result="blurOut" stdDeviation="2.0"/><feColorMatrix in="blurOut" result="blurOut2" type="matrix" values="0 0 0 0 0 0 0 0 0 0 0 0 0 0 0 0 0 0 .4 0"/><feOffset dx="4.0" dy="4.0" in="blurOut2" result="blurOut3"/><feBlend in="SourceGraphic" in2="blurOut3" mode="normal"/></filter></defs><g><!--MD5=[e2a75efa8a0f57c2afae8bf75386f79c]
cluster views--><polygon fill="#FFFFFF" filter="url(#f8g8ifhbmzgz7)" points="45.6606,170.5,96.6606,170.5,103.6606,192.7969,951.6603,192.7969,951.6603,762.5,45.6606,762.5,45.6606,170.5" style="stroke:#000000;stroke-width:1.5;"/><line style="stroke:#000000;stroke-width:1.5;" x1="45.6606" x2="103.6606" y1="192.7969" y2="192.7969"/><text fill="#000000" font-family="sans-serif" font-size="14" font-weight="bold" lengthAdjust="spacing" textLength="45" x="49.6606" y="185.4951">views</text><!--MD5=[f4e70ef68289585296b9045165e58692]
cluster controllers--><polygon fill="#FFFFFF" filter="url(#f8g8ifhbmzgz7)" points="1094.6643,670.5,1189.6643,670.5,1196.6643,692.7969,1254.6643,692.7969,1254.6643,769.5,1094.6643,769.5,1094.6643,670.5" style="stroke:#000000;stroke-width:1.5;"/><line style="stroke:#000000;stroke-width:1.5;" x1="1094.6643" x2="1196.6643" y1="692.7969" y2="692.7969"/><text fill="#000000" font-family="sans-serif" font-size="14" font-weight="bold" lengthAdjust="spacing" textLength="89" x="1098.6643" y="685.4951">controllers</text><!--MD5=[a60570e4b426f702ccbb0d459e3b9417]
cluster models--><polygon fill="#FFFFFF" filter="url(#f8g8ifhbmzgz7)" points="1144.6643,946.5,1208.6643,946.5,1215.6643,968.7969,1664.6643,968.7969,1664.6643,1366.5,1144.6643,1366.5,1144.6643,946.5" style="stroke:#000000;stroke-width:1.5;"/><line style="stroke:#000000;stroke-width:1.5;" x1="1144.6643" x2="1215.6643" y1="968.7969" y2="968.7969"/><text fill="#000000" font-family="sans-serif" font-size="14" font-weight="bold" lengthAdjust="spacing" textLength="58" x="1148.6643" y="961.4951">models</text><!--MD5=[67cd15ce44b6dd54f77054b62c31bf42]
cluster types--><polygon fill="#FFFFFF" filter="url(#f8g8ifhbmzgz7)" points="1078.6643,1399.5,1129.6643,1399.5,1136.6643,1421.7969,1243.6643,1421.7969,1243.6643,1498.5,1078.6643,1498.5,1078.6643,1399.5" style="stroke:#000000;stroke-width:1.5;"/><line style="stroke:#000000;stroke-width:1.5;" x1="1078.6643" x2="1136.6643" y1="1421.7969" y2="1421.7969"/><text fill="#000000" font-family="sans-serif" font-size="14" font-weight="bold" lengthAdjust="spacing" textLength="45" x="1082.6643" y="1414.4951">types</text><rect fill="#FEFECE" filter="url(#f8g8ifhbmzgz7)" height="33.9688" style="stroke:#A80036;stroke-width:1.5;" width="93" x="502.1603" y="205.5"/><text fill="#000000" font-family="sans-serif" font-size="12" lengthAdjust="spacing" textLength="79" x="509.1603" y="218.6387">ProposeView</text><line style="stroke:#A80036;stroke-width:1.5;" x1="503.1603" x2="594.1603" y1="223.4688" y2="223.4688"/><rect fill="#FEFECE" filter="url(#f8g8ifhbmzgz7)" height="33.9688" style="stroke:#A80036;stroke-width:1.5;" width="69" x="264.1603" y="712.5"/><text fill="#000000" font-family="sans-serif" font-size="12" lengthAdjust="spacing" textLength="55" x="271.1603" y="725.6387">Message</text><line style="stroke:#A80036;stroke-width:1.5;" x1="265.1603" x2="332.1603" y1="730.4688" y2="730.4688"/><rect fill="#FEFECE" filter="url(#f8g8ifhbmzgz7)" height="33.9688" style="stroke:#A80036;stroke-width:1.5;" width="79" x="388.1603" y="338.5"/><text fill="#000000" font-family="sans-serif" font-size="12" lengthAdjust="spacing" textLength="65" x="395.1603" y="351.6387">BoardView</text><line style="stroke:#A80036;stroke-width:1.5;" x1="389.1603" x2="466.1603" y1="356.4688" y2="356.4688"/><rect fill="#FEFECE" filter="url(#f8g8ifhbmzgz7)" height="33.9688" style="stroke:#A80036;stroke-width:1.5;" width="157" x="420.1603" y="511.5"/><text fill="#000000" font-family="sans-serif" font-size="12" lengthAdjust="spacing" textLength="143" x="427.1603" y="524.6387">SecretCombinationView</text><line style="stroke:#A80036;stroke-width:1.5;" x1="421.1603" x2="576.1603" y1="529.4688" y2="529.4688"/><rect fill="#FEFECE" filter="url(#f8g8ifhbmzgz7)" height="33.9688" style="stroke:#A80036;stroke-width:1.5;" width="175" x="760.1603" y="511.5"/><text fill="#000000" font-family="sans-serif" font-size="12" lengthAdjust="spacing" textLength="161" x="767.1603" y="524.6387">ProposedCombinationView</text><line style="stroke:#A80036;stroke-width:1.5;" x1="761.1603" x2="934.1603" y1="529.4688" y2="529.4688"/><rect fill="#FEFECE" filter="url(#f8g8ifhbmzgz7)" height="33.9688" style="stroke:#A80036;stroke-width:1.5;" width="79" x="99.1606" y="511.5"/><text fill="#000000" font-family="sans-serif" font-size="12" lengthAdjust="spacing" textLength="65" x="106.1606" y="524.6387">ResultView</text><line style="stroke:#A80036;stroke-width:1.5;" x1="100.1606" x2="177.1606" y1="529.4688" y2="529.4688"/><rect fill="#FEFECE" filter="url(#f8g8ifhbmzgz7)" height="33.9688" style="stroke:#A80036;stroke-width:1.5;" width="75" x="676.1603" y="712.5"/><text fill="#000000" font-family="sans-serif" font-size="12" lengthAdjust="spacing" textLength="61" x="683.1603" y="725.6387">ColorView</text><line style="stroke:#A80036;stroke-width:1.5;" x1="677.1603" x2="750.1603" y1="730.4688" y2="730.4688"/><rect fill="#FEFECE" filter="url(#f8g8ifhbmzgz7)" height="33.9688" style="stroke:#A80036;stroke-width:1.5;" width="73" x="812.1603" y="712.5"/><text fill="#000000" font-family="sans-serif" font-size="12" lengthAdjust="spacing" textLength="59" x="819.1603" y="725.6387">ErrorView</text><line style="stroke:#A80036;stroke-width:1.5;" x1="813.1603" x2="884.1603" y1="730.4688" y2="730.4688"/><rect fill="#FEFECE" filter="url(#f8g8ifhbmzgz7)" height="33.9688" style="stroke:#A80036;stroke-width:1.5;" width="75" x="628.1603" y="338.5"/><text fill="#000000" font-family="sans-serif" font-size="12" lengthAdjust="spacing" textLength="61" x="635.1603" y="351.6387">MenuView</text><line style="stroke:#A80036;stroke-width:1.5;" x1="629.1603" x2="702.1603" y1="356.4688" y2="356.4688"/><rect fill="#FEFECE" filter="url(#f8g8ifhbmzgz7)" height="47.9375" style="stroke:#A80036;stroke-width:1.5;" width="127" x="1111.1643" y="705.5"/><text fill="#000000" font-family="sans-serif" font-size="12" lengthAdjust="spacing" textLength="111" x="1119.1643" y="718.6387">proposeController</text><text fill="#000000" font-family="sans-serif" font-size="12" lengthAdjust="spacing" textLength="113" x="1118.1643" y="732.6074">:ProposeController</text><line style="stroke:#A80036;stroke-width:1.5;" x1="1112.1643" x2="1237.1643" y1="737.4375" y2="737.4375"/><rect fill="#FEFECE" filter="url(#f8g8ifhbmzgz7)" height="33.9688" style="stroke:#A80036;stroke-width:1.5;" width="50" x="1375.6643" y="984"/><text fill="#000000" font-family="sans-serif" font-size="12" lengthAdjust="spacing" textLength="36" x="1382.6643" y="997.1387">Board</text><line style="stroke:#A80036;stroke-width:1.5;" x1="1376.6643" x2="1424.6643" y1="1001.9688" y2="1001.9688"/><rect fill="#FEFECE" filter="url(#f8g8ifhbmzgz7)" height="33.9688" style="stroke:#A80036;stroke-width:1.5;" width="50" x="1519.6643" y="1309.5"/><text fill="#000000" font-family="sans-serif" font-size="12" lengthAdjust="spacing" textLength="36" x="1526.6643" y="1322.6387">Result</text><line style="stroke:#A80036;stroke-width:1.5;" x1="1520.6643" x2="1568.6643" y1="1327.4688" y2="1327.4688"/><rect fill="#FEFECE" filter="url(#f8g8ifhbmzgz7)" height="47.9375" style="stroke:#A80036;stroke-width:1.5;" width="150" x="1224.6643" y="1302.5"/><text fill="#000000" font-family="sans-serif" font-size="12" lengthAdjust="spacing" textLength="134" x="1232.6643" y="1315.6387">proposedCombination</text><text fill="#000000" font-family="sans-serif" font-size="12" lengthAdjust="spacing" textLength="136" x="1231.6643" y="1329.6074">:ProposedCombination</text><line style="stroke:#A80036;stroke-width:1.5;" x1="1225.6643" x2="1373.6643" y1="1334.4375" y2="1334.4375"/><rect fill="#FEFECE" filter="url(#f8g8ifhbmzgz7)" height="33.9688" style="stroke:#A80036;stroke-width:1.5;" width="128" x="1340.6643" y="1137"/><text fill="#000000" font-family="sans-serif" font-size="12" lengthAdjust="spacing" textLength="114" x="1347.6643" y="1150.1387">SecretCombination</text><line style="stroke:#A80036;stroke-width:1.5;" x1="1341.6643" x2="1467.6643" y1="1154.9688" y2="1154.9688"/><rect fill="#FEFECE" filter="url(#f8g8ifhbmzgz7)" height="47.9375" style="stroke:#A80036;stroke-width:1.5;" width="50" x="1094.6643" y="1434.5"/><text fill="#000000" font-family="sans-serif" font-size="12" lengthAdjust="spacing" textLength="31" x="1104.1643" y="1447.6387">color</text><text fill="#000000" font-family="sans-serif" font-size="12" lengthAdjust="spacing" textLength="36" x="1101.6643" y="1461.6074">:Color</text><line style="stroke:#A80036;stroke-width:1.5;" x1="1095.6643" x2="1143.6643" y1="1466.4375" y2="1466.4375"/><rect fill="#FEFECE" filter="url(#f8g8ifhbmzgz7)" height="47.9375" style="stroke:#A80036;stroke-width:1.5;" width="48" x="1179.6643" y="1434.5"/><text fill="#000000" font-family="sans-serif" font-size="12" lengthAdjust="spacing" textLength="31" x="1188.1643" y="1447.6387">error</text><text fill="#000000" font-family="sans-serif" font-size="12" lengthAdjust="spacing" textLength="34" x="1186.6643" y="1461.6074">:Error</text><line style="stroke:#A80036;stroke-width:1.5;" x1="1180.6643" x2="1226.6643" y1="1466.4375" y2="1466.4375"/><!--MD5=[de2effd8dc5bf946a609466312d0f75f]
entity Player--><ellipse cx="548.6603" cy="14" fill="#FEFECE" filter="url(#f8g8ifhbmzgz7)" rx="8" ry="8" style="stroke:#A80036;stroke-width:1.5;"/><path d="M548.6603,22 L548.6603,49 M535.6603,30 L561.6603,30 M548.6603,49 L535.6603,64 M548.6603,49 L561.6603,64 " fill="none" filter="url(#f8g8ifhbmzgz7)" style="stroke:#A80036;stroke-width:1.5;"/><text fill="#000000" font-family="sans-serif" font-size="14" lengthAdjust="spacing" textLength="44" x="526.6603" y="82.4951">Player</text><!--MD5=[57e91100e1953bd1492d4aa882ac3550]
link Player to ProposeView--><path codeLine="33" d="M548.6603,85.82 C548.6603,121.43 548.6603,172.23 548.6603,200.48 " fill="none" id="Player-to-ProposeView" style="stroke:#A80036;stroke-width:1.0;"/><polygon fill="#A80036" points="548.6603,205.49,552.6603,196.49,548.6603,200.49,544.6603,196.49,548.6603,205.49" style="stroke:#A80036;stroke-width:1.0;"/><path d="M553.6603,120.5 L553.6603,145.5 L636.6603,145.5 L636.6603,130.5 L626.6603,120.5 L553.6603,120.5 " fill="#FBFB77" filter="url(#f8g8ifhbmzgz7)" style="stroke:#A80036;stroke-width:1.0;"/><path d="M626.6603,120.5 L626.6603,130.5 L636.6603,130.5 L626.6603,120.5 " fill="#FBFB77" style="stroke:#A80036;stroke-width:1.0;"/><text fill="#000000" font-family="sans-serif" font-size="13" lengthAdjust="spacing" textLength="62" x="559.6603" y="137.5669">propose()</text><!--MD5=[29c306805319960c0560bedfd82b8e40]
link ProposeView to BoardView--><path codeLine="37" d="M502.0583,227.85 C474.6413,233.08 442.0343,244.52 424.6603,269.5 C411.7123,288.11 415.3773,314.98 420.3843,333.5 " fill="none" id="ProposeView-to-BoardView" style="stroke:#A80036;stroke-width:1.0;stroke-dasharray:7.0,7.0;"/><polygon fill="#A80036" points="421.8193,338.49,423.1684,328.734,420.4336,333.6858,415.4818,330.9511,421.8193,338.49" style="stroke:#A80036;stroke-width:1.0;"/><path d="M429.6603,274.5 L429.6603,299.5 L606.6603,299.5 L606.6603,284.5 L596.6603,274.5 L429.6603,274.5 " fill="#FBFB77" filter="url(#f8g8ifhbmzgz7)" style="stroke:#A80036;stroke-width:1.0;"/><path d="M596.6603,274.5 L596.6603,284.5 L606.6603,284.5 L596.6603,274.5 " fill="#FBFB77" style="stroke:#A80036;stroke-width:1.0;"/><text fill="#000000" font-family="sans-serif" font-size="13" lengthAdjust="spacing" textLength="156" x="435.6603" y="291.5669">write(proposeController)</text><!--MD5=[0efb000d2e690ee7d195133162d46198]
link BoardView to ProposeController--><path codeLine="41" d="M467.2823,359.99 C504.3473,363.25 561.2513,368.24 610.6603,372.5 C689.0973,379.26 892.6593,368.49 963.6603,402.5 C1073.3743,455.06 1097.9843,491.83 1152.6643,600.5 C1168.5243,632.035 1173.2143,672.873 1174.4643,699.84 " fill="none" id="BoardView-to-ProposeController" style="stroke:#A80036;stroke-width:1.0;stroke-dasharray:7.0,7.0;"/><polygon fill="#A80036" points="1174.6743,705.042,1178.314,695.8904,1174.4759,700.0459,1170.3203,696.2078,1174.6743,705.042" style="stroke:#A80036;stroke-width:1.0;"/><path d="M1142.6643,491.5 L1142.6643,561.5 L1425.6643,561.5 L1425.6643,501.5 L1415.6643,491.5 L1142.6643,491.5 " fill="#FBFB77" filter="url(#f8g8ifhbmzgz7)" style="stroke:#A80036;stroke-width:1.0;"/><path d="M1415.6643,491.5 L1415.6643,501.5 L1425.6643,501.5 L1415.6643,491.5 " fill="#FBFB77" style="stroke:#A80036;stroke-width:1.0;"/><text fill="#000000" font-family="sans-serif" font-size="13" lengthAdjust="spacing" textLength="91" x="1148.6643" y="508.5669">getAttempts()</text><text fill="#000000" font-family="sans-serif" font-size="13" lengthAdjust="spacing" textLength="262" x="1148.6643" y="523.6997">getProposedCombinationColors(position)</text><text fill="#000000" font-family="sans-serif" font-size="13" lengthAdjust="spacing" textLength="121" x="1148.6643" y="538.8325">getBlacks(position)</text><text fill="#000000" font-family="sans-serif" font-size="13" lengthAdjust="spacing" textLength="125" x="1148.6643" y="553.9653">getWhites(position)</text><!--MD5=[02a16ebf8539d2e5d44c3be387606aac]
link BoardView to Message--><path codeLine="48" d="M421.1053,372.7 C410.1263,399.5 388.5453,450.73 381.6603,456.5 C341.1723,490.42 298.9553,444.7 266.6603,486.5 C243.8353,516.043 262.9363,533.353 266.6603,570.5 C268.0103,583.959 285.5693,667.192 294.0873,707.143 " fill="none" id="BoardView-to-Message" style="stroke:#A80036;stroke-width:1.0;stroke-dasharray:7.0,7.0;"/><polygon fill="#A80036" points="295.1783,712.253,297.2105,702.6161,294.1341,707.3633,289.3869,704.2868,295.1783,712.253" style="stroke:#A80036;stroke-width:1.0;"/><path d="M271.6603,514 L271.6603,539 L393.6603,539 L393.6603,524 L383.6603,514 L271.6603,514 " fill="#FBFB77" filter="url(#f8g8ifhbmzgz7)" style="stroke:#A80036;stroke-width:1.0;"/><path d="M383.6603,514 L383.6603,524 L393.6603,524 L383.6603,514 " fill="#FBFB77" style="stroke:#A80036;stroke-width:1.0;"/><text fill="#000000" font-family="sans-serif" font-size="13" lengthAdjust="spacing" textLength="101" x="277.6603" y="531.0669">write(attempts)</text><!--MD5=[5418e21908cb409c36d98acf7a0f9cb6]
link BoardView to SecretCombinationView--><path codeLine="52" d="M423.2023,372.5 C418.3883,392.91 412.8753,428.86 424.6603,456.5 C433.7373,477.79 452.6753,495.76 469.1193,508.3 " fill="none" id="BoardView-to-SecretCombinationView" style="stroke:#A80036;stroke-width:1.0;stroke-dasharray:7.0,7.0;"/><polygon fill="#A80036" points="473.2383,511.37,468.4059,502.7882,469.227,508.3851,463.6301,509.2062,473.2383,511.37" style="stroke:#A80036;stroke-width:1.0;"/><path d="M429.6603,415 L429.6603,440 L492.6603,440 L492.6603,425 L482.6603,415 L429.6603,415 " fill="#FBFB77" filter="url(#f8g8ifhbmzgz7)" style="stroke:#A80036;stroke-width:1.0;"/><path d="M482.6603,415 L482.6603,425 L492.6603,425 L482.6603,415 " fill="#FBFB77" style="stroke:#A80036;stroke-width:1.0;"/><text fill="#000000" font-family="sans-serif" font-size="13" lengthAdjust="spacing" textLength="42" x="435.6603" y="432.0669">write()</text><!--MD5=[d0c6e2bebacb85fe1d099bc6a8097bbc]
link SecretCombinationView to Message--><path codeLine="56" d="M456.9583,545.655 C405.3533,565.728 323.9413,597.7 321.6603,600.5 C296.7963,631.025 295.1333,679.354 296.6013,707.069 " fill="none" id="SecretCombinationView-to-Message" style="stroke:#A80036;stroke-width:1.0;stroke-dasharray:7.0,7.0;"/><polygon fill="#A80036" points="296.9303,712.326,300.3619,703.0943,296.6189,707.3357,292.3775,703.5926,296.9303,712.326" style="stroke:#A80036;stroke-width:1.0;"/><path d="M326.6603,613 L326.6603,638 L389.6603,638 L389.6603,623 L379.6603,613 L326.6603,613 " fill="#FBFB77" filter="url(#f8g8ifhbmzgz7)" style="stroke:#A80036;stroke-width:1.0;"/><path d="M379.6603,613 L379.6603,623 L389.6603,623 L379.6603,613 " fill="#FBFB77" style="stroke:#A80036;stroke-width:1.0;"/><text fill="#000000" font-family="sans-serif" font-size="13" lengthAdjust="spacing" textLength="42" x="332.6603" y="630.0669">write()</text><!--MD5=[b92bc89b5449472b10f1cf1477809057]
link BoardView to ProposedCombinationView--><path codeLine="60" d="M455.1053,372.66 C470.0573,381.47 488.8823,392.57 505.6603,402.5 C546.1373,426.45 552.9223,439.22 596.6603,456.5 C654.2263,479.25 673.1703,469.41 732.6603,486.5 C755.6693,493.11 780.7613,501.87 801.6183,509.59 " fill="none" id="BoardView-to-ProposedCombinationView" style="stroke:#A80036;stroke-width:1.0;stroke-dasharray:7.0,7.0;"/><polygon fill="#A80036" points="806.5493,511.43,799.5102,504.5415,801.8635,509.6857,796.7193,512.0389,806.5493,511.43" style="stroke:#A80036;stroke-width:1.0;"/><path d="M601.6603,415 L601.6603,440 L702.6603,440 L702.6603,425 L692.6603,415 L601.6603,415 " fill="#FBFB77" filter="url(#f8g8ifhbmzgz7)" style="stroke:#A80036;stroke-width:1.0;"/><path d="M692.6603,415 L692.6603,425 L702.6603,425 L692.6603,415 " fill="#FBFB77" style="stroke:#A80036;stroke-width:1.0;"/><text fill="#000000" font-family="sans-serif" font-size="13" lengthAdjust="spacing" textLength="80" x="607.6603" y="432.0669">write(colors)</text><!--MD5=[54923e7f1f8105ab44ef05f41a7d666e]
link ProposedCombinationView to ColorView--><path codeLine="64" d="M807.7333,545.6 C785.8453,553.95 758.0703,563.779 732.6603,570.5 C695.5743,580.309 587.3173,571.112 562.6603,600.5 C547.2353,618.886 549.9613,634.135 562.6603,654.5 C586.1443,692.16 634.9863,711.188 670.7883,720.432 " fill="none" id="ProposedCombinationView-to-ColorView" style="stroke:#A80036;stroke-width:1.0;stroke-dasharray:7.0,7.0;"/><polygon fill="#A80036" points="675.9713,721.726,668.2068,715.6669,671.1199,720.516,666.2708,723.4291,675.9713,721.726" style="stroke:#A80036;stroke-width:1.0;"/><path d="M567.6603,613 L567.6603,638 L661.6603,638 L661.6603,623 L651.6603,613 L567.6603,613 " fill="#FBFB77" filter="url(#f8g8ifhbmzgz7)" style="stroke:#A80036;stroke-width:1.0;"/><path d="M651.6603,613 L651.6603,623 L661.6603,623 L651.6603,613 " fill="#FBFB77" style="stroke:#A80036;stroke-width:1.0;"/><text fill="#000000" font-family="sans-serif" font-size="13" lengthAdjust="spacing" textLength="73" x="573.6603" y="630.0669">write(color)</text><!--MD5=[54923e7f1f8105ab44ef05f41a7d666e]
link ProposedCombinationView to ColorView--><path codeLine="121" d="M809.6133,545.534 C786.1833,557.353 757.5033,575.692 740.6603,600.5 C718.5363,633.089 713.9973,680.272 713.3703,707.316 " fill="none" id="ProposedCombinationView-to-ColorView-1" style="stroke:#A80036;stroke-width:1.0;stroke-dasharray:7.0,7.0;"/><polygon fill="#A80036" points="713.2933,712.446,717.4291,703.5076,713.369,707.4466,709.43,703.3865,713.2933,712.446" style="stroke:#A80036;stroke-width:1.0;"/><path d="M745.6603,613 L745.6603,638 L805.6603,638 L805.6603,623 L795.6603,613 L745.6603,613 " fill="#FBFB77" filter="url(#f8g8ifhbmzgz7)" style="stroke:#A80036;stroke-width:1.0;"/><path d="M795.6603,613 L795.6603,623 L805.6603,623 L795.6603,613 " fill="#FBFB77" style="stroke:#A80036;stroke-width:1.0;"/><text fill="#000000" font-family="sans-serif" font-size="13" lengthAdjust="spacing" textLength="39" x="751.6603" y="630.0669">read()</text><!--MD5=[3c978e882819d5791a3d8cfa6d73d565]
link ColorView to Color--><path codeLine="68" d="M722.8063,746.625 C745.1433,787.572 800.6603,899.456 800.6603,1000 C800.6603,1000 800.6603,1000 800.6603,1327.5 C800.6603,1389.53 1010.1243,1436.3934 1089.5843,1451.9387 " fill="none" id="ColorView-to-Color" style="stroke:#A80036;stroke-width:1.0;stroke-dasharray:7.0,7.0;"/><polygon fill="#A80036" points="1094.6243,1452.9171,1086.5563,1447.2685,1089.7168,1451.9601,1085.0251,1455.1206,1094.6243,1452.9171" style="stroke:#A80036;stroke-width:1.0;"/><!--MD5=[15f682a315f16673a58b132a229e1ff0]
link BoardView to ResultView--><path codeLine="69" d="M388.1413,360.98 C333.5253,367.82 238.5403,382.23 210.6603,402.5 C201.1993,409.38 167.2053,472.78 149.5223,506.55 " fill="none" id="BoardView-to-ResultView" style="stroke:#A80036;stroke-width:1.0;stroke-dasharray:7.0,7.0;"/><polygon fill="#A80036" points="147.0363,511.31,154.7482,505.1841,149.3509,506.878,147.657,501.4807,147.0363,511.31" style="stroke:#A80036;stroke-width:1.0;"/><path d="M215.6603,415 L215.6603,440 L368.6603,440 L368.6603,425 L358.6603,415 L215.6603,415 " fill="#FBFB77" filter="url(#f8g8ifhbmzgz7)" style="stroke:#A80036;stroke-width:1.0;"/><path d="M358.6603,415 L358.6603,425 L368.6603,425 L358.6603,415 " fill="#FBFB77" style="stroke:#A80036;stroke-width:1.0;"/><text fill="#000000" font-family="sans-serif" font-size="13" lengthAdjust="spacing" textLength="132" x="221.6603" y="432.0669">write(blacks, whites)</text><!--MD5=[0e5df9184d8007a1cb9785d3f6966635]
link ResultView to Message--><path codeLine="73" d="M125.3813,545.877 C106.5841,571.175 76.9989,620.397 100.6606,654.5 C136.2853,705.845 212.1303,721.625 258.9223,726.436 " fill="none" id="ResultView-to-Message" style="stroke:#A80036;stroke-width:1.0;stroke-dasharray:7.0,7.0;"/><polygon fill="#A80036" points="263.9173,726.919,255.3442,722.0711,258.9405,726.4376,254.574,730.0339,263.9173,726.919" style="stroke:#A80036;stroke-width:1.0;"/><path d="M105.6606,613 L105.6606,638 L258.6606,638 L258.6606,623 L248.6606,613 L105.6606,613 " fill="#FBFB77" filter="url(#f8g8ifhbmzgz7)" style="stroke:#A80036;stroke-width:1.0;"/><path d="M248.6606,613 L248.6606,623 L258.6606,623 L248.6606,613 " fill="#FBFB77" style="stroke:#A80036;stroke-width:1.0;"/><text fill="#000000" font-family="sans-serif" font-size="13" lengthAdjust="spacing" textLength="132" x="111.6606" y="630.0669">write(blacks, whites)</text><!--MD5=[78ecea817a4cecdeeb6aef21215fa7e7]
link ProposeController to Board--><path codeLine="77" d="M1194.3243,753.945 C1238.0843,806.136 1342.9143,931.138 1383.8643,979.971 " fill="none" id="ProposeController-to-Board" style="stroke:#A80036;stroke-width:1.0;"/><polygon fill="#A80036" points="1387.1643,983.906,1384.443,974.4406,1383.9502,980.0759,1378.3149,979.5832,1387.1643,983.906" style="stroke:#A80036;stroke-width:1.0;"/><path d="M1345.6643,790.5 L1345.6643,921.5 L1628.6643,921.5 L1628.6643,800.5 L1618.6643,790.5 L1345.6643,790.5 " fill="#FBFB77" filter="url(#f8g8ifhbmzgz7)" style="stroke:#A80036;stroke-width:1.0;"/><path d="M1618.6643,790.5 L1618.6643,800.5 L1628.6643,800.5 L1618.6643,790.5 " fill="#FBFB77" style="stroke:#A80036;stroke-width:1.0;"/><text fill="#000000" font-family="sans-serif" font-size="13" lengthAdjust="spacing" textLength="100" x="1351.6643" y="807.5669">getError(colors)</text><text fill="#000000" font-family="sans-serif" font-size="13" lengthAdjust="spacing" textLength="72" x="1351.6643" y="822.6997">add(colors)</text><text fill="#000000" font-family="sans-serif" font-size="13" lengthAdjust="spacing" textLength="72" x="1351.6643" y="837.8325">isFinished()</text><text fill="#000000" font-family="sans-serif" font-size="13" lengthAdjust="spacing" textLength="65" x="1351.6643" y="852.9653">isWinner()</text><text fill="#000000" font-family="sans-serif" font-size="13" lengthAdjust="spacing" textLength="91" x="1351.6643" y="868.0981">getAttempts()</text><text fill="#000000" font-family="sans-serif" font-size="13" lengthAdjust="spacing" textLength="262" x="1351.6643" y="883.231">getProposedCombinationColors(position)</text><text fill="#000000" font-family="sans-serif" font-size="13" lengthAdjust="spacing" textLength="121" x="1351.6643" y="898.3638">getBlacks(position)</text><text fill="#000000" font-family="sans-serif" font-size="13" lengthAdjust="spacing" textLength="125" x="1351.6643" y="913.4966">getWhites(position)</text><!--MD5=[8dd95aff79c51151a18c835e3410b3cd]
link Board to Result--><path codeLine="88" d="M1437.5596,1005.8744 C1437.5596,1005.8744 1509.5043,1023.208 1533.6643,1050.5 C1575.3843,1097.647 1526.3643,1139.307 1565.6643,1188.5 C1584.7643,1212.418 1611.3943,1192.565 1627.6643,1218.5 C1640.4143,1238.833 1639.1943,1251.452 1627.6643,1272.5 C1617.8743,1290.357 1599.2343,1303.069 1582.0943,1311.56 " fill="none" id="Board-Result" style="stroke:#A80036;stroke-width:1.0;"/><polygon fill="#A80036" points="1570.0243,1317.009,1579.873,1316.9459,1574.5803,1314.9491,1576.5771,1309.6564,1570.0243,1317.009" style="stroke:#A80036;stroke-width:1.0;"/><line style="stroke:#A80036;stroke-width:1.0;" x1="1574.5803" x2="1581.8693" y1="1314.9491" y2="1311.659"/><polygon fill="#A80036" points="1425.6943,1004.081,1431.0291,1008.9328,1437.5596,1005.8744,1432.2247,1001.0226,1425.6943,1004.081" style="stroke:#A80036;stroke-width:1.0;"/><path d="M1570.6643,1124.5 L1570.6643,1179.5 L1666.6643,1179.5 L1666.6643,1134.5 L1656.6643,1124.5 L1570.6643,1124.5 " fill="#FBFB77" filter="url(#f8g8ifhbmzgz7)" style="stroke:#A80036;stroke-width:1.0;"/><path d="M1656.6643,1124.5 L1656.6643,1134.5 L1666.6643,1134.5 L1656.6643,1124.5 " fill="#FBFB77" style="stroke:#A80036;stroke-width:1.0;"/><text fill="#000000" font-family="sans-serif" font-size="13" lengthAdjust="spacing" textLength="65" x="1576.6643" y="1141.5669">isWinner()</text><text fill="#000000" font-family="sans-serif" font-size="13" lengthAdjust="spacing" textLength="71" x="1576.6643" y="1156.6997">getBlacks()</text><text fill="#000000" font-family="sans-serif" font-size="13" lengthAdjust="spacing" textLength="75" x="1576.6643" y="1171.8325">getWhites()</text><!--MD5=[e0b5d9907fda64872c10fd6493e0c51f]
link Board to ProposedCombination--><path codeLine="94" d="M1363.7638,1009.905 C1363.7638,1009.905 1296.9943,1030.247 1268.6643,1050.5 C1236.5243,1073.467 1225.8643,1082.277 1212.6643,1119.5 C1189.9143,1183.609 1182.5643,1213.639 1216.6643,1272.5 C1221.6043,1281.038 1228.5443,1288.42 1236.3143,1294.733 " fill="none" id="Board-ProposedCombination" style="stroke:#A80036;stroke-width:1.0;"/><polygon fill="#A80036" points="1246.9243,1302.424,1241.9843,1293.9036,1242.8758,1299.4898,1237.2896,1300.3813,1246.9243,1302.424" style="stroke:#A80036;stroke-width:1.0;"/><line style="stroke:#A80036;stroke-width:1.0;" x1="1242.8758" x2="1236.3943" y1="1299.4898" y2="1294.793"/><polygon fill="#A80036" points="1375.4143,1007.03,1368.6307,1004.584,1363.7638,1009.905,1370.5474,1012.351,1375.4143,1007.03" style="stroke:#A80036;stroke-width:1.0;"/><path d="M1217.6643,1124.5 L1217.6643,1179.5 L1313.6643,1179.5 L1313.6643,1134.5 L1303.6643,1124.5 L1217.6643,1124.5 " fill="#FBFB77" filter="url(#f8g8ifhbmzgz7)" style="stroke:#A80036;stroke-width:1.0;"/><path d="M1303.6643,1124.5 L1303.6643,1134.5 L1313.6643,1134.5 L1303.6643,1124.5 " fill="#FBFB77" style="stroke:#A80036;stroke-width:1.0;"/><text fill="#000000" font-family="sans-serif" font-size="13" lengthAdjust="spacing" textLength="75" x="1223.6643" y="1141.5669">new(colors)</text><text fill="#000000" font-family="sans-serif" font-size="13" lengthAdjust="spacing" textLength="62" x="1223.6643" y="1156.6997">getError()</text><text fill="#000000" font-family="sans-serif" font-size="13" lengthAdjust="spacing" textLength="71" x="1223.6643" y="1171.8325">getColors()</text><!--MD5=[2d4500cc75f159eca4a02f9c13f05618]
link ProposedCombination to Color--><path codeLine="100" d="M1238.6317,1355.5673 C1238.6317,1355.5673 1162.5043,1390.762 1161.6643,1391.5 C1151.7543,1400.173 1143.3243,1411.741 1136.6843,1422.7682 " fill="none" id="ProposedCombination-Color" style="stroke:#A80036;stroke-width:1.0;"/><polygon fill="#A80036" points="1130.1843,1434.3589,1138.0744,1428.4643,1132.6293,1429.9975,1131.0961,1424.5523,1130.1843,1434.3589" style="stroke:#A80036;stroke-width:1.0;"/><line style="stroke:#A80036;stroke-width:1.0;" x1="1132.6293" x2="1136.5443" y1="1429.9975" y2="1423.0201"/><polygon fill="#A80036" points="1249.5343,1350.554,1242.4119,1349.4264,1238.6317,1355.5673,1245.7541,1356.6949,1249.5343,1350.554" style="stroke:#A80036;stroke-width:1.0;"/><!--MD5=[e8e56f95b2bfb8e03c3cdf9f0e0c50ee]
link Board to Color--><path codeLine="101" d="M1425.8343,1003.345 C1483.6943,1007.986 1625.3743,1028.567 1679.6643,1119.5 C1715.5743,1179.661 1672.7443,1209.707 1641.6643,1272.5 C1618.8143,1318.657 1630.3443,1347.224 1586.6643,1374.5 C1546.5743,1399.529 1202.6243,1367.935 1161.6643,1391.5 C1147.0643,1399.897 1136.7543,1415.641 1130.0043,1429.6464 " fill="none" id="Board-to-Color" style="stroke:#A80036;stroke-width:1.0;stroke-dasharray:7.0,7.0;"/><polygon fill="#A80036" points="1127.8543,1434.3162,1135.255,1427.8177,1129.9477,1429.7755,1127.9899,1424.4683,1127.8543,1434.3162" style="stroke:#A80036;stroke-width:1.0;"/><!--MD5=[d649baaff3a9c9942c69fcb786dc271c]
link ProposeController to Color--><path codeLine="102" d="M1170.5643,753.809 C1163.9943,792.184 1151.1743,871.134 1144.6643,938.5 C1129.0843,1099.725 1134.3143,1140.705 1126.6643,1302.5 C1124.5643,1346.758 1122.2743,1398.131 1120.9043,1429.2056 " fill="none" id="ProposeController-to-Color" style="stroke:#A80036;stroke-width:1.0;stroke-dasharray:7.0,7.0;"/><polygon fill="#A80036" points="1120.6743,1434.3895,1125.0668,1425.5744,1120.8945,1429.3944,1117.0746,1425.2221,1120.6743,1434.3895" style="stroke:#A80036;stroke-width:1.0;"/><!--MD5=[12f03c7f5abb6c3e068862197d6139ed]
link BoardView to Color--><path codeLine="103" d="M387.9273,356.2 C302.0103,356.36 102.5805,361.27 51.6606,402.5 C6,439.47 8.6606,468.75 8.6606,527.5 C8.6606,527.5 8.6606,527.5 8.6606,1327.5 C8.6606,1439.5757 912.0763,1455.2328 1089.5943,1457.2275 " fill="none" id="BoardView-to-Color" style="stroke:#A80036;stroke-width:1.0;stroke-dasharray:7.0,7.0;"/><polygon fill="#A80036" points="1094.6343,1457.2826,1085.6806,1453.18,1089.6346,1457.2255,1085.5892,1461.1795,1094.6343,1457.2826" style="stroke:#A80036;stroke-width:1.0;"/><!--MD5=[644d3bda32b13afd96f2f5d418a902c1]
link ProposedCombinationView to Color--><path codeLine="104" d="M877.6783,545.614 C897.6433,557.949 922.6813,576.848 936.6603,600.5 C966.0313,650.192 958.6603,670.777 958.6603,728.5 C958.6603,728.5 958.6603,728.5 958.6603,1327.5 C958.6603,1394.052 1042.9643,1432.3596 1089.5643,1448.4501 " fill="none" id="ProposedCombinationView-to-Color" style="stroke:#A80036;stroke-width:1.0;stroke-dasharray:7.0,7.0;"/><polygon fill="#A80036" points="1094.5043,1450.1208,1087.2579,1443.4508,1089.7673,1448.5206,1084.6975,1451.03,1094.5043,1450.1208" style="stroke:#A80036;stroke-width:1.0;"/><!--MD5=[5edb36716a4c6fb9b73ccdfe060f2d05]
link MenuView to ProposedCombinationView--><path codeLine="105" d="M682.7823,372.59 C716.2513,404.03 790.2453,473.55 826.6283,507.74 " fill="none" id="MenuView-to-ProposedCombinationView" style="stroke:#A80036;stroke-width:1.0;stroke-dasharray:7.0,7.0;"/><polygon fill="#A80036" points="830.4513,511.33,826.6314,502.2521,826.8075,507.9062,821.1534,508.0823,830.4513,511.33" style="stroke:#A80036;stroke-width:1.0;"/><path d="M772.6603,415 L772.6603,440 L946.6603,440 L946.6603,425 L936.6603,415 L772.6603,415 " fill="#FBFB77" filter="url(#f8g8ifhbmzgz7)" style="stroke:#A80036;stroke-width:1.0;"/><path d="M936.6603,415 L936.6603,425 L946.6603,425 L936.6603,415 " fill="#FBFB77" style="stroke:#A80036;stroke-width:1.0;"/><text fill="#000000" font-family="sans-serif" font-size="13" lengthAdjust="spacing" textLength="153" x="778.6603" y="432.0669">read(proposeController)</text><!--MD5=[846c85d35f4a93f43b9e7108f510cad0]
link MenuView to Message--><path codeLine="109" d="M667.1593,372.82 C668.4863,392.95 669.0853,427.99 660.6603,456.5 C644.0663,512.64 642.8243,537.217 594.6603,570.5 C527.2163,617.106 471.1993,543.106 412.6603,600.5 C395.2323,617.588 415.7853,633.921 402.6603,654.5 C387.0773,678.934 360.2733,697.716 337.7803,710.244 " fill="none" id="MenuView-to-Message" style="stroke:#A80036;stroke-width:1.0;stroke-dasharray:7.0,7.0;"/><polygon fill="#A80036" points="333.3443,712.666,343.1605,711.8646,337.733,710.2702,339.3273,704.8427,333.3443,712.666" style="stroke:#A80036;stroke-width:1.0;"/><path d="M657.6603,514 L657.6603,539 L720.6603,539 L720.6603,524 L710.6603,514 L657.6603,514 " fill="#FBFB77" filter="url(#f8g8ifhbmzgz7)" style="stroke:#A80036;stroke-width:1.0;"/><path d="M710.6603,514 L710.6603,524 L720.6603,524 L710.6603,514 " fill="#FBFB77" style="stroke:#A80036;stroke-width:1.0;"/><text fill="#000000" font-family="sans-serif" font-size="13" lengthAdjust="spacing" textLength="42" x="663.6603" y="531.0669">write()</text><!--MD5=[7bf6310e2078d439bcd0e6b6dd4bf7dc]
link ProposedCombinationView to Message--><path codeLine="113" d="M809.7243,545.511 C787.6173,554.208 758.9883,564.402 732.6603,570.5 C617.1873,597.245 575.3403,550.958 467.6603,600.5 C435.6643,615.221 437.2923,632.66 409.6603,654.5 C383.9383,674.831 352.7213,695.305 329.9523,709.546 " fill="none" id="ProposedCombinationView-to-Message" style="stroke:#A80036;stroke-width:1.0;stroke-dasharray:7.0,7.0;"/><polygon fill="#A80036" points="325.5153,712.31,335.2693,710.9459,329.7591,709.666,331.0389,704.1559,325.5153,712.31" style="stroke:#A80036;stroke-width:1.0;"/><path d="M472.6603,613 L472.6603,638 L535.6603,638 L535.6603,623 L525.6603,613 L472.6603,613 " fill="#FBFB77" filter="url(#f8g8ifhbmzgz7)" style="stroke:#A80036;stroke-width:1.0;"/><path d="M525.6603,613 L525.6603,623 L535.6603,623 L525.6603,613 " fill="#FBFB77" style="stroke:#A80036;stroke-width:1.0;"/><text fill="#000000" font-family="sans-serif" font-size="13" lengthAdjust="spacing" textLength="42" x="478.6603" y="630.0669">write()</text><!--MD5=[058408ce5819f71d62d41402f2a6cc02]
link ProposedCombinationView to ErrorView--><path codeLine="117" d="M840.8783,545.501 C835.2653,559.664 827.7333,581.046 824.6603,600.5 C820.9163,624.206 820.9123,630.794 824.6603,654.5 C827.5793,672.958 834.3533,693.079 839.9633,707.675 " fill="none" id="ProposedCombinationView-to-ErrorView" style="stroke:#A80036;stroke-width:1.0;stroke-dasharray:7.0,7.0;"/><polygon fill="#A80036" points="841.8133,712.403,842.2568,702.5641,839.9904,707.7471,834.8074,705.4808,841.8133,712.403" style="stroke:#A80036;stroke-width:1.0;"/><path d="M829.6603,613 L829.6603,638 L923.6603,638 L923.6603,623 L913.6603,613 L829.6603,613 " fill="#FBFB77" filter="url(#f8g8ifhbmzgz7)" style="stroke:#A80036;stroke-width:1.0;"/><path d="M913.6603,613 L913.6603,623 L923.6603,623 L913.6603,613 " fill="#FBFB77" style="stroke:#A80036;stroke-width:1.0;"/><text fill="#000000" font-family="sans-serif" font-size="13" lengthAdjust="spacing" textLength="73" x="835.6603" y="630.0669">write(error)</text><!--MD5=[84218aafa7a878c97f717d9c345cf5ad]
link ProposedCombinationView to ProposeController--><path codeLine="125" d="M888.3753,545.574 C915.7543,557.776 951.4853,576.536 977.6603,600.5 C998.9353,619.978 991.7263,635.768 1013.6643,654.5 C1040.4143,677.351 1075.4043,694.554 1105.9243,706.596 " fill="none" id="ProposedCombinationView-to-ProposeController" style="stroke:#A80036;stroke-width:1.0;stroke-dasharray:7.0,7.0;"/><polygon fill="#A80036" points="1110.7843,708.484,1103.8301,701.5098,1106.1202,706.6824,1100.9476,708.9724,1110.7843,708.484" style="stroke:#A80036;stroke-width:1.0;"/><path d="M1018.6643,605.5 L1018.6643,645.5 L1139.6643,645.5 L1139.6643,615.5 L1129.6643,605.5 L1018.6643,605.5 " fill="#FBFB77" filter="url(#f8g8ifhbmzgz7)" style="stroke:#A80036;stroke-width:1.0;"/><path d="M1129.6643,605.5 L1129.6643,615.5 L1139.6643,615.5 L1129.6643,605.5 " fill="#FBFB77" style="stroke:#A80036;stroke-width:1.0;"/><text fill="#000000" font-family="sans-serif" font-size="13" lengthAdjust="spacing" textLength="100" x="1024.6643" y="622.5669">getError(colors)</text><text fill="#000000" font-family="sans-serif" font-size="13" lengthAdjust="spacing" textLength="72" x="1024.6643" y="637.6997">add(colors)</text><!--MD5=[03e1adeaed11e2ac298b9b43cd912fbb]
link ProposedCombination to Error--><path codeLine="130" d="M1282.4943,1350.741 C1266.0443,1373.017 1241.2143,1406.641 1223.8343,1430.1857 " fill="none" id="ProposedCombination-to-Error" style="stroke:#A80036;stroke-width:1.0;stroke-dasharray:7.0,7.0;"/><polygon fill="#A80036" points="1220.6743,1434.4598,1229.2348,1429.5897,1223.6415,1430.4354,1222.7958,1424.8421,1220.6743,1434.4598" style="stroke:#A80036;stroke-width:1.0;"/><!--MD5=[86870cdabd6f68629f04aeac36e6c4ff]
link ErrorView to Error--><path codeLine="131" d="M855.6803,746.664 C896.6223,840.813 1104.1543,1316.304 1144.6643,1374.5 C1150.7643,1383.27 1154.9743,1383.165 1161.6643,1391.5 C1171.2743,1403.483 1180.5943,1417.7615 1187.9943,1429.9675 " fill="none" id="ErrorView-to-Error" style="stroke:#A80036;stroke-width:1.0;stroke-dasharray:7.0,7.0;"/><polygon fill="#A80036" points="1190.6343,1434.3626,1189.4295,1424.5877,1188.06,1430.0763,1182.5714,1428.7067,1190.6343,1434.3626" style="stroke:#A80036;stroke-width:1.0;"/><!--MD5=[29fcc52e6d71b3dd4a5f09442a1139e9]
link ProposeView to ProposeController--><path codeLine="132" d="M595.3313,227.8 C654.6553,233.92 759.9063,246.98 847.6603,269.5 C1120.3143,339.46 1281.2843,255.87 1442.6643,486.5 C1508.5543,580.671 1342.6043,664.079 1243.0943,703.84 " fill="none" id="ProposeView-to-ProposeController" style="stroke:#A80036;stroke-width:1.0;"/><polygon fill="#A80036" points="1238.4143,705.7,1248.255,706.1006,1243.0622,703.8569,1245.306,698.664,1238.4143,705.7" style="stroke:#A80036;stroke-width:1.0;"/><path d="M1421.6643,407.5 L1421.6643,447.5 L1514.6643,447.5 L1514.6643,417.5 L1504.6643,407.5 L1421.6643,407.5 " fill="#FBFB77" filter="url(#f8g8ifhbmzgz7)" style="stroke:#A80036;stroke-width:1.0;"/><path d="M1504.6643,407.5 L1504.6643,417.5 L1514.6643,417.5 L1504.6643,407.5 " fill="#FBFB77" style="stroke:#A80036;stroke-width:1.0;"/><text fill="#000000" font-family="sans-serif" font-size="13" lengthAdjust="spacing" textLength="72" x="1427.6643" y="424.5669">isFinished()</text><text fill="#000000" font-family="sans-serif" font-size="13" lengthAdjust="spacing" textLength="65" x="1427.6643" y="439.6997">isWinner()</text><!--MD5=[2af68b46eeb5c2e46543eeb7557d9936]
link ProposeView to Message--><path codeLine="137" d="M502.1313,226.67 C407.9793,235.8 195.2203,270.72 93.6606,402.5 C25.2501,491.27 18.0213,564.393 84.6606,654.5 C125.2253,709.35 209.1343,723.841 258.9803,727.486 " fill="none" id="ProposeView-to-Message" style="stroke:#A80036;stroke-width:1.0;stroke-dasharray:7.0,7.0;"/><polygon fill="#A80036" points="263.9923,727.824,255.2825,723.2262,259.0037,727.4869,254.7431,731.208,263.9923,727.824" style="stroke:#A80036;stroke-width:1.0;"/><path d="M98.6606,415 L98.6606,440 L161.6606,440 L161.6606,425 L151.6606,415 L98.6606,415 " fill="#FBFB77" filter="url(#f8g8ifhbmzgz7)" style="stroke:#A80036;stroke-width:1.0;"/><path d="M151.6606,415 L151.6606,425 L161.6606,425 L151.6606,415 " fill="#FBFB77" style="stroke:#A80036;stroke-width:1.0;"/><text fill="#000000" font-family="sans-serif" font-size="13" lengthAdjust="spacing" textLength="42" x="104.6606" y="432.0669">write()</text><!--MD5=[7169228af196aecd88154fe1727a36de]
link Board to Board--><path codeLine="141" d="M1425.9343,989.495 C1443.4343,986.009 1460.6643,989.844 1460.6643,1001 C1460.6643,1011.023 1446.7543,1015.137 1431.2443,1013.341 " fill="none" id="Board-to-Board" style="stroke:#A80036;stroke-width:1.0;stroke-dasharray:7.0,7.0;"/><polygon fill="#A80036" points="1425.9343,1012.505,1434.1943,1017.869,1430.8723,1013.2904,1435.4509,1009.9683,1425.9343,1012.505" style="stroke:#A80036;stroke-width:1.0;"/><path d="M1465.6643,986.5 L1465.6643,1011.5 L1541.6643,1011.5 L1541.6643,996.5 L1531.6643,986.5 L1465.6643,986.5 " fill="#FBFB77" filter="url(#f8g8ifhbmzgz7)" style="stroke:#A80036;stroke-width:1.0;"/><path d="M1531.6643,986.5 L1531.6643,996.5 L1541.6643,996.5 L1531.6643,986.5 " fill="#FBFB77" style="stroke:#A80036;stroke-width:1.0;"/><text fill="#000000" font-family="sans-serif" font-size="13" lengthAdjust="spacing" textLength="55" x="1471.6643" y="1003.5669">isLoser()</text><!--MD5=[5e915b8ab835b2366405aaf6901e131b]
link Board to SecretCombination--><path codeLine="145" d="M1363.6797,1006.3762 C1363.6797,1006.3762 1300.3243,1024.135 1282.6643,1050.5 C1273.0143,1064.899 1273.6643,1074.682 1282.6643,1089.5 C1290.7343,1102.807 1322.2243,1119.029 1351.1943,1131.747 " fill="none" id="Board-SecretCombination" style="stroke:#A80036;stroke-width:1.0;"/><polygon fill="#A80036" points="1363.3743,1136.964,1356.6737,1129.7458,1358.7775,1134.9969,1353.5264,1137.1007,1363.3743,1136.964" style="stroke:#A80036;stroke-width:1.0;"/><line style="stroke:#A80036;stroke-width:1.0;" x1="1358.7775" x2="1351.4243" y1="1134.9969" y2="1131.846"/><polygon fill="#A80036" points="1375.5043,1004.332,1368.9106,1001.4126,1363.6797,1006.3762,1370.2734,1009.2956,1375.5043,1004.332" style="stroke:#A80036;stroke-width:1.0;"/><path d="M1287.6643,1055.5 L1287.6643,1080.5 L1520.6643,1080.5 L1520.6643,1065.5 L1510.6643,1055.5 L1287.6643,1055.5 " fill="#FBFB77" filter="url(#f8g8ifhbmzgz7)" style="stroke:#A80036;stroke-width:1.0;"/><path d="M1510.6643,1055.5 L1510.6643,1065.5 L1520.6643,1065.5 L1510.6643,1055.5 " fill="#FBFB77" style="stroke:#A80036;stroke-width:1.0;"/><text fill="#000000" font-family="sans-serif" font-size="13" lengthAdjust="spacing" textLength="212" x="1293.6643" y="1072.5669">getResult(proposedCombination)</text><!--MD5=[324ce3fbc91b6fad145775bb65621994]
link SecretCombination to ProposedCombination--><path codeLine="149" d="M1349.5215,1175.2641 C1349.5215,1175.2641 1234.1043,1217.86 1233.6643,1218.5 C1219.9543,1238.204 1223.2843,1250.859 1233.6643,1272.5 C1237.3743,1280.239 1242.8243,1287.206 1249.0343,1293.35 " fill="none" id="SecretCombination-ProposedCombination" style="stroke:#A80036;stroke-width:1.0;"/><polygon fill="#A80036" points="1259.2643,1302.32,1255.1269,1293.3823,1255.5021,1299.0267,1249.8577,1299.4019,1259.2643,1302.32" style="stroke:#A80036;stroke-width:1.0;"/><line style="stroke:#A80036;stroke-width:1.0;" x1="1255.5021" x2="1249.4893" y1="1299.0267" y2="1293.7505"/><polygon fill="#A80036" points="1360.7843,1171.123,1353.7725,1169.4393,1349.5215,1175.2641,1356.5333,1176.9478,1360.7843,1171.123" style="stroke:#A80036;stroke-width:1.0;"/><path d="M1238.6643,1223.5 L1238.6643,1263.5 L1412.6643,1263.5 L1412.6643,1233.5 L1402.6643,1223.5 L1238.6643,1223.5 " fill="#FBFB77" filter="url(#f8g8ifhbmzgz7)" style="stroke:#A80036;stroke-width:1.0;"/><path d="M1402.6643,1223.5 L1402.6643,1233.5 L1412.6643,1233.5 L1402.6643,1223.5 " fill="#FBFB77" style="stroke:#A80036;stroke-width:1.0;"/><text fill="#000000" font-family="sans-serif" font-size="13" lengthAdjust="spacing" textLength="95" x="1244.6643" y="1240.5669">contains(color)</text><text fill="#000000" font-family="sans-serif" font-size="13" lengthAdjust="spacing" textLength="153" x="1244.6643" y="1255.6997">contains(color, position)</text><!--MD5=[07d792321078d51159861622e3ead1f5]
link SecretCombination to Color--><path codeLine="154" d="M1361.4426,1176.0156 C1361.4426,1176.0156 1340.4743,1185.016 1330.6643,1188.5 C1281.2843,1206.032 1256.0043,1183.903 1216.6643,1218.5 C1156.0043,1271.84 1132.6643,1368.67 1124.1743,1421.2212 " fill="none" id="SecretCombination-Color" style="stroke:#A80036;stroke-width:1.0;"/><polygon fill="#A80036" points="1122.2343,1434.1859,1127.5206,1425.876,1122.9733,1429.2408,1119.6085,1424.6935,1122.2343,1434.1859" style="stroke:#A80036;stroke-width:1.0;"/><line style="stroke:#A80036;stroke-width:1.0;" x1="1122.9733" x2="1124.1543" y1="1429.2408" y2="1421.3287"/><polygon fill="#A80036" points="1372.3643,1171.044,1365.2463,1169.8892,1361.4426,1176.0156,1368.5607,1177.1704,1372.3643,1171.044" style="stroke:#A80036;stroke-width:1.0;"/><!--MD5=[f874647c3c9f57491b6e7b7bf233051a]
link SecretCombination to Result--><path codeLine="155" d="M1409.3243,1171.05 C1416.9943,1195.288 1434.2343,1241.671 1461.6643,1272.5 C1476.4143,1289.079 1497.5443,1302.471 1514.7843,1311.646 " fill="none" id="SecretCombination-to-Result" style="stroke:#A80036;stroke-width:1.0;stroke-dasharray:7.0,7.0;"/><polygon fill="#A80036" points="1519.5443,1314.121,1513.4163,1306.4108,1515.1117,1311.8076,1509.7149,1313.5029,1519.5443,1314.121" style="stroke:#A80036;stroke-width:1.0;"/><path d="M1466.6643,1231 L1466.6643,1256 L1614.6643,1256 L1614.6643,1241 L1604.6643,1231 L1466.6643,1231 " fill="#FBFB77" filter="url(#f8g8ifhbmzgz7)" style="stroke:#A80036;stroke-width:1.0;"/><path d="M1604.6643,1231 L1604.6643,1241 L1614.6643,1241 L1604.6643,1231 " fill="#FBFB77" style="stroke:#A80036;stroke-width:1.0;"/><text fill="#000000" font-family="sans-serif" font-size="13" lengthAdjust="spacing" textLength="127" x="1472.6643" y="1248.0669">new(blacks, whites)</text><!--MD5=[7f34f2d425e9b3ee5350efe269b05f59]
link Board to Error--><path codeLine="159" d="M1425.7143,1001.712 C1495.3243,1001.499 1688.4843,1005.087 1727.6643,1050.5 C1824.3343,1162.566 1824.7243,1271.771 1727.6643,1383.5 C1662.5443,1458.4537 1333.8743,1459.5917 1233.0943,1458.1284 " fill="none" id="Board-to-Error" style="stroke:#A80036;stroke-width:1.0;stroke-dasharray:7.0,7.0;"/><polygon fill="#A80036" points="1227.9043,1458.0477,1236.8463,1462.1759,1232.9038,1458.1191,1236.9605,1454.1767,1227.9043,1458.0477" style="stroke:#A80036;stroke-width:1.0;"/><!--MD5=[9c3c49d2c46e41492ade90d337e2ed2e]
link ProposeView to MenuView--><path codeLine="160" d="M583.7273,239.63 C597.4533,247.22 612.5393,257.32 623.6603,269.5 C640.5983,288.06 652.2703,314.71 658.9333,333.2 " fill="none" id="ProposeView-to-MenuView" style="stroke:#A80036;stroke-width:1.0;stroke-dasharray:7.0,7.0;"/><polygon fill="#A80036" points="660.6803,338.18,661.4986,328.3652,659.0363,333.458,653.9435,330.9957,660.6803,338.18" style="stroke:#A80036;stroke-width:1.0;"/><path d="M653.6603,274.5 L653.6603,299.5 L830.6603,299.5 L830.6603,284.5 L820.6603,274.5 L653.6603,274.5 " fill="#FBFB77" filter="url(#f8g8ifhbmzgz7)" style="stroke:#A80036;stroke-width:1.0;"/><path d="M820.6603,274.5 L820.6603,284.5 L830.6603,284.5 L820.6603,274.5 " fill="#FBFB77" style="stroke:#A80036;stroke-width:1.0;"/><text fill="#000000" font-family="sans-serif" font-size="13" lengthAdjust="spacing" textLength="156" x="659.6603" y="291.5669">write(proposeController)</text><!--MD5=[a0008d84769590057dec8611c10a285a]
@startuml
allow_mixing

actor Player

package views {
    object ProposeView
    object Message
    object BoardView
    object SecretCombinationView
    object ProposedCombinationView
    object ResultView
    object ColorView
    object ErrorView
    object MenuView
}

package controllers {
    object "proposeController\n:ProposeController" as ProposeController
}

package models {
    object Board
    object Result
    object "proposedCombination\n:ProposedCombination" as ProposedCombination
    object SecretCombination
}

package types {
    object "color\n:Color" as Color
    object "error\n:Error" as Error
}

Player -down-> ProposeView
note on link
    propose()
end note
ProposeView .down.> BoardView
note on link
    write(proposeController)
end note
BoardView .down.> ProposeController
note on link
    getAttempts()
    getProposedCombinationColors(position)
    getBlacks(position)
    getWhites(position)
end note
BoardView .down.> Message
note on link
    write(attempts)
end note
BoardView .down.> SecretCombinationView
note on link
    write()
end note
SecretCombinationView .down.> Message
note on link
    write()
end note
BoardView .down.> ProposedCombinationView
note on link
    write(colors)
end note
ProposedCombinationView .down.> ColorView
note on link
    write(color)
end note
ColorView .down.> Color
BoardView .down.> ResultView
note on link
    write(blacks, whites)
end note
ResultView .down.> Message
note on link
    write(blacks, whites)
end note
ProposeController -down-> Board
note on link
    getError(colors)
    add(colors)
    isFinished()
    isWinner()
    getAttempts()
    getProposedCombinationColors(position)
    getBlacks(position)
    getWhites(position)
end note
Board *-down-> Result
note on link
    isWinner()
    getBlacks()
    getWhites()
end note
Board *-down-> ProposedCombination
note on link
    new(colors)
    getError()
    getColors()
end note
ProposedCombination *-down-> Color
Board .down.> Color
ProposeController .down.> Color
BoardView .down.> Color
ProposedCombinationView .down.> Color
MenuView .down.> ProposedCombinationView
note on link
    read(proposeController)
end note
MenuView .down.> Message
note on link
    write()
end note
ProposedCombinationView .down.> Message
note on link
    write()
end note
ProposedCombinationView .down.> ErrorView
note on link
    write(error)
end note
ProposedCombinationView .down.> ColorView
note on link
    read()
end note
ProposedCombinationView .down.> ProposeController
note on link
    getError(colors)
    add(colors)
end note
ProposedCombination .down.> Error
ErrorView .down.> Error
ProposeView -down-> ProposeController
note on link
    isFinished()
    isWinner()
end note
ProposeView .down.> Message
note on link
    write()
end note
Board .down.> Board
note on link
    isLoser()
end note
Board *-down-> SecretCombination
note on link
    getResult(proposedCombination)
end note
SecretCombination *-down-> ProposedCombination
note on link
    contains(color)
    contains(color, position)
end note
SecretCombination *-down-> Color
SecretCombination .down.> Result
note on link
    new(blacks, whites)
end note
Board .down.> Error
ProposeView .down.> MenuView
note on link
    write(proposeController)
end note
@enduml

PlantUML version 1.2021.4beta3(Unknown compile time)
(GPL source distribution)
Java Runtime: Java(TM) SE Runtime Environment
JVM: Java HotSpot(TM) 64-Bit Server VM
Default Encoding: UTF-8
Language: en
Country: US
--></g></svg>