<?xml version="1.0" encoding="UTF-8" standalone="no"?><svg xmlns="http://www.w3.org/2000/svg" xmlns:xlink="http://www.w3.org/1999/xlink" contentScriptType="application/ecmascript" contentStyleType="text/css" height="434px" preserveAspectRatio="none" style="width:999px;height:434px;" version="1.1" viewBox="0 0 999 434" width="999px" zoomAndPan="magnify"><defs><filter height="300%" id="f16ojhtuxsjcqv" width="300%" x="-1" y="-1"><feGaussianBlur result="blurOut" stdDeviation="2.0"/><feColorMatrix in="blurOut" result="blurOut2" type="matrix" values="0 0 0 0 0 0 0 0 0 0 0 0 0 0 0 0 0 0 .4 0"/><feOffset dx="4.0" dy="4.0" in="blurOut2" result="blurOut3"/><feBlend in="SourceGraphic" in2="blurOut3" mode="normal"/></filter></defs><g><rect fill="#FEFECE" filter="url(#f16ojhtuxsjcqv)" height="33.9688" style="stroke:#A80036;stroke-width:1.5;" width="88" x="421" y="7"/><text fill="#000000" font-family="sans-serif" font-size="12" lengthAdjust="spacing" textLength="74" x="428" y="20.1387">:Mastermind</text><line style="stroke:#A80036;stroke-width:1.5;" x1="422" x2="508" y1="24.9688" y2="24.9688"/><rect fill="#FEFECE" filter="url(#f16ojhtuxsjcqv)" height="37.6094" style="stroke:#A80036;stroke-width:1.5;" width="81" x="424.5" y="101"/><text fill="#000000" font-family="sans-serif" font-size="12" lengthAdjust="spacing" textLength="40" x="445" y="114.1387">:Board</text><line style="stroke:#A80036;stroke-width:1.5;" x1="425.5" x2="504.5" y1="118.9688" y2="118.9688"/><text fill="#000000" font-family="sans-serif" font-size="10" lengthAdjust="spacing" textLength="69" x="430.5" y="132.251">attempts = 5</text><rect fill="#FEFECE" filter="url(#f16ojhtuxsjcqv)" height="33.9688" style="stroke:#A80036;stroke-width:1.5;" width="132" x="399" y="199"/><text fill="#000000" font-family="sans-serif" font-size="12" lengthAdjust="spacing" textLength="118" x="406" y="212.1387">:SecretCombination</text><line style="stroke:#A80036;stroke-width:1.5;" x1="400" x2="530" y1="216.9688" y2="216.9688"/><rect fill="#FEFECE" filter="url(#f16ojhtuxsjcqv)" height="33.9688" style="stroke:#A80036;stroke-width:1.5;" width="150" x="72" y="199"/><text fill="#000000" font-family="sans-serif" font-size="12" lengthAdjust="spacing" textLength="136" x="79" y="212.1387">:ProposedCombination</text><line style="stroke:#A80036;stroke-width:1.5;" x1="73" x2="221" y1="216.9688" y2="216.9688"/><rect fill="#FEFECE" filter="url(#f16ojhtuxsjcqv)" height="33.9688" style="stroke:#A80036;stroke-width:1.5;" width="150" x="695" y="199"/><text fill="#000000" font-family="sans-serif" font-size="12" lengthAdjust="spacing" textLength="136" x="702" y="212.1387">:ProposedCombination</text><line style="stroke:#A80036;stroke-width:1.5;" x1="696" x2="844" y1="216.9688" y2="216.9688"/><rect fill="#FEFECE" filter="url(#f16ojhtuxsjcqv)" height="33.9688" style="stroke:#A80036;stroke-width:1.5;" width="50" x="7" y="293"/><text fill="#000000" font-family="sans-serif" font-size="12" lengthAdjust="spacing" textLength="36" x="14" y="306.1387">:Color</text><line style="stroke:#A80036;stroke-width:1.5;" x1="8" x2="56" y1="310.9688" y2="310.9688"/><rect fill="#FEFECE" filter="url(#f16ojhtuxsjcqv)" height="33.9688" style="stroke:#A80036;stroke-width:1.5;" width="50" x="112" y="293"/><text fill="#000000" font-family="sans-serif" font-size="12" lengthAdjust="spacing" textLength="36" x="119" y="306.1387">:Color</text><line style="stroke:#A80036;stroke-width:1.5;" x1="113" x2="161" y1="310.9688" y2="310.9688"/><rect fill="#FEFECE" filter="url(#f16ojhtuxsjcqv)" height="33.9688" style="stroke:#A80036;stroke-width:1.5;" width="50" x="659" y="293"/><text fill="#000000" font-family="sans-serif" font-size="12" lengthAdjust="spacing" textLength="36" x="666" y="306.1387">:Color</text><line style="stroke:#A80036;stroke-width:1.5;" x1="660" x2="708" y1="310.9688" y2="310.9688"/><rect fill="#FEFECE" filter="url(#f16ojhtuxsjcqv)" height="33.9688" style="stroke:#A80036;stroke-width:1.5;" width="50" x="744" y="293"/><text fill="#000000" font-family="sans-serif" font-size="12" lengthAdjust="spacing" textLength="36" x="751" y="306.1387">:Color</text><line style="stroke:#A80036;stroke-width:1.5;" x1="745" x2="793" y1="310.9688" y2="310.9688"/><rect fill="#FEFECE" filter="url(#f16ojhtuxsjcqv)" height="33.9688" style="stroke:#A80036;stroke-width:1.5;" width="50" x="408" y="293"/><text fill="#000000" font-family="sans-serif" font-size="12" lengthAdjust="spacing" textLength="36" x="415" y="306.1387">:Color</text><line style="stroke:#A80036;stroke-width:1.5;" x1="409" x2="457" y1="310.9688" y2="310.9688"/><rect fill="#FEFECE" filter="url(#f16ojhtuxsjcqv)" height="33.9688" style="stroke:#A80036;stroke-width:1.5;" width="50" x="493" y="293"/><text fill="#000000" font-family="sans-serif" font-size="12" lengthAdjust="spacing" textLength="36" x="500" y="306.1387">:Color</text><line style="stroke:#A80036;stroke-width:1.5;" x1="494" x2="542" y1="310.9688" y2="310.9688"/><rect fill="#FEFECE" filter="url(#f16ojhtuxsjcqv)" height="33.9688" style="stroke:#A80036;stroke-width:1.5;" width="54" x="319" y="293"/><text fill="#000000" font-family="sans-serif" font-size="12" lengthAdjust="spacing" textLength="40" x="326" y="306.1387">:Result</text><line style="stroke:#A80036;stroke-width:1.5;" x1="320" x2="372" y1="310.9688" y2="310.9688"/><rect fill="#FEFECE" filter="url(#f16ojhtuxsjcqv)" height="33.9688" style="stroke:#A80036;stroke-width:1.5;" width="54" x="850" y="293"/><text fill="#000000" font-family="sans-serif" font-size="12" lengthAdjust="spacing" textLength="40" x="857" y="306.1387">:Result</text><line style="stroke:#A80036;stroke-width:1.5;" x1="851" x2="903" y1="310.9688" y2="310.9688"/><rect fill="#FEFECE" filter="url(#f16ojhtuxsjcqv)" height="33.9688" style="stroke:#A80036;stroke-width:1.5;" width="52" x="321" y="387"/><text fill="#000000" font-family="sans-serif" font-size="12" lengthAdjust="spacing" textLength="38" x="328" y="400.1387">:White</text><line style="stroke:#A80036;stroke-width:1.5;" x1="322" x2="372" y1="404.9688" y2="404.9688"/><rect fill="#FEFECE" filter="url(#f16ojhtuxsjcqv)" height="33.9688" style="stroke:#A80036;stroke-width:1.5;" width="50" x="535" y="387"/><text fill="#000000" font-family="sans-serif" font-size="12" lengthAdjust="spacing" textLength="36" x="542" y="400.1387">:Black</text><line style="stroke:#A80036;stroke-width:1.5;" x1="536" x2="584" y1="404.9688" y2="404.9688"/><rect fill="#FEFECE" filter="url(#f16ojhtuxsjcqv)" height="33.9688" style="stroke:#A80036;stroke-width:1.5;" width="50" x="935" y="387"/><text fill="#000000" font-family="sans-serif" font-size="12" lengthAdjust="spacing" textLength="36" x="942" y="400.1387">:Black</text><line style="stroke:#A80036;stroke-width:1.5;" x1="936" x2="984" y1="404.9688" y2="404.9688"/><rect fill="#FEFECE" filter="url(#f16ojhtuxsjcqv)" height="33.9688" style="stroke:#A80036;stroke-width:1.5;" width="52" x="234" y="387"/><text fill="#000000" font-family="sans-serif" font-size="12" lengthAdjust="spacing" textLength="38" x="241" y="400.1387">:White</text><line style="stroke:#A80036;stroke-width:1.5;" x1="235" x2="285" y1="404.9688" y2="404.9688"/><rect fill="#FEFECE" filter="url(#f16ojhtuxsjcqv)" height="33.9688" style="stroke:#A80036;stroke-width:1.5;" width="50" x="429" y="387"/><text fill="#000000" font-family="sans-serif" font-size="12" lengthAdjust="spacing" textLength="36" x="436" y="400.1387">:Black</text><line style="stroke:#A80036;stroke-width:1.5;" x1="430" x2="478" y1="404.9688" y2="404.9688"/><rect fill="#FEFECE" filter="url(#f16ojhtuxsjcqv)" height="33.9688" style="stroke:#A80036;stroke-width:1.5;" width="50" x="850" y="387"/><text fill="#000000" font-family="sans-serif" font-size="12" lengthAdjust="spacing" textLength="36" x="857" y="400.1387">:Black</text><line style="stroke:#A80036;stroke-width:1.5;" x1="851" x2="899" y1="404.9688" y2="404.9688"/><path d="M160.5,107.5 L160.5,132.6328 L261.5,132.6328 L261.5,117.5 L251.5,107.5 L160.5,107.5 " fill="#FBFB77" filter="url(#f16ojhtuxsjcqv)" style="stroke:#A80036;stroke-width:1.0;"/><path d="M251.5,107.5 L251.5,117.5 L261.5,117.5 L251.5,107.5 " fill="#FBFB77" style="stroke:#A80036;stroke-width:1.0;"/><text fill="#000000" font-family="sans-serif" font-size="13" lengthAdjust="spacing" textLength="80" x="166.5" y="124.5669">attempts - 1</text><path d="M943.5,297.5 L943.5,322.6328 L972.5,322.6328 L972.5,307.5 L962.5,297.5 L943.5,297.5 " fill="#FBFB77" filter="url(#f16ojhtuxsjcqv)" style="stroke:#A80036;stroke-width:1.0;"/><path d="M962.5,297.5 L962.5,307.5 L972.5,307.5 L962.5,297.5 " fill="#FBFB77" style="stroke:#A80036;stroke-width:1.0;"/><text fill="#000000" font-family="sans-serif" font-size="13" lengthAdjust="spacing" textLength="8" x="949.5" y="314.5669">4</text><path d="M578.5,297.5 L578.5,322.6328 L623.5,322.6328 L623.5,307.5 L613.5,297.5 L578.5,297.5 " fill="#FBFB77" filter="url(#f16ojhtuxsjcqv)" style="stroke:#A80036;stroke-width:1.0;"/><path d="M613.5,297.5 L613.5,307.5 L623.5,307.5 L613.5,297.5 " fill="#FBFB77" style="stroke:#A80036;stroke-width:1.0;"/><text fill="#000000" font-family="sans-serif" font-size="13" lengthAdjust="spacing" textLength="24" x="584.5" y="314.5669">0..3</text><path d="M237.5,297.5 L237.5,322.6328 L282.5,322.6328 L282.5,307.5 L272.5,297.5 L237.5,297.5 " fill="#FBFB77" filter="url(#f16ojhtuxsjcqv)" style="stroke:#A80036;stroke-width:1.0;"/><path d="M272.5,297.5 L272.5,307.5 L282.5,307.5 L272.5,297.5 " fill="#FBFB77" style="stroke:#A80036;stroke-width:1.0;"/><text fill="#000000" font-family="sans-serif" font-size="13" lengthAdjust="spacing" textLength="24" x="243.5" y="314.5669">0..4</text><path d="M7.5,203.5 L7.5,228.6328 L36.5,228.6328 L36.5,213.5 L26.5,203.5 L7.5,203.5 " fill="#FBFB77" filter="url(#f16ojhtuxsjcqv)" style="stroke:#A80036;stroke-width:1.0;"/><path d="M26.5,203.5 L26.5,213.5 L36.5,213.5 L26.5,203.5 " fill="#FBFB77" style="stroke:#A80036;stroke-width:1.0;"/><text fill="#000000" font-family="sans-serif" font-size="13" lengthAdjust="spacing" textLength="8" x="13.5" y="220.5669">4</text><path d="M630.5,203.5 L630.5,228.6328 L659.5,228.6328 L659.5,213.5 L649.5,203.5 L630.5,203.5 " fill="#FBFB77" filter="url(#f16ojhtuxsjcqv)" style="stroke:#A80036;stroke-width:1.0;"/><path d="M649.5,203.5 L649.5,213.5 L659.5,213.5 L649.5,203.5 " fill="#FBFB77" style="stroke:#A80036;stroke-width:1.0;"/><text fill="#000000" font-family="sans-serif" font-size="13" lengthAdjust="spacing" textLength="8" x="636.5" y="220.5669">4</text><path d="M566.5,203.5 L566.5,228.6328 L595.5,228.6328 L595.5,213.5 L585.5,203.5 L566.5,203.5 " fill="#FBFB77" filter="url(#f16ojhtuxsjcqv)" style="stroke:#A80036;stroke-width:1.0;"/><path d="M585.5,203.5 L585.5,213.5 L595.5,213.5 L585.5,203.5 " fill="#FBFB77" style="stroke:#A80036;stroke-width:1.0;"/><text fill="#000000" font-family="sans-serif" font-size="13" lengthAdjust="spacing" textLength="8" x="572.5" y="220.5669">4</text><!--MD5=[ba28573f2062cf9f5d1d4aa517f0cc38]
link Mastermind to Board--><path codeLine="23" d="M465,53.374 C465,53.374 465,77.186 465,87.825 " fill="none" id="Mastermind-Board" style="stroke:#A80036;stroke-width:1.0;"/><polygon fill="#A80036" points="465,100.89,469,91.89,465,95.89,461,91.89,465,100.89" style="stroke:#A80036;stroke-width:1.0;"/><line style="stroke:#A80036;stroke-width:1.0;" x1="465" x2="465" y1="95.89" y2="87.89"/><polygon fill="#A80036" points="465,41.374,461,47.374,465,53.374,469,47.374,465,41.374" style="stroke:#A80036;stroke-width:1.0;"/><!--MD5=[1a244b34137b2cdac83f259bce2e7e0c]
link Board to ProposedCombination1--><path codeLine="25" d="M412.894,136.4018 C412.894,136.4018 272.583,177.878 213.693,195.286 " fill="none" id="Board-ProposedCombination1" style="stroke:#A80036;stroke-width:1.0;"/><polygon fill="#A80036" points="201.169,198.988,210.9336,200.2734,205.964,197.571,208.6664,192.6014,201.169,198.988" style="stroke:#A80036;stroke-width:1.0;"/><line style="stroke:#A80036;stroke-width:1.0;" x1="205.964" x2="213.6355" y1="197.571" y2="195.3025"/><polygon fill="#A80036" points="424.402,133.001,417.5144,130.8654,412.894,136.4018,419.7816,138.5374,424.402,133.001" style="stroke:#A80036;stroke-width:1.0;"/><!--MD5=[4be58f9132d39a59fe6a0c61b87e41fe]
link Board to ProposedCombination2--><path codeLine="26" d="M516.9699,137.0158 C516.9699,137.0158 649.507,177.864 705.257,195.047 " fill="none" id="Board-ProposedCombination2" style="stroke:#A80036;stroke-width:1.0;"/><polygon fill="#A80036" points="717.829,198.921,710.4063,192.4478,713.0508,197.4484,708.0501,200.0929,717.829,198.921" style="stroke:#A80036;stroke-width:1.0;"/><line style="stroke:#A80036;stroke-width:1.0;" x1="713.0508" x2="705.406" y1="197.4484" y2="195.092"/><polygon fill="#A80036" points="505.502,133.482,510.058,139.0715,516.9699,137.0158,512.4139,131.4263,505.502,133.482" style="stroke:#A80036;stroke-width:1.0;"/><!--MD5=[5e915b8ab835b2366405aaf6901e131b]
link Board to SecretCombination--><path codeLine="27" d="M465,151.124 C465,151.124 465,175.033 465,185.556 " fill="none" id="Board-SecretCombination" style="stroke:#A80036;stroke-width:1.0;"/><polygon fill="#A80036" points="465,198.814,469,189.814,465,193.814,461,189.814,465,198.814" style="stroke:#A80036;stroke-width:1.0;"/><line style="stroke:#A80036;stroke-width:1.0;" x1="465" x2="465" y1="193.814" y2="185.814"/><polygon fill="#A80036" points="465,139.124,461,145.124,465,151.124,469,145.124,465,139.124" style="stroke:#A80036;stroke-width:1.0;"/><!--MD5=[914caaae02ab14cee3e738af83306162]
link Board to Result1--><path codeLine="28" d="M429.8834,146.6189 C429.8834,146.6189 393.504,179.286 381,199 C365.103,224.064 355.885,256.944 350.939,280.207 " fill="none" id="Board-Result1" style="stroke:#A80036;stroke-width:1.0;"/><polygon fill="#A80036" points="348.446,292.977,354.0967,284.9105,349.4043,288.0697,346.245,283.3772,348.446,292.977" style="stroke:#A80036;stroke-width:1.0;"/><line style="stroke:#A80036;stroke-width:1.0;" x1="349.4043" x2="350.9375" y1="288.0697" y2="280.218"/><polygon fill="#A80036" points="439.259,139.129,432.0746,139.7488,429.8834,146.6189,437.0679,145.9991,439.259,139.129" style="stroke:#A80036;stroke-width:1.0;"/><!--MD5=[95a13460e6e859f55e72c5e6e6d1b7e5]
link Board to Result2--><path codeLine="29" d="M517.7073,123.9486 C517.7073,123.9486 815.797,150.014 862,199 C882.009,220.215 883.606,254.778 881.565,279.499 " fill="none" id="Board-Result2" style="stroke:#A80036;stroke-width:1.0;"/><polygon fill="#A80036" points="880.055,292.743,885.049,284.2542,880.6215,287.7752,877.1005,283.3477,880.055,292.743" style="stroke:#A80036;stroke-width:1.0;"/><line style="stroke:#A80036;stroke-width:1.0;" x1="880.6215" x2="881.5285" y1="287.7752" y2="279.8265"/><polygon fill="#A80036" points="505.733,123.164,511.4586,127.5477,517.7073,123.9486,511.9817,119.5648,505.733,123.164" style="stroke:#A80036;stroke-width:1.0;"/><!--MD5=[a87feb8d1dd9c294a312b7c04561d75b]
link proposedCombinations to ProposedCombination1--><path codeLine="30" d="M203.152,132.526 C191.804,149.195 170.765,180.095 157.911,198.974 " fill="none" id="proposedCombinations-ProposedCombination1" style="stroke:#A80036;stroke-width:1.0;stroke-dasharray:7.0,7.0;"/><!--MD5=[6b27346b4815ba70ea63f7fcbf5d8bcc]
link ProposedCombination1 to Color1--><path codeLine="31" d="M117.5987,240.5215 C117.5987,240.5215 79.2665,271.187 62.5336,284.573 " fill="none" id="ProposedCombination1-Color1" style="stroke:#A80036;stroke-width:1.0;"/><polygon fill="#A80036" points="52.1878,292.85,61.7144,290.3512,56.0921,289.7265,56.7168,284.1043,52.1878,292.85" style="stroke:#A80036;stroke-width:1.0;"/><line style="stroke:#A80036;stroke-width:1.0;" x1="56.0921" x2="62.3391" y1="289.7265" y2="284.729"/><polygon fill="#A80036" points="126.969,233.025,119.785,233.6498,117.5987,240.5215,124.7827,239.8967,126.969,233.025" style="stroke:#A80036;stroke-width:1.0;"/><!--MD5=[5a57d6df7393cbb56f819ac7f3bd6885]
link ProposedCombination1 to Color2--><path codeLine="32" d="M143.9605,244.9546 C143.9605,244.9546 141.344,269.034 140.176,279.779 " fill="none" id="ProposedCombination1-Color2" style="stroke:#A80036;stroke-width:1.0;"/><polygon fill="#A80036" points="138.755,292.85,143.7047,284.3353,139.2956,287.8793,135.7516,283.4703,138.755,292.85" style="stroke:#A80036;stroke-width:1.0;"/><line style="stroke:#A80036;stroke-width:1.0;" x1="139.2956" x2="140.1605" y1="287.8793" y2="279.926"/><polygon fill="#A80036" points="145.258,233.025,140.6327,238.5573,143.9605,244.9546,148.5858,239.4223,145.258,233.025" style="stroke:#A80036;stroke-width:1.0;"/><!--MD5=[8eb1ea0027da0041304381b5c8cedc0b]
link ProposedCombination1 to Result1--><path codeLine="33" d="M181.663,233.025 C218.963,250.27 277.795,277.468 314.021,294.216 " fill="none" id="ProposedCombination1-to-Result1" style="stroke:#A80036;stroke-width:1.0;"/><polygon fill="#A80036" points="318.76,296.407,312.2698,288.9991,314.2217,294.3085,308.9122,296.2604,318.76,296.407" style="stroke:#A80036;stroke-width:1.0;"/><!--MD5=[1abf1250e00a19f2370493b6c5d08361]
link ProposedCombination2 to Color3--><path codeLine="34" d="M746.825,241.791 C746.825,241.791 720.048,270.437 708.312,282.992 " fill="none" id="ProposedCombination2-Color3" style="stroke:#A80036;stroke-width:1.0;"/><polygon fill="#A80036" points="699.097,292.85,708.1652,289.0072,702.5116,289.1975,702.3212,283.5439,699.097,292.85" style="stroke:#A80036;stroke-width:1.0;"/><line style="stroke:#A80036;stroke-width:1.0;" x1="702.5116" x2="707.9745" y1="289.1975" y2="283.353"/><polygon fill="#A80036" points="755.02,233.025,748.0005,234.6763,746.825,241.791,753.8445,240.1396,755.02,233.025" style="stroke:#A80036;stroke-width:1.0;"/><!--MD5=[f8da555c3366cc8c282b77a0c447453c]
link ProposedCombination2 to Color4--><path codeLine="35" d="M769.6954,245.0243 C769.6954,245.0243 769.434,269.034 769.318,279.779 " fill="none" id="ProposedCombination2-Color4" style="stroke:#A80036;stroke-width:1.0;"/><polygon fill="#A80036" points="769.176,292.85,773.2737,283.894,769.2304,287.8503,765.2741,283.807,769.176,292.85" style="stroke:#A80036;stroke-width:1.0;"/><line style="stroke:#A80036;stroke-width:1.0;" x1="769.2304" x2="769.317" y1="287.8503" y2="279.8505"/><polygon fill="#A80036" points="769.826,233.025,765.761,238.9811,769.6954,245.0243,773.7605,239.0682,769.826,233.025" style="stroke:#A80036;stroke-width:1.0;"/><!--MD5=[c95cfa3b3cb5ca82d49ea29b0977a9ab]
link ProposedCombination2 to Result2--><path codeLine="36" d="M788.638,233.025 C806.937,248.759 834.875,272.78 854.424,289.589 " fill="none" id="ProposedCombination2-to-Result2" style="stroke:#A80036;stroke-width:1.0;"/><polygon fill="#A80036" points="858.217,292.85,854.0006,283.9493,854.4258,289.5902,848.7849,290.0153,858.217,292.85" style="stroke:#A80036;stroke-width:1.0;"/><!--MD5=[91a9cfdc873c82b02ae813e02de79142]
link SecretCombination to Color5--><path codeLine="37" d="M455.4844,244.3592 C455.4844,244.3592 446.801,269.321 442.96,280.365 " fill="none" id="SecretCombination-Color5" style="stroke:#A80036;stroke-width:1.0;"/><polygon fill="#A80036" points="438.617,292.85,445.3513,285.6632,440.2593,288.1274,437.7951,283.0355,438.617,292.85" style="stroke:#A80036;stroke-width:1.0;"/><line style="stroke:#A80036;stroke-width:1.0;" x1="440.2593" x2="442.8885" y1="288.1274" y2="280.5715"/><polygon fill="#A80036" points="459.426,233.025,453.6771,237.3782,455.4844,244.3592,461.2333,240.006,459.426,233.025" style="stroke:#A80036;stroke-width:1.0;"/><!--MD5=[8bdeecaff99264819c5e66092264d544]
link SecretCombination to Color6--><path codeLine="38" d="M480.2227,243.4227 C480.2227,243.4227 495.496,269.937 502.199,281.572 " fill="none" id="SecretCombination-Color6" style="stroke:#A80036;stroke-width:1.0;"/><polygon fill="#A80036" points="508.696,292.85,507.6689,283.0548,506.1999,288.5176,500.7371,287.0486,508.696,292.85" style="stroke:#A80036;stroke-width:1.0;"/><line style="stroke:#A80036;stroke-width:1.0;" x1="506.1999" x2="502.2065" y1="288.5176" y2="281.5855"/><polygon fill="#A80036" points="474.232,233.025,473.7615,240.2207,480.2227,243.4227,480.6932,236.2269,474.232,233.025" style="stroke:#A80036;stroke-width:1.0;"/><!--MD5=[3a0e38dfd171e33f35f9ad23dfec914a]
link proposedCombinations to Result1--><path codeLine="39" d="M219.445,132.76 C242.708,165.156 307.756,255.742 334.398,292.843 " fill="none" id="proposedCombinations-Result1" style="stroke:#A80036;stroke-width:1.0;stroke-dasharray:7.0,7.0;"/><!--MD5=[02a62f1c461146af858bc2f5d9731864]
link Result1 to White1--><path codeLine="40" d="M346.3046,339.0245 C346.3046,339.0245 346.566,363.0344 346.682,373.779 " fill="none" id="Result1-White1" style="stroke:#A80036;stroke-width:1.0;"/><polygon fill="#A80036" points="346.824,386.8498,350.726,377.8069,346.7697,381.8501,342.7264,377.8938,346.824,386.8498" style="stroke:#A80036;stroke-width:1.0;"/><line style="stroke:#A80036;stroke-width:1.0;" x1="346.7697" x2="346.683" y1="381.8501" y2="373.8506"/><polygon fill="#A80036" points="346.174,327.0252,342.2395,333.0684,346.3046,339.0245,350.239,332.9813,346.174,327.0252" style="stroke:#A80036;stroke-width:1.0;"/><!--MD5=[a27cdfe998bc7205ab8049b2e2c10fb8]
link Result1 to Black1--><path codeLine="41" d="M384.1274,327.3913 C384.1274,327.3913 484.092,370.3668 522.595,386.9193 " fill="none" id="Result1-Black1" style="stroke:#A80036;stroke-width:1.0;"/><polygon fill="#A80036" points="534.778,392.1568,528.0894,384.9275,530.1845,390.1821,524.9299,392.2771,534.778,392.1568" style="stroke:#A80036;stroke-width:1.0;"/><line style="stroke:#A80036;stroke-width:1.0;" x1="530.1845" x2="522.835" y1="390.1821" y2="387.0223"/><polygon fill="#A80036" points="373.103,322.6519,377.0354,328.6964,384.1274,327.3913,380.195,321.3468,373.103,322.6519" style="stroke:#A80036;stroke-width:1.0;"/><!--MD5=[98310ae7d5fef6a593bc9ffa94b35712]
link Result2 to Black2--><path codeLine="42" d="M899.4951,335.9353 C899.4951,335.9353 925.209,364.4369 936.536,376.9922 " fill="none" id="Result2-Black2" style="stroke:#A80036;stroke-width:1.0;"/><polygon fill="#A80036" points="945.43,386.8498,942.3715,377.4879,942.0808,383.1373,936.4314,382.8466,945.43,386.8498" style="stroke:#A80036;stroke-width:1.0;"/><line style="stroke:#A80036;stroke-width:1.0;" x1="942.0808" x2="936.7215" y1="383.1373" y2="377.1974"/><polygon fill="#A80036" points="891.457,327.0252,892.506,334.1596,899.4951,335.9353,898.4461,328.8009,891.457,327.0252" style="stroke:#A80036;stroke-width:1.0;"/><!--MD5=[da7ccfec1271d676fa9116db9eab67cc]
link Result1 to White3--><path codeLine="43" d="M322.8248,335.791 C322.8248,335.791 296.048,364.4369 284.312,376.9922 " fill="none" id="Result1-White3" style="stroke:#A80036;stroke-width:1.0;"/><polygon fill="#A80036" points="275.097,386.8498,284.1653,383.0071,278.5116,383.1974,278.3214,377.5437,275.097,386.8498" style="stroke:#A80036;stroke-width:1.0;"/><line style="stroke:#A80036;stroke-width:1.0;" x1="278.5116" x2="283.9745" y1="383.1974" y2="377.3529"/><polygon fill="#A80036" points="331.02,327.0252,324.0005,328.6764,322.8248,335.791,329.8443,334.1398,331.02,327.0252" style="stroke:#A80036;stroke-width:1.0;"/><!--MD5=[e6480f474e59deca084a3adaea141f53]
link Result1 to Black3--><path codeLine="44" d="M373.9469,334.8068 C373.9469,334.8068 409.371,364.9824 424.925,378.2323 " fill="none" id="Result1-Black3" style="stroke:#A80036;stroke-width:1.0;"/><polygon fill="#A80036" points="435.041,386.8498,430.7837,377.9686,431.2348,383.6075,425.5959,384.0586,435.041,386.8498" style="stroke:#A80036;stroke-width:1.0;"/><line style="stroke:#A80036;stroke-width:1.0;" x1="431.2348" x2="425.1445" y1="383.6075" y2="378.4197"/><polygon fill="#A80036" points="364.812,327.0252,366.7856,333.961,373.9469,334.8068,371.9733,327.871,364.812,327.0252" style="stroke:#A80036;stroke-width:1.0;"/><!--MD5=[d70e669b2f684ed90cc77accf40bcf57]
link Result2 to Black4--><path codeLine="45" d="M876.3912,339.0224 C876.3912,339.0224 875.869,363.0344 875.635,373.779 " fill="none" id="Result2-Black4" style="stroke:#A80036;stroke-width:1.0;"/><polygon fill="#A80036" points="875.351,386.8498,879.5458,377.9389,875.4597,381.851,871.5477,377.7649,875.351,386.8498" style="stroke:#A80036;stroke-width:1.0;"/><line style="stroke:#A80036;stroke-width:1.0;" x1="875.4597" x2="875.634" y1="381.851" y2="373.8529"/><polygon fill="#A80036" points="876.652,327.0252,872.5225,332.9368,876.3912,339.0224,880.5206,333.1107,876.652,327.0252" style="stroke:#A80036;stroke-width:1.0;"/><!--MD5=[ae49c721556b9102306c64c691b70ebd]
link winnerBlacks to Black4--><path codeLine="47" d="M947.488,322.6519 C932.831,338.8979 906.193,368.4241 889.612,386.8036 " fill="none" id="winnerBlacks-Black4" style="stroke:#A80036;stroke-width:1.0;stroke-dasharray:7.0,7.0;"/><!--MD5=[7666f20ab192012bf1f7db96a4e51999]
link winnerBlacks to Black2--><path codeLine="48" d="M958.253,322.6519 C958.606,338.8979 959.248,368.4241 959.648,386.8036 " fill="none" id="winnerBlacks-Black2" style="stroke:#A80036;stroke-width:1.0;stroke-dasharray:7.0,7.0;"/><!--MD5=[667ded824171260b250271fdd6d449e3]
link loserBlacks to Black1--><path codeLine="50" d="M595.807,322.6519 C588.567,338.8979 575.409,368.4241 567.218,386.8036 " fill="none" id="loserBlacks-Black1" style="stroke:#A80036;stroke-width:1.0;stroke-dasharray:7.0,7.0;"/><!--MD5=[7afab7048b63b280362ba192fd0ef417]
link loserBlacks to Black3--><path codeLine="51" d="M582.382,322.6519 C556.192,339.043 508.402,368.9524 479.097,387.2932 " fill="none" id="loserBlacks-Black3" style="stroke:#A80036;stroke-width:1.0;stroke-dasharray:7.0,7.0;"/><!--MD5=[49c5dc91cfa36733981e7a73c30552d7]
link loserWhites to White1--><path codeLine="53" d="M271.019,322.6519 C286.382,338.8979 314.303,368.4241 331.684,386.8036 " fill="none" id="loserWhites-White1" style="stroke:#A80036;stroke-width:1.0;stroke-dasharray:7.0,7.0;"/><!--MD5=[cec2ddb1e58777d2434299c089057401]
link loserWhites to White3--><path codeLine="54" d="M260,322.6519 C260,338.8979 260,368.4241 260,386.8036 " fill="none" id="loserWhites-White3" style="stroke:#A80036;stroke-width:1.0;stroke-dasharray:7.0,7.0;"/><!--MD5=[61b6726491c12cd1ed42349204379b00]
link colors1 to Color1--><path codeLine="56" d="M23.2665,228.652 C25.0324,244.898 28.2417,274.424 30.2395,292.804 " fill="none" id="colors1-Color1" style="stroke:#A80036;stroke-width:1.0;stroke-dasharray:7.0,7.0;"/><!--MD5=[628b2a12ef79a4c2c7d3f75fd3ed0ede]
link colors1 to Color2--><path codeLine="57" d="M36.5648,228.652 C56.8724,244.898 93.7801,274.424 116.755,292.804 " fill="none" id="colors1-Color2" style="stroke:#A80036;stroke-width:1.0;stroke-dasharray:7.0,7.0;"/><!--MD5=[20b95e57b43a81e097a6b56efc38a530]
link colors2 to Color3--><path codeLine="59" d="M649.939,228.652 C656.826,244.898 669.343,274.424 677.134,292.804 " fill="none" id="colors2-Color3" style="stroke:#A80036;stroke-width:1.0;stroke-dasharray:7.0,7.0;"/><!--MD5=[2163ab50feff7ac270949c7eecd40a55]
link colors2 to Color4--><path codeLine="60" d="M659.711,227.915 C681.395,244.003 722.078,274.187 747.226,292.845 " fill="none" id="colors2-Color4" style="stroke:#A80036;stroke-width:1.0;stroke-dasharray:7.0,7.0;"/><!--MD5=[0b3203febd04d32cef4f6893a7bbb963]
link colors3 to Color5--><path codeLine="62" d="M566.268,226.158 C541.043,241.838 489.303,274.001 458.235,293.314 " fill="none" id="colors3-Color5" style="stroke:#A80036;stroke-width:1.0;stroke-dasharray:7.0,7.0;"/><!--MD5=[8aaa7687eef2336669b2bf4279c0d68e]
link colors3 to Color6--><path codeLine="63" d="M573.021,228.652 C561.896,244.898 541.677,274.424 529.091,292.804 " fill="none" id="colors3-Color6" style="stroke:#A80036;stroke-width:1.0;stroke-dasharray:7.0,7.0;"/><!--MD5=[76cb96833dfad33ddfdd3c1ceff4877e]
@startuml
object ":Mastermind" as Mastermind
object ":Board" as Board {
	attempts = 5
}
object ":SecretCombination" as SecretCombination
object ":ProposedCombination" as ProposedCombination1
object ":ProposedCombination" as ProposedCombination2
object ":Color" as Color1
object ":Color" as Color2
object ":Color" as Color3
object ":Color" as Color4
object ":Color" as Color5
object ":Color" as Color6
object ":Result" as Result1
object ":Result" as Result2
object ":White" as White1
object ":Black" as Black1
object ":Black" as Black2
object ":White" as White3
object ":Black" as Black3
object ":Black" as Black4

Mastermind *- -> Board
note "attempts - 1" as proposedCombinations
Board *- -> ProposedCombination1
Board *- -> ProposedCombination2
Board *- -> SecretCombination
Board *- -> Result1
Board *- -> Result2
proposedCombinations .. ProposedCombination1
ProposedCombination1 *- -> Color1
ProposedCombination1 *- -> Color2
ProposedCombination1 - -> Result1
ProposedCombination2 *- -> Color3
ProposedCombination2 *- -> Color4
ProposedCombination2 - -> Result2
SecretCombination *- -> Color5
SecretCombination *- -> Color6
proposedCombinations .. Result1
Result1 *- -> White1
Result1 *- -> Black1
Result2 *- -> Black2
Result1 *- -> White3
Result1 *- -> Black3
Result2 *- -> Black4
note "4" as winnerBlacks
winnerBlacks .. Black4
winnerBlacks .. Black2
note "0..3" as loserBlacks
loserBlacks .. Black1
loserBlacks .. Black3
note "0..4" as loserWhites
loserWhites .. White1
loserWhites .. White3
note "4" as colors1
colors1 .. Color1
colors1 .. Color2
note "4" as colors2
colors2 .. Color3
colors2 .. Color4
note "4" as colors3
colors3 .. Color5
colors3 .. Color6
@enduml

PlantUML version 1.2021.4beta2(Unknown compile time)
(GPL source distribution)
Java Runtime: Java(TM) SE Runtime Environment
JVM: Java HotSpot(TM) 64-Bit Server VM
Default Encoding: UTF-8
Language: en
Country: US
--></g></svg>