<?xml version="1.0" encoding="UTF-8" standalone="no"?><svg xmlns="http://www.w3.org/2000/svg" xmlns:xlink="http://www.w3.org/1999/xlink" contentScriptType="application/ecmascript" contentStyleType="text/css" height="794px" preserveAspectRatio="none" style="width:659px;height:794px;" version="1.1" viewBox="0 0 659 794" width="659px" zoomAndPan="magnify"><defs><filter height="300%" id="fnulgm5uvy32q" width="300%" x="-1" y="-1"><feGaussianBlur result="blurOut" stdDeviation="2.0"/><feColorMatrix in="blurOut" result="blurOut2" type="matrix" values="0 0 0 0 0 0 0 0 0 0 0 0 0 0 0 0 0 0 .4 0"/><feOffset dx="4.0" dy="4.0" in="blurOut2" result="blurOut3"/><feBlend in="SourceGraphic" in2="blurOut3" mode="normal"/></filter></defs><g><!--MD5=[7283a9eed84464550b6d5ebf39c68b05]
class Mastermind--><rect codeLine="1" fill="#FEFECE" filter="url(#fnulgm5uvy32q)" height="48" id="Mastermind" style="stroke:#A80036;stroke-width:1.5;" width="102" x="263" y="7"/><ellipse cx="278" cy="23" fill="#ADD1B2" rx="11" ry="11" style="stroke:#A80036;stroke-width:1.0;"/><path d="M280.3438,18.6719 C279.4063,18.2344 278.8125,18.0938 277.9375,18.0938 C275.3125,18.0938 273.3125,20.1719 273.3125,22.8906 L273.3125,24.0156 C273.3125,26.5938 275.4219,28.4844 278.3125,28.4844 C279.5313,28.4844 280.6875,28.1875 281.4375,27.6406 C282.0156,27.2344 282.3438,26.7813 282.3438,26.3906 C282.3438,25.9375 281.9531,25.5469 281.4844,25.5469 C281.2656,25.5469 281.0625,25.625 280.875,25.8125 C280.4219,26.2969 280.4219,26.2969 280.2344,26.3906 C279.8125,26.6563 279.125,26.7813 278.3594,26.7813 C276.3125,26.7813 275.0156,25.6875 275.0156,23.9844 L275.0156,22.8906 C275.0156,21.1094 276.2656,19.7969 278,19.7969 C278.5781,19.7969 279.1875,19.9531 279.6563,20.2031 C280.1406,20.4844 280.3125,20.7031 280.4063,21.1094 C280.4688,21.5156 280.5,21.6406 280.6406,21.7656 C280.7813,21.9063 281.0156,22.0156 281.2344,22.0156 C281.5,22.0156 281.7656,21.875 281.9375,21.6563 C282.0469,21.5 282.0781,21.3125 282.0781,20.8906 L282.0781,19.4688 C282.0781,19.0313 282.0625,18.9063 281.9688,18.75 C281.8125,18.4844 281.5313,18.3438 281.2344,18.3438 C280.9375,18.3438 280.7344,18.4375 280.5156,18.75 L280.3438,18.6719 Z " fill="#000000"/><text fill="#000000" font-family="sans-serif" font-size="12" lengthAdjust="spacing" textLength="70" x="292" y="27.1543">Mastermind</text><line style="stroke:#A80036;stroke-width:1.5;" x1="264" x2="364" y1="39" y2="39"/><line style="stroke:#A80036;stroke-width:1.5;" x1="264" x2="364" y1="47" y2="47"/><!--MD5=[dd91eae41778c45e12552e5329e240e8]
class Turn--><rect codeLine="2" fill="#FEFECE" filter="url(#fnulgm5uvy32q)" height="48" id="Turn" style="stroke:#A80036;stroke-width:1.5;" width="58" x="285" y="115"/><ellipse cx="300" cy="131" fill="#ADD1B2" rx="11" ry="11" style="stroke:#A80036;stroke-width:1.0;"/><path d="M302.3438,126.6719 C301.4063,126.2344 300.8125,126.0938 299.9375,126.0938 C297.3125,126.0938 295.3125,128.1719 295.3125,130.8906 L295.3125,132.0156 C295.3125,134.5938 297.4219,136.4844 300.3125,136.4844 C301.5313,136.4844 302.6875,136.1875 303.4375,135.6406 C304.0156,135.2344 304.3438,134.7813 304.3438,134.3906 C304.3438,133.9375 303.9531,133.5469 303.4844,133.5469 C303.2656,133.5469 303.0625,133.625 302.875,133.8125 C302.4219,134.2969 302.4219,134.2969 302.2344,134.3906 C301.8125,134.6563 301.125,134.7813 300.3594,134.7813 C298.3125,134.7813 297.0156,133.6875 297.0156,131.9844 L297.0156,130.8906 C297.0156,129.1094 298.2656,127.7969 300,127.7969 C300.5781,127.7969 301.1875,127.9531 301.6563,128.2031 C302.1406,128.4844 302.3125,128.7031 302.4063,129.1094 C302.4688,129.5156 302.5,129.6406 302.6406,129.7656 C302.7813,129.9063 303.0156,130.0156 303.2344,130.0156 C303.5,130.0156 303.7656,129.875 303.9375,129.6563 C304.0469,129.5 304.0781,129.3125 304.0781,128.8906 L304.0781,127.4688 C304.0781,127.0313 304.0625,126.9063 303.9688,126.75 C303.8125,126.4844 303.5313,126.3438 303.2344,126.3438 C302.9375,126.3438 302.7344,126.4375 302.5156,126.75 L302.3438,126.6719 Z " fill="#000000"/><text fill="#000000" font-family="sans-serif" font-size="12" lengthAdjust="spacing" textLength="26" x="314" y="135.1543">Turn</text><line style="stroke:#A80036;stroke-width:1.5;" x1="286" x2="342" y1="147" y2="147"/><line style="stroke:#A80036;stroke-width:1.5;" x1="286" x2="342" y1="155" y2="155"/><!--MD5=[9563755d011c5cec7ec66dc53565a59e]
class Board--><rect codeLine="3" fill="#FEFECE" filter="url(#fnulgm5uvy32q)" height="48" id="Board" style="stroke:#A80036;stroke-width:1.5;" width="68" x="362" y="331"/><ellipse cx="377" cy="347" fill="#ADD1B2" rx="11" ry="11" style="stroke:#A80036;stroke-width:1.0;"/><path d="M379.3438,342.6719 C378.4063,342.2344 377.8125,342.0938 376.9375,342.0938 C374.3125,342.0938 372.3125,344.1719 372.3125,346.8906 L372.3125,348.0156 C372.3125,350.5938 374.4219,352.4844 377.3125,352.4844 C378.5313,352.4844 379.6875,352.1875 380.4375,351.6406 C381.0156,351.2344 381.3438,350.7813 381.3438,350.3906 C381.3438,349.9375 380.9531,349.5469 380.4844,349.5469 C380.2656,349.5469 380.0625,349.625 379.875,349.8125 C379.4219,350.2969 379.4219,350.2969 379.2344,350.3906 C378.8125,350.6563 378.125,350.7813 377.3594,350.7813 C375.3125,350.7813 374.0156,349.6875 374.0156,347.9844 L374.0156,346.8906 C374.0156,345.1094 375.2656,343.7969 377,343.7969 C377.5781,343.7969 378.1875,343.9531 378.6563,344.2031 C379.1406,344.4844 379.3125,344.7031 379.4063,345.1094 C379.4688,345.5156 379.5,345.6406 379.6406,345.7656 C379.7813,345.9063 380.0156,346.0156 380.2344,346.0156 C380.5,346.0156 380.7656,345.875 380.9375,345.6563 C381.0469,345.5 381.0781,345.3125 381.0781,344.8906 L381.0781,343.4688 C381.0781,343.0313 381.0625,342.9063 380.9688,342.75 C380.8125,342.4844 380.5313,342.3438 380.2344,342.3438 C379.9375,342.3438 379.7344,342.4375 379.5156,342.75 L379.3438,342.6719 Z " fill="#000000"/><text fill="#000000" font-family="sans-serif" font-size="12" lengthAdjust="spacing" textLength="36" x="391" y="351.1543">Board</text><line style="stroke:#A80036;stroke-width:1.5;" x1="363" x2="429" y1="363" y2="363"/><line style="stroke:#A80036;stroke-width:1.5;" x1="363" x2="429" y1="371" y2="371"/><!--MD5=[2cb47ba637a0d19583e6199456f6ad0b]
class Player--><rect codeLine="4" fill="#FEFECE" filter="url(#fnulgm5uvy32q)" height="48" id="Player" style="stroke:#A80036;stroke-width:1.5;" width="68" x="255" y="223"/><ellipse cx="270" cy="239" fill="#ADD1B2" rx="11" ry="11" style="stroke:#A80036;stroke-width:1.0;"/><path d="M272.3438,234.6719 C271.4063,234.2344 270.8125,234.0938 269.9375,234.0938 C267.3125,234.0938 265.3125,236.1719 265.3125,238.8906 L265.3125,240.0156 C265.3125,242.5938 267.4219,244.4844 270.3125,244.4844 C271.5313,244.4844 272.6875,244.1875 273.4375,243.6406 C274.0156,243.2344 274.3438,242.7813 274.3438,242.3906 C274.3438,241.9375 273.9531,241.5469 273.4844,241.5469 C273.2656,241.5469 273.0625,241.625 272.875,241.8125 C272.4219,242.2969 272.4219,242.2969 272.2344,242.3906 C271.8125,242.6563 271.125,242.7813 270.3594,242.7813 C268.3125,242.7813 267.0156,241.6875 267.0156,239.9844 L267.0156,238.8906 C267.0156,237.1094 268.2656,235.7969 270,235.7969 C270.5781,235.7969 271.1875,235.9531 271.6563,236.2031 C272.1406,236.4844 272.3125,236.7031 272.4063,237.1094 C272.4688,237.5156 272.5,237.6406 272.6406,237.7656 C272.7813,237.9063 273.0156,238.0156 273.2344,238.0156 C273.5,238.0156 273.7656,237.875 273.9375,237.6563 C274.0469,237.5 274.0781,237.3125 274.0781,236.8906 L274.0781,235.4688 C274.0781,235.0313 274.0625,234.9063 273.9688,234.75 C273.8125,234.4844 273.5313,234.3438 273.2344,234.3438 C272.9375,234.3438 272.7344,234.4375 272.5156,234.75 L272.3438,234.6719 Z " fill="#000000"/><text fill="#000000" font-family="sans-serif" font-size="12" lengthAdjust="spacing" textLength="36" x="284" y="243.1543">Player</text><line style="stroke:#A80036;stroke-width:1.5;" x1="256" x2="322" y1="255" y2="255"/><line style="stroke:#A80036;stroke-width:1.5;" x1="256" x2="322" y1="263" y2="263"/><!--MD5=[f988dfb2c51f82beb248a68b00ebb2ba]
class MakerPlayer--><rect codeLine="5" fill="#FEFECE" filter="url(#fnulgm5uvy32q)" height="48" id="MakerPlayer" style="stroke:#A80036;stroke-width:1.5;" width="105" x="465.5" y="331"/><ellipse cx="480.5" cy="347" fill="#ADD1B2" rx="11" ry="11" style="stroke:#A80036;stroke-width:1.0;"/><path d="M482.8438,342.6719 C481.9063,342.2344 481.3125,342.0938 480.4375,342.0938 C477.8125,342.0938 475.8125,344.1719 475.8125,346.8906 L475.8125,348.0156 C475.8125,350.5938 477.9219,352.4844 480.8125,352.4844 C482.0313,352.4844 483.1875,352.1875 483.9375,351.6406 C484.5156,351.2344 484.8438,350.7813 484.8438,350.3906 C484.8438,349.9375 484.4531,349.5469 483.9844,349.5469 C483.7656,349.5469 483.5625,349.625 483.375,349.8125 C482.9219,350.2969 482.9219,350.2969 482.7344,350.3906 C482.3125,350.6563 481.625,350.7813 480.8594,350.7813 C478.8125,350.7813 477.5156,349.6875 477.5156,347.9844 L477.5156,346.8906 C477.5156,345.1094 478.7656,343.7969 480.5,343.7969 C481.0781,343.7969 481.6875,343.9531 482.1563,344.2031 C482.6406,344.4844 482.8125,344.7031 482.9063,345.1094 C482.9688,345.5156 483,345.6406 483.1406,345.7656 C483.2813,345.9063 483.5156,346.0156 483.7344,346.0156 C484,346.0156 484.2656,345.875 484.4375,345.6563 C484.5469,345.5 484.5781,345.3125 484.5781,344.8906 L484.5781,343.4688 C484.5781,343.0313 484.5625,342.9063 484.4688,342.75 C484.3125,342.4844 484.0313,342.3438 483.7344,342.3438 C483.4375,342.3438 483.2344,342.4375 483.0156,342.75 L482.8438,342.6719 Z " fill="#000000"/><text fill="#000000" font-family="sans-serif" font-size="12" lengthAdjust="spacing" textLength="73" x="494.5" y="351.1543">MakerPlayer</text><line style="stroke:#A80036;stroke-width:1.5;" x1="466.5" x2="569.5" y1="363" y2="363"/><line style="stroke:#A80036;stroke-width:1.5;" x1="466.5" x2="569.5" y1="371" y2="371"/><!--MD5=[d35e1b11918d6cec274121250b83576e]
class BreakerPlayer--><rect codeLine="6" fill="#FEFECE" filter="url(#fnulgm5uvy32q)" height="48" id="BreakerPlayer" style="stroke:#A80036;stroke-width:1.5;" width="116" x="211" y="331"/><ellipse cx="226" cy="347" fill="#ADD1B2" rx="11" ry="11" style="stroke:#A80036;stroke-width:1.0;"/><path d="M228.3438,342.6719 C227.4063,342.2344 226.8125,342.0938 225.9375,342.0938 C223.3125,342.0938 221.3125,344.1719 221.3125,346.8906 L221.3125,348.0156 C221.3125,350.5938 223.4219,352.4844 226.3125,352.4844 C227.5313,352.4844 228.6875,352.1875 229.4375,351.6406 C230.0156,351.2344 230.3438,350.7813 230.3438,350.3906 C230.3438,349.9375 229.9531,349.5469 229.4844,349.5469 C229.2656,349.5469 229.0625,349.625 228.875,349.8125 C228.4219,350.2969 228.4219,350.2969 228.2344,350.3906 C227.8125,350.6563 227.125,350.7813 226.3594,350.7813 C224.3125,350.7813 223.0156,349.6875 223.0156,347.9844 L223.0156,346.8906 C223.0156,345.1094 224.2656,343.7969 226,343.7969 C226.5781,343.7969 227.1875,343.9531 227.6563,344.2031 C228.1406,344.4844 228.3125,344.7031 228.4063,345.1094 C228.4688,345.5156 228.5,345.6406 228.6406,345.7656 C228.7813,345.9063 229.0156,346.0156 229.2344,346.0156 C229.5,346.0156 229.7656,345.875 229.9375,345.6563 C230.0469,345.5 230.0781,345.3125 230.0781,344.8906 L230.0781,343.4688 C230.0781,343.0313 230.0625,342.9063 229.9688,342.75 C229.8125,342.4844 229.5313,342.3438 229.2344,342.3438 C228.9375,342.3438 228.7344,342.4375 228.5156,342.75 L228.3438,342.6719 Z " fill="#000000"/><text fill="#000000" font-family="sans-serif" font-size="12" lengthAdjust="spacing" textLength="84" x="240" y="351.1543">BreakerPlayer</text><line style="stroke:#A80036;stroke-width:1.5;" x1="212" x2="326" y1="363" y2="363"/><line style="stroke:#A80036;stroke-width:1.5;" x1="212" x2="326" y1="371" y2="371"/><!--MD5=[28491d17d5ee38c9c116625a5ffc259a]
class Combination--><rect codeLine="7" fill="#FEFECE" filter="url(#fnulgm5uvy32q)" height="48" id="Combination" style="stroke:#A80036;stroke-width:1.5;" width="106" x="70" y="331"/><ellipse cx="85" cy="347" fill="#ADD1B2" rx="11" ry="11" style="stroke:#A80036;stroke-width:1.0;"/><path d="M87.3438,342.6719 C86.4063,342.2344 85.8125,342.0938 84.9375,342.0938 C82.3125,342.0938 80.3125,344.1719 80.3125,346.8906 L80.3125,348.0156 C80.3125,350.5938 82.4219,352.4844 85.3125,352.4844 C86.5313,352.4844 87.6875,352.1875 88.4375,351.6406 C89.0156,351.2344 89.3438,350.7813 89.3438,350.3906 C89.3438,349.9375 88.9531,349.5469 88.4844,349.5469 C88.2656,349.5469 88.0625,349.625 87.875,349.8125 C87.4219,350.2969 87.4219,350.2969 87.2344,350.3906 C86.8125,350.6563 86.125,350.7813 85.3594,350.7813 C83.3125,350.7813 82.0156,349.6875 82.0156,347.9844 L82.0156,346.8906 C82.0156,345.1094 83.2656,343.7969 85,343.7969 C85.5781,343.7969 86.1875,343.9531 86.6563,344.2031 C87.1406,344.4844 87.3125,344.7031 87.4063,345.1094 C87.4688,345.5156 87.5,345.6406 87.6406,345.7656 C87.7813,345.9063 88.0156,346.0156 88.2344,346.0156 C88.5,346.0156 88.7656,345.875 88.9375,345.6563 C89.0469,345.5 89.0781,345.3125 89.0781,344.8906 L89.0781,343.4688 C89.0781,343.0313 89.0625,342.9063 88.9688,342.75 C88.8125,342.4844 88.5313,342.3438 88.2344,342.3438 C87.9375,342.3438 87.7344,342.4375 87.5156,342.75 L87.3438,342.6719 Z " fill="#000000"/><text fill="#000000" font-family="sans-serif" font-size="12" lengthAdjust="spacing" textLength="74" x="99" y="351.1543">Combination</text><line style="stroke:#A80036;stroke-width:1.5;" x1="71" x2="175" y1="363" y2="363"/><line style="stroke:#A80036;stroke-width:1.5;" x1="71" x2="175" y1="371" y2="371"/><!--MD5=[cf489b19c51ee25e76ddca093e62e620]
class ProposedCombination--><rect codeLine="8" fill="#FEFECE" filter="url(#fnulgm5uvy32q)" height="48" id="ProposedCombination" style="stroke:#A80036;stroke-width:1.5;" width="164" x="124" y="477.5"/><ellipse cx="139" cy="493.5" fill="#ADD1B2" rx="11" ry="11" style="stroke:#A80036;stroke-width:1.0;"/><path d="M141.3438,489.1719 C140.4063,488.7344 139.8125,488.5938 138.9375,488.5938 C136.3125,488.5938 134.3125,490.6719 134.3125,493.3906 L134.3125,494.5156 C134.3125,497.0938 136.4219,498.9844 139.3125,498.9844 C140.5313,498.9844 141.6875,498.6875 142.4375,498.1406 C143.0156,497.7344 143.3438,497.2813 143.3438,496.8906 C143.3438,496.4375 142.9531,496.0469 142.4844,496.0469 C142.2656,496.0469 142.0625,496.125 141.875,496.3125 C141.4219,496.7969 141.4219,496.7969 141.2344,496.8906 C140.8125,497.1563 140.125,497.2813 139.3594,497.2813 C137.3125,497.2813 136.0156,496.1875 136.0156,494.4844 L136.0156,493.3906 C136.0156,491.6094 137.2656,490.2969 139,490.2969 C139.5781,490.2969 140.1875,490.4531 140.6563,490.7031 C141.1406,490.9844 141.3125,491.2031 141.4063,491.6094 C141.4688,492.0156 141.5,492.1406 141.6406,492.2656 C141.7813,492.4063 142.0156,492.5156 142.2344,492.5156 C142.5,492.5156 142.7656,492.375 142.9375,492.1563 C143.0469,492 143.0781,491.8125 143.0781,491.3906 L143.0781,489.9688 C143.0781,489.5313 143.0625,489.4063 142.9688,489.25 C142.8125,488.9844 142.5313,488.8438 142.2344,488.8438 C141.9375,488.8438 141.7344,488.9375 141.5156,489.25 L141.3438,489.1719 Z " fill="#000000"/><text fill="#000000" font-family="sans-serif" font-size="12" lengthAdjust="spacing" textLength="132" x="153" y="497.6543">ProposedCombination</text><line style="stroke:#A80036;stroke-width:1.5;" x1="125" x2="287" y1="509.5" y2="509.5"/><line style="stroke:#A80036;stroke-width:1.5;" x1="125" x2="287" y1="517.5" y2="517.5"/><!--MD5=[e370ee5c0c15ce04544d5f5a73174d72]
class SecretCombination--><rect codeLine="9" fill="#FEFECE" filter="url(#fnulgm5uvy32q)" height="48" id="SecretCombination" style="stroke:#A80036;stroke-width:1.5;" width="146" x="323" y="477.5"/><ellipse cx="338" cy="493.5" fill="#ADD1B2" rx="11" ry="11" style="stroke:#A80036;stroke-width:1.0;"/><path d="M340.3438,489.1719 C339.4063,488.7344 338.8125,488.5938 337.9375,488.5938 C335.3125,488.5938 333.3125,490.6719 333.3125,493.3906 L333.3125,494.5156 C333.3125,497.0938 335.4219,498.9844 338.3125,498.9844 C339.5313,498.9844 340.6875,498.6875 341.4375,498.1406 C342.0156,497.7344 342.3438,497.2813 342.3438,496.8906 C342.3438,496.4375 341.9531,496.0469 341.4844,496.0469 C341.2656,496.0469 341.0625,496.125 340.875,496.3125 C340.4219,496.7969 340.4219,496.7969 340.2344,496.8906 C339.8125,497.1563 339.125,497.2813 338.3594,497.2813 C336.3125,497.2813 335.0156,496.1875 335.0156,494.4844 L335.0156,493.3906 C335.0156,491.6094 336.2656,490.2969 338,490.2969 C338.5781,490.2969 339.1875,490.4531 339.6563,490.7031 C340.1406,490.9844 340.3125,491.2031 340.4063,491.6094 C340.4688,492.0156 340.5,492.1406 340.6406,492.2656 C340.7813,492.4063 341.0156,492.5156 341.2344,492.5156 C341.5,492.5156 341.7656,492.375 341.9375,492.1563 C342.0469,492 342.0781,491.8125 342.0781,491.3906 L342.0781,489.9688 C342.0781,489.5313 342.0625,489.4063 341.9688,489.25 C341.8125,488.9844 341.5313,488.8438 341.2344,488.8438 C340.9375,488.8438 340.7344,488.9375 340.5156,489.25 L340.3438,489.1719 Z " fill="#000000"/><text fill="#000000" font-family="sans-serif" font-size="12" lengthAdjust="spacing" textLength="114" x="352" y="497.6543">SecretCombination</text><line style="stroke:#A80036;stroke-width:1.5;" x1="324" x2="468" y1="509.5" y2="509.5"/><line style="stroke:#A80036;stroke-width:1.5;" x1="324" x2="468" y1="517.5" y2="517.5"/><!--MD5=[2741598bdf59a7d7e0d5c97658fd3022]
class Result--><rect codeLine="10" fill="#FEFECE" filter="url(#fnulgm5uvy32q)" height="48" id="Result" style="stroke:#A80036;stroke-width:1.5;" width="68" x="504" y="477.5"/><ellipse cx="519" cy="493.5" fill="#ADD1B2" rx="11" ry="11" style="stroke:#A80036;stroke-width:1.0;"/><path d="M521.3438,489.1719 C520.4063,488.7344 519.8125,488.5938 518.9375,488.5938 C516.3125,488.5938 514.3125,490.6719 514.3125,493.3906 L514.3125,494.5156 C514.3125,497.0938 516.4219,498.9844 519.3125,498.9844 C520.5313,498.9844 521.6875,498.6875 522.4375,498.1406 C523.0156,497.7344 523.3438,497.2813 523.3438,496.8906 C523.3438,496.4375 522.9531,496.0469 522.4844,496.0469 C522.2656,496.0469 522.0625,496.125 521.875,496.3125 C521.4219,496.7969 521.4219,496.7969 521.2344,496.8906 C520.8125,497.1563 520.125,497.2813 519.3594,497.2813 C517.3125,497.2813 516.0156,496.1875 516.0156,494.4844 L516.0156,493.3906 C516.0156,491.6094 517.2656,490.2969 519,490.2969 C519.5781,490.2969 520.1875,490.4531 520.6563,490.7031 C521.1406,490.9844 521.3125,491.2031 521.4063,491.6094 C521.4688,492.0156 521.5,492.1406 521.6406,492.2656 C521.7813,492.4063 522.0156,492.5156 522.2344,492.5156 C522.5,492.5156 522.7656,492.375 522.9375,492.1563 C523.0469,492 523.0781,491.8125 523.0781,491.3906 L523.0781,489.9688 C523.0781,489.5313 523.0625,489.4063 522.9688,489.25 C522.8125,488.9844 522.5313,488.8438 522.2344,488.8438 C521.9375,488.8438 521.7344,488.9375 521.5156,489.25 L521.3438,489.1719 Z " fill="#000000"/><text fill="#000000" font-family="sans-serif" font-size="12" lengthAdjust="spacing" textLength="36" x="533" y="497.6543">Result</text><line style="stroke:#A80036;stroke-width:1.5;" x1="505" x2="571" y1="509.5" y2="509.5"/><line style="stroke:#A80036;stroke-width:1.5;" x1="505" x2="571" y1="517.5" y2="517.5"/><!--MD5=[4ed713a1bbe23a946f17d07c51bf0ba1]
class WinnerResult--><rect codeLine="11" fill="#FEFECE" filter="url(#fnulgm5uvy32q)" height="48" id="WinnerResult" style="stroke:#A80036;stroke-width:1.5;" width="110" x="417" y="624"/><ellipse cx="432" cy="640" fill="#ADD1B2" rx="11" ry="11" style="stroke:#A80036;stroke-width:1.0;"/><path d="M434.3438,635.6719 C433.4063,635.2344 432.8125,635.0938 431.9375,635.0938 C429.3125,635.0938 427.3125,637.1719 427.3125,639.8906 L427.3125,641.0156 C427.3125,643.5938 429.4219,645.4844 432.3125,645.4844 C433.5313,645.4844 434.6875,645.1875 435.4375,644.6406 C436.0156,644.2344 436.3438,643.7813 436.3438,643.3906 C436.3438,642.9375 435.9531,642.5469 435.4844,642.5469 C435.2656,642.5469 435.0625,642.625 434.875,642.8125 C434.4219,643.2969 434.4219,643.2969 434.2344,643.3906 C433.8125,643.6563 433.125,643.7813 432.3594,643.7813 C430.3125,643.7813 429.0156,642.6875 429.0156,640.9844 L429.0156,639.8906 C429.0156,638.1094 430.2656,636.7969 432,636.7969 C432.5781,636.7969 433.1875,636.9531 433.6563,637.2031 C434.1406,637.4844 434.3125,637.7031 434.4063,638.1094 C434.4688,638.5156 434.5,638.6406 434.6406,638.7656 C434.7813,638.9063 435.0156,639.0156 435.2344,639.0156 C435.5,639.0156 435.7656,638.875 435.9375,638.6563 C436.0469,638.5 436.0781,638.3125 436.0781,637.8906 L436.0781,636.4688 C436.0781,636.0313 436.0625,635.9063 435.9688,635.75 C435.8125,635.4844 435.5313,635.3438 435.2344,635.3438 C434.9375,635.3438 434.7344,635.4375 434.5156,635.75 L434.3438,635.6719 Z " fill="#000000"/><text fill="#000000" font-family="sans-serif" font-size="12" lengthAdjust="spacing" textLength="78" x="446" y="644.1543">WinnerResult</text><line style="stroke:#A80036;stroke-width:1.5;" x1="418" x2="526" y1="656" y2="656"/><line style="stroke:#A80036;stroke-width:1.5;" x1="418" x2="526" y1="664" y2="664"/><!--MD5=[62b2edce616dbe77035d94d16f9f0d8e]
class Success--><rect codeLine="12" fill="#FEFECE" filter="url(#fnulgm5uvy32q)" height="48" id="Success" style="stroke:#A80036;stroke-width:1.5;" width="83" x="562.5" y="624"/><ellipse cx="577.5" cy="640" fill="#ADD1B2" rx="11" ry="11" style="stroke:#A80036;stroke-width:1.0;"/><path d="M579.8438,635.6719 C578.9063,635.2344 578.3125,635.0938 577.4375,635.0938 C574.8125,635.0938 572.8125,637.1719 572.8125,639.8906 L572.8125,641.0156 C572.8125,643.5938 574.9219,645.4844 577.8125,645.4844 C579.0313,645.4844 580.1875,645.1875 580.9375,644.6406 C581.5156,644.2344 581.8438,643.7813 581.8438,643.3906 C581.8438,642.9375 581.4531,642.5469 580.9844,642.5469 C580.7656,642.5469 580.5625,642.625 580.375,642.8125 C579.9219,643.2969 579.9219,643.2969 579.7344,643.3906 C579.3125,643.6563 578.625,643.7813 577.8594,643.7813 C575.8125,643.7813 574.5156,642.6875 574.5156,640.9844 L574.5156,639.8906 C574.5156,638.1094 575.7656,636.7969 577.5,636.7969 C578.0781,636.7969 578.6875,636.9531 579.1563,637.2031 C579.6406,637.4844 579.8125,637.7031 579.9063,638.1094 C579.9688,638.5156 580,638.6406 580.1406,638.7656 C580.2813,638.9063 580.5156,639.0156 580.7344,639.0156 C581,639.0156 581.2656,638.875 581.4375,638.6563 C581.5469,638.5 581.5781,638.3125 581.5781,637.8906 L581.5781,636.4688 C581.5781,636.0313 581.5625,635.9063 581.4688,635.75 C581.3125,635.4844 581.0313,635.3438 580.7344,635.3438 C580.4375,635.3438 580.2344,635.4375 580.0156,635.75 L579.8438,635.6719 Z " fill="#000000"/><text fill="#000000" font-family="sans-serif" font-size="12" lengthAdjust="spacing" textLength="51" x="591.5" y="644.1543">Success</text><line style="stroke:#A80036;stroke-width:1.5;" x1="563.5" x2="644.5" y1="656" y2="656"/><line style="stroke:#A80036;stroke-width:1.5;" x1="563.5" x2="644.5" y1="664" y2="664"/><!--MD5=[602b15352a41052f4d1a7dc34102cb35]
class White--><rect codeLine="13" fill="#FEFECE" filter="url(#fnulgm5uvy32q)" height="48" id="White" style="stroke:#A80036;stroke-width:1.5;" width="66" x="571" y="732"/><ellipse cx="586" cy="748" fill="#ADD1B2" rx="11" ry="11" style="stroke:#A80036;stroke-width:1.0;"/><path d="M588.3438,743.6719 C587.4063,743.2344 586.8125,743.0938 585.9375,743.0938 C583.3125,743.0938 581.3125,745.1719 581.3125,747.8906 L581.3125,749.0156 C581.3125,751.5938 583.4219,753.4844 586.3125,753.4844 C587.5313,753.4844 588.6875,753.1875 589.4375,752.6406 C590.0156,752.2344 590.3438,751.7813 590.3438,751.3906 C590.3438,750.9375 589.9531,750.5469 589.4844,750.5469 C589.2656,750.5469 589.0625,750.625 588.875,750.8125 C588.4219,751.2969 588.4219,751.2969 588.2344,751.3906 C587.8125,751.6563 587.125,751.7813 586.3594,751.7813 C584.3125,751.7813 583.0156,750.6875 583.0156,748.9844 L583.0156,747.8906 C583.0156,746.1094 584.2656,744.7969 586,744.7969 C586.5781,744.7969 587.1875,744.9531 587.6563,745.2031 C588.1406,745.4844 588.3125,745.7031 588.4063,746.1094 C588.4688,746.5156 588.5,746.6406 588.6406,746.7656 C588.7813,746.9063 589.0156,747.0156 589.2344,747.0156 C589.5,747.0156 589.7656,746.875 589.9375,746.6563 C590.0469,746.5 590.0781,746.3125 590.0781,745.8906 L590.0781,744.4688 C590.0781,744.0313 590.0625,743.9063 589.9688,743.75 C589.8125,743.4844 589.5313,743.3438 589.2344,743.3438 C588.9375,743.3438 588.7344,743.4375 588.5156,743.75 L588.3438,743.6719 Z " fill="#000000"/><text fill="#000000" font-family="sans-serif" font-size="12" lengthAdjust="spacing" textLength="34" x="600" y="752.1543">White</text><line style="stroke:#A80036;stroke-width:1.5;" x1="572" x2="636" y1="764" y2="764"/><line style="stroke:#A80036;stroke-width:1.5;" x1="572" x2="636" y1="772" y2="772"/><!--MD5=[365150d8163e865a226452c70cc7ad9f]
class Black--><rect codeLine="14" fill="#FEFECE" filter="url(#fnulgm5uvy32q)" height="48" id="Black" style="stroke:#A80036;stroke-width:1.5;" width="64" x="456" y="732"/><ellipse cx="471" cy="748" fill="#ADD1B2" rx="11" ry="11" style="stroke:#A80036;stroke-width:1.0;"/><path d="M473.3438,743.6719 C472.4063,743.2344 471.8125,743.0938 470.9375,743.0938 C468.3125,743.0938 466.3125,745.1719 466.3125,747.8906 L466.3125,749.0156 C466.3125,751.5938 468.4219,753.4844 471.3125,753.4844 C472.5313,753.4844 473.6875,753.1875 474.4375,752.6406 C475.0156,752.2344 475.3438,751.7813 475.3438,751.3906 C475.3438,750.9375 474.9531,750.5469 474.4844,750.5469 C474.2656,750.5469 474.0625,750.625 473.875,750.8125 C473.4219,751.2969 473.4219,751.2969 473.2344,751.3906 C472.8125,751.6563 472.125,751.7813 471.3594,751.7813 C469.3125,751.7813 468.0156,750.6875 468.0156,748.9844 L468.0156,747.8906 C468.0156,746.1094 469.2656,744.7969 471,744.7969 C471.5781,744.7969 472.1875,744.9531 472.6563,745.2031 C473.1406,745.4844 473.3125,745.7031 473.4063,746.1094 C473.4688,746.5156 473.5,746.6406 473.6406,746.7656 C473.7813,746.9063 474.0156,747.0156 474.2344,747.0156 C474.5,747.0156 474.7656,746.875 474.9375,746.6563 C475.0469,746.5 475.0781,746.3125 475.0781,745.8906 L475.0781,744.4688 C475.0781,744.0313 475.0625,743.9063 474.9688,743.75 C474.8125,743.4844 474.5313,743.3438 474.2344,743.3438 C473.9375,743.3438 473.7344,743.4375 473.5156,743.75 L473.3438,743.6719 Z " fill="#000000"/><text fill="#000000" font-family="sans-serif" font-size="12" lengthAdjust="spacing" textLength="32" x="485" y="752.1543">Black</text><line style="stroke:#A80036;stroke-width:1.5;" x1="457" x2="519" y1="764" y2="764"/><line style="stroke:#A80036;stroke-width:1.5;" x1="457" x2="519" y1="772" y2="772"/><!--MD5=[18eee71c88ab61f27581b8cbdd3ef5ee]
class Color--><rect codeLine="15" fill="#FEFECE" filter="url(#fnulgm5uvy32q)" height="124.8281" id="Color" style="stroke:#A80036;stroke-width:1.5;" width="82" x="7" y="439"/><ellipse cx="30.1" cy="455" fill="#EB937F" rx="11" ry="11" style="stroke:#A80036;stroke-width:1.0;"/><path d="M28.8969,455.875 L30.35,455.875 L30.35,455.9844 C30.35,456.3906 30.3813,456.5469 30.4594,456.7031 C30.6156,456.9531 30.8969,457.1094 31.1938,457.1094 C31.4438,457.1094 31.7094,456.9688 31.8656,456.75 C31.9906,456.5938 32.0219,456.4375 32.0219,455.9844 L32.0219,454.0625 C32.0219,453.9063 32.0219,453.8594 32.0063,453.7031 C31.9438,453.2344 31.6313,452.9219 31.1781,452.9219 C30.9281,452.9219 30.6625,453.0625 30.4906,453.2813 C30.3813,453.4531 30.35,453.6094 30.35,454.0625 L30.35,454.1875 L28.8969,454.1875 L28.8969,451.7813 L32.8813,451.7813 L32.8813,452.6406 C32.8813,453.0469 32.9125,453.2188 32.9906,453.375 C33.1625,453.625 33.4438,453.7813 33.725,453.7813 C33.9906,453.7813 34.2563,453.6406 34.4281,453.4219 C34.5375,453.25 34.5688,453.1094 34.5688,452.6406 L34.5688,450.0938 L26.9438,450.0938 C26.5063,450.0938 26.3813,450.1094 26.225,450.2031 C25.975,450.3594 25.8188,450.6563 25.8188,450.9375 C25.8188,451.2188 25.9594,451.4688 26.1781,451.6406 C26.3344,451.75 26.5219,451.7813 26.9438,451.7813 L27.1938,451.7813 L27.1938,458.2969 L26.9438,458.2969 C26.5375,458.2969 26.3813,458.3125 26.225,458.4219 C25.975,458.5938 25.8188,458.8594 25.8188,459.1563 C25.8188,459.4219 25.9594,459.6719 26.1781,459.8281 C26.3188,459.9531 26.5531,460 26.9438,460 L34.9438,460 L34.9438,457.4219 C34.9438,456.9844 34.9125,456.8438 34.8344,456.6875 C34.6625,456.4375 34.3813,456.2813 34.1,456.2813 C33.8344,456.2813 33.5688,456.3906 33.3969,456.6406 C33.2875,456.7969 33.2563,456.9375 33.2563,457.4219 L33.2563,458.2969 L28.8969,458.2969 L28.8969,455.875 Z " fill="#000000"/><text fill="#000000" font-family="sans-serif" font-size="12" lengthAdjust="spacing" textLength="32" x="45.9" y="459.1543">Color</text><line style="stroke:#A80036;stroke-width:1.5;" x1="8" x2="88" y1="471" y2="471"/><rect fill="none" height="6" style="stroke:#C82930;stroke-width:1.0;" width="6" x="15" y="479"/><text fill="#000000" font-family="sans-serif" font-size="11" lengthAdjust="spacing" textLength="23" x="27" y="485.2104">RED</text><rect fill="none" height="6" style="stroke:#C82930;stroke-width:1.0;" width="6" x="15" y="491.8047"/><text fill="#000000" font-family="sans-serif" font-size="11" lengthAdjust="spacing" textLength="38" x="27" y="498.0151">GREEN</text><rect fill="none" height="6" style="stroke:#C82930;stroke-width:1.0;" width="6" x="15" y="504.6094"/><text fill="#000000" font-family="sans-serif" font-size="11" lengthAdjust="spacing" textLength="29" x="27" y="510.8198">BLUE</text><rect fill="none" height="6" style="stroke:#C82930;stroke-width:1.0;" width="6" x="15" y="517.4141"/><text fill="#000000" font-family="sans-serif" font-size="11" lengthAdjust="spacing" textLength="46" x="27" y="523.6245">YELLOW</text><rect fill="none" height="6" style="stroke:#C82930;stroke-width:1.0;" width="6" x="15" y="530.2188"/><text fill="#000000" font-family="sans-serif" font-size="11" lengthAdjust="spacing" textLength="31" x="27" y="536.4292">CYAN</text><rect fill="none" height="6" style="stroke:#C82930;stroke-width:1.0;" width="6" x="15" y="543.0234"/><text fill="#000000" font-family="sans-serif" font-size="11" lengthAdjust="spacing" textLength="56" x="27" y="549.2339">MAGENTA</text><line style="stroke:#A80036;stroke-width:1.5;" x1="8" x2="88" y1="555.8281" y2="555.8281"/><!--MD5=[af4d99cd4784731f062880949247790a]
link Mastermind to Player--><path codeLine="24" d="M289.9427,65.32 C289.9427,65.32 271.483,97.986 267,115 C258.656,146.668 266.339,183.513 274.835,210.046 " fill="none" id="Mastermind-Player" style="stroke:#A80036;stroke-width:1.0;"/><polygon fill="#A80036" points="279.138,222.537,279.9885,212.7249,277.5095,217.8096,272.4248,215.3306,279.138,222.537" style="stroke:#A80036;stroke-width:1.0;"/><line style="stroke:#A80036;stroke-width:1.0;" x1="277.5095" x2="274.904" y1="217.8096" y2="210.246"/><polygon fill="#A80036" points="296.483,55.259,289.8592,58.1094,289.9427,65.32,296.5665,62.4696,296.483,55.259" style="stroke:#A80036;stroke-width:1.0;"/><text fill="#000000" font-family="sans-serif" font-size="13" lengthAdjust="spacing" textLength="8" x="267.7591" y="211.8291">2</text><!--MD5=[ba28573f2062cf9f5d1d4aa517f0cc38]
link Mastermind to Board--><path codeLine="25" d="M336.1373,65.5101 C336.1373,65.5101 354.323,98.306 360,115 C383.557,184.274 391.725,270.064 394.539,317.729 " fill="none" id="Mastermind-Board" style="stroke:#A80036;stroke-width:1.0;"/><polygon fill="#A80036" points="395.238,330.958,398.7577,321.7596,394.9743,325.965,390.7689,322.1815,395.238,330.958" style="stroke:#A80036;stroke-width:1.0;"/><line style="stroke:#A80036;stroke-width:1.0;" x1="394.9743" x2="394.552" y1="325.965" y2="317.976"/><polygon fill="#A80036" points="329.868,55.278,329.5919,62.4838,336.1373,65.5101,336.4133,58.3043,329.868,55.278" style="stroke:#A80036;stroke-width:1.0;"/><!--MD5=[f95f66ed9d6e0f523703ae56e87204e4]
link Mastermind to Turn--><path codeLine="26" d="M314,67 C314,67 314,90.677 314,101.364 " fill="none" id="Mastermind-Turn" style="stroke:#A80036;stroke-width:1.0;"/><polygon fill="#A80036" points="314,114.678,318,105.678,314,109.678,310,105.678,314,114.678" style="stroke:#A80036;stroke-width:1.0;"/><line style="stroke:#A80036;stroke-width:1.0;" x1="314" x2="314" y1="109.678" y2="101.678"/><polygon fill="#A80036" points="314,55,310,61,314,67,318,61,314,55" style="stroke:#A80036;stroke-width:1.0;"/><!--MD5=[d81713d91ad05be3b975338c4816ee0b]
link Turn to Player--><path codeLine="27" d="M308.575,163 C304.801,179.003 299.744,200.446 295.715,217.528 " fill="none" id="Turn-to-Player" style="stroke:#A80036;stroke-width:1.0;"/><polygon fill="#A80036" points="294.5,222.678,300.4607,214.8377,295.6487,217.8117,292.6747,212.9998,294.5,222.678" style="stroke:#A80036;stroke-width:1.0;"/><text fill="#000000" font-family="sans-serif" font-size="13" lengthAdjust="spacing" textLength="8" x="286.8656" y="212.0045">2</text><!--MD5=[5e915b8ab835b2366405aaf6901e131b]
link Board to SecretCombination--><path codeLine="28" d="M396,391.216 C396,391.216 396,442.201 396,464.197 " fill="none" id="Board-SecretCombination" style="stroke:#A80036;stroke-width:1.0;"/><polygon fill="#A80036" points="396,477.341,400,468.341,396,472.341,392,468.341,396,477.341" style="stroke:#A80036;stroke-width:1.0;"/><line style="stroke:#A80036;stroke-width:1.0;" x1="396" x2="396" y1="472.341" y2="464.341"/><polygon fill="#A80036" points="396,379.216,392,385.216,396,391.216,400,385.216,396,379.216" style="stroke:#A80036;stroke-width:1.0;"/><!--MD5=[e0b5d9907fda64872c10fd6493e0c51f]
link Board to ProposedCombination--><path codeLine="29" d="M355.9213,386.48 C355.9213,386.48 279.093,444.911 247.192,469.173 " fill="none" id="Board-ProposedCombination" style="stroke:#A80036;stroke-width:1.0;"/><polygon fill="#A80036" points="236.451,477.341,246.0359,475.0763,240.4307,474.3141,241.1929,468.7088,236.451,477.341" style="stroke:#A80036;stroke-width:1.0;"/><line style="stroke:#A80036;stroke-width:1.0;" x1="240.4307" x2="246.7985" y1="474.3141" y2="469.4715"/><polygon fill="#FFFFFF" points="365.473,379.216,358.2758,379.6641,355.9213,386.48,363.1185,386.0319,365.473,379.216" style="stroke:#A80036;stroke-width:1.0;"/><text fill="#000000" font-family="sans-serif" font-size="13" lengthAdjust="spacing" textLength="32" x="208.1541" y="466.3123">0..10</text><!--MD5=[8dd95aff79c51151a18c835e3410b3cd]
link Board to Result--><path codeLine="30" d="M431.7623,387.1305 C431.7623,387.1305 469.198,421.458 486,439 C494.503,447.877 503.298,457.91 511.182,467.258 " fill="none" id="Board-Result" style="stroke:#A80036;stroke-width:1.0;"/><polygon fill="#A80036" points="519.633,477.423,516.956,467.9449,516.4368,473.5779,510.8039,473.0588,519.633,477.423" style="stroke:#A80036;stroke-width:1.0;"/><line style="stroke:#A80036;stroke-width:1.0;" x1="516.4368" x2="511.322" y1="473.5779" y2="467.4265"/><polygon fill="#FFFFFF" points="422.805,379.145,424.6218,386.1235,431.7623,387.1305,429.9454,380.152,422.805,379.145" style="stroke:#A80036;stroke-width:1.0;"/><text fill="#000000" font-family="sans-serif" font-size="13" lengthAdjust="spacing" textLength="32" x="478.8265" y="466.4153">0..10</text><!--MD5=[fda509434d84535b42fd5ff2b224cdda]
reverse link Success to Black--><path codeLine="31" d="M563.976,685.5733 C547.249,700.8589 528.307,718.1673 513.522,731.6784 " fill="none" id="Success-backto-Black" style="stroke:#A80036;stroke-width:1.0;"/><polygon fill="none" points="559.343,680.3244,578.83,672,568.788,690.6594,559.343,680.3244" style="stroke:#A80036;stroke-width:1.0;"/><!--MD5=[4857d16976a5dbb478aa112d62628504]
reverse link Success to White--><path codeLine="32" d="M604,692.0236 C604,705.5792 604,720.0381 604,731.6784 " fill="none" id="Success-backto-White" style="stroke:#A80036;stroke-width:1.0;"/><polygon fill="none" points="597,692.0005,604,672,611,692.0004,597,692.0005" style="stroke:#A80036;stroke-width:1.0;"/><!--MD5=[4995906f1b64b7c93424b81ebdb4e0cf]
link Result to Success--><path codeLine="33" d="M553.5896,536.6313 C553.5896,536.6313 577.622,589.249 587.907,611.767 " fill="none" id="Result-Success" style="stroke:#A80036;stroke-width:1.0;"/><polygon fill="#A80036" points="593.422,623.841,593.3212,613.9927,591.3447,619.293,586.0444,617.3164,593.422,623.841" style="stroke:#A80036;stroke-width:1.0;"/><line style="stroke:#A80036;stroke-width:1.0;" x1="591.3447" x2="588.021" y1="619.293" y2="612.0165"/><polygon fill="#A80036" points="548.604,525.716,547.4584,532.8355,553.5896,536.6313,554.7352,529.5118,548.604,525.716" style="stroke:#A80036;stroke-width:1.0;"/><text fill="#000000" font-family="sans-serif" font-size="13" lengthAdjust="spacing" textLength="24" x="563.6364" y="612.8123">2..4</text><!--MD5=[da9ad8fb5fd564fe8f50205ad94d24cc]
reverse link Result to WinnerResult--><path codeLine="34" d="M519.047,543.995 C507.2,569.933 492.383,602.373 482.578,623.841 " fill="none" id="Result-backto-WinnerResult" style="stroke:#A80036;stroke-width:1.0;"/><polygon fill="none" points="512.719,541,527.396,525.716,525.454,546.817,512.719,541" style="stroke:#A80036;stroke-width:1.0;"/><!--MD5=[a7ac14b573b51ac52b64ab7c9a98a373]
link WinnerResult to Black--><path codeLine="35" d="M477.263,683.8656 C477.263,683.8656 480.858,707.6812 482.503,718.5842 " fill="none" id="WinnerResult-Black" style="stroke:#A80036;stroke-width:1.0;"/><polygon fill="#A80036" points="484.48,731.6784,487.0918,722.1822,483.7337,726.7344,479.1814,723.3763,484.48,731.6784" style="stroke:#A80036;stroke-width:1.0;"/><line style="stroke:#A80036;stroke-width:1.0;" x1="483.7337" x2="482.539" y1="726.7344" y2="718.824"/><polygon fill="#A80036" points="475.472,672,472.4123,678.5298,477.263,683.8656,480.3227,677.3358,475.472,672" style="stroke:#A80036;stroke-width:1.0;"/><text fill="#000000" font-family="sans-serif" font-size="13" lengthAdjust="spacing" textLength="8" x="474.647" y="721.005">4</text><!--MD5=[2f10888865b2f559cc24db01ac34cee3]
reverse link Combination to ProposedCombination--><path codeLine="36" d="M146.397,396.734 C161.367,422.796 180.246,455.662 192.698,477.341 " fill="none" id="Combination-backto-ProposedCombination" style="stroke:#A80036;stroke-width:1.0;"/><polygon fill="none" points="140.227,400.046,136.335,379.216,152.367,393.073,140.227,400.046" style="stroke:#A80036;stroke-width:1.0;"/><!--MD5=[ed81d3472c9069d2de3c2f5cd308846f]
reverse link Combination to SecretCombination--><path codeLine="37" d="M194.955,385.518 C228.978,400.303 269.767,419.242 305,439 C325.457,450.472 347.263,465.117 364.4,477.238 " fill="none" id="Combination-backto-SecretCombination" style="stroke:#A80036;stroke-width:1.0;"/><polygon fill="none" points="191.944,391.844,176.314,377.536,197.455,378.974,191.944,391.844" style="stroke:#A80036;stroke-width:1.0;"/><!--MD5=[6e8433e42d71f9427401b78cd95c6f0c]
link Combination to Color--><path codeLine="38" d="M105.4223,389.867 C105.4223,389.867 92.5076,414.749 85.9391,427.404 " fill="none" id="Combination-Color" style="stroke:#A80036;stroke-width:1.0;"/><polygon fill="#A80036" points="79.9249,438.991,87.6212,432.8455,82.2282,434.5531,80.5206,429.1602,79.9249,438.991" style="stroke:#A80036;stroke-width:1.0;"/><line style="stroke:#A80036;stroke-width:1.0;" x1="82.2282" x2="85.9137" y1="434.5531" y2="427.453"/><polygon fill="#A80036" points="110.95,379.216,104.6358,382.6989,105.4223,389.867,111.7365,386.3841,110.95,379.216" style="stroke:#A80036;stroke-width:1.0;"/><text fill="#000000" font-family="sans-serif" font-size="13" lengthAdjust="spacing" textLength="8" x="75.1537" y="427.9807">4</text><!--MD5=[b705679762bcdc77b2fe4a6d7b34f9c2]
reverse link Player to MakerPlayer--><path codeLine="39" d="M341.596,272.346 C379.666,289.968 430.791,313.633 468.2,330.949 " fill="none" id="Player-backto-MakerPlayer" style="stroke:#A80036;stroke-width:1.0;"/><polygon fill="none" points="338.493,278.623,323.284,263.869,344.374,265.918,338.493,278.623" style="stroke:#A80036;stroke-width:1.0;"/><!--MD5=[38b091ad0e7663b1475f5ae6aa4e536c]
reverse link Player to BreakerPlayer--><path codeLine="40" d="M280.882,291.024 C278.325,304.579 275.597,319.038 273.4,330.678 " fill="none" id="Player-backto-BreakerPlayer" style="stroke:#A80036;stroke-width:1.0;"/><polygon fill="none" points="274.073,289.356,284.66,271,287.831,291.952,274.073,289.356" style="stroke:#A80036;stroke-width:1.0;"/><!--MD5=[18b13c26e1d2c193878da5bba7416a2f]
link MakerPlayer to SecretCombination--><path codeLine="41" d="M498.399,379.216 C476.699,404.918 441.767,446.293 418.845,473.442 " fill="none" id="MakerPlayer-to-SecretCombination" style="stroke:#A80036;stroke-width:1.0;"/><polygon fill="#A80036" points="415.553,477.341,424.4149,473.0437,418.7782,473.5202,418.3017,467.8835,415.553,477.341" style="stroke:#A80036;stroke-width:1.0;"/><!--MD5=[dc1324cba4978b6ab506016644917d9f]
link MakerPlayer to Result--><path codeLine="42" d="M521.213,379.216 C524.712,404.496 530.31,444.941 534.069,472.096 " fill="none" id="MakerPlayer-to-Result" style="stroke:#A80036;stroke-width:1.0;stroke-dasharray:7.0,7.0;"/><polygon fill="#A80036" points="534.795,477.341,537.5229,467.8775,534.1093,472.3882,529.5985,468.9746,534.795,477.341" style="stroke:#A80036;stroke-width:1.0;"/><!--MD5=[b80df01695e05b8bb04c2472d8ebb237]
link BreakerPlayer to ProposedCombination--><path codeLine="43" d="M258.878,379.216 C247.81,404.602 230.076,445.278 218.236,472.435 " fill="none" id="BreakerPlayer-to-ProposedCombination" style="stroke:#A80036;stroke-width:1.0;"/><polygon fill="#A80036" points="216.097,477.341,223.3612,470.6903,218.0957,472.7579,216.0281,467.4924,216.097,477.341" style="stroke:#A80036;stroke-width:1.0;"/><text fill="#000000" font-family="sans-serif" font-size="13" lengthAdjust="spacing" textLength="32" x="182.5844" y="466.3123">0..10</text><!--MD5=[51f1cd63073684154e734ca5db30d1b9]
@startuml
class Mastermind
class Turn
class Board
class Player
class MakerPlayer
class BreakerPlayer
class Combination
class ProposedCombination
class SecretCombination
class Result
class WinnerResult
class Success
class White
class Black
enum Color {
	- RED
	- GREEN
	- BLUE
	- YELLOW
	- CYAN
	- MAGENTA
}

Mastermind *- -> "2"Player
Mastermind *- -> Board
Mastermind *- -> Turn
Turn -down-> "2"Player
Board *- -> SecretCombination
Board o- -> "0..10"ProposedCombination
Board o- -> "0..10"Result
Success <|- - Black
Success <|- - White
Result *- -> "2..4"Success
Result <|- - WinnerResult
WinnerResult *- -> "4"Black
Combination <|- - ProposedCombination
Combination <|- - SecretCombination
Combination *- -> "4"Color
Player <|- - MakerPlayer
Player <|- - BreakerPlayer
MakerPlayer -down-> SecretCombination
MakerPlayer .down.> Result
BreakerPlayer -down-> "0..10"ProposedCombination
@enduml

PlantUML version 1.2021.4beta2(Unknown compile time)
(GPL source distribution)
Java Runtime: Java(TM) SE Runtime Environment
JVM: Java HotSpot(TM) 64-Bit Server VM
Default Encoding: UTF-8
Language: en
Country: US
--></g></svg>